<svg xmlns="http://www.w3.org/2000/svg" width="50" height="50" viewBox="0 0 50 50">
  <g fill="none" fill-rule="evenodd">
    <circle cx="25" cy="25" r="25" fill="#303030"/>
    <g fill-rule="nonzero" transform="translate(10 8)">
      <polygon fill="#DF2B26" points="7.746 .567 0 4.344 1.536 6.16 1.536 23.439 7.746 17.285"/>
      <path fill="#FFF" d="M14.9361864,27.1748148 C14.9361864,28.1226593 14.2888983,28.5287704 13.569661,28.5287704 C12.6152542,28.5287704 12.392161,27.9525333 12.392161,27.3269333 L12.392161,21.8961259 L12.3516102,21.8961259 L9.28372881,24.9350963 L9.28372881,28.0370296 C9.28372881,29.7463481 10.2061017,31.2516667 12.3413136,31.2516667 C13.2807203,31.2516667 14.2376695,30.8630593 14.9361864,30.2200815 L14.9361864,31.0489259 L18.0446186,31.0489259 L18.0446186,21.8961259 L14.9361864,21.8961259 L14.9361864,27.1748148 Z M25.6461864,21.7102593 C24.5876695,21.7102593 23.7177966,22.0817407 23.0162288,22.7588444 L23.0162288,21.896 L19.8919068,21.896 L19.8919068,33.9925704 L23.0162288,33.9925704 L23.0162288,30.2199556 C23.7179237,30.8629333 24.5876695,31.2515407 25.6461864,31.2515407 C28.2251695,31.2515407 29.8319492,29.2049926 29.8319492,26.480837 C29.8319492,23.7911852 28.2251695,21.7102593 25.6461864,21.7102593 Z M24.8097458,28.6125111 C23.6150847,28.6125111 23.0162288,27.6309185 23.0162288,26.4640889 C23.0162288,25.2971333 23.5976695,24.3322889 24.8097458,24.3322889 C25.9891525,24.3322889 26.5346186,25.3126222 26.5346186,26.4640889 C26.5346186,27.5976741 25.9891525,28.6125111 24.8097458,28.6125111 Z"/>
      <path fill="#DF2B26" d="M19.9694492,0 C14.4408051,0.00062962963 9.96050847,4.43901481 9.96050847,9.9149037 C9.96050847,11.4270222 10.3127542,12.8556519 10.9227966,14.1369481 L11.0276695,14.244363 L17.2112288,8.11907407 L15.2666949,6.19278519 L23.7279661,6.19278519 L23.7279661,14.574037 L21.7835593,12.6477481 L15.564661,18.8084222 C16.895339,19.4559333 18.3870763,19.830563 19.9700847,19.830563 C25.4977119,19.830563 29.9794068,15.3916741 29.9794068,9.9149037 C29.9794068,4.43901481 25.4977119,0 19.9694492,0 Z"/>
    </g>
  </g>
</svg>
