<svg xmlns="http://www.w3.org/2000/svg" width="50" height="50" viewBox="0 0 50 50">
  <g fill="none" fill-rule="evenodd">
    <circle cx="25" cy="25" r="25" fill="#211049"/>
    <g fill-rule="nonzero" transform="translate(4 17)">
      <g fill="#11CFA1" transform="translate(0 .718)">
        <path d="M12.1113243 7.3302069C11.6674865 8.99862069 11.4921081 10.7856552 11.4359189 11.145931 11.4319278 11.1703995 11.410858 11.18881 11.3854054 11.190069L8.17467568 11.4438621C8.15674068 11.4447218 8.13948194 11.4371119 8.12833323 11.4234282 8.11718451 11.4097445 8.11351741 11.3916704 8.11848649 11.3748966L9.68497297 6.3062069 10.9234054 2.5942069C10.929262 2.57682137 10.9256779 2.5577361 10.9138797 2.54348358 10.9020815 2.52923106 10.8836696 2.52174443 10.8649459 2.52358621L6.26651351 2.94841379C6.25147388 2.94994581 6.23644082 2.94545921 6.22487662 2.9359873 6.21331242 2.92651539 6.20621401 2.91287472 6.20521622 2.8982069L5.99521622.659310345C5.99428486.644963783 5.99926894.630847261 6.00906701.62008036 6.01886509.60931346 6.0326705.602782604 6.04743243.601931034 5.90554054.607448276 7.27224324.591448276 8.526.510896552 10.1532162.406068966 13.2822162.0237241379 13.2822162.0237241379 13.3121128.0224419912 13.3376943.0443838036 13.3401081.0733793103L13.4513514 2.43862069C13.4519534 2.44613289 13.4507889 2.45367978 13.4479459 2.46068966M12.9064865 11.1944828C13.0069459 12.08 10.1498108 13.1531034 7.10594595 13.2982069 4.13018919 13.44 1.50632432 12.8303448 1.14137838 11.8251034.400702703 12.1771034-.0215675676 12.5776552.000567567568 12.9864828.0601621622 14.0877241 3.31913514 14.8275862 7.27962162 14.6388966 11.2401081 14.4496552 14.4025946 13.4035862 14.343 12.3023448 14.3191622 11.8637241 13.7867838 11.4830345 12.9070541 11.1944828"/>
      </g>
      <path fill="#11CFA1" d="M5.84254054,12.3398621 L2.73964865,12.5743448 C2.72490676,12.5749431 2.71054553,12.569704 2.69984836,12.5598254 C2.68915119,12.5499467 2.68303275,12.5362732 2.68289189,12.521931 C2.67891892,11.7368276 3.35716216,9.52055172 2.21067568,1.13434483 C2.2067027,1.10510345 2.23281081,1.07475862 2.26175676,1.07806897 C3.03024324,1.17296552 4.50364865,1.28 5.28348649,1.24524138 C5.31356757,1.24358621 5.34024324,1.2662069 5.34137838,1.29710345 L5.89475676,12.2835862 C5.89552911,12.2977847 5.89045742,12.3116983 5.88066098,12.3222563 C5.87086455,12.3328144 5.85714872,12.339149 5.84254054,12.3398621"/>
      <path fill="#F8F8F8" d="M16.9532432 3.6502069C16.9532432 4.00993103 16.950973 4.37186207 16.9452973 4.736 16.9396216 5.10068966 16.926 5.70262069 16.9044324 5.92882759L16.9157838 5.92882759C17.1643784 5.4742069 17.6241081 4.82372414 18.0821351 4.55117241 18.5401622 4.27917241 19.0742432 4.14289655 19.6849459 4.14289655 20.2525135 4.14289655 20.7349459 4.22786207 21.1322432 4.39668966 21.5306757 4.56662069 21.8496486 4.80551724 22.0891622 5.11393103 22.3292432 5.42124138 22.5034865 5.7942069 22.613027 6.23062069 22.722 6.66648276 22.7764865 7.14703448 22.7764865 7.67062069 22.7764865 7.67062069 22.6147297 11.0124138 22.8389189 12.0987586 22.8570811 12.1831724 22.7844324 12.2146207 22.7163243 12.2146207L21.0510811 12.2146207C20.9842162 12.2155432 20.9291621 12.1637523 20.9279189 12.0987586L20.9279189 8.36358621C20.9279189 7.984 20.9108919 7.62427586 20.8785405 7.28551724 20.8456216 6.94675862 20.7695676 6.65158621 20.6498108 6.4 20.5351513 6.15435049 20.3506293 5.94569036 20.118 5.79862069 19.883027 5.6502069 19.5646216 5.57572414 19.1610811 5.57572414 18.4743243 5.57572414 17.9345676 5.81958621 17.5418108 6.30731034 17.1490541 6.79503448 16.9532432 7.54206897 16.9532432 8.54841379 16.9532432 8.54841379 16.8703784 11.0708966 17.0168108 12.0866207 17.0258919 12.150069 16.9617568 12.2024828 16.8936486 12.2024828L15.2278378 12.2151724C15.160973 12.2160949 15.1059189 12.164304 15.1046757 12.0993103 15.1046757 12.0993103 15.1523514 3.64137931 15.1523514.692965517 15.1523514.619586207 15.1046757.504827586 15.1046757.437517241 15.1046757.373517241 15.1597297.321655172 15.2278378.321655172L16.8312162 0C16.8993243 0 16.9538108.00551724138 16.9538108.0695172414L16.9538108 3.6502069M33.5035135 4.39944828L34.9854324 4.39944828C35.0518378 4.39944828 35.1046216 4.45241379 35.1046216 4.51751724L35.1046216 5.64468966C35.1049241 5.67571125 35.0925363 5.70557894 35.0701837 5.72772147 35.0478311 5.749864 35.0173449 5.76246734 34.9854324 5.76275862L33.5040811 5.76275862C33.4720699 5.76290402 33.4414379 5.77544315 33.4189627 5.79760161 33.3964875 5.81976007 33.384022 5.84971106 33.3843243 5.88082759L33.3831892 9.17462069C33.3831892 9.488 33.3990811 9.76496552 33.4308649 10.0049655 33.4626486 10.2455172 33.5256486 10.4491034 33.621 10.6162759 33.7157838 10.7828966 33.8026216 10.8656552 33.9626757 10.9787586 34.1232973 11.0929655 34.3588378 11.2386207 34.6437568 11.2386207 34.7913243 11.2386207 34.9042703 11.2275862 35.0694324 11.2077241 35.3458378 11.1751724 35.4996486 10.8435862 35.5836486 10.8292414 35.6209716 10.8212067 35.6600286 10.8300775 35.6898251 10.8533566 35.7196216 10.8766357 35.7369352 10.9118055 35.7368919 10.9489655L35.7357568 12.0822069C35.7374595 12.1362759 35.7357568 12.0711724 35.7368919 12.1710345 35.7385946 12.3293793 35.1460541 12.4882759 34.9434324 12.5191724 34.7061892 12.5561379 34.4661081 12.5743448 34.2226216 12.5743448 33.726 12.5743448 33.3145135 12.5086897 32.987027 12.3784828 32.6723483 12.2574227 32.3962409 12.0575504 32.1867568 11.7991724 31.9812973 11.5431724 31.836 11.2297931 31.7514324 10.8590345 31.6668649 10.4882759 31.6248649 10.0623448 31.6248649 9.58234483L31.6254324 5.88027586C31.6257478 5.81589114 31.5724747 5.7633653 31.5062432 5.76275862L30.6985946 5.76275862C30.6666822 5.76246734 30.636196 5.749864 30.6138433 5.72772147 30.5914907 5.70557894 30.5791029 5.67571125 30.5794054 5.64468966L30.5794054 4.51751724C30.5794054 4.45241379 30.6321892 4.39944828 30.6985946 4.39944828L31.5221351 4.39944828C31.587973 4.39944828 31.6413243 4.34648276 31.6413243 4.28137931L31.6407568 2.77406897C31.6407568 2.72331034 31.6736757 2.67806897 31.7219189 2.66206897L33.225973 2.16165517C33.2627226 2.14962153 33.3031971 2.15571934 33.3344755 2.1780019 33.365754 2.20028447 33.3839255 2.2359659 33.3831892 2.27365517L33.3843243 4.28193103C33.3843243 4.34648276 33.4376757 4.39944828 33.5035135 4.39944828M36.4735946 10.8684138C36.4798378 10.7862069 36.5740541 10.7304828 36.6455676 10.774069 36.9304865 10.9473103 37.3555946 11.0526897 37.6683243 11.1266207 38.0361081 11.2137931 38.3811892 11.2331034 38.7222973 11.2331034 39.1275405 11.2331034 39.4686486 11.1503448 39.7456216 10.985931 40.0225946 10.822069 40.1610811 10.5804138 40.1610811 10.2615172 40.1610811 10.118069 40.1344054 9.98951724 40.0816216 9.87641379 40.0184171 9.75139771 39.9284304 9.64097258 39.8177027 9.55255172 39.6631625 9.43029748 39.4939241 9.32673512 39.3137027 9.24413793 39.0520533 9.12078879 38.7854646 9.00759603 38.5145676 8.90482759 38.1885203 8.7832823 37.8730688 8.63641705 37.5712703 8.46565517 37.337612 8.33464392 37.1270299 8.16812418 36.9475135 7.97241379 36.7925137 7.8009409 36.6730297 7.60198952 36.5956216 7.38648276 36.51762 7.1551007 36.4798321 6.91269982 36.4838108 6.66924138 36.4838108 5.92993103 36.7636216 5.35172414 37.3238108 4.93517241 37.8828649 4.51917241 38.6207027 4.31117241 39.5373243 4.31117241 40.2870811 4.31117241 40.8540811 4.41324138 41.4205135 4.61737931 41.4725772 4.63629992 41.5046601 4.68729228 41.4982703 4.74096552L41.4352703 5.8697931C41.4261892 5.94703448 41.3353784 6.00331034 41.2667027 5.96137931 40.9125405 5.7462069 40.7746216 5.74896552 40.5226216 5.70758621 40.2134139 5.65399346 39.9001964 5.62520681 39.5861351 5.62151724 39.2126757 5.62151724 38.9033514 5.69875862 38.6581622 5.85268966 38.412973 6.00717241 38.2903784 6.23337931 38.2903784 6.53131034 38.2903784 6.67475862 38.3170541 6.80055172 38.3704054 6.90868966 38.4315819 7.02622947 38.5190437 7.1289702 38.6263784 7.20937931 38.7438649 7.30206897 38.8988108 7.38924138 39.0900811 7.47144828 39.2819189 7.5542069 39.5163243 7.64634483 39.7938649 7.74896552 40.5396486 8.02648276 41.0935946 8.34206897 41.4568378 8.69682759 41.8183784 9.05158621 42 9.52717241 42 10.1230345 42 10.5235862 41.9222432 10.8761379 41.7678649 11.1790345 41.6137677 11.4818772 41.3893457 11.7457437 41.1123243 11.9497931 40.8116928 12.1692016 40.4695656 12.3289285 40.1054595 12.4198621 39.6905966 12.5259257 39.2630637 12.5778755 38.8341081 12.5743448 38.0151081 12.5743448 37.2551351 12.4507586 36.5541892 12.2046897 36.5029095 12.1865085 36.4704051 12.1373074 36.4747297 12.0844138L36.4735946 10.8684138M26.8238108 10.8606897C25.5694865 10.8606897 24.9077027 9.79255172 24.9077027 8.26317241 24.9077027 6.7337931 25.5689189 5.74289655 26.8238108 5.74289655 28.0787027 5.74289655 28.5424054 6.73434483 28.5424054 8.26427586 28.5424054 9.79310345 28.0787027 10.8606897 26.8238108 10.8606897zM26.5491081 4.31117241C24.7050811 4.31117241 23.2106757 6.08055172 23.2106757 8.26317241 23.2106757 10.4457931 24.7050811 12.2151724 26.5491081 12.2151724 27.3346216 12.2151724 28.0554324 11.7925517 28.6264054 11.2551724 29.3937568 10.5307586 29.4737838 9.50068966 29.4737838 8.24827586 29.4737838 6.06565517 28.3925676 4.31117241 26.5491081 4.31117241z"/>
      <path fill="#F8F8F8" d="M30.0504324,12.1931034 L28.9328919,12.2151724 C28.8443514,12.2162759 28.7518378,12.1633103 28.7705676,12.102069 C28.8318649,11.9001379 28.794973,11.3710345 28.794973,11.3710345 C28.794973,11.3710345 28.8653514,6.18096552 28.7370811,4.42868966 C28.7325405,4.36524138 28.8068919,4.31282759 28.896,4.31117241 L29.9777838,4.35089655 C30.0663243,4.34924138 30.1446486,4.40055172 30.1401081,4.46344828 C30.0708649,5.45103448 30.0981081,7.32910345 30.1020811,8.27862069 C30.1060541,9.232 30.0941351,11.5514483 30.2087838,12.0755862 C30.222973,12.137931 30.138973,12.192 30.0504324,12.1936552"/>
    </g>
  </g>
</svg>
