<svg xmlns="http://www.w3.org/2000/svg" xmlns:xlink="http://www.w3.org/1999/xlink" width="50" height="50" viewBox="0 0 50 50">
  <defs>
    <circle id="18f-logo-a" cx="25" cy="25" r="25"/>
  </defs>
  <g fill="none" fill-rule="evenodd">
    <mask id="18f-logo-b" fill="#fff">
      <use xlink:href="#18f-logo-a"/>
    </mask>
    <use fill="#000" xlink:href="#18f-logo-a"/>
    <g fill-rule="nonzero" mask="url(#18f-logo-b)">
      <g transform="translate(1 1)">
        <path fill="#000" d="M47.1783784,0 L0.821621622,0 C0.36036036,0 0,0.36036036 0,0.821621622 L0,47.1783784 C0,47.6252252 0.36036036,48 0.821621622,48 L47.1783784,48 C47.6252252,48 48,47.6396396 48,47.1783784 L48,0.821621622 C48,0.36036036 47.6396396,0 47.1783784,0 Z"/>
        <path fill="#FFF" d="M14.1261261 33.0522523C14.1261261 33.2108108 13.9963964 33.3405405 13.8378378 33.3405405L12.036036 33.3405405C11.8774775 33.3405405 11.7477477 33.2108108 11.7477477 33.0522523L11.7477477 16.9225225 9.3981982 16.9225225C9.23963964 16.9225225 9.10990991 16.7927928 9.10990991 16.6342342L9.10990991 14.9189189C9.10990991 14.7603604 9.23963964 14.6306306 9.3981982 14.6306306L13.8378378 14.6306306C13.9963964 14.6306306 14.1261261 14.7603604 14.1261261 14.9189189L14.1261261 33.0522523zM38.8900901 16.6342342C38.8900901 16.7927928 38.7603604 16.9225225 38.6018018 16.9225225L33.6432432 16.9225225 33.6432432 22.5441441 37.7225225 22.5441441C37.8810811 22.5441441 38.0108108 22.6738739 38.0108108 22.8324324L38.0108108 24.5477477C38.0108108 24.7063063 37.8810811 24.836036 37.7225225 24.836036L33.6432432 24.836036 33.6432432 33.0666667C33.6432432 33.2252252 33.5135135 33.354955 33.354955 33.354955L31.5531532 33.354955C31.3945946 33.354955 31.2648649 33.2252252 31.2648649 33.0666667L31.2648649 14.9189189C31.2648649 14.7603604 31.3945946 14.6306306 31.5531532 14.6306306L38.6018018 14.6306306C38.7603604 14.6306306 38.8900901 14.7603604 38.8900901 14.9189189L38.8900901 16.6342342zM22.7027027 33.6432432C19.5459459 33.6432432 16.9657658 31.0630631 16.9657658 27.9063063 16.9657658 26.0036036 17.8882883 24.2882883 19.4306306 23.2216216 18.3207207 22.2702703 17.6576577 20.8720721 17.6576577 19.4162162 17.6576577 16.6342342 19.9207207 14.3711712 22.7027027 14.3711712 25.4846847 14.3711712 27.7477477 16.6342342 27.7477477 19.4162162 27.7477477 20.8864865 27.0846847 22.2702703 25.9747748 23.2216216 27.5171171 24.2882883 28.4396396 26.018018 28.4396396 27.9063063 28.4396396 31.0630631 25.8594595 33.6432432 22.7027027 33.6432432zM22.7027027 24.4468468C20.8 24.4468468 19.2576577 25.9891892 19.2576577 27.8918919 19.2576577 29.7945946 20.8 31.3369369 22.7027027 31.3369369 24.6054054 31.3369369 26.1477477 29.7945946 26.1477477 27.8918919 26.1477477 26.0036036 24.6054054 24.4468468 22.7027027 24.4468468zM22.7027027 22.1693694C24.2306306 22.1693694 25.4558559 20.9297297 25.4558559 19.4162162 25.4558559 17.8882883 24.2162162 16.6630631 22.7027027 16.6630631 21.1891892 16.6630631 19.9495495 17.9027027 19.9495495 19.4162162 19.9495495 20.9297297 21.1747748 22.1693694 22.7027027 22.1693694z"/>
      </g>
    </g>
  </g>
</svg>
