<svg xmlns="http://www.w3.org/2000/svg" width="48" height="48" viewBox="0 0 48 48">
  <defs>
    <linearGradient id="1password-a" x1="50%" x2="50%" y1="2.34%" y2="98.669%">
      <stop offset="0%" stop-color="#0AF"/>
      <stop offset="100%" stop-color="#0080FF"/>
    </linearGradient>
  </defs>
  <g fill="none" fill-rule="evenodd">
    <circle cx="23.913" cy="23.913" r="23.913" fill="#FFF" fill-rule="nonzero" transform="translate(.087 .087)"/>
    <circle cx="23.913" cy="23.913" r="23.913" fill="#FFF" fill-rule="nonzero" transform="translate(.087 .087)"/>
    <circle cx="23.913" cy="23.913" r="23.913" fill="#FFF" fill-rule="nonzero" transform="translate(.087 .087)"/>
    <circle cx="24" cy="24" r="7.609" fill="#F9F9F9" fill-rule="nonzero" stroke="#E5E5E5" stroke-width="1.087"/>
    <path fill="#000" fill-rule="nonzero" d="M5.35434783,13.5913043 C5.23279652,13.4715857 5.16435352,13.3081085 5.16435352,13.1375 C5.16435352,12.9668915 5.23279652,12.8034143 5.35434783,12.6836957 L6.05869565,11.9934783 C6.31413043,11.7434783 6.52173913,11.2543478 6.52173913,10.8869565 L6.52173913,1.30108696 C6.52173913,0.582608696 5.94347826,-3.55271368e-15 5.2173913,-3.55271368e-15 L1.30434783,-3.55271368e-15 C0.583695652,-3.55271368e-15 -3.55271368e-15,0.589130435 -3.55271368e-15,1.31304348 L-3.55271368e-15,5.26086957 C-3.55271368e-15,5.62391304 0.213043478,6.12608696 0.463043478,6.36956522 L1.1673913,7.06086957 C1.28886532,7.18129355 1.35719767,7.34525502 1.35719767,7.51630435 C1.35719767,7.68735367 1.28886532,7.85131514 1.1673913,7.97173913 L0.463043478,8.6673913 C0.184038668,8.97202604 0.0202513279,9.36457739 3.08931624e-16,9.77717391 L3.08931624e-16,19.3532609 C3.08931624e-16,20.0706522 0.57826087,20.6521739 1.30434783,20.6521739 L5.2173913,20.6521739 C5.93804348,20.6521739 6.52173913,20.0630435 6.52173913,19.3391304 L6.52173913,15.3913043 C6.52173913,15.0282609 6.30869565,14.526087 6.05869565,14.2826087 L5.35434783,13.5913043 Z" transform="translate(20.74 14.217)"/>
    <path fill="#434A4F" fill-rule="nonzero" d="M5.35434783,13.5913043 C5.23279652,13.4715857 5.16435352,13.3081085 5.16435352,13.1375 C5.16435352,12.9668915 5.23279652,12.8034143 5.35434783,12.6836957 L6.05869565,11.9934783 C6.31413043,11.7434783 6.52173913,11.2543478 6.52173913,10.8869565 L6.52173913,1.30108696 C6.52173913,0.582608696 5.94347826,-3.55271368e-15 5.2173913,-3.55271368e-15 L1.30434783,-3.55271368e-15 C0.583695652,-3.55271368e-15 -3.55271368e-15,0.589130435 -3.55271368e-15,1.31304348 L-3.55271368e-15,5.26086957 C-3.55271368e-15,5.62391304 0.213043478,6.12608696 0.463043478,6.36956522 L1.1673913,7.06086957 C1.28886532,7.18129355 1.35719767,7.34525502 1.35719767,7.51630435 C1.35719767,7.68735367 1.28886532,7.85131514 1.1673913,7.97173913 L0.463043478,8.6673913 C0.184038668,8.97202604 0.0202513279,9.36457739 3.08931624e-16,9.77717391 L3.08931624e-16,19.3532609 C3.08931624e-16,20.0706522 0.57826087,20.6521739 1.30434783,20.6521739 L5.2173913,20.6521739 C5.93804348,20.6521739 6.52173913,20.0630435 6.52173913,19.3391304 L6.52173913,15.3913043 C6.52173913,15.0282609 6.30869565,14.526087 6.05869565,14.2826087 L5.35434783,13.5913043 Z" transform="translate(20.74 14.217)"/>
    <path fill="#393F42" fill-rule="nonzero" d="M5.35434783,13.5913043 C5.23279652,13.4715857 5.16435352,13.3081085 5.16435352,13.1375 C5.16435352,12.9668915 5.23279652,12.8034143 5.35434783,12.6836957 L6.05869565,11.9934783 C6.31413043,11.7434783 6.52173913,11.2543478 6.52173913,10.8869565 L6.52173913,1.30108696 C6.52173913,0.582608696 5.94347826,-3.55271368e-15 5.2173913,-3.55271368e-15 L1.30434783,-3.55271368e-15 C0.583695652,-3.55271368e-15 -3.55271368e-15,0.589130435 -3.55271368e-15,1.31304348 L-3.55271368e-15,5.26086957 C-3.55271368e-15,5.62391304 0.213043478,6.12608696 0.463043478,6.36956522 L1.1673913,7.06086957 C1.28886532,7.18129355 1.35719767,7.34525502 1.35719767,7.51630435 C1.35719767,7.68735367 1.28886532,7.85131514 1.1673913,7.97173913 L0.463043478,8.6673913 C0.184038668,8.97202604 0.0202513279,9.36457739 3.08931624e-16,9.77717391 L3.08931624e-16,19.3532609 C3.08931624e-16,20.0706522 0.57826087,20.6521739 1.30434783,20.6521739 L5.2173913,20.6521739 C5.93804348,20.6521739 6.52173913,20.0630435 6.52173913,19.3391304 L6.52173913,15.3913043 C6.52173913,15.0282609 6.30869565,14.526087 6.05869565,14.2826087 L5.35434783,13.5913043 Z" transform="translate(20.74 14.217)"/>
    <path fill="url(#1password-a)" fill-rule="nonzero" d="M19.5652174,39.1304348 C8.75978261,39.1304348 0,30.3706522 0,19.5652174 C0,8.75978261 8.75978261,0 19.5652174,0 C30.3706522,0 39.1304348,8.75978261 39.1304348,19.5652174 C39.1304348,30.3706522 30.3706522,39.1304348 19.5652174,39.1304348 Z M19.5652174,34.7826087 C27.9695652,34.7826087 34.7826087,27.9695652 34.7826087,19.5652174 C34.7826087,11.1608696 27.9695652,4.34782609 19.5652174,4.34782609 C11.1608696,4.34782609 4.34782609,11.1608696 4.34782609,19.5652174 C4.34782609,27.9695652 11.1608696,34.7826087 19.5652174,34.7826087 Z" transform="translate(4.435 4.435)"/>
    <path stroke="#0073E6" stroke-width=".543" d="M24,43.2934783 C34.6554348,43.2934783 43.2934783,34.6554348 43.2934783,24 C43.2934783,13.3445652 34.6554348,4.70652174 24,4.70652174 C13.3445652,4.70652174 4.70652174,13.3445652 4.70652174,24 C4.70652174,34.6554348 13.3445652,43.2934783 24,43.2934783 Z M24,39.4891304 C15.4456522,39.4891304 8.51086957,32.5543478 8.51086957,24 C8.51086957,15.4456522 15.4456522,8.51086957 24,8.51086957 C32.5543478,8.51086957 39.4891304,15.4456522 39.4891304,24 C39.4891304,32.5543478 32.5543478,39.4891304 24,39.4891304 Z"/>
  </g>
</svg>
