<svg xmlns="http://www.w3.org/2000/svg" width="50" height="50" viewBox="0 0 50 50">
  <path fill="#23273C" d="M40.357173,29.1255175 C40.1594979,28.9888408 39.9395587,28.8875841 39.7071863,28.8262735 C39.4576358,28.7589741 39.2001645,28.7255583 38.941702,28.7269255 L37.6417287,28.7269255 C37.5099813,28.7269255 37.4224831,28.7619248 37.3769841,28.8348233 C37.3384027,28.9015594 37.3178465,28.9771847 37.3173353,29.0542689 L37.3173353,31.6174676 C37.3173353,31.750365 37.3383848,31.8424631 37.3873338,31.8896622 C37.4361828,31.9385612 37.5338808,31.9609108 37.6810778,31.9609108 L39.381793,31.9609108 C39.7885033,31.9671394 40.1837476,31.8260859 40.4946202,31.5637687 C40.8118137,31.2956741 40.9685605,30.8834823 40.9685605,30.3253935 C40.973117,30.0821964 40.9166295,29.8417377 40.8042638,29.6260075 C40.6943709,29.4279598 40.5416203,29.2569652 40.357173,29.1255175 Z M38.7372062,34.652757 C38.6770802,34.638225 38.6152072,34.6322329 38.55341,34.6349573 L37.4416828,34.6349573 C37.3587844,34.6349573 37.3049855,34.6576569 37.2874859,34.698406 C37.2667741,34.7663867 37.2578455,34.8374099 37.2610864,34.9084018 L37.2610864,38.9255715 C37.2610864,39.1690666 37.2072876,39.3269635 37.0968398,39.398212 C36.988892,39.4710606 36.8159456,39.5072099 36.5742505,39.5072099 L34.6435901,39.5072099 C34.403295,39.5072099 34.2665978,39.453261 34.2392484,39.3429131 C34.2029018,39.1890138 34.1871644,39.0309673 34.1924493,38.8729225 L34.1924493,26.6731665 C34.1924493,26.50117 34.2250487,26.3818724 34.2913973,26.3072239 C34.3593959,26.235392 34.5081262,26.199426 34.7375882,26.199326 L39.1885969,26.199326 C40.0472793,26.199326 40.8044805,26.3052405 41.4602004,26.5170696 C42.114287,26.730632 42.6590758,27.0215596 43.0945669,27.3898522 C43.5250474,27.7483731 43.865108,28.2031748 44.0872466,28.7174756 C44.3153084,29.2546974 44.4291989,29.8334638 44.4216897,30.4170417 C44.42876,30.842138 44.3560901,31.2647936 44.2074441,31.6631167 C44.073923,32.0098614 43.8893937,32.3347343 43.6599553,32.6269975 C43.4577264,32.8848682 43.2215391,33.1141935 42.9578197,33.3087338 C42.7478687,33.4680246 42.519968,33.602154 42.2787836,33.7083758 C42.2053683,33.7380827 42.1347554,33.7742928 42.0677879,33.8165737 C42.063888,33.8292734 42.0827877,33.8893722 42.1318866,33.99967 L44.9724784,40.0337993 C48.2421513,35.7050996 50.0075968,30.4264407 49.9999754,25.00165 C49.9999754,11.1921261 38.8076048,0 24.9999877,0 C11.1932706,0 0,11.1921261 0,25.00165 C0,38.8063739 11.5511633,50 25.3585303,50 C32.2270896,50 38.0918694,47.2271055 42.6081769,42.7437951 L38.8466039,34.7798044 C38.8106547,34.7073059 38.7740054,34.6648067 38.7373562,34.652757 L38.7372062,34.652757 Z M22.7060347,36.3447731 C22.7060347,36.597818 22.6752854,36.7833643 22.6150366,36.898612 C22.5547878,37.0138597 22.4265404,37.0723585 22.2329944,37.0723585 L21.4330108,37.0723585 L21.4330108,39.1073179 C21.4330108,39.2539149 21.3991615,39.3553629 21.3333129,39.4155617 C21.2661142,39.4796104 21.130067,39.5070099 20.9248212,39.5070099 L19.3601033,39.5070099 C19.0943587,39.5070099 18.9074625,39.4746605 18.7967648,39.4082118 C18.688317,39.3404632 18.6337182,39.2112658 18.6337182,39.0169697 L18.6337182,37.0724585 L13.1988295,37.0724585 C13.0038335,37.0724585 12.8702863,37.0374593 12.7983877,36.9711606 C12.7248892,36.9047119 12.68839,36.7870643 12.68839,36.6176176 L12.68839,35.252645 C12.6841839,35.0862386 12.7088137,34.92036 12.7611885,34.7623548 C12.8208841,34.6046915 12.8940532,34.452465 12.979884,34.3073639 L17.6704379,26.8899622 C17.7671026,26.7443985 17.8763503,26.5960681 17.9981812,26.4449711 C18.1171288,26.2932241 18.299525,26.2178756 18.54227,26.2178756 L20.9969697,26.2178756 C21.227615,26.2178756 21.3569624,26.2634247 21.3873617,26.3548729 C21.4229893,26.4880461 21.4384607,26.6258062 21.4332608,26.7635647 L21.4332608,34.5622588 L22.3244925,34.5622588 C22.4697395,34.5622588 22.5686875,34.5957581 22.6238864,34.6622568 C22.6792853,34.7300554 22.7060347,34.8639027 22.7060347,35.0722485 L22.7060347,36.3447731 Z M32.889126,35.4697906 C32.843127,36.3924221 32.6115817,37.1857063 32.0781927,37.8552929 C31.8929464,38.1324874 31.5999024,38.4119318 31.3409578,38.6352773 C30.9283162,38.9883202 30.4286264,39.2552649 29.8418385,39.4422111 C29.2022717,39.6379766 28.5362361,39.733474 27.8674289,39.7253055 C27.3017343,39.7300305 26.7365468,39.6901746 26.1771136,39.6061079 C25.7577234,39.5413908 25.3423083,39.4531196 24.9328391,39.3417132 C24.6479583,39.268591 24.3707197,39.168404 24.104906,39.0425191 C23.9566683,38.9760769 23.8162062,38.8934965 23.6860646,38.7962741 C23.6136161,38.7377752 23.5810668,38.549579 23.5872167,38.2336353 C23.5945025,37.9062517 23.6371663,37.5806156 23.714464,37.2624048 C23.7787041,36.9646865 23.888905,36.6787849 24.0411074,36.4149717 C24.1806545,36.1865263 24.3400512,36.1129777 24.5227975,36.198076 C24.6381951,36.2594748 25.569526,36.847113 27.1018446,37.0180596 C27.962227,37.0950581 28.7656105,36.9838103 29.3463986,36.6617168 C29.8794377,36.3660227 30.1428323,35.947081 30.1721317,35.3404932 C30.2111809,34.5646587 30.0894834,34.0268695 29.8075392,33.747275 C29.2590004,33.1933861 28.2836204,33.1742865 26.9704473,33.1805364 C25.1188353,33.1916862 24.5850462,32.9390912 24.3679507,32.749495 C24.2726259,32.6835809 24.1896879,32.6013537 24.1229557,32.5065999 C23.9846085,32.302104 23.9137599,32.0224595 23.9137599,31.6716165 L23.9137599,26.7442151 C23.9078149,26.5895843 23.975361,26.4412535 24.0959062,26.3442231 C24.2162038,26.248125 24.3316514,26.199226 24.4419491,26.199226 L31.623002,26.199226 C31.7173533,26.1994846 31.8081656,26.2351742 31.8774468,26.299224 C31.9491453,26.3657727 31.9857945,26.4785204 31.9857945,26.6364173 L31.9857945,28.5619288 C31.9857945,28.7335253 31.9307957,28.8437231 31.8231479,28.898972 C31.7138501,28.9542709 31.5188041,28.9807204 31.2398598,28.9807204 L27.5859847,28.9807204 C27.4281696,28.9753095 27.2707853,29.0002785 27.1223942,29.0542689 C27.0076966,29.103168 26.9494478,29.2110658 26.9494478,29.3802624 L26.9494478,30.5623888 C26.9494478,30.5648887 26.9519977,30.5694886 26.9519977,30.5734385 C28.6715125,30.548789 30.5169247,30.6337873 31.7572992,31.8834123 C32.5841823,32.7170456 32.9648245,33.9252215 32.889126,35.4697906 Z M18.6336182,34.5622588 L18.6336182,29.9454511 L15.7801766,34.5622588 L18.6336182,34.5622588 Z"/>
</svg>
