<svg xmlns="http://www.w3.org/2000/svg" width="50" height="50" viewBox="0 0 50 50">
  <g fill="none">
    <circle cx="24.999" cy="24.999" r="24.999" fill="#35AA4E"/>
    <path fill="#FFF" d="M7.98785714,9.99142857 L7.98785714,6.98142857 C7.98785714,3.935 8.77607143,2.3575 11.8957143,2.3575 L12.6471429,2.3575 L12.6471429,0.0275 L11.4289286,0.0275 C7.1625,0.0275 5.08464286,2.32178571 5.08464286,6.69428571 L5.08464286,9.23892857 C5.08464286,12.9314286 4.08071429,15.4760714 0.353571429,15.4760714 L0.0303571429,15.4760714 L0.0303571429,18.0542857 L0.353571429,18.0542857 C4.04464286,18.0542857 5.08464286,20.6707143 5.08464286,24.29 L5.08464286,26.8717857 C5.08464286,31.1721429 7.09071429,33.5385714 11.4289286,33.5385714 L12.6471429,33.5385714 L12.6471429,31.2092857 L11.8957143,31.2092857 C8.77607143,31.2092857 7.98785714,29.6328571 7.98785714,26.5846429 L7.98785714,23.5764286 C7.98785714,19.9907143 6.51785714,17.8410714 3.43464286,16.8017857 C6.48285714,15.7257143 7.98785714,13.6471429 7.98785714,9.99142857 Z" transform="translate(23.571 8.214)"/>
    <path fill="#FFF" d="M7.79321429,22.8428571 L7.79321429,9.56107143 C7.79321429,3.98428571 7.27142857,0.0771428571 7.27142857,0.0771428571 C7.27142857,0.0771428571 3.5275,2.715 1.90035714,10.0357143 C0.612857143,15.8317857 0.206785714,22.0714286 0.206785714,22.0714286 C0.206785714,22.0714286 5.08714286,22.0364286 5.38107143,22.6575 C5.67142857,23.2775 5.07464286,25.01 5.07464286,27.0196429 C5.07464286,29.0289286 5.33071429,29.9653571 5.11107143,30.7321429 C4.8925,31.5010714 4.36642857,31.6960714 4.34321429,32.0482143 C4.32107143,32.4 4.38071429,34.2060714 6.24428571,34.2060714 C6.76178571,34.2060714 7.52035714,33.7089286 7.66678571,32.4175 C7.90571429,30.3025 7.97392857,26.0985714 7.79321429,22.8428571 Z M6.21392857,32.7221429 C5.975,32.7221429 5.78214286,32.5292857 5.78214286,32.2907143 C5.78214286,32.0521429 5.975,31.8582143 6.21392857,31.8582143 C6.45392857,31.8582143 6.64678571,32.0521429 6.64678571,32.2907143 C6.64678571,32.5292857 6.45392857,32.7221429 6.21392857,32.7221429 Z M6.5625,28.9360714 C6.32321429,28.9360714 6.13035714,28.7428571 6.13035714,28.5035714 C6.13035714,28.2646429 6.32321429,28.0717857 6.5625,28.0717857 C6.80071429,28.0717857 6.99535714,28.2646429 6.99535714,28.5035714 C6.995,28.7421429 6.80107143,28.9360714 6.5625,28.9360714 Z M6.62821429,25.2578571 C6.39107143,25.2578571 6.19714286,25.0628571 6.19714286,24.8260714 C6.19714286,24.5867857 6.39107143,24.3928571 6.62821429,24.3928571 C6.86785714,24.3928571 7.06035714,24.5860714 7.06035714,24.8260714 C7.06071429,25.0628571 6.8675,25.2578571 6.62821429,25.2578571 Z" transform="translate(13.571 7.857)"/>
  </g>
</svg>
