<svg xmlns="http://www.w3.org/2000/svg" width="28" height="32" viewBox="0 0 28 32">
  <g fill="none">
    <path fill="#EB7723" d="M11.5106686,9.29585586 C5.15346926,9.29585586 0,14.3322523 0,20.5434234 C0,26.7553153 5.15346926,31.790991 11.5106686,31.790991 C17.8678679,31.790991 23.0213371,26.7553153 23.0213371,20.5434234 C23.0213371,14.3322523 17.8678679,9.29585586 11.5106686,9.29585586 Z M11.5106686,25.5423423 C8.69016385,25.5423423 6.39481587,23.2994595 6.39481587,20.5427027 C6.39481587,17.7859459 8.69016385,15.5437838 11.5106686,15.5437838 C14.3311733,15.5437838 16.6265213,17.7859459 16.6265213,20.5427027 C16.6265213,23.2994595 14.3311733,25.5423423 11.5106686,25.5423423 Z"/>
    <path fill="#F9A11E" d="M7.05421211,8.44396396 C6.94283757,8.48 6.76876877,8.52972973 6.59248722,8.52972973 C6.07028081,8.52972973 5.62109478,8.22414414 5.42268584,7.78594595 L3.37442706,3.49405405 L3.39655445,3.5409009 C3.31025763,3.37297297 3.26231495,3.18342342 3.26231495,2.98234234 C3.26231495,2.50810811 3.54333281,2.08144144 3.96965386,1.86378378 C6.22959802,0.723603604 8.79268742,0.0792792793 11.5106686,0.0792792793 C20.6050261,0.0792792793 27.977135,7.28288288 27.977135,16.1693694 C27.977135,20.8987387 25.8883094,25.1531532 22.5625626,28.0972973 L22.5610874,28.0994595 C22.5227333,28.1297297 22.4917549,28.1441441 22.4482377,28.1441441 C22.3597281,28.1441441 22.2881829,28.0742342 22.2881829,27.9884685 C22.2881829,27.9459459 22.298509,27.9099099 22.3184237,27.876036 C23.8002213,25.796036 24.6698277,23.2691892 24.6698277,20.5427027 C24.6698277,13.4414414 18.7780412,7.68432432 11.5106686,7.68432432 C9.94552447,7.68504505 8.44602497,7.95315315 7.05421211,8.44396396"/>
  </g>
</svg>
