<svg xmlns="http://www.w3.org/2000/svg" width="34" height="32" viewBox="0 0 34 32">
  <path fill="#FF7B00" d="M26.9431111,0.357209302 C26.7466667,0.0148837209 26.3008889,-0.096744186 25.9608889,0.096744186 L14.1817778,6.7944186 C13.9173333,6.94325581 13.7737778,7.24837209 13.8342222,7.55348837 L17.8311111,26.7906977 L17.2342222,27.4530233 C16.2293333,28.5618605 15.3831111,29.1646512 13.7737778,29.1646512 C11.968,29.1646512 11.1142222,28.2269767 9.77688889,26.5674419 C8.17511111,24.587907 6.17288889,22.1246512 1.32222222,22.1246512 L1.20133333,22.1246512 C0.536444444,22.1246512 0,22.6530233 0,23.307907 C0,23.9627907 0.536444444,24.4911628 1.20133333,24.4911628 L1.32222222,24.4911628 C5.02444444,24.4911628 6.42222222,26.2176744 7.90311111,28.0483721 C9.22533333,29.6855814 10.7288889,31.5311628 13.7813333,31.5311628 C16.4182222,31.5311628 17.8613333,30.3255814 19.04,29.0232558 L23.3693333,24.215814 C23.3693333,24.215814 33.6675556,12.7776744 33.6675556,12.7776744 C33.8715556,12.5469767 33.9093333,12.2195349 33.7506667,11.9516279 L26.9431111,0.357209302 Z"/>
</svg>
