<svg xmlns="http://www.w3.org/2000/svg" width="38" height="14" viewBox="0 0 38 14">
  <path fill="#0173CF" d="M4.19767442,10.71875 L3.53488372,13.65 C3.53488372,13.7375 3.44651163,13.78125 3.35813953,13.78125 L0.176744186,13.78125 C0.13255814,13.78125 0.0441860465,13.7375 0.0441860465,13.69375 C2.77555756e-17,13.65 2.77555756e-17,13.60625 2.77555756e-17,13.5625 L4.19767442,0.9625 C4.19767442,0.9625 4.28604651,0.74375 4.55116279,0.65625 C5.47906977,0.48125 6.9372093,0.2625 7.95348837,0.0875 C8.1744186,0.04375 8.2627907,0.2625 8.2627907,0.2625 L12.372093,13.65 C12.372093,13.69375 12.372093,13.7375 12.327907,13.78125 C12.2837209,13.825 12.2395349,13.825 12.1953488,13.825 L10.3395349,13.825 C9.85348837,13.825 8.88139535,13.86875 8.52790698,13.86875 C8.43953488,13.86875 8.35116279,13.825 8.35116279,13.7375 L7.68837209,10.7625 L4.19767442,10.71875 Z M7.15813953,8.1375 C6.89302326,7.0875 6.49534884,5.20625 6.09767442,3.5875 C5.83255814,4.725 5.21395349,7.04375 4.90465116,8.1375 L7.15813953,8.1375 Z M16.5697674,5.03125 C18.8232558,3.5 20.7232558,3.85 21.6511628,4.76875 C22.755814,5.90625 22.1372093,7.39375 22.4906977,13.65 C22.4906977,13.69375 22.4906977,13.7375 22.4465116,13.78125 C22.4023256,13.825 22.3581395,13.825 22.3139535,13.825 C21.9604651,13.825 21.2976744,13.78125 20.9883721,13.78125 C20.4581395,13.78125 19.3534884,13.825 18.9116279,13.825 C18.8674419,13.825 18.8232558,13.825 18.7790698,13.78125 C18.7348837,13.7375 18.7348837,13.69375 18.7348837,13.65 C18.7790698,7.525 18.8232558,6.69375 17.7186047,6.69375 C17.3209302,6.69375 17.0116279,6.86875 16.6581395,7 C16.6581395,10.15 16.7023256,11.06875 16.8348837,13.60625 C16.8348837,13.65 16.8348837,13.69375 16.7906977,13.69375 C16.7465116,13.7375 16.7023256,13.7375 16.7023256,13.7375 L13.1674419,13.78125 C13.1232558,13.78125 13.0790698,13.78125 13.0790698,13.7375 C13.0348837,13.69375 13.0348837,13.65 13.0348837,13.65 C13.1232558,4.50625 13.0348837,2.625 12.7697674,0.7 C12.6372093,0.6125 12.8139535,0.6125 12.8139535,0.6125 C14.4046512,0.39375 14.5372093,0.35 16.3488372,0 C16.3488372,0 16.5255814,0 16.5255814,0.21875 C16.5697674,1.575 16.5697674,5.03125 16.5697674,5.03125 Z M28.6767442,12.8625 C28.0139535,13.34375 26.7325581,14 25.672093,14 C24.0372093,14 23.0209302,12.81875 23.0209302,11.06875 C23.0209302,8.35625 26.2465116,7.56875 28.544186,7.2625 C28.5883721,6.825 28.5883721,6.34375 27.4395349,6.34375 C26.2906977,6.34375 25.3186047,6.69375 24.3023256,7.0875 C24.2581395,7.13125 24.1697674,7.0875 24.1255814,7.0875 C24.0813953,7.04375 24.0372093,7 24.0372093,6.9125 L24.1255814,4.8125 C24.1255814,4.725 24.1697674,4.68125 24.2581395,4.6375 C26.3348837,4.025 29.8697674,3.54375 31.327907,4.9 C32.255814,5.73125 32.2116279,6.78125 32.1674419,8.53125 C32.1232558,11.06875 32.1674419,11.76875 32.3,13.65 C32.3,13.69375 32.3,13.7375 32.255814,13.78125 C32.2116279,13.825 32.1674419,13.825 32.1232558,13.825 L28.8534884,13.86875 C28.8093023,13.86875 28.7651163,13.86875 28.7209302,13.825 C28.6767442,13.78125 28.6767442,13.7375 28.6767442,13.69375 L28.6767442,12.8625 Z M28.5883721,9.23125 C27.7488372,9.31875 26.4674419,9.40625 26.4674419,10.5 C26.4674419,11.4625 27.527907,11.76875 28.5883721,11.1125 L28.5883721,9.23125 Z M34.5093023,9.275 C34.4209302,9.275 34.3325581,9.1875 34.3325581,9.1 C34.1116279,4.33125 34.0674419,3.80625 33.8023256,0.83125 C33.8023256,0.74375 33.8465116,0.65625 33.9790698,0.6125 L37.5139535,0.04375 C37.5581395,0.04375 37.6465116,0.04375 37.6906977,0.0875 C37.7348837,0.13125 37.7348837,0.175 37.7348837,0.2625 C37.5139535,2.40625 37.2930233,6.475 37.2488372,9.05625 C37.2488372,9.14375 37.1604651,9.23125 37.072093,9.23125 L34.5093023,9.275 Z M33.8924651,13.33675 C33.8906977,13.321875 33.8906977,13.3074375 33.8906977,13.293 C33.8906977,12.6993125 33.9057209,12.09075 33.9096977,11.5635625 C33.9093673,11.3693118 33.903031,11.1751167 33.8906977,10.98125 C33.8906977,10.9510625 33.8906977,10.920875 33.9048372,10.891125 C33.9022686,10.7907042 33.8975543,10.6903484 33.8906977,10.590125 C33.8906977,10.546375 33.8906977,10.50175 33.9353256,10.4575625 C33.9803953,10.4129375 34.0250233,10.4129375 34.0696512,10.4129375 C34.9644186,10.50175 36.530814,10.4575625 37.2466279,10.36875 C37.2912558,10.36875 37.3358837,10.36875 37.3809535,10.4129375 C37.4255814,10.4575625 37.4255814,10.50175 37.4255814,10.5459375 C37.4255814,10.6631875 37.4251395,10.7795625 37.423814,10.8941875 C37.4251936,10.9085827 37.4257836,10.9230415 37.4255814,10.9375 L37.4255814,13.65 C37.4255814,13.69375 37.4255814,13.7375 37.3813953,13.78125 C37.3372093,13.825 37.2930233,13.825 37.2488372,13.825 C35.9674419,13.78125 35.172093,13.78125 34.0674419,13.86875 C34.0232558,13.86875 33.9790698,13.86875 33.9348837,13.825 C33.8906977,13.78125 33.8906977,13.7375 33.8906977,13.69375 C33.8906977,13.575625 33.8911395,13.4561875 33.8924651,13.33675 Z"/>
</svg>
