<svg xmlns="http://www.w3.org/2000/svg" xmlns:xlink="http://www.w3.org/1999/xlink" width="50" height="50" viewBox="0 0 50 50">
  <defs>
    <polygon id="alight-a" points=".008 12.672 .008 .052 18.236 .052 18.236 12.672"/>
    <polygon id="alight-c" points="9.482 14.254 .046 14.254 .046 .067 9.482 .067"/>
  </defs>
  <g fill="none" fill-rule="evenodd">
    <circle cx="25" cy="25" r="25" fill="#252526"/>
    <g transform="translate(3 16)">
      <mask id="alight-b" fill="#fff">
        <use xlink:href="#alight-a"/>
      </mask>
      <path fill="#FFF200" fill-rule="nonzero" d="M16.942,0.0528 C16.2268,0.0528 15.6476,0.6328 15.6476,1.3472 C15.6476,2.062 16.2264,2.6416 16.9416,2.6416 C17.6564,2.6416 18.236,2.0616 18.236,1.3472 C18.236,0.6324 17.6568,0.0528 16.942,0.0528 Z M4.7412,10.612 C3.3232,10.612 2.3332,9.5584 2.3332,8.0496 C2.3332,6.5656 3.3452,5.4876 4.7412,5.4876 C6.1468,5.4876 7.1668,6.5648 7.1668,8.0492 C7.1668,9.558 6.1696,10.6116 4.7412,10.6116 L4.7412,10.612 Z M4.724,3.428 C1.9872,3.428 0,5.372 0,8.0492 C0,10.728 1.8288,12.672 4.3488,12.672 C5.412,12.672 6.4224,12.3256 7.1668,11.7248 L7.1668,12.518 L9.4484,12.518 L9.4484,8.05 C9.4484,5.3716 7.4624,3.4276 4.7244,3.4276 L4.724,3.428 Z" mask="url(#alight-b)"/>
      <polyline fill="#FFF200" fill-rule="nonzero" points="15.801 12.518 18.083 12.518 18.083 3.581 15.801 3.581"/>
      <g transform="translate(19.24 3.498)">
        <mask id="alight-d" fill="#fff">
          <use xlink:href="#alight-c"/>
        </mask>
        <path fill="#FFF200" fill-rule="nonzero" d="M4.764,0.0672 C2.112,0.0672 0.1648,1.8904 0.0452,4.4384 L2.382,4.4384 C2.49,3.0848 3.4648,2.1264 4.7804,2.1264 C6.1056,2.1264 7.0876,3.0848 7.1964,4.4384 L9.482,4.4384 C9.3624,1.8904 7.4152,0.0672 4.764,0.0672 M7.0784,5.5672 C7.0436,5.6848 7.0016,5.7976 6.9532,5.9048 L6.9412,5.9316 C6.9348,5.9444 6.928,5.9572 6.922,5.9704 C6.5284,6.7604 5.7552,7.2504 4.7808,7.2504 C3.6584,7.2504 2.804,6.5904 2.4968,5.5664 L0.1,5.5664 C0.448,7.7896 2.1412,9.3264 4.3816,9.3264 C5.4444,9.3264 6.4548,8.9808 7.1996,8.38 L7.1996,9.3864 C7.1996,9.3864 7.1856,10.0088 7.1196,10.3304 C6.8556,11.4472 5.9496,12.2024 4.7736,12.2024 C3.6004,12.2024 2.6976,11.4404 2.44,10.316 L0.0776,10.316 C0.3828,12.6388 2.256,14.262 4.7576,14.262 C7.2164,14.262 9.0676,12.6924 9.4188,10.432 L9.42,10.432 L9.428,10.3728 C9.4304,10.354 9.434,10.3352 9.436,10.316 L9.4336,10.316 C9.4516,10.1416 9.4796,9.7528 9.4816,9.036 L9.4816,9.1732 L9.4816,5.5672 L7.0784,5.5672" mask="url(#alight-d)"/>
      </g>
      <path fill="#FFF200" fill-rule="nonzero" d="M43.444,10.3868 C42.88,10.4216 42.464,10.3172 42.2064,10.0748 C41.9544,9.8388 41.8264,9.4428 41.8264,8.898 L41.8264,5.06 L43.3664,5.06 L43.3664,2.972 L41.8264,2.972 L41.8264,0.9344 L39.5492,0.9344 L39.5492,8.8984 C39.5492,10.1288 39.9404,11.1272 40.6804,11.7856 C41.2776,12.3168 42.0576,12.5908 42.9604,12.5908 C43.1412,12.5908 43.3284,12.5796 43.5184,12.5576 L43.8836,12.5148 L43.8836,10.3596 L43.4448,10.3876 M13.1192,10.1352 C12.9332,9.9576 12.8392,9.6524 12.8392,9.2284 L12.8392,0.152 L10.5208,0.152 L10.5208,9.274 C10.5208,10.3964 10.8808,11.3108 11.5632,11.918 C12.1132,12.4084 12.8452,12.6672 13.6792,12.6672 C13.846,12.6672 14.0176,12.6572 14.19,12.6372 L14.654,12.5836 L14.654,10.3576 L14.1052,10.3832 C13.646,10.4048 13.3148,10.3208 13.1192,10.1344 M34.582,3.286 C33.7636,3.286 33.006,3.546 32.386,3.986 L32.386,0.2372 L30.046,0.2372 L30.046,12.518 L32.396,12.518 L32.396,7.1868 C32.396,6.1812 33.028,5.366 34.2172,5.366 C35.2224,5.366 36.038,6.1812 36.038,7.1868 L36.0404,12.518 L38.3812,12.518 L38.3812,7.084 C38.3812,6.9308 38.3712,6.78 38.3532,6.6312 C38.1292,4.7472 36.5272,3.286 34.5824,3.286"/>
    </g>
  </g>
</svg>
