<svg xmlns="http://www.w3.org/2000/svg" width="30" height="30" viewBox="0 0 30 30">
  <g fill="none">
    <path fill="#941A1C" d="M6.76849315,2.9472973 L6.76849315,11.6391892 C6.754812,14.2883597 8.91596969,16.4493187 11.6013699,16.4716216 L17.4082192,16.4716216 C18.9942917,16.5295389 20.2576367,17.800737 20.2849315,19.3662162 L20.2849315,27.0972973 C20.2558106,28.6633985 18.9947105,29.9358923 17.4082192,30 L2.90136986,30 C1.30611441,29.9464619 0.0318304127,28.6715926 0,27.0972973 L0,19.3662162 C1.82502415e-16,12.5675676 0.842465753,8.02297297 2.50684932,5.27027027 C3.43086821,3.82758066 5.03859076,2.95122962 6.76849315,2.9472973"/>
    <path fill="#F60" d="M23.1657534,27.0527027 L23.1657534,18.3608108 C23.1816998,15.7107308 21.0192294,13.5484592 18.3328767,13.5283784 L12.5342466,13.5283784 C10.9395977,13.4791521 9.66295487,12.207292 9.62876712,10.6337838 L9.62876712,2.9027027 C9.66070109,1.32689336 10.9373825,0.0514320405 12.5342466,0 L27.0616438,0 C28.6481351,0.0641076951 29.9092352,1.3366015 29.9383562,2.9027027 L29.9383562,10.6337838 C29.9383562,17.4405405 29.0917808,21.9851351 27.4273973,24.75 C26.5017773,26.1883948 24.8928313,27.0577598 23.1657534,27.0527027"/>
  </g>
</svg>
