<svg xmlns="http://www.w3.org/2000/svg" width="40" height="22" viewBox="0 0 40 22">
  <g fill="none">
    <path fill="#EE0788" d="M6.56258993,7.02201993 L9.28604317,10.3446047 L9.37410072,10.245495 C9.66784173,9.92287708 9.94604317,9.60712957 10.2069065,9.29635216 C10.4685612,8.98725581 11.1386331,8.25109635 11.3802878,7.93498339 L12.451295,9.89992691 C12.2679856,10.1636346 12.0278417,10.4700997 11.7302158,10.8196146 C11.4336691,11.169495 11.0792086,11.5711229 10.6672662,12.0257409 L13.4702158,15.5170166 L10.6289209,15.5170166 L9.11971223,13.6480399 C7.73438849,15.0922193 6.29460432,15.8136877 4.79935252,15.8136877 C3.45935252,15.8136877 2.32280576,15.3825316 1.38906475,14.5177342 C0.474388489,13.6480399 0.0173381295,12.573402 0.0173381295,11.2944053 C0.0173381295,9.77121595 0.741942446,8.50552159 2.1923741,7.49659136 L3.18208633,6.81437209 C3.19532374,6.80808638 3.21805755,6.79120266 3.25035971,6.76437874 L3.38741007,6.65642525 C2.38848921,5.58134884 1.88848921,4.52352159 1.88848921,3.48126246 C1.88848921,2.4526711 2.22208633,1.61542857 2.88798561,0.969607973 C3.56748201,0.323495017 4.44323741,7.3089701e-05 5.51388489,7.3089701e-05 C6.55316547,7.3089701e-05 7.41151079,0.31289701 8.09079137,0.939348837 C8.77007194,1.56682392 9.10985612,2.35706977 9.10985612,3.3127907 C9.10985612,3.9720598 8.92395683,4.56934884 8.55129496,5.10312292 C8.18539568,5.63777409 7.52230216,6.27672425 6.56244604,7.02194684 L6.56251799,7.02194684 L6.56258993,7.02201993 Z M4.74978417,8.31760797 L4.62223022,8.40670432 C3.6881295,9.05968771 3.05107914,9.5834485 2.71179856,9.97827907 C2.37856115,10.3744252 2.21230216,10.7935216 2.21230216,11.2348372 C2.21230216,11.8680133 2.46366906,12.4481993 2.96640288,12.9748837 C3.48856115,13.4828571 4.06345324,13.7364053 4.69136691,13.7364053 C5.57266187,13.7364053 6.58899281,13.1533688 7.73798561,11.986711 L4.74971223,8.31760797 L4.74978417,8.31760797 Z M5.24007194,5.40023256 L5.42597122,5.26136213 C5.74611511,5.01877741 6.01071942,4.8052093 6.21971223,4.62431229 C6.42834532,4.44283056 6.57935252,4.28948837 6.67071942,4.16392027 C6.86633094,3.92075083 6.96446043,3.61998671 6.96446043,3.26462458 C6.96446043,2.86219269 6.8305036,2.53621262 6.56280576,2.28493023 C6.29489209,2.03474419 5.9352518,1.90895681 5.48460432,1.90895681 C5.07323741,1.90895681 4.72733813,2.03788704 4.44604317,2.29472425 C4.16553957,2.5392093 4.02438849,2.85196013 4.02438849,3.23458472 C4.02438849,3.68313621 4.20107914,4.12445183 4.55395683,4.55999336 L5.1218705,5.25207973 C5.14172662,5.28482392 5.18093525,5.33489037 5.24007194,5.40023256 Z"/>
    <path fill="#00B0E9" d="M10.2161151 5.12358804C10.7510072 5.17803987 11.2469065 5.20917608 11.701223 5.21801993 12.1566187 5.22803322 12.6615827 5.23212625 13.2148201 5.23212625 13.748777 5.23212625 14.2935252 5.22803322 14.8469065 5.21801993 15.4001439 5.20917608 15.9447482 5.17803987 16.4795683 5.12358804L16.4795683 5.44766777C16.087482 5.48399336 15.7131655 5.60152159 15.3555396 5.79915615 14.9995683 5.99766777 14.8208633 6.32211296 14.8208633 6.77161462 14.8208633 7.13238538 14.9358993 7.61463123 15.1689209 8.21725581 15.4000719 8.82156146 15.6716547 9.46957475 15.9846763 10.1625382 16.2967626 10.8568173 16.618777 11.5635216 16.9481295 12.2839668 17.2780576 13.0047774 17.5415108 13.6710631 17.737482 14.2835548 17.8274101 14.1031694 17.9657554 13.8061329 18.1528777 13.391495 18.3404317 12.9770033 18.5545324 12.5040399 18.795036 11.9734817 19.0357554 11.4429236 19.2779856 10.8880266 19.5177698 10.312299 19.7594245 9.73576744 19.9820144 9.19556146 20.1882014 8.69087708 20.392446 8.18590033 20.5619424 7.74568106 20.6953957 7.36729568 20.8306475 6.98839867 20.8974101 6.73653156 20.8974101 6.61001329 20.8974101 6.39425249 20.8480576 6.22278405 20.7500719 6.0968505 20.6517266 5.97077076 20.5317266 5.86705648 20.3880576 5.78534219 20.244964 5.70567442 20.0759712 5.64252492 19.8792086 5.59662458 19.6834532 5.55240532 19.4944604 5.50255814 19.317554 5.44788704L19.317554 5.12380731C19.7271223 5.17825914 20.1386331 5.20939535 20.5483453 5.2182392 20.958777 5.22825249 21.3782734 5.23234551 21.8070504 5.23234551 22.2164029 5.23234551 22.6197122 5.22825249 23.0120144 5.2182392 23.4033813 5.20939535 23.8053957 5.17825914 24.2160432 5.12380731L24.2160432 5.44788704C23.7164029 5.52046512 23.23 5.83087708 22.7569784 6.37963455 22.2845324 6.92985382 21.8483453 7.55601329 21.4466906 8.25862458 21.0441007 8.96087043 20.6905755 9.64996013 20.3877698 10.324505 20.0848201 11.0002924 19.8527338 11.5006645 19.6916547 11.8253289 18.9435971 13.3913488 18.2639568 14.7336412 17.6573381 15.8503787 17.0503597 16.9674817 16.501223 17.8999601 16.0110791 18.6467907 15.5199281 19.3951561 15.0734532 19.9852093 14.6727338 20.4170233 14.2714388 20.8503721 13.8871942 21.1779601 13.5210072 21.4030033 13.1553237 21.6285581 12.7984173 21.771887 12.4514388 21.8359867 12.1035252 21.8985515 11.7417266 21.9302724 11.3661151 21.9302724 11.045036 21.9302724 10.7288489 21.8845183 10.4164029 21.7949103 10.1043165 21.7049369 9.82683453 21.5654817 9.58705036 21.3767641 9.3452518 21.1870963 9.14848921 20.9480199 8.99640288 20.660412 8.84611511 20.3707575 8.76978417 20.0300133 8.76978417 19.6335017 8.76978417 19.2730963 8.89899281 18.9493821 9.15676259 18.6612625 9.41661871 18.3729236 9.72374101 18.2282791 10.0818705 18.2282791 10.4921583 18.2282791 10.8211511 18.3319934 11.0719424 18.5395681 11.3218705 18.7459003 11.4458993 19.065887 11.4458993 19.4988704 11.4458993 19.8042392 11.3743165 20.0612957 11.2317986 20.2687243 11.0896403 20.4752027 11.0182014 20.6240864 11.0182014 20.7143522 11.0182014 20.8226711 11.147554 20.8899136 11.4068345 20.9175415 11.6651799 20.944 11.9189209 20.9573754 12.1699281 20.9573754 12.7042446 20.9573754 13.2313669 20.7366445 13.7481295 20.2953289 14.2657554 19.854598 14.725036 19.3501329 15.1264748 18.7833953 15.5292086 18.2155615 15.8543885 17.6742591 16.1048201 17.1619734 16.3552518 16.6488106 16.4791367 16.3191761 16.4791367 16.1752625 16.4791367 16.1210299 16.4167626 15.9359668 16.292518 15.6213156 16.1664748 15.3065183 15.997482 14.901309 15.7842446 14.4045914 15.5689928 13.9099203 15.3281295 13.357289 15.0605755 12.7439934 14.7932374 12.13099 14.5256835 11.5233953 14.2585612 10.9200399 13.9905036 10.3166844 13.7225899 9.7310897 13.4535971 9.16362126 13.1868345 8.59651827 12.9548921 8.11427243 12.7579856 7.71834551 12.58 7.30516944 12.4279137 6.97071096 12.3030935 6.71811296 12.1779856 6.46609967 12.0261871 6.26349502 11.848777 6.110299 11.6704317 5.95746844 11.4553957 5.83599336 11.2060432 5.74565449 10.9557554 5.65582724 10.6253237 5.55693688 10.2156115 5.44825249L10.2156115 5.12380731 10.2157554 5.12380731 10.2156835 5.1238804 10.2161151 5.12358804zM24.8952518 9.50034551C24.8952518 10.437794 25.0163309 11.211887 25.2551079 11.8252558 25.4982014 12.4369435 25.8007914 12.923794 26.1681295 13.2833223 26.5328777 13.6444585 26.9246763 13.8965449 27.3446763 14.0398738 27.7643165 14.184299 29.9380576 14.1348904 30.5430216 13.8919402 31.1505755 13.64899 31.7127338 13.2656346 32.2310791 12.7435548L32.6853957 13.1758073C31.9543885 13.9684651 31.2041007 14.5718206 30.4369784 14.9858738 29.6694245 15.4 28.7503597 15.6075748 27.6795683 15.6075748 26.9111511 15.6075748 26.2246763 15.4542326 25.6177698 15.1476944 25.0107914 14.8424718 24.493741 14.4365316 24.0651079 13.931701 23.6374101 13.4279668 23.3120863 12.8507043 23.0884173 12.2025449 22.8645324 11.554897 22.7539568 10.8876611 22.7539568 10.2029568 22.7539568 9.51905648 22.8647482 8.85196678 23.0884173 8.20417276 23.3120863 7.55564784 23.6374101 6.97911628 24.0651079 6.47501661 24.493741 5.97040532 25.0107914 5.56512292 25.6177698 5.25865781 26.224964 4.95292359 26.9111511 4.79899668 27.6795683 4.79899668 29.088777 4.79899668 30.2232374 5.18622591 31.0806475 5.96112292 31.936259 6.73631229 32.4615827 7.91619934 32.6588489 9.50034551L24.8953957 9.50034551 24.8952518 9.50034551zM30.1165468 8.69065781C30.061295 8.20417276 29.9902878 7.76768106 29.9009353 7.37986711 29.8120863 6.99249169 29.6692086 6.66892359 29.4739568 6.40762791 29.2753957 6.14633223 29.0166906 5.94833223 28.6972662 5.81333555 28.3748921 5.67775415 27.964964 5.60978073 27.4655396 5.60978073 27.0915827 5.60978073 26.7466187 5.70552824 26.4347482 5.89409967 26.1217266 6.0826711 25.8548921 6.32613289 25.6316547 6.6233887 25.4082014 6.9207907 25.2379137 7.25378738 25.1220863 7.62325581 25.0059712 7.99272425 24.9488489 8.3486711 24.9488489 8.6907309L30.1165468 8.6907309 30.1165468 8.69065781zM31.9192806 6.06936877L31.9192806 5.6369701C32.4900719 5.61957475 32.9805755 5.47551495 33.3928777 5.20493688 33.8035252 4.93450498 34.1585612 4.592299 34.462446 4.17802658 34.7666906 3.76390033 35.0198561 3.30445847 35.2255396 2.79999336 35.4302878 2.29625914 35.6135971 1.81013953 35.7751079 1.34119601L36.1483453 1.34119601 36.1483453 5.25865781 39.8166187 5.25865781 39.8166187 6.06944186 36.1485612 6.06944186 36.1485612 12.3645847C36.1485612 12.5992027 36.1632374 12.8287043 36.19 13.0540399 36.2160432 13.2794485 36.27 13.4821993 36.35 13.6618538 36.4303597 13.8418738 36.5459712 13.9865183 36.6979137 14.0941063 36.85 14.2026445 37.0599281 14.2567309 37.327482 14.2567309 37.8634532 14.2567309 38.3096403 14.139495 38.6653237 13.9058272 39.0233094 13.67099 39.3792806 13.3744651 39.7379856 13.0131827L39.9784892 13.2833953C39.6738849 13.5539734 39.3792086 13.82901 39.0951799 14.1069701 38.8089209 14.3877076 38.5100719 14.6395748 38.1992086 14.8646179 37.8859712 15.0900266 37.5469065 15.269608 37.1808633 15.404093 36.8135252 15.5396744 36.4181295 15.607794 35.988777 15.607794 35.2388489 15.607794 34.7307914 15.3777807 34.4630935 14.918485 34.1948201 14.4588239 34.0609353 13.9140133 34.0609353 13.2833953L34.0609353 6.06944186 31.9194964 6.06944186 31.9192806 6.06936877z"/>
  </g>
</svg>
