<svg xmlns="http://www.w3.org/2000/svg" width="42" height="12" viewBox="0 0 42 12">
  <g fill="none">
    <g fill="#2D2D2E">
      <path d="M4.9480916 9.67368421L4.50992366 9.67368421 4.12519084 8.74736842C3.9221374 9.09473684 3.64427481 9.37894737 3.3129771 9.57894737 2.98167939 9.78947368 2.60763359 9.89473684 2.20152672 9.89473684.780152672 9.89473684.0748091603 9.22105263.0748091603 7.86315789L.0748091603 6.41052632C.0748091603 5.05263158.780152672 4.37894737 2.20152672 4.37894737L3.91145038 4.37894737 3.91145038 1.98947368C3.91145038 1.64210526 3.79389313 1.36842105 3.56946565 1.17894737 3.34503817.989473684 3.01374046.884210526 2.5648855.884210526 1.68854962.884210526 1.25038168 1.25263158 1.25038168 1.98947368L1.25038168 2.84210526.224427481 2.84210526.224427481 2.04210526C.224427481 1.38947368.416793893.894736842.81221374.536842105 1.19694656.178947368 1.78473282.0105263158 2.57557252.0105263158 3.36641221.0105263158 3.95419847.189473684 4.34961832.536842105 4.74503817.894736842 4.9480916 1.38947368 4.9480916 2.04210526L4.9480916 9.67368421zM3.91145038 5.24210526L2.20152672 5.24210526C1.78473282 5.24210526 1.50687023 5.34736842 1.34656489 5.54736842 1.18625954 5.74736842 1.11145038 6.04210526 1.11145038 6.41052632L1.11145038 7.86315789C1.11145038 8.23157895 1.18625954 8.51578947 1.34656489 8.72631579 1.50687023 8.92631579 1.78473282 9.03157895 2.20152672 9.03157895 2.61832061 9.03157895 3.00305344 8.87368421 3.35572519 8.55789474 3.70839695 8.24210526 3.90076336 7.92631579 3.91145038 7.62105263L3.91145038 5.24210526zM8.78473282 9.67368421L7.7480916 9.67368421 7.7480916.221052632 8.18625954.221052632 8.56030534 1.16842105C9.03053435.389473684 9.68244275 0 10.5267176 0 11.9694656 0 12.6961832.673684211 12.6961832 2.03157895L12.6961832 9.66315789 11.659542 9.66315789 11.659542 2.04210526C11.659542 1.67368421 11.5740458 1.38947368 11.4137405 1.17894737 11.2534351.978947368 10.9541985.873684211 10.5160305.873684211 10.0778626.873684211 9.68244275 1.04210526 9.31908397 1.36842105 8.95572519 1.69473684 8.7740458 2.02105263 8.7740458 2.32631579L8.7740458 9.67368421 8.78473282 9.67368421zM19.119084 7.86315789L19.119084 7.06315789 20.1557252 7.06315789 20.1557252 7.86315789C20.1557252 8.51578947 19.9526718 9.01052632 19.5465649 9.36842105 19.140458 9.72631579 18.5419847 9.89473684 17.729771 9.89473684 16.9175573 9.89473684 16.3083969 9.71578947 15.9022901 9.36842105 15.4854962 9.01052632 15.2824427 8.51578947 15.2824427 7.86315789L15.2824427 2.04210526C15.2824427 1.38947368 15.4854962.894736842 15.8916031.536842105 16.2977099.178947368 16.8961832.0105263158 17.7083969.0105263158 18.5206107.0105263158 19.129771.189473684 19.5358779.536842105 19.9526718.894736842 20.1557252 1.38947368 20.1557252 2.04210526L20.1557252 5.24210526 16.319084 5.24210526 16.319084 7.86315789C16.319084 8.64210526 16.789313 9.03157895 17.719084 9.03157895 18.648855 9.02105263 19.119084 8.63157895 19.119084 7.86315789zM16.319084 2.04210526L16.319084 4.36842105 19.119084 4.36842105 19.119084 2.04210526C19.119084 1.26315789 18.648855.873684211 17.719084.873684211 16.778626.884210526 16.319084 1.26315789 16.319084 2.04210526zM29.410687 7.86315789L29.410687.221052632 30.4473282.221052632 30.4473282 7.85263158C30.4473282 8.22105263 30.5328244 8.50526316 30.6931298 8.71578947 30.8534351 8.91578947 31.1526718 9.02105263 31.5908397 9.02105263 32.0290076 9.02105263 32.4244275 8.85263158 32.7877863 8.52631579 33.151145 8.2 33.3328244 7.87368421 33.3328244 7.56842105L33.3328244.221052632 34.3694656.221052632 34.3694656 9.67368421 33.9312977 9.67368421 33.5465649 8.74736842C33.3328244 9.09473684 33.0549618 9.37894737 32.7129771 9.57894737 32.3709924 9.78947368 31.9969466 9.89473684 31.6015267 9.89473684 30.1374046 9.89473684 29.410687 9.22105263 29.410687 7.86315789zM42 7.86315789C42 9.22105263 41.1664122 9.89473684 39.5099237 9.89473684 37.8427481 9.89473684 37.0198473 9.22105263 37.0198473 7.86315789L37.0198473 6.63157895 38.0564885 6.63157895 38.0564885 7.92631579C38.0564885 8.27368421 38.1847328 8.54736842 38.4305344 8.73684211 38.6763359 8.92631579 39.0396947 9.03157895 39.5206107 9.03157895 40.0015267 9.03157895 40.3648855 8.93684211 40.610687 8.73684211 40.8564885 8.54736842 40.9847328 8.27368421 40.9847328 7.94736842 40.9847328 7.61052632 40.9526718 7.34736842 40.8778626 7.14736842 40.8030534 6.94736842 40.6534351 6.73684211 40.4290076 6.51578947L37.8320611 4.01052632C37.5221374 3.70526316 37.319084 3.42105263 37.2015267 3.12631579 37.0839695 2.84210526 37.0305344 2.48421053 37.0305344 2.04210526 37.0305344 1.38947368 37.2335878.894736842 37.6396947.536842105 38.0458015.178947368 38.6656489.0105263158 39.4885496.0105263158 41.070229.0105263158 41.8610687.684210526 41.8610687 2.04210526L41.8610687 3.27368421 40.8244275 3.27368421 40.8244275 1.98947368C40.8244275 1.64210526 40.7068702 1.36842105 40.4824427 1.17894737 40.2473282.989473684 39.9053435.884210526 39.4458015.884210526 38.9862595.884210526 38.6335878.978947368 38.4091603 1.17894737 38.1740458 1.36842105 38.0671756 1.64210526 38.0671756 1.97894737 38.0671756 2.31578947 38.0992366 2.58947368 38.1740458 2.77894737 38.2381679 2.96842105 38.3984733 3.17894737 38.6335878 3.38947368L41.2732824 5.89473684C41.5618321 6.2 41.7541985 6.50526316 41.8610687 6.78947368 41.9465649 7.06315789 42 7.42105263 42 7.86315789z"/>
    </g>
    <g fill="#2D2D2E" transform="translate(21.908 .21)">
      <polygon points="3.623 4.337 5.579 .011 4.51 .011 3.078 3.137"/>
      <polygon points="2.127 5 .096 9.463 1.165 9.463 2.661 6.179"/>
    </g>
    <path fill="#D2540E" d="M26.8351145,9.70526316 L26.7175573,9.70526316 C26.5465649,9.70526316 26.3862595,9.6 26.3114504,9.44210526 L22.4,0.863157895 C22.2717557,0.568421053 22.4854962,0.242105263 22.8061069,0.242105263 L22.9236641,0.242105263 C23.0946565,0.242105263 23.2549618,0.347368421 23.329771,0.505263158 L27.2412214,9.08421053 C27.3694656,9.37894737 27.1557252,9.70526316 26.8351145,9.70526316 Z"/>
    <path fill="#2D2D2E" d="M28.0320611,11.9894737 L21.5984733,11.9894737 C21.3633588,11.9894737 21.1709924,11.8 21.1709924,11.5684211 C21.1709924,11.3368421 21.3633588,11.1473684 21.5984733,11.1473684 L28.0320611,11.1473684 C28.2671756,11.1473684 28.459542,11.3368421 28.459542,11.5684211 C28.459542,11.8105263 28.2671756,11.9894737 28.0320611,11.9894737 Z"/>
  </g>
</svg>
