<svg xmlns="http://www.w3.org/2000/svg" width="40" height="30" viewBox="0 0 40 30">
  <path fill="#F12330" fill-rule="evenodd" d="M37.6577626,32.5756409 L37.6332884,32.7129864 C37.1948943,35.1482969 36.3116816,36.4769781 34.871375,37.0814191 C34.5189465,37.2296554 34.1487742,37.3037735 33.7724834,37.3037735 C31.8029222,37.3037735 30.8508758,35.4680637 30.5091548,34.8609 C30.1857894,34.2855012 29.8856746,33.6126899 29.5687337,32.9005507 C28.7439531,31.0460844 27.4722125,28.8092291 26.1426516,28.8092291 C25.8030721,28.8092291 25.3298023,28.8661034 24.8718288,29.1141723 C23.9418092,29.6178732 23.9519048,30.1003974 23.9286544,30.278886 C23.7285778,31.8659219 25.1392095,33.3746043 27.0803194,35.1652382 C27.3036465,35.3721639 27.5422699,35.5848376 27.7961898,35.8102173 C28.9311808,36.8206442 30.1472426,37.9653914 30.9717172,39.3512495 C31.470379,40.1892383 31.8130178,41.0429583 31.8680847,41.8903254 C31.930494,42.8735252 31.6325206,43.8546075 31.1026541,44.8075551 C30.7600153,45.4253071 30.3684282,45.9178146 29.8942405,46.4520703 C28.567433,47.944719 28.0837616,49.231652 28.6072036,50.399996 C28.8834561,51.0153279 29.5087719,51.5253817 30.1047187,51.6233992 C30.3641452,51.6657524 30.6076635,51.686929 30.8297668,51.686929 C32.5637639,51.686929 33.3750836,50.5615433 33.7605522,47.4207491 C33.9205523,46.1162697 34.5792142,44.7636892 35.187704,43.6894299 C36.010649,42.2379243 37.1988714,41.5814493 38.7181073,41.4677007 C38.8313005,41.458625 38.9444937,41.4546922 39.0540157,41.4546922 C40.1767696,41.4546922 41.1587969,41.8903254 41.8930229,42.7137931 C42.453788,43.3445536 42.8239602,44.0672812 43.0280139,45.0674223 C43.1913792,45.8691084 43.1543619,46.8281064 43.0506525,47.6382631 C43.0188361,47.8833068 42.9802892,48.141359 42.9405186,48.4145373 C42.7431954,49.76379 42.4479754,52.0224271 43.1100025,52.8253232 C43.1825073,52.9124498 43.3746297,53.1459976 44.044305,53.183208 C44.133024,53.1880483 44.2196015,53.190771 44.3037315,53.190771 C45.2557779,53.190771 45.6559311,52.7279108 45.8746692,52.4889176 C46.5064095,51.797955 46.8986086,50.4214751 46.6994498,48.4744368 C46.66488,48.1392413 46.5755491,47.6455237 46.4807116,47.1230664 C46.2604438,45.9138818 45.972872,44.4018717 46.0089714,42.9875764 C46.0603672,40.9927395 46.6006352,39.7436219 47.888284,38.9867092 C48.3074047,38.7404555 48.8244222,38.6161185 49.289432,38.6161185 C50.1634668,38.6161185 51.0515743,38.905028 51.7910011,39.7475547 C52.3349402,40.3677269 52.7130666,41.0777485 52.8901986,41.445919 C53.1707341,42.0282759 53.3108489,42.6100277 53.5142907,43.171813 C53.901289,44.2427445 54.221901,45.2577093 54.9276757,45.9126717 C55.3917677,46.3440696 55.8791102,46.5122724 56.2982309,46.5122724 C56.6757454,46.5122724 57.1242351,46.297481 57.4656502,45.916302 C58.0750578,45.2371378 58.3503925,44.3764597 58.2849241,43.3569571 C58.1971229,42.0010488 57.6339103,40.4966017 56.6329156,39.633806 C56.1480205,39.2148116 55.2819398,38.9162213 54.5868725,38.5265717 C53.5782295,37.9608536 52.7439652,37.487405 51.989548,36.6094832 C51.0044615,35.465341 50.7413639,33.9775327 51.2057618,32.4074381 C51.2277886,32.33332 51.2501213,32.2585968 51.2730658,32.1835711 C51.7096244,30.7223848 51.79559,30.0701451 51.3562781,29.6635541 C51.1604845,29.4820403 50.7126067,29.4548132 50.6618227,29.4548132 C50.4121859,29.4548132 50.0805605,29.5803603 49.8174628,29.8813707 C49.5666023,30.1687676 49.3169654,30.6019806 49.0526441,31.0618156 C48.6870607,31.697114 48.272529,32.4180264 47.6989149,33.009459 C46.9243065,33.8069097 46.0670976,34.2788457 45.0140952,34.3018374 C44.989621,34.302745 44.9636172,34.302745 44.938837,34.302745 C43.2244193,34.302745 42.2313787,33.1307707 41.8358144,32.7093561 C41.5197913,32.3720429 41.1070951,31.801787 40.7901542,31.302624 C40.47046,30.7958979 40.095087,30.2326 39.7301155,29.8251014 C38.6471321,28.6141017 38.0156978,30.581409 37.6589863,32.5750359 M34.9781437,32.1387977 L35.0017001,32.0038724 C35.2779526,30.4579796 35.5569585,28.0740981 37.3096171,27.0291835 C37.9061757,26.6734164 38.52109,26.5421214 39.1375339,26.5421214 C41.2126401,26.5421214 42.5470959,28.5756813 43.3908439,29.8441604 C43.8613604,30.5511567 44.2465231,31.4245408 44.8690856,31.4245408 L44.8804049,31.4236332 C45.44117,31.4115323 45.8520306,30.9532099 46.5923751,29.6671844 C46.9145168,29.1066092 47.3174233,28.5281852 47.7542878,28.0275095 C48.5833513,27.0790998 49.4148622,26.7629632 50.5235435,26.7629632 C51.394825,26.7629632 52.5142137,27.0800074 53.1918431,27.7068351 C54.0261074,28.4782689 54.3375416,29.4850655 54.2962414,30.711494 C54.2656486,31.6000041 54.010811,32.2464959 53.7853424,32.9985681 C53.7639275,33.0717787 53.7425126,33.1443842 53.7210977,33.2154772 C53.4824742,34.0241213 53.702742,34.7178066 53.9285165,34.9797915 C54.3491668,35.4692738 55.1283642,35.905512 55.9528388,36.3674647 C56.7433554,36.810661 57.5607937,36.9927799 58.2687099,37.6026663 C59.8482136,38.9670452 60.8446194,41.0580845 60.9807572,43.1727205 C61.0960918,44.9606317 60.7011394,46.4308937 59.5747144,47.6872719 C58.6682512,48.6976988 57.5409084,49.231047 56.3126095,49.231047 C55.1323412,49.231047 54.0456867,48.7990441 53.0254185,47.8515419 C51.8078271,46.7201057 51.3688211,45.3814413 50.9197196,44.1401892 C50.732492,43.6222698 50.5697385,43.1333925 50.35253,42.6820282 C50.0355891,42.0234355 49.8116502,41.4241374 49.3261433,41.4241374 C48.8412482,41.4241374 48.8085139,42.4878084 48.7938294,43.0668375 C48.7650722,44.1873828 49.065493,45.5324003 49.2618985,46.6124075 C49.3720324,47.2168485 49.4674818,47.7377932 49.512759,48.1849223 C49.9930652,52.8861303 47.7423566,56 44.3744008,56 C44.2345919,56 44.0911119,55.9954622 43.9467142,55.986689 C42.3375355,55.8944195 41.4013974,55.1750197 40.9119134,54.5820745 C39.4404021,52.7993062 39.8656414,49.9837243 40.1654503,47.9326181 C40.2036912,47.6712382 40.2397907,47.4252869 40.2682419,47.2044451 C40.40285,46.1583204 40.162697,45.0553214 39.7093124,44.5461751 C39.529733,44.3446948 39.3400579,44.2633161 39.0546276,44.2633161 C39.018834,44.2633161 38.9796753,44.2642237 38.9408225,44.2675514 C37.833365,44.3510478 37.3937472,45.5018454 36.7188711,48.0732913 C36.3407447,49.514511 36.0192149,51.0731098 35.2504191,52.2934877 C34.2439177,53.8917169 32.7112209,54.6338059 30.8306846,54.6338059 C30.4513345,54.6338059 30.0462865,54.5987133 29.630837,54.5309481 C28.8369551,54.4014683 28.0491918,54.0336002 27.3535127,53.4675796 C26.7070879,52.9420971 26.1775274,52.2665632 25.8630339,51.5647097 C25.3053281,50.320735 25.2946206,48.7349092 25.8312175,47.3980599 C26.2472788,46.3598008 26.7291147,45.8086038 27.3403578,44.9878588 C27.7273561,44.4675192 28.2321364,43.8724563 28.4826911,43.4213945 C28.9782936,42.5277414 29.0914868,41.747232 28.5340869,40.8088055 C27.9375283,39.8053366 26.8285411,38.8188089 25.849879,37.9481476 C25.5861695,37.7133897 25.3383683,37.4925479 25.0957678,37.2680758 C22.9340841,35.2765666 20.664408,33.0276104 21.0413106,30.0532038 C21.1627639,29.0887604 21.6256322,27.5915738 23.4725165,26.58992 C24.3642951,26.1064882 25.2389418,26.0000001 26.0729002,26.0000001 C27.5652145,25.9996976 28.8791731,26.615937 29.9789825,28.1043504 C30.7887725,29.2000888 31.4076639,30.5426861 31.9185628,31.7406773 C32.6864408,33.5437147 34.0386403,37.6065991 34.9778377,32.1400078" transform="translate(-21 -26)"/>
</svg>
