<svg xmlns="http://www.w3.org/2000/svg" width="44" height="10" viewBox="0 0 44 10">
  <path fill="#C41D47" fill-rule="evenodd" d="M24.8753541,43.8423913 L24.2521246,41.9402174 L21.3796034,41.9402174 L20.7563739,43.8423913 L19,43.8423913 L21.8385269,36 L23.8498584,36 L26.694051,43.8423913 L24.8753541,43.8423913 Z M22.796034,37.5 L21.7478754,40.7119565 L23.8838527,40.7119565 L22.8356941,37.5 L22.796034,37.5 Z M27.3852691,43.8423913 L27.3852691,38.0163043 L28.9830028,38.0163043 L28.9830028,39.0652174 L29.0169972,39.0652174 C29.2322946,38.326087 29.7478754,37.923913 30.4617564,37.923913 C30.6543909,37.923913 30.8186969,37.951087 30.9320113,37.9836957 L30.9320113,39.3804348 C30.796034,39.326087 30.5694051,39.2880435 30.3314448,39.2880435 C29.5155807,39.2880435 29.0396601,39.7663043 29.0396601,40.5869565 L29.0396601,43.8423913 L27.3852691,43.8423913 Z M33.3229462,40.3532609 L35.3852691,38.0163043 L37.2606232,38.0163043 L34.9433428,40.5163043 L37.3739377,43.8423913 L35.470255,43.8423913 L33.7308782,41.4728261 L33.3002833,41.9184783 L33.3002833,43.8423913 L31.6458924,43.8423913 L31.6458924,36 L33.3002833,36 L33.3002833,40.3532609 L33.3229462,40.3532609 Z M40.5750708,39.0652174 C39.8498584,39.0652174 39.3286119,39.5923913 39.2719547,40.3206522 L41.8498584,40.3206522 C41.815864,39.576087 41.3116147,39.0652174 40.5750708,39.0652174 Z M41.8725212,42.0597826 L43.3909348,42.0597826 C43.2096317,43.201087 42.121813,43.9673913 40.6203966,43.9673913 C38.7507082,43.9673913 37.6288952,42.8206522 37.6288952,40.9565217 C37.6288952,39.0978261 38.7620397,37.8913043 40.5580737,37.8913043 C42.325779,37.8913043 43.4419263,39.0380435 43.4419263,40.8097826 L43.4419263,41.2934783 L39.2549575,41.2934783 L39.2549575,41.3913043 C39.2549575,42.2228261 39.8045326,42.7934783 40.6487252,42.7934783 C41.2549575,42.7934783 41.7195467,42.5054348 41.8725212,42.0597826 Z M44.2917847,43.8423913 L44.2917847,38.0163043 L45.8895184,38.0163043 L45.8895184,39.0543478 L45.9235127,39.0543478 C46.2464589,38.3315217 46.8866856,37.9076087 47.8215297,37.9076087 C49.1699717,37.9076087 49.9291785,38.7228261 49.9291785,40.0869565 L49.9291785,43.8423913 L48.2747875,43.8423913 L48.2747875,40.4184783 C48.2747875,39.6576087 47.9008499,39.2228261 47.1586402,39.2228261 C46.4164306,39.2228261 45.9461756,39.7445652 45.9461756,40.5 L45.9461756,43.8423913 L44.2917847,43.8423913 Z M56.4957507,40.1847826 L54.9603399,40.1847826 C54.8640227,39.5706522 54.4390935,39.1358696 53.7592068,39.1358696 C52.9433428,39.1358696 52.4334278,39.798913 52.4334278,40.923913 C52.4334278,42.0706522 52.9433428,42.7228261 53.7648725,42.7228261 C54.427762,42.7228261 54.8583569,42.3423913 54.9603399,41.7065217 L56.5014164,41.7065217 C56.4164306,43.0815217 55.3456091,43.9673913 53.7478754,43.9673913 C51.917847,43.9673913 50.7563739,42.826087 50.7563739,40.923913 C50.7563739,39.0543478 51.917847,37.8913043 53.7365439,37.8913043 C55.3796034,37.8913043 56.4220963,38.8641304 56.4957507,40.1847826 Z M58.0764873,46 C58.01983,46 57.5042493,45.9945652 57.4532578,45.9836957 L57.4532578,44.7608696 C57.5042493,44.7717391 57.8045326,44.7717391 57.8668555,44.7717391 C58.4730878,44.7717391 58.7733711,44.5869565 58.8866856,44.125 C58.8866856,44.1032609 58.9490085,43.8695652 58.9376771,43.8478261 L56.8243626,38.0163043 L58.6430595,38.0163043 L59.9348442,42.5706522 L59.9631728,42.5706522 L61.2549575,38.0163043 L63,38.0163043 L60.9093484,43.9728261 C60.388102,45.4673913 59.6288952,46 58.0764873,46 Z" transform="translate(-19 -36)"/>
</svg>
