<svg xmlns="http://www.w3.org/2000/svg" width="50" height="50" viewBox="0 0 50 50">
  <g fill="none" fill-rule="evenodd">
    <circle cx="25" cy="25" r="25" fill="#222"/>
    <g transform="translate(10 13)">
      <path fill="#D8D8D8" d="M14.3462069,0.31344186 C14.1734483,0.497976744 14.087069,0.693744186 13.9448276,0.89272093 C13.892069,0.967069767 13.6008621,1.51532558 13.5315517,1.51532558 C13.3437931,1.51532558 12.8756897,2.47972093 12.7448276,2.67067442 C12.5441379,2.96272093 12.3522414,3.26118605 12.1598276,3.55911628 C11.9581034,3.87095349 11.7563793,4.18225581 11.5572414,4.49569767 C11.4222414,4.7085814 11.2660345,5.09476744 11.0637931,5.24934884 C10.8806897,5.38788372 10.7953448,5.71630233 10.6639655,5.90618605 C10.5144828,6.1212093 10.3246552,6.29772093 10.2062069,6.53574419 C10.0075862,6.93423256 9.69310345,7.26104651 9.49293103,7.65204651 C9.27,8.08744186 8.95758621,8.41639535 8.72068966,8.81648837 C8.52827586,9.14116279 8.35189655,9.43695349 8.13517241,9.73327907 C7.70431034,10.322186 7.25948276,10.9490698 6.92534483,11.6032326 C6.85913793,11.7332093 6.76913793,11.7583488 6.67655172,11.8653256 C6.54931034,12.0118837 6.45,12.2900233 6.33982759,12.461186 C6.22758621,12.636093 6.19913793,12.7382558 6.06362069,12.8687674 C6.02017241,12.9088837 5.68965517,13.3458837 5.68965517,13.3795814 C5.68965517,13.6694884 5.2437931,14.1535581 5.07362069,14.3632326 C4.92568966,14.545093 4.85068966,14.7574419 4.69862069,14.9403721 C4.63344828,15.0184651 4.48293103,15.1832093 4.48293103,15.3014186 C4.48293103,15.4645581 4.22431034,15.4436977 4.22431034,15.6036279 C4.22431034,15.8127674 3.95017241,16.0582791 3.85655172,16.2305116 C3.76344828,16.4011395 3.60413793,16.5214884 3.53327586,16.6921163 C3.37241379,17.0788372 3.08637931,17.4409535 2.85465517,17.783814 C2.62758621,18.1207907 2.4237931,18.4855814 2.17758621,18.8027674 C1.96241379,19.0798372 1.83465517,19.5184419 1.61172414,19.761814 C1.09396552,20.3266512 0.56637931,21.0621163 0.515689655,21.8874419 C0.508965517,22.0003023 0.435517241,22.1618372 0.510517241,22.2629302 C0.65637931,22.4603023 1.09551724,22.4458605 1.30086207,22.4629767 C2.19931034,22.5389302 3.10655172,22.5346512 4.00706897,22.5426744 C10.6458621,22.6031163 17.2872414,22.553907 23.9265517,22.553907 C25.3484483,22.553907 26.7698276,22.553907 28.1917241,22.553907 C28.557931,22.553907 28.9246552,22.553907 29.2908621,22.553907 C29.6787931,22.553907 29.7806897,22.043093 29.822069,21.7093256 C29.8443103,21.5258605 29.8665517,21.3193953 29.8225862,21.1380698 C29.79,21.0022093 29.6281034,20.9176977 29.5691379,20.7706047 C29.3994828,20.3469767 29.0394828,19.9698837 28.8155172,19.5660465 C28.6091379,19.1943023 28.3117241,18.832186 28.0691379,18.464186 C27.7768966,18.0213023 27.4712069,17.5645116 27.1722414,17.1526512 C26.9234483,16.8087209 26.6787931,16.3893721 26.4553448,16.0192326 C26.3937931,15.9170698 26.3431034,15.7127442 26.2665517,15.6287674 C26.202931,15.5592326 25.9308621,15.1543256 25.8636207,15.1543256 C25.755,15.1543256 25.3665517,14.352 25.2863793,14.2407442 C25.1668966,14.0738605 25.0184483,13.9305116 24.9563793,13.7277907 C24.9077586,13.5694651 24.837931,13.6063721 24.7582759,13.4977907 C24.6646552,13.3699535 24.6506897,13.202 24.5410345,13.0811163 C24.1106897,12.6034651 23.7698276,11.9813953 23.4553448,11.4481163 C23.28,11.1496512 23.0736207,10.8870233 22.8781034,10.6056744 C22.7058621,10.3585581 22.5801724,9.95739535 22.3872414,9.7455814 C21.9206897,9.23262791 21.6005172,8.58648837 21.1613793,8.00881395 C20.9762069,7.76544186 20.8546552,7.37069767 20.6632759,7.15995349 C20.607931,7.09897674 20.3001724,6.68551163 20.2763793,6.68551163 C20.0746552,6.68551163 20.0953448,6.06130233 19.8946552,6.06130233 C19.7498276,6.06130233 19.3846552,5.25951163 19.3065517,5.13969767 C19.1296552,4.86851163 18.9243103,4.623 18.7541379,4.34486047 C18.6791379,4.22237209 18.5932759,4.09560465 18.5415517,3.95974419 C18.4841379,3.80837209 18.3387931,3.78376744 18.2751724,3.60939535 C18.2068966,3.42325581 18.0672414,3.36976744 17.9896552,3.19486047 C17.8758621,2.93811628 17.6555172,2.7402093 17.5608621,2.47330233 C17.5081034,2.32567442 17.37,2.28502326 17.3027586,2.13846512 C17.1827586,1.87744186 16.9468966,1.69504651 16.8305172,1.43134884 C16.7643103,1.28104651 16.6851724,1.27088372 16.605,1.13716279 C16.5543103,1.05318605 16.2931034,0.754186047 16.2931034,0.679302326 C16.2931034,-0.184 14.7584483,-0.125697674 14.3462069,0.31344186"/>
      <path fill="#222" d="M16.3360345 8.08048837C16.725 8.63248837 17.1481034 9.15774419 17.5334483 9.71188372 17.8003448 10.0948605 18.2932759 10.5297209 18.3956897 10.9993488 18.5487931 11.702186 16.1622414 11.5786279 15.7282759 11.4577442 15.4106897 11.3694884 15.3703448 11.0373256 15.3532759 10.7431395 15.3072414 9.95151163 15.3362069 9.14437209 15.3512069 8.3522093 15.3548276 8.17516279 15.285 7.28672093 15.542069 7.2155814 15.8022414 7.14390698 16.2263793 7.92483721 16.3360345 8.08048837M21.4412069 15.6683488C21.7955172 16.0320698 21.9594828 16.5380698 22.2858621 16.9017907 22.5874138 17.2376977 22.7596552 17.5800233 23.0244828 17.9603256 23.1087931 18.0817442 23.4222414 18.418186 23.2158621 18.5572558 22.812931 18.8273721 22.0143103 18.7091628 21.5684483 18.7145116 19.9106897 18.7343023 18.2518966 18.7203953 16.5936207 18.7198605 16.3044828 18.7198605 16.0158621 18.7198605 15.7267241 18.7198605 15.5006897 18.7198605 15.4448276 18.593093 15.3367241 18.3732558 15.0201724 17.7297907 15.0243103 16.4203953 15.3155172 15.7683721 15.4101724 15.5565581 15.4541379 15.4228372 15.6724138 15.4228372 16.0262069 15.4228372 16.38 15.4228372 16.7337931 15.4228372 17.2815517 15.4228372 17.8293103 15.4228372 18.3765517 15.4228372 18.945 15.4228372 19.5134483 15.4228372 20.0818966 15.4228372 20.3844828 15.4228372 20.6875862 15.4228372 20.9901724 15.4228372 21.2358621 15.4223023 21.2534483 15.4757907 21.4412069 15.6683488"/>
    </g>
  </g>
</svg>
