<svg xmlns="http://www.w3.org/2000/svg" width="46" height="8" viewBox="0 0 46 8">
  <g fill="#333">
    <path d="M8.12385321,2.89230769 L8.00428135,3.02905983 L8.00428135,2.31794872 L6.79449541,2.31794872 L6.79449541,7.8017094 L8.01131498,7.8017094 L8.01131498,4.96410256 C8.01131498,3.88376068 8.64434251,3.28205128 9.79785933,3.25470085 L9.79785933,2.24273504 C9.04525994,2.25641026 8.49663609,2.46837607 8.12385321,2.89230769"/>
    <polygon points="28.324 .554 29.541 .554 29.541 7.809 28.324 7.809"/>
    <path d="M2.97522936,3.21367521 C3.98807339,3.21367521 4.75474006,4.00683761 4.75474006,5.05982906 C4.75474006,6.11282051 3.98807339,6.90598291 2.97522936,6.90598291 C1.9764526,6.90598291 1.22385321,6.11282051 1.22385321,5.05982906 C1.21681957,4.00683761 1.9764526,3.21367521 2.97522936,3.21367521 M-6.60565724e-15,5.05982906 C-6.60565724e-15,6.70769231 1.28012232,7.94529915 2.96819572,7.94529915 C4.0795107,7.94529915 4.74770642,7.18632479 4.74770642,7.18632479 L4.74770642,7.79487179 L5.96452599,7.79487179 L5.96452599,5.05299145 C5.96452599,3.40512821 4.67737003,2.16752137 2.96819572,2.16752137 C1.28012232,2.17435897 -7.10542736e-15,3.41880342 -7.10542736e-15,5.05982906"/>
    <polygon points="13.934 2.318 15.15 2.318 15.15 7.802 13.934 7.802"/>
    <path d="M15.3896024.8C15.3896024.362393162 15.0238532 0 14.5666667 0 14.1165138 0 13.7577982.355555556 13.7577982.8 13.7577982 1.23760684 14.1235474 1.58632479 14.5666667 1.58632479 15.0238532 1.58632479 15.3896024 1.23760684 15.3896024.8M18.7657492 6.91282051C17.7669725 6.91282051 17.0143731 6.11965812 17.0143731 5.06666667 17.0143731 4.01367521 17.7669725 3.22051282 18.7657492 3.22051282 19.4831804 3.22051282 20.0810398 3.6034188 20.369419 4.24615385L21.6425076 4.24615385C21.283792 2.98803419 20.1654434 2.18119658 18.7657492 2.18119658 17.0706422 2.18119658 15.7975535 3.42564103 15.7975535 5.06666667 15.7975535 6.71452991 17.0706422 7.95213675 18.7657492 7.95213675 20.116208 7.95213675 21.2275229 7.18632479 21.6143731 5.98974359L20.3201835 5.98974359C20.017737 6.56410256 19.4409786 6.91282051 18.7657492 6.91282051M41.2452599 4.52649573L41.2733945 4.44444444C41.5125382 3.68547009 42.1525994 3.22051282 42.9333333 3.22051282 43.7281346 3.22051282 44.3752294 3.69230769 44.6143731 4.44444444L44.6425076 4.52649573 41.2452599 4.52649573zM42.9333333 2.17435897C41.2382263 2.17435897 39.9651376 3.41880342 39.9651376 5.05982906 39.9651376 6.7008547 41.2382263 7.94529915 42.9333333 7.94529915 44.1782875 7.94529915 45.2192661 7.2957265 45.6834862 6.24273504L44.3259939 6.24273504C43.9954128 6.67350427 43.5030581 6.90598291 42.940367 6.90598291 42.0892966 6.90598291 41.4 6.32478632 41.224159 5.46324786L41.2100917 5.38803419 44.6987768 5.38803419 45.9155963 5.38803419C45.9296636 5.26495726 45.9366972 5.16239316 45.9366972 5.05982906 45.9296636 3.41880342 44.6425076 2.17435897 42.9333333 2.17435897z"/>
    <polygon points="30.35 .554 36.083 .554 36.083 1.497 30.35 1.497"/>
    <path d="M11.7461774.553846154L10.5293578.553846154 10.5293578 6.03760684C10.5293578 7.17264957 11.1764526 7.88376068 12.2174312 7.88376068 12.5902141 7.88376068 13.040367 7.83589744 13.2021407 7.81538462L13.2021407 6.78974359C13.0474006 6.81025641 12.6816514 6.85811966 12.4214067 6.85811966 12.0415902 6.85811966 11.7461774 6.54358974 11.7461774 6.14017094L11.7461774 3.28888889 13.2021407 3.28888889 13.2021407 2.31794872 11.7461774 2.31794872 11.7461774.553846154M38.1223242 6.13333333L38.1223242 3.28205128 39.5782875 3.28205128 39.5782875 2.31794872 38.1223242 2.31794872 38.1223242.553846154 36.9055046.553846154 36.9055046 6.03760684C36.9055046 7.17264957 37.5525994 7.88376068 38.593578 7.88376068 38.9663609 7.88376068 39.4165138 7.82905983 39.5782875 7.81538462L39.5782875 6.78974359C39.4235474 6.81025641 39.0577982 6.85811966 38.7975535 6.85811966 38.4247706 6.85811966 38.1223242 6.54358974 38.1223242 6.13333333M33.2058104 3.21367521C34.2186544 3.21367521 34.9853211 4.00683761 34.9853211 5.05982906 34.9853211 6.11282051 34.2186544 6.90598291 33.2058104 6.90598291 32.2070336 6.90598291 31.4544343 6.11282051 31.4544343 5.05982906 31.4544343 4.00683761 32.2070336 3.21367521 33.2058104 3.21367521M30.2376147 5.05982906C30.2376147 6.70769231 31.517737 7.94529915 33.2058104 7.94529915 34.3171254 7.94529915 34.9853211 7.18632479 34.9853211 7.18632479L34.9853211 7.79487179 36.2021407 7.79487179 36.2021407 5.05299145C36.2021407 3.40512821 34.9149847 2.16752137 33.2058104 2.16752137 31.5107034 2.17435897 30.2376147 3.41880342 30.2376147 5.05982906M24.7865443 6.8991453C23.6681957 6.8991453 23.506422 6.0034188 23.506422 5.05299145L23.506422 2.31794872 22.2966361 2.31794872 22.2966361 5.34700855C22.2966361 6.68717949 23.0140673 7.93846154 24.6599388 7.93846154 25.7360856 7.93846154 26.2847095 7.18632479 26.2847095 7.18632479L26.2847095 7.79487179 27.5015291 7.79487179 27.5015291 2.31794872 26.2847095 2.31794872 26.2847095 5.02564103C26.2847095 6.2974359 25.5250765 6.8991453 24.7865443 6.8991453"/>
  </g>
</svg>
