<svg xmlns="http://www.w3.org/2000/svg" width="46" height="20" viewBox="0 0 46 20">
  <g fill="none" transform="translate(1)">
    <g transform="translate(12.948 .013)">
      <ellipse cx="8.087" cy="5.237" fill="#00AC6B" rx="1" ry="1"/>
      <path fill="#A39A8B" d="M2.96201117,3.3125 C2.72849162,3.3 2.13854749,3.2625 1.85586592,2.9625 C1.57318436,2.675 1.51173184,2.075 1.49944134,1.825 C1.48715084,2.075 1.43798883,2.675 1.14301676,2.9625 C0.860335196,3.25 0.270391061,3.3 0.0368715084,3.3125 C0.270391061,3.325 0.860335196,3.3625 1.14301676,3.6625 C1.42569832,3.95 1.48715084,4.55 1.49944134,4.8 C1.51173184,4.55 1.56089385,3.95 1.85586592,3.6625 C2.15083799,3.375 2.72849162,3.325 2.96201117,3.3125 C2.96201117,3.325 2.96201117,3.325 2.96201117,3.3125"/>
      <path fill="#09A6D1" d="M15.4122905,17.575 C15.0435754,17.5625 14.1586592,17.4875 13.7284916,17.05 C13.2860335,16.6 13.2122905,15.6875 13.1877095,15.3125 C13.175419,15.6875 13.0893855,16.6 12.6469274,17.05 C12.2044693,17.5 11.3195531,17.5625 10.9631285,17.575 C11.3195531,17.5875 12.2167598,17.6625 12.6469274,18.1 C13.0893855,18.55 13.1631285,19.4625 13.1877095,19.8375 C13.2,19.4625 13.2860335,18.55 13.7284916,18.1 C14.1586592,17.6625 15.0435754,17.5875 15.4122905,17.575 C15.4,17.575 15.4122905,17.575 15.4122905,17.575"/>
      <ellipse cx="19.259" cy="15.188" fill="#F4362C" rx="1" ry="1"/>
      <ellipse cx="2.876" cy="15.75" fill="#FF9A09" rx="1" ry="1"/>
      <path fill="#FF9A09" d="M19.0011173,2.75 C18.5832402,2.7375 17.550838,2.65 17.0346369,2.1375 C16.5184358,1.6125 16.4324022,0.55 16.4078212,0.1125 C16.3955307,0.55 16.2972067,1.6125 15.7810056,2.1375 C15.2648045,2.6625 14.2324022,2.7375 13.8145251,2.75 C14.2324022,2.7625 15.2648045,2.85 15.7810056,3.3625 C16.2972067,3.8875 16.3832402,4.95 16.4078212,5.3875 C16.4201117,4.95 16.5184358,3.8875 17.0346369,3.3625 C17.5385475,2.8625 18.5709497,2.775 19.0011173,2.75 C18.9888268,2.7625 19.0011173,2.7625 19.0011173,2.75 C19.0011173,2.7625 19.0011173,2.75 19.0011173,2.75"/>
    </g>
    <path fill="#302C43" stroke="#302C43" stroke-linecap="round" stroke-linejoin="round" stroke-width=".5" d="M2.77765363,2.4875 L2.47039106,1.8625 L0.995530726,1.8625 L0.651396648,2.4875 L0.110614525,2.4875 L1.52402235,0.075 L2.06480447,0.075 L3.29385475,2.4875 L2.77765363,2.4875 Z M1.22905028,1.4625 L2.27374302,1.4625 L1.78212291,0.4625 L1.22905028,1.4625 Z M7.22681564,0.7125 C7.0547486,0.575 6.57541899,0.4375 6.1698324,0.4375 C5.80111732,0.4375 5.48156425,0.55 5.48156425,0.8125 C5.48156425,1.25 7.44804469,0.775 7.44804469,1.7 C7.44804469,2.15 7.00558659,2.5625 6.20670391,2.5625 C5.39553073,2.5625 5.01452514,2.2875 4.86703911,2.125 L5.16201117,1.7875 C5.49385475,2.0625 5.86256983,2.15 6.19441341,2.15 C6.53854749,2.15 6.96871508,2.0625 6.96871508,1.7625 C6.96871508,1.1875 4.98994413,1.8 4.98994413,0.8125 C4.98994413,0.325 5.53072626,0.025 6.23128492,0.025 C6.82122905,0.025 7.26368715,0.2125 7.4849162,0.3625 C7.4603352,0.3625 7.31284916,0.5875 7.22681564,0.7125 Z M11.4547486,0.5 L10.4837989,0.5 L10.4837989,2.4875 L10.0413408,2.4875 L10.0413408,0.5 L9.09497207,0.5 L9.09497207,0.0875 L11.4670391,0.0875 L11.4670391,0.5 L11.4547486,0.5 Z M13.224581,2.4875 L13.224581,0.0875 L14.7486034,0.0875 C15.3139665,0.0875 15.572067,0.4 15.572067,0.8125 C15.572067,1.175 15.375419,1.4625 14.9575419,1.525 L15.6826816,2.4875 L15.1173184,2.4875 L14.4044693,1.55 L13.6547486,1.55 L13.6547486,2.4875 L13.224581,2.4875 Z M13.6670391,0.475 L13.6670391,1.1625 L14.7363128,1.1625 C15.0067039,1.1625 15.1664804,1.0375 15.1664804,0.8125 C15.1664804,0.625 15.0067039,0.475 14.7363128,0.475 L13.6670391,0.475 Z M20.3407821,1.2875 C20.3407821,2 19.750838,2.5375 18.8167598,2.5375 C17.8826816,2.5375 17.2804469,2.0125 17.2804469,1.2875 C17.2804469,0.5625 17.8826816,0.0125 18.8167598,0.0125 C19.750838,0.0125 20.3407821,0.575 20.3407821,1.2875 Z M19.8614525,1.2875 C19.8614525,0.775 19.4558659,0.4375 18.8044693,0.4375 C18.1530726,0.4375 17.747486,0.775 17.747486,1.2875 C17.747486,1.7875 18.1530726,2.1125 18.8044693,2.1125 C19.4681564,2.1125 19.8614525,1.8 19.8614525,1.2875 Z M24.8022346,2.4875 L24.2368715,2.4875 L22.7005587,0.6375 L22.7005587,2.4875 L22.2458101,2.4875 L22.2458101,0.0875 L22.8234637,0.0875 L24.3597765,1.925 L24.3597765,0.0875 L24.8022346,0.0875 L24.8022346,2.4875 Z M29.7675978,1.2875 C29.7675978,2 29.1776536,2.5375 28.2435754,2.5375 C27.3094972,2.5375 26.7072626,2.0125 26.7072626,1.2875 C26.7072626,0.5625 27.3094972,0.0125 28.2435754,0.0125 C29.1776536,0.0125 29.7675978,0.575 29.7675978,1.2875 Z M29.3005587,1.2875 C29.3005587,0.775 28.8949721,0.4375 28.2435754,0.4375 C27.5921788,0.4375 27.1865922,0.775 27.1865922,1.2875 C27.1865922,1.7875 27.5921788,2.1125 28.2435754,2.1125 C28.8949721,2.1125 29.3005587,1.8 29.3005587,1.2875 Z M33.4547486,2.0125 L34.6100559,0.1 L35.2122905,0.1 L35.2122905,2.5 L34.7821229,2.5 L34.7821229,0.6 L33.6268156,2.5 L33.2212291,2.5 L32.1027933,0.6 L32.1027933,2.5 L31.6603352,2.5 L31.6603352,0.1 L32.3363128,0.1 L33.4547486,2.0125 Z M39.501676,2.0875 L39.501676,2.5 L37.227933,2.5 L37.227933,0.0875 L39.4156425,0.0875 L39.4156425,0.5 L37.6703911,0.5 L37.6703911,1.075 L39.2927374,1.075 L39.2927374,1.475 L37.6703911,1.475 L37.6703911,2.1 L39.501676,2.1 L39.501676,2.0875 Z M41.3452514,2.4875 L41.3452514,0.0875 L42.8815642,0.0875 C43.4469274,0.0875 43.7050279,0.4 43.7050279,0.8125 C43.7050279,1.175 43.5083799,1.4625 43.0905028,1.525 L43.8156425,2.4875 L43.2502793,2.4875 L42.5374302,1.55 L41.7877095,1.55 L41.7877095,2.4875 L41.3452514,2.4875 Z M41.7877095,0.475 L41.7877095,1.1625 L42.8569832,1.1625 C43.1273743,1.1625 43.2871508,1.0375 43.2871508,0.8125 C43.2871508,0.625 43.1273743,0.475 42.8569832,0.475 L41.7877095,0.475 Z" transform="translate(.043 8.762)"/>
  </g>
</svg>
