<svg xmlns="http://www.w3.org/2000/svg" width="26" height="28" viewBox="0 0 26 28">
  <path fill="#EB5424" fill-rule="evenodd" d="M20.5480395,22.6435 L17.6658026,13.9995 L25.2104211,8.65866667 L15.8844605,8.65866667 L13.0018816,0.015 L13.0010263,0.0126666667 L22.3285263,0.0126666667 L25.2116184,8.65783333 L25.2116184,8.65766667 L25.2140132,8.65633333 C26.8886184,13.6716667 25.1640658,19.376 20.5480395,22.6435 Z M5.45538158,22.6435 L5.45298684,22.6451667 L12.9996579,27.9873333 L20.5480395,22.6436667 L13.0020526,17.3013333 L5.45538158,22.6435 Z M0.790947368,8.6565 C-0.971578947,13.9433333 1.07438158,19.5453333 5.45384211,22.6445 L5.45452632,22.6418333 L8.33710526,13.9983333 L0.794026316,8.6585 L10.1177632,8.6585 L13.0005132,0.0148333333 L13.0011974,0.0125 L3.67318421,0.0125 L0.790947368,8.6565 Z"/>
</svg>
