<svg xmlns="http://www.w3.org/2000/svg" width="34" height="32" viewBox="0 0 34 32">
  <g fill="none" fill-rule="evenodd">
    <path fill="#3A8FBA" d="M28.1932857,15.2722051 C28.1932857,9.62789744 24.1343333,4.59405128 16.7951905,4.59405128 C9.45604762,4.59405128 5.44,9.62789744 5.44,15.2722051 L5.44,15.9729231 C5.44,21.6180513 9.45604762,26.7380513 16.7951905,26.7380513 C24.1343333,26.7380513 28.1932857,21.6180513 28.1932857,15.9729231 L28.1932857,15.2722051 Z M16.7951905,31.3329231 C6.60571429,31.3329231 0,23.8941538 0,16.1476923 L0,15.1860513 C0,7.30748718 6.60571429,0 16.7951905,0 C27.028381,0 33.6340952,7.30748718 33.6340952,15.1860513 L33.6340952,16.1476923 C33.6340952,23.8941538 27.028381,31.3329231 16.7951905,31.3329231 Z"/>
    <path fill="#0B0B09" d="M20.3494048,10.1399795 C21.3224524,10.7758769 21.5952619,12.0977231 20.9638333,13.0897231 L16.0419286,20.8173128 C15.4096905,21.8101333 14.1087857,22.0973128 13.1373571,21.4614154 C12.1659286,20.8238769 11.889881,19.5053128 12.5229286,18.5124923 L17.4448333,10.7849026 C18.0770714,9.79290256 19.3779762,9.50490256 20.3494048,10.1399795"/>
  </g>
</svg>
