<svg xmlns="http://www.w3.org/2000/svg" width="50" height="50" viewBox="0 0 50 50">
  <g fill="none" fill-rule="evenodd">
    <circle cx="25" cy="25" r="25" fill="#A60000"/>
    <path fill="#FFF" d="M3.92836387,27.8270155 L3,27.8270155 L3,20 L4.00063171,20 L4.00063171,22.7923118 C4.42312277,22.2833219 4.96234669,22.0288308 5.61831965,22.0288308 C5.98151371,22.0288308 6.3252458,22.0991273 6.64952622,22.2397224 C6.97380663,22.3803175 7.24063909,22.5778596 7.45003159,22.8323545 C7.65942408,23.0868495 7.82341486,23.3938405 7.94200884,23.7533369 C8.06060283,24.1128333 8.11989893,24.4972395 8.11989893,24.906567 C8.11989893,25.878275 7.8697435,26.6292908 7.36942514,27.1596369 C6.86910678,27.6899831 6.26873376,27.9551522 5.56828806,27.9551522 C4.87154842,27.9551522 4.32491249,27.6757458 3.92836387,27.1169247 L3.92836387,27.8270155 Z M3.91724574,24.9492792 C3.91724574,25.6291189 4.0136019,26.1203046 4.20631712,26.422851 C4.52133238,26.9176035 4.94752311,27.164976 5.48490208,27.164976 C5.92221739,27.164976 6.30023003,26.982561 6.61895136,26.6177256 C6.93767268,26.2528901 7.09703095,25.7092045 7.09703095,24.9866524 C7.09703095,24.2463035 6.94415819,23.6999484 6.63840809,23.3475707 C6.33265798,22.9951931 5.96298385,22.8190069 5.52937461,22.8190069 C5.0920593,22.8190069 4.71404666,23.0014219 4.39532533,23.3662573 C4.07660401,23.7310928 3.91724574,24.2587615 3.91724574,24.9492792 Z M13.1897663,27.1276028 C12.8191601,27.4301492 12.462457,27.6437082 12.1196462,27.7682862 C11.7768355,27.8928641 11.4090144,27.9551522 11.0161718,27.9551522 C10.367611,27.9551522 9.86915314,27.8029914 9.52078332,27.4986652 C9.1724135,27.1943391 8.99823121,26.8054838 8.99823121,26.3320876 C8.99823121,26.0544567 9.06401282,25.8008554 9.19557802,25.571276 C9.32714321,25.3416967 9.49947251,25.157502 9.71257107,25.0186866 C9.92566963,24.8798712 10.1656335,24.7748713 10.43247,24.7036839 C10.6288913,24.6538527 10.9253718,24.605802 11.3219204,24.5595302 C12.1298419,24.4669865 12.7246559,24.3566477 13.1063803,24.2285104 C13.1100864,24.0968137 13.1119394,24.0131698 13.1119394,23.9775761 C13.1119394,23.5860454 13.0174362,23.3101983 12.828427,23.1500267 C12.5727088,22.9329051 12.1928431,22.824346 11.6888187,22.824346 C11.2181488,22.824346 10.8707107,22.9035408 10.646494,23.0619327 C10.4222773,23.2203247 10.2564335,23.5006209 10.1489577,23.9028297 L9.17056222,23.774693 C9.25950771,23.3724842 9.40589496,23.0476966 9.60972836,22.8003203 C9.81356177,22.5529441 10.1081893,22.3625207 10.4936197,22.2290443 C10.8790501,22.0955679 11.3256239,22.0288308 11.8333544,22.0288308 C12.3373788,22.0288308 12.7468925,22.0857798 13.0619078,22.1996797 C13.376923,22.3135795 13.6085484,22.456842 13.7567909,22.6294714 C13.9050334,22.8021009 14.0088016,23.020109 14.0680985,23.2835024 C14.1014531,23.4472334 14.1181301,23.7426567 14.1181301,24.1697811 L14.1181301,25.4511479 C14.1181301,26.3445498 14.1394397,26.9095913 14.1820594,27.1462894 C14.2246791,27.3829875 14.3089907,27.6098939 14.4349968,27.8270155 L13.3898926,27.8270155 C13.2861229,27.6276908 13.2194148,27.3945555 13.1897663,27.1276028 Z M13.1063803,24.9813134 C12.7431862,25.1236882 12.1984033,25.244705 11.4720152,25.3443673 C11.0606423,25.4013172 10.7697208,25.4653849 10.5992419,25.5365723 C10.4287631,25.6077597 10.2971999,25.7118698 10.2045483,25.8489055 C10.1118968,25.9859412 10.0655717,26.138102 10.0655717,26.3053924 C10.0655717,26.5616671 10.1665604,26.7752261 10.3685407,26.9460758 C10.5705211,27.1169256 10.8660751,27.2023492 11.2552116,27.2023492 C11.6406421,27.2023492 11.9834476,27.1213747 12.2836387,26.9594234 C12.5838297,26.7974721 12.8043371,26.5759046 12.9451674,26.2947144 C13.0526432,26.0775928 13.1063803,25.7572543 13.1063803,25.3336893 L13.1063803,24.9813134 Z M15.646873,27.8270155 L15.646873,20 L16.6475047,20 L16.6475047,27.8270155 L15.646873,27.8270155 Z M17.7982312,26.1345435 L18.7877448,25.9850507 C18.8433357,26.3659033 18.9980615,26.6577673 19.2519267,26.8606514 C19.505792,27.0635355 19.8606421,27.164976 20.3164877,27.164976 C20.7760394,27.164976 21.1169919,27.0751032 21.3393557,26.895355 C21.5617194,26.7156069 21.6728996,26.5047174 21.6728996,26.2626802 C21.6728996,26.0455586 21.5746904,25.8747114 21.3782691,25.7501335 C21.2411448,25.6647086 20.9001922,25.5561494 20.3554011,25.4244527 C19.6216009,25.2464842 19.1129515,25.0925438 18.8294378,24.9626268 C18.545924,24.8327098 18.3309757,24.6529643 18.1845862,24.4233849 C18.0381968,24.1938056 17.9650032,23.9402043 17.9650032,23.6625734 C17.9650032,23.4098581 18.0252258,23.1758331 18.1456728,22.9604912 C18.2661198,22.7451493 18.4301106,22.5662936 18.63765,22.4239188 C18.7933046,22.3135784 19.0054735,22.2201463 19.274163,22.1436199 C19.5428525,22.0670934 19.8309945,22.0288308 20.1385976,22.0288308 C20.6018553,22.0288308 21.0085895,22.0928985 21.3588124,22.2210358 C21.7090352,22.3491731 21.9675292,22.5226898 22.134302,22.741591 C22.3010747,22.9604923 22.4159609,23.2532461 22.478964,23.6198612 L21.5005685,23.7479979 C21.4560958,23.4561295 21.3273121,23.2283333 21.1142135,23.0646022 C20.901115,22.9008712 20.6000019,22.8190069 20.2108654,22.8190069 C19.7513138,22.8190069 19.4233322,22.8919729 19.2269109,23.0379071 C19.0304896,23.1838413 18.9322805,23.3546885 18.9322805,23.5504538 C18.9322805,23.6750318 18.9730465,23.7871502 19.0545799,23.8868126 C19.1361133,23.9900343 19.2639705,24.0754579 19.4381554,24.143086 C19.5382191,24.1786797 19.8328466,24.2605439 20.3220467,24.3886813 C21.0299046,24.5702091 21.5237299,24.7188106 21.8035376,24.8344901 C22.0833453,24.9501696 22.3029261,25.1183474 22.4622868,25.3390283 C22.6216475,25.5597092 22.7013266,25.8337766 22.7013266,26.1612387 C22.7013266,26.481582 22.6040439,26.783234 22.4094757,27.066204 C22.2149074,27.3491739 21.9341775,27.5680718 21.5672773,27.7229044 C21.2003772,27.877737 20.7853045,27.9551522 20.3220467,27.9551522 C19.5548919,27.9551522 18.9702694,27.8021015 18.5681617,27.4959957 C18.166054,27.1898899 17.9094131,26.736077 17.7982312,26.1345435 Z M27.7433986,27.1276028 C27.3727924,27.4301492 27.0160893,27.6437082 26.6732786,27.7682862 C26.3304679,27.8928641 25.9626467,27.9551522 25.5698042,27.9551522 C24.9212433,27.9551522 24.4227855,27.8029914 24.0744157,27.4986652 C23.7260458,27.1943391 23.5518636,26.8054838 23.5518636,26.3320876 C23.5518636,26.0544567 23.6176452,25.8008554 23.7492104,25.571276 C23.8807756,25.3416967 24.0531049,25.157502 24.2662034,25.0186866 C24.479302,24.8798712 24.7192659,24.7748713 24.9861023,24.7036839 C25.1825236,24.6538527 25.4790041,24.605802 25.8755527,24.5595302 C26.6834742,24.4669865 27.2782883,24.3566477 27.6600126,24.2285104 C27.6637187,24.0968137 27.6655717,24.0131698 27.6655717,23.9775761 C27.6655717,23.5860454 27.5710685,23.3101983 27.3820594,23.1500267 C27.1263411,22.9329051 26.7464755,22.824346 26.242451,22.824346 C25.7717812,22.824346 25.4243431,22.9035408 25.2001263,23.0619327 C24.9759096,23.2203247 24.8100658,23.5006209 24.70259,23.9028297 L23.7241946,23.774693 C23.8131401,23.3724842 23.9595273,23.0476966 24.1633607,22.8003203 C24.3671941,22.5529441 24.6618216,22.3625207 25.0472521,22.2290443 C25.4326825,22.0955679 25.8792563,22.0288308 26.3869867,22.0288308 C26.8910112,22.0288308 27.3005249,22.0857798 27.6155401,22.1996797 C27.9305554,22.3135795 28.1621808,22.456842 28.3104232,22.6294714 C28.4586657,22.8021009 28.5624339,23.020109 28.6217309,23.2835024 C28.6550854,23.4472334 28.6717625,23.7426567 28.6717625,24.1697811 L28.6717625,25.4511479 C28.6717625,26.3445498 28.693072,26.9095913 28.7356917,27.1462894 C28.7783114,27.3829875 28.8626231,27.6098939 28.9886292,27.8270155 L27.943525,27.8270155 C27.8397552,27.6276908 27.7730471,27.3945555 27.7433986,27.1276028 Z M27.6600126,24.9813134 C27.2968186,25.1236882 26.7520356,25.244705 26.0256475,25.3443673 C25.6142746,25.4013172 25.3233531,25.4653849 25.1528743,25.5365723 C24.9823954,25.6077597 24.8508322,25.7118698 24.7581807,25.8489055 C24.6655291,25.9859412 24.619204,26.138102 24.619204,26.3053924 C24.619204,26.5616671 24.7201927,26.7752261 24.9221731,26.9460758 C25.1241535,27.1169256 25.4197075,27.2023492 25.808844,27.2023492 C26.1942744,27.2023492 26.53708,27.1213747 26.837271,26.9594234 C27.137462,26.7974721 27.3579694,26.5759046 27.4987997,26.2947144 C27.6062755,26.0775928 27.6600126,25.7572543 27.6600126,25.3336893 L27.6600126,24.9813134 Z M30.2227416,27.8270155 L30.2227416,22.1569674 L31.1177511,22.1569674 L31.1177511,22.9524826 C31.3030542,22.6748518 31.5495036,22.4515047 31.8571068,22.2824346 C32.1647099,22.1133645 32.5149275,22.0288308 32.9077701,22.0288308 C33.3450854,22.0288308 33.7036415,22.116034 33.9834491,22.2904431 C34.2632568,22.4648523 34.4606017,22.7086655 34.5754896,23.02189 C35.0424534,22.3598472 35.6502384,22.0288308 36.3988629,22.0288308 C36.9844207,22.0288308 37.4347005,22.1845509 37.7497157,22.4959957 C38.064731,22.8074406 38.2222363,23.2870585 38.2222363,23.9348639 L38.2222363,27.8270155 L37.2271636,27.8270155 L37.2271636,24.2552056 C37.2271636,23.8707936 37.1947361,23.5940567 37.12988,23.4249867 C37.0650239,23.2559166 36.9473582,23.1197727 36.7768793,23.016551 C36.6064005,22.9133293 36.4062762,22.8617192 36.1765003,22.8617192 C35.7614214,22.8617192 35.4167628,22.9943037 35.1425142,23.2594768 C34.8682656,23.5246498 34.7311434,23.9490983 34.7311434,24.532835 L34.7311434,27.8270155 L33.7305117,27.8270155 L33.7305117,24.143086 C33.7305117,23.7159616 33.6489795,23.3956231 33.4859128,23.1820609 C33.3228461,22.9684987 33.0560136,22.8617192 32.6854075,22.8617192 C32.4037467,22.8617192 32.1433998,22.9329055 31.9043588,23.0752803 C31.6653178,23.2176551 31.492062,23.4258751 31.3845862,23.6999466 C31.2771104,23.9740181 31.2233733,24.3691022 31.2233733,24.8852109 L31.2233733,27.8270155 L30.2227416,27.8270155 Z M39.7120657,21.1051789 L39.7120657,20 L40.7126974,20 L40.7126974,21.1051789 L39.7120657,21.1051789 Z M39.7120657,27.8270155 L39.7120657,22.1569674 L40.7126974,22.1569674 L40.7126974,27.8270155 L39.7120657,27.8270155 Z M45.9993683,30 L45.9993683,27.2237053 C45.8437137,27.4337081 45.6259858,27.6081146 45.3461781,27.7469301 C45.0663705,27.8857455 44.7689635,27.9551522 44.4539482,27.9551522 C43.7535025,27.9551522 43.15035,27.6864238 42.6444725,27.1489589 C42.1385951,26.611494 41.8856601,25.8747155 41.8856601,24.9386012 C41.8856601,24.369102 41.9885018,23.85834 42.1941883,23.4063001 C42.3998747,22.9542601 42.6982082,22.6116758 43.0891977,22.3785371 C43.4801873,22.1453984 43.9091575,22.0288308 44.3761213,22.0288308 C45.1062155,22.0288308 45.6806465,22.324254 46.0994315,22.9151095 L46.0994315,22.1569674 L47,22.1569674 L47,30 L45.9993683,30 Z M42.9140872,24.9759744 C42.9140872,25.7056452 43.0734454,26.2528901 43.3921668,26.6177256 C43.7108881,26.982561 44.0926067,27.164976 44.5373342,27.164976 C44.9635313,27.164976 45.3304259,26.9914593 45.6380291,26.6444207 C45.9456322,26.2973821 46.0994315,25.7697135 46.0994315,25.0613988 C46.0994315,24.3068124 45.9372937,23.7391014 45.6130133,23.3582488 C45.2887328,22.9773962 44.9079407,22.7869728 44.4706254,22.7869728 C44.0370162,22.7869728 43.669195,22.9640488 43.367151,23.3182061 C43.0651069,23.6723634 42.9140872,24.2249473 42.9140872,24.9759744 Z"/>
  </g>
</svg>
