<svg xmlns="http://www.w3.org/2000/svg" width="50" height="50" viewBox="0 0 50 50">
  <g fill="none" fill-rule="evenodd">
    <circle cx="25" cy="25" r="25" fill="#141B29"/>
    <g fill-rule="nonzero" transform="translate(2 19)">
      <path fill="#FFF" d="M1.23402667,10.5028421 L2.45517333,10.5028421 L2.45517333,6.46957895 L1.23402667,6.46957895 L1.23402667,10.5028421 Z M1.23402667,5.25947368 L2.45517333,5.25947368 L2.45517333,1.22621053 L1.23402667,1.22621053 L1.23402667,5.25947368 Z M0.0131866667,0.0164210526 L2.45517333,0.0164210526 C3.14364,0.0164210526 3.67601333,0.543789474 3.67601333,1.22621053 L3.67601333,4.91810526 C3.67601333,5.47673684 3.42546667,5.694 3.14364,5.84905263 C3.42546667,5.97315789 3.67601333,6.22136842 3.67601333,6.93473684 L3.67601333,10.4715789 C3.67601333,11.1543158 3.14364,11.6816842 2.45517333,11.6816842 L0.0131866667,11.6816842 L0.0131866667,0.0164210526 Z"/>
      <path fill="#FFF" d="M1.21562667,5.2957782 L2.42297333,5.2957782 L2.42297333,1.30281575 L1.21562667,1.30281575 L1.21562667,5.2957782 Z M0.00858666667,1.82516169 C0.00858666667,0.841994659 0.81328,0.0129473684 1.83478667,0.0129473684 C2.82532,0.0129473684 3.66098667,0.811539862 3.66098667,1.82516169 L3.66098667,11.6842105 L2.45394667,11.6842105 L2.45394667,6.49366696 L1.2466,6.49366696 L1.2466,11.6842105 L0.03956,11.6842105 L0.00858666667,1.82516169 Z" transform="translate(4.6)"/>
      <path fill="#FFF" d="M0.00398666667,0.0164210526 L1.16226667,0.0164210526 C1.6008,2.46 2.22670667,4.87294737 2.57109333,7.47126316 L2.60237333,7.47126316 C2.53981333,6.48157895 2.44597333,4.40905263 2.44597333,3.38810526 L2.44597333,0.0164210526 L3.66681333,0.0164210526 L3.66681333,11.6785263 L2.50853333,11.6785263 C2.07030667,9.23463158 1.44409333,6.82168421 1.09970667,4.22336842 L1.06842667,4.22336842 C1.13098667,5.21305263 1.22482667,7.28589474 1.22482667,8.30652632 L1.22482667,11.6785263 L0.00398666667,11.6785263 L0.00398666667,0.0164210526 Z" transform="translate(9.507)"/>
      <path fill="#FFF" d="M1.23065333,10.4718947 L2.4518,10.4718947 L2.4518,1.22273684 L1.23065333,1.22273684 L1.23065333,10.4718947 Z M0.00981333333,0.0164210526 L2.4518,0.0164210526 C3.14057333,0.0164210526 3.67264,0.542210526 3.67264,1.22273684 L3.67264,10.4718947 C3.67264,11.1524211 3.14057333,11.6785263 2.4518,11.6785263 L0.00981333333,11.6785263 L0.00981333333,0.0164210526 Z" transform="translate(14.107)"/>
      <polygon fill="#EF672A" points=".005 .016 3.668 .016 3.668 1.223 1.258 10.472 2.447 10.472 2.447 8.059 3.668 8.059 3.668 11.679 .005 11.679 .005 10.472 2.416 1.223 1.226 1.223 1.226 3.636 .005 3.636" transform="translate(19.32)"/>
      <path fill="#EF672A" d="M2.4288,1.29546306 L1.21470667,1.29546306 L1.21470667,10.4268233 L2.4288,10.4268233 L2.4288,1.29546306 Z M0.000613333333,1.81471911 C0.000613333333,0.837132237 0.809906667,0.0126315789 1.83724,0.0126315789 C2.8336,0.0126315789 3.67386667,0.806824263 3.67386667,1.81471911 L3.67386667,9.93818454 C3.67386667,10.9154621 2.86457333,11.7399628 1.83724,11.7399628 C0.841186667,11.7399628 0.000613333333,10.9457701 0.000613333333,9.93818454 L0.000613333333,1.81471911 Z" transform="translate(23.613)"/>
      <path fill="#EF672A" d="M2.43125333,1.29546306 L1.22390667,1.29546306 L1.22390667,10.4268233 L2.43125333,10.4268233 L2.43125333,1.29546306 Z M0.0168666667,1.81471911 C0.0168666667,0.837132237 0.82156,0.0126315789 1.84306667,0.0126315789 C2.8336,0.0126315789 3.66957333,0.806824263 3.66957333,1.81471911 L3.66957333,9.93818454 C3.66957333,10.9154621 2.86457333,11.7399628 1.84306667,11.7399628 C0.852533333,11.7399628 0.0168666667,10.9457701 0.0168666667,9.93818454 L0.0168666667,1.81471911 Z" transform="translate(28.827)"/>
      <path fill="#EF672A" d="M0.0122666667,1.81966735 C0.0122666667,0.839606359 0.817266667,0.0126315789 1.83846667,0.0126315789 C2.829,0.0126315789 3.66497333,0.808989117 3.66497333,1.81966735 L3.66497333,3.13682725 L2.45762667,3.13682725 L2.45762667,1.29917424 L1.25058667,1.29917424 L1.25058667,10.456822 L2.45762667,10.456822 L2.45762667,6.47534362 L1.93138667,6.47534362 L1.93138667,5.28065267 L3.66497333,5.28065267 L3.66497333,9.93601967 C3.66497333,10.9163899 2.85997333,11.7430554 1.83846667,11.7430554 C0.847933333,11.7430554 0.0122666667,10.9466979 0.0122666667,9.93601967 L0.0122666667,1.81966735 Z" transform="translate(33.427)"/>
      <polygon fill="#EF672A" points=".008 .016 1.229 .016 1.229 10.472 2.45 10.472 2.45 8.059 3.671 8.059 3.671 11.679 .008 11.679" transform="translate(37.72)"/>
      <path fill="#EF672A" d="M3.67570667,1.22273684 L1.23402667,1.22273684 L1.23402667,5.244 L3.08108,5.244 L3.08108,6.45063158 L1.23402667,6.45063158 L1.23402667,10.4718947 L3.67570667,10.4718947 L3.67570667,11.6785263 L1.23402667,11.6785263 C0.545253333,11.6785263 0.01288,11.1524211 0.01288,10.4718947 L0.01288,1.22273684 C0.01288,0.542210526 0.545253333,0.0164210526 1.23402667,0.0164210526 L3.67570667,0.0164210526 L3.67570667,1.22273684 Z" transform="translate(42.32)"/>
    </g>
  </g>
</svg>
