<svg xmlns="http://www.w3.org/2000/svg" xmlns:xlink="http://www.w3.org/1999/xlink" width="50" height="50" viewBox="0 0 50 50">
  <defs>
    <circle id="bandcamp-a" cx="25" cy="25" r="25"/>
    <polygon id="bandcamp-c" points=".006 0 50 0 50 50 .006 50"/>
    <path id="bandcamp-e" d="M4.77119141,5.31289062 C2.97929687,5.31289062 2.06367188,6.72333984 2.06367188,8.84804687 C2.06367188,10.8564453 3.05371094,12.3640625 4.77119141,12.3640625 C6.71347656,12.3640625 7.44169922,10.5865234 7.44169922,8.84804687 C7.44023437,7.03261719 6.52519531,5.31289062 4.77060547,5.31289062 L4.77119141,5.31289062 Z M0.009765625,0.03984375 L2.13837891,0.03984375 L2.13837891,5.1390625 L2.17597656,5.1390625 C2.75488281,4.1734375 3.96845703,3.57441406 5.0515625,3.57441406 C8.09482422,3.57441406 9.57050781,5.97041016 9.57050781,8.88740234 C9.57050781,11.5713867 8.26357422,14.1019531 5.40615234,14.1019531 C4.09902344,14.1019531 2.69863281,13.7744141 2.06347656,12.4604492 L2.0265625,12.4604492 L2.0265625,13.8326172 L0.00966796875,13.8326172 L0.00966796875,0.0401367188 L0.009765625,0.03984375 Z"/>
    <path id="bandcamp-g" d="M7.06923828,3.67167969 C6.90107422,2.45458984 6.04238281,1.79746094 4.86601563,1.79746094 C3.76376953,1.79746094 2.21425781,2.39658203 2.21425781,5.42939453 C2.21425781,7.09082031 2.92363281,8.84882813 4.77255859,8.84882813 C6.00478516,8.84882813 6.86347656,7.99785156 7.06923828,6.56845703 L9.19785156,6.56845703 C8.80566406,9.15693359 7.25605469,10.5863281 4.77255859,10.5863281 C1.74736328,10.5863281 0.085546875,8.36542969 0.085546875,5.42939453 C0.085546875,2.41611328 1.67275391,0.059375 4.84726563,0.059375 C7.08789062,0.059375 8.99316406,1.21835938 9.19785156,3.67177734 L7.07275391,3.67177734 L7.06923828,3.67167969 Z"/>
    <polygon id="bandcamp-i" points="16.005 13.803 .04 13.803 7.496 .04 23.461 .04"/>
  </defs>
  <g fill="none" fill-rule="evenodd">
    <mask id="bandcamp-b" fill="#fff">
      <use xlink:href="#bandcamp-a"/>
    </mask>
    <use fill="#FFF" xlink:href="#bandcamp-a"/>
    <g mask="url(#bandcamp-b)">
      <mask id="bandcamp-d" fill="#fff">
        <use xlink:href="#bandcamp-c"/>
      </mask>
      <polygon fill="#60929C" points=".006 50 50.01 50 50.01 -.004 .006 -.004" mask="url(#bandcamp-d)"/>
      <g transform="translate(26.563 18.066)">
        <mask id="bandcamp-f" fill="#fff">
          <use xlink:href="#bandcamp-e"/>
        </mask>
        <polygon fill="#FFF" points="-.002 14.109 9.572 14.109 9.572 .035 -.002 .035" mask="url(#bandcamp-f)"/>
      </g>
      <g transform="translate(36.914 21.582)">
        <mask id="bandcamp-h" fill="#fff">
          <use xlink:href="#bandcamp-g"/>
        </mask>
        <polygon fill="#FFF" points=".076 10.594 9.205 10.594 9.205 .059 .076 .059" mask="url(#bandcamp-h)"/>
      </g>
      <g transform="translate(3.125 18.066)">
        <mask id="bandcamp-j" fill="#fff">
          <use xlink:href="#bandcamp-i"/>
        </mask>
        <polygon fill="#FFF" points=".033 13.805 23.471 13.805 23.471 .035 .033 .035" mask="url(#bandcamp-j)"/>
      </g>
    </g>
  </g>
</svg>
