<svg xmlns="http://www.w3.org/2000/svg" width="40" height="34" viewBox="0 0 40 34">
  <g fill="none">
    <path fill="#B3DCFF" d="M19.768,0 C9.128,0 0.8,13.6971429 0,25.2652381 C3.336,31.1261905 11.392,33.3604762 19.768,33.3604762 C28.144,33.3604762 36.192,31.1585714 39.528,25.2652381 C38.736,13.6971429 30.4,0 19.768,0 Z"/>
    <path fill="#5ECC62" d="M32.08,14.3852381 C29.744,11.3333333 26.768,8.0952381 25.04,8.0952381 C23.312,8.0952381 18.488,16.7409524 16.24,16.7409524 C13.992,16.7409524 12.872,12.8066667 10.152,12.8228571 C6.44,12.8228571 2.808,23.8728571 2.808,23.8728571 C2.808,23.8728571 4.312,30.6161905 20.04,30.6161905 C35.768,30.6161905 37.024,23.9861905 37.024,23.9861905 C35.8822475,20.5439701 34.2139718,17.3042785 32.08,14.3852381 Z"/>
    <path fill="#000" d="M11.336,22.95 C11.336,21.8367517 12.2278488,20.9342857 13.328,20.9342857 C14.4281512,20.9342857 15.32,21.8367517 15.32,22.95 C15.32,24.0632483 14.4281512,24.9657143 13.328,24.9657143 C12.2278488,24.9657143 11.336,24.0632483 11.336,22.95 Z M24.208,22.95 C24.208,24.0632483 25.0998488,24.9657143 26.2,24.9657143 C27.3001512,24.9657143 28.192,24.0632483 28.192,22.95 C28.192,21.8367517 27.3001512,20.9342857 26.2,20.9342857 C25.0998488,20.9342857 24.208,21.8367517 24.208,22.95 Z M23.848,25.9047619 C23.9706826,25.6062809 23.8475069,25.2624258 23.5643111,25.1128209 C23.2811153,24.9632159 22.9318891,25.0575135 22.76,25.33 C22.1189309,26.3385393 20.9911329,26.9199759 19.808,26.8519048 C18.5950712,26.8803547 17.4472026,26.2980715 16.744,25.297619 C16.5551596,25.03508 16.1987716,24.9632179 15.924904,25.1324563 C15.6510364,25.3016947 15.5514405,25.6553354 15.696,25.9452381 C16.6233314,27.314099 18.1681707,28.1200446 19.808,28.0904762 C21.4484091,28.1646302 22.99788,27.326338 23.848,25.9047619 Z"/>
    <path fill="#00AD45" d="M16.52,20.4485714 C14.08,20.4485714 12.824,18.02 12.144,16.5061905 C11.536,15.1542857 11.424,13.0090476 9.696,12.952381 C9.85074937,12.8867869 10.0162678,12.8510925 10.184,12.8471429 C12.904,12.8471429 14.056,16.7652381 16.272,16.7652381 C18.488,16.7652381 23.32,8.0952381 25.04,8.0952381 C25.4226648,8.11580694 25.7952641,8.22669959 26.128,8.41904762 C25.7816509,8.35301777 25.4249615,8.45829068 25.168,8.70238095 C24.616,9.27714286 19.544,20.4485714 16.52,20.4485714 Z"/>
  </g>
</svg>
