<svg xmlns="http://www.w3.org/2000/svg" width="42" height="28" viewBox="0 0 42 28">
  <path d="M57.4653024,40.342425 C55.9786477,40.342425 54.1236654,40.5228662 51.9644128,40.7451487 L51.9644128,37.910392 C52.0261639,34.0328868 49.9502237,30.4237503 46.5328502,28.4673216 C43.1154768,26.5108928 38.8871921,26.5108928 35.4698187,28.4673216 C32.0524453,30.4237503 29.976505,34.0328868 30.0382562,37.910392 L30.0382562,40.7451487 C27.8790036,40.5228662 26.0346975,40.342425 24.5373665,40.342425 C21.5427046,40.342425 20,41.2864722 20,43.1771817 C20,47.1782682 28.8451957,55 40.9893238,55 C53.1334519,55 62,47.1782682 62,43.1771817 C61.9893238,41.3073929 60.4599644,40.342425 57.4653024,40.342425 Z M32.7873665,37.910392 C32.7873665,33.3862877 36.230427,29.6859365 40.9786477,29.6859365 C45.7268683,29.6859365 49.1699288,33.3862877 49.1699288,37.910392 L49.1699288,42.6960052 C49.1481647,43.1418155 48.882967,43.5415652 48.4759786,43.742041 C45.7455516,45.3712415 41.269573,45.2901738 41.0186832,45.2901738 C40.7677936,45.2901738 36.291815,45.3895471 33.5613879,43.7629617 C33.1370544,43.5677799 32.8447588,43.1727629 32.7873665,42.7169259 L32.7873665,37.910392 Z M54.2250889,48.4858128 C46.1818104,53.6540337 35.775485,53.6540337 27.7322064,48.4858128 C24.3505338,46.3335943 22.7597865,44.1029232 22.6983986,43.2190232 C23.9421708,42.6567789 30.0542704,43.3994643 30.1156584,43.420385 C31.1352313,48.0857041 40.9786477,47.905263 40.9786477,47.905263 C40.9786477,47.905263 50.8540925,48.0857041 51.8603203,43.420385 C51.9430605,43.420385 58.0338078,42.6567789 59.2775801,43.2190232 C59.2588967,44.1029232 57.6067615,46.3335943 54.2250889,48.4858128 Z" transform="translate(-20 -27)"/>
</svg>
