<svg xmlns="http://www.w3.org/2000/svg" width="50" height="50" viewBox="0 0 50 50">
  <g fill="none" fill-rule="evenodd">
    <circle cx="25" cy="25" r="25" fill="#1775BF"/>
    <g fill="#FFFFFE" transform="translate(13 12)">
      <polygon points="14.429 14.612 14.429 11.364 11.603 9.74 8.776 11.364 8.776 14.613 11.603 16.237 14.429 14.613"/>
      <path d="M22.8797538,6.56048227 C22.6608,6.16458156 22.3338462,5.83653901 21.9038769,5.58963121 L12.9075692,0.420978723 C12.0736615,-0.0580851064 11.0952,-0.0374326241 10.3004308,0.419134752 L8.77181538,1.29741844 L8.77181538,6.89110638 L11.6025231,5.2647234 L18.3367385,9.13374468 L18.3367385,16.8723404 L11.6025231,20.7413617 L4.86775385,16.8723404 L4.86775385,3.49229787 L1.27975385,5.55404255 C0.445292308,6.03347518 0,6.50792908 0,7.44780142 L0,18.1472624 C0,18.6359149 0.131076923,19.0760709 0.342646154,19.4481844 C0.579876923,19.864922 0.918276923,20.1962837 1.29304615,20.4114752 L10.2520615,25.558922 C11.1286154,26.062695 12.0718154,26.0649078 12.9433846,25.5642695 L21.9241846,20.4042837 C22.7623385,19.9228227 23.2046769,19.1583121 23.2046769,18.186539 L23.2046769,7.904 C23.2046769,7.39801418 23.0935385,6.94697872 22.8797538,6.56048227"/>
    </g>
  </g>
</svg>
