<svg xmlns="http://www.w3.org/2000/svg" width="30" height="30" viewBox="0 0 30 30">
  <path d="M38.506633,41.3925755 C38.506633,40.3787804 37.713324,39.806178 36.2808258,39.806178 L32.9314215,39.806178 L32.9314215,43.0678289 L36.0601192,43.0678289 C37.5583222,43.0678289 38.506633,42.5827595 38.506633,41.4366727 L38.506633,41.3925755 Z M39.3654263,47.562438 C39.3654263,46.5268148 38.5950479,45.8878461 36.8540896,45.8878461 L32.9314215,45.8878461 L32.9314215,49.2811271 L36.9634508,49.2811271 C38.4620948,49.2811271 39.3654263,48.7519605 39.3654263,47.6065352 L39.3654263,47.562438 Z M46.5259328,35.1889786 C45.3073062,35.1889786 44.3199694,34.2012009 44.3199694,32.9827947 C44.3199694,31.7641681 45.3077471,30.7763903 46.5261533,30.7763903 C47.7454414,30.7763903 48.7325577,31.7641681 48.7325577,32.9827947 C48.7323372,34.2007599 47.7450005,35.1889786 46.5259328,35.1889786 Z M36.9632303,52.256146 L29.6263349,52.256146 L29.6263349,36.8309386 L36.7872824,36.8309386 C38.5502892,36.8309386 39.9384697,37.316008 40.8204141,38.197291 C41.5259696,38.902185 41.8778654,39.7618603 41.8778654,40.8193116 C41.8778654,42.6043671 40.9518238,43.5738445 39.8500548,44.1905441 C41.6353307,44.874051 42.7362178,45.9098947 42.7362178,47.9807001 C42.7364383,50.845917 40.4455877,52.256146 36.9632303,52.256146 Z M44.8292923,36.8309386 L48.2225734,36.8309386 L48.2225734,52.256146 L44.8292923,52.256146 L44.8292923,36.8309386 Z M56,27.6823089 C56,27.6823089 56,26 54.3183525,26 L27.6823089,26 C27.6823089,26 26,26 26,27.6823089 L26,54.318132 C26,54.318132 26,56 27.6823089,56 L54.318573,56 C54.318573,56 56,56 56,54.3176911 L56,27.6823089 Z" transform="translate(-26 -26)"/>
</svg>
