<svg xmlns="http://www.w3.org/2000/svg" width="50" height="50" viewBox="0 0 50 50">
  <g fill="none" fill-rule="evenodd">
    <circle cx="25" cy="25" r="25" fill="#000"/>
    <path fill="#FFF" fill-rule="nonzero" d="M21.8583277,0.01352657 L24.5258911,0.01352657 L24.5258911,6.49951691 L21.8583277,6.49951691 L21.8583277,0.01352657 Z M18.3465591,0.01352657 L21.0141224,0.01352657 L21.0141224,6.49951691 L18.3465591,6.49951691 L18.3465591,0.01352657 Z M14.8065456,0.01352657 L17.4741089,0.01352657 L17.4741089,6.49951691 L14.8065456,6.49951691 L14.8065456,0.01352657 Z M0,10.9768116 C0,10.878744 0.0753194351,10.7975845 0.1600538,10.7975845 L1.23335575,10.7975845 C1.56601659,10.7975845 1.82963461,10.9024155 1.99596503,11.0748792 C2.1152208,11.2101449 2.18426362,11.3724638 2.18426362,11.5753623 L2.18426362,11.5821256 C2.18426362,11.9913043 1.94889038,12.2009662 1.71979377,12.3057971 C2.06500785,12.4173913 2.34431742,12.6338164 2.34431742,13.0599034 L2.34431742,13.0666667 C2.34431742,13.6043478 1.9206456,13.9256039 1.29298364,13.9256039 L0.163192109,13.9256039 C0.0721811253,13.9256039 0.0031383098,13.8444444 0.0031383098,13.7463768 L0,10.9768116 Z M1.18314279,12.1942029 C1.57856983,12.1942029 1.85474109,12.0014493 1.85474109,11.6328502 L1.85474109,11.626087 C1.85474109,11.3217391 1.62564447,11.1188406 1.21138758,11.1188406 L0.326384219,11.1188406 L0.326384219,12.2009662 L1.1862811,12.2009662 L1.18314279,12.1942029 Z M1.30239857,13.621256 C1.74490025,13.621256 2.01479489,13.4115942 2.01479489,13.0599034 L2.01479489,13.0531401 C2.01479489,12.7082126 1.75117687,12.5154589 1.23963237,12.5154589 L0.326384219,12.5154589 L0.326384219,13.621256 L1.30239857,13.621256 Z M4.38421879,10.9565217 C4.38421879,10.8584541 4.45953822,10.7772947 4.54427258,10.7772947 C4.63528357,10.7772947 4.710603,10.8584541 4.710603,10.9565217 L4.710603,13.6043478 L6.22013002,13.6043478 C6.30172607,13.6043478 6.3739072,13.678744 6.3739072,13.7700483 C6.3739072,13.8613527 6.30486438,13.9357488 6.22013002,13.9357488 L4.5505492,13.9357488 C4.45953822,13.9357488 4.3904954,13.8545894 4.3904954,13.7565217 L4.3904954,10.9565217 L4.38421879,10.9565217 Z M9.54987671,11.1797101 L8.44832997,13.8376812 C8.42008518,13.9120773 8.36673392,13.9560386 8.28827617,13.9560386 C8.20668012,13.9560386 8.13449899,13.8816425 8.13449899,13.7903382 C8.13449899,13.7599034 8.14077561,13.7294686 8.15646716,13.6922705 L9.33333333,10.9091787 C9.37413136,10.8111111 9.43689756,10.7536232 9.54046178,10.7536232 L9.55301502,10.7536232 C9.65030262,10.7536232 9.71934544,10.8144928 9.75386685,10.9091787 L10.930733,13.6855072 C10.9432863,13.715942 10.9527012,13.7463768 10.9527012,13.77343 C10.9527012,13.8714976 10.8836584,13.9458937 10.7926474,13.9458937 C10.717328,13.9458937 10.6608384,13.8850242 10.6325936,13.8173913 L9.54987671,11.1797101 Z M12.7101547,12.37343 L12.7101547,12.3666667 C12.7101547,11.4772947 13.3252634,10.7468599 14.1788837,10.7468599 C14.6496301,10.7468599 14.9477696,10.9125604 15.2176642,11.1560386 C15.2521856,11.1864734 15.286707,11.2371981 15.286707,11.2980676 C15.286707,11.3961353 15.2113876,11.4705314 15.1203766,11.4705314 C15.073302,11.4705314 15.0387805,11.4468599 15.0105358,11.4333333 C14.7877158,11.2169082 14.5335127,11.0748792 14.172607,11.0748792 C13.5292535,11.0748792 13.0428155,11.6429952 13.0428155,12.3599034 L13.0428155,12.3666667 C13.0428155,13.0903382 13.5261152,13.6584541 14.172607,13.6584541 C14.5335127,13.6584541 14.7877158,13.5231884 15.0387805,13.2763285 C15.0670253,13.2458937 15.1015467,13.2256039 15.1423448,13.2256039 C15.2239408,13.2256039 15.3023986,13.3067633 15.3023986,13.3980676 C15.3023986,13.4487923 15.2741538,13.4961353 15.245909,13.52657 C14.9634611,13.810628 14.6433535,13.9898551 14.1663304,13.9898551 C13.3252634,13.9864734 12.7101547,13.2763285 12.7101547,12.37343 Z M17.2858104,10.9565217 C17.2858104,10.8584541 17.3611298,10.7772947 17.4458642,10.7772947 C17.5368751,10.7772947 17.6121946,10.8584541 17.6121946,10.9565217 L17.6121946,12.6743961 L19.2660838,10.8449275 C19.3006052,10.8077295 19.3414033,10.784058 19.3978928,10.784058 C19.4889038,10.784058 19.5579466,10.8652174 19.5579466,10.9565217 C19.5579466,11.0072464 19.5359785,11.0444444 19.5014571,11.0850242 L18.4752298,12.1806763 L19.5830531,13.6516908 C19.6112979,13.6888889 19.6301278,13.726087 19.6301278,13.7801932 C19.6301278,13.8782609 19.5548083,13.9594203 19.4637974,13.9594203 C19.4010312,13.9594203 19.3602331,13.9222222 19.3319883,13.8782609 L18.2461332,12.4241546 L17.6153329,13.1038647 L17.6153329,13.7835749 C17.6153329,13.8816425 17.5400134,13.9628019 17.4490025,13.9628019 C17.3579915,13.9628019 17.2889487,13.8816425 17.2889487,13.7835749 L17.2889487,10.9565217 L17.2858104,10.9565217 Z M22.8908317,10.9768116 C22.8908317,10.878744 22.9661511,10.7975845 23.0508855,10.7975845 L23.9766868,10.7975845 C24.6357319,10.7975845 25.062542,11.1695652 25.062542,11.7917874 L25.062542,11.7985507 C25.062542,12.4782609 24.535306,12.8198068 23.9201973,12.8198068 L23.2140776,12.8198068 L23.2140776,13.7666667 C23.2140776,13.8647343 23.1387581,13.9458937 23.0477471,13.9458937 C22.9567362,13.9458937 22.8876933,13.8647343 22.8876933,13.7666667 L22.8876933,10.9768116 L22.8908317,10.9768116 Z M23.9358888,12.5086957 C24.4191885,12.5086957 24.7330195,12.231401 24.7330195,11.8222222 L24.7330195,11.8086957 C24.7330195,11.3623188 24.4223268,11.1289855 23.9515804,11.1289855 L23.2172159,11.1289855 L23.2172159,12.5086957 L23.9358888,12.5086957 Z M27.0804752,10.9565217 C27.0804752,10.8584541 27.1557947,10.7772947 27.240529,10.7772947 C27.33154,10.7772947 27.4068594,10.8584541 27.4068594,10.9565217 L27.4068594,13.7768116 C27.4068594,13.8748792 27.33154,13.9560386 27.240529,13.9560386 C27.149518,13.9560386 27.0804752,13.8748792 27.0804752,13.7768116 L27.0804752,10.9565217 Z M29.5534633,13.6652174 L30.5232011,12.3362319 L29.600538,11.0816425 C29.5722932,11.0444444 29.5440484,11.0004831 29.5440484,10.9463768 C29.5440484,10.8584541 29.6130912,10.773913 29.7041022,10.773913 C29.773145,10.773913 29.8076664,10.8111111 29.8484645,10.8618357 L30.7271912,12.0859903 L31.5933647,10.868599 C31.6404394,10.8077295 31.6843757,10.7637681 31.7534185,10.7637681 C31.828738,10.7637681 31.9071957,10.8381643 31.9071957,10.9294686 C31.9071957,10.97343 31.8946425,11.0173913 31.860121,11.057971 L30.9311813,12.326087 L31.8946425,13.6483092 C31.9291639,13.6855072 31.951132,13.7294686 31.951132,13.7768116 C31.951132,13.8748792 31.8820892,13.9492754 31.7910782,13.9492754 C31.7220354,13.9492754 31.687514,13.9120773 31.646716,13.8613527 L30.7240529,12.5763285 L29.8170814,13.8444444 C29.7700067,13.905314 29.7260704,13.9492754 29.6570276,13.9492754 C29.5879848,13.9492754 29.5126653,13.8748792 29.5126653,13.7835749 C29.5032504,13.7463768 29.5252186,13.7024155 29.5534633,13.6652174 Z M34.0130016,13.7531401 L34.0130016,10.9768116 C34.0130016,10.878744 34.088321,10.7975845 34.1730554,10.7975845 L35.9807218,10.7975845 C36.0623179,10.7975845 36.134499,10.8719807 36.134499,10.963285 C36.134499,11.0512077 36.0654562,11.1289855 35.9807218,11.1289855 L34.3393858,11.1289855 L34.3393858,12.1975845 L35.7924232,12.1975845 C35.8740193,12.1975845 35.9462004,12.2719807 35.9462004,12.363285 C35.9462004,12.4545894 35.8771576,12.5289855 35.7924232,12.5289855 L34.3393858,12.5289855 L34.3393858,13.6246377 L36.00269,13.6246377 C36.084286,13.6246377 36.1564672,13.6990338 36.1564672,13.7903382 C36.1564672,13.8782609 36.0874243,13.9560386 36.00269,13.9560386 L34.1730554,13.9560386 C34.088321,13.9323671 34.0130016,13.8512077 34.0130016,13.7531401 Z M38.1838153,10.9565217 C38.1838153,10.8584541 38.2591347,10.7772947 38.3438691,10.7772947 C38.4348801,10.7772947 38.5101995,10.8584541 38.5101995,10.9565217 L38.5101995,13.6043478 L40.0197265,13.6043478 C40.1013226,13.6043478 40.1735037,13.678744 40.1735037,13.7700483 C40.1735037,13.8613527 40.1044609,13.9357488 40.0197265,13.9357488 L38.3438691,13.9357488 C38.2528581,13.9357488 38.1838153,13.8545894 38.1838153,13.7565217 L38.1838153,10.9565217 Z" transform="translate(4.798 18)"/>
  </g>
</svg>
