<svg xmlns="http://www.w3.org/2000/svg" width="50" height="50" viewBox="0 0 50 50">
  <g fill="none" fill-rule="evenodd">
    <circle cx="25" cy="25" r="25" fill="#000"/>
    <g fill="#FBFBFF" fill-rule="nonzero" transform="translate(10 11)">
      <polygon points="6.625 .029 .067 .029 .067 5.475 6.625 5.475"/>
      <path d="M24.3557704,18.0176657 C24.2788473,18.3820493 24.1634627,18.7464328 24.0288473,19.0916383 C23.8750012,19.4176657 23.7019242,19.7436931 23.4903858,20.0505424 C23.2980781,20.3382137 23.0673088,20.6258849 22.7980781,20.8943781 C22.5480781,21.1436931 22.2596165,21.3738301 21.9519242,21.584789 C21.6634627,21.7765698 21.3365396,21.9683507 20.9903858,22.1025972 C20.6442319,22.2368438 20.2980781,22.3519123 19.9326935,22.4286246 C19.1826935,22.5820493 18.3942319,22.5820493 17.6442319,22.4286246 C17.2788473,22.3519123 16.9134627,22.2368438 16.5673088,22.1025972 C16.2403858,21.9683507 15.9134627,21.7765698 15.6057704,21.584789 C15.2980781,21.3738301 15.0288473,21.1436931 14.7596165,20.8943781 C14.5096165,20.6258849 14.2788473,20.3382137 14.0673088,20.0505424 C13.8557704,19.7436931 13.6826935,19.4176657 13.5480781,19.0916383 C13.3942319,18.7464328 13.2980781,18.3820493 13.221155,18.0176657 C13.1442319,17.6532822 13.1057704,17.2697205 13.1057704,16.8861589 L13.1057704,7.6039671 L15.8173088,12.0341041 C16.0480781,11.8998575 16.2596165,11.784789 16.4903858,11.6888986 C16.721155,11.5930082 16.971155,11.4971178 17.221155,11.4204055 C17.471155,11.3628712 17.721155,11.305337 17.971155,11.2669808 C18.6250012,11.1710904 19.2980781,11.1902685 19.9326935,11.324515 C20.2980781,11.4012274 20.6442319,11.5162959 20.9903858,11.6505424 C21.3365396,11.8039671 21.6634627,11.9765698 21.9519242,12.1875287 C22.2596165,12.3793096 22.5480781,12.6094465 22.7980781,12.8779397 C23.0673088,13.1272548 23.2980781,13.414926 23.4903858,13.7217753 C23.7019242,14.0094465 23.8750012,14.3354739 24.0288473,14.6806794 C24.1634627,15.0067068 24.2788473,15.3710904 24.3557704,15.7354739 C24.4326935,16.0998575 24.471155,16.4834192 24.471155,16.8861589 C24.471155,17.2697205 24.4326935,17.6532822 24.3557704,18.0176657 Z M29.7019242,14.6423233 C29.5673088,13.9327342 29.3365396,13.2231452 29.0480781,12.5519123 C28.7788473,11.8806794 28.4326935,11.2478027 28.0288473,10.6532822 C27.6250012,10.0779397 27.1634627,9.52177532 26.6634627,9.02314518 C26.1634627,8.50533696 25.6057704,8.06424107 25.0288473,7.66150134 C24.4326935,7.25876162 23.7788473,6.91355614 23.1250012,6.6258849 C22.4519242,6.35739175 21.7403858,6.12725477 21.0288473,5.99300819 C19.7788473,5.72451504 18.4903858,5.68615888 17.221155,5.8779397 C16.7019242,5.93547395 16.2019242,6.05054244 15.721155,6.18478901 C15.221155,6.31903559 14.7596165,6.49163833 14.2980781,6.70259723 C13.8942319,6.87519997 13.4903858,7.08615888 13.1057704,7.31629586 L13.1057704,0.0286246301 L7.62500115,0.0286246301 C7.64423192,0.0669807945 7.64423192,-0.0289096164 7.62500115,0.0286246301 L7.62500115,16.8861589 C7.62500115,17.6341041 7.70192423,18.3820493 7.85577038,19.1108164 C8.00961654,19.8395835 8.221155,20.5299945 8.50961654,21.2012274 C8.79807808,21.8724602 9.14423192,22.505337 9.54807808,23.0998575 C9.93269346,23.6943781 10.3942319,24.2313644 10.8942319,24.7491726 C11.4134627,25.2478027 11.9519242,25.7080767 12.5480781,26.0916383 C13.1442319,26.4943781 13.7788473,26.8395835 14.4519242,27.1272548 C15.1250012,27.414926 15.8173088,27.6258849 16.5480781,27.7793096 C17.2788473,27.9135561 18.0288473,27.9902685 18.7788473,27.9902685 C19.5288473,27.9902685 20.2980781,27.9135561 21.0288473,27.7793096 C21.7403858,27.6258849 22.4519242,27.414926 23.1250012,27.1272548 C23.7788473,26.8395835 24.4326935,26.4943781 25.0288473,26.0916383 C25.6057704,25.7080767 26.1634627,25.2478027 26.6634627,24.7491726 C27.1634627,24.2313644 27.6250012,23.6943781 28.0288473,23.0998575 C28.4326935,22.505337 28.7788473,21.8724602 29.0480781,21.2012274 C29.3365396,20.5299945 29.5673088,19.8395835 29.7019242,19.1108164 C29.8557704,18.3820493 29.9326935,17.6341041 29.9326935,16.8861589 C29.9326935,16.1190356 29.8557704,15.3710904 29.7019242,14.6423233 Z"/>
    </g>
  </g>
</svg>
