<svg xmlns="http://www.w3.org/2000/svg" width="50" height="50" viewBox="0 0 50 50">
  <g fill="none" fill-rule="evenodd">
    <circle cx="25" cy="25" r="25" fill="#1A3467"/>
    <path fill="#FFF" fill-rule="nonzero" d="M8.90592593,7.52 C9.14185185,7.45173333 10.6303704,6.51377778 10.6303704,4.57173333 C10.6314815,1.21173333 8.0562963,0 5.36296296,0 L0.485925926,0 C0.356666667,0 0.233333333,0.0490666667 0.141851852,0.1376 C0.0511111111,0.225777778 0,0.3456 0,0.4704 L0,15.5306667 C0,15.6551111 0.0511111111,15.7749333 0.142592593,15.8627556 C0.233703704,15.9509333 0.357407407,16.0003556 0.486296296,16 L5.9537037,16 C9.07222222,16 11.4814815,14.08 11.4814815,11.2693333 C11.4814815,8.3936 9.14296296,7.56586667 8.90592593,7.52 Z M2.96296296,2.63822222 C2.96296296,2.55573333 3.03111111,2.48888889 3.11481481,2.48888889 L5.34666667,2.48888889 C6.71222222,2.48888889 7.77777778,3.05777778 7.77777778,4.44444444 C7.77777778,5.83111111 6.89814815,6.4 5.34666667,6.4 L3.11481481,6.4 C3.03111111,6.4 2.96296296,6.33315556 2.96296296,6.25066667 L2.96296296,2.63822222 Z M6.07111111,13.5111111 L3.12296296,13.5111111 C3.03481481,13.5111111 2.96296296,13.4435556 2.96296296,13.3603556 L2.96296296,9.4016 C2.96111111,9.36071111 2.97703704,9.32088889 3.00740741,9.29137778 C3.03703704,9.26151111 3.07851852,9.24515556 3.12222222,9.24444444 L6.5,9.24444444 C7.80925926,9.24444444 8.93333333,10.2392889 8.88740741,11.4752 C8.83703704,12.9194667 7.63925926,13.5111111 6.07111111,13.5111111 Z M28.0185185,7.34862222 C26.9555556,5.70097778 25.0185185,4.62222222 22.7777778,4.62222222 C19.3722222,4.62222222 16.6666667,7.11644444 16.6666667,10.3136 C16.6666667,13.488 19.3722222,16 22.7777778,16 C26.1833333,16 28.8888889,13.4837333 28.8888889,10.3136 C28.8888889,8.86222222 28.0703704,7.32942222 28.0185185,7.34826667 L28.0185185,7.34862222 Z M22.7766667,13.5111111 C20.8285185,13.5111111 19.6296296,12.0391111 19.6296296,10.3160889 C19.6296296,8.59271111 20.8288889,7.11111111 22.7766667,7.11111111 C24.7248148,7.11111111 25.9259259,8.58311111 25.9259259,10.3160889 C25.9259259,12.0497778 24.7244444,13.5111111 22.7766667,13.5111111 Z M15.0840741,0 C15.2092593,0 15.3296296,0.0462222222 15.4174074,0.128 C15.5062963,0.209777778 15.5559259,0.321066667 15.5555556,0.436622222 L15.5555556,15.5644444 C15.5555556,15.8044444 15.3444444,16 15.0840741,16 L13.0640741,16 C12.8037037,16 12.5925926,15.8044444 12.5925926,15.5644444 L12.5925926,0.436622222 C12.5925926,0.321066667 12.6418519,0.209777778 12.7303704,0.128 C12.8185185,0.0462222222 12.9388889,0 13.0637037,0 L15.0840741,0 Z M38.4814815,12.3715556 L39.9062963,13.7418667 C40.0285185,13.8592 40.0314815,14.0469333 39.9137037,14.1685333 C38.7374074,15.3393778 37.1062963,16.0010667 35.4007407,15.9996444 C31.98,16 29.2592593,13.4862222 29.2592593,10.3111111 C29.2592593,7.11253333 31.98,4.62222222 35.4007407,4.62222222 C37.072963,4.61688889 38.6766667,5.2544 39.8451852,6.38933333 C39.9081481,6.44977778 39.9414815,6.53297778 39.9377778,6.61795556 C39.9348148,6.70328889 39.8948148,6.78328889 39.8274074,6.83982222 L38.3133333,8.12231111 C38.1822222,8.22897778 37.9881481,8.22435556 37.8625926,8.11271111 C37.1977778,7.51466667 36.3162963,7.18115556 35.4003704,7.18186667 C33.4485185,7.18186667 32.1966667,8.62115556 32.1966667,10.3118222 C32.1966667,12.0024889 33.4485185,13.4421333 35.4003704,13.4421333 C36.39,13.4588444 37.3392593,13.0688 38.0040741,12.3733333 C38.0659259,12.3114667 38.1522222,12.2762667 38.2418519,12.2759111 C38.3318519,12.2759111 38.4181481,12.3100444 38.4807407,12.3719111 L38.4814815,12.3715556 Z" transform="translate(5 17)"/>
  </g>
</svg>
