<svg xmlns="http://www.w3.org/2000/svg" width="44" height="10" viewBox="0 0 44 10">
  <path fill="#2196F3" d="M2.80945946,3.11735294 C1.84354054,3.11735294 1.04054054,3.97852941 1.04054054,5.05411765 C1.04054054,6.13823529 1.85186486,7.00970588 2.80945946,7.00970588 C3.77627027,7.00970588 4.56916216,6.15823529 4.56916216,5.05411765 C4.56916216,3.96882353 3.77627027,3.11735294 2.80945946,3.11735294 Z M2.80945946,7.80029412 C1.32445946,7.80029412 0.175702703,6.60470588 0.175702703,5.05382353 L0.175702703,0.137941176 L1.00932432,0.137941176 L1.00932432,3.20852941 C1.43683784,2.67117647 2.09772973,2.32617647 2.81897297,2.32617647 C4.27394595,2.32617647 5.4337027,3.49235294 5.4337027,5.05382353 C5.434,6.62441176 4.25372973,7.80029412 2.80945946,7.80029412 Z M6.37910811,0.137941176 L7.23056757,0.137941176 L7.23056757,5.74352941 C7.23056757,6.66558824 7.80108108,6.89823529 8.45335135,6.86764706 L8.45335135,7.67794118 C7.22135135,7.81941176 6.37910811,7.10205882 6.37910811,5.77235294 L6.37910811,0.137941176 Z M12.4505135,2.45911765 L13.3156486,2.45911765 L13.3156486,5.62176471 C13.3156486,6.93911765 12.3601351,7.80029412 11.1284324,7.80029412 C9.89791892,7.80029412 8.943,6.93882353 8.943,5.62176471 L8.943,2.45911765 L9.79624324,2.45911765 L9.79624324,5.62176471 C9.79624324,6.40176471 10.3165135,6.96823529 11.1284324,6.96823529 C11.9329189,6.96823529 12.4505135,6.40176471 12.4505135,5.62176471 L12.4505135,2.45911765 Z M23.8117297,3.33029412 C23.4053243,3.31911765 22.7881351,3.37205882 22.514027,3.63470588 C22.2803514,3.87705882 22.1177297,4.22205882 22.1177297,5.15558824 C22.1177297,6.22852941 21.9337027,6.84764706 21.4648649,7.30970588 C21.0587568,7.70970588 20.4692162,7.90882353 19.8193243,7.86588235 L19.8193243,7.02205882 C20.275973,7.04323529 20.6523514,6.91705882 20.8759189,6.69705882 C21.1006757,6.47647059 21.2627027,6.09147059 21.2627027,5.15588235 C21.2627027,4.08588235 21.4452432,3.45558824 21.9143784,2.99441176 C22.3094865,2.60588235 23.1315135,2.41735294 23.8117297,2.45911765 L23.8117297,3.33029412 Z M26.710973,3.12735294 C25.7557568,3.12735294 24.9420541,3.98970588 24.9420541,5.07352941 C24.9420541,6.15823529 25.7447568,7.01970588 26.710973,7.01970588 C27.6786757,7.01970588 28.470973,6.16823529 28.470973,5.07352941 C28.470973,3.97823529 27.6786757,3.12735294 26.710973,3.12735294 Z M26.721973,7.81029412 C25.9998378,7.81029412 25.3386486,7.45558824 24.9114324,6.93 L24.9114324,10 L24.0772162,10 L24.0772162,5.07352941 C24.0772162,3.53235294 25.2265676,2.32617647 26.7106757,2.32617647 C28.1558378,2.32617647 29.3355135,3.50294118 29.3355135,5.07352941 C29.3358108,6.635 28.1751622,7.81029412 26.721973,7.81029412 Z M32.7273784,3.11735294 C31.7528378,3.11735294 30.9587568,3.97852941 30.9587568,5.07323529 C30.9587568,6.16823529 31.7528378,7.00970588 32.7273784,7.00970588 C33.6962703,7.00970588 34.4980811,6.14764706 34.4980811,5.07323529 C34.4980811,3.99 33.6840811,3.11735294 32.7273784,3.11735294 Z M35.354,7.67794118 L34.5191892,7.67794118 L34.5191892,6.86764706 C34.1127838,7.43588235 33.4498108,7.81029412 32.7077568,7.81029412 C31.2646757,7.81029412 30.0936216,6.63470588 30.0936216,5.07323529 C30.0936216,3.50323529 31.2735946,2.32647059 32.7270811,2.32647059 C34.212973,2.32647059 35.3537027,3.53205882 35.3537027,5.07323529 L35.3537027,7.67794118 L35.354,7.67794118 Z M38.9034324,2.35676471 L38.9034324,3.15764706 C37.8958919,3.06617647 37.2567027,3.55411765 37.2567027,4.55617647 L37.2567027,7.67794118 L36.401973,7.67794118 L36.401973,4.57705882 C36.401973,2.99558824 37.5314054,2.19558824 38.9034324,2.35676471 Z M43.813,6.84794118 L43.813,7.67794118 L42.9582703,7.67794118 L42.9582703,6.78705882 C42.9582703,5.82382353 42.4400811,5.46852941 41.5850541,5.46852941 L40.3536486,5.46852941 L40.3536486,7.67823529 L39.4998108,7.67823529 L39.4998108,0.137941176 L40.3536486,0.137941176 L40.3536486,4.66911765 L41.5850541,4.66911765 C42.429973,4.66911765 42.9582703,4.11 42.9582703,3.33088235 L42.9582703,2.45911765 L43.813,2.45911765 L43.813,3.26882353 C43.813,4.02 43.4764595,4.64852941 42.8875135,5.01352941 C43.4972703,5.34705882 43.813,5.95588235 43.813,6.84794118 Z M15.1526486,4.39352941 C15.6173243,3.29176471 16.7648919,2.98205882 17.534,3.30441176 C18.0768649,3.53323529 18.4734595,4.08529412 18.5510541,4.73382353 L15.0420541,4.73176471 C15.0687729,4.61601598 15.1057818,4.50283039 15.1526486,4.39352941 Z M18.6904865,7.03941176 L16.8927297,7.04058824 C16.8760811,7.04117647 16.8514054,7.03588235 16.8353514,7.03588235 L16.7975946,7.03588235 C16.5665946,7.03117647 16.3275676,6.97911765 16.0772432,6.87411765 C15.5099952,6.63714518 15.1045004,6.1298179 15.0022162,5.52911765 L19.3638649,5.52735294 C19.6121081,4.15647059 18.8997838,2.99941176 17.8491351,2.55764706 C16.5092162,1.99470588 14.9403784,2.67617647 14.3517297,4.06794118 C13.7538649,5.47794118 14.3758108,7.03764706 15.7618108,7.62088235 C16.1084595,7.76705882 16.4491622,7.845 16.7788649,7.85588235 L18.906027,7.85588235 L18.906027,7.03588235 L18.6777027,7.03588235 C18.6800811,7.03470588 18.6892973,7.04088235 18.6904865,7.03941176 Z"/>
</svg>
