<svg xmlns="http://www.w3.org/2000/svg" xmlns:xlink="http://www.w3.org/1999/xlink" width="26" height="29" viewBox="0 0 26 29">
  <defs>
    <polygon id="buffer-logo-a" points="0 8.919 0 .865 25.547 .865 25.547 8.919"/>
    <polygon id="buffer-logo-c" points="0 9.062 0 1.009 25.547 1.009 25.547 9.062 0 9.062"/>
    <polygon id="buffer-logo-e" points="0 12.463 0 .826 25.547 .826 25.547 12.463"/>
  </defs>
  <g fill="none" fill-rule="evenodd">
    <g transform="translate(0 19.333)">
      <mask id="buffer-logo-b" fill="#fff">
        <use xlink:href="#buffer-logo-a"/>
      </mask>
      <path fill="#192534" fill-rule="nonzero" d="M25.360088,2.39142592 L22.454328,0.957537037 C22.204728,0.834018519 21.797048,0.834018519 21.547448,0.957537037 L13.226408,5.06372222 C12.977848,5.18724075 12.569128,5.18724075 12.320568,5.06372222 L3.999528,0.957537037 C3.749928,0.834018519 3.342248,0.834018519 3.092648,0.957537037 L0.186888,2.39142592 C-0.062712,2.51494444 -0.062712,2.7157963 0.186888,2.83824075 L12.320568,8.8262037 C12.569128,8.94972222 12.977848,8.94972222 13.226408,8.8262037 L25.360088,2.83824075 C25.609688,2.7157963 25.609688,2.51494444 25.360088,2.39142592" mask="url(#buffer-logo-b)"/>
    </g>
    <g transform="translate(0 11.278)">
      <mask id="buffer-logo-d" fill="#fff">
        <use xlink:href="#buffer-logo-c"/>
      </mask>
      <path fill="#192534" fill-rule="nonzero" d="M25.360088,2.53502963 L22.454328,1.10114074 C22.204728,0.977622222 21.797048,0.977622222 21.547448,1.10114074 L13.226408,5.20732592 C12.977848,5.32977036 12.569128,5.32977036 12.320568,5.20732592 L3.999528,1.10114074 C3.749928,0.977622222 3.342248,0.977622222 3.092648,1.10114074 L0.186888,2.53502963 C-0.062712,2.65854814 -0.062712,2.8594 0.186888,2.98291852 L12.320568,8.96980741 C12.569128,9.09332592 12.977848,9.09332592 13.226408,8.96980741 L25.360088,2.98291852 C25.609688,2.8594 25.609688,2.65854814 25.360088,2.53502963" mask="url(#buffer-logo-d)"/>
    </g>
    <mask id="buffer-logo-f" fill="#fff">
      <use xlink:href="#buffer-logo-e"/>
    </mask>
    <path fill="#192534" fill-rule="nonzero" d="M0.186784,6.85133676 L12.320464,12.3786872 C12.569024,12.4917128 12.977744,12.4917128 13.226304,12.3786872 L25.359984,6.85133676 C25.609584,6.73731967 25.609584,6.55191795 25.359984,6.43889231 L13.226304,0.91154188 C12.977744,0.797524787 12.569024,0.797524787 12.320464,0.91154188 L0.186784,6.43889231 C-0.062816,6.55191795 -0.062816,6.73731967 0.186784,6.85133676" mask="url(#buffer-logo-f)"/>
  </g>
</svg>
