<svg xmlns="http://www.w3.org/2000/svg" width="50" height="50" viewBox="0 0 50 50">
  <g fill="none" fill-rule="evenodd">
    <circle cx="25" cy="25" r="25" fill="#FFF"/>
    <path fill="#772953" fill-rule="nonzero" d="M25,41 C16.1635088,41 9,33.8387178 9,24.999599 C9,16.1620843 16.1635088,9 25,9 C33.8372932,9 41,16.1628863 41,24.999599 C41,33.8387178 33.8380952,41 25,41 Z"/>
    <path fill="#772953" fill-rule="nonzero" d="M50,25.000399 C50,38.8072326 38.8066133,50 25,50 C11.1925888,50 0,38.8064346 0,25.000399 C0,11.1927674 11.1917909,0 25,0 C38.8042195,0 49.9992021,11.1927674 49.9992021,25.000399 L50,25.000399 Z M25.0007979,6.081135 C14.5518815,6.081135 6.08263381,14.5521138 6.08263381,25.000399 C6.08263381,35.4502801 14.5518815,43.918865 25.0007979,43.918865 C35.4497143,43.918865 43.9189621,35.4502801 43.9189621,25.000399 C43.9189621,14.5513158 35.4449267,6.081135 25,6.081135 L25.0007979,6.081135 Z"/>
  </g>
</svg>
