<svg xmlns="http://www.w3.org/2000/svg" width="46" height="18" viewBox="0 0 46 18">
  <g fill="#162945" fill-rule="evenodd">
    <path fill-opacity=".1" d="M37.0243902,18 C41.9814826,18 46,13.9705628 46,9 C46,4.02943725 41.9814826,0 37.0243902,0 C32.0672979,0 28.0487805,4.02943725 28.0487805,9 C28.0487805,13.9705628 32.0672979,18 37.0243902,18 Z"/>
    <path d="M3.2284865,12.0842635 C4.4860815,12.0842635 5.21287342,11.5176948 5.75184269,10.748176 L4.55957731,9.86872601 C4.21659686,10.2999948 3.8654502,10.5875072 3.2693175,10.5875072 C2.46902977,10.5875072 1.90556188,9.89409476 1.90556188,9.00618851 L1.90556188,8.98927599 C1.90556188,8.12673849 2.46902977,7.41641349 3.2693175,7.41641349 C3.81645299,7.41641349 4.19209825,7.69546974 4.51874631,8.10982603 L5.71101169,7.15426976 C5.20470722,6.43548853 4.4534167,5.92811353 3.2856499,5.92811353 C1.55441522,5.92811353 0.280487805,7.28111351 0.280487805,9.00618851 L0.280487805,9.02310103 C0.280487805,10.7904572 1.59524622,12.0842635 3.2284865,12.0842635 Z M8.46919598,11.965876 L10.1269348,11.965876 L10.5352449,10.9003885 L12.7482855,10.9003885 L13.1565955,11.965876 L14.8551654,11.965876 L12.4216374,6.00421978 L10.8945578,6.00421978 L8.46919598,11.965876 Z M11.0007184,9.62349474 L11.6458483,7.94915724 L12.282812,9.62349474 L11.0007184,9.62349474 Z M17.9399978,11.965876 L19.5242408,11.965876 L19.5242408,10.173151 L20.2265341,10.173151 L21.3779685,11.965876 L23.1990314,11.965876 L21.8352758,9.90255099 C22.5457353,9.58966976 23.0112088,8.98927599 23.0112088,8.07600099 L23.0112088,8.05908853 C23.0112088,7.47560728 22.8397186,7.02742601 22.5049043,6.68071974 C22.1210928,6.28327603 21.516794,6.04650099 20.6430104,6.04650099 L17.9399978,6.04650099 L17.9399978,11.965876 Z M19.5242408,8.88780099 L19.5242408,7.45869476 L20.5695146,7.45869476 C21.0921515,7.45869476 21.4269657,7.69546974 21.4269657,8.16901976 L21.4269657,8.18593228 C21.4269657,8.61720103 21.1084839,8.88780099 20.5776808,8.88780099 L19.5242408,8.88780099 Z M27.7374476,11.965876 L29.3216906,11.965876 L29.3216906,7.48406351 L31.0365929,7.48406351 L31.0365929,6.04650099 L26.0307115,6.04650099 L26.0307115,7.48406351 L27.7374476,7.48406351 L27.7374476,11.965876 Z M37.0243902,12.09375 C38.7283907,12.09375 40.1097561,10.7086309 40.1097561,9 C40.1097561,7.29136907 38.7283907,5.90625 37.0243902,5.90625 C35.3203897,5.90625 33.9390244,7.29136907 33.9390244,9 C33.9390244,10.7086309 35.3203897,12.09375 37.0243902,12.09375 Z"/>
  </g>
</svg>
