<svg xmlns="http://www.w3.org/2000/svg" width="50" height="50" viewBox="0 0 50 50">
  <g fill="none" fill-rule="evenodd">
    <circle cx="25" cy="25" r="25" fill="#3EBEBA"/>
    <path fill="#FFF" d="M14.6649231,7.24909091 C14.6649231,7.38 14.5832308,7.41454545 14.5832308,7.65954545 C14.5832308,8.02681818 14.8204615,8.41590909 15.5838462,8.41590909 C16.0776923,8.41590909 16.4653846,8.18954545 16.4653846,7.78272727 C16.4653846,7.23318182 15.8958462,7.04636364 15.3309231,6.73454545 C14.7733846,6.42681818 14.2204615,5.99818182 14.2204615,4.98090909 C14.2204615,3.79863636 15.3096923,3.08681818 16.8212308,3.08636364 C17.4401538,3.08636364 17.8689231,3.18863636 18.3387692,3.48181818 C18.6609231,2.79545455 19.4612308,2.30636364 20.3663077,2.30636364 C21.7675385,2.30636364 22.3809231,3.17954545 22.3809231,3.90318182 C22.3809231,4.92590909 21.2543077,6.65318182 21.2543077,7.58727273 C21.2543077,7.79954545 21.426,7.91590909 21.6004615,7.91636364 C22.6310769,7.91636364 23.742,5.28590909 23.8006154,3.41954545 C23.8028876,3.27831206 23.9014097,3.15627899 24.0406154,3.12227273 C24.1343077,3.09863636 24.2529231,3.08590909 24.3913846,3.08590909 C24.9673846,3.08590909 25.5807692,3.39636364 25.5743077,4.21045455 C25.5627692,5.67 24.5187692,6.97318182 24.5187692,7.68227273 C24.5187692,7.86636364 24.6844615,8.06409091 25.0052308,8.06409091 C26.0843077,8.06409091 26.9183077,5.58590909 26.9183077,3.63454545 C26.9183077,3.43227273 27.132,3.27272727 27.6290769,3.27272727 C28.2844615,3.27272727 28.7386154,3.64545455 28.6989231,4.63 C28.7524615,4.55136364 29.6081538,3.08636364 30.918,3.08636364 C31.7741538,3.08636364 32.1350769,3.61409091 32.1350769,4.28909091 C32.1350769,4.28909091 32.6907692,3.08636364 34.1672308,3.08636364 C35.0229231,3.08636364 35.4909231,3.59318182 35.4913846,4.42045455 C35.4913846,5.72045455 34.2876923,7.135 34.2876923,7.77818182 C34.2876923,7.98909091 34.4353846,8.06772727 34.6089231,8.06772727 C35.0524615,8.06772727 35.6981538,7.67 35.9289231,7.05545455 C36.1056923,6.58363636 36.6424615,5.22590909 37.7363077,5.22590909 C38.1110769,5.22590909 38.1983077,5.37909091 38.1983077,5.52863636 C38.1983077,5.84590909 37.854,5.93909091 37.854,7.07090909 C37.854,7.92318182 38.1226154,8.29227273 38.55,8.29227273 C39.1481538,8.29227273 40.056,7.06090909 40.056,5.53 C40.056,4.87409091 39.6752308,4.255 38.7175385,4.255 C38.004,4.255 37.8244615,4.46954545 37.536,4.46954545 C37.4409231,4.46954545 37.2452308,4.40590909 37.2452308,4.18454545 C37.2452308,3.74454545 38.3616923,3.08636364 39.6323077,3.08636364 C41.4904615,3.08636364 42,4.69363636 42,5.615 C42,7.96045455 39.9886154,9.82409091 38.2509231,9.82409091 C37.1381538,9.82409091 36.5598462,9.30590909 36.2616923,8.72863636 L36.2607692,8.73 C35.7438462,9.27772727 34.8129231,9.82409091 33.7610769,9.82409091 C32.7987692,9.82409091 32.2504615,9.39409091 32.2504615,8.54 C32.2504615,7.44909091 33.4061538,5.70772727 33.4061538,5.18227273 C33.4061538,5.05090909 33.3789231,4.98545455 33.2584615,4.98545455 C32.2532308,4.98545455 30.9553846,7.605 30.7601538,9.31727273 C30.7509231,9.39727273 30.6738462,9.82409091 30.1426154,9.82409091 C29.5407692,9.82409091 28.9541538,9.45954545 28.9541538,8.65818182 C28.9541538,7.55454545 30.1564615,5.69454545 30.156,5.18181818 C30.156,5.06363636 30.1158462,4.98545455 29.9824615,4.98545455 C29.3949231,4.98545455 28.7464615,5.90636364 28.2729231,7.01318182 C27.948,7.77227273 27.7075385,8.61863636 27.6207692,9.31545455 C27.6036923,9.455 27.4933846,9.82454545 27.0009231,9.82454545 C26.3981538,9.82454545 26.0455385,9.50318182 25.8687692,9.1 C25.4298462,9.47181818 24.8856923,9.82409091 24.2903077,9.82409091 C23.1932308,9.82409091 22.7995385,9.31181818 22.7589231,8.76 C22.7589231,8.76 22.1603077,9.82409091 20.7161538,9.82409091 C20.0095385,9.82409091 19.3278462,9.25272727 19.3278462,8.04454545 C19.3278462,6.68727273 20.1212308,5.67863636 20.4166154,4.445 C20.5052308,4.03045455 20.1609231,3.79363636 19.7741538,3.79363636 C19.2793846,3.79363636 19.0352308,4.13136364 19.0352308,4.67954545 C19.0352308,5.26772727 18.7001538,5.735 17.9072308,5.735 C17.8301661,5.73548663 17.7561079,5.705583 17.7015705,5.65195729 C17.6470331,5.59833157 17.6165516,5.52544319 17.6169231,5.44954545 C17.6169231,5.37363636 17.6423077,5.295 17.6423077,5.09954545 C17.6423077,4.61318182 17.2421538,4.33681818 16.7464615,4.33681818 C16.2918462,4.33681818 16.0781538,4.56090909 16.0781538,4.90272727 C16.0781538,5.48590909 16.6883077,5.68681818 17.286,5.97909091 C17.8596923,6.25954545 18.4213846,6.62363636 18.4213846,7.48954545 C18.4213846,8.98727273 17.0861538,9.82409091 15.4287692,9.82409091 C14.5841538,9.82409091 13.968,9.64136364 13.6153846,9.23954545 C13.2044885,9.62076399 12.6595498,9.8302883 12.0950769,9.82409091 C10.878,9.82409091 10.8346154,8.78772727 10.8346154,8.78772727 C10.8346154,8.78772727 10.2623077,9.82409091 8.53707692,9.82409091 C7.12430769,9.82409091 6.82292308,8.72727273 6.82292308,8.72727273 C6.11676923,9.34363636 5.05707692,9.82409091 3.60369231,9.82409091 C1.22769231,9.82409091 0,8.39136364 0,6.19090909 C0,3.84227273 2.06307692,0 5.29523077,0 C7.02969231,0 7.91861538,1.00454545 7.91861538,2.12681818 C7.91861538,3.15909091 7.09523077,4.28727273 5.72030769,4.28727273 C4.99246154,4.28727273 4.79261538,4.04136364 4.79261538,3.86909091 C4.79261538,3.54454545 5.62384615,3.34409091 5.62384615,2.43045455 C5.62384615,1.95545455 5.31830769,1.61681818 4.89184615,1.61681818 C3.70292308,1.61681818 2.11615385,3.97363636 2.11615385,5.87590909 C2.11615385,7.41681818 2.83061538,8.23954545 4.21430769,8.23954545 C5.04738462,8.23954545 6.22292308,7.635 6.52292308,6.76727273 C6.97984615,5.44363636 8.06307692,3.08545455 11.0455385,3.08545455 C12.54,3.08545455 13.0624615,3.91590909 13.0624615,4.29363636 C13.0624615,4.39818182 12.9807692,4.57863636 12.7716923,4.57863636 C12.5644615,4.57863636 12.2672308,4.32818182 11.3870769,4.32818182 C9.35907692,4.32818182 8.47476923,5.94863636 8.47476923,7.12136364 C8.47476923,7.80772727 8.73046154,8.13909091 9.15369231,8.13909091 C10.014,8.13909091 10.1427692,7.38727273 10.4856923,6.29590909 C10.6753846,5.69181818 11.118,5.22636364 11.8209231,5.22636364 C12.5178462,5.22636364 12.5132308,5.52863636 12.5123077,5.57681818 C12.5113846,5.65772727 12.4767692,5.76363636 12.3936923,5.92863636 C12.1476923,6.41772727 12.0346154,7.095 12.0346154,7.39636364 C12.0346154,7.68636364 12.1504615,8.13090909 12.6729231,8.13090909 C13.3836923,8.13090909 13.3943077,6.96363636 14.3741538,6.96363636 C14.5758462,6.96363636 14.6649231,7.12772727 14.6649231,7.24909091" transform="translate(4 20)"/>
  </g>
</svg>
