<svg xmlns="http://www.w3.org/2000/svg" width="20" height="40" viewBox="0 0 20 40">
  <g fill="none">
    <path fill="#47C486" d="M18.3656293,19.6210544 C18.7993122,19.6210545 19.215214,19.4499006 19.5217545,19.1452802 C19.8282951,18.8406598 20.0003378,18.427552 19.9999995,17.9969217 L19.9999995,0.953022317 C19.9999995,0.266911692 19.168791,-0.222986485 18.5619577,0.1036123 L1.43676692,9.32559736 C0.552166204,9.80360337 0.00111051396,10.7231717 0,11.7231869 L0,19.6716899 C0,20.3945112 0.786588456,19.7501748 1.41764402,19.390663 L9.89546125,13.9714018 C10.1880597,13.8048612 10.5478244,13.805605 10.839722,13.9733539 C11.1316195,14.1411029 11.3114935,14.450481 11.3118304,14.785367 L11.3118304,17.9994535 C11.3132328,18.8954481 12.0451297,19.6210544 12.9474755,19.6210544 L18.3656293,19.6210544 Z"/>
    <path fill="#2196F3" d="M1.63416189,21 C0.731421287,21.0007354 0,21.7044696 0,22.5724329 L0,39.0762381 C0,39.7405083 0.831102613,40.2160375 1.43785851,39.8998351 L18.5621415,30.9714064 C19.446321,30.5093611 19.9977035,29.620153 20,28.6525887 L20,22.9744267 C19.987253,20.973037 19.1077119,21.2585997 18.4703633,21.607893 L10.1032505,26.4722627 C9.81079329,26.6343167 9.45062129,26.6339993 9.15847354,26.4714302 C8.86632579,26.3088612 8.68661215,26.0087528 8.68706182,25.6842079 L8.68706182,22.5724329 C8.68706182,22.1553978 8.51475739,21.7554433 8.20805354,21.4605549 C7.90134968,21.1656666 7.48536999,21 7.05162524,21 L1.63416189,21 Z"/>
  </g>
</svg>
