<svg xmlns="http://www.w3.org/2000/svg" width="22" height="30" viewBox="0 0 22 30">
  <path fill="#F8C525" fill-rule="evenodd" d="M46.4916426,45.6979615 C46.4916426,45.6979615 48.4318744,49.037282 48.8390936,49.8031115 C49.3759348,50.8170039 48.6419569,51.2512755 48.6419569,51.2512755 C48.6419569,51.2512755 47.6647946,51.7352888 47.1762953,50.8659382 C46.7613741,50.126756 45.4084557,47.7750037 44.9274946,47.0498719 C44.3082263,46.1160832 44.0473438,45.7940536 43.2163543,45.7940536 C42.0908888,45.7940536 42.8089712,45.7940536 41.2441677,45.7940536 L41.1125793,45.7940536 C39.5382713,45.7940536 40.2593034,45.7940536 39.1261359,45.7940536 C38.2887555,45.7940536 38.0245955,46.1160832 37.4007389,47.0498719 C36.9163364,47.7750037 35.5532581,50.126756 35.1345678,50.8659382 C34.6409886,51.7352888 33.6557966,51.2512755 33.6557966,51.2512755 C33.6557966,51.2512755 32.9177219,50.8170039 33.4598069,49.8031115 C33.8688288,49.037282 35.8247922,45.6979615 35.8247922,45.6979615 C35.8247922,45.6979615 36.3165688,44.9576489 36.3165688,44.3462127 L36.3165688,42.6381964 C36.3165688,42.4424593 36.3165688,42.3161668 36.3165688,42.3161668 L36.3165688,40.614126 C36.3165688,40.0034973 35.8247922,39.2652841 35.8247922,39.2652841 C35.8247922,39.2652841 33.8688288,35.9337157 33.4598069,35.1704701 C32.9177219,34.1581927 33.6557966,33.7247286 33.6557966,33.7247286 C33.6557966,33.7247286 34.6409886,33.2426533 35.1345678,34.1103889 C35.5532581,34.8471486 36.9163364,37.1932485 37.4007389,37.9162807 C38.0245955,38.848616 38.2887555,39.1679 39.1261359,39.1679 C40.2593034,39.1679 39.5382713,39.1679 41.1125793,39.1679 L41.2441677,39.1679 C42.8089712,39.1679 42.0908888,39.1679 43.2163543,39.1679 C44.0473438,39.1679 44.3082263,38.848616 44.9274946,37.9162807 C45.4084557,37.1932485 46.7613741,34.8471486 47.1762953,34.1103889 C47.6647946,33.2426533 48.6419569,33.7247286 48.6419569,33.7247286 C48.6419569,33.7247286 49.3759348,34.1581927 48.8390936,35.1704701 C48.4318744,35.9337157 46.4916426,39.2652841 46.4916426,39.2652841 C46.4916426,39.2652841 46.0028156,40.0034973 46.0028156,40.614126 L46.0028156,42.3161668 C46.0028156,42.5128729 46.0028156,42.6381964 46.0028156,42.6381964 L46.0028156,44.3462127 C46.0028156,44.9576489 46.4916426,45.6979615 46.4916426,45.6979615 Z M39.1420314,28.0554582 L44.9425707,28.0554582 C45.4384441,28.0554582 45.8405834,28.45097 45.8405834,28.9398283 C45.8405834,29.4277175 45.4384441,29.8217758 44.9425707,29.8217758 L39.1420314,29.8217758 C38.6476328,29.8217758 38.2456574,29.4277175 38.2456574,28.9398283 C38.2456574,28.45097 38.6476328,28.0554582 39.1420314,28.0554582 Z M51.6407949,29.9189983 C51.4947859,29.6294301 50.5492507,27.783009 50.5492507,27.783009 C50.5492507,27.783009 50.909439,27.5733829 51.0721628,27.4934408 C51.234395,27.4138216 51.3571343,27.3120771 51.1350892,26.899608 C50.8981319,26.4546775 50.6629771,26.5838769 50.6629771,26.5838769 C50.6629771,26.5838769 50.3462146,26.7565196 49.9952031,26.9322308 C49.408709,26.0793532 48.5929595,25.997473 48.3484641,26.000057 C48.1872151,26.0008645 47.3878527,26.000057 47.143685,26.000057 C46.8983702,26.000057 46.6709174,26.0315494 46.5722671,26.1607488 C46.475911,26.2896252 46.2481304,26.4015442 45.9697137,26.4015442 C45.6922802,26.4015442 37.7083246,26.4015442 37.7083246,26.4015442 C37.6272085,26.4088117 37.6104937,26.3529329 37.5603492,26.3214406 C37.0067932,26.01653 36.3962101,26.3138501 36.2646218,26.458069 C36.1356553,26.6026108 35.6135626,27.228905 35.3051575,27.5733829 C34.9946221,27.9191529 34.7253821,27.9839141 34.5144802,28.0481908 C34.6441021,27.878778 34.5464351,27.7182478 34.5464351,27.7182478 L34.4243512,27.4780984 L34.5955963,27.0205709 L34.7501266,26.9394983 L34.6601615,26.7300337 C34.6601615,26.7300337 34.5624944,26.7713776 34.3824003,26.8590717 C34.2050919,26.9474118 34.2050919,27.0284844 34.2050919,27.0284844 C34.1228287,27.3169221 33.9112713,27.332749 33.9112713,27.332749 C33.9112713,27.332749 33.4380121,26.4501555 33.3731192,26.3372675 C33.3070792,26.224218 33.1779489,25.8716651 31.5977416,26.7067778 C30.0158955,27.5422136 30.3905044,27.8632741 30.3905044,27.8632741 L30.9286566,28.8894405 L30.765605,29.0188014 L31.1580759,29.7901219 C31.1580759,29.7901219 31.0592617,29.8376027 30.7159521,30.0632172 C30.3754283,30.2881857 30,30.5125081 30,31.1229754 L30,53.5429501 C30,55.229164 30.4898102,56 32.3956291,56 L49.7995412,56 C50.9238596,56 52,55.4208636 52,53.4948233 L52,31.3314709 C52,30.224232 51.7871317,30.207436 51.6407949,29.9189983 Z M43.6548729,40.7107026 L38.7680779,40.7107026 C38.3356226,40.7107026 37.9847749,41.0555035 37.9847749,41.4813771 L37.9847749,43.5692397 C37.9847749,43.9954362 38.3356226,44.3412062 38.7680779,44.3412062 L43.6548729,44.3412062 C44.0878199,44.3412062 44.4378482,43.9954362 44.4378482,43.5692397 L44.4378482,41.4813771 C44.4378482,41.0555035 44.0878199,40.7107026 43.6548729,40.7107026 Z" transform="translate(-30 -26)"/>
</svg>
