<svg xmlns="http://www.w3.org/2000/svg" width="34" height="34" viewBox="0 0 34 34">
  <g fill="none">
    <path fill="#3F5464" d="M17,24.65 C12.75,24.65 9.35,21.25 9.35,17 C9.35,12.75 12.75,9.35 17,9.35 C20.4772727,9.35 23.4136364,11.6681818 24.3409091,14.9136364 L27.2772727,14.9136364 C26.35,10.0454545 22.1,6.49090909 17,6.49090909 C11.2045455,6.49090909 6.49090909,11.2045455 6.49090909,17 C6.49090909,22.7954545 11.2045455,27.5090909 17,27.5090909 C22.1,27.5090909 26.35,23.8772727 27.3545455,19.0863636 L24.4181818,19.0863636 C23.4136364,22.3318182 20.4772727,24.65 17,24.65"/>
    <path fill="#3F5464" d="M11.8227273,22.1772727 C13.1363636,23.4909091 14.9909091,24.3409091 17,24.3409091 L17,21.25 C15.8409091,21.25 14.7590909,20.7863636 13.9863636,20.0136364 L11.8227273,22.1772727 Z"/>
    <path fill="#F09820" d="M9.65909091,17 C9.65909091,18.0818182 9.89090909,19.0090909 10.2772727,19.9363636 L13.0590909,18.7 C12.8272727,18.1590909 12.6727273,17.6181818 12.6727273,17 C12.6727273,14.6818182 14.6045455,12.75 16.9227273,12.75 L16.9227273,9.65909091 C12.9818182,9.65909091 9.65909091,12.9818182 9.65909091,17"/>
    <path fill="#3F5464" d="M19.6272727,10.2 L18.5454545,13.0590909 C19.4727273,13.4454545 20.1681818,14.0636364 20.7090909,14.9136364 L23.9545455,14.9136364 C23.3363636,12.75 21.7136364,10.9727273 19.6272727,10.2"/>
    <path fill="#F09820" d="M18.5454545,20.9409091 L19.6272727,23.8 C21.7136364,23.0272727 23.3363636,21.25 23.9545455,19.0863636 L20.6318182,19.0863636 C20.1681818,19.9363636 19.4727273,20.6318182 18.5454545,20.9409091"/>
    <path fill="#F09820" d="M17 31.1409091C13.1363636 31.1409091 9.58181818 29.5181818 7.03181818 26.9681818L5.02272727 28.9772727C8.11363636 32.0681818 12.3636364 33.9227273 17.0772727 33.9227273 25.7318182 33.9227273 32.9181818 27.4318182 33.9227273 19.0863636L30.9863636 19.0863636C29.9045455 25.8863636 24.0318182 31.1409091 17 31.1409091M17 2.85909091C20.1681818 2.85909091 23.1045455 3.94090909 25.4227273 5.64090909L27.1227273 3.32272727C24.3409091 1.23636364 20.7863636 0 17 0 9.81363636 0 3.63181818 4.48181818 1.15909091 10.8181818L3.86363636 11.9C5.87272727 6.64545455 11.05 2.85909091 17 2.85909091"/>
    <path fill="#3F5464" d="M30.9863636,14.9136364 L33.9227273,14.9136364 C33.6136364,12.4409091 32.7636364,10.0454545 31.45,8.03636364 L28.9772727,9.58181818 C29.9818182,11.1272727 30.6772727,12.9045455 30.9863636,14.9136364"/>
    <path fill="#F09820" d="M27.6636364,14.9136364 L30.6,14.9136364 C29.8272727,10.0454545 26.5045455,5.95 22.0227273,4.25 L20.9409091,6.95454545 C24.3409091,8.19090909 26.9681818,11.2045455 27.6636364,14.9136364"/>
    <path fill="#3F5464" d="M17,6.10454545 L17,3.24545455 C11.2045455,3.24545455 6.18181818,6.87727273 4.17272727,12.0545455 L6.87727273,13.0590909 C8.42272727,8.96363636 12.3636364,6.10454545 17,6.10454545"/>
    <path fill="#F09820" d="M6.10454545,17 L3.24545455,17 C3.24545455,22.7954545 6.8,27.7409091 11.9,29.75 L12.9818182,27.0454545 C8.96363636,25.5 6.10454545,21.5590909 6.10454545,17"/>
    <path fill="#3F5464" d="M17 27.8954545L17 30.7545455C23.8772727 30.7545455 29.5954545 25.7318182 30.6 19.0863636L27.6636364 19.0863636C26.6590909 24.1090909 22.2545455 27.8954545 17 27.8954545M1.46818182 23.8772727C.463636364 21.6363636 0 19.3181818 0 17L2.85909091 17C2.85909091 18.9318182 3.24545455 20.8636364 4.01818182 22.7181818L1.46818182 23.8772727z"/>
  </g>
</svg>
