<svg xmlns="http://www.w3.org/2000/svg" width="50" height="50" viewBox="0 0 50 50">
  <g fill="none" fill-rule="evenodd">
    <circle cx="25" cy="25" r="25" fill="#000"/>
    <circle cx="25" cy="25" r="4" fill="#FBFBFB" fill-rule="nonzero"/>
    <path fill="#FBFBFB" fill-rule="nonzero" d="M24.7728743,10 C17.6781092,10 11.7165459,14.7807241 10.0252362,21.25 C10.0106768,21.3068906 10,21.3666497 10,21.428321 C10,21.8227307 10.3246732,22.1425612 10.725055,22.1425612 L16.8647276,22.1425612 C17.1573703,22.1425612 17.4073056,21.9714113 17.521839,21.725204 C17.521839,21.725204 17.5310599,21.7084714 17.5339718,21.7003442 C18.7996635,19.0097527 21.5639964,17.1428799 24.7719037,17.1428799 C29.1770739,17.1428799 32.7484794,20.6600586 32.7484794,25 C32.7484794,29.3399414 29.1780445,32.8571201 24.7728743,32.8571201 C21.564967,32.8571201 18.8011195,30.9902473 17.5349424,28.3001339 C17.5315452,28.2915286 17.5223243,28.274796 17.5223243,28.274796 C17.405197,28.0208831 17.1483342,27.8577395 16.8652129,27.8574388 L10.7255403,27.8574388 C10.3246732,27.8574388 10,28.1772693 10,28.571679 C10,28.6333503 10.0101915,28.6931094 10.0252362,28.75 C11.7165459,35.2192759 17.6781092,40 24.7728743,40 C33.1828329,40 40,33.2840388 40,25 C40,16.7159612 33.1828329,10 24.7728743,10 Z"/>
  </g>
</svg>
