<svg xmlns="http://www.w3.org/2000/svg" xmlns:xlink="http://www.w3.org/1999/xlink" width="30" height="30" viewBox="0 0 30 30">
  <defs>
    <polygon id="closeio-a" points=".108 .182 14.43 .182 14.43 29.989 .108 29.989"/>
  </defs>
  <g fill="none" fill-rule="evenodd">
    <path fill="#2F577E" d="M29.8173913 15.7125466L29.8173913 14.4698758C29.8173913 13.409441 29.3735404 12.4006211 28.5750932 11.4873913 28.1418634 10.9921118 27.6037267 10.5247826 26.9761491 10.0926708 26.6213665 9.84913043 26.2382609 9.61658385 25.828882 9.39596273 25.5286957 9.23459627 25.2143478 9.07956522 24.8860248 8.93180124 24.031118 8.54627329 23.0865839 8.20937888 22.0693789 7.93024845 22.1884472 8.36236025 22.2961491 8.80751553 22.3932298 9.26440994 22.4882609 9.71217391 22.5726708 10.1707453 22.6459006 10.6391925 23.193913 10.8184472 23.7186335 11.0176398 24.2168944 11.2354658 24.4485093 11.337205 24.6752795 11.4424845 24.8951553 11.5524224 25.0127329 11.611118 25.1271429 11.6707453 25.2396894 11.7313043 25.6309938 11.941677 25.9915528 12.1624845 26.3187578 12.3913043 27.5068323 13.2199379 28.262236 14.1531056 28.4962733 15.091118 28.262236 16.0291304 27.5068323 16.9619255 26.3187578 17.7909317 26.4462112 18.1274534 26.5595031 18.4591304 26.6573292 18.7857764 26.791118 19.2309317 26.8973292 19.6663975 26.9761491 20.0895652 27.6037267 19.6574534 28.1418634 19.1901242 28.5750932 18.6948447 29.3735404 17.7814286 29.8173913 16.772795 29.8173913 15.7125466M11.6379503 22.9854037C11.1279503 22.5786335 10.6214907 22.1452174 10.1224845 21.686646 10.2245963 22.0768323 10.3358385 22.4580745 10.4567702 22.8285093 10.8439752 22.888882 11.2380745 22.9406832 11.6379503 22.9854037M14.3161491 21.9178882C14.5132919 22.0602484 14.7108075 22.198882 14.908882 22.3334161 15.2858385 22.588882 15.6640994 22.829441 16.0427329 23.0545342 16.0908075 23.0830435 16.1392547 23.1106211 16.1871429 23.1385714 16.8650311 23.1098758 17.5300621 23.0584472 18.1798137 22.9854037 18.5796894 22.9406832 18.9737888 22.888882 19.3602484 22.8285093 19.8290683 22.7550932 20.2878261 22.6704969 20.7355901 22.5754658 21.1924845 22.4785714 21.6372671 22.3703106 22.0693789 22.2519876 23.0865839 21.9726708 24.031118 21.6357764 24.8860248 21.2504348 24.8163354 20.8568944 24.7173913 20.4462112 24.5893789 20.0202484 24.5526708 19.8980124 24.5140994 19.7752174 24.4725466 19.650559 24.3946584 19.4172671 24.3091304 19.1824845 24.2168944 18.9465839 23.7186335 19.1645963 23.193913 19.3639752 22.6459006 19.5428571 22.2756522 19.6637888 21.8945963 19.7752174 21.5042236 19.8773292 21.45 19.891677 21.3957764 19.9063975 21.3415528 19.92 20.9142857 20.0284472 20.4773292 20.1262733 20.0295652 20.2119876 19.7944099 20.2572671 19.556646 20.2986335 19.3168323 20.3375776 18.6249689 20.4491925 17.914472 20.5349068 17.1873913 20.5921118 16.4418634 20.6517391 15.6803106 20.6821118 14.908882 20.6821118 14.1370807 20.6821118 13.3759006 20.6517391 12.6303727 20.5921118 13.1843478 21.0654037 13.7481988 21.5079503 14.3161491 21.9178882M5.22801242 10.1618012C5.2647205 10.2842236 5.3036646 10.407205 5.34521739 10.531677 5.42273292 10.7647826 5.50863354 10.9997516 5.60068323 11.2354658 6.09913043 11.0176398 6.62347826 10.8184472 7.17111801 10.6391925 7.54173913 10.5184472 7.92279503 10.407205 8.31354037 10.3049068 8.3673913 10.2903727 8.42161491 10.2760248 8.47583851 10.262236 8.90291925 10.1537888 9.34043478 10.0559627 9.78782609 9.97024845 10.0229814 9.92515528 10.2607453 9.88341615 10.500559 9.84503106 11.1924224 9.73285714 11.9032919 9.64751553 12.6303727 9.58993789 13.3759006 9.53068323 14.1370807 9.50031056 14.908882 9.50031056 15.6803106 9.50031056 16.4418634 9.53068323 17.1873913 9.58993789 16.6330435 9.11701863 16.0695652 8.67447205 15.5016149 8.26416149 15.304472 8.12217391 15.1067702 7.9831677 14.908882 7.84900621 14.5315528 7.5931677 14.1532919 7.35298137 13.7746584 7.1278882 13.7263975 7.09900621 13.6785093 7.07161491 13.6306211 7.0436646 12.9521739 7.07217391 12.2869565 7.12397516 11.6379503 7.19664596 11.2380745 7.24136646 10.8439752 7.29335404 10.4567702 7.35372671 9.98832298 7.42732919 9.52993789 7.51173913 9.08217391 7.60658385 8.6252795 7.7036646 8.17975155 7.81192547 7.74763975 7.93024845 6.73118012 8.20937888 5.78664596 8.54627329 4.93136646 8.93180124 5.0010559 9.32534161 5.09962733 9.73583851 5.22801242 10.1618012M18.1798137 7.19664596C18.689441 7.60360248 19.1959006 8.03720497 19.6952795 8.4957764 19.592795 8.10521739 19.4815528 7.72416149 19.3602484 7.35372671 18.9737888 7.29335404 18.5796894 7.24136646 18.1798137 7.19664596M1.32149068 15.091118C1.55552795 14.1531056 2.31074534 13.2199379 3.49863354 12.3913043 3.37080745 12.0547826 3.25826087 11.7231056 3.16043478 11.3962733 3.02590062 10.951118 2.92006211 10.5156522 2.84161491 10.0926708 2.2136646 10.5247826 1.67552795 10.9921118 1.24229814 11.4873913.444037267 12.4006211 0 13.409441 0 14.4698758L0 15.7125466C0 16.772795.444037267 17.7814286 1.24229814 18.6948447 1.67552795 19.1901242 2.2136646 19.6574534 2.84161491 20.0895652 3.19602484 20.3331056 3.57931677 20.5656522 3.98888199 20.7859006 4.28869565 20.9478261 4.60341615 21.1024845 4.93136646 21.2504348 5.78664596 21.6357764 6.73118012 21.9726708 7.74763975 22.2519876 7.62931677 21.8198758 7.52124224 21.3745342 7.42416149 20.9178261 7.32950311 20.4702484 7.2447205 20.011677 7.17111801 19.5428571 6.62347826 19.3639752 6.09913043 19.1645963 5.60068323 18.9465839 5.36925466 18.8450311 5.14229814 18.7399379 4.92223602 18.6298137 4.80465839 18.5709317 4.69062112 18.5114907 4.57807453 18.451118 4.18639752 18.2403727 3.82602484 18.0195652 3.49863354 17.7909317 2.31074534 16.9619255 1.55552795 16.0291304 1.32149068 15.091118"/>
    <path fill="#F4B563" d="M18.1798137 22.9854037C17.5300621 23.0584472 16.8650311 23.1098758 16.1871429 23.1385714 16.5359627 23.342236 16.8840373 23.5337888 17.2321118 23.7100621 17.5486957 23.4788199 17.8652795 23.2369565 18.1798137 22.9854037M25.8901863 4.98819876L25.0116149 4.10962733C24.2616149 3.35981366 23.2343478 2.96049689 22.0240994 2.87925466 21.3676398 2.83509317 20.6567702 2.88559006 19.9071429 3.02403727 19.4841615 3.10248447 19.048323 3.20850932 18.6035404 3.34229814 18.2768944 3.44068323 17.9450311 3.55341615 17.6086957 3.6810559 16.7312422 4.01291925 15.8252795 4.44223602 14.908882 4.96453416 15.297764 5.18590062 15.6890683 5.42440994 16.0807453 5.67875776 16.4644099 5.9278882 16.8488199 6.19285714 17.2321118 6.47198758 17.7462112 6.21111801 18.2575155 5.98118012 18.7643478 5.78310559 18.9998758 5.69086957 19.2348447 5.60534161 19.4679503 5.52745342 19.592795 5.48590062 19.7155901 5.44714286 19.8381988 5.41043478 20.2639752 5.28223602 20.6742857 5.18347826 21.0681988 5.11360248 22.4938509 4.85981366 23.6877019 4.9857764 24.5161491 5.48347826"/>
    <path fill="#F4B563" d="M24.5161491 5.48347826C25.0144099 6.31229814 25.1398137 7.50596273 24.8860248 8.93180124 25.2143478 9.07956522 25.5286957 9.23459627 25.828882 9.39596273 26.2382609 9.61658385 26.6213665 9.84913043 26.9761491 10.0926708 27.1140373 9.34304348 27.1649068 8.63254658 27.120559 7.97571429 27.0395031 6.76546584 26.6396273 5.73838509 25.8901863 4.98819876 25.742236 4.84062112 25.5832919 4.7068323 25.4142857 4.58552795M19.3168323 20.3375776C19.556646 20.2986335 19.7944099 20.2572671 20.0295652 20.2119876 20.4773292 20.1262733 20.9142857 20.0284472 21.3415528 19.92 21.3957764 19.9063975 21.45 19.891677 21.5042236 19.8773292 21.962795 19.378323 22.3960248 18.8718634 22.8031677 18.3620497 23.0545342 18.0475155 23.2962112 17.731118 23.5278261 17.4141615 23.8069565 17.0310559 24.0715528 16.646646 24.3210559 16.2631677 24.5752174 15.8714907 24.813913 15.4807453 25.0356522 15.091118 25.5575776 14.1743478 25.9868944 13.2685714 26.3187578 12.3913043 25.9915528 12.1624845 25.6309938 11.941677 25.2396894 11.7313043 25.1271429 11.6707453 25.0127329 11.611118 24.8951553 11.5524224 24.6752795 11.4424845 24.4485093 11.337205 24.2168944 11.2354658 24.0184472 11.7422981 23.788323 12.2539752 23.5278261 12.7680745 23.3511801 13.1157764 23.1598137 13.4640373 22.9563354 13.8128571 22.9281988 13.8609317 22.9006211 13.9091925 22.8721118 13.9570807 22.6470186 14.3357143 22.406646 14.7139752 22.1511801 15.091118 22.0159006 15.2891925 21.8780124 15.4867081 21.7358385 15.6840373 21.3253416 16.2519876 20.8829814 16.8154658 20.4096894 17.3698137 19.924472 17.9390683 19.4073913 18.4990062 18.8618012 19.0445963 18.3167702 19.5901863 17.7568323 20.1068944 17.1873913 20.5921118 17.914472 20.5349068 18.6249689 20.4491925 19.3168323 20.3375776M11.6379503 7.19664596C12.2869565 7.12397516 12.9521739 7.07217391 13.6306211 7.0436646 13.2814286 6.83981366 12.933354 6.64863354 12.5852795 6.47198758 12.2686957 6.70341615 11.9526708 6.9452795 11.6379503 7.19664596M5.30086957 24.6989441C4.80335404 23.8697516 4.67720497 22.6757143 4.93136646 21.2504348 4.60341615 21.1024845 4.28869565 20.9478261 3.98888199 20.7859006 3.57931677 20.5656522 3.19602484 20.3331056 2.84161491 20.0895652 2.70298137 20.8393789 2.65285714 21.5498758 2.6968323 22.2065217 2.77826087 23.4169565 3.1773913 24.4440373 3.9273913 25.1942236L4.80614907 26.0724224C5.5557764 26.822236 6.58304348 27.2215528 7.79329193 27.3029814 8.45012422 27.3471429 9.16062112 27.2968323 9.91024845 27.1580124 10.3334161 27.0797516 10.7690683 26.9737267 11.2142236 26.8397516 11.5408696 26.7415528 11.8723602 26.6288199 12.208882 26.5013665 13.0861491 26.1691304 13.9921118 25.7398137 14.908882 25.2178882 14.5196273 24.9961491 14.128323 24.7574534 13.7364596 24.5034783 13.353354 24.2541615 12.9689441 23.9893789 12.5852795 23.7100621 12.0715528 23.9713043 11.5598758 24.2012422 11.0530435 24.3993168 10.8171429 24.4911801 10.5821739 24.5770807 10.349441 24.6547826 10.2245963 24.6965217 10.1018012 24.7350932 9.97956522 24.7719876 9.55341615 24.9 9.14310559 24.9985714 8.74919255 25.0686335 7.32354037 25.3224224 6.13006211 25.1964596 5.30086957 24.6989441M4.57807453 18.451118C4.69062112 18.5114907 4.80465839 18.5709317 4.92223602 18.6298137 5.14229814 18.7399379 5.36925466 18.8450311 5.60068323 18.9465839 5.79857143 18.4399379 6.02869565 17.9284472 6.28993789 17.4141615 6.46621118 17.0664596 6.65757764 16.7181988 6.8610559 16.3693789 6.88919255 16.3214907 6.91695652 16.2732298 6.9452795 16.2251553 7.17037267 15.8467081 7.41074534 15.4680745 7.66677019 15.091118 7.80111801 14.8930435 7.93975155 14.695528 8.08192547 14.4983851 8.49204969 13.9304348 8.93440994 13.3669565 9.40770186 12.8126087 9.89310559 12.2431677 10.4096273 11.6834161 10.9559627 11.1380124 11.5006211 10.5920497 12.0609317 10.0753416 12.6303727 9.58993789 11.9032919 9.64751553 11.1924224 9.73285714 10.500559 9.84503106 10.2607453 9.88341615 10.0229814 9.92515528 9.78782609 9.97024845 9.34043478 10.0559627 8.90291925 10.1537888 8.47583851 10.262236 8.42161491 10.2760248 8.3673913 10.2903727 8.31354037 10.3049068 7.85459627 10.803913 7.42136646 11.3101863 7.0142236 11.8201863 6.76285714 12.1347205 6.52118012 12.451118 6.28956522 12.7680745 6.01043478 13.1511801 5.74583851 13.5354037 5.49614907 13.918882 5.24217391 14.3109317 5.00347826 14.7014907 4.7821118 15.091118 4.25981366 16.0077019 3.83049689 16.9136646 3.49863354 17.7909317 3.82602484 18.0195652 4.18639752 18.2403727 4.57807453 18.451118"/>
    <path fill="#5CAFCD" d="M7.0142236 18.3620497C6.94173913 17.7130435 6.88956522 17.0474534 6.8610559 16.3693789 6.65757764 16.7181988 6.46621118 17.0664596 6.28993789 17.4141615 6.52118012 17.731118 6.76285714 18.0475155 7.0142236 18.3620497M5.30086957 5.48347826C6.13006211 4.9857764 7.32391304 4.85981366 8.74919255 5.11378882 8.89695652 4.78583851 9.05217391 4.47130435 9.21372671 4.17111801 9.43416149 3.7615528 9.6663354 3.3784472 9.91024845 3.02403727 9.16062112 2.88559006 8.45012422 2.83509317 7.79329193 2.87925466 6.58304348 2.96049689 5.5557764 3.35981366 4.80614907 4.10962733 4.65819876 4.25776398 4.52459627 4.41689441 4.40310559 4.58552795 4.52459627 4.41689441 4.65819876 4.25776398 4.80614907 4.10962733L3.9273913 4.98819876C3.1773913 5.73838509 2.77826087 6.76546584 2.6968323 7.97571429 2.65285714 8.63254658 2.70298137 9.34304348 2.84161491 10.0926708 2.92006211 10.5156522 3.02590062 10.951118 3.16043478 11.3962733 3.25826087 11.7231056 3.37080745 12.0547826 3.49863354 12.3913043 3.83049689 13.2685714 4.25981366 14.1743478 4.7821118 15.091118 5.00347826 14.7014907 5.24217391 14.3109317 5.49614907 13.918882 5.74583851 13.5354037 6.01043478 13.1511801 6.28956522 12.7680745 6.02869565 12.2539752 5.79857143 11.7422981 5.60068323 11.2354658 5.50863354 10.9997516 5.42273292 10.7647826 5.34521739 10.531677 5.3036646 10.407205 5.2647205 10.2842236 5.22801242 10.1618012 5.09962733 9.73583851 5.0010559 9.32534161 4.93136646 8.93180124 4.67720497 7.50614907 4.80335404 6.31229814 5.30086957 5.48347826M22.8031677 11.8201863C22.8760248 12.4693789 22.9274534 13.1345963 22.9563354 13.8128571 23.1598137 13.4640373 23.3511801 13.1157764 23.5278261 12.7680745 23.2962112 12.451118 23.0545342 12.1347205 22.8031677 11.8201863M20.1549689 10.6831677C20.1160248 10.4429814 20.0746584 10.2054037 20.0295652 9.97024845 19.9436646 9.52267081 19.8462112 9.08534161 19.7375776 8.65807453 19.7237888 8.60385093 19.7092547 8.55 19.6952795 8.4957764 19.1959006 8.03720497 18.689441 7.60360248 18.1798137 7.19664596 17.8652795 6.9452795 17.5486957 6.70341615 17.2321118 6.47198758 16.8488199 6.19285714 16.4644099 5.9278882 16.0807453 5.67875776 15.6890683 5.42440994 15.297764 5.18590062 14.908882 4.96453416 13.9921118 4.44223602 13.0861491 4.01291925 12.208882 3.6810559 11.9800621 4.0084472 11.7590683 4.36881988 11.548882 4.76031056 11.4886957 4.87267081 11.428882 4.98726708 11.3698137 5.10447205 11.2600621 5.32453416 11.1547826 5.55149068 11.0530435 5.78329193 11.5598758 5.98118012 12.0715528 6.21111801 12.5852795 6.47198758 12.933354 6.64863354 13.2814286 6.83981366 13.6306211 7.0436646 13.6785093 7.07161491 13.7263975 7.09900621 13.7746584 7.1278882 14.1532919 7.35298137 14.5315528 7.5931677 14.908882 7.84900621 15.1067702 7.9831677 15.304472 8.12217391 15.5016149 8.26416149 16.0695652 8.67447205 16.6330435 9.11701863 17.1873913 9.58993789 17.7568323 10.0753416 18.3167702 10.5920497 18.8618012 11.1380124 19.4073913 11.6834161 19.924472 12.2431677 20.4096894 12.8126087 20.3522981 12.0859006 20.2667702 11.374472 20.1549689 10.6831677M9.66279503 19.4990683C9.70118012 19.739441 9.74273292 19.9770186 9.78782609 20.2119876 9.87335404 20.6595652 9.97118012 21.0970807 10.0796273 21.5239752 10.0936025 21.5785714 10.1081366 21.6324224 10.1224845 21.686646 10.6214907 22.1452174 11.1279503 22.5786335 11.6379503 22.9854037 11.9526708 23.2369565 12.2686957 23.4788199 12.5852795 23.7100621 12.9689441 23.9893789 13.353354 24.2541615 13.7364596 24.5034783 14.128323 24.7574534 14.5196273 24.9961491 14.908882 25.2178882 15.8252795 25.7398137 16.7312422 26.1691304 17.6086957 26.5013665 17.8373292 26.1739752 18.058323 25.8134161 18.2685093 25.4219255 18.3286957 25.3095652 18.3885093 25.1949689 18.447205 25.077764 18.5575155 24.8577019 18.6626087 24.6307453 18.7643478 24.3993168 18.2575155 24.2012422 17.7462112 23.9713043 17.2321118 23.7100621 16.8840373 23.5337888 16.5359627 23.342236 16.1871429 23.1385714 16.1392547 23.1106211 16.0908075 23.0830435 16.0427329 23.0545342 15.6640994 22.829441 15.2858385 22.588882 14.908882 22.3334161 14.7108075 22.198882 14.5132919 22.0602484 14.3161491 21.9178882 13.7481988 21.5079503 13.1843478 21.0654037 12.6303727 20.5921118 12.0609317 20.1068944 11.5006211 19.5901863 10.9559627 19.0442236 10.4096273 18.4990062 9.89310559 17.9390683 9.40770186 17.3698137 9.46509317 18.0963354 9.55099379 18.8073913 9.66279503 19.4990683M25.0116149 26.0724224L25.8901863 25.1942236C26.6396273 24.4440373 27.0395031 23.4169565 27.120559 22.2065217 27.1649068 21.5498758 27.1140373 20.8393789 26.9761491 20.0895652 26.8973292 19.6663975 26.791118 19.2309317 26.6573292 18.7857764 26.5595031 18.4591304 26.4462112 18.1274534 26.3187578 17.7909317 25.9868944 16.9136646 25.5575776 16.0077019 25.0356522 15.091118 24.813913 15.4807453 24.5752174 15.8714907 24.3210559 16.2631677 24.0715528 16.646646 23.8069565 17.0310559 23.5278261 17.4141615 23.788323 17.9284472 24.0184472 18.4399379 24.2168944 18.9465839 24.3091304 19.1824845 24.3946584 19.4172671 24.4725466 19.650559 24.5140994 19.7752174 24.5526708 19.8980124 24.5893789 20.0202484 24.7173913 20.4462112 24.8163354 20.8568944 24.8860248 21.2504348 25.1398137 22.6757143 25.0144099 23.8697516 24.5161491 24.6989441 23.6877019 25.1964596 22.4938509 25.3224224 21.0681988 25.0686335 20.9204348 25.3963975 20.7652174 25.711118 20.6036646 26.0113043 20.3832298 26.4206832 20.1506832 26.8036025 19.9071429 27.1580124 20.6567702 27.2968323 21.3676398 27.3471429 22.0240994 27.3029814 23.2343478 27.2215528 24.2616149 26.822236 25.0116149 26.0724224"/>
    <path fill="#47B178" d="M8.08192547 14.4983851C7.93975155 14.695528 7.80111801 14.8930435 7.66677019 15.091118 7.41074534 15.4680745 7.17037267 15.8467081 6.9452795 16.2251553 6.91695652 16.2732298 6.88919255 16.3214907 6.8610559 16.3693789 6.88956522 17.0474534 6.94173913 17.7130435 7.0142236 18.3620497 7.05913043 18.7619255 7.11093168 19.1563975 7.17111801 19.5428571 7.2447205 20.011677 7.32950311 20.4702484 7.42416149 20.9178261 7.52124224 21.3745342 7.62931677 21.8198758 7.74763975 22.2519876 8.02714286 23.2688199 8.3642236 24.213354 8.74919255 25.0686335 9.14310559 24.9985714 9.55341615 24.9 9.97956522 24.7719876 10.1018012 24.7350932 10.2245963 24.6965217 10.349441 24.6547826 10.5821739 24.5770807 10.8171429 24.4911801 11.0530435 24.3993168 10.8352174 23.9008696 10.6356522 23.3763354 10.4567702 22.8285093 10.3358385 22.4580745 10.2245963 22.0768323 10.1224845 21.686646 10.1081366 21.6324224 10.0936025 21.5785714 10.0796273 21.5239752 9.97118012 21.0970807 9.87335404 20.6595652 9.78782609 20.2119876 9.74273292 19.9770186 9.70118012 19.739441 9.66279503 19.4990683 9.55099379 18.8073913 9.46509317 18.0963354 9.40770186 17.3698137 9.34826087 16.6240994 9.3178882 15.8629193 9.3178882 15.091118 9.3178882 14.3195031 9.34826087 13.5581366 9.40770186 12.8126087 8.93440994 13.3669565 8.49204969 13.9304348 8.08192547 14.4983851M22.8031677 18.3620497C22.3960248 18.8718634 21.962795 19.378323 21.5042236 19.8773292 21.8945963 19.7752174 22.2756522 19.6637888 22.6459006 19.5428571 22.7064596 19.1563975 22.7584472 18.7619255 22.8031677 18.3620497M7.0142236 11.8201863C7.42136646 11.3101863 7.85459627 10.803913 8.31354037 10.3049068 7.92279503 10.407205 7.54173913 10.5184472 7.17111801 10.6391925 7.11093168 11.0262112 7.05913043 11.4203106 7.0142236 11.8201863M21.7358385 15.6840373C21.8780124 15.4867081 22.0159006 15.2891925 22.1511801 15.091118 22.406646 14.7139752 22.6470186 14.3357143 22.8721118 13.9570807 22.9006211 13.9091925 22.9281988 13.8609317 22.9563354 13.8128571 22.9274534 13.1345963 22.8760248 12.4693789 22.8031677 11.8201863 22.7584472 11.4203106 22.7064596 11.0262112 22.6459006 10.6391925 22.5726708 10.1707453 22.4882609 9.71217391 22.3932298 9.26440994 22.2961491 8.80751553 22.1884472 8.36236025 22.0693789 7.93024845 21.7904348 6.91341615 21.4535404 5.96888199 21.0681988 5.11360248 20.6742857 5.18347826 20.2639752 5.28223602 19.8381988 5.41043478 19.7155901 5.44714286 19.592795 5.48590062 19.4679503 5.52745342 19.2348447 5.60534161 18.9998758 5.69086957 18.7643478 5.78310559 18.9821739 6.2815528 19.1813665 6.80571429 19.3602484 7.35372671 19.4815528 7.72416149 19.592795 8.10521739 19.6952795 8.4957764 19.7092547 8.55 19.7237888 8.60385093 19.7375776 8.65807453 19.8462112 9.08534161 19.9436646 9.52267081 20.0295652 9.97024845 20.0746584 10.2054037 20.1162112 10.4429814 20.1549689 10.6831677 20.2667702 11.374472 20.3522981 12.0859006 20.4096894 12.8126087 20.4687578 13.5581366 20.4996894 14.3195031 20.4996894 15.091118 20.4996894 15.8629193 20.4687578 16.6240994 20.4096894 17.3698137 20.8829814 16.8154658 21.3253416 16.2519876 21.7358385 15.6840373"/>
    <g transform="translate(7.64)">
      <mask id="closeio-b" fill="#fff">
        <use xlink:href="#closeio-a"/>
      </mask>
      <path fill="#47B178" d="M12.2673913 3.02403727C11.8352795 2.39608696 11.367764 1.85776398 10.8726708 1.4247205 9.95944099.626459627 8.95062112.18242236 7.89037267.18242236L6.64770186.18242236C5.58763975.18242236 4.57863354.626459627 3.66521739 1.4247205 3.16975155 1.85776398 2.70279503 2.39608696 2.27049689 3.02403727 2.02658385 3.3784472 1.79440994 3.7615528 1.57397516 4.17111801 1.41242236 4.47130435 1.25720497 4.78583851 1.10944099 5.11378882.72447205 5.96888199.387391304 6.91341615.107888199 7.93024845.54 7.81192547.98552795 7.7036646 1.44242236 7.60658385 1.89018634 7.51173913 2.34857143 7.42732919 2.81701863 7.35372671 2.99590062 6.80571429 3.19546584 6.2815528 3.41329193 5.78329193 3.51503106 5.55149068 3.62031056 5.32453416 3.73006211 5.10447205 3.78913043 4.98726708 3.8489441 4.87267081 3.90913043 4.76031056 4.11931677 4.36881988 4.34031056 4.0084472 4.56913043 3.6810559 5.39813665 2.4931677 6.33093168 1.73795031 7.26913043 1.50372671 8.20714286 1.73795031 9.14012422 2.4931677 9.9689441 3.6810559 10.3052795 3.55341615 10.6371429 3.44068323 10.9637888 3.34229814M6.64770186 30L7.89037267 30C8.95062112 30 9.95944099 29.5557764 10.8726708 28.7575155 11.367764 28.324472 11.8352795 27.7861491 12.2673913 27.1580124 12.5109317 26.8036025 12.7434783 26.4206832 12.963913 26.0113043 13.1254658 25.711118 13.2806832 25.3963975 13.4284472 25.0686335 13.8137888 24.213354 14.1506832 23.2688199 14.4296273 22.2519876L13.0958385 22.5754658C12.6480745 22.6704969 12.1893168 22.7550932 11.7204969 22.8285093 11.5416149 23.3763354 11.3424224 23.9008696 11.1245963 24.3993168 11.0228571 24.6307453 10.917764 24.8577019 10.8074534 25.077764 10.7487578 25.1949689 10.6889441 25.3095652 10.6287578 25.4219255 10.4185714 25.8134161 10.1975776 26.1739752 9.9689441 26.5013665 9.14012422 27.6892547 8.20714286 28.4440994 7.26913043 28.678323 6.33093168 28.4440994 5.39813665 27.6892547 4.56913043 26.5013665 4.2326087 26.6288199 3.90111801 26.7415528 3.57447205 26.8397516L2.27049689 27.1580124C2.70279503 27.7861491 3.16975155 28.324472 3.66521739 28.7575155 4.57863354 29.5557764 5.58763975 30 6.64770186 30" mask="url(#closeio-b)"/>
    </g>
  </g>
</svg>
