<svg xmlns="http://www.w3.org/2000/svg" width="30" height="30" viewBox="0 0 30 30">
  <g fill="none">
    <path fill="#FFF" d="M28.7316336,15.0966832 C28.7316336,22.6823762 22.5821782,28.8318316 14.9964852,28.8318316 C7.41079208,28.8318316 1.26138614,22.6823762 1.26138614,15.0966832 C1.26138614,7.5109901 7.41079208,1.36153465 14.9964852,1.36153465 C22.5821782,1.36153465 28.7316336,7.5109901 28.7316336,15.0966832"/>
    <path fill="#3C4655" d="M15,29.9752475 C10.9999505,29.9752475 7.23935644,28.4175247 4.41094059,25.5890595 C1.58247525,22.7606435 0.0247524752,19.0000495 0.0247524752,15 C0.0247524752,10.9999505 1.58247525,7.23935644 4.41094059,4.41089109 C7.23935644,1.58242574 10.9999505,0.0247524752 15,0.0247524752 C19.0000495,0.0247524752 22.7606435,1.58242574 25.5890595,4.41089109 C28.4175247,7.23935644 29.9752475,10.9999505 29.9752475,15 C29.9752475,19.0000495 28.4175247,22.7606435 25.5890595,25.5890595 C22.7606435,28.4175247 19.0000495,29.9752475 15,29.9752475 Z M15,1.65841584 C11.4363366,1.65841584 8.08599009,3.04618812 5.56608911,5.56608911 C3.04618812,8.08594059 1.65841584,11.4363366 1.65841584,15 C1.65841584,18.5636633 3.04618812,21.9140099 5.56608911,24.4339109 C8.08599009,26.9538118 11.4363366,28.3415842 15,28.3415842 C18.5636633,28.3415842 21.9140099,26.9538118 24.4339109,24.4339109 C26.9538118,21.9140099 28.3415842,18.5636633 28.3415842,15 C28.3415842,11.4363366 26.9538118,8.08594059 24.4339109,5.56608911 C21.9140099,3.04618812 18.5636633,1.65841584 15,1.65841584 Z"/>
    <path fill="#3C4655" d="M10.1543069,11.1580693 C10.1543069,10.3316832 10.1585644,9.54945545 10.1510891,8.76732674 C10.1493564,8.5879208 10.2612871,8.52430693 10.3875743,8.46128713 C10.9442079,8.18336633 11.5460396,8.04534654 12.1436633,7.89247525 C14.5852475,7.2680198 16.9778218,7.50470297 19.3353961,8.30673267 C19.9531683,8.51688118 19.9479703,8.53222772 19.9479703,9.17618811 L19.9479703,11.1447525 C19.8516832,11.1580198 19.8086633,11.099703 19.7571782,11.0644059 C18.3691584,10.1132178 16.8611386,9.41113861 15.2663862,8.88460396 C15.0505941,8.81331683 14.8612871,8.81638614 14.6477722,8.89089109 C13.1097525,9.42757426 11.655297,10.1289604 10.3120792,11.054703 C10.2726733,11.0818317 10.2320297,11.1072277 10.1543069,11.1580693"/>
    <path fill="#6E717E" d="M12.6790594,5.42683168 C12.6790594,5.10524753 12.6964356,4.78237624 12.6735643,4.46237624 C12.6549009,4.20094059 12.7817326,4.06524752 12.9909901,3.96475248 C13.4496534,3.74445545 13.9397524,3.63450495 14.439703,3.57425742 C15.2660396,3.47465346 16.0667326,3.60178218 16.8399009,3.9000495 C17.2922773,4.07455446 17.324307,4.13277227 17.324307,4.60648515 C17.324307,5.225 17.3203465,5.84356436 17.3268812,6.4619802 C17.3286634,6.62702971 17.3110396,6.69079208 17.1111881,6.65103961 C15.6962377,6.36975247 14.2782674,6.36519802 12.8641584,6.65975248 C12.6870792,6.69663367 12.6742079,6.63222772 12.6768812,6.49064357 C12.6834654,6.13613862 12.6790594,5.78148514 12.6790594,5.42683168"/>
    <path fill="#3C4655" d="M26.0895545,18.4732178 C25.6535148,18.1919802 25.2335644,17.885396 24.7933663,17.6111882 C23.905198,17.0578218 23.0020297,16.529307 21.9926733,16.2200495 C21.6867327,16.1262871 21.3751485,16.0333168 21.0480693,16.1349009 C20.7261881,16.234901 20.4631188,16.4317822 20.2111881,16.6440594 C19.6741089,17.0965841 19.2034159,17.6182673 18.6993069,18.1051485 C18.64,18.1623763 18.6024752,18.260495 18.4957921,18.2534653 C18.4658911,18.2070296 18.4888119,18.1701485 18.5005446,18.1312871 C19.0021782,16.4672773 19.7979207,14.9659406 20.9762377,13.679406 C21.0985644,13.5458416 21.1042079,13.4791584 20.9600495,13.3556435 C19.264901,11.9035644 17.390297,10.7679703 15.2561882,10.0807426 C15.0922277,10.0279208 14.9438119,10.0193564 14.780198,10.0772277 C12.6623268,10.8264356 10.7319802,11.9002475 9.03039604,13.3758416 C8.89985148,13.4890099 8.91777227,13.5452971 9.0260396,13.6604455 C9.83054455,14.5161881 10.4399505,15.5000991 10.8955446,16.5793069 C11.0931188,17.0474257 11.3032178,17.5130693 11.3914356,18.0196535 C11.5734158,18.7788614 11.7464851,20.5477723 11.8399505,20.635297 C10.6145049,20.3370792 10.3678713,20.2023763 9.59569307,19.8267327 C8.58292079,19.3340099 7.54920792,19.0230198 6.40262377,19.0924257 C5.71232673,19.1342079 5.12975248,19.260693 4.48019802,19.480198 C4.36524752,19.5190594 4.12178218,19.6537129 4.16846535,19.750099 C4.18381188,19.7961881 4.19529703,19.7986634 4.2150495,19.8427723 C4.8489604,21.26 5.72668317,22.5068811 6.86123762,23.5653961 C9.17277227,25.7218317 11.9116337,26.8416336 15.0763366,26.8502475 C17.1544059,26.8559406 19.1003466,26.3070296 20.8920296,25.2534158 C23.440792,23.754604 25.2211386,21.614406 26.2016337,18.8162377 C26.2591089,18.6523267 26.2331188,18.5658416 26.0895545,18.4732178 Z M15.4627723,15.9130693 C15.4290594,17.6897524 15.1949505,18.5336139 15.0604455,19.8111387 C15.0500991,19.9093564 15.0064356,20.1653466 15.0064356,20.1653466 C15.0064356,20.1653466 14.9287624,19.8385644 14.9205445,19.8077722 C14.7786634,18.6468316 14.6678218,17.775495 14.5341584,16.6136139 C14.4267821,15.6803466 14.3855446,14.7386139 14.3954951,13.8034159 C14.4013861,13.2477227 14.6189604,12.6943564 14.7410891,12.1398514 C14.8212376,11.7759405 14.8831188,11.444901 15,11.0506436 C15.1377227,11.730495 15.2858416,12.4167327 15.4548514,13.0887623 C15.6925248,14.0338119 15.480594,14.9731188 15.4627723,15.9130693 Z"/>
    <path fill="#777885" d="M11.3914356,18.065 C11.9005446,18.6590595 12.5373267,19.0939604 13.2028713,19.4852971 C13.6703466,19.760198 14.1636634,19.9890098 14.6960396,20.1173268 C14.7814852,20.1379703 15.219505,20.2275247 15.3303961,20.2376237 C15.4778713,20.2510396 15.5732673,20.2599009 15.7838119,20.2681683 C15.2776733,20.4890595 14.7915841,20.6654455 14.2862871,20.7549505 C12.8067821,20.9423268 11.5097525,20.8023267 10.1849505,20.1848515 C9.37118811,19.8055941 8.5830198,19.3920296 7.68153465,19.2533168 C6.53955445,19.0775742 5.38965347,19.2120296 4.31519802,19.6246039 C4.26143564,19.645198 4.22267326,19.7306435 4.16846535,19.750099 C3.95663366,19.3380198 3.83118812,18.8940098 3.68673267,18.4567822 C3.65118812,18.3492574 3.65118812,18.3492574 3.77069307,18.2239109 C4.95752475,17.1884653 6.28519802,16.5028218 7.9109901,16.5819307 C9.10410891,16.64 10.1460891,17.0987129 11.0816832,17.8222277 C11.1854455,17.9025247 11.2882178,17.9840595 11.3914356,18.065"/>
  </g>
</svg>
