<svg xmlns="http://www.w3.org/2000/svg" width="30" height="30" viewBox="0 0 30 30">
  <g fill="none" fill-rule="evenodd" transform="translate(.1 .317)">
    <path fill="#C00000" d="M19.5252263,1.04168564 C21.3770796,2.24347902 20.6561465,4.666872 19.209562,5.21384624 C17.1331366,5.99897285 16.4178905,6.9728902 17.1453816,7.82983669 C16.4052749,7.47159238 14.7836242,7.26669196 13.6398925,7.58870603 C13.1235675,7.39514058 12.9617877,7.16969615 12.9006491,6.84546493 C13.0820158,5.66324758 14.1294764,4.35549367 17.0822253,4.32943825 C19.9349799,4.30481172 20.9201579,2.57481666 19.5252263,1.04168564 Z"/>
    <path fill="#C00000" d="M6.64269976,0.0101965412 C8.49455305,1.21198992 7.77361988,3.6353829 6.32703547,4.18235714 C4.25061001,4.96748375 3.53536388,5.9414011 4.26285502,6.79834759 C3.52274836,6.44010328 1.90109757,6.23520286 0.75736594,6.55721693 C0.241040881,6.36365148 0.0792611211,6.13820705 0.0181225218,5.81397583 C0.199489227,4.63175848 1.24694985,3.32400457 4.19969871,3.29794915 C7.05245329,3.27332262 8.0376313,1.54332756 6.64269976,0.0101965412 Z" transform="rotate(-180 8.487 14.167)"/>
    <path fill="#C00000" d="M6.64269976,0.0101965412 C8.49455305,1.21198992 7.77361988,3.6353829 6.32703547,4.18235714 C4.25061001,4.96748375 3.53536388,5.9414011 4.26285502,6.79834759 C3.52274836,6.44010328 1.90109757,6.23520286 0.75736594,6.55721693 C0.241040881,6.36365148 0.0792611211,6.13820705 0.0181225218,5.81397583 C0.199489227,4.63175848 1.24694985,3.32400457 4.19969871,3.29794915 C7.05245329,3.27332262 8.0376313,1.54332756 6.64269976,0.0101965412 Z" transform="rotate(-90 8.944 7.811)"/>
    <path fill="#C00000" d="M6.64269976,0.0101965412 C8.49455305,1.21198992 7.77361988,3.6353829 6.32703547,4.18235714 C4.25061001,4.96748375 3.53536388,5.9414011 4.26285502,6.79834759 C3.52274836,6.44010328 1.90109757,6.23520286 0.75736594,6.55721693 C0.241040881,6.36365148 0.0792611211,6.13820705 0.0181225218,5.81397583 C0.199489227,4.63175848 1.24694985,3.32400457 4.19969871,3.29794915 C7.05245329,3.27332262 8.0376313,1.54332756 6.64269976,0.0101965412 Z" transform="rotate(90 8.056 20.668)"/>
    <path fill="#C00000" d="M6.64269744,0.0101965376 C8.49455008,1.2119895 7.77361717,3.63538163 6.32703326,4.18235568 C4.25060853,4.96748202 3.53536264,5.94139903 4.26285353,6.79834521 C3.52274713,6.44010103 1.90109691,6.23520068 0.757365675,6.55721463 C0.241040797,6.36364926 0.0792610934,6.13820491 0.0181225155,5.81397379 C0.199489158,4.63175686 1.24694941,3.32400341 4.19969724,3.297948 C7.05245083,3.27332148 8.03762849,1.54332702 6.64269744,0.0101965376 Z" transform="rotate(-60 9.337 3.13)"/>
    <path fill="#C00000" d="M6.64269744,0.0101965376 C8.49455008,1.2119895 7.77361717,3.63538163 6.32703326,4.18235568 C4.25060853,4.96748202 3.53536264,5.94139903 4.26285353,6.79834521 C3.52274713,6.44010103 1.90109691,6.23520068 0.757365675,6.55721463 C0.241040797,6.36364926 0.0792610934,6.13820491 0.0181225155,5.81397379 C0.199489158,4.63175686 1.24694941,3.32400341 4.19969724,3.297948 C7.05245083,3.27332148 8.03762849,1.54332702 6.64269744,0.0101965376 Z" transform="rotate(-150 8.591 12.458)"/>
    <path fill="#C00000" d="M6.64269744,0.0101965376 C8.49455008,1.2119895 7.77361717,3.63538163 6.32703326,4.18235568 C4.25060853,4.96748202 3.53536264,5.94139903 4.26285353,6.79834521 C3.52274713,6.44010103 1.90109691,6.23520068 0.757365675,6.55721463 C0.241040797,6.36364926 0.0792610934,6.13820491 0.0181225155,5.81397379 C0.199489158,4.63175686 1.24694941,3.32400341 4.19969724,3.297948 C7.05245083,3.27332148 8.03762849,1.54332702 6.64269744,0.0101965376 Z" transform="rotate(120 8.258 17.911)"/>
    <path fill="#C00000" d="M6.64269744,0.0101965376 C8.49455008,1.2119895 7.77361717,3.63538163 6.32703326,4.18235568 C4.25060853,4.96748202 3.53536264,5.94139903 4.26285353,6.79834521 C3.52274713,6.44010103 1.90109691,6.23520068 0.757365675,6.55721463 C0.241040797,6.36364926 0.0792610934,6.13820491 0.0181225155,5.81397379 C0.199489158,4.63175686 1.24694941,3.32400341 4.19969724,3.297948 C7.05245083,3.27332148 8.03762849,1.54332702 6.64269744,0.0101965376 Z" transform="rotate(30 6.622 38.334)"/>
    <path fill="#C00000" d="M6.64269744,0.0101965376 C8.49455008,1.2119895 7.77361717,3.63538163 6.32703326,4.18235568 C4.25060853,4.96748202 3.53536264,5.94139903 4.26285353,6.79834521 C3.52274713,6.44010103 1.90109691,6.23520068 0.757365675,6.55721463 C0.241040797,6.36364926 0.0792610934,6.13820491 0.0181225155,5.81397379 C0.199489158,4.63175686 1.24694941,3.32400341 4.19969724,3.297948 C7.05245083,3.27332148 8.03762849,1.54332702 6.64269744,0.0101965376 Z" transform="rotate(-30 10.4 -9.73)"/>
    <path fill="#C00000" d="M6.64269744,0.0101965376 C8.49455008,1.2119895 7.77361717,3.63538163 6.32703326,4.18235568 C4.25060853,4.96748202 3.53536264,5.94139903 4.26285353,6.79834521 C3.52274713,6.44010103 1.90109691,6.23520068 0.757365675,6.55721463 C0.241040797,6.36364926 0.0792610934,6.13820491 0.0181225155,5.81397379 C0.199489158,4.63175686 1.24694941,3.32400341 4.19969724,3.297948 C7.05245083,3.27332148 8.03762849,1.54332702 6.64269744,0.0101965376 Z" transform="rotate(-120 8.73 10.496)"/>
    <path fill="#C00000" d="M6.64269744,0.0101965376 C8.49455008,1.2119895 7.77361717,3.63538163 6.32703326,4.18235568 C4.25060853,4.96748202 3.53536264,5.94139903 4.26285353,6.79834521 C3.52274713,6.44010103 1.90109691,6.23520068 0.757365675,6.55721463 C0.241040797,6.36364926 0.0792610934,6.13820491 0.0181225155,5.81397379 C0.199489158,4.63175686 1.24694941,3.32400341 4.19969724,3.297948 C7.05245083,3.27332148 8.03762849,1.54332702 6.64269744,0.0101965376 Z" transform="rotate(150 8.387 15.897)"/>
    <path fill="#C00000" d="M6.64269744,0.0101965376 C8.49455008,1.2119895 7.77361717,3.63538163 6.32703326,4.18235568 C4.25060853,4.96748202 3.53536264,5.94139903 4.26285353,6.79834521 C3.52274713,6.44010103 1.90109691,6.23520068 0.757365675,6.55721463 C0.241040797,6.36364926 0.0792610934,6.13820491 0.0181225155,5.81397379 C0.199489158,4.63175686 1.24694941,3.32400341 4.19969724,3.297948 C7.05245083,3.27332148 8.03762849,1.54332702 6.64269744,0.0101965376 Z" transform="rotate(60 7.675 25.42)"/>
    <path fill="#C00000" d="M14.9244781,7.66045532 C10.9866806,7.66045532 7.79003024,10.8101675 7.79003024,14.693268 C7.79003024,18.5763673 10.9866806,21.7286257 14.9244781,21.7286257 C18.8622701,21.7286263 22.1126526,18.5234715 22.0589259,14.693268 C22.0233503,12.1571865 20.4035983,8.88453538 16.4136816,8.40933324 C14.6629683,8.20082206 12.5369825,8.71112958 11.0929559,10.1464016 C11.7724486,10.4631296 12.166175,10.6747792 12.5188259,11.0880681 C13.7315561,9.6554269 15.9332019,9.4019238 17.8005847,10.1201697 C19.3314032,10.708966 20.6852026,12.6322648 20.6980466,14.4531308 C20.7204644,17.5436171 18.35831,20.3876931 14.8296263,20.4319777 C11.5436351,20.4725809 8.79083189,17.4682495 8.79083189,14.6766154 C8.79083189,11.8849808 10.5080782,8.60666199 14.9814034,8.12301141 C16.7444047,7.93239819 18.2100068,8.56474987 19.5103492,9.31044266 C18.4031676,8.35093412 16.6709578,7.66045532 14.9244781,7.66045532 Z"/>
    <path fill="#F80" d="M1.06720557,0.000209012265 C1.87029512,0.647433135 1.38381513,1.58105292 0.524368931,1.76997449 C0.530779914,2.19427808 0.410345908,2.49902664 0.00828610716,2.94842527 C0.717909073,2.58563427 1.08085554,2.4417334 1.9019008,2.35951557 C1.40637607,1.71721654 2.47530041,0.679037418 1.06720557,0.000209012265 Z" transform="rotate(-180 7.856 13.874)"/>
    <path fill="#F80" d="M1.0672052,0.000209012192 C1.87029446,0.647432908 1.38381465,1.58105237 0.524368747,1.76997387 C0.530779729,2.19427731 0.410345764,2.49902577 0.00828610426,2.94842424 C0.717908822,2.58563337 1.08085516,2.44173254 1.90190014,2.35951475 C1.40637558,1.71721594 2.47529954,0.67903718 1.0672052,0.000209012192 Z" transform="rotate(-60 9.244 1.791)"/>
    <path fill="#F80" d="M1.0672052,0.000209012192 C1.87029446,0.647432908 1.38381465,1.58105237 0.524368747,1.76997387 C0.530779729,2.19427731 0.410345764,2.49902577 0.00828610426,2.94842424 C0.717908822,2.58563337 1.08085516,2.44173254 1.90190014,2.35951475 C1.40637558,1.71721594 2.47529954,0.67903718 1.0672052,0.000209012192 Z" transform="rotate(120 7.44 17.982)"/>
    <path fill="#F80" d="M1.06720482,0.000209012119 C1.87029381,0.647432682 1.38381416,1.58105181 0.524368564,1.76997325 C0.530779543,2.19427654 0.410345621,2.4990249 0.00828610137,2.94842321 C0.717908571,2.58563246 1.08085479,2.44173169 1.90189947,2.35951392 C1.40637508,1.71721534 2.47529868,0.679036943 1.06720482,0.000209012119 Z" transform="rotate(-30 10.957 -12.273)"/>
    <path fill="#F80" d="M1.06720482,0.000209012119 C1.87029381,0.647432682 1.38381416,1.58105181 0.524368564,1.76997325 C0.530779543,2.19427654 0.410345621,2.4990249 0.00828610137,2.94842321 C0.717908571,2.58563246 1.08085479,2.44173169 1.90189947,2.35951392 C1.40637508,1.71721534 2.47529868,0.679036943 1.06720482,0.000209012119 Z" transform="rotate(150 7.671 15.772)"/>
    <path fill="#F80" d="M1.0672052,0.000209012192 C1.87029446,0.647432908 1.38381465,1.58105237 0.524368747,1.76997387 C0.530779729,2.19427731 0.410345764,2.49902577 0.00828610426,2.94842424 C0.717908822,2.58563337 1.08085516,2.44173254 1.90190014,2.35951475 C1.40637558,1.71721594 2.47529954,0.67903718 1.0672052,0.000209012192 Z" transform="rotate(60 6.47 26.2)"/>
    <path fill="#F80" d="M1.0672052,0.000209012192 C1.87029446,0.647432908 1.38381465,1.58105237 0.524368747,1.76997387 C0.530779729,2.19427731 0.410345764,2.49902577 0.00828610426,2.94842424 C0.717908822,2.58563337 1.08085516,2.44173254 1.90190014,2.35951475 C1.40637558,1.71721594 2.47529954,0.67903718 1.0672052,0.000209012192 Z" transform="rotate(-120 8.272 9.847)"/>
    <path fill="#F80" d="M1.06720482,0.000209012119 C1.87029381,0.647432682 1.38381416,1.58105181 0.524368564,1.76997325 C0.530779543,2.19427654 0.410345621,2.4990249 0.00828610137,2.94842321 C0.717908571,2.58563246 1.08085479,2.44173169 1.90189947,2.35951392 C1.40637508,1.71721534 2.47529868,0.679036943 1.06720482,0.000209012119 Z" transform="rotate(90 7.097 21)"/>
    <path fill="#F80" d="M1.06720482,0.000209012119 C1.87029381,0.647432682 1.38381416,1.58105181 0.524368564,1.76997325 C0.530779543,2.19427654 0.410345621,2.4990249 0.00828610137,2.94842321 C0.717908571,2.58563246 1.08085479,2.44173169 1.90189947,2.35951392 C1.40637508,1.71721534 2.47529868,0.679036943 1.06720482,0.000209012119 Z" transform="rotate(-90 8.617 6.91)"/>
    <path fill="#F80" d="M1.0672052,0.000209012192 C1.87029446,0.647432908 1.38381465,1.58105237 0.524368747,1.76997387 C0.530779729,2.19427731 0.410345764,2.49902577 0.00828610426,2.94842424 C0.717908822,2.58563337 1.08085516,2.44173254 1.90190014,2.35951475 C1.40637558,1.71721594 2.47529954,0.67903718 1.0672052,0.000209012192 Z" transform="rotate(-150 8.04 11.997)"/>
    <path fill="#F80" d="M1.0672052,0.000209012192 C1.87029446,0.647432908 1.38381465,1.58105237 0.524368747,1.76997387 C0.530779729,2.19427731 0.410345764,2.49902577 0.00828610426,2.94842424 C0.717908822,2.58563337 1.08085516,2.44173254 1.90190014,2.35951475 C1.40637558,1.71721594 2.47529954,0.67903718 1.0672052,0.000209012192 Z" transform="rotate(30 4.758 40.324)"/>
    <path fill="#F80" d="M15.1609099,1.68316491 C15.9639994,2.33038903 15.4775194,3.26400882 14.6180732,3.45293039 C14.6244842,3.87723398 14.5040502,4.18198254 14.1019904,4.63138117 C14.8116134,4.26859017 15.1745598,4.1246893 15.9956051,4.04247147 C15.5000804,3.40017244 16.5690047,2.36199332 15.1609099,1.68316491 Z"/>
  </g>
</svg>
