<svg xmlns="http://www.w3.org/2000/svg" width="44" height="20" viewBox="0 0 44 20">
  <g fill="none">
    <path fill="#5C3DCC" d="M34.2666667,16.2352941 C30.8166667,16.2352941 28.0166667,13.4117647 28.0166667,9.93277311 C28.0166667,6.45378151 30.8166667,3.6302521 34.2666667,3.6302521 C37.7166667,3.6302521 40.5166667,6.45378151 40.5166667,9.93277311 C40.5333333,13.4285714 37.7333333,16.2352941 34.2666667,16.2352941 Z M34.2666667,0.134453782 C28.9,0.134453782 24.55,4.5210084 24.55,9.93277311 C24.55,15.3445378 28.9,19.7310924 34.2666667,19.7310924 C39.6333333,19.7310924 43.9833333,15.3445378 43.9833333,9.93277311 C44,4.5210084 39.6333333,0.134453782 34.2666667,0.134453782 Z"/>
    <polygon fill="#5C3DCC" points="18.917 4.908 16.467 7.395 19.2 10 16.483 12.571 18.933 15.042 23.95 10"/>
    <path fill="#8B8B89" d="M9.88333333,19.8487395 C7.46666667,19.8487395 5.26666667,19.0084034 3.35,17.3277311 C1.21666667,15.4285714 0.133333333,12.9411765 0.133333333,9.93277311 C0.133333333,7.24369748 1.11666667,4.92436975 3.05,3.00840336 C4.96666667,1.1092437 7.31666667,0.134453782 10.0166667,0.134453782 C12.7,0.134453782 15.0166667,1.1092437 16.9333333,3.04201681 L14.3833333,5.59663866 C13.15,4.35294118 11.7166667,3.74789916 10.0166667,3.74789916 C8.26666667,3.74789916 6.81666667,4.35294118 5.56666667,5.57983193 C4.31666667,6.80672269 3.71666667,8.23529412 3.71666667,9.93277311 C3.71666667,11.8823529 4.36666667,13.4117647 5.71666667,14.605042 C6.96666667,15.697479 8.33333333,16.2352941 9.9,16.2352941 C11.6833333,16.2352941 13.15,15.6302521 14.4,14.4033613 L16.9,16.9915966 C14.9666667,18.8907563 12.6166667,19.8487395 9.88333333,19.8487395"/>
  </g>
</svg>
