<svg xmlns="http://www.w3.org/2000/svg" width="38" height="22" viewBox="0 0 38 22">
  <g>
    <path d="M30.0067662,4.39052686 L29.9877865,4.39052686 L22.6236972,0.0950330489 L15.3545059,4.33350702 L7.89551849,0 L1.42108547e-14,4.59959956 L1.42108547e-14,12.9625079 L15.2406282,21.8576013 L22.5287992,17.6381339 L30.0067662,21.971641 L37.9592235,17.3720414 L37.9592235,9.00913303 L30.0067662,4.39052686 Z M29.9688069,12.9625079 L23.7245146,9.33224539 L30.0257457,5.6449631 L36.270038,9.31323879 L29.9688069,12.9625079 Z M15.1836894,5.58794328 L21.4849205,9.23721235 L15.2596079,12.8674748 L8.97735636,9.19919913 L15.1836894,5.58794328 Z M28.8869691,5.01774499 L22.7185952,8.60999422 L16.4363438,4.96072515 L22.6236972,1.34946929 L28.8869691,5.01774499 Z M14.17777,4.90370533 L12.906136,5.6449631 L7.7626612,8.5529744 L1.63224661,4.90370533 L7.91449809,1.25443625 L14.17777,4.90370533 Z M1.10081748,5.81602258 L7.2691913,9.54131811 L7.2691913,16.1176051 L1.10081748,12.3542964 L1.10081748,5.81602258 Z M8.50286606,10.1875428 L14.6712399,13.8558185 L14.6712399,20.4130988 L8.50286606,16.7448231 L8.50286606,10.1875428 Z M23.174106,10.2635693 L29.4563574,13.9698582 L29.4563574,20.4701187 L23.174106,16.7258166 L23.174106,10.2635693 Z"/>
    <path d="M8.50286606,16.7638298 L14.6712399,20.3940923 L14.6712399,13.8558185 L8.50286606,10.1875428 L8.50286606,16.7638298 Z M1.10081748,12.3352897 L7.2691913,16.0985984 L7.2691913,9.54131811 L1.10081748,5.81602258 L1.10081748,12.3352897 Z M23.174106,16.7448231 L29.4563574,20.4891253 L29.4563574,13.9698582 L23.174106,10.2635693 L23.174106,16.7448231 Z" opacity=".5"/>
  </g>
</svg>
