<svg xmlns="http://www.w3.org/2000/svg" width="50" height="50" viewBox="0 0 50 50">
  <g fill="none" fill-rule="evenodd">
    <circle cx="25" cy="25" r="25" fill="#1F2329"/>
    <g fill="#FFF" fill-rule="nonzero" transform="translate(10 10)">
      <path d="M13.7076923,29.7 C13.6846154,29.7 13.6615385,29.7230769 13.6615385,29.7461538 C13.6615385,29.7692308 13.6846154,29.7923077 13.7076923,29.7923077 C13.7307692,29.7923077 13.7538462,29.7692308 13.7538462,29.7461538 C13.7769231,29.7 13.7538462,29.7 13.7076923,29.7 Z M12.3230769,29.1923077 C12.2769231,29.1923077 12.2307692,29.2384615 12.2307692,29.2846154 C12.2307692,29.3307692 12.2769231,29.3769231 12.3230769,29.3769231 C12.3692308,29.3769231 12.4153846,29.3307692 12.4153846,29.2846154 C12.4153846,29.2384615 12.3692308,29.1923077 12.3230769,29.1923077 Z M10.9615385,28.5692308 C10.8692308,28.5692308 10.8,28.6384615 10.8,28.7307692 C10.8,28.8230769 10.8692308,28.8923077 10.9615385,28.8923077 C11.0538462,28.8923077 11.1230769,28.8230769 11.1230769,28.7307692 C11.1230769,28.6384615 11.0538462,28.5692308 10.9615385,28.5692308 Z M9.69230769,27.8076923 C9.57692308,27.8076923 9.48461538,27.9 9.48461538,28.0153846 C9.48461538,28.1307692 9.57692308,28.2230769 9.69230769,28.2230769 C9.80769231,28.2230769 9.9,28.1307692 9.9,28.0153846 C9.87692308,27.9 9.78461538,27.8076923 9.69230769,27.8076923 Z M8.49230769,26.9076923 C8.35384615,26.9076923 8.23846154,27.0230769 8.23846154,27.1615385 C8.23846154,27.3 8.35384615,27.4153846 8.49230769,27.4153846 C8.63076923,27.4153846 8.74615385,27.3 8.74615385,27.1615385 C8.74615385,27 8.63076923,26.9076923 8.49230769,26.9076923 Z M7.38461538,25.8692308 C7.22307692,25.8692308 7.08461538,26.0076923 7.08461538,26.1692308 C7.08461538,26.3307692 7.22307692,26.4692308 7.38461538,26.4692308 C7.54615385,26.4692308 7.68461538,26.3307692 7.68461538,26.1692308 C7.68461538,26.0076923 7.54615385,25.8692308 7.38461538,25.8692308 Z M6.39230769,24.7384615 C6.20769231,24.7384615 6.04615385,24.9 6.04615385,25.0846154 C6.04615385,25.2692308 6.20769231,25.4307692 6.39230769,25.4307692 C6.57692308,25.4307692 6.73846154,25.2692308 6.73846154,25.0846154 C6.73846154,24.9 6.57692308,24.7384615 6.39230769,24.7384615 Z M5.51538462,23.5153846 C5.28461538,23.5153846 5.1,23.7 5.1,23.9307692 C5.1,24.1615385 5.28461538,24.3461538 5.51538462,24.3461538 C5.74615385,24.3461538 5.93076923,24.1615385 5.93076923,23.9307692 C5.93076923,23.7 5.74615385,23.5153846 5.51538462,23.5153846 Z M5.26153846,22.6384615 C5.26153846,22.3846154 5.05384615,22.1769231 4.8,22.1769231 C4.54615385,22.1769231 4.33846154,22.3846154 4.33846154,22.6384615 C4.33846154,22.8923077 4.54615385,23.1 4.8,23.1 C5.05384615,23.0769231 5.26153846,22.8692308 5.26153846,22.6384615 Z M4.77692308,21.2538462 C4.77692308,20.9769231 4.54615385,20.7461538 4.26923077,20.7461538 C3.99230769,20.7461538 3.76153846,20.9769231 3.76153846,21.2538462 C3.76153846,21.5307692 3.99230769,21.7615385 4.26923077,21.7615385 C4.54615385,21.7615385 4.77692308,21.5538462 4.77692308,21.2538462 Z M4.47692308,19.8461538 C4.47692308,19.5461538 4.22307692,19.2923077 3.92307692,19.2923077 C3.62307692,19.2923077 3.36923077,19.5461538 3.36923077,19.8461538 C3.36923077,20.1461538 3.62307692,20.4 3.92307692,20.4 C4.22307692,20.4 4.47692308,20.1461538 4.47692308,19.8461538 Z M4.36153846,18.3692308 C4.36153846,18.0230769 4.08461538,17.7692308 3.76153846,17.7692308 C3.43846154,17.7692308 3.16153846,18.0461538 3.16153846,18.3692308 C3.16153846,18.6923077 3.43846154,18.9692308 3.76153846,18.9692308 C4.08461538,18.9923077 4.36153846,18.7153846 4.36153846,18.3692308 Z M3.76153846,17.5615385 C4.13076923,17.5615385 4.40769231,17.2615385 4.40769231,16.8923077 C4.40769231,16.5230769 4.10769231,16.2461538 3.76153846,16.2461538 C3.39230769,16.2461538 3.09230769,16.5461538 3.09230769,16.8923077 C3.11538462,17.2615385 3.41538462,17.5615385 3.76153846,17.5615385 Z M3.27692308,15.4615385 C3.27692308,15.8538462 3.6,16.1769231 3.99230769,16.1769231 C4.38461538,16.1769231 4.70769231,15.8538462 4.70769231,15.4615385 C4.70769231,15.0692308 4.38461538,14.7461538 3.99230769,14.7461538 C3.6,14.7461538 3.27692308,15.0692308 3.27692308,15.4615385 Z M24.5538462,26.3076923 C24.5307692,26.3076923 24.5076923,26.3307692 24.5076923,26.3538462 C24.5076923,26.3769231 24.5307692,26.4 24.5538462,26.4 C24.5769231,26.4 24.6,26.3769231 24.6,26.3538462 C24.5769231,26.3307692 24.5769231,26.3076923 24.5538462,26.3076923 Z M23.2384615,26.9538462 C23.1923077,26.9538462 23.1461538,27 23.1461538,27.0461538 C23.1461538,27.0923077 23.1923077,27.1384615 23.2384615,27.1384615 C23.2846154,27.1384615 23.3307692,27.0923077 23.3307692,27.0461538 C23.3307692,26.9769231 23.2846154,26.9538462 23.2384615,26.9538462 Z M21.8769231,27.4384615 C21.8076923,27.4384615 21.7384615,27.5076923 21.7384615,27.5769231 C21.7384615,27.6461538 21.8076923,27.7153846 21.8769231,27.7153846 C21.9461538,27.7153846 22.0153846,27.6461538 22.0153846,27.5769231 C22.0153846,27.5076923 21.9461538,27.4384615 21.8769231,27.4384615 Z M20.4692308,27.7846154 C20.3769231,27.7846154 20.2846154,27.8538462 20.2846154,27.9692308 C20.2846154,28.0615385 20.3538462,28.1538462 20.4692308,28.1538462 C20.5615385,28.1538462 20.6538462,28.0615385 20.6538462,27.9692308 C20.6307692,27.8769231 20.5615385,27.7846154 20.4692308,27.7846154 Z M19.0153846,27.9923077 C18.9,27.9923077 18.7846154,28.0846154 18.7846154,28.2230769 C18.7846154,28.3384615 18.8769231,28.4538462 19.0153846,28.4538462 C19.1307692,28.4538462 19.2461538,28.3615385 19.2461538,28.2230769 C19.2461538,28.0846154 19.1307692,27.9923077 19.0153846,27.9923077 Z M17.5384615,28.0384615 C17.4,28.0384615 17.2615385,28.1538462 17.2615385,28.3153846 C17.2615385,28.4538462 17.3769231,28.5923077 17.5384615,28.5923077 C17.6769231,28.5923077 17.8153846,28.4769231 17.8153846,28.3153846 C17.8153846,28.1538462 17.7,28.0384615 17.5384615,28.0384615 Z M16.0846154,27.9230769 C15.9230769,27.9230769 15.7615385,28.0615385 15.7615385,28.2461538 C15.7615385,28.4076923 15.9,28.5692308 16.0846154,28.5692308 C16.2461538,28.5692308 16.4076923,28.4307692 16.4076923,28.2461538 C16.3846154,28.0615385 16.2461538,27.9230769 16.0846154,27.9230769 Z M14.6307692,27.6692308 C14.4230769,27.6692308 14.2846154,27.8307692 14.2846154,28.0153846 C14.2846154,28.2230769 14.4461538,28.3846154 14.6307692,28.3846154 C14.8384615,28.3846154 15,28.2230769 15,28.0153846 C14.9769231,27.8307692 14.8153846,27.6692308 14.6307692,27.6692308 Z M13.2230769,27.2307692 C12.9923077,27.2307692 12.8307692,27.4153846 12.8307692,27.6230769 C12.8307692,27.8538462 13.0153846,28.0153846 13.2230769,28.0153846 C13.4538462,28.0153846 13.6153846,27.8307692 13.6153846,27.6230769 C13.6153846,27.3923077 13.4307692,27.2307692 13.2230769,27.2307692 Z M11.8615385,26.5846154 C11.6076923,26.5846154 11.4230769,26.7923077 11.4230769,27.0230769 C11.4230769,27.2769231 11.6307692,27.4615385 11.8615385,27.4615385 C12.1153846,27.4615385 12.3,27.2538462 12.3,27.0230769 C12.3230769,26.7923077 12.1153846,26.5846154 11.8615385,26.5846154 Z M11.1,26.2846154 C11.1,26.0076923 10.8692308,25.8 10.6153846,25.8 C10.3384615,25.8 10.1307692,26.0076923 10.1307692,26.2846154 C10.1307692,26.5615385 10.3615385,26.7692308 10.6153846,26.7692308 C10.8692308,26.7692308 11.1,26.5615385 11.1,26.2846154 Z M9.46153846,24.8307692 C9.16153846,24.8307692 8.93076923,25.0615385 8.93076923,25.3615385 C8.93076923,25.6615385 9.16153846,25.8923077 9.46153846,25.8923077 C9.76153846,25.8923077 9.99230769,25.6615385 9.99230769,25.3615385 C9.99230769,25.0615385 9.76153846,24.8307692 9.46153846,24.8307692 Z M8.44615385,23.7230769 C8.12307692,23.7230769 7.86923077,23.9769231 7.86923077,24.3 C7.86923077,24.6230769 8.12307692,24.8769231 8.44615385,24.8769231 C8.76923077,24.8769231 9.02307692,24.6230769 9.02307692,24.3 C9.02307692,23.9769231 8.76923077,23.7230769 8.44615385,23.7230769 Z M7.56923077,23.7461538 C7.91538462,23.7461538 8.19230769,23.4692308 8.19230769,23.1230769 C8.19230769,22.7769231 7.91538462,22.5 7.56923077,22.5 C7.22307692,22.5 6.94615385,22.7769231 6.94615385,23.1230769 C6.94615385,23.4692308 7.22307692,23.7461538 7.56923077,23.7461538 Z M7.52307692,21.8538462 C7.52307692,21.4846154 7.22307692,21.1846154 6.85384615,21.1846154 C6.48461538,21.1846154 6.18461538,21.4846154 6.18461538,21.8538462 C6.18461538,22.2230769 6.48461538,22.5230769 6.85384615,22.5230769 C7.22307692,22.5230769 7.52307692,22.2230769 7.52307692,21.8538462 Z M29.8153846,16.2692308 C29.7923077,16.2692308 29.7692308,16.2923077 29.7692308,16.3153846 C29.7692308,16.3384615 29.7923077,16.3615385 29.8153846,16.3615385 C29.8384615,16.3615385 29.8615385,16.3384615 29.8615385,16.3153846 C29.8384615,16.2692308 29.8153846,16.2692308 29.8153846,16.2692308 Z M29.3769231,17.6307692 C29.3307692,17.6307692 29.3076923,17.6769231 29.3076923,17.7 C29.3076923,17.7461538 29.3538462,17.7692308 29.3769231,17.7692308 C29.4230769,17.7692308 29.4461538,17.7230769 29.4461538,17.7 C29.4461538,17.6538462 29.4,17.6307692 29.3769231,17.6307692 Z M28.7769231,18.9230769 C28.7076923,18.9230769 28.6615385,18.9692308 28.6615385,19.0384615 C28.6615385,19.1076923 28.7076923,19.1538462 28.7769231,19.1538462 C28.8461538,19.1538462 28.8923077,19.1076923 28.8923077,19.0384615 C28.9153846,18.9923077 28.8461538,18.9230769 28.7769231,18.9230769 Z M28.0615385,20.1692308 C27.9692308,20.1692308 27.9,20.2384615 27.9,20.3307692 C27.9,20.4230769 27.9692308,20.4923077 28.0615385,20.4923077 C28.1538462,20.4923077 28.2230769,20.4230769 28.2230769,20.3307692 C28.2230769,20.2384615 28.1538462,20.1692308 28.0615385,20.1692308 Z M27.2076923,21.3230769 C27.0923077,21.3230769 27,21.4153846 27,21.5307692 C27,21.6461538 27.0923077,21.7384615 27.2076923,21.7384615 C27.3230769,21.7384615 27.4153846,21.6461538 27.4153846,21.5307692 C27.4153846,21.4153846 27.3230769,21.3230769 27.2076923,21.3230769 Z M26.2384615,22.3846154 C26.1,22.3846154 26.0076923,22.5 26.0076923,22.6153846 C26.0076923,22.7538462 26.1230769,22.8461538 26.2384615,22.8461538 C26.3769231,22.8461538 26.4692308,22.7307692 26.4692308,22.6153846 C26.4923077,22.5 26.3769231,22.3846154 26.2384615,22.3846154 Z M25.1538462,23.3538462 C24.9923077,23.3538462 24.8769231,23.4692308 24.8769231,23.6307692 C24.8769231,23.7923077 24.9923077,23.9076923 25.1538462,23.9076923 C25.3153846,23.9076923 25.4307692,23.7923077 25.4307692,23.6307692 C25.4307692,23.4692308 25.3153846,23.3538462 25.1538462,23.3538462 Z M23.9769231,24.1615385 C23.7923077,24.1615385 23.6538462,24.3 23.6538462,24.4846154 C23.6538462,24.6692308 23.7923077,24.8076923 23.9769231,24.8076923 C24.1615385,24.8076923 24.3,24.6692308 24.3,24.4846154 C24.3,24.3230769 24.1615385,24.1615385 23.9769231,24.1615385 Z M22.6846154,24.8538462 C22.4769231,24.8538462 22.3153846,25.0153846 22.3153846,25.2230769 C22.3153846,25.4307692 22.4769231,25.5923077 22.6846154,25.5923077 C22.8923077,25.5923077 23.0538462,25.4307692 23.0538462,25.2230769 C23.0538462,25.0153846 22.8923077,24.8538462 22.6846154,24.8538462 Z M21.3230769,25.3384615 C21.0923077,25.3384615 20.9307692,25.5230769 20.9307692,25.7307692 C20.9307692,25.9615385 21.1153846,26.1230769 21.3230769,26.1230769 C21.5538462,26.1230769 21.7153846,25.9384615 21.7153846,25.7307692 C21.7153846,25.5230769 21.5538462,25.3384615 21.3230769,25.3384615 Z M19.8923077,25.6615385 C19.6384615,25.6615385 19.4538462,25.8692308 19.4538462,26.1 C19.4538462,26.3538462 19.6615385,26.5384615 19.8923077,26.5384615 C20.1461538,26.5384615 20.3307692,26.3307692 20.3307692,26.1 C20.3307692,25.8692308 20.1461538,25.6615385 19.8923077,25.6615385 Z M18.4384615,25.7769231 C18.1615385,25.7769231 17.9538462,25.9846154 17.9538462,26.2615385 C17.9538462,26.5153846 18.1615385,26.7461538 18.4384615,26.7461538 C18.7153846,26.7461538 18.9230769,26.5384615 18.9230769,26.2615385 C18.9230769,26.0076923 18.7153846,25.7769231 18.4384615,25.7769231 Z M17.4923077,26.2384615 C17.4923077,25.9615385 17.2615385,25.7076923 16.9615385,25.7076923 C16.6846154,25.7076923 16.4538462,25.9384615 16.4538462,26.2384615 C16.4538462,26.5153846 16.6846154,26.7692308 16.9615385,26.7692308 C17.2615385,26.7692308 17.4923077,26.5384615 17.4923077,26.2384615 Z M16.0846154,26.0307692 C16.0846154,25.7307692 15.8307692,25.4769231 15.5307692,25.4769231 C15.2307692,25.4769231 14.9769231,25.7307692 14.9769231,26.0307692 C14.9769231,26.3307692 15.2307692,26.5846154 15.5307692,26.5846154 C15.8307692,26.5846154 16.0846154,26.3307692 16.0846154,26.0307692 Z M14.7,25.6153846 C14.7,25.2923077 14.4230769,25.0153846 14.1,25.0153846 C13.7769231,25.0153846 13.5,25.2923077 13.5,25.6153846 C13.5,25.9384615 13.7769231,26.2153846 14.1,26.2153846 C14.4461538,26.2153846 14.7,25.9384615 14.7,25.6153846 Z M13.4076923,25.0384615 C13.4076923,24.6923077 13.1307692,24.3923077 12.7615385,24.3923077 C12.4153846,24.3923077 12.1153846,24.6692308 12.1153846,25.0384615 C12.1153846,25.3846154 12.3923077,25.6846154 12.7615385,25.6846154 C13.1076923,25.6615385 13.4076923,25.3846154 13.4076923,25.0384615 Z M26.4230769,5.51538462 C26.4461538,5.51538462 26.4692308,5.49230769 26.4692308,5.46923077 C26.4692308,5.44615385 26.4461538,5.42307692 26.4230769,5.42307692 C26.4,5.42307692 26.3769231,5.44615385 26.3769231,5.46923077 C26.3769231,5.49230769 26.4,5.51538462 26.4230769,5.51538462 Z M27.0923077,6.85384615 C27.1384615,6.85384615 27.1615385,6.80769231 27.1615385,6.78461538 C27.1615385,6.73846154 27.1153846,6.71538462 27.0923077,6.71538462 C27.0461538,6.71538462 27.0230769,6.76153846 27.0230769,6.78461538 C27.0230769,6.80769231 27.0461538,6.85384615 27.0923077,6.85384615 Z M27.6461538,8.26153846 C27.7153846,8.26153846 27.7615385,8.21538462 27.7615385,8.14615385 C27.7615385,8.07692308 27.7153846,8.03076923 27.6461538,8.03076923 C27.5769231,8.03076923 27.5307692,8.07692308 27.5307692,8.14615385 C27.5307692,8.19230769 27.5769231,8.26153846 27.6461538,8.26153846 Z M28.0384615,9.71538462 C28.1307692,9.71538462 28.2,9.64615385 28.2,9.55384615 C28.2,9.46153846 28.1307692,9.39230769 28.0384615,9.39230769 C27.9461538,9.39230769 27.8769231,9.46153846 27.8769231,9.55384615 C27.8769231,9.64615385 27.9461538,9.71538462 28.0384615,9.71538462 Z M28.0846154,11.0076923 C28.0846154,11.1230769 28.1769231,11.2153846 28.2923077,11.2153846 C28.4076923,11.2153846 28.5,11.1230769 28.5,11.0076923 C28.5,10.8923077 28.4076923,10.8 28.2923077,10.8 C28.1769231,10.8 28.0846154,10.8923077 28.0846154,11.0076923 Z M28.3615385,12.2307692 C28.2230769,12.2307692 28.1307692,12.3461538 28.1307692,12.4615385 C28.1307692,12.6 28.2461538,12.6923077 28.3615385,12.6923077 C28.5,12.6923077 28.5923077,12.5769231 28.5923077,12.4615385 C28.6153846,12.3230769 28.5,12.2307692 28.3615385,12.2307692 Z M28.3153846,13.6615385 C28.1538462,13.6615385 28.0384615,13.7769231 28.0384615,13.9384615 C28.0384615,14.1 28.1538462,14.2153846 28.3153846,14.2153846 C28.4769231,14.2153846 28.5923077,14.1 28.5923077,13.9384615 C28.5923077,13.7769231 28.4538462,13.6615385 28.3153846,13.6615385 Z M28.0846154,15.0692308 C27.9,15.0692308 27.7615385,15.2076923 27.7615385,15.3923077 C27.7615385,15.5769231 27.9,15.7153846 28.0846154,15.7153846 C28.2692308,15.7153846 28.4076923,15.5769231 28.4076923,15.3923077 C28.4076923,15.2076923 28.2692308,15.0692308 28.0846154,15.0692308 Z M28.0384615,16.8 C28.0384615,16.5923077 27.8769231,16.4307692 27.6692308,16.4307692 C27.4615385,16.4307692 27.3,16.5923077 27.3,16.8 C27.3,17.0076923 27.4615385,17.1692308 27.6692308,17.1692308 C27.8769231,17.1692308 28.0384615,17.0076923 28.0384615,16.8 Z M27.0923077,17.7461538 C26.8615385,17.7461538 26.7,17.9307692 26.7,18.1384615 C26.7,18.3692308 26.8846154,18.5307692 27.0923077,18.5307692 C27.3230769,18.5307692 27.4846154,18.3461538 27.4846154,18.1384615 C27.5076923,17.9307692 27.3230769,17.7461538 27.0923077,17.7461538 Z M26.3538462,18.9692308 C26.1,18.9692308 25.9153846,19.1769231 25.9153846,19.4076923 C25.9153846,19.6615385 26.1230769,19.8461538 26.3538462,19.8461538 C26.6076923,19.8461538 26.7923077,19.6384615 26.7923077,19.4076923 C26.7923077,19.1538462 26.5846154,18.9692308 26.3538462,18.9692308 Z M25.4307692,20.0769231 C25.1769231,20.0769231 24.9461538,20.2846154 24.9461538,20.5615385 C24.9461538,20.8384615 25.1538462,21.0461538 25.4307692,21.0461538 C25.7076923,21.0461538 25.9153846,20.8384615 25.9153846,20.5615385 C25.9153846,20.2846154 25.6846154,20.0769231 25.4307692,20.0769231 Z M24.3692308,21.0461538 C24.0923077,21.0461538 23.8384615,21.2769231 23.8384615,21.5769231 C23.8384615,21.8538462 24.0692308,22.1076923 24.3692308,22.1076923 C24.6461538,22.1076923 24.9,21.8769231 24.9,21.5769231 C24.9,21.2769231 24.6692308,21.0461538 24.3692308,21.0461538 Z M23.1923077,21.8769231 C22.8923077,21.8769231 22.6384615,22.1307692 22.6384615,22.4307692 C22.6384615,22.7307692 22.8923077,22.9846154 23.1923077,22.9846154 C23.4923077,22.9846154 23.7461538,22.7307692 23.7461538,22.4307692 C23.7461538,22.1307692 23.4923077,21.8769231 23.1923077,21.8769231 Z M21.9,22.5461538 C21.5769231,22.5461538 21.3,22.8230769 21.3,23.1461538 C21.3,23.4692308 21.5769231,23.7461538 21.9,23.7461538 C22.2230769,23.7461538 22.5,23.4692308 22.5,23.1461538 C22.5,22.8230769 22.2461538,22.5461538 21.9,22.5461538 Z M20.5384615,23.0538462 C20.1923077,23.0538462 19.8923077,23.3307692 19.8923077,23.7 C19.8923077,24.0461538 20.1692308,24.3461538 20.5384615,24.3461538 C20.8846154,24.3461538 21.1846154,24.0692308 21.1846154,23.7 C21.1846154,23.3538462 20.8846154,23.0538462 20.5384615,23.0538462 Z M16.3615385,0.253846154 C16.3846154,0.253846154 16.4076923,0.230769231 16.4076923,0.207692308 C16.4076923,0.184615385 16.3846154,0.161538462 16.3615385,0.161538462 C16.3384615,0.161538462 16.3153846,0.184615385 16.3153846,0.207692308 C16.3153846,0.230769231 16.3384615,0.253846154 16.3615385,0.253846154 Z M17.7692308,0.715384615 C17.8153846,0.715384615 17.8384615,0.669230769 17.8384615,0.646153846 C17.8384615,0.6 17.7923077,0.576923077 17.7692308,0.576923077 C17.7230769,0.576923077 17.6769231,0.623076923 17.6769231,0.646153846 C17.6769231,0.692307692 17.7230769,0.715384615 17.7692308,0.715384615 Z M19.1076923,1.33846154 C19.1769231,1.33846154 19.2230769,1.29230769 19.2230769,1.22307692 C19.2230769,1.15384615 19.1769231,1.10769231 19.1076923,1.10769231 C19.0384615,1.10769231 18.9923077,1.15384615 18.9923077,1.22307692 C18.9923077,1.29230769 19.0384615,1.33846154 19.1076923,1.33846154 Z M20.4,2.1 C20.4923077,2.1 20.5615385,2.03076923 20.5615385,1.93846154 C20.5615385,1.84615385 20.4923077,1.77692308 20.4,1.77692308 C20.3076923,1.77692308 20.2384615,1.84615385 20.2384615,1.93846154 C20.2384615,2.03076923 20.3076923,2.1 20.4,2.1 Z M21.6,3 C21.7153846,3 21.8076923,2.90769231 21.8076923,2.79230769 C21.8076923,2.67692308 21.7153846,2.58461538 21.6,2.58461538 C21.4846154,2.58461538 21.3923077,2.67692308 21.3923077,2.79230769 C21.3923077,2.90769231 21.4846154,3 21.6,3 Z M22.6846154,4.01538462 C22.8230769,4.01538462 22.9153846,3.9 22.9153846,3.78461538 C22.9153846,3.64615385 22.8,3.55384615 22.6846154,3.55384615 C22.5461538,3.55384615 22.4538462,3.66923077 22.4538462,3.78461538 C22.4538462,3.9 22.5692308,4.01538462 22.6846154,4.01538462 Z M23.6769231,5.12307692 C23.8384615,5.12307692 23.9538462,5.00769231 23.9538462,4.84615385 C23.9538462,4.68461538 23.8384615,4.56923077 23.6769231,4.56923077 C23.5153846,4.56923077 23.4,4.68461538 23.4,4.84615385 C23.4,5.00769231 23.5384615,5.12307692 23.6769231,5.12307692 Z M24.5538462,6.34615385 C24.7384615,6.34615385 24.8769231,6.20769231 24.8769231,6.02307692 C24.8769231,5.83846154 24.7384615,5.7 24.5538462,5.7 C24.3692308,5.7 24.2307692,5.83846154 24.2307692,6.02307692 C24.2307692,6.20769231 24.3692308,6.34615385 24.5538462,6.34615385 Z M25.2692308,7.68461538 C25.4769231,7.68461538 25.6384615,7.52307692 25.6384615,7.31538462 C25.6384615,7.10769231 25.4769231,6.94615385 25.2692308,6.94615385 C25.0615385,6.94615385 24.9,7.10769231 24.9,7.31538462 C24.9,7.52307692 25.0615385,7.68461538 25.2692308,7.68461538 Z M25.4076923,8.67692308 C25.4076923,8.90769231 25.5923077,9.06923077 25.8,9.06923077 C26.0307692,9.06923077 26.1923077,8.88461538 26.1923077,8.67692308 C26.1923077,8.44615385 26.0076923,8.28461538 25.8,8.28461538 C25.5923077,8.28461538 25.4076923,8.46923077 25.4076923,8.67692308 Z M25.7307692,10.1076923 C25.7307692,10.3615385 25.9384615,10.5461538 26.1692308,10.5461538 C26.4,10.5461538 26.6076923,10.3384615 26.6076923,10.1076923 C26.6076923,9.85384615 26.4,9.66923077 26.1692308,9.66923077 C25.9153846,9.66923077 25.7307692,9.87692308 25.7307692,10.1076923 Z M25.8461538,11.5615385 C25.8461538,11.8384615 26.0538462,12.0461538 26.3307692,12.0461538 C26.6076923,12.0461538 26.8153846,11.8384615 26.8153846,11.5615385 C26.8153846,11.2846154 26.6076923,11.0769231 26.3307692,11.0769231 C26.0769231,11.1 25.8461538,11.3076923 25.8461538,11.5615385 Z M26.8153846,13.0384615 C26.8153846,12.7615385 26.5846154,12.5076923 26.2846154,12.5076923 C26.0076923,12.5076923 25.7538462,12.7384615 25.7538462,13.0384615 C25.7538462,13.3153846 25.9846154,13.5692308 26.2846154,13.5692308 C26.5846154,13.5692308 26.8153846,13.3384615 26.8153846,13.0384615 Z M26.6538462,14.4923077 C26.6538462,14.1923077 26.4,13.9384615 26.1,13.9384615 C25.8,13.9384615 25.5461538,14.1923077 25.5461538,14.4923077 C25.5461538,14.7923077 25.8,15.0461538 26.1,15.0461538 C26.4,15.0461538 26.6538462,14.7923077 26.6538462,14.4923077 Z M26.2846154,15.9 C26.2846154,15.5769231 26.0076923,15.3 25.6846154,15.3 C25.3615385,15.3 25.0846154,15.5769231 25.0846154,15.9 C25.0846154,16.2230769 25.3615385,16.5 25.6846154,16.5 C26.0076923,16.5 26.2846154,16.2461538 26.2846154,15.9 Z M25.0846154,16.6153846 C24.7384615,16.6153846 24.4384615,16.8923077 24.4384615,17.2615385 C24.4384615,17.6076923 24.7153846,17.9076923 25.0846154,17.9076923 C25.4307692,17.9076923 25.7307692,17.6307692 25.7307692,17.2615385 C25.7307692,16.8923077 25.4538462,16.6153846 25.0846154,16.6153846 Z M5.53846154,3.64615385 C5.56153846,3.64615385 5.58461538,3.62307692 5.58461538,3.6 C5.58461538,3.57692308 5.56153846,3.55384615 5.53846154,3.55384615 C5.51538462,3.55384615 5.49230769,3.57692308 5.49230769,3.6 C5.49230769,3.62307692 5.51538462,3.64615385 5.53846154,3.64615385 Z M6.83076923,3 C6.87692308,3 6.92307692,2.95384615 6.92307692,2.93076923 C6.92307692,2.88461538 6.87692308,2.86153846 6.83076923,2.86153846 C6.78461538,2.86153846 6.76153846,2.90769231 6.76153846,2.93076923 C6.76153846,2.95384615 6.78461538,3 6.83076923,3 Z M8.19230769,2.49230769 C8.26153846,2.49230769 8.30769231,2.44615385 8.30769231,2.37692308 C8.30769231,2.30769231 8.26153846,2.26153846 8.19230769,2.26153846 C8.12307692,2.26153846 8.07692308,2.30769231 8.07692308,2.37692308 C8.07692308,2.44615385 8.12307692,2.49230769 8.19230769,2.49230769 Z M9.62307692,2.14615385 C9.71538462,2.14615385 9.78461538,2.07692308 9.78461538,1.98461538 C9.78461538,1.89230769 9.71538462,1.82307692 9.62307692,1.82307692 C9.53076923,1.82307692 9.46153846,1.89230769 9.46153846,1.98461538 C9.46153846,2.05384615 9.53076923,2.14615385 9.62307692,2.14615385 Z M11.0538462,1.93846154 C11.1692308,1.93846154 11.2615385,1.84615385 11.2615385,1.73076923 C11.2615385,1.61538462 11.1692308,1.52307692 11.0538462,1.52307692 C10.9384615,1.52307692 10.8461538,1.61538462 10.8461538,1.73076923 C10.8692308,1.84615385 10.9615385,1.93846154 11.0538462,1.93846154 Z M12.5307692,1.86923077 C12.6692308,1.86923077 12.7615385,1.75384615 12.7615385,1.63846154 C12.7615385,1.5 12.6461538,1.40769231 12.5307692,1.40769231 C12.3923077,1.40769231 12.3,1.52307692 12.3,1.63846154 C12.2769231,1.77692308 12.3923077,1.86923077 12.5307692,1.86923077 Z M14.0076923,1.98461538 C14.1692308,1.98461538 14.2846154,1.86923077 14.2846154,1.70769231 C14.2846154,1.54615385 14.1692308,1.43076923 14.0076923,1.43076923 C13.8461538,1.43076923 13.7307692,1.54615385 13.7307692,1.70769231 C13.7076923,1.86923077 13.8461538,1.98461538 14.0076923,1.98461538 Z M15.4384615,2.23846154 C15.6230769,2.23846154 15.7615385,2.1 15.7615385,1.91538462 C15.7615385,1.73076923 15.6230769,1.59230769 15.4384615,1.59230769 C15.2538462,1.59230769 15.1153846,1.73076923 15.1153846,1.91538462 C15.1384615,2.1 15.2769231,2.23846154 15.4384615,2.23846154 Z M16.8692308,2.67692308 C17.0769231,2.67692308 17.2384615,2.51538462 17.2384615,2.30769231 C17.2384615,2.1 17.0769231,1.93846154 16.8692308,1.93846154 C16.6615385,1.93846154 16.5,2.1 16.5,2.30769231 C16.5,2.51538462 16.6615385,2.67692308 16.8692308,2.67692308 Z M18.2076923,3.3 C18.4384615,3.3 18.6,3.11538462 18.6,2.90769231 C18.6,2.67692308 18.4153846,2.51538462 18.2076923,2.51538462 C17.9769231,2.51538462 17.8153846,2.7 17.8153846,2.90769231 C17.8153846,3.13846154 18,3.3 18.2076923,3.3 Z M19.0384615,3.66923077 C19.0384615,3.92307692 19.2461538,4.10769231 19.4769231,4.10769231 C19.7307692,4.10769231 19.9153846,3.9 19.9153846,3.66923077 C19.9153846,3.41538462 19.7076923,3.23076923 19.4769231,3.23076923 C19.2230769,3.23076923 19.0384615,3.41538462 19.0384615,3.66923077 Z M20.6076923,5.05384615 C20.8615385,5.05384615 21.0923077,4.84615385 21.0923077,4.56923077 C21.0923077,4.31538462 20.8846154,4.08461538 20.6076923,4.08461538 C20.3307692,4.08461538 20.1230769,4.29230769 20.1230769,4.56923077 C20.1461538,4.84615385 20.3538462,5.05384615 20.6076923,5.05384615 Z M21.6461538,6.16153846 C21.9230769,6.16153846 22.1769231,5.93076923 22.1769231,5.63076923 C22.1769231,5.35384615 21.9461538,5.1 21.6461538,5.1 C21.3692308,5.1 21.1153846,5.33076923 21.1153846,5.63076923 C21.1153846,5.93076923 21.3461538,6.16153846 21.6461538,6.16153846 Z M22.5,6.25384615 C22.2,6.25384615 21.9461538,6.50769231 21.9461538,6.80769231 C21.9461538,7.10769231 22.2,7.36153846 22.5,7.36153846 C22.8,7.36153846 23.0538462,7.10769231 23.0538462,6.80769231 C23.0769231,6.50769231 22.8230769,6.25384615 22.5,6.25384615 Z M22.6153846,8.1 C22.6153846,8.42307692 22.8923077,8.7 23.2153846,8.7 C23.5384615,8.7 23.8153846,8.42307692 23.8153846,8.1 C23.8153846,7.77692308 23.5384615,7.5 23.2153846,7.5 C22.8923077,7.5 22.6153846,7.77692308 22.6153846,8.1 Z M23.1230769,9.46153846 C23.1230769,9.80769231 23.4,10.1076923 23.7692308,10.1076923 C24.1153846,10.1076923 24.4153846,9.83076923 24.4153846,9.46153846 C24.4153846,9.11538462 24.1384615,8.81538462 23.7692308,8.81538462 C23.4,8.83846154 23.1230769,9.11538462 23.1230769,9.46153846 Z M24.1153846,10.2230769 C23.7461538,10.2230769 23.4461538,10.5230769 23.4461538,10.9153846 C23.4461538,11.2846154 23.7461538,11.5846154 24.1153846,11.5846154 C24.4846154,11.5846154 24.7846154,11.2846154 24.7846154,10.9153846 C24.7846154,10.5230769 24.4846154,10.2230769 24.1153846,10.2230769 Z M0.276923077,13.5692308 C0.230769231,13.5692308 0.207692308,13.5923077 0.207692308,13.6384615 C0.207692308,13.6846154 0.253846154,13.7076923 0.276923077,13.7076923 C0.323076923,13.7076923 0.346153846,13.6846154 0.346153846,13.6384615 C0.346153846,13.6153846 0.323076923,13.5692308 0.276923077,13.5692308 Z M0.715384615,12.0923077 C0.623076923,12.0923077 0.553846154,12.1615385 0.553846154,12.2538462 C0.553846154,12.3461538 0.623076923,12.4153846 0.715384615,12.4153846 C0.807692308,12.4153846 0.876923077,12.3461538 0.876923077,12.2538462 C0.853846154,12.1615385 0.784615385,12.0923077 0.715384615,12.0923077 Z M1.52307692,10.8923077 C1.52307692,10.7769231 1.43076923,10.6615385 1.29230769,10.6615385 C1.17692308,10.6615385 1.06153846,10.7538462 1.06153846,10.8923077 C1.06153846,11.0076923 1.15384615,11.1230769 1.29230769,11.1230769 C1.40769231,11.1230769 1.52307692,11.0307692 1.52307692,10.8923077 Z M2.00769231,9.92307692 C2.16923077,9.92307692 2.30769231,9.78461538 2.30769231,9.62307692 C2.30769231,9.46153846 2.16923077,9.32307692 2.00769231,9.32307692 C1.84615385,9.32307692 1.70769231,9.46153846 1.70769231,9.62307692 C1.70769231,9.78461538 1.84615385,9.92307692 2.00769231,9.92307692 Z M2.86153846,8.79230769 C3.06923077,8.79230769 3.23076923,8.63076923 3.23076923,8.42307692 C3.23076923,8.21538462 3.06923077,8.05384615 2.86153846,8.05384615 C2.65384615,8.05384615 2.49230769,8.21538462 2.49230769,8.42307692 C2.49230769,8.63076923 2.65384615,8.79230769 2.86153846,8.79230769 Z M3.83076923,7.77692308 C4.08461538,7.77692308 4.29230769,7.56923077 4.29230769,7.31538462 C4.29230769,7.06153846 4.08461538,6.85384615 3.83076923,6.85384615 C3.57692308,6.85384615 3.36923077,7.06153846 3.36923077,7.31538462 C3.39230769,7.56923077 3.57692308,7.77692308 3.83076923,7.77692308 Z M4.91538462,6.85384615 C5.21538462,6.85384615 5.44615385,6.62307692 5.44615385,6.32307692 C5.44615385,6.02307692 5.21538462,5.79230769 4.91538462,5.79230769 C4.61538462,5.79230769 4.38461538,6.02307692 4.38461538,6.32307692 C4.38461538,6.62307692 4.61538462,6.85384615 4.91538462,6.85384615 Z M6.09230769,6.06923077 C6.43846154,6.06923077 6.69230769,5.79230769 6.69230769,5.46923077 C6.69230769,5.14615385 6.41538462,4.86923077 6.09230769,4.86923077 C5.76923077,4.86923077 5.49230769,5.14615385 5.49230769,5.46923077 C5.49230769,5.79230769 5.76923077,6.06923077 6.09230769,6.06923077 Z M7.38461538,5.4 C7.75384615,5.4 8.05384615,5.1 8.05384615,4.73076923 C8.05384615,4.36153846 7.75384615,4.06153846 7.38461538,4.06153846 C7.01538462,4.06153846 6.71538462,4.36153846 6.71538462,4.73076923 C6.69230769,5.1 6.99230769,5.4 7.38461538,5.4 Z"/>
      <path d="M8.74615385,4.93846154 C9.11538462,4.93846154 9.43846154,4.66153846 9.48461538,4.29230769 C9.62307692,4.5 9.87692308,4.63846154 10.1538462,4.63846154 C10.4769231,4.63846154 10.7538462,4.45384615 10.8923077,4.2 C11.0538462,4.40769231 11.3307692,4.56923077 11.6076923,4.56923077 C11.8846154,4.56923077 12.1153846,4.45384615 12.2769231,4.26923077 C12.4615385,4.52307692 12.7384615,4.68461538 13.0846154,4.68461538 C13.2923077,4.68461538 13.4769231,4.61538462 13.6384615,4.5 C13.6846154,4.56923077 13.7076923,4.61538462 13.7538462,4.66153846 C13.5,4.68461538 13.2923077,4.8 13.1076923,4.96153846 C12.9230769,4.8 12.6692308,4.68461538 12.3923077,4.68461538 C12.0461538,4.68461538 11.7461538,4.84615385 11.5384615,5.12307692 C11.3769231,4.98461538 11.1692308,4.91538462 10.9384615,4.91538462 C10.5461538,4.91538462 10.2,5.14615385 10.0384615,5.49230769 C9.92307692,5.37692308 9.73846154,5.30769231 9.53076923,5.30769231 C9.09230769,5.30769231 8.72307692,5.60769231 8.63076923,6.02307692 C8.49230769,5.93076923 8.33076923,5.88461538 8.16923077,5.88461538 C7.68461538,5.88461538 7.29230769,6.27692308 7.29230769,6.76153846 C7.17692308,6.69230769 7.03846154,6.64615385 6.87692308,6.64615385 C6.41538462,6.64615385 6.06923077,7.01538462 6.06923077,7.45384615 C6.06923077,7.52307692 6.09230769,7.61538462 6.09230769,7.68461538 C5.97692308,7.61538462 5.83846154,7.56923077 5.7,7.56923077 C5.28461538,7.56923077 4.93846154,7.91538462 4.93846154,8.33076923 C4.93846154,8.74615385 5.28461538,9.09230769 5.7,9.09230769 C6.11538462,9.09230769 6.46153846,8.74615385 6.46153846,8.33076923 C6.46153846,8.26153846 6.46153846,8.19230769 6.43846154,8.14615385 C6.57692308,8.23846154 6.71538462,8.28461538 6.87692308,8.28461538 C7.31538462,8.28461538 7.68461538,7.93846154 7.68461538,7.5 C7.82307692,7.59230769 7.98461538,7.63846154 8.14615385,7.63846154 L8.19230769,7.63846154 C8.00769231,7.8 7.89230769,8.03076923 7.86923077,8.30769231 C7.8,8.30769231 7.75384615,8.28461538 7.68461538,8.28461538 C7.15384615,8.28461538 6.71538462,8.72307692 6.71538462,9.25384615 L6.71538462,9.36923077 L6.6,9.36923077 C6.09230769,9.36923077 5.7,9.78461538 5.7,10.2692308 C5.7,10.3615385 5.72307692,10.4769231 5.74615385,10.5692308 L5.7,10.5692308 C5.21538462,10.5692308 4.84615385,10.9615385 4.84615385,11.4230769 C4.84615385,11.5846154 4.89230769,11.7461538 4.98461538,11.8615385 L4.96153846,11.8615385 C4.52307692,11.8615385 4.15384615,12.2307692 4.15384615,12.6692308 C4.15384615,12.9 4.24615385,13.1076923 4.40769231,13.2692308 L4.38461538,13.2692308 C3.96923077,13.2692308 3.62307692,13.6153846 3.62307692,14.0307692 C3.62307692,14.4461538 3.96923077,14.7923077 4.38461538,14.7923077 C4.8,14.7923077 5.14615385,14.4461538 5.14615385,14.0307692 C5.14615385,13.8230769 5.05384615,13.6384615 4.91538462,13.5 L4.96153846,13.5 C5.19230769,13.5 5.4,13.4076923 5.56153846,13.2461538 L5.56153846,13.2692308 C5.56153846,13.4769231 5.63076923,13.6615385 5.74615385,13.8230769 C5.4,13.9384615 5.14615385,14.2846154 5.14615385,14.6538462 C5.14615385,14.9307692 5.26153846,15.1615385 5.46923077,15.3230769 C5.16923077,15.4615385 4.98461538,15.7615385 4.98461538,16.0846154 C4.98461538,16.4076923 5.16923077,16.6846154 5.44615385,16.8461538 C5.19230769,16.9846154 5.00769231,17.2384615 5.00769231,17.5615385 C5.00769231,17.9538462 5.28461538,18.2538462 5.63076923,18.3461538 C5.37692308,18.4615385 5.21538462,18.7153846 5.21538462,19.0153846 C5.21538462,19.4307692 5.56153846,19.7769231 5.97692308,19.7769231 C6.02307692,19.7769231 6.06923077,19.7769231 6.11538462,19.7538462 C5.81538462,19.8461538 5.60769231,20.1230769 5.60769231,20.4230769 C5.60769231,20.8153846 5.93076923,21.1384615 6.32307692,21.1384615 C6.71538462,21.1384615 7.03846154,20.8153846 7.03846154,20.4230769 C7.03846154,20.0307692 6.71538462,19.7076923 6.32307692,19.7076923 C6.27692308,19.7076923 6.23076923,19.7076923 6.18461538,19.7307692 C6.48461538,19.6384615 6.71538462,19.3384615 6.71538462,19.0153846 L6.71538462,18.9692308 C6.83076923,19.1076923 6.99230769,19.2 7.15384615,19.2230769 C7.03846154,19.3615385 6.94615385,19.5692308 6.94615385,19.7769231 C6.94615385,20.2384615 7.31538462,20.6076923 7.77692308,20.6076923 L7.8,20.6076923 C7.70769231,20.7461538 7.63846154,20.9076923 7.63846154,21.0692308 C7.63846154,21.5076923 8.00769231,21.8769231 8.44615385,21.8769231 C8.53846154,21.8769231 8.60769231,21.8538462 8.67692308,21.8538462 C8.60769231,21.9692308 8.56153846,22.1076923 8.56153846,22.2692308 C8.56153846,22.6846154 8.90769231,23.0307692 9.32307692,23.0307692 C9.50769231,23.0307692 9.66923077,22.9615385 9.78461538,22.8692308 C9.66923077,22.9846154 9.6,23.1692308 9.6,23.3307692 C9.6,23.7230769 9.92307692,24.0461538 10.3153846,24.0461538 C10.7076923,24.0461538 11.0307692,23.7230769 11.0307692,23.3307692 C11.0307692,23.1461538 10.9615385,22.9615385 10.8230769,22.8461538 C10.9153846,22.8461538 11.0076923,22.8230769 11.1,22.8 C11.1,23.1461538 11.2846154,23.4461538 11.5846154,23.5846154 C11.5384615,23.5846154 11.4923077,23.5615385 11.4461538,23.5615385 C11.0769231,23.5615385 10.7769231,23.8615385 10.7769231,24.2307692 C10.7769231,24.6 11.0769231,24.9230769 11.4461538,24.9230769 C11.8153846,24.9230769 12.1384615,24.6230769 12.1384615,24.2307692 C12.1384615,23.9769231 12,23.7461538 11.7692308,23.6307692 C11.8384615,23.6538462 11.9076923,23.6538462 11.9769231,23.6538462 C12.1384615,23.6538462 12.3,23.6076923 12.4384615,23.5153846 C12.4846154,23.9538462 12.8307692,24.2769231 13.2692308,24.2769231 C13.5,24.2769231 13.7307692,24.1846154 13.8692308,24.0230769 C13.9384615,24.4153846 14.2615385,24.6923077 14.6538462,24.6923077 C14.9538462,24.6923077 15.2307692,24.5307692 15.3692308,24.2769231 C15.4384615,24.6230769 15.7384615,24.8769231 16.1076923,24.8769231 C16.5,24.8769231 16.8230769,24.5769231 16.8692308,24.2076923 C16.8923077,24.5769231 17.1923077,24.8769231 17.5846154,24.8769231 C17.9769231,24.8769231 18.3,24.5538462 18.3,24.1615385 C18.3,23.7692308 17.9769231,23.4461538 17.6076923,23.4461538 C17.6769231,23.3769231 17.7230769,23.3076923 17.7692308,23.2153846 C17.9307692,23.3769231 18.1615385,23.4923077 18.3923077,23.4923077 C18.4846154,23.4923077 18.5769231,23.4692308 18.6692308,23.4461538 C18.4846154,23.5615385 18.3692308,23.7692308 18.3692308,24 C18.3692308,24.3692308 18.6692308,24.6923077 19.0615385,24.6923077 C19.4307692,24.6923077 19.7307692,24.3923077 19.7307692,24 C19.7307692,23.6307692 19.4307692,23.3307692 19.0615385,23.3307692 C18.9923077,23.3307692 18.9230769,23.3538462 18.8769231,23.3538462 C19.0846154,23.2384615 19.2230769,23.0307692 19.2692308,22.8 C19.4076923,22.9153846 19.6153846,23.0076923 19.8,23.0076923 C20.2615385,23.0076923 20.6538462,22.6384615 20.6538462,22.1769231 L20.6538462,22.1538462 C20.7923077,22.2461538 20.9538462,22.3153846 21.1153846,22.3153846 C21.5538462,22.3153846 21.9230769,21.9461538 21.9230769,21.5076923 C21.9230769,21.4153846 21.9230769,21.3461538 21.8769231,21.2769231 C21.9923077,21.3461538 22.1307692,21.4153846 22.2923077,21.4153846 C22.7076923,21.4153846 23.0538462,21.0692308 23.0538462,20.6538462 C23.0538462,20.4692308 22.9846154,20.3076923 22.8923077,20.1923077 C23.0076923,20.3076923 23.1692308,20.3769231 23.3538462,20.3769231 C23.7461538,20.3769231 24.0692308,20.0538462 24.0692308,19.6615385 C24.0692308,19.2692308 23.7461538,18.9461538 23.3538462,18.9461538 C23.1692308,18.9461538 22.9846154,19.0153846 22.8461538,19.1538462 C22.8461538,19.0615385 22.8230769,18.9692308 22.8,18.8769231 C23.1461538,18.8769231 23.4461538,18.6923077 23.5846154,18.3923077 C23.5846154,18.4384615 23.5615385,18.4846154 23.5615385,18.5307692 C23.5615385,18.9 23.8615385,19.2 24.2538462,19.2 C24.6230769,19.2 24.9461538,18.9 24.9461538,18.5307692 C24.9461538,18.1615385 24.6461538,17.8615385 24.2538462,17.8615385 C24,17.8615385 23.7692308,18 23.6538462,18.2307692 C23.6769231,18.1615385 23.6769231,18.0923077 23.6769231,18.0230769 C23.6769231,17.8615385 23.6307692,17.7 23.5384615,17.5615385 C23.9769231,17.5384615 24.3,17.1692308 24.3,16.7307692 C24.3,16.5 24.2076923,16.2692308 24.0461538,16.1307692 C24.4384615,16.0615385 24.7153846,15.7384615 24.7153846,15.3461538 C24.7153846,15.0461538 24.5538462,14.7692308 24.3,14.6307692 C24.6461538,14.5615385 24.9,14.2615385 24.9,13.8923077 C24.9,13.5 24.6,13.1769231 24.2076923,13.1307692 C24.5769231,13.1076923 24.8769231,12.7846154 24.8769231,12.4153846 C24.8769231,12.0230769 24.5538462,11.7 24.1615385,11.7 C23.7692308,11.7 23.4461538,12.0230769 23.4461538,12.4153846 C23.4461538,12.7846154 23.7230769,13.0846154 24.0923077,13.1307692 C23.7,13.1538462 23.3769231,13.4769231 23.3769231,13.8923077 C23.3769231,14.1692308 23.5384615,14.4230769 23.7692308,14.5615385 C23.4,14.6307692 23.1,14.9538462 23.1,15.3461538 C23.1,15.5769231 23.1923077,15.7615385 23.3307692,15.9 C22.9153846,15.9461538 22.5923077,16.3153846 22.5923077,16.7307692 C22.5923077,16.8923077 22.6384615,17.0307692 22.7076923,17.1461538 C22.2461538,17.1692308 21.8769231,17.5615385 21.8769231,18.0230769 C21.8769231,18.1153846 21.9,18.2076923 21.9230769,18.2769231 L21.8769231,18.2769231 C21.3692308,18.2769231 20.9538462,18.6923077 20.9538462,19.2 L20.9538462,19.2692308 C20.9076923,19.2692308 20.8615385,19.2461538 20.8153846,19.2461538 C20.3307692,19.2461538 19.9384615,19.6153846 19.8692308,20.0769231 C19.7769231,20.0538462 19.7076923,20.0307692 19.6153846,20.0307692 C19.2230769,20.0307692 18.8769231,20.2615385 18.7153846,20.6076923 C18.5076923,20.4461538 18.2538462,20.3769231 18,20.4230769 C17.7,20.4692308 17.4692308,20.6769231 17.3538462,20.9307692 C17.1692308,20.7230769 16.8923077,20.6076923 16.5923077,20.6538462 C16.2923077,20.7 16.0615385,20.8615385 15.9461538,21.1153846 C15.7846154,20.9076923 15.5307692,20.7923077 15.2538462,20.7923077 C15,20.7923077 14.7692308,20.9076923 14.6076923,21.0692308 C14.5153846,20.8384615 14.3076923,20.6538462 14.0538462,20.5846154 C13.7769231,20.4923077 13.5,20.5615385 13.2923077,20.7 C13.2230769,20.4461538 13.0615385,20.2153846 12.8076923,20.1 C12.5538462,19.9846154 12.3,19.9846154 12.0692308,20.1 C12.0692308,19.8461538 11.9538462,19.6153846 11.7461538,19.4307692 C11.5384615,19.2692308 11.2846154,19.2230769 11.0538462,19.2461538 C11.1230769,18.9923077 11.0538462,18.7384615 10.8923077,18.5076923 C10.7307692,18.2769231 10.4538462,18.1615385 10.2,18.1615385 C10.2923077,17.9307692 10.2923077,17.6538462 10.1769231,17.4 C10.0615385,17.1692308 9.85384615,17.0307692 9.62307692,16.9615385 C9.76153846,16.7769231 9.83076923,16.5230769 9.78461538,16.2923077 C9.73846154,16.0153846 9.57692308,15.7846154 9.34615385,15.6692308 C9.55384615,15.5076923 9.69230769,15.2538462 9.69230769,14.9538462 C9.69230769,14.7 9.57692308,14.4692308 9.39230769,14.3076923 C9.62307692,14.1923077 9.78461538,13.9846154 9.85384615,13.7307692 C9.92307692,13.4769231 9.85384615,13.2230769 9.71538462,13.0153846 C9.94615385,12.9692308 10.1538462,12.8076923 10.2923077,12.6 C10.4307692,12.3692308 10.4538462,12.0923077 10.3615385,11.8615385 C10.6153846,11.8846154 10.8692308,11.7692308 11.0538462,11.5615385 C11.2384615,11.3538462 11.3076923,11.1 11.2615385,10.8461538 C11.4923077,10.9153846 11.7692308,10.8692308 11.9769231,10.7076923 C12.2076923,10.5461538 12.3230769,10.3153846 12.3461538,10.0615385 C12.5769231,10.1769231 12.8538462,10.2 13.1076923,10.0846154 C13.3384615,9.99230769 13.5230769,9.78461538 13.5923077,9.57692308 C13.7769231,9.73846154 14.0076923,9.83076923 14.2615385,9.80769231 C14.5384615,9.78461538 14.7923077,9.62307692 14.9307692,9.39230769 C15.0692308,9.6 15.3230769,9.73846154 15.5769231,9.76153846 C15.8307692,9.78461538 16.0846154,9.69230769 16.2461538,9.50769231 C16.3384615,9.73846154 16.5230769,9.92307692 16.8,10.0153846 C17.0538462,10.1076923 17.3538462,10.0615385 17.5615385,9.92307692 C17.6076923,10.1769231 17.7692308,10.4076923 18,10.5461538 C18.2076923,10.6615385 18.4153846,10.6846154 18.6230769,10.6384615 C18.6461538,10.6615385 18.6692308,10.7076923 18.6923077,10.7307692 C18.6923077,10.9153846 18.7846154,11.1 18.9230769,11.2615385 L18.9461538,11.2846154 C19.3846154,11.7461538 20.4461538,12.9 20.2384615,14.4230769 C20.1923077,14.8153846 20.4,15 20.6769231,14.7 C22.3384615,12.9230769 22.0846154,10.7076923 22.0384615,10.4538462 C22.0384615,10.2923077 21.9923077,10.1307692 21.9230769,9.96923077 C21.9461538,9.87692308 21.9461538,9.78461538 21.9461538,9.69230769 C21.9461538,9.23076923 21.7153846,8.81538462 21.3923077,8.56153846 C21.4153846,8.46923077 21.4153846,8.4 21.4153846,8.30769231 C21.4153846,7.73076923 21.0692308,7.24615385 20.5615385,7.03846154 C20.5384615,6.39230769 20.0769231,5.88461538 19.4538462,5.76923077 C19.3384615,5.19230769 18.8538462,4.75384615 18.2307692,4.75384615 L18.1615385,4.75384615 C18,4.29230769 17.5615385,3.94615385 17.0538462,3.94615385 C16.9615385,3.94615385 16.8461538,3.96923077 16.7538462,3.99230769 C16.5692308,3.6 16.2,3.34615385 15.7384615,3.34615385 C15.5538462,3.34615385 15.3923077,3.39230769 15.2538462,3.46153846 C15.0692308,3.16153846 14.7461538,2.95384615 14.3538462,2.95384615 C14.1,2.95384615 13.8923077,3.04615385 13.7076923,3.18461538 C13.5230769,2.93076923 13.2461538,2.76923077 12.9230769,2.76923077 C12.6230769,2.76923077 12.3461538,2.90769231 12.1615385,3.13846154 C12,2.93076923 11.7461538,2.79230769 11.4461538,2.79230769 C11.0769231,2.79230769 10.7538462,3 10.6153846,3.32307692 C10.4538462,3.13846154 10.2461538,3.02307692 9.96923077,3.02307692 C9.53076923,3.02307692 9.18461538,3.34615385 9.13846154,3.76153846 C9,3.57692308 8.79230769,3.46153846 8.53846154,3.46153846 C8.12307692,3.46153846 7.77692308,3.80769231 7.77692308,4.22307692 C7.98461538,4.59230769 8.33076923,4.93846154 8.74615385,4.93846154 Z M3.66923077,24.4153846 C3.64615385,24.4153846 3.62307692,24.4384615 3.62307692,24.4846154 C3.62307692,24.5076923 3.64615385,24.5538462 3.66923077,24.5538462 C3.69230769,24.5538462 3.73846154,24.5307692 3.73846154,24.4846154 C3.71538462,24.4384615 3.69230769,24.4153846 3.66923077,24.4153846 Z M2.97692308,23.0538462 C2.90769231,23.0538462 2.86153846,23.1 2.86153846,23.1692308 C2.86153846,23.2384615 2.90769231,23.2846154 2.97692308,23.2846154 C3.04615385,23.2846154 3.09230769,23.2384615 3.09230769,23.1692308 C3.09230769,23.1230769 3.04615385,23.0538462 2.97692308,23.0538462 Z M2.44615385,21.6461538 C2.35384615,21.6461538 2.26153846,21.7153846 2.26153846,21.8307692 C2.26153846,21.9230769 2.33076923,22.0153846 2.44615385,22.0153846 C2.53846154,22.0153846 2.63076923,21.9461538 2.63076923,21.8307692 C2.60769231,21.7153846 2.53846154,21.6461538 2.44615385,21.6461538 Z M2.03076923,20.1692308 C1.89230769,20.1692308 1.8,20.2846154 1.8,20.4 C1.8,20.5384615 1.89230769,20.6307692 2.03076923,20.6307692 C2.16923077,20.6307692 2.26153846,20.5384615 2.26153846,20.4 C2.28461538,20.2615385 2.16923077,20.1692308 2.03076923,20.1692308 Z M2.07692308,18.9461538 C2.07692308,18.7846154 1.93846154,18.6461538 1.77692308,18.6461538 C1.61538462,18.6461538 1.47692308,18.7846154 1.47692308,18.9461538 C1.47692308,19.1076923 1.61538462,19.2461538 1.77692308,19.2461538 C1.96153846,19.2461538 2.07692308,19.1076923 2.07692308,18.9461538 Z M2.05384615,17.4923077 C2.05384615,17.3076923 1.89230769,17.1461538 1.70769231,17.1461538 C1.52307692,17.1461538 1.36153846,17.3076923 1.36153846,17.4923077 C1.36153846,17.6769231 1.52307692,17.8384615 1.70769231,17.8384615 C1.89230769,17.8384615 2.05384615,17.6769231 2.05384615,17.4923077 Z M1.36153846,16.0153846 C1.36153846,16.2461538 1.54615385,16.4307692 1.77692308,16.4307692 C2.00769231,16.4307692 2.19230769,16.2461538 2.19230769,16.0153846 C2.19230769,15.7846154 2.00769231,15.6 1.77692308,15.6 C1.54615385,15.6 1.36153846,15.7846154 1.36153846,16.0153846 Z M1.98461538,15.0230769 C2.23846154,15.0230769 2.44615385,14.8153846 2.44615385,14.5615385 C2.44615385,14.3076923 2.23846154,14.1 1.98461538,14.1 C1.73076923,14.1 1.52307692,14.3076923 1.52307692,14.5615385 C1.52307692,14.8153846 1.73076923,15.0230769 1.98461538,15.0230769 Z M2.4,12.6230769 C2.1,12.6230769 1.86923077,12.8538462 1.86923077,13.1538462 C1.86923077,13.4538462 2.1,13.6846154 2.4,13.6846154 C2.7,13.6846154 2.93076923,13.4538462 2.93076923,13.1538462 C2.90769231,12.8538462 2.67692308,12.6230769 2.4,12.6230769 Z M2.97692308,12.3923077 C3.3,12.3923077 3.55384615,12.1384615 3.55384615,11.8153846 C3.55384615,11.4923077 3.3,11.2384615 2.97692308,11.2384615 C2.65384615,11.2384615 2.4,11.4923077 2.4,11.8153846 C2.4,12.1153846 2.65384615,12.3923077 2.97692308,12.3923077 Z"/>
      <path d="M3.73846154,11.1923077 C4.08461538,11.1923077 4.38461538,10.9153846 4.38461538,10.5461538 C4.38461538,10.2 4.10769231,9.9 3.73846154,9.9 C3.39230769,9.9 3.09230769,10.1769231 3.09230769,10.5461538 C3.09230769,10.8923077 3.36923077,11.1923077 3.73846154,11.1923077 Z M5.35384615,9.39230769 C5.35384615,9 5.03076923,8.7 4.66153846,8.7 C4.26923077,8.7 3.96923077,9.02307692 3.96923077,9.39230769 C3.96923077,9.78461538 4.29230769,10.0846154 4.66153846,10.0846154 C5.03076923,10.1076923 5.35384615,9.78461538 5.35384615,9.39230769 Z"/>
    </g>
  </g>
</svg>
