<svg xmlns="http://www.w3.org/2000/svg" width="36" height="26" viewBox="0 0 36 26">
  <g fill="none">
    <path fill="#2B2D38" d="M19.7762262,16.4919784 L21.269496,17.4054162 L21.2258968,17.3835374 C20.3266651,18.9916255 18.9750925,20.2988808 17.3455756,21.1412126 C12.7676684,23.5205266 7.16518206,21.781166 4.83262937,17.2522649 C2.50007669,12.7233638 4.31488988,7.13334341 8.89279701,4.75402944 C12.4897241,2.88886607 17.3346758,3.24986543 20.7027075,6.60825343 C21.4874915,5.61824003 22.403073,5.00016537 23.3786032,4.15236383 C19.6181795,-0.042886329 12.2390291,-1.24074785 7.15973217,1.39564143 C0.70706306,4.74855975 -1.85438498,12.6413185 1.43189836,19.0189739 C4.7181817,25.3966293 12.6259713,27.8525189 19.0786404,24.4996006 C21.3239949,23.3345572 23.1933069,21.5514391 24.4631312,19.3580945 L25.9346013,20.2605929 L26,13.2593932 L19.7762262,16.4919784 Z"/>
    <path fill="#83BD31" d="M35.1892815,10.0437544 C33.9142566,7.55081157 31.3589162,6 28.5231761,6 C26.0419035,6.00529287 23.7140572,7.21206775 22.2803155,9.23394495 L21.0793584,8.49294284 L21,14.3468596 L26.2323637,11.6686662 L25.0684405,10.9488356 C25.8937679,9.88496824 27.1582117,9.26040932 28.5020139,9.26040932 C30.0838913,9.24982357 31.5387952,10.1284404 32.2636019,11.5363444 C32.7767862,12.5314044 32.8614352,13.6958363 32.5069677,14.7597036 C32.1525002,15.8394495 31.385369,16.733945 30.3695815,17.2473536 C29.7823294,17.5490473 29.1315905,17.7078335 28.4702705,17.7025406 C28.2110331,17.7025406 27.9570862,17.6813691 27.6978488,17.6390261 L27.6978488,20.9682428 C27.9200523,20.9894143 28.1422558,21 28.3697499,21 C29.5812881,20.9947071 30.7769546,20.708892 31.8562288,20.1531404 C35.5702018,18.2477064 37.0674303,13.7170078 35.1892815,10.0437544 Z"/>
  </g>
</svg>
