<?xml version="1.0" encoding="UTF-8"?>
<svg width="29px" height="21px" viewBox="0 0 29 21" version="1.1" xmlns="http://www.w3.org/2000/svg" xmlns:xlink="http://www.w3.org/1999/xlink">
    <!-- Generator: Sketch 50.2 (55047) - http://www.bohemiancoding.com/sketch -->
    <title>conversio</title>
    <desc>Created with Sketch.</desc>
    <defs></defs>
    <g id="Page-1" stroke="none" stroke-width="1" fill="none" fill-rule="evenodd">
        <g id="hireremote.ly" transform="translate(-959.000000, -651.000000)" fill-rule="nonzero">
            <g id="conversio" transform="translate(959.000000, 651.000000)">
                <path d="M15.9308489,13.3204441 L17.1337606,14.0582208 L17.0986391,14.0405495 C16.374258,15.3393898 15.2854912,16.3952498 13.9728248,17.0755948 C10.2850662,18.9973484 5.77195221,17.5924802 3.89295144,13.9345217 C2.01395067,10.2765631 3.47588351,5.7615466 7.16364204,3.83979301 C10.0611666,2.3333149 13.9640444,2.62489131 16.677181,5.33743547 C17.3093682,4.53780926 18.0469199,4.0385951 18.8327637,3.35383233 C15.8035334,-0.0346389581 9.85921792,-1.00214249 5.76756203,1.12724885 C0.569578576,3.83537518 -1.49381012,10.2102957 1.15347368,15.3614789 C3.80075748,20.5126621 10.1709213,22.4962653 15.3689048,19.788139 C17.1776625,18.8471424 18.6834973,17.4069316 19.7064112,15.6353841 L20.8917622,16.3643251 L20.9444444,10.7095099 L15.9308489,13.3204441 Z" id="Shape" fill="#2B2D38"></path>
                <path d="M28.3469212,8.11226318 C27.3198178,6.09873242 25.2613492,4.84615385 22.977003,4.84615385 C20.9782001,4.85042886 19.1029905,5.82513164 17.9480319,7.45818631 L16.9805943,6.8596846 L16.9166667,11.5878481 L21.1316263,9.42469193 L20.1940215,8.84329027 C20.8588686,7.98401281 21.8774483,7.47956137 22.9599556,7.47956137 C24.2342457,7.47101135 25.4062517,8.18066337 25.9901238,9.31781662 C26.4035222,10.1215189 26.4717117,11.0620216 26.1861684,11.9212991 C25.9006251,12.7934016 25.2826584,13.5158786 24.4643851,13.9305548 C23.9913209,14.1742305 23.4671146,14.3024809 22.9343846,14.2982059 C22.7255544,14.2982059 22.5209861,14.2811058 22.312156,14.2469057 L22.312156,16.9358884 C22.4911532,16.9529884 22.6701505,16.9615385 22.8534096,16.9615385 C23.829371,16.9572634 24.7925468,16.7264128 25.6619621,16.2775365 C28.6537737,14.7385321 29.8598744,11.0791217 28.3469212,8.11226318 Z" id="Shape" fill="#83BD31"></path>
            </g>
        </g>
    </g>
</svg>