<svg xmlns="http://www.w3.org/2000/svg" width="30" height="30" viewBox="0 0 30 30">
  <g fill="none">
    <path fill="#F1606D" d="M15.0233333,1.44291667 C12.6229167,1.44291667 10.5870833,5.2825 9.85180556,10.6191667 C9.82833333,10.7908333 9.80555556,10.9645833 9.78541667,11.1394444 C9.685,11.9793056 9.61694444,12.8526389 9.58291667,13.7516667 C9.56666667,14.1630556 9.55861111,14.5788889 9.55861111,15 C9.55861111,15.4206944 9.56666667,15.8373611 9.58291667,16.2479167 C9.61694444,17.1468056 9.685,18.0206944 9.78541667,18.8605556 C10.9109722,19.00625 12.1144444,19.1051389 13.3697222,19.1520833 C13.9123611,19.1723611 14.4630556,19.1844444 15.0234722,19.1844444 C15.5822222,19.1844444 16.1345833,19.1722222 16.6755556,19.1520833 C17.9323611,19.1051389 19.135,19.00625 20.2615278,18.8605556 C20.3854167,18.8447222 20.5073611,18.8273611 20.6308333,18.8094444 C25.3188889,18.1511111 28.5801389,16.6938889 28.5801389,15 C28.58,7.51222222 22.5098611,1.44291667 15.0233333,1.44291667 Z"/>
    <path fill="#FFF" d="M20.6306944,11.1901389 C20.4947222,10.9918056 20.3488889,10.8018056 20.1934722,10.6193056 C18.9495833,9.15305556 17.0966667,8.22138889 15.0234722,8.22138889 C14.3513889,8.22138889 13.7529167,9.25013889 13.3697222,10.8476389 C13.2175,11.4845833 13.0993056,12.2113889 13.0231944,13.0001389 C12.9631944,13.6322222 12.9308333,14.3044444 12.9308333,15 C12.9308333,15.6955556 12.9631944,16.3679167 13.0231944,16.9994444 C13.6556944,17.0594444 14.3269444,17.0916667 15.0234722,17.0916667 C15.7191667,17.0916667 16.3904167,17.0594444 17.0229167,16.9994444 C18.4133333,16.8675 19.6136111,16.6001389 20.4638889,16.2479167 C21.3036111,15.9005556 21.8005556,15.4680556 21.8005556,15 C21.8004167,13.5877778 21.3691667,12.2761111 20.6306944,11.1901389 Z"/>
    <path fill="#53A3DA" d="M15.0233333,0.0731944444 C6.79138889,0.0731944444 0.0956944444,6.76930556 0.0956944444,15 C0.0956944444,23.23125 6.79138889,29.9269444 15.0233333,29.9269444 C23.2527778,29.9269444 29.9490278,23.23125 29.9490278,15 C29.9490278,6.76930556 23.2527778,0.0731944444 15.0233333,0.0731944444 Z M20.6308333,18.8094444 C20.5073611,18.8273611 20.3854167,18.8447222 20.2615278,18.8605556 C19.135,19.00625 17.9323611,19.1051389 16.6755556,19.1520833 C16.1345833,19.1722222 15.5822222,19.1844444 15.0234722,19.1844444 C14.4630556,19.1844444 13.9123611,19.1723611 13.3697222,19.1520833 C12.1144444,19.1051389 10.9109722,19.00625 9.78541667,18.8605556 C9.685,18.0206944 9.61694444,17.1468056 9.58291667,16.2479167 C9.56666667,15.8373611 9.55861111,15.4206944 9.55861111,15 C9.55861111,14.5788889 9.56666667,14.1630556 9.58291667,13.7516667 C9.61694444,12.8526389 9.685,11.9793056 9.78541667,11.1394444 C9.80555556,10.9645833 9.82833333,10.7908333 9.85180556,10.6191667 C10.5870833,5.2825 12.6229167,1.44291667 15.0233333,1.44291667 C22.5098611,1.44291667 28.58,7.51222222 28.5801389,15 C28.5801389,16.6938889 25.3188889,18.1511111 20.6308333,18.8094444 Z"/>
  </g>
</svg>
