<svg xmlns="http://www.w3.org/2000/svg" width="30" height="20" viewBox="0 0 30 20">
  <g fill="none">
    <polygon fill="#82BFBE" points="4.75 4.5 .375 1.5 .375 13.625 4.75 10.625"/>
    <path fill="#235A5A" d="M25.875,19.5 C27.875,19.5 29.375,17.75 29.375,15.5 L29.375,11 L29.375,10.5 L29.375,9.5 L15,19.5 L25.875,19.5 Z"/>
    <path fill="#2C7A79" d="M29.5,1.5 L15,11.625 L3.625,19.5 C3.75,19.5 3.875,19.5 4,19.5 L15.125,19.5 L29.5,9.5 L29.5,1.5 Z"/>
    <path fill="#123B4F" d="M6,8.375 L9.25,6.125 L15,10.125 L29.5,1.77635684e-15 L0.375,1.77635684e-15 L5.875,3.875 L5.875,8.375 L6,8.375 Z M14.875,8.75 L9.75,5.125 L26.25,1.25 L14.875,8.75 Z M4.125,1.25 L25.875,0.75 L7.125,3.375 L4.125,1.25 Z"/>
    <path fill="#389798" d="M9.125,7.5 L0.375,13.5 L0.375,15.625 C0.375,16.75 1,17.75 1.625,18.5 C2,18.875 2.5,19.25 3.5,19.375 L14.875,11.5 L9.125,7.5 Z"/>
  </g>
</svg>
