<?xml version="1.0" encoding="UTF-8"?>
<svg width="114px" height="124px" viewBox="0 0 114 124" version="1.1" xmlns="http://www.w3.org/2000/svg" xmlns:xlink="http://www.w3.org/1999/xlink">
    <!-- Generator: Sketch 56.2 (81672) - https://sketch.com -->
    <title>dailynclexchallenge</title>
    <desc>Created with Sketch.</desc>
    <defs>
        <polygon id="path-1" points="0.457082587 0.453572139 112.714348 0.453572139 112.714348 112.711005 0.457082587 112.711005"></polygon>
        <polygon id="path-3" points="0 0.386873632 33.0900935 0.386873632 33.0900935 24.6362667 0 24.6362667"></polygon>
        <polygon id="path-5" points="0 138.746269 113.828776 138.746269 113.828776 0.0172736318 0 0.0172736318"></polygon>
        <path d="M0.456915423,56.5822886 C0.456915423,87.5812139 25.5867065,112.711005 56.5856318,112.711005 L56.5856318,112.711005 C87.5845572,112.711005 112.714348,87.5812139 112.714348,56.5822886 L112.714348,56.5822886 C112.714348,25.5833632 87.5845572,0.453572139 56.5856318,0.453572139 L56.5856318,0.453572139 C25.5867065,0.453572139 0.456915423,25.5833632 0.456915423,56.5822886 L0.456915423,56.5822886 Z" id="path-7"></path>
        <path d="M0.456915423,56.5822886 C0.456915423,87.5812139 25.5867065,112.711005 56.5856318,112.711005 L56.5856318,112.711005 C87.5845572,112.711005 112.714348,87.5812139 112.714348,56.5822886 L112.714348,56.5822886 C112.714348,25.5833632 87.5845572,0.453572139 56.5856318,0.453572139 L56.5856318,0.453572139 C25.5867065,0.453572139 0.456915423,25.5833632 0.456915423,56.5822886" id="path-9"></path>
        <path d="M0.456915423,56.5822886 C0.456915423,87.5812139 25.5867065,112.711005 56.5856318,112.711005 L56.5856318,112.711005 C87.5845572,112.711005 112.714348,87.5812139 112.714348,56.5822886 L112.714348,56.5822886 C112.714348,25.5833632 87.5845572,0.453572139 56.5856318,0.453572139 L56.5856318,0.453572139 C25.5867065,0.453572139 0.456915423,25.5833632 0.456915423,56.5822886 L0.456915423,56.5822886 Z" id="path-11"></path>
        <path d="M0.456915423,56.5822886 C0.456915423,87.5812139 25.5867065,112.711005 56.5856318,112.711005 L56.5856318,112.711005 C87.5845572,112.711005 112.714348,87.5812139 112.714348,56.5822886 L112.714348,56.5822886 C112.714348,25.5833632 87.5845572,0.453572139 56.5856318,0.453572139 L56.5856318,0.453572139 C25.5867065,0.453572139 0.456915423,25.5833632 0.456915423,56.5822886 L0.456915423,56.5822886 Z" id="path-13"></path>
        <path d="M0.456915423,56.5822886 C0.456915423,87.5812139 25.5867065,112.711005 56.5856318,112.711005 L56.5856318,112.711005 C87.5845572,112.711005 112.714348,87.5812139 112.714348,56.5822886 L112.714348,56.5822886 C112.714348,25.5833632 87.5845572,0.453572139 56.5856318,0.453572139 L56.5856318,0.453572139 C25.5867065,0.453572139 0.456915423,25.5833632 0.456915423,56.5822886" id="path-15"></path>
        <path d="M0.456915423,56.5822886 C0.456915423,87.5812139 25.5867065,112.711005 56.5856318,112.711005 L56.5856318,112.711005 C87.5845572,112.711005 112.714348,87.5812139 112.714348,56.5822886 L112.714348,56.5822886 C112.714348,25.5833632 87.5845572,0.453572139 56.5856318,0.453572139 L56.5856318,0.453572139 C25.5867065,0.453572139 0.456915423,25.5833632 0.456915423,56.5822886" id="path-17"></path>
        <path d="M0.456915423,56.5822886 C0.456915423,87.5812139 25.5867065,112.711005 56.5856318,112.711005 L56.5856318,112.711005 C87.5845572,112.711005 112.714348,87.5812139 112.714348,56.5822886 L112.714348,56.5822886 C112.714348,25.5833632 87.5845572,0.453572139 56.5856318,0.453572139 L56.5856318,0.453572139 C25.5867065,0.453572139 0.456915423,25.5833632 0.456915423,56.5822886" id="path-19"></path>
        <path d="M0.456915423,56.5822886 C0.456915423,87.5812139 25.5867065,112.711005 56.5856318,112.711005 L56.5856318,112.711005 C87.5845572,112.711005 112.714348,87.5812139 112.714348,56.5822886 L112.714348,56.5822886 C112.714348,25.5833632 87.5845572,0.453572139 56.5856318,0.453572139 L56.5856318,0.453572139 C25.5867065,0.453572139 0.456915423,25.5833632 0.456915423,56.5822886 L0.456915423,56.5822886 Z" id="path-21"></path>
        <path d="M0.456915423,56.5822886 C0.456915423,87.5812139 25.5867065,112.711005 56.5856318,112.711005 L56.5856318,112.711005 C87.5845572,112.711005 112.714348,87.5812139 112.714348,56.5822886 L112.714348,56.5822886 C112.714348,25.5833632 87.5845572,0.453572139 56.5856318,0.453572139 L56.5856318,0.453572139 C25.5867065,0.453572139 0.456915423,25.5833632 0.456915423,56.5822886" id="path-23"></path>
        <path d="M0.456915423,56.5822886 C0.456915423,87.5812139 25.5867065,112.711005 56.5856318,112.711005 L56.5856318,112.711005 C87.5845572,112.711005 112.714348,87.5812139 112.714348,56.5822886 L112.714348,56.5822886 C112.714348,25.5833632 87.5845572,0.453572139 56.5856318,0.453572139 L56.5856318,0.453572139 C25.5867065,0.453572139 0.456915423,25.5833632 0.456915423,56.5822886" id="path-25"></path>
        <path d="M0.456915423,56.5822886 C0.456915423,87.5812139 25.5867065,112.711005 56.5856318,112.711005 L56.5856318,112.711005 C87.5845572,112.711005 112.714348,87.5812139 112.714348,56.5822886 L112.714348,56.5822886 C112.714348,25.5833632 87.5845572,0.453572139 56.5856318,0.453572139 L56.5856318,0.453572139 C25.5867065,0.453572139 0.456915423,25.5833632 0.456915423,56.5822886" id="path-27"></path>
        <path d="M0.456915423,56.5822886 C0.456915423,87.5812139 25.5867065,112.711005 56.5856318,112.711005 L56.5856318,112.711005 C87.5845572,112.711005 112.714348,87.5812139 112.714348,56.5822886 L112.714348,56.5822886 C112.714348,25.5833632 87.5845572,0.453572139 56.5856318,0.453572139 L56.5856318,0.453572139 C25.5867065,0.453572139 0.456915423,25.5833632 0.456915423,56.5822886 L0.456915423,56.5822886 Z" id="path-29"></path>
        <path d="M0.456915423,56.5822886 C0.456915423,87.5812139 25.5867065,112.711005 56.5856318,112.711005 L56.5856318,112.711005 C87.5845572,112.711005 112.714348,87.5812139 112.714348,56.5822886 L112.714348,56.5822886 C112.714348,25.5833632 87.5845572,0.453572139 56.5856318,0.453572139 L56.5856318,0.453572139 C25.5867065,0.453572139 0.456915423,25.5833632 0.456915423,56.5822886" id="path-31"></path>
    </defs>
    <g id="Page-1" stroke="none" stroke-width="1" fill="none" fill-rule="evenodd">
        <g id="Artboard-5" transform="translate(-365.000000, -118.000000)">
            <g id="dailynclexchallenge" transform="translate(365.000000, 118.000000)">
                <g id="Group-9" transform="translate(0.000000, 0.539940)">
                    <g id="Group-3" transform="translate(1.114428, 10.587065)">
                        <mask id="mask-2" fill="white">
                            <use xlink:href="#path-1"></use>
                        </mask>
                        <g id="Clip-2"></g>
                        <path d="M112.714515,56.5822886 C112.714515,87.5812139 87.5847244,112.711005 56.585799,112.711005 C25.5868736,112.711005 0.457082587,87.5812139 0.457082587,56.5822886 C0.457082587,25.5833632 25.5868736,0.453572139 56.585799,0.453572139 C87.5847244,0.453572139 112.714515,25.5833632 112.714515,56.5822886" id="Fill-1" fill="#D9EDEF" mask="url(#mask-2)"></path>
                    </g>
                    <g id="Group-6" transform="translate(0.000000, 37.333333)">
                        <mask id="mask-4" fill="white">
                            <use xlink:href="#path-3"></use>
                        </mask>
                        <g id="Clip-5"></g>
                        <path d="M33.0900935,21.6351124 C30.299009,20.2420776 26.3294169,16.3382368 26.4029692,14.041401 L26.4029692,3.82432637 C26.4029692,1.92589851 24.8639443,0.386873632 22.9655164,0.386873632 L3.43795423,0.386873632 C1.53896915,0.386873632 -5.5721393e-05,1.92589851 -5.5721393e-05,3.82432637 L-5.5721393e-05,21.1988139 C-5.5721393e-05,23.0972418 1.53896915,24.6362667 3.43795423,24.6362667 L22.9655164,24.6362667 C24.8639443,24.6362667 26.4029692,23.0972418 26.4029692,21.1988139 L26.4029692,19.8174806 C28.5164816,21.0372219 31.15879,21.6351124 33.0900935,21.6351124" id="Fill-4" fill="#AFDBE0" mask="url(#mask-4)"></path>
                    </g>
                    <mask id="mask-6" fill="white">
                        <use xlink:href="#path-5"></use>
                    </mask>
                    <g id="Clip-8"></g>
                    <path d="M11.45799,56.4112239 L13.7743284,56.4112239 L13.7743284,54.1890547 L11.45799,54.1890547 L11.45799,56.4112239 Z M11.45799,51.6470448 C11.45799,48.9161393 14.5650149,48.4826269 14.5650149,46.5429652 C14.5650149,45.6581095 13.7743284,44.9799801 12.7384677,44.9799801 C11.6647164,44.9799801 10.7230249,45.7706667 10.7230249,45.7706667 L9.40521393,44.1324577 C9.40521393,44.1324577 10.7046368,42.7767562 12.9457512,42.7767562 C15.0737512,42.7767562 17.0513035,44.0945672 17.0513035,46.3172935 C17.0513035,49.4243184 13.7743284,49.7820498 13.7743284,51.8164378 L13.7743284,52.5508458 L11.45799,52.5508458 L11.45799,51.6470448 Z" id="Fill-7" fill="#21B5BE" mask="url(#mask-6)"></path>
                </g>
                <g id="Group-49" transform="translate(1.114428, 11.127005)">
                    <g id="Group-12">
                        <mask id="mask-8" fill="white">
                            <use xlink:href="#path-7"></use>
                        </mask>
                        <g id="Clip-11"></g>
                        <polygon id="Fill-10" fill="#E6C4BF" mask="url(#mask-8)" points="70.3662567 39.5796856 71.4806846 69.6692378 76.2381771 72.6141134 56.9931224 96.4155065 36.9334209 93.0722229 39.1622766 71.3408796 46.9632716 69.6692378 46.4060577 56.8533174"></polygon>
                    </g>
                    <g id="Group-15">
                        <mask id="mask-10" fill="white">
                            <use xlink:href="#path-9"></use>
                        </mask>
                        <g id="Clip-14"></g>
                        <path d="M70.2637294,50.4567801 L70.06759,45.15879 L62.9547542,46.1277851 L48.0776995,56.8530388 L48.3139582,62.2875463 C50.8442667,64.091805 53.9897393,65.0635861 57.3263363,64.8351284 C64.8141771,64.3219343 70.5417791,57.9563224 70.2637294,50.4567801" id="Fill-13" fill="#DDB9B6" mask="url(#mask-10)"></path>
                    </g>
                    <g id="Group-18">
                        <mask id="mask-12" fill="white">
                            <use xlink:href="#path-11"></use>
                        </mask>
                        <g id="Clip-17"></g>
                        <path d="M35.2617791,81.3707303 L43.3770428,85.2779144 C47.9612418,87.485596 52.8964856,88.8736159 57.9593313,89.3801234 L72.5951124,90.8433672 L57.5503363,103.102074 L29.6896398,95.3010786 L35.2617791,81.3707303 Z" id="Fill-16" fill="#AFDBE0" mask="url(#mask-12)"></path>
                    </g>
                    <g id="Group-21">
                        <mask id="mask-14" fill="white">
                            <use xlink:href="#path-13"></use>
                        </mask>
                        <g id="Clip-20"></g>
                        <path d="M57.9592756,89.3798448 C56.941803,89.2778746 55.9315741,89.1307701 54.9269174,88.958591 C51.8906587,92.477397 49.1006886,96.1817552 46.4628378,99.9975562 L57.5502806,103.101795 L72.5950567,90.8430886 L57.9592756,89.3798448 Z" id="Fill-19" fill="#92D0D6" mask="url(#mask-14)"></path>
                    </g>
                    <g id="Group-24">
                        <mask id="mask-16" fill="white">
                            <use xlink:href="#path-15"></use>
                        </mask>
                        <g id="Clip-23"></g>
                        <path d="M26.0090189,122.378722 C43.6721433,128.86525 63.203606,121.798105 79.0568995,113.656096 C87.8753672,109.127061 96.254193,103.861946 104.417377,98.2641751 C102.120541,94.7765731 99.5618149,91.468394 96.7601433,88.371399 C92.5509493,83.7197771 87.8213174,79.5674189 82.6637453,75.996792 L75.9381731,71.3407124 L47.5202627,98.644195 L40.8336955,70.2262846 L29.7746706,74.8344438 C28.2345313,75.4763542 26.7501134,76.2430806 25.3353473,77.1273791 C20.8837652,79.908991 17.2250985,83.7916577 14.7115065,88.3998169 L12.2943124,92.8313393 C12.004004,93.3634786 11.7298547,93.9034189 11.4718647,94.4517174 L5.91867065,106.252951 C11.0561831,113.332354 17.6335363,119.302901 26.0090189,122.378722" id="Fill-22" fill="#6EC4CC" mask="url(#mask-16)"></path>
                    </g>
                    <g id="Group-27">
                        <mask id="mask-18" fill="white">
                            <use xlink:href="#path-17"></use>
                        </mask>
                        <g id="Clip-26"></g>
                        <path d="M78.542201,74.1345274 C78.3794945,73.8904677 78.2284896,73.6436219 78.0847284,73.3884179 C78.0685692,73.3588856 78.047395,73.3237811 78.029007,73.2920199 C75.8051662,72.1352438 73.5127881,71.1071841 71.4800716,69.6266667 C71.4956736,69.9498507 71.5112756,70.273592 71.5240915,70.5973333 C74.2817433,71.5880597 75.6892657,73.6737114 76.1411662,74.4794428 C76.3116736,74.7825672 76.4899821,75.07399 76.6866786,75.3693134 C78.2307184,77.6906667 78.8141214,80.4817512 78.3293453,83.2277015 C77.0115343,90.6848955 73.5083303,97.4801194 68.1969672,102.878408 L63.0243502,108.135164 C62.5930667,108.574249 62.5986388,109.279682 63.0371662,109.711522 C63.2544796,109.924935 63.5369871,110.031363 63.8189373,110.031363 C64.1070169,110.031363 64.3950965,109.920478 64.6135244,109.698706 L69.7855841,104.44195 C75.4145592,98.7204776 79.1278328,91.5190448 80.5242109,83.6160796 C81.1092856,80.3028856 80.4055244,76.9356418 78.542201,74.1345274" id="Fill-25" fill="#C8E5E8" mask="url(#mask-18)"></path>
                    </g>
                    <g id="Group-30">
                        <mask id="mask-20" fill="white">
                            <use xlink:href="#path-19"></use>
                        </mask>
                        <g id="Clip-29"></g>
                        <path d="M34.58599,91.5384915 L34.5012935,90.2641433 C34.1101294,84.3994667 35.9099303,78.636203 39.5691542,74.036402 C40.089592,73.3822328 40.6813532,72.8066308 41.3232637,72.3051383 L40.8791642,70.4189692 C40.8184279,70.3760637 40.7610348,70.3298149 40.7069851,70.2791085 L39.8249154,70.6468697 C39.0949652,71.2308299 38.422408,71.8983721 37.8250746,72.6489393 C33.8198209,77.6839244 31.8495124,83.9927005 32.2768955,90.4123622 L32.3465473,91.453795 C24.6023881,91.7039841 17.9470249,97.6282826 16.9351244,105.426492 L14.8561592,121.447506 C14.7536318,122.23485 14.8277413,123.027208 15.0567562,123.77276 L16.3166169,124.833138 L16.4364179,126.056223 C17.416,127.029118 18.7326965,127.609735 20.1223881,127.659327 L24.3627861,127.809218 C24.9707065,127.835407 25.4944876,127.349516 25.5162189,126.734909 C25.5379502,126.119745 25.0570746,125.603208 24.4419104,125.581477 L20.2015124,125.431586 C19.2676219,125.39871 18.4206567,124.988044 17.8160796,124.27481 C17.2126169,123.562691 16.9462687,122.660561 17.0666269,121.733914 L19.145592,105.713457 C20.0633234,98.6407403 26.3670846,93.3516657 33.4871642,93.6848796 C40.8122985,94.0214368 46.6045373,100.02876 46.6736318,107.361138 L46.8118209,121.899407 C46.8268657,123.516442 45.6812338,124.888302 44.0870448,125.16078 L39.4972736,125.946452 C38.8910249,126.050094 38.4831443,126.625696 38.5873433,127.232501 C38.6798408,127.775785 39.1512438,128.159148 39.6839403,128.159148 C39.7463483,128.159148 39.8098706,128.154133 39.873393,128.143546 L44.4631642,127.358432 C47.1411343,126.899845 49.0663085,124.595208 49.0409295,121.878233 L48.9024876,107.339964 C48.8250348,99.1611781 42.6148856,92.4055164 34.58599,91.5384915" id="Fill-28" fill="#C8E5E8" mask="url(#mask-20)"></path>
                    </g>
                    <g id="Group-33">
                        <mask id="mask-22" fill="white">
                            <use xlink:href="#path-21"></use>
                        </mask>
                        <g id="Clip-32"></g>
                        <path d="M69.6860657,120.977775 L71.5616478,114.011487 C71.8586428,112.909317 72.9925731,112.256263 74.0947423,112.553258 C75.1974687,112.850253 75.8505234,113.984183 75.5535284,115.086352 L73.6818468,122.035924 L69.6860657,120.977775 Z" id="Fill-31" fill="#B7D2CD" mask="url(#mask-22)"></path>
                    </g>
                    <g id="Group-36">
                        <mask id="mask-24" fill="white">
                            <use xlink:href="#path-23"></use>
                        </mask>
                        <g id="Clip-35"></g>
                        <path d="M23.2879761,125.023594 L19.0475781,124.873703 C16.460991,124.78232 14.5135284,122.485485 14.8467423,119.918957 L16.9257075,103.897942 C17.9253493,96.1944597 24.6637373,90.543196 32.4234985,90.8998129 L32.4240557,90.8998129 C40.3431801,91.2636736 46.5984637,97.7513154 46.6736876,105.678798 L46.8120695,120.217067 C46.8319363,122.37237 45.2851104,124.223992 43.1604537,124.587853 L38.5712398,125.372967" id="Stroke-34" stroke="#726C81" stroke-width="2.22885572" stroke-linecap="round" mask="url(#mask-24)"></path>
                    </g>
                    <g id="Group-39">
                        <mask id="mask-26" fill="white">
                            <use xlink:href="#path-25"></use>
                        </mask>
                        <g id="Clip-38"></g>
                        <path d="M69.000191,107.144549 C69.0559124,110.74638 66.1806886,113.711873 62.5788577,113.767037 C58.9770269,113.822758 56.0115343,110.948092 55.9563701,107.345703 C55.9006488,103.743873 58.7753154,100.778937 62.3777035,100.723216 C65.9795343,100.667495 68.9444697,103.542718 69.000191,107.144549" id="Fill-37" fill="#C3C1C2" mask="url(#mask-26)"></path>
                    </g>
                    <g id="Group-42">
                        <mask id="mask-28" fill="white">
                            <use xlink:href="#path-27"></use>
                        </mask>
                        <g id="Clip-41"></g>
                        <path d="M32.4234985,90.8996458 L32.2747224,88.6668896 C31.8662846,82.5380935 33.7585831,76.4778348 37.5827423,71.6713075 C39.7792796,68.9097552 43.1147622,67.3010786 46.6430408,67.3010786 L66.3355383,67.3010786 C72.5228418,66.8658945 75.3367721,71.0834468 75.9987423,72.2619542 C76.1558766,72.5422328 76.3219264,72.8130388 76.500792,73.0805015 C82.4986428,82.0984517 74.2385035,95.5222925 67.876792,101.988203 L62.7047323,107.244959" id="Stroke-40" stroke="#726C81" stroke-width="2.22885572" stroke-linecap="round" mask="url(#mask-28)"></path>
                    </g>
                    <g id="Group-45">
                        <mask id="mask-30" fill="white">
                            <use xlink:href="#path-29"></use>
                        </mask>
                        <g id="Clip-44"></g>
                        <polygon id="Fill-43" fill="#E6C5C0" mask="url(#mask-30)" points="46.754595 64.8681154 46.9635502 69.6690706 71.4809632 69.6690706 71.2792517 64.2362348 54.1805851 65.8382249"></polygon>
                    </g>
                    <g id="Group-48">
                        <mask id="mask-32" fill="white">
                            <use xlink:href="#path-31"></use>
                        </mask>
                        <g id="Clip-47"></g>
                        <path d="M65.7458945,107.194921 C65.7737552,108.99918 64.3333572,110.484712 62.5285413,110.51313 C60.7242826,110.540434 59.2387502,109.100036 59.2103323,107.295777 C59.1830289,105.490961 60.6234269,104.005429 62.4276856,103.977568 C64.2325015,103.949707 65.7180338,105.390105 65.7458945,107.194921" id="Fill-46" fill="#726C81" mask="url(#mask-32)"></path>
                    </g>
                </g>
                <g id="Group-88" transform="translate(24.378109, 0.539940)">
                    <path d="M63.8897592,38.8711881 C64.4369433,37.1605413 65.3580179,35.5758249 66.6630129,34.3421532 C67.6526249,33.4054766 68.9453612,32.5585114 70.5055602,32.3356259 C74.4060577,31.7784119 78.8637692,32.3356259 81.0926249,36.7933373 C83.3214806,41.2510488 81.0926249,45.1515463 81.0926249,48.4948299 C81.0926249,51.8381134 79.978197,58.5246806 74.4060577,59.6391085 C73.1523264,59.8898547 71.729202,59.6045612 70.2765453,59.0122428 C63.8284657,56.3810786 60.6166846,49.099407 62.7396697,42.4663323 L63.8897592,38.8711881 Z" id="Fill-50" fill="#262626"></path>
                    <path d="M69.1854647,52.9726567 C66.1937831,50.600597 63.8590567,47.1575721 62.476609,43.4437413 C60.9487284,49.800995 64.1432358,56.5098507 70.2764896,59.0122985 C71.7291463,59.6046169 73.1522706,59.8899104 74.406002,59.6391642 C77.6528876,58.99001 79.3847085,56.4485572 80.2656637,53.7789453 C76.7251264,55.5263682 72.8825791,55.903602 69.1854647,52.9726567" id="Fill-52" fill="#020303"></path>
                    <path d="M21.4707343,13.3906308 L20.6404856,11.3473274 C19.250794,7.92547662 20.2498786,3.90963582 23.2426746,1.74597413 C23.3881075,1.6406607 23.5374408,1.53869055 23.6906746,1.44173532 C25.1522468,0.51118806 26.848406,0.0174965174 28.5807841,0.0174965174 L29.5982567,0.0174965174 C34.4449035,0.0174965174 39.15559,1.61948657 42.9970229,4.57439204 L44.3165055,5.58963582 L47.5305154,4.98673035 C51.2036697,4.29857114 55.0016398,4.97948657 58.2061771,6.90243184 C60.4255602,8.23417313 62.2704955,10.1080836 63.5671323,12.3480836 C66.295809,17.0604418 67.8548935,22.3584318 68.113998,27.797397 L68.1602468,28.7702925 C68.2371423,30.3940139 68.0549333,32.019407 67.6197493,33.5857353 L66.4540577,37.7821134 C65.8260776,40.0432876 65.8868139,42.4404219 66.6290229,44.6670488 L66.6602269,44.7589891 C68.0203861,48.8394667 67.2742766,53.3283821 64.6676299,56.7491184 C61.7461572,60.5833075 56.9435303,62.4867502 52.1888239,61.694392 L49.9683264,61.3238448 C45.7340577,60.6184119 42.1210826,57.8685612 40.3134806,53.9747502 L21.4707343,13.3906308 Z" id="Fill-54" fill="#262626"></path>
                    <path d="M55.093803,58.4879602 C52.8593751,57.6549254 50.7798527,56.3510448 49.254201,54.5055522 C48.2751761,53.3214726 47.1874945,50.4991841 45.6986189,49.9642587 C44.1094448,49.3936716 41.6097831,51.0123781 40.3382209,51.7289552 C40.0557134,51.8883184 39.7776637,52.0554826 39.4996139,52.2215323 L40.3137035,53.9750846 C42.1213055,57.8683383 45.7342806,60.6187463 49.967992,61.3241791 L52.1890468,61.6941692 C55.7496438,62.287602 59.3369871,61.3687562 62.1408876,59.2602587 C59.8251065,59.560597 57.4602905,59.3700299 55.093803,58.4879602" id="Fill-56" fill="#020303"></path>
                    <path d="M67.6199164,33.9408478 C67.4666826,34.8446488 67.2616279,35.7345194 67.0838766,36.6316338 C66.899996,37.5270766 66.6486925,38.4113751 66.5288915,39.2828577 C66.2831602,41.0386388 66.4007323,42.8362109 66.9105831,44.5212259 C67.0314985,44.9296637 67.1886328,45.3938229 67.2989612,45.8468378 C67.41319,46.3026388 67.5112597,46.7634547 67.5697672,47.2298428 C67.6867821,48.1615045 67.7202149,49.1054249 67.6243741,50.0365294 C67.4583244,51.8998527 66.8370308,53.7085692 65.8468617,55.2503801 C66.5467224,53.5575642 66.9206129,51.7739224 66.9735483,49.99641 C67.0203542,48.2038527 66.7194587,46.4787184 66.1093095,44.758599 C65.5777274,42.9465393 65.4930308,41.0035343 65.88921,39.1686289 C66.0781055,38.2403104 66.4141055,37.390002 66.691598,36.5224199 C67.0019662,35.6620816 67.2850308,34.7944995 67.6199164,33.9408478" id="Fill-58" fill="#020303"></path>
                    <path d="M15.2815363,25.2918289 L14.2417751,33.608804 C13.3045413,41.1066746 12.9646408,48.6669532 13.2254169,56.2183164 L13.2928398,58.1735801 C13.3580338,60.0658786 13.7380537,61.9347741 14.4178547,63.7022567 L14.5917055,64.1536 C15.6275662,66.8477294 17.4017353,69.1947144 19.7108299,70.9259781 C21.7574766,72.4611025 24.2465512,73.2913512 26.8052776,73.2913512 L27.2499343,73.2913512 C32.044203,73.2913512 36.7576756,72.0470925 40.9273075,69.6800478 C43.4676458,68.2379781 45.3850189,65.9071522 46.3088796,63.1361274 L47.6333771,59.1626348 C48.7639642,55.7703164 49.6454766,52.2999881 50.2712279,48.7789532 L52.4348896,36.609401 C53.3208597,31.6284657 52.8132378,26.4993114 50.9699741,21.7880677 C49.5903124,18.2631323 46.6064318,15.610794 42.9433075,14.6557294 C38.3485214,13.4571622 33.539208,13.3340179 28.8892577,14.2957692 L24.6187701,15.1795104 C21.5340338,15.8180776 18.8315463,17.6607841 17.1103124,20.299192 C16.1296159,21.8031124 15.5044219,23.5104159 15.2815363,25.2918289" id="Fill-60" fill="#E9CCC7"></path>
                    <path d="M50.970197,21.7882905 C49.6640876,18.4505791 46.9186945,15.8985393 43.5213612,14.8253453 C46.3742965,21.1140617 44.4396498,28.3985194 43.4700975,34.8872756 C42.6599085,40.3078527 41.9455602,45.7390169 40.3747741,50.9651264 C40.3619582,51.0832557 40.3441274,51.2024995 40.3162667,51.3250866 C39.1817791,56.3840318 38.176008,62.1467383 34.8115502,66.2779224 C32.0137791,69.7120318 27.9243861,71.8166289 23.6059781,72.478599 C23.4711323,72.5582806 23.3396299,72.6424199 23.2042269,72.7209871 C24.3615602,73.0920915 25.5740577,73.2910169 26.8049433,73.2910169 L27.2496,73.2910169 C32.0444259,73.2910169 36.7573413,72.0467582 40.9275303,69.6802706 C43.4678687,68.238201 45.3852418,65.9068179 46.3085453,63.135793 L47.6330428,59.1623005 C48.7641871,55.7699821 49.6456995,52.2996537 50.2714507,48.7791761 L52.4351124,36.6096239 C53.3205254,31.6281313 52.8134607,26.4995343 50.970197,21.7882905" id="Fill-62" fill="#E7C9C4"></path>
                    <path d="M42.6448637,21.7488398 L31.6666348,23.1207005 C27.1203264,23.6890587 22.6743164,24.885397 18.456207,26.6746109 C16.2323662,27.6179741 13.6931423,27.453596 11.6097194,26.2310687 L10.5593711,25.61479 C7.75212736,23.9676657 6.29724179,20.7224517 6.93525174,17.5301731 C7.32362985,15.589397 8.4497592,13.875407 10.0768239,12.7487204 C13.1203264,10.6418945 16.8012816,9.65841194 20.4894806,9.96543682 L21.4707343,10.0473473 L45.9881473,13.3906308 L54.3463562,20.6344119 L57.6896398,41.8085413 L54.3463562,46.2662527 L51.8049035,43.323606 C46.5726647,37.2655761 43.369799,29.7208995 42.6448637,21.7488398" id="Fill-64" fill="#262626"></path>
                    <path d="M26.4856597,35.6791881 L20.5613612,53.4520836 C20.4421174,53.8098149 20.592008,54.2015363 20.9190925,54.3887602 L21.3542766,54.6372776 C23.2560478,55.724402 25.4091224,56.2961035 27.6000876,56.2961035" id="Stroke-66" stroke="#BE9997" stroke-width="0.835820896" stroke-linecap="round"></path>
                    <path d="M26.0092975,61.7074308 C25.8638647,61.6210627 25.924601,61.3998488 26.0934368,61.3998488 C26.7882826,61.4020776 27.9288995,61.2037095 29.2717851,60.1968239 C31.5006408,58.5251821 32.6150687,56.8535403 33.7294965,58.5251821 C34.8439244,60.1968239 33.1722826,63.5401075 30.9434269,63.5401075 C29.3135761,63.5401075 27.0880637,62.3482269 26.0092975,61.7074308" id="Fill-68" fill="#BE9997"></path>
                    <path d="M47.1929552,44.8402866 L48.5954627,43.7186149 C49.6653134,42.8621771 50.9953831,42.3957891 52.3661294,42.3957891 L52.4034627,42.3957891 C54.4846567,42.3957891 56.4187463,43.4678687 57.5220299,45.2325652 C58.3416915,46.5442468 58.5924378,48.1323065 58.2174328,49.6328836 C57.8145672,51.2454607 56.7263284,52.6017194 55.2391244,53.3456 C53.5892139,54.1702766 51.7108458,54.4221373 49.9015721,54.0599483 L46.5816915,53.3957493 L47.1929552,44.8402866 Z" id="Fill-70" fill="#E7C9C4"></path>
                    <path d="M33.3324816,32.3813174 C33.9699343,31.9338746 34.7060139,31.7711682 35.4298348,31.7561234 C36.1597851,31.7271483 36.8919642,31.8842826 37.5673075,32.1768199 C38.2409791,32.4693572 38.8689592,32.8956259 39.3414766,33.4650985 C39.837397,34.0044816 40.1767403,34.6876259 40.293198,35.4337353 L40.2970985,35.45881 C40.3015562,35.4877851 40.2820537,35.5150886 40.2530786,35.5195463 C40.2346905,35.5223323 40.2168597,35.5156458 40.2051582,35.5028299 C39.7699741,35.0202826 39.3230886,34.547208 38.8004219,34.1649592 C38.2911284,33.7665512 37.7216557,33.4489393 37.1271085,33.2004219 C36.5381333,32.9379741 35.9157254,32.7451781 35.2782726,32.6309493 C34.6424915,32.5189493 33.9888796,32.4626706 33.3452975,32.492203 C33.3163224,32.4933174 33.2912478,32.4704716 33.2895514,32.4409393 C33.2890189,32.4225512 33.2979343,32.4052776 33.3118647,32.3952478 L33.3324816,32.3813174 Z" id="Fill-72" fill="#262626"></path>
                    <path d="M19.1567363,43.8368557 L19.1567363,43.8368557 C18.3069851,43.8078806 17.6416716,43.095204 17.6706468,42.2454527 L17.7090945,41.1159801 C17.7386269,40.2656716 18.4507463,39.6003582 19.3010547,39.6298905 C20.150806,39.6583085 20.8161194,40.3709851 20.7871443,41.2212935 L20.7481393,42.3507662 C20.7191642,43.2005174 20.0064876,43.8658308 19.1567363,43.8368557" id="Fill-74" fill="#262626"></path>
                    <path d="M34.4058428,44.3589652 L34.4058428,44.3589652 C33.5560915,44.32999 32.8902209,43.6173134 32.9197532,42.7675622 L32.958201,41.6375323 C32.9871761,40.7877811 33.6998527,40.1224677 34.549604,40.1514428 C35.3999124,40.1804179 36.0652259,40.8930945 36.0356935,41.743403 L35.9972458,42.8728756 C35.9682706,43.7226269 35.255594,44.3879403 34.4058428,44.3589652" id="Fill-76" fill="#262626"></path>
                    <path d="M71.7582328,68.0832955 L59.9363821,68.0832955 C59.4521632,68.0832955 59.0598846,68.4755741 59.0598846,68.9592358 C59.0598846,69.4434547 59.4521632,69.8357333 59.9363821,69.8357333 L71.7582328,69.8357333 C72.2418945,69.8357333 72.6341731,69.4434547 72.6341731,68.9592358 C72.6341731,68.4755741 72.2418945,68.0832955 71.7582328,68.0832955" id="Fill-78" fill="#C1E2E6"></path>
                    <path d="M66.2015841,71.686408 L59.9362706,71.686408 C59.4520517,71.686408 59.0597731,72.0786866 59.0597731,72.5623483 C59.0597731,73.0465672 59.4520517,73.4388458 59.9362706,73.4388458 L66.2015841,73.4388458 C66.685803,73.4388458 67.0780816,73.0465672 67.0780816,72.5623483 C67.0780816,72.0786866 66.685803,71.686408 66.2015841,71.686408" id="Fill-80" fill="#C1E2E6"></path>
                    <path d="M69.980999,75.289799 L59.9361035,75.289799 C59.4518846,75.289799 59.059606,75.6820776 59.059606,76.1657393 C59.059606,76.649401 59.4518846,77.0422368 59.9361035,77.0422368 L69.980999,77.0422368 C70.4646607,77.0422368 70.8569393,76.649401 70.8569393,76.1657393 C70.8569393,75.6820776 70.4646607,75.289799 69.980999,75.289799" id="Fill-82" fill="#C1E2E6"></path>
                    <path d="M7.65277612,74.1682945 L2.17759204,74.1682945 C1.10774129,74.1682945 0.241273632,73.3012697 0.241273632,72.2319761 L0.241273632,66.756792 C0.241273632,65.6869413 1.10774129,64.8199164 2.17759204,64.8199164 L7.65277612,64.8199164 C8.72206965,64.8199164 9.58909453,65.6869413 9.58909453,66.756792 L9.58909453,72.2319761 C9.58909453,73.3012697 8.72206965,74.1682945 7.65277612,74.1682945" id="Fill-84" fill="#7BC8CF"></path>
                    <path d="M4.19860697,72.2522587 L5.1358408,72.2522587 L5.1358408,71.3534726 L4.19860697,71.3534726 L4.19860697,72.2522587 Z M4.19860697,70.3248557 C4.19860697,69.2199005 5.45623881,69.0449353 5.45623881,68.2598209 C5.45623881,67.9015323 5.1358408,67.6273831 4.71681592,67.6273831 C4.28274627,67.6273831 3.90161194,67.9477811 3.90161194,67.9477811 L3.36835821,67.2846965 C3.36835821,67.2846965 3.89381095,66.736398 4.80095522,66.736398 C5.66185075,66.736398 6.46200995,67.2696517 6.46200995,68.1684378 C6.46200995,69.4255124 5.1358408,69.5703881 5.1358408,70.393393 L5.1358408,70.6903881 L4.19860697,70.6903881 L4.19860697,70.3248557 Z" id="Fill-86" fill="#FEFEFE"></path>
                </g>
            </g>
        </g>
    </g>
</svg>