<svg xmlns="http://www.w3.org/2000/svg" width="50" height="50" viewBox="0 0 50 50">
  <g fill="none" fill-rule="evenodd">
    <circle cx="25" cy="25" r="25" fill="#164F87"/>
    <g fill="#FFF" fill-rule="nonzero" transform="translate(3 22)">
      <polygon points="35.343 5.167 35.343 9.875 34.569 9.875 34.569 5.167 34.956 4.479"/>
      <polygon points="35.343 5.167 34.956 4.479 37.257 .729 38.113 .729"/>
      <polygon points="34.569 5.167 31.778 .729 32.654 .729 34.956 4.479"/>
      <path d="M4.68518519 8.4375C4.68518519 8.41666667 4.68518519 8.375 4.66481481 8.3125 4.66481481 8.22916667 4.64444444 8.14583333 4.64444444 8.04166667 4.64444444 7.9375 4.62407407 7.8125 4.62407407 7.6875 4.62407407 7.5625 4.62407407 7.4375 4.62407407 7.33333333L4.6037037 7.33333333C4.4 7.72916667 4.11481481 8.04166667 3.74814815 8.25 3.40185185 8.45833333 2.93333333 8.5625 2.38333333 8.5625 1.97592593 8.5625 1.60925926 8.47916667 1.3037037 8.33333333.998148148 8.1875.753703704 7.95833333.55 7.70833333.346296296 7.4375.203703704 7.125.101851852 6.75.0407407407 6.35416667 0 5.95833333 0 5.54166667 0 5.10416667.0407407407 4.6875.142592593 4.33333333.244444444 3.97916667.407407407 3.625.611111111 3.35416667.814814815 3.08333333 1.07962963 2.875 1.40555556 2.70833333 1.73148148 2.5625 2.09814815 2.47916667 2.50555556 2.47916667 2.99444444 2.47916667 3.42222222 2.58333333 3.78888889 2.79166667 4.15555556 3 4.42037037 3.29166667 4.6037037 3.64583333L4.62407407 3.64583333C4.62407407 3.625 4.62407407 3.58333333 4.62407407 3.54166667 4.62407407 3.47916667 4.62407407 3.39583333 4.62407407 3.3125 4.62407407 3.22916667 4.62407407 3.125 4.62407407 3 4.62407407 2.875 4.62407407 2.77083333 4.62407407 2.64583333L4.62407407.125 5.39814815.125 5.39814815 7.1875C5.39814815 7.33333333 5.39814815 7.47916667 5.39814815 7.625 5.39814815 7.77083333 5.39814815 7.89583333 5.39814815 8 5.39814815 8.125 5.39814815 8.20833333 5.39814815 8.29166667 5.39814815 8.375 5.39814815 8.41666667 5.39814815 8.4375L4.68518519 8.4375zM4.64444444 5.5C4.64444444 5.0625 4.58333333 4.6875 4.48148148 4.375 4.37962963 4.0625 4.23703704 3.8125 4.0537037 3.625 3.87037037 3.4375 3.66666667 3.3125 3.44259259 3.20833333 3.21851852 3.125 2.97407407 3.08333333 2.70925926 3.08333333 2.07777778 3.08333333 1.60925926 3.29166667 1.28333333 3.70833333.957407407 4.125.794444444 4.72916667.794444444 5.52083333.794444444 5.89583333.835185185 6.22916667.916666667 6.52083333.998148148 6.8125 1.12037037 7.0625 1.26296296 7.27083333 1.42592593 7.47916667 1.62962963 7.64583333 1.8537037 7.75 2.09814815 7.85416667 2.38333333 7.91666667 2.70925926 7.91666667 2.97407407 7.91666667 3.21851852 7.875 3.44259259 7.79166667 3.66666667 7.70833333 3.89074074 7.5625 4.0537037 7.375 4.23703704 7.1875 4.37962963 6.9375 4.48148148 6.625 4.58333333 6.33333333 4.64444444 5.9375 4.64444444 5.5zM12.7518519 8.47916667C12.5685185 8.47916667 12.4055556 8.45833333 12.2833333 8.39583333 12.1611111 8.33333333 12.0592593 8.27083333 11.9777778 8.14583333 11.8962963 8.04166667 11.8351852 7.89583333 11.7944444 7.75 11.7537037 7.58333333 11.7333333 7.41666667 11.712963 7.20833333L11.6925926 7.20833333C11.4685185 7.60416667 11.1833333 7.9375 10.7962963 8.16666667 10.4296296 8.41666667 9.98148148 8.54166667 9.45185185 8.54166667 9.1462963 8.54166667 8.88148148 8.5 8.63703704 8.4375 8.39259259 8.35416667 8.18888889 8.25 8.02592593 8.10416667 7.86296296 7.95833333 7.72037037 7.79166667 7.63888889 7.58333333 7.55740741 7.375 7.4962963 7.14583333 7.4962963 6.875 7.4962963 6.52083333 7.57777778 6.22916667 7.72037037 6 7.86296296 5.75 8.06666667 5.5625 8.31111111 5.41666667 8.55555556 5.27083333 8.84074074 5.14583333 9.18703704 5.08333333 9.51296296 5.02083333 9.85925926 4.97916667 10.2259259 4.97916667L11.6925926 4.95833333 11.6925926 4.64583333C11.6925926 4.08333333 11.5703704 3.6875 11.3055556 3.45833333 11.0407407 3.20833333 10.6537037 3.10416667 10.1648148 3.10416667 9.92037037 3.10416667 9.71666667 3.125 9.53333333 3.16666667 9.35 3.20833333 9.18703704 3.27083333 9.04444444 3.35416667 8.90185185 3.4375 8.8 3.5625 8.71851852 3.70833333 8.63703704 3.85416667 8.57592593 4.02083333 8.55555556 4.22916667L7.76111111 4.14583333C7.80185185 3.91666667 7.86296296 3.6875 7.98518519 3.47916667 8.10740741 3.27083333 8.25 3.10416667 8.4537037 2.95833333 8.65740741 2.8125 8.88148148 2.70833333 9.16666667 2.625 9.45185185 2.54166667 9.77777778 2.5 10.1648148 2.5 10.9185185 2.5 11.4888889 2.6875 11.8759259 3.04166667 12.262963 3.39583333 12.4666667 3.91666667 12.4666667 4.58333333L12.4666667 6.97916667C12.4666667 7.29166667 12.5074074 7.54166667 12.5888889 7.70833333 12.6703704 7.875 12.812963 7.95833333 13.037037 7.95833333 13.0981481 7.95833333 13.1592593 7.95833333 13.2203704 7.9375 13.2814815 7.91666667 13.3425926 7.91666667 13.4037037 7.89583333L13.4037037 8.4375C13.3018519 8.45833333 13.2 8.47916667 13.0777778 8.5 12.9555556 8.47916667 12.8537037 8.47916667 12.7518519 8.47916667zM11.6925926 5.5L10.3888889 5.54166667C10.1037037 5.54166667 9.83888889 5.5625 9.59444444 5.60416667 9.35 5.64583333 9.12592593 5.70833333 8.92222222 5.8125 8.73888889 5.91666667 8.57592593 6.04166667 8.47407407 6.20833333 8.35185185 6.375 8.31111111 6.58333333 8.31111111 6.85416667 8.31111111 7.1875 8.41296296 7.4375 8.61666667 7.625 8.82037037 7.8125 9.12592593 7.89583333 9.5537037 7.89583333 9.87962963 7.89583333 10.1851852 7.83333333 10.45 7.70833333 10.7148148 7.58333333 10.9388889 7.4375 11.1222222 7.25 11.3055556 7.0625 11.4481481 6.85416667 11.55 6.625 11.6518519 6.39583333 11.6925926 6.16666667 11.6925926 5.95833333L11.6925926 5.5z"/>
      <polygon points="15.013 8.438 15.013 .104 15.787 .104 15.787 8.417 15.013 8.417"/>
      <path d="M18.6592593 5.66666667C18.6592593 5.97916667 18.7 6.29166667 18.7814815 6.5625 18.862963 6.83333333 18.9851852 7.08333333 19.1481481 7.29166667 19.3111111 7.5 19.5148148 7.64583333 19.7592593 7.77083333 20.0037037 7.89583333 20.3092593 7.95833333 20.6555556 7.95833333 21.1037037 7.95833333 21.4703704 7.85416667 21.7759259 7.66666667 22.0814815 7.47916667 22.2851852 7.20833333 22.4074074 6.875L23.1203704 7C23.0592593 7.16666667 22.9777778 7.33333333 22.8555556 7.52083333 22.7333333 7.70833333 22.5703704 7.875 22.387037 8.02083333 22.1833333 8.16666667 21.9592593 8.29166667 21.6740741 8.39583333 21.3888889 8.5 21.0425926 8.54166667 20.6555556 8.54166667 20.2277778 8.54166667 19.8611111 8.47916667 19.5148148 8.35416667 19.1685185 8.22916667 18.8833333 8.02083333 18.6592593 7.77083333 18.4148148 7.5 18.2314815 7.1875 18.1092593 6.8125 17.987037 6.4375 17.9055556 6 17.9055556 5.47916667 17.9055556 4.91666667 17.987037 4.45833333 18.15 4.0625 18.312963 3.6875 18.5166667 3.375 18.7611111 3.14583333 19.0259259 2.91666667 19.3111111 2.75 19.637037 2.64583333 19.962963 2.54166667 20.2888889 2.5 20.6351852 2.5 21.0833333 2.5 21.4703704 2.58333333 21.7962963 2.72916667 22.1222222 2.875 22.387037 3.08333333 22.6111111 3.35416667 22.8148148 3.625 22.9777778 3.9375 23.0796296 4.3125 23.1814815 4.6875 23.2222222 5.08333333 23.2222222 5.52083333L23.2222222 5.70833333 18.6592593 5.70833333 18.6592593 5.66666667zM20.5944444 3.08333333C20.35 3.08333333 20.1259259 3.125 19.9018519 3.1875 19.6777778 3.25 19.4740741 3.375 19.2907407 3.54166667 19.1074074 3.70833333 18.9648148 3.91666667 18.862963 4.16666667 18.7407407 4.41666667 18.6796296 4.72916667 18.6796296 5.10416667L22.4481481 5.10416667C22.4277778 4.79166667 22.3666667 4.52083333 22.2851852 4.27083333 22.2037037 4.02083333 22.0814815 3.8125 21.9388889 3.64583333 21.7962963 3.47916667 21.612963 3.33333333 21.3888889 3.25 21.1648148 3.125 20.9 3.08333333 20.5944444 3.08333333zM29.4759259 8.4375L29.4759259 5C29.4759259 4.72916667 29.4555556 4.47916667 29.3944444 4.22916667 29.3333333 4 29.2518519 3.79166667 29.1296296 3.625 29.0074074 3.45833333 28.8444444 3.3125 28.6407407 3.22916667 28.437037 3.125 28.1925926 3.08333333 27.9074074 3.08333333 27.6425926 3.08333333 27.3981481 3.14583333 27.1740741 3.25 26.95 3.35416667 26.7666667 3.5 26.6037037 3.6875 26.4407407 3.875 26.3185185 4.08333333 26.2166667 4.33333333 26.1351852 4.58333333 26.0740741 4.85416667 26.0740741 5.14583333L26.0740741 8.41666667 25.3 8.41666667 25.3 3.89583333C25.3 3.77083333 25.3 3.625 25.3 3.47916667 25.3 3.33333333 25.3 3.1875 25.3 3.0625 25.3 2.9375 25.3 2.83333333 25.3 2.72916667 25.3 2.64583333 25.3 2.58333333 25.3 2.5625L25.9925926 2.5625C25.9925926 2.58333333 25.9925926 2.64583333 26.012963 2.75 26.012963 2.85416667 26.012963 2.97916667 26.0333333 3.10416667 26.0333333 3.22916667 26.0537037 3.375 26.0537037 3.5 26.0537037 3.625 26.0537037 3.72916667 26.0537037 3.8125L26.0740741 3.8125C26.3185185 3.35416667 26.6037037 3.02083333 26.95 2.8125 27.2962963 2.60416667 27.7037037 2.47916667 28.1925926 2.47916667 28.5796296 2.47916667 28.9055556 2.54166667 29.1703704 2.66666667 29.4351852 2.79166667 29.6592593 2.95833333 29.8222222 3.16666667 29.9851852 3.375 30.1074074 3.625 30.1685185 3.91666667 30.25 4.20833333 30.2703704 4.5 30.2703704 4.8125L30.2703704 8.41666667 29.4759259 8.41666667 29.4759259 8.4375zM44 6.8125C44 7.08333333 43.9388889 7.33333333 43.837037 7.54166667 43.7351852 7.75 43.5722222 7.9375 43.3888889 8.08333333 43.1851852 8.22916667 42.9407407 8.35416667 42.6555556 8.4375 42.3703704 8.52083333 42.0240741 8.5625 41.6574074 8.5625 41.3314815 8.5625 41.0259259 8.54166667 40.7611111 8.47916667 40.4962963 8.4375 40.2518519 8.35416667 40.0481481 8.22916667 39.8444444 8.10416667 39.6814815 7.95833333 39.5388889 7.77083333 39.3962963 7.58333333 39.2944444 7.33333333 39.2333333 7.0625L39.9462963 6.89583333C39.987037 7.125 40.0685185 7.29166667 40.1703704 7.4375 40.2722222 7.58333333 40.3944444 7.6875 40.537037 7.77083333 40.6796296 7.85416667 40.862963 7.91666667 41.0462963 7.9375 41.2296296 7.95833333 41.4333333 7.97916667 41.6574074 7.97916667 41.8814815 7.97916667 42.1055556 7.95833333 42.3092593 7.91666667 42.512963 7.875 42.6759259 7.8125 42.8185185 7.72916667 42.9611111 7.64583333 43.0833333 7.52083333 43.1648148 7.39583333 43.2462963 7.27083333 43.287037 7.10416667 43.287037 6.91666667 43.287037 6.70833333 43.2259259 6.54166667 43.1240741 6.41666667 43.0222222 6.29166667 42.8796296 6.1875 42.7166667 6.10416667 42.5333333 6.02083333 42.35 5.95833333 42.1055556 5.89583333 41.8814815 5.83333333 41.637037 5.79166667 41.3925926 5.72916667 41.1481481 5.66666667 40.9240741 5.60416667 40.7 5.54166667 40.4759259 5.47916667 40.2722222 5.375 40.0888889 5.27083333 39.9055556 5.14583333 39.762963 5 39.6407407 4.83333333 39.5185185 4.64583333 39.4777778 4.4375 39.4777778 4.16666667 39.4777778 3.66666667 39.6611111 3.27083333 40.0481481 2.97916667 40.4351852 2.6875 40.9648148 2.54166667 41.6981481 2.54166667 41.9833333 2.54166667 42.2277778 2.5625 42.4722222 2.625 42.7166667 2.6875 42.9407407 2.77083333 43.1240741 2.875 43.3074074 3 43.4703704 3.14583333 43.612963 3.33333333 43.7555556 3.52083333 43.837037 3.72916667 43.8777778 4L43.1648148 4.10416667C43.1240741 3.91666667 43.062963 3.77083333 42.9814815 3.64583333 42.9 3.52083333 42.7777778 3.41666667 42.6351852 3.35416667 42.4925926 3.29166667 42.35 3.22916667 42.187037 3.1875 42.0240741 3.14583333 41.8611111 3.14583333 41.6777778 3.14583333 41.1888889 3.14583333 40.8018519 3.22916667 40.5574074 3.41666667 40.312963 3.58333333 40.1907407 3.83333333 40.1907407 4.125 40.1907407 4.3125 40.2314815 4.45833333 40.312963 4.5625 40.3944444 4.6875 40.5166667 4.77083333 40.6592593 4.85416667 40.8018519 4.9375 40.9851852 5 41.1888889 5.0625 41.3925926 5.125 41.637037 5.16666667 41.8814815 5.22916667 42.1259259 5.29166667 42.3907407 5.35416667 42.6351852 5.41666667 42.8796296 5.47916667 43.1037037 5.58333333 43.3074074 5.70833333 43.5111111 5.83333333 43.6740741 5.97916667 43.7962963 6.16666667 43.9388889 6.29166667 44 6.52083333 44 6.8125z"/>
    </g>
  </g>
</svg>
