<svg xmlns="http://www.w3.org/2000/svg" width="30" height="30" viewBox="0 0 30 30">
  <g fill="#FF5A00">
    <path d="M12.9805025,15.9009045 L0.875728643,0.904371859 L15.8722613,13.0094472 C16.7558291,13.7231156 16.8939196,15.0174874 16.1805528,15.9009045 C15.4674874,16.7847739 14.1728141,16.9231658 13.2890955,16.209799 C13.1763317,16.1184422 13.0688442,16.0091457 12.9805025,15.9009045 Z"/>
    <path d="M2.68839196,7.6780402 C2.38447236,8.44100503 2.1260804,9.20909548 1.95497487,9.99211055 C1.76969849,10.7696985 1.65527638,11.5558794 1.61261307,12.3384422 C1.52864322,13.9037186 1.69296482,15.4521106 2.11643216,16.9049246 C2.94346734,19.8177889 4.7758794,22.3123116 7.15341709,23.9372864 C8.33592965,24.7516583 9.6479397,25.3459296 11.0121106,25.7039698 C12.3788442,26.0505528 13.7960804,26.1803518 15.1869347,26.0463317 C16.5752261,25.9132161 17.94,25.5628643 19.188392,24.9639196 C20.4420603,24.3818593 21.5886935,23.5783417 22.5630151,22.5922613 C23.5463819,21.6164322 24.3541206,20.4720603 24.9324121,19.2161307 C25.5301508,17.9686432 25.8832161,16.6041709 26.0124121,15.2161809 C26.148392,13.8254774 26.0155779,12.409598 25.6700503,11.0433166 C25.4951759,10.3599497 25.2524623,9.69271357 24.9563819,9.04733668 C24.6637688,8.40015075 24.3129648,7.77557789 23.9041206,7.18613065 C22.2794472,4.80964824 19.7874874,2.97768844 16.8761307,2.14974874 C15.4242211,1.7259799 13.8758291,1.56090452 12.3114573,1.6441206 C11.528593,1.68648241 10.7424121,1.79984925 9.96512563,1.98542714 C9.18135678,2.15532663 8.41341709,2.41356784 7.65030151,2.71688442 C10.2419095,0.688492462 13.7917085,-0.254924623 17.2664322,0.178492462 C19.0038693,0.393165829 20.7244221,0.941909548 22.2948241,1.80527638 C23.8674874,2.66653266 25.2830653,3.83155779 26.4529146,5.22557789 C28.8125126,8.01015075 30.0648241,11.7568342 29.8834673,15.4679397 C29.800402,17.3246231 29.360804,19.1690955 28.6117085,20.8824121 C27.8520603,22.5922613 26.7690452,24.1582915 25.4538693,25.4828141 C24.1273869,26.7957286 22.5636181,27.8828141 20.8521106,28.6377889 C19.1390955,29.3856784 17.2949246,29.8284422 15.4388442,29.9074372 C11.7277387,30.090603 7.98422111,28.8339196 5.19994975,26.4768844 C4.84809045,26.1827638 4.52095477,25.8841206 4.19261307,25.5494472 C4.11075377,25.4657789 4.02,25.3754774 3.95728643,25.3047739 L3.73326633,25.0613065 C3.58251256,24.8938191 3.43492462,24.7224121 3.2918593,24.5484422 C2.71884422,23.8527136 2.20824121,23.1067839 1.78160804,22.3195477 C0.918542714,20.750201 0.369798995,19.0307035 0.155125628,17.2931156 C-0.279045226,13.8197487 0.662713568,10.2711558 2.68839196,7.6780402 Z"/>
  </g>
</svg>
