<svg xmlns="http://www.w3.org/2000/svg" xmlns:xlink="http://www.w3.org/1999/xlink" width="30" height="32" viewBox="0 0 30 32">
  <defs>
    <polygon id="datadog-a" points=".011 .007 29.885 .007 29.885 32 .011 32"/>
  </defs>
  <g fill="none" fill-rule="evenodd">
    <mask id="datadog-b" fill="#fff">
      <use xlink:href="#datadog-a"/>
    </mask>
    <path fill="#FFFFFE" d="M12.778012,9.94368362 C13.7783133,9.26119774 15.0675904,9.52985311 14.8514458,9.73505085 C14.4403012,10.1262825 14.9877108,10.0111186 15.0466265,10.7339209 C15.0901807,11.2663503 14.9163253,11.5601356 14.7666867,11.7270056 C14.4549398,11.7680452 14.0750602,11.844339 13.6181928,11.9927684 C13.3478313,12.080452 13.1123494,12.1782599 12.9066867,12.2762486 C12.8522892,12.2406328 12.7937349,12.1977853 12.7234337,12.1372203 C12.0168072,11.5257853 12.0403012,10.4462825 12.778012,9.94368362 Z M18.7536145,14.159548 C18.9350602,14.0185311 19.7598795,13.7534915 20.5237952,13.6627345 C20.925,13.6150056 21.4960843,13.5884294 21.6184337,13.656226 C21.8600602,13.7898305 21.8604217,14.203661 21.6948795,14.5860339 C21.4539759,15.1419661 21.1120482,15.7544859 20.7258434,15.8056497 C20.0956627,15.8886328 19.4985542,15.547661 18.8175904,15.0383729 C18.5745181,14.8568588 18.4254217,14.4139209 18.7536145,14.159548 Z M19.9039157,8.75245198 C20.8351807,9.18562712 20.7133735,10.0102147 20.7386747,10.4943729 C20.7459036,10.6334011 20.7435542,10.7274124 20.731988,10.7921356 C20.6025904,10.7221695 20.3990964,10.6711864 20.076506,10.6851073 C19.9814458,10.6892655 19.8896386,10.7002938 19.8003614,10.7147571 C19.4571687,10.5308927 19.2518675,10.1698531 19.0642771,9.78729944 C19.0471084,9.7520452 19.0337349,9.72040678 19.0210843,9.68949153 C19.0158434,9.67538983 19.0091566,9.65984181 19.0048193,9.64718644 C19.0022892,9.64049718 19.0004819,9.63453107 18.9981325,9.6280226 C18.8949398,9.30097175 18.9637952,9.23552542 19.008253,9.13464407 C19.0528916,9.0319548 19.2211446,8.94662147 18.973012,8.86056497 C18.9516867,8.85315254 18.9242169,8.84754802 18.8949398,8.84302825 C19.0586747,8.63891525 19.5524096,8.58901695 19.9039157,8.75245198 Z M14.8283133,18.6117062 C13.824759,17.9670056 12.7870482,17.0428023 12.3334337,16.5315254 C12.256988,16.4742147 12.2696386,16.2192994 12.2696386,16.2192994 C12.6789759,16.5382147 14.3788554,17.7529492 16.175241,18.3076158 C16.808494,18.5034124 17.7813253,18.5775367 18.6249398,18.0986215 C19.2701205,17.7325198 20.0463253,17.0952316 20.5087952,16.4384181 L20.5937349,16.5859435 C20.5906627,16.6839322 20.3770482,17.1590508 20.2689759,17.3501469 C20.4646988,17.4629605 20.6112651,17.4935141 20.8293976,17.5537175 L22.3176506,17.3215819 C22.8507831,16.4588475 23.2342771,15.0667571 22.826747,13.7421017 C22.5930723,12.9824181 21.3793373,11.4697401 21.2922289,11.3860339 C20.9866265,11.0929718 21.343012,9.95941243 20.7383133,8.72388701 C20.0985542,7.41694915 18.4337349,6.05324294 17.709759,5.45970621 C17.9233735,5.61554802 19.2361446,6.14454237 19.8473494,6.88307345 C19.9046386,6.80659887 19.928494,6.41030508 19.9809036,6.3099661 C19.4557229,5.62223729 19.4148795,4.39701695 19.4148795,4.06978531 C19.4148795,3.46974011 19.1092771,2.78906215 19.1092771,2.78906215 C19.1092771,2.78906215 19.6353614,3.20488136 19.7709036,3.92171751 C19.9312048,4.77071186 20.273494,5.43873446 20.7258434,6.00424859 C21.581747,7.07109605 22.3543373,7.61871186 22.7457831,7.22458757 C23.2131325,6.75055367 22.2719277,4.63222599 21.0681325,3.44949153 C19.6655422,2.07077966 19.2974096,2.24867797 18.4736747,2.54300565 C17.8165663,2.77712994 17.4614458,4.64470056 15.748012,4.60763842 C15.4572289,4.57437288 14.7099398,4.55538983 14.3405422,4.55882486 C14.5331928,4.28980791 14.698012,4.0820791 14.698012,4.0820791 C14.698012,4.0820791 14.1231325,4.31312994 13.6337349,4.60655367 L13.5956024,4.54924294 C13.7609639,4.20049718 13.9387952,3.98101695 13.9387952,3.98101695 C13.9387952,3.98101695 13.479759,4.25726554 13.0608434,4.58738983 C13.1372892,4.1719322 13.4255422,3.90761582 13.4255422,3.90761582 C13.4255422,3.90761582 12.8454217,4.01301695 12.1059036,4.82621469 C11.2655422,5.05545763 11.0633133,5.20714124 10.3942771,5.50327684 C9.3063253,5.26571751 8.7923494,4.88244068 8.3036747,4.17663277 C7.93066265,3.6380565 7.26813253,3.55633898 6.58951807,3.83439548 C5.60222892,4.2440678 4.35253012,4.80361582 4.35253012,4.80361582 C4.35253012,4.80361582 4.7589759,4.7880678 5.18403614,4.80650847 C4.60319277,5.02689266 4.04403614,5.32953672 4.04403614,5.32953672 C4.04403614,5.32953672 4.31620482,5.3199548 4.65216867,5.3259209 C4.41993976,5.51882486 4.29162651,5.61084746 4.07150602,5.75710734 C3.53963855,6.14273446 3.10879518,6.58874576 3.10879518,6.58874576 C3.10879518,6.58874576 3.46987952,6.4240452 3.79337349,6.3320226 C3.56710843,6.85143503 3.11837349,7.23362712 3.20060241,7.86946893 C3.28012048,8.45035028 3.99216867,9.64574011 4.91186747,10.3795706 C4.99120482,10.4433898 6.24759036,11.6053333 7.19457831,11.128226 C8.14192771,10.651661 8.51493976,10.2266215 8.67054217,9.57523164 C8.8539759,8.82657627 8.74933735,8.26178531 8.35915663,6.63774011 C8.23012048,6.10151412 7.89451807,4.99832768 7.73186747,4.47059887 L7.76837349,4.4440226 C8.07813253,5.0979435 8.87060241,6.82160452 9.19012048,7.97866667 C9.68891566,9.78422599 9.53259036,10.700113 9.30487952,11.035661 C8.61722892,12.0482712 6.85373494,12.1820565 6.05168675,11.6207006 C5.92951807,13.5647458 6.36325301,14.4204294 6.51018072,14.851435 C6.43680723,15.3469831 6.75777108,16.2670282 6.75777108,16.2670282 C6.75777108,16.2670282 6.79427711,15.848678 6.9410241,15.6282938 C6.98042169,16.120226 7.22819277,16.7041808 7.22819277,16.7041808 C7.22819277,16.7041808 7.21319277,16.3435028 7.32596386,16.0318192 C7.48463855,16.3006554 7.60174699,16.3650169 7.75156627,16.5667797 C7.90138554,17.0921582 8.20337349,17.4767006 8.20337349,17.4767006 C8.20337349,17.4767006 8.15385542,17.1948475 8.1813253,16.9012429 C8.91650602,17.6081356 9.04301205,18.6393672 9.11656627,19.4310508 C9.32240964,21.6099435 5.68301205,23.3413785 4.97728916,24.704 C4.44289157,25.5105085 4.12319277,26.788339 5.02825301,27.5402486 C7.21680723,29.3582825 6.37644578,29.8588927 7.47144578,30.6574463 C8.97379518,31.7530395 10.8549398,31.2625537 11.4948795,30.3708927 C12.3862048,29.1290395 12.1568675,27.9573333 11.8259639,26.8619209 C11.5671687,26.0051525 10.8645181,24.5817853 9.99379518,24.0307345 C9.10554217,23.4679322 8.24168675,23.3623503 7.50921687,23.4381017 L7.57698795,23.3605424 C8.63006024,23.1510056 9.7303012,23.2667119 10.5272892,23.7792542 C11.4318072,24.3608588 12.2587952,25.3590056 12.6916265,26.8874124 C13.1821084,26.8170847 13.2520482,26.7854463 13.700241,26.7216271 L12.6890964,18.8469153 L14.8283133,18.6117062 Z M15.4118675,28.4823503 L15.2954819,27.3903729 L17.5691566,23.9202712 L20.1504217,24.6748927 L22.3707831,20.9659661 L25.031747,22.7219887 L27.0540361,18.480452 L27.7725904,26.2051073 L15.4118675,28.4823503 Z M27.800241,16.896904 L19.6745783,18.3705311 C19.4734337,18.6303277 18.9757229,19.0857401 18.7362651,19.2047006 C17.709759,19.7217627 17.0163253,19.571887 16.4170482,19.4160452 C16.0319277,19.3182373 15.8089157,19.263096 15.4883133,19.1191864 L13.5050602,19.3916384 L14.7088554,29.4394576 L28.628494,26.9300791 L27.800241,16.896904 Z" mask="url(#datadog-b)"/>
    <path fill="#6C4488" d="M18.9983133,9.62838418 C19.0006627,9.63453107 19.0024699,9.64067797 19.005,9.64754802 C19.0093373,9.66038418 19.0160241,9.67575141 19.0212651,9.68967232 C19.0339157,9.72058757 19.0472892,9.75222599 19.0644578,9.78748023 C19.2520482,10.1702147 19.4573494,10.5310734 19.8007229,10.7151186 C19.8898193,10.7004746 19.9816265,10.6896271 20.0766867,10.6854689 C20.3992771,10.671548 20.6029518,10.7225311 20.7323494,10.7923164 C20.7439157,10.7279548 20.7462651,10.6335819 20.7390361,10.4947345 C20.7135542,10.0105763 20.8353614,9.1859887 19.9042771,8.75281356 C19.5527711,8.58919774 19.0588554,8.63927684 18.8951205,8.84320904 C18.9245783,8.84772881 18.9518675,8.85333333 18.9731928,8.86074576 C19.221506,8.94680226 19.0530723,9.03213559 19.0084337,9.13482486 C18.9641566,9.23570621 18.8951205,9.30115254 18.9983133,9.62838418 Z M18.8175904,15.0389153 C19.4987349,15.5482034 20.0958434,15.8891751 20.7262048,15.8061921 C21.1124096,15.7550282 21.4543373,15.1425085 21.695241,14.5865763 C21.8607831,14.2042034 21.8604217,13.7903729 21.6187952,13.6565876 C21.4964458,13.5889718 20.9251807,13.615548 20.5241566,13.6632768 C19.7600602,13.7540339 18.935241,14.0190734 18.7537952,14.1599096 C18.4256024,14.4142825 18.5746988,14.8574011 18.8175904,15.0389153 Z M12.7778313,9.94386441 C12.0403012,10.4466441 12.0168072,11.5261469 12.7234337,12.1375819 C12.7935542,12.1983277 12.8521084,12.2409944 12.906506,12.276791 C13.1123494,12.1788023 13.3476506,12.0809944 13.6181928,11.9931299 C14.0750602,11.8448814 14.4549398,11.7684068 14.7666867,11.727548 C14.9163253,11.5604972 15.0901807,11.2665311 15.0466265,10.7341017 C14.9877108,10.0112994 14.4403012,10.1266441 14.8514458,9.73523164 C15.0675904,9.53021469 13.7781325,9.26137853 12.7778313,9.94386441 Z M25.0322892,22.7228927 L22.3711446,20.9668701 L20.1507831,24.6759774 L17.5693373,23.9211751 L15.2956627,27.3916384 L15.4120482,28.4836158 L27.7733133,26.2061921 L27.054759,18.4811751 L25.0322892,22.7228927 Z M13.5048795,19.3923616 L15.488494,19.1200904 C15.8089157,19.264 16.0321084,19.3187797 16.4170482,19.4167684 C17.0163253,19.5726102 17.7099398,19.7224859 18.7364458,19.2052429 C18.9759036,19.0866441 19.4736145,18.6310508 19.674759,18.3712542 L27.8007831,16.8976271 L28.6292169,26.9311638 L14.7088554,29.4407232 L13.5048795,19.3923616 Z M28.5986747,15.776904 L27.7964458,15.9298531 L26.2556024,0.0068700565 L0,3.05138983 L3.23421687,29.3045876 L6.30849398,28.8589379 C6.06289157,28.5082034 5.68048193,28.083887 5.02771084,27.5413333 C4.1226506,26.7897853 4.44253012,25.511774 4.97674699,24.7050847 C5.68246988,23.3426441 9.32204819,21.6104859 9.11620482,19.4315932 C9.04283133,18.6400904 8.9163253,17.608678 8.18096386,16.9017853 C8.15349398,17.1955706 8.20301205,17.4774237 8.20301205,17.4774237 C8.20301205,17.4774237 7.9010241,17.0928814 7.75120482,16.5675028 C7.60138554,16.3655593 7.48445783,16.3011977 7.32560241,16.0325424 C7.21283133,16.344226 7.22783133,16.7047232 7.22783133,16.7047232 C7.22783133,16.7047232 6.98006024,16.1207684 6.94066265,15.6288362 C6.79391566,15.8490395 6.75740964,16.2677514 6.75740964,16.2677514 C6.75740964,16.2677514 6.43626506,15.3477062 6.50981928,14.8519774 C6.36289157,14.4209718 5.9289759,13.5652881 6.0513253,11.6212429 C6.85337349,12.1824181 8.61704819,12.0486328 9.30451807,11.0360226 C9.53240964,10.7004746 9.68855422,9.78458757 9.18993976,7.97884746 C8.87024096,6.82178531 8.07777108,5.0979435 7.76801205,4.44420339 L7.73150602,4.47059887 C7.89415663,4.99814689 8.22975904,6.10169492 8.35879518,6.6379209 C8.74915663,8.2619661 8.85361446,8.82675706 8.67036145,9.57559322 C8.51457831,10.2269831 8.14156627,10.6520226 7.19439759,11.1285876 C6.24704819,11.6056949 4.99066265,10.4437514 4.9113253,10.3799322 C3.99144578,9.6459209 3.27939759,8.45071186 3.20006024,7.86964972 C3.1176506,7.23380791 3.56656627,6.85161582 3.79283133,6.33220339 C3.46933735,6.4240452 3.10825301,6.58892655 3.10825301,6.58892655 C3.10825301,6.58892655 3.53909639,6.14273446 4.07096386,5.75710734 C4.29126506,5.61084746 4.41957831,5.51882486 4.65162651,5.3259209 C4.31566265,5.32013559 4.04349398,5.32953672 4.04349398,5.32953672 C4.04349398,5.32953672 4.60283133,5.02689266 5.18349398,4.80650847 C4.75861446,4.7880678 4.35198795,4.80361582 4.35198795,4.80361582 C4.35198795,4.80361582 5.60186747,4.24424859 6.58915663,3.83439548 C7.26777108,3.55633898 7.9303012,3.6380565 8.30331325,4.17663277 C8.79216867,4.88244068 9.30614458,5.26571751 10.3940964,5.50327684 C11.0631325,5.20732203 11.2653614,5.05563842 12.1057229,4.82621469 C12.845241,4.01301695 13.4255422,3.90761582 13.4255422,3.90761582 C13.4255422,3.90761582 13.1371084,4.1719322 13.0608434,4.58738983 C13.479759,4.25726554 13.9387952,3.98101695 13.9387952,3.98101695 C13.9387952,3.98101695 13.7607831,4.20049718 13.5956024,4.54924294 L13.6337349,4.60655367 C14.1231325,4.31312994 14.698012,4.0820791 14.698012,4.0820791 C14.698012,4.0820791 14.5331928,4.28980791 14.3405422,4.55882486 C14.7099398,4.55557062 15.4574096,4.57437288 15.748012,4.60781921 C17.4616265,4.64470056 17.816747,2.77712994 18.4738554,2.54300565 C19.2975904,2.24867797 19.6659036,2.07077966 21.068494,3.44949153 C22.2722892,4.63222599 23.2136747,6.75073446 22.7463253,7.22476836 C22.3546988,7.61889266 21.5821084,7.07127684 20.7262048,6.00424859 C20.2736747,5.43891525 19.9313855,4.77071186 19.7710843,3.92171751 C19.6357229,3.20488136 19.1096386,2.78906215 19.1096386,2.78906215 C19.1096386,2.78906215 19.415241,3.46974011 19.415241,4.06978531 C19.415241,4.39701695 19.4560843,5.62223729 19.9812651,6.3099661 C19.9286747,6.41030508 19.9048193,6.80677966 19.8475301,6.88325424 C19.2363253,6.14472316 17.9235542,5.61554802 17.7099398,5.45970621 C18.4339157,6.05324294 20.0989157,7.41712994 20.7386747,8.7240678 C21.3433735,9.95977401 20.986988,11.0933333 21.2925904,11.3865763 C21.3796988,11.4701017 22.5934337,12.9827797 22.8271084,13.7426441 C23.2348193,15.0672994 22.8513253,16.4593898 22.318012,17.3221243 L20.829759,17.5544407 C20.6116265,17.4942373 20.4650602,17.4636836 20.2693373,17.3508701 C20.3772289,17.159774 20.5908434,16.6844746 20.5939157,16.5866667 L20.5091566,16.4391412 C20.0466867,17.095774 19.2703012,17.7332429 18.6253012,18.0993446 C17.781506,18.5782599 16.8086747,18.5041356 16.1754217,18.308339 C14.3786747,17.7536723 12.6789759,16.5387571 12.2694578,16.2200226 C12.2694578,16.2200226 12.256988,16.4749379 12.3334337,16.5322486 C12.7868675,17.0433446 13.8245783,17.9677288 14.8283133,18.6124294 L12.6890964,18.8478192 L13.700241,26.7228927 C13.2518675,26.7867119 13.1821084,26.8183503 12.6916265,26.8884972 C12.2586145,25.3599096 11.4316265,24.3619435 10.5271084,23.780339 C9.73012048,23.2676158 8.6296988,23.1522712 7.57662651,23.3614463 L7.50885542,23.4393672 C8.2413253,23.363435 9.10536145,23.4691977 9.99361446,24.0316384 C10.8643373,24.5828701 11.5671687,26.0062373 11.8257831,26.8631864 C12.1566867,27.9585989 12.3860241,29.1303051 11.4946988,30.3721582 C10.8610843,31.255322 9.01048193,31.7425537 7.51554217,30.6876384 C7.91493976,31.3292655 8.45421687,31.8553672 9.18054217,31.9538983 C10.26,32.1001582 11.2841566,31.9130395 11.9880723,31.1896949 C12.5904217,30.5708475 12.9092169,29.276565 12.825,27.9139435 L13.7772289,27.7761808 L14.1211446,30.2217401 L29.8845181,28.3236158 L28.5986747,15.776904 Z" mask="url(#datadog-b)"/>
  </g>
</svg>
