<svg xmlns="http://www.w3.org/2000/svg" width="50" height="50" viewBox="0 0 50 50">
  <path fill="#4C4C4B" d="M25,0 C11.1929688,0 0,11.1929688 0,25 C0,38.8070313 11.1929688,50 25,50 C38.8070313,50 50,38.8070313 50,25 C50,11.1929688 38.8070313,0 25,0 Z M16.0671875,36.9904297 C21.7560547,41.6013672 30.6617187,40.3119141 35.7914062,34.1726562 C30.8154297,33.5130859 24.9400391,31.9544922 20.1738281,30.0958984 C18.8849609,32.5839844 17.8957031,34.5623047 16.0671875,36.9904297 Z M30.6955078,11.8505859 C27.5779297,12.6498047 23.5011719,19.6042969 21.103125,27.2181641 C26.9183594,29.8560547 31.4748047,30.9351562 37.7697266,31.6945312 C37.7697266,31.6945312 43.5851562,18.6849609 30.6955078,11.8505859 Z M28.5970703,43.825 C21.8041016,45.13125 13.0095703,41.5767578 9.7421875,36.3609375 C9.7421875,36.3609375 14.4169922,31.1775391 15.7074219,28.1474609 C14.3160156,27.0679688 13.4791016,26.446875 12.5914062,25.6552734 C7.46875,21.0876953 7.55976562,14.8013672 12.7865234,10.3375 C18.6140625,5.36054687 27.484375,4.55566406 34.3283203,8.38320312 C41.2390625,12.2480469 45.1810547,20.2 43.9292969,27.7509766 C42.5568359,36.0291016 36.3455078,42.3349609 28.5970703,43.825 Z M26.1990234,10.8513672 C22.2816406,10.7947266 19.3207031,11.5808594 16.5689453,13.5259766 C12.0457031,16.7232422 12.265625,21.8240234 17.1119141,24.8671875 C19.4244141,19.5443359 21.2960938,14.7027344 26.1990234,10.8513672 Z"/>
</svg>
