<svg xmlns="http://www.w3.org/2000/svg" width="30" height="30" viewBox="0 0 30 30">
  <g fill="#0080FF">
    <path d="M14.9491525,29.9491525 L14.9491525,24.1525424 C21.0847458,24.1525424 25.8474576,18.0677966 23.4915254,11.6101695 C22.6271186,9.22033898 20.7118644,7.30508475 18.3220339,6.44067797 C11.8644068,4.10169492 5.77966102,8.84745763 5.77966102,14.9830508 L0,14.9830508 C0,5.20338983 9.45762712,-2.42372881 19.7118644,0.779661017 C24.1864407,2.18644068 27.7627119,5.74576271 29.1525424,10.220339 C32.3559322,20.4915254 24.7457627,29.9491525 14.9491525,29.9491525 Z"/>
    <polygon points="14.966 24.169 9.203 24.169 9.203 18.407 9.203 18.407 14.966 18.407 14.966 18.407"/>
    <polygon points="9.203 28.61 4.763 28.61 4.763 28.61 4.763 24.169 9.203 24.169"/>
    <polygon points="4.763 24.169 1.051 24.169 1.051 24.169 1.051 20.458 1.051 20.458 4.763 20.458 4.763 20.458"/>
  </g>
</svg>
