<svg xmlns="http://www.w3.org/2000/svg" width="30" height="30" viewBox="0 0 30 30">
  <g fill="none">
    <path fill="#000" d="M15.107767,0 C6.90582524,0 0,6.58557692 0,14.7115385 L0,29.9451923 L15.1048544,29.9307692 C23.3067961,29.9307692 29.9592233,23.0913462 29.9592233,14.9682692 C29.9592233,6.84519231 23.3009709,0 15.107767,0 Z"/>
    <path fill="#FFF9AE" d="M15.2533981,5.69423077 C12.0093187,5.69612709 9.00550573,7.38824608 7.34575975,10.1487907 C5.68601374,12.9093353 5.6151556,16.3311113 7.1592233,19.1567308 L5.49320388,24.4644231 L11.4757282,23.1259615 C14.9015531,24.6545942 18.9215733,23.9680315 21.632582,21.3913141 C24.3435906,18.8145968 25.2015336,14.864829 23.8002332,11.4119577 C22.3989327,7.95908645 19.0196064,5.69604537 15.2621359,5.69423077 L15.2533981,5.69423077 Z"/>
    <path fill="#00AEEF" d="M22.452649,20.4559218 C19.8374954,23.7232117 15.3173404,24.8167605 11.4757282,23.1115385 L5.49320388,24.4673077 L11.5834951,23.7548077 C15.6209384,26.0971696 20.7903455,25.0665685 23.5982071,21.3594892 C26.4060687,17.65241 25.9586215,12.4488438 22.5582524,9.26538462 C25.1112887,12.5805125 25.0678026,17.188632 22.452649,20.4559218 Z"/>
    <path fill="#00A94F" d="M21.9376085,18.7237048 C19.6812684,22.2434571 15.3012872,23.7984694 11.3009709,22.5 L5.49320388,24.4673077 L11.4757282,23.1259615 C15.7364616,25.0320835 20.763184,23.471778 23.1632166,19.4981399 C25.5632492,15.5245019 24.573985,10.400149 20.8631068,7.58365385 C23.7514876,10.6166746 24.1939486,15.2039525 21.9376085,18.7237048 Z"/>
    <path fill="#F15D22" d="M7.70970874,19.3586538 C6.04231547,15.3781152 7.41641496,10.7849631 11.0041421,8.34647207 C14.5918692,5.90798109 19.413488,6.29005393 22.5640777,9.2625 C19.6461621,5.47006999 14.2707749,4.54436784 10.2315273,7.13869607 C6.19227961,9.73302427 4.85315487,14.9713235 7.1592233,19.1567308 L5.49320388,24.4644231 L7.70970874,19.3586538 Z"/>
    <path fill="#D0232B" d="M7.1592233,19.1567308 C5.0903063,15.3719637 5.97518283,10.6698237 9.2818523,7.87730582 C12.5885217,5.08478792 17.4164877,4.96237099 20.8631068,7.58365385 C17.5568972,4.13582215 12.1305266,3.78298367 8.39753455,6.77310588 C4.66454251,9.76322812 3.87825661,15.0923972 6.59126214,19.0153846 L5.4961165,24.4673077 L7.1592233,19.1567308 Z"/>
  </g>
</svg>
