<svg xmlns="http://www.w3.org/2000/svg" width="50" height="50" viewBox="0 0 50 50">
  <g fill="none" fill-rule="evenodd">
    <circle cx="25" cy="25" r="25" fill="#1A5EC6"/>
    <path fill="#FFF" d="M17.0833333,0.125 C16.2916667,0.125 15.5,0.166666667 14.75,0.333333333 L14.75,8.08333333 C13.6666667,7.66666667 12.4166667,7.45833333 10.75,7.45833333 C4.83333333,7.45833333 0,11.5 0,18 C0,24.6666667 4.41666667,28.3333333 10.9166667,28.3333333 C14.125,28.3333333 17.4166667,27.4583333 19.4583333,26.375 L19.4583333,0.333333333 C18.6666667,0.166666667 17.8333333,0.125 17.0833333,0.125 Z M10.8333333,24.2083333 C7.25,24.2083333 4.79166667,21.7916667 4.79166667,17.9166667 C4.79166667,14.0833333 7.41666667,11.625 10.9166667,11.625 C12.3333333,11.625 13.625,11.7916667 14.75,12.5 L14.75,23.5833333 C13.5,24.0416667 12.2083333,24.25 10.8333333,24.2083333 Z" transform="translate(15 10)"/>
  </g>
</svg>
