<svg xmlns="http://www.w3.org/2000/svg" width="30" height="22" viewBox="0 0 30 22">
  <g fill="#0091E2">
    <path d="M29.6850629,8.30069006 C29.6037483,8.23469006 28.8446853,7.64888109 27.2439021,7.64888109 C26.8212168,7.65076803 26.3994126,7.68782066 25.9826014,7.75969591 C25.6727832,5.58920078 23.9170909,4.53097076 23.8383776,4.48349708 L23.4085175,4.23013255 L23.1258042,4.64710331 C22.7717622,5.20722417 22.5133007,5.82468226 22.3615804,6.47323197 C22.074965,7.71222222 22.2492587,8.87594932 22.865035,9.87083821 C22.1214545,10.2943704 20.9286294,10.3986238 20.6872448,10.4078441 L0.938475524,10.4078441 C0.422643357,10.4085731 0.00406993007,10.8346355 0.00125874126,11.3618207 C-0.0217762238,13.1301404 0.271342657,14.8879103 0.866181818,16.5485887 C1.54648951,18.3721014 2.5586014,19.7153021 3.87537063,20.5373216 C5.35090909,21.4609357 7.74818182,21.9887212 10.4655944,21.9887212 C11.6932028,21.9926667 12.9185035,21.8791072 14.1254266,21.6496296 C15.8031608,21.334768 17.4175804,20.7354074 18.9018881,19.8762495 C20.1249231,19.1523509 21.2256503,18.2314386 22.1615245,17.1489357 C23.7261399,15.3386316 24.6582378,13.3224795 25.3514266,11.5307018 C25.4443636,11.5307018 25.5373427,11.5307018 25.6276783,11.5307018 C27.3407413,11.5307018 28.3941818,10.8300468 28.9750909,10.2429084 C29.3611469,9.86843665 29.6625315,9.41226901 29.8580979,8.90631189 L29.9807413,8.53951657 L29.6850629,8.30069006 Z"/>
    <path d="M2.76902098 9.81676023L5.41544056 9.81676023C5.54307692 9.81676023 5.6465035 9.71100585 5.6465035 9.58059259L5.6465035 7.17122807C5.64721678 7.04077193 5.54433566 6.93446004 5.41674126 6.93373099 5.41632168 6.93373099 5.41586014 6.93373099 5.41544056 6.93373099L2.76902098 6.93373099C2.64138462 6.93373099 2.53795804 7.03948538 2.53795804 7.16989864 2.53795804 7.17032749 2.53795804 7.17079922 2.53795804 7.17122807L2.53795804 9.58054971C2.53795804 9.71100585 2.64138462 9.81676023 2.76902098 9.81676023M6.41593007 9.81676023L9.06234965 9.81676023C9.18998601 9.81676023 9.29341259 9.71100585 9.29341259 9.58059259L9.29341259 7.17122807C9.29412587 7.04077193 9.19124476 6.93446004 9.06360839 6.93373099 9.06318881 6.93373099 9.06272727 6.93373099 9.06230769 6.93373099L6.41588811 6.93373099C6.28753846 6.93373099 6.18352448 7.04004288 6.18352448 7.17122807L6.18352448 9.58054971C6.18427972 9.71122027 6.28808392 9.81676023 6.41593007 9.81676023M10.1183077 9.81676023L12.7647273 9.81676023C12.8923636 9.81676023 12.9957902 9.71100585 12.9957902 9.58059259L12.9957902 7.17122807C12.9965035 7.04077193 12.8936224 6.93446004 12.765986 6.93373099 12.7655664 6.93373099 12.7651049 6.93373099 12.7646853 6.93373099L10.1182657 6.93373099C9.99062937 6.93373099 9.8872028 7.03948538 9.8872028 7.16989864 9.8872028 7.17032749 9.8872028 7.17079922 9.8872028 7.17122807L9.8872028 9.58054971C9.88724476 9.71100585 9.99071329 9.81676023 10.1183077 9.81676023M13.7768392 9.81676023L16.4232587 9.81676023C16.5511049 9.81676023 16.6549091 9.71126316 16.6556224 9.58059259L16.6556224 7.17122807C16.6556224 7.04004288 16.5516084 6.93373099 16.4232587 6.93373099L13.7768392 6.93373099C13.6492028 6.93373099 13.5457762 7.03948538 13.5457762 7.16989864 13.5457762 7.17032749 13.5457762 7.17079922 13.5457762 7.17122807L13.5457762 9.58054971C13.5457762 9.71100585 13.6492448 9.81676023 13.7768392 9.81676023M6.41593007 6.35053801L9.06234965 6.35053801C9.19015385 6.34980897 9.29341259 6.24366862 9.29341259 6.11304094L9.29341259 3.7037193C9.29341259 3.57326316 9.18994406 3.46755166 9.06234965 3.46755166L6.41593007 3.46755166C6.28812587 3.46755166 6.18427972 3.57304873 6.18356643 3.7037193L6.18356643 6.11304094C6.18427972 6.24392593 6.28787413 6.34980897 6.41593007 6.35053801M10.1183077 6.35053801L12.7647273 6.35053801C12.8925315 6.34980897 12.9957902 6.24366862 12.9957902 6.11304094L12.9957902 3.7037193C12.9957902 3.57326316 12.8923217 3.46755166 12.7647273 3.46755166L10.1183077 3.46755166C9.99067133 3.46755166 9.88724476 3.57330604 9.88724476 3.7037193L9.88724476 6.11304094C9.88724476 6.24366862 9.9905035 6.34980897 10.1183077 6.35053801M13.7768392 6.35053801L16.4232587 6.35053801C16.5513147 6.34980897 16.6549091 6.24392593 16.6556224 6.11304094L16.6556224 3.7037193C16.6549091 3.57304873 16.5511049 3.46755166 16.4232587 3.46755166L13.7768392 3.46755166C13.6492028 3.46755166 13.5457762 3.57330604 13.5457762 3.7037193L13.5457762 6.11304094C13.5457762 6.24366862 13.649035 6.34980897 13.7768392 6.35053801M13.7768392 2.88302924L16.4232587 2.88302924C16.5511049 2.88302924 16.6549091 2.77748928 16.6556224 2.6468616L16.6556224.236167641C16.6549091.105497076 16.5511049 0 16.4232587 0L13.7768392 0C13.6492028 0 13.5457762.105711501 13.5457762.236167641L13.5457762 2.64681871C13.5457762 2.77727485 13.6492448 2.88302924 13.7768392 2.88302924M17.4676364 9.81676023L20.1140559 9.81676023C20.2419021 9.81676023 20.3457063 9.71126316 20.3464196 9.58059259L20.3464196 7.17122807C20.3464196 7.04004288 20.2424056 6.93373099 20.1140559 6.93373099L17.4676364 6.93373099C17.340042 6.93373099 17.2365734 7.03948538 17.2365734 7.16989864 17.2365734 7.17032749 17.2365734 7.17079922 17.2365734 7.17122807L17.2365734 9.58054971C17.2365734 9.71100585 17.340042 9.81676023 17.4676364 9.81676023"/>
  </g>
</svg>
