<svg xmlns="http://www.w3.org/2000/svg" width="30" height="10" viewBox="0 0 30 10">
  <path fill="#121212" fill-rule="evenodd" d="M3.58875,8.2608 C2.69708333,8.2608 1.64958333,7.6648 1.64958333,6.362 C1.64958333,5.0592 2.70791667,4.46 3.58958333,4.46 C4.65125,4.46 5.52791667,5.2484 5.52791667,6.362 C5.52791667,7.4756 4.65875,8.2608 3.58875,8.2608 Z M6.7625,0.1624 C6.9625,0.1624 7.12458333,0.318 7.12458333,0.51 L7.12458333,9.1828 C7.12458333,9.37499509 6.96228656,9.5308 6.76208333,9.5308 L5.91833333,9.5308 C5.71829285,9.53057927 5.55624987,9.37483899 5.55625,9.1828 L5.55625,8.58 L5.52833333,8.58 C5.52833333,8.58 4.98291667,9.6888 3.25,9.6888 C1.5475,9.6884 0,8.5504 0,6.362 C0,4.1736 1.62666667,3.0344 3.19,3.0344 C4.75333333,3.0344 5.43166667,3.9984 5.43166667,3.9984 L5.47333333,3.9984 L5.47333333,0.51 C5.47333333,0.318 5.63541667,0.162 5.83541667,0.162 L6.76208333,0.162 L6.7625,0.1624 Z M11.8033333,3.0328 C13.3758333,3.0328 15.3929167,4.0256 15.3929167,6.3604 C15.3929167,8.6948 13.3808333,9.6868 11.8033333,9.6868 C10.2258333,9.6868 8.21416667,8.7148 8.21416667,6.3604 C8.21416667,4.006 10.1858333,3.0324 11.8033333,3.0324 L11.8033333,3.0328 Z M23.2258333,4.9412 C23.06125,4.9412 22.94,4.8216 22.9195833,4.7692 C22.7820833,4.4244 22.3445833,4.2948 21.9920833,4.2948 C21.435,4.2948 20.9983333,4.5424 20.9983333,4.9684 C20.9983333,5.4476 21.5858333,5.532 22.41125,5.7164 C23.2041667,5.8936 24.6791667,6.1832 24.6791667,7.648 C24.6791667,9.0724 23.2791667,9.6808 21.8779167,9.6808 C19.5320833,9.6808 19.23,8.1632 19.23,7.9748 C19.23,7.8264 19.3570833,7.634 19.59375,7.634 L20.5045833,7.634 C20.68375,7.634 20.8045833,7.7596 20.84,7.858 C20.9570833,8.1684 21.3295833,8.4024 21.9566667,8.4024 C22.63,8.4024 23.0279167,8.1464 23.0279167,7.8052 C23.0279167,7.216 22.3691667,7.0972 21.60875,6.9388 C20.5725,6.7228 19.3483333,6.5028 19.3483333,5.0736 C19.3483333,3.6336 20.7116667,3.0268 21.9095833,3.0268 C23.67625,3.0268 24.3241667,4.098 24.3970833,4.4952 C24.4379167,4.7144 24.3095833,4.9412 24.0529167,4.9412 L23.2258333,4.9412 Z M28.2804167,9.658 C27.50375,9.658 26.2716667,9.5108 26.2716667,7.6188 L26.2716667,4.508 L25.3970833,4.508 C25.1970428,4.50777927 25.0349999,4.35203899 25.035,4.16 L25.035,3.512 C25.035,3.32 25.1975,3.164 25.3975,3.164 L26.2716667,3.164 L26.2716667,1.5556 C26.2717276,1.41728094 26.357113,1.29212762 26.4891667,1.2368 L27.4158333,0.8488 C27.5277932,0.80221152 27.6566567,0.812825092 27.758714,0.877040654 C27.8607714,0.941256216 27.9223264,1.05045597 27.9225,1.1676 L27.9225,3.164 L29.37625,3.164 C29.57625,3.164 29.7383333,3.3196 29.7383333,3.5116 L29.7383333,4.16 C29.7383333,4.352 29.5758333,4.5076 29.3758333,4.5076 L27.9225,4.5076 L27.9225,7.4172 C27.9225,8.0168 28.0495833,8.2596 28.6645833,8.2596 C28.8604167,8.2596 28.9416667,8.1992 29.0229167,8.1992 C29.1595833,8.1992 29.27625,8.236 29.35875,8.3844 L29.6720833,8.9468 C29.7187041,9.03063612 29.7275819,9.12912893 29.6966551,9.2194069 C29.6657283,9.30968487 29.5976877,9.38389335 29.5083333,9.4248 C29.2608333,9.538 28.86125,9.6576 28.2804167,9.6576 L28.2804167,9.658 Z M16.4816667,3.5108 C16.4816667,3.3188 16.6441667,3.1628 16.8441667,3.1628 L17.7704167,3.1628 C17.9704167,3.1628 18.1329167,3.3188 18.1329167,3.5108 L18.1329167,9.1828 C18.1329167,9.37499509 17.9706199,9.5308 17.7704167,9.5308 L16.84375,9.5308 C16.64375,9.5308 16.4816667,9.3748 16.4816667,9.1828 L16.4816667,3.5108 Z M17.3175,1.9904 C16.6716667,1.9904 16.2583333,1.5184 16.2583333,1.0396 C16.2583333,0.5608 16.6666667,0.0884 17.3175,0.0884 C17.96875,0.0884 18.3770833,0.5608 18.3770833,1.0396 C18.3770833,1.518 17.9641667,1.9904 17.3175,1.9904 Z M11.7991667,8.2608 C12.8829167,8.2608 13.73875,7.4284 13.73875,6.3604 C13.73875,5.2924 12.9033333,4.4584 11.7991667,4.4584 C10.695,4.4584 9.86333333,5.292 9.86333333,6.3604 C9.86333333,7.4284 10.715,8.2608 11.7991667,8.2608 Z"/>
</svg>
