<svg xmlns="http://www.w3.org/2000/svg" width="50" height="50" viewBox="0 0 50 50">
  <g fill="none" fill-rule="evenodd">
    <circle cx="25" cy="25" r="25" fill="#366CD6"/>
    <g fill="#FFF" transform="translate(10 10)">
      <path d="M6.59124088,11.9124088 C6.59124088,11.9124088 9.04379562,10.0729927 9.8540146,10.2481752 L22.270073,10.1605839 L15.9854015,20.8686131 C15.350365,21.7883212 12.919708,22.8613139 12.919708,22.8613139 L13.729927,15.0875912 L6.59124088,11.9124088 Z"/>
      <path fill-rule="nonzero" d="M14.9781022,0 C19.1167883,0 22.8613139,1.68613139 25.5766423,4.37956204 C28.2919708,7.09489051 29.9562044,10.8394161 29.9562044,14.9781022 L29.9781022,14.9781022 L29.9781022,15 L29.9562044,15 C29.9562044,19.1167883 28.2919708,22.8613139 25.5766423,25.5547445 C22.8613139,28.270073 19.1386861,29.9562044 14.9781022,29.9562044 L14.9781022,27.5693431 C18.4379562,27.5693431 21.5912409,26.1459854 23.8686131,23.8905109 C26.1459854,21.6131387 27.5693431,18.459854 27.5693431,15.0218978 L27.5474453,15.0218978 L27.5474453,15 L27.5693431,15 C27.5693431,11.540146 26.1459854,8.38686131 23.8905109,6.10948905 C21.5912409,3.81021898 18.4379562,2.38686131 14.9781022,2.38686131 L14.9781022,0 Z M14.9781022,29.9562044 C10.8394161,29.9562044 7.09489051,28.270073 4.37956204,25.5547445 C1.66423358,22.8613139 0,19.1167883 0,15 L0,14.9781022 C0,10.8394161 1.66423358,7.09489051 4.37956204,4.37956204 C7.09489051,1.68613139 10.8394161,0 14.9781022,0 L14.9781022,2.38686131 C11.5182482,2.38686131 8.3649635,3.78832117 6.08759124,6.06569343 C3.81021898,8.3649635 2.38686131,11.5182482 2.38686131,14.9781022 L2.38686131,15 C2.38686131,18.459854 3.78832117,21.5912409 6.06569343,23.8686131 C8.34306569,26.1459854 11.4963504,27.5474453 14.9562044,27.5474453 L14.9562044,29.9562044 L14.9781022,29.9562044 Z"/>
    </g>
  </g>
</svg>
