<svg xmlns="http://www.w3.org/2000/svg" xmlns:xlink="http://www.w3.org/1999/xlink" width="42" height="42" viewBox="0 0 42 42">
  <defs>
    <path id="duckduckgo-a" d="M35.7037288,18.4008 C35.7037288,28.3050333 27.7105085,36.36085 17.8833898,36.36085 C8.05830508,36.36085 0.066440678,28.3036667 0.066440678,18.4008 C0.066440678,8.49861667 8.05966102,0.4428 17.8833898,0.4428 C27.7105085,0.442116667 35.7037288,8.49861667 35.7037288,18.4008 Z"/>
    <linearGradient id="duckduckgo-c" x1=".017%" x2="100.005%" y1="50%" y2="50%">
      <stop offset=".56%" stop-color="#6176B9"/>
      <stop offset="69.1%" stop-color="#394A9F"/>
    </linearGradient>
    <linearGradient id="duckduckgo-d" x1="-.013%" x2="100.003%" y1="49.994%" y2="49.994%">
      <stop offset=".56%" stop-color="#6176B9"/>
      <stop offset="69.1%" stop-color="#394A9F"/>
    </linearGradient>
  </defs>
  <g fill="none" fill-rule="evenodd" transform="translate(1 .5)">
    <ellipse cx="19.919" cy="20.5" fill="#DE5833" fill-rule="nonzero" rx="17.661" ry="17.801"/>
    <ellipse cx="19.917" cy="20.5" stroke="#DE5833" stroke-width="1.525" rx="19.831" ry="19.959"/>
    <g transform="translate(2.034 2.05)">
      <mask id="duckduckgo-b" fill="#fff">
        <use xlink:href="#duckduckgo-a"/>
      </mask>
      <g fill-rule="nonzero" mask="url(#duckduckgo-b)">
        <g transform="translate(7.458 4.1)">
          <path fill="#D5D7D8" d="M17.6637288,40.8640167 C17.0420339,37.9796667 13.4305085,31.4538333 12.060339,28.6945333 C10.6915254,25.9359167 9.32,22.0457 9.94372881,19.5365 C10.0569492,19.0800333 8.7579661,15.6011833 9.13152542,15.3551833 C12.0366102,13.4452667 12.8027119,15.5649667 13.9654237,14.7080667 C14.5654237,14.2666333 15.3776271,15.0709167 15.5857627,14.3383833 C16.3301695,11.7048167 14.5477966,7.11486667 12.5586441,5.10791667 C11.9084746,4.45396667 10.9111864,4.04328333 9.78644068,3.8253 C9.35389831,3.22943333 8.65559322,2.65543333 7.66779661,2.1279 C6.56677966,1.5375 4.17355932,0.757816667 2.93288136,0.550083333 C2.07254237,0.407266667 1.87864407,0.64985 1.51050847,0.709983333 C1.85288136,0.740733333 3.4779661,1.5498 3.79525424,1.59763333 C3.47864407,1.81288333 2.54983051,1.58738333 1.95661017,1.85525 C1.65830508,1.99191667 1.43457627,2.5092 1.43661017,2.75315 C3.13152542,2.58026667 5.77694915,2.74768333 7.34033898,3.44878333 C6.09694915,3.5916 4.20542373,3.75081667 3.39254237,4.18131667 C1.02847458,5.43728333 -0.0155932203,8.36946667 0.606779661,11.8824833 C1.22983051,15.3879833 3.96881356,28.1840833 4.84067797,32.4569667 C5.71254237,36.7250667 2.97355932,39.4823167 1.23118644,40.23535 L3.09830508,40.36245 L2.47661017,41.7434667 C4.71525424,41.9949333 7.20474576,41.2446333 7.20474576,41.2446333 C6.70779661,42.62565 3.34576271,43.1279 3.34576271,43.1279 C3.34576271,43.1279 4.96610169,43.62605 7.57830508,42.6249667 C10.1932203,41.6225167 11.8115254,40.9924833 11.8115254,40.9924833 L13.0555932,44.2526667 L15.4223729,41.8705667 L16.4183051,44.3797667 C16.4176271,44.3777167 18.2861017,43.7476833 17.6637288,40.8640167 Z"/>
          <path fill="#FFF" d="M18.4155932,40.2777167 C17.7952542,37.3933667 14.1844068,30.8675333 12.8135593,28.1061833 C11.4433898,25.3455167 10.0738983,21.45735 10.6969492,18.9495167 C10.8122034,18.49305 10.8149153,16.6289167 11.1905085,16.38155 C14.0942373,14.4682167 13.8881356,16.31595 15.0522034,15.45905 C15.6528814,15.0176167 16.1335593,14.4825667 16.3430508,13.7500333 C17.0908475,11.1157833 15.3050847,6.52651667 13.3138983,4.51888333 C12.6657627,3.86425 11.6684746,3.45356667 10.5437288,3.23695 C10.1118644,2.63903333 9.41491525,2.06708333 8.42644068,1.53886667 C6.56542373,0.542566667 4.25830508,0.144183333 2.12067797,0.53505 C2.46237288,0.566483333 3.24474576,1.2792 3.56,1.32566667 C3.08338983,1.65161667 1.81627119,1.60993333 1.82372881,2.33358333 C3.52067797,2.16275 5.38101695,2.43266667 6.94508475,3.13308333 C5.70169492,3.27521667 4.54372881,3.58476667 3.73084746,4.01731667 C1.3640678,5.27055 0.742372881,7.77975 1.3640678,11.2948167 C1.98779661,14.8085167 4.72745763,27.6046167 5.5959322,31.87135 C6.46847458,36.1346667 3.73084746,38.8939667 1.98847458,39.6483667 L3.85559322,39.7754667 L3.23389831,41.1564833 C5.47254237,41.4045333 7.9620339,40.6556 7.9620339,40.6556 C7.46576271,42.0366167 4.10372881,42.5375 4.10372881,42.5375 C4.10372881,42.5375 5.72135593,43.0383833 8.33559322,42.03525 C10.9518644,41.0321167 12.5715254,40.4048167 12.5715254,40.4048167 L13.8142373,43.6656833 L16.1810169,41.2815333 L17.1783051,43.7914167 C17.1735593,43.7907333 19.039322,43.16275 18.4155932,40.2777167 Z"/>
          <path fill="#2D4F8E" d="M4.10508475,11.4718 C4.10508475,10.74405 4.68881356,10.15365 5.41355932,10.15365 C6.13491525,10.15365 6.72,10.7426833 6.72,11.4718 C6.72,12.2002333 6.13491525,12.7892667 5.41355932,12.7892667 C4.68949153,12.7892667 4.10508475,12.2002333 4.10508475,11.4718 Z"/>
          <path fill="#FFF" d="M5.65423729,11.0317333 C5.65423729,10.84245 5.80677966,10.6900667 5.99254237,10.6900667 C6.18033898,10.6900667 6.33220339,10.8431333 6.33220339,11.0317333 C6.33220339,11.2203333 6.18033898,11.3740833 5.99254237,11.3740833 C5.80677966,11.3747667 5.65423729,11.2217 5.65423729,11.0317333 Z"/>
          <path fill="#2D4F8E" d="M13.0284746,10.6900667 C13.0284746,10.0661833 13.5328814,9.55915 14.1511864,9.55915 C14.7728814,9.55915 15.2745763,10.0661833 15.2745763,10.6900667 C15.2745763,11.3166833 14.7722034,11.8237167 14.1511864,11.8237167 C13.5328814,11.8237167 13.0284746,11.3166833 13.0284746,10.6900667 Z"/>
          <path fill="#FFF" d="M14.36,10.31355 C14.36,10.1529667 14.4908475,10.0204 14.6494915,10.0204 C14.8142373,10.0204 14.940339,10.1522833 14.940339,10.31355 C14.940339,10.4768667 14.8135593,10.6067 14.6494915,10.6067 C14.4908475,10.6060167 14.36,10.4761833 14.36,10.31355 Z"/>
          <path fill="url(#duckduckgo-c)" d="M5.78508475,7.65333333 C5.78508475,7.65333333 4.79932203,7.20438333 3.84135593,7.8105 C2.88542373,8.41661667 2.92067797,9.0364 2.92067797,9.0364 C2.92067797,9.0364 2.41220339,7.89386667 3.76745763,7.33421667 C5.1240678,6.77525 5.78508475,7.65333333 5.78508475,7.65333333 Z"/>
          <path fill="url(#duckduckgo-d)" d="M14.8271186,7.56245 C14.8271186,7.56245 14.12,7.1545 13.5694915,7.16133333 C12.4413559,7.17568333 12.1322034,7.6793 12.1322034,7.6793 C12.1322034,7.6793 12.3213559,6.48073333 13.7667797,6.72058333 C14.5498305,6.85246667 14.8271186,7.56245 14.8271186,7.56245 Z"/>
        </g>
      </g>
      <path fill="#FDD20A" fill-rule="nonzero" d="M16.8725424,20.65375 C17.0033898,19.8569833 19.0474576,18.3481833 20.4942373,18.2566167 C21.9444068,18.16505 22.3966102,18.18555 23.6047458,17.8937667 C24.8162712,17.6013 27.9322034,16.8195667 28.7952542,16.4177667 C29.659661,16.0152833 33.3186441,16.6173 30.739661,18.06665 C29.6230508,18.696 26.6155932,19.8515167 24.4664407,20.4993167 C22.319322,21.14575 21.0176271,19.8802167 20.3037288,20.9441667 C19.7355932,21.7867167 20.1877966,22.9483833 22.7538983,23.1889167 C26.2183051,23.5141833 29.540339,21.6145167 29.9064407,22.6231167 C30.2738983,23.6317167 26.9281356,24.8863167 24.8908475,24.928 C22.8569492,24.96695 18.7545763,23.5743167 18.140339,23.1410833 C17.5227119,22.7085333 16.7016949,21.70335 16.8725424,20.65375 Z"/>
    </g>
    <g fill-rule="nonzero" transform="translate(14.915 30.75)">
      <path fill="#65BC46" d="M5.55864407 2.84335C5.55864407 2.84335.691525424.226866667.611525424 1.28808333.529491525 2.35203333.611525424 6.68505 1.17898305 7.01236667 1.74711864 7.33968333 5.80338983 4.88788333 5.80338983 4.88788333L5.55864407 2.84335zM7.42440678 2.67935C7.42440678 2.67935 10.7505085.142816667 11.4820339.306816667 12.2108475.47355 12.3735593 5.70378333 11.7233898 5.95251667 11.0745763 6.1951 7.26779661 4.6248 7.26779661 4.6248L7.42440678 2.67935z"/>
      <path fill="#43A244" d="M4.38101695,3.1201 C4.38101695,4.83595 4.13627119,5.57326667 4.86779661,5.7359 C5.59661017,5.89716667 6.97491525,5.7359 7.46305085,5.40858333 C7.94915254,5.08195 7.54305085,2.87478333 7.38169492,2.46341667 C7.21830508,2.05683333 4.38101695,2.38483333 4.38101695,3.1201 Z"/>
      <path fill="#65BC46" d="M4.69016949,2.73948333 C4.69016949,4.45533333 4.44677966,5.19196667 5.17694915,5.35528333 C5.90440678,5.51996667 7.2840678,5.35528333 7.77220339,5.02865 C8.25830508,4.70133333 7.85288136,2.4969 7.68949153,2.08211667 C7.52745763,1.67621667 4.69016949,2.0049 4.69016949,2.73948333 Z"/>
    </g>
  </g>
</svg>
