<svg xmlns="http://www.w3.org/2000/svg" width="30" height="30" viewBox="0 0 30 30">
  <g fill="none">
    <path fill="#FFF" d="M29.9493671,15.7372881 C29.9493671,13.220339 28.3924051,11.0084746 26.0506329,10.1567797 C26.1518987,9.62288136 26.2025316,9.08898305 26.2025316,8.54237288 C26.2025316,3.85169492 22.4050633,0.0381355932 17.7468354,0.0381355932 C15.0126582,0.0381355932 12.4810127,1.34745763 10.8860759,3.55932203 C10.1012658,2.94915254 9.13924051,2.61864407 8.13924051,2.61864407 C5.65822785,2.61864407 3.64556962,4.63983051 3.64556962,7.13135593 C3.64556962,7.6779661 3.74683544,8.21186441 3.92405063,8.70762712 C1.59493671,9.54661017 0,11.7966102 0,14.3008475 C0,16.8305085 1.56962025,19.0423729 3.91139241,19.8940678 C3.81012658,20.4152542 3.75949367,20.9618644 3.75949367,21.5084746 C3.75949367,26.1864407 7.5443038,29.9872881 12.2025316,29.9872881 C14.9367089,29.9872881 17.4683544,28.6652542 19.0506329,26.4533898 C19.835443,27.0762712 20.7974684,27.4194915 21.7974684,27.4194915 C24.278481,27.4194915 26.2911392,25.3983051 26.2911392,22.9067797 C26.2911392,22.3601695 26.1898734,21.8262712 26.0126582,21.3305085 C28.3417722,20.4915254 29.9493671,18.2415254 29.9493671,15.7372881"/>
    <path fill="#FED10A" d="M11.7721519,12.940678 L18.3291139,15.940678 L24.9367089,10.1186441 C25.0379747,9.63559322 25.0759494,9.16525424 25.0759494,8.65677966 C25.0759494,4.56355932 21.7594937,1.23305085 17.6835443,1.23305085 C15.2405063,1.23305085 12.9746835,2.44067797 11.5949367,4.46186441 L10.4936709,10.1949153 L11.7721519,12.940678 Z"/>
    <path fill="#24BBB1" d="M4.98734177,19.9067797 C4.88607595,20.3898305 4.84810127,20.8855932 4.84810127,21.3940678 C4.84810127,25.5 8.17721519,28.8305085 12.2658228,28.8305085 C14.721519,28.8305085 17.0126582,27.6101695 18.3924051,25.5762712 L19.4810127,19.8686441 L18.0253165,17.0720339 L11.443038,14.059322 L4.98734177,19.9067797 Z"/>
    <path fill="#EF5098" d="M4.94936709,8.51694915 L9.44303797,9.58474576 L10.4303797,4.46186441 C9.82278481,3.99152542 9.06329114,3.73728814 8.27848101,3.73728814 C6.32911392,3.73728814 4.73417722,5.32627119 4.73417722,7.29661017 C4.73417722,7.71610169 4.81012658,8.13559322 4.94936709,8.51694915"/>
    <path fill="#17A8E0" d="M4.55696203,9.59745763 C2.55696203,10.2584746 1.15189873,12.190678 1.15189873,14.3135593 C1.15189873,16.3855932 2.43037975,18.2288136 4.34177215,18.9661017 L10.6455696,13.2457627 L9.49367089,10.7669492 L4.55696203,9.59745763 Z"/>
    <path fill="#93C83E" d="M19.5316456,25.5762712 C20.1518987,26.0466102 20.8987342,26.3135593 21.6708861,26.3135593 C23.6202532,26.3135593 25.2151899,24.7245763 25.2151899,22.7542373 C25.2151899,22.3220339 25.1392405,21.9025424 25,21.5211864 L20.5189873,20.4661017 L19.5316456,25.5762712 Z"/>
    <path fill="#0779A1" d="M20.443038,19.2838983 L25.3797468,20.440678 C27.3924051,19.779661 28.7848101,17.8474576 28.7848101,15.7118644 C28.7848101,13.6525424 27.5063291,11.7966102 25.5949367,11.0720339 L19.1392405,16.7542373 L20.443038,19.2838983 Z"/>
  </g>
</svg>
