<svg xmlns="http://www.w3.org/2000/svg" width="46" height="11" viewBox="0 0 46 11">
  <g fill="#F83659">
    <polyline points="0 3.073 3.317 3.073 3.317 4.13 1.191 4.13 1.191 5.485 3.277 5.485 3.277 6.542 1.191 6.542 1.191 7.986 3.317 7.986 3.317 9.043 0 9.043 0 3.073"/>
    <path d="M4.06068708 4.61399967L5.04402313 4.61399967C5.04402313 4.80755812 5.04402313 4.9932802 5.03594771 5.20298157 5.22773862 4.85598693 5.61939584 4.46887003 6.40271025 4.47686313 7.83376546 4.48485624 8.10553395 5.59009846 8.10553395 6.3726388L8.10553395 9.04296172 7.05821585 9.04296172 7.05821585 6.63891882C7.05821585 5.97737208 6.84235403 5.46910485 6.10718144 5.46910485 5.36377816 5.47709794 5.10800519 5.97737208 5.10800519 6.59848312L5.10800519 9.04296172 4.06068708 9.04296172 4.06068708 4.61399967M9.78397613 6.82448415C9.78397613 7.59887467 10.3355885 8.18785656 11.0949873 8.18785656 11.4867998 8.18785656 11.7986348 8.05056329 12.0303368 7.80857605 12.2621941 7.57473864 12.3980784 7.24388692 12.4059985 6.86476312 12.4059985 6.52591828 12.3021053 6.17093053 12.0860881 5.91280036 11.8783017 5.64667709 11.5506266 5.46910485 11.0949873 5.46910485 10.3835751 5.46910485 9.78397613 6.02580087 9.78397613 6.81633433L9.78397613 6.82448415zM13.4531613 8.51855155C13.4531613 9.24451328 13.3172771 9.71250155 13.0453533 10.0836322 12.6698469 10.5917428 11.9343637 10.9951593 11.0311605 10.9951593 9.66424269 10.9951593 9.00873711 10.1721833 8.84878193 9.48665725L10.06382 9.48665725C10.1599484 9.68836552 10.3276684 9.84148827 10.5194593 9.93834587 10.7353211 10.0591827 10.9671785 10.0917821 11.0949873 10.0917821 11.7185019 10.0917821 12.3980784 9.65607965 12.3980784 8.76053879L12.3980784 8.3894081C12.1822166 8.78467484 11.7185019 9.17994156 10.9752539 9.17994156 9.71222925 9.17994156 8.73696862 8.21199259 8.73696862 6.84862018 8.73696862 5.40468986 9.76021579 4.48485624 10.9752539 4.48485624 11.6065332 4.48485624 12.1502255 4.77527226 12.3980784 5.21097468L12.3980784 4.61399967 13.4531613 4.61399967 13.4531613 8.51855155z"/>
    <polygon points="14.309 9.043 15.356 9.043 15.356 4.614 14.309 4.614"/>
    <path d="M16.2270634 4.61399967L17.2100889 4.61399967C17.2100889 4.80755812 17.2100889 4.9932802 17.2021687 5.20298157 17.3939597 4.85598693 17.7856169 4.46887003 18.5689313 4.47686313 19.9996758 4.48485624 20.2715997 5.59009846 20.2715997 6.3726388L20.2715997 9.04296172 19.2244369 9.04296172 19.2244369 6.63891882C19.2244369 5.97737208 19.0087304 5.46910485 18.2734025 5.46910485 17.5299992 5.47709794 17.2740709 5.97737208 17.2740709 6.59848312L17.2740709 9.04296172 16.2270634 9.04296172 16.2270634 4.61399967M24.2524644 6.3726388C24.2125534 5.95323605 23.7729095 5.36425416 23.0054354 5.37240398 22.2300411 5.37240398 21.8065481 5.93693639 21.7663264 6.3726388L24.2524644 6.3726388zM21.7504862 7.17931519C21.7984726 7.88929069 22.4219872 8.28455741 23.0214309 8.27656432 23.5329767 8.27656432 23.8769581 8.04257017 24.076669 7.6794326L25.1556676 7.6794326C24.9480365 8.17171363 24.6360464 8.54284431 24.26846 8.79282466 23.9007185 9.05111157 23.46915 9.17994156 23.0133555 9.17994156 21.6625885 9.17994156 20.6954032 8.07485605 20.6954032 6.84047036 20.6954032 5.58210537 21.6706639 4.47686313 22.9975152 4.47686313 23.6530209 4.47686313 24.2285488 4.72700021 24.6360464 5.15455278 25.1718184 5.71124882 25.3715294 6.40492467 25.2836317 7.17931519L21.7504862 7.17931519z"/>
    <polyline points="29.233 6.905 27.418 3.073 28.705 3.073 29.824 5.784 30.951 3.073 32.23 3.073 30.423 6.905 30.423 9.043 29.233 9.043 29.233 6.905"/>
    <path d="M32.6937489 6.84862018C32.6937489 7.3971664 33.0854061 8.19584966 34.0286757 8.19584966 34.6122792 8.19584966 34.995861 7.88929069 35.1957274 7.48587415 35.2996205 7.29231571 35.3477625 7.08261432 35.3636027 6.86476312 35.3715228 6.65506173 35.3316116 6.43721053 35.2437139 6.24365208 35.059843 5.8240926 34.6523456 5.46111174 34.0206004 5.46111174 33.1733038 5.46111174 32.6937489 6.15494432 32.6937489 6.84047036L32.6937489 6.84862018zM36.4026901 9.04280499L35.3556826 9.04280499 35.3556826 8.40555104C35.0758386 8.92196811 34.4922352 9.17994156 33.8766408 9.17994156 32.469967 9.17994156 31.6465863 8.07485605 31.6465863 6.82448415 31.6465863 5.42882588 32.6457624 4.47686313 33.8766408 4.47686313 34.6761059 4.47686313 35.1635809 4.90441572 35.3556826 5.25940347L35.3556826 4.61399967 36.4026901 4.61399967 36.4026901 9.04280499zM37.2740573 4.61399967L38.2653136 4.61399967 38.2653136 5.19498847C38.4571044 4.79956502 38.8170811 4.48501295 39.4803516 4.47686313L39.4803516 5.54166967 39.4323651 5.54166967C38.6968818 5.54166967 38.3213755 5.88866433 38.3213755 6.65506173L38.3213755 9.04296172 37.2740573 9.04296172 37.2740573 4.61399967M40.5595055 6.82448415C40.5595055 7.57473864 41.094967 8.18785656 41.9023524 8.18785656 42.2860895 8.18785656 42.6299154 8.03457708 42.8776129 7.78444 43.1256212 7.53445967 43.2692703 7.18746501 43.2534301 6.80019139 43.2534301 6.41291777 43.101395 6.08222277 42.8616176 5.84838536 42.6218401 5.60624139 42.2860895 5.46111174 41.9104279 5.46111174 41.0552111 5.46111174 40.5595055 6.12250174 40.5595055 6.81633433L40.5595055 6.82448415zM44.2364554 9.04296172L43.2374346 9.04296172 43.2374346 8.40555104C43.0454882 8.73624603 42.6299154 9.17994156 41.7344771 9.17994156 40.3837101 9.17994156 39.512498 8.11513501 39.512498 6.82448415 39.512498 5.38839019 40.5276698 4.47686313 41.7186369 4.47686313 42.5580132 4.47686313 43.0294929 4.92870848 43.1894479 5.18668192L43.1894479 3.07321175 44.2364554 3.07321175 44.2364554 9.04296172zM12.7862271 2.0908415L13.9021753 2.0908415 14.8386329 3.03009782 14.8386329 1.25327417C14.8386329.870209217 14.5305734.559675116 14.1515482.559675116 13.9870452.559675116 13.8375298.617809142 13.7194343.714213214 13.5738915.337526602 13.2116598.0692717922 12.7862271.0692717922 12.233309.0692717922 11.785124.521587307 11.785124 1.07960105 11.785124 1.63779703 12.233309 2.0908415 12.7862271 2.0908415M45.2360976 3.07321175L45.4328581 3.07321175 45.6143993 3.54762586 45.7931454 3.07321175 45.9885081 3.07321175 45.9885081 3.75717051 45.8434614 3.75717051 45.8434614 3.25344836 45.6633177 3.75717051 45.5611327 3.75717051 45.3809891 3.25658292 45.3809891 3.75717051 45.2360976 3.75717051 45.2360976 3.07321175zM44.8407133 3.2040792L44.6896101 3.2040792 44.6896101 3.07321175 45.1460258 3.07321175 45.1460258 3.2040792 44.9949224 3.2040792 44.9949224 3.75717051 44.8407133 3.75717051 44.8407133 3.2040792z"/>
  </g>
</svg>
