<svg xmlns="http://www.w3.org/2000/svg" width="30" height="34" viewBox="0 0 30 34">
  <path fill="#80B341" d="M51.5722194,24.2618425 C50.5685532,23.7082808 47.6910959,24.0512329 44.2358974,25.1128192 C38.1885983,29.2168605 33.0859251,35.2619254 32.7288791,44.9727361 C32.6642169,45.2046912 32.0682021,44.9400061 31.9501235,44.8674312 C30.3167063,41.7609395 29.6700868,38.4893754 31.0336106,33.7691587 C31.2880414,33.3479395 30.4572759,32.8299537 30.3082721,32.9793726 C30.0088592,33.2767876 28.7606023,34.5959437 27.931242,36.0232507 C23.8238014,43.0971721 26.5100844,52.1619235 33.6974025,56.1293531 C40.8819097,60.1024749 49.9542648,57.5395837 53.9548727,50.4030486 C58.58242,42.1679283 54.2852109,25.7674166 51.5722194,24.2618425" transform="translate(-26 -24)"/>
</svg>
