<svg xmlns="http://www.w3.org/2000/svg" width="50" height="50" viewBox="0 0 50 50">
  <g fill="none" fill-rule="evenodd">
    <circle cx="25" cy="25" r="25" fill="#39659C"/>
    <path fill="#FFF" fill-rule="nonzero" d="M28.855873,16.725 L27.9060317,18.095 C25.8912691,17.5072244 23.8004246,17.2107933 21.6990476,17.215 L21.0184127,13.575 L21.7396825,13.47 C21.8484066,13.4507984 21.9335095,13.3670252 21.9530159,13.26 C21.9723466,13.1590905 21.9283024,13.0566127 21.8412698,13 L16.0507937,9.765 C15.9414871,9.70354656 15.8033134,9.72656445 15.7206349,9.82 L11.4133333,14.755 C11.3401696,14.8368155 11.3279227,14.9553611 11.3828571,15.05 C11.4386381,15.1441338 11.548137,15.1940357 11.6571429,15.175 L12.2971429,15.065 L12.967619,18.665 C10.993257,19.3682485 9.11619981,20.3122696 7.38031746,21.475 C5.80178433,20.3161619 4.34976466,18.9990987 3.04761905,17.545 C1.76253968,16 0.579047619,13.97 0.507936508,11.935 C0.33015873,6.25 4.3631746,4.355 4.3631746,4.355 C9.92,1.68 15.192381,5.91 15.192381,5.91 C19.255873,-0.285 24.2996825,0.535 24.2996825,0.535 C27.7401601,0.922250373 30.5914595,3.33851142 31.4920635,6.63 C32.4165079,10.035 30.8571429,13.63 28.9980952,16.495 L28.855873,16.725 Z M8.23365079,22.135 C13.8764992,18.5519324 20.766717,17.4076469 27.2914286,18.97 L19.672381,29.97 C17.5034921,28.47 15.36,26.97 13.1707937,25.545 C11.4844444,24.47 9.84380952,23.335 8.23365079,22.135 Z" transform="translate(9 10)"/>
  </g>
</svg>
