<svg xmlns="http://www.w3.org/2000/svg" width="18" height="21" viewBox="0 0 18 21">
  <path fill="#F45800" d="M5.7432,2.92233333 L5.7432,10.2666667 C5.7432,10.2666667 8.2836,10.2666667 9.6432,10.1615556 C10.0254852,10.2096862 10.4091099,10.0832614 10.6912544,9.81616573 C10.973399,9.54907006 11.1252104,9.16861764 11.106,8.77677778 L11.4996,7.18788889 L12.6624,7.18788889 L12.4656,10.6736667 L12.5688,14.245 L11.4,14.245 L11.1096,12.8504444 C11.0202762,12.101358 10.3874729,11.5435478 9.6468,11.561 C8.6724,11.4558889 5.7468,11.4558889 5.7468,11.4558889 L5.7468,17.6146667 C5.7468,18.799 6.3372,19.305 7.6968,19.305 L11.7936,19.305 C13.2250326,19.5424168 14.6195512,18.7079781 15.1128,17.3188889 L16.1724,14.9318889 L17.1564,14.9318889 C17.0532,15.4281111 16.566,19.8012222 16.4724,20.7851111 C16.4724,20.7851111 12.7692,20.6897778 11.2128,20.6897778 L4.1868,20.6897778 L0,20.7777778 L0,19.6985556 L1.3596,19.393 C2.3436,19.1925556 2.6352,18.8967778 2.6352,18.1035556 C2.6352,18.1035556 2.7384,15.4146667 2.7384,10.9511111 C2.7384,6.48755556 2.6304,3.80966667 2.6304,3.80966667 C2.6304,2.92111111 2.34,2.72066667 1.356,2.52022222 L0,2.22444444 L0,1.13666667 L4.0932,1.22222222 L11.8932,1.22222222 C13.4532,1.22222222 16.074,0.936222222 16.074,0.936222222 C16.074,0.936222222 15.9804,2.61677778 15.8772,6.589 L14.808,6.589 L14.4144,5.19444444 C14.0304,3.40877778 13.4544,2.52144444 12.3744,2.52144444 L6.24,2.52144444 C5.7432,2.52022222 5.7432,2.61677778 5.7432,2.92233333 Z"/>
</svg>
