<svg xmlns="http://www.w3.org/2000/svg" width="50" height="50" viewBox="0 0 50 50">
  <g fill="none" fill-rule="evenodd">
    <circle cx="25" cy="25" r="25" fill="#FFF"/>
    <g fill="#000" fill-rule="nonzero">
      <path d="M24.9840319,0.0119760479 C11.2045908,0.0119760479 0.0339321357,11.1826347 0.0339321357,24.9620758 C0.0339321357,38.741517 11.2045908,49.9121756 24.9840319,49.9121756 C38.7634731,49.9121756 49.9341317,38.741517 49.9341317,24.9620758 C49.9341317,11.1826347 38.7634731,0.0119760479 24.9840319,0.0119760479 Z M24.9840319,34.1936128 C12.758483,34.1936128 2.84730539,30.0598802 2.84730539,24.9620758 C2.84730539,19.8642715 12.758483,15.7305389 24.9840319,15.7305389 C37.2095808,15.7305389 47.1207585,19.8602794 47.1207585,24.9620758 C47.1207585,30.0638723 37.2095808,34.1946108 24.9840319,34.1946108 L24.9840319,34.1936128 Z"/>
      <path d="M18.1566866 21.257485L16.9051896 21.257485C16.7790701 21.2499221 16.6681153 21.340073 16.6497006 21.4650699L16.6497006 28.6796407C16.6681153 28.8046376 16.7790701 28.8947884 16.9051896 28.8872255L18.1566866 28.8872255C18.2828061 28.8947884 18.393761 28.8046376 18.4121756 28.6796407L18.4121756 21.4680639C18.3951692 21.3418676 18.2838082 21.2500818 18.1566866 21.257485zM32.4351297 21.257485C30.3298114 21.2574922 28.6226043 22.9632208 28.620773 25.0685383 28.6189416 27.1738559 30.3231786 28.8825519 32.4284938 28.8862217 34.5338089 28.8898916 36.2439926 27.1871475 36.249501 25.0818363 36.2564417 24.0671751 35.8571227 23.0919164 35.1405701 22.373489 34.4240176 21.6550616 33.4498056 21.2531957 32.4351297 21.257485z"/>
    </g>
  </g>
</svg>
