<svg xmlns="http://www.w3.org/2000/svg" width="30" height="32" viewBox="0 0 30 32">
  <g fill="#E82C2A">
    <path d="M17.7804878,14.8767677 L17.2601626,14.359596 L14.601626,16.6626263 C14.4634146,16.6141414 14.3252033,16.589899 14.1707317,16.589899 C13.4552846,16.589899 12.8699187,17.1878788 12.8699187,17.9151515 C12.8699187,18.6505051 13.4552846,19.240404 14.1707317,19.240404 C14.8861789,19.240404 15.4715447,18.6424242 15.4715447,17.9151515 C15.4715447,17.7777778 15.4471545,17.640404 15.4146341,17.5191919 L17.7804878,14.8767677 Z"/>
    <path d="M28.3252033,25.1636364 L28.3170732,3.86262626 L21.4308943,3.86262626 L21.4308943,5.85858586 C20.0162602,5.01010101 18.4308943,4.41212121 16.7479675,4.0969697 L16.7886179,4.0969697 L16.7886179,1.73737374 L17.6260163,1.73737374 L17.6260163,0 L10.6910569,0 L10.6910569,1.73737374 L11.5284553,1.73737374 L11.5284553,4.0969697 L11.5772358,4.0969697 C4.99186992,5.3010101 0,11.030303 0,17.9313131 C0,25.7050505 6.33333333,32 14.1544715,32 C16.8211382,32 19.3170732,31.2646465 21.4471545,29.9878788 L22.6910569,32 L29.9674797,32 L29.9674797,25.1555556 L28.3252033,25.1555556 L28.3252033,25.1636364 Z M14.5772358,25.1555556 L14.5772358,24.3474747 L13.7560976,24.3474747 L13.7560976,25.1474747 C10.0569106,24.9373737 7.10569106,21.979798 6.91056911,18.3030303 L7.73170732,18.3030303 L7.73170732,17.4868687 L6.91869919,17.4868687 C7.13821138,13.8343434 10.0813008,10.9090909 13.7560976,10.6989899 L13.7560976,11.5070707 L14.5772358,11.5070707 L14.5772358,10.6989899 C18.203252,10.8929293 21.1219512,13.7212121 21.4390244,17.2848485 L21.4390244,17.5191919 L20.6097561,17.5191919 L20.6097561,18.3353535 L21.4390244,18.3353535 L21.4390244,18.5616162 C21.1300813,22.1333333 18.203252,24.9616162 14.5772358,25.1555556 Z"/>
  </g>
</svg>
