<svg xmlns="http://www.w3.org/2000/svg" width="30" height="34" viewBox="0 0 30 34">
  <path fill="#A2272B" fill-rule="evenodd" d="M29.7201099,15.7027184 C29.5381319,14.6226408 29.1959341,13.616835 28.5504396,12.6285243 C29.1761538,9.1341165 28.7762637,7.6955534 28.4040659,6.04143689 C28.0321978,4.38732039 26.5895604,1.90565049 25.383956,0.186174757 C25.3348352,1.4058835 25.4795604,2.48001942 25.3341758,3.84563107 C25.1887912,5.21157282 24.146044,7.89262136 23.1283516,9.35495146 C19.4716484,8.65217476 15.4348352,12.104 14.8823077,12.7592427 C14.3297802,12.104 10.2926374,8.65217476 6.63626374,9.35495146 C5.61857143,7.89262136 4.57582418,5.21157282 4.43043956,3.84563107 C4.28538462,2.48001942 4.42978022,1.4058835 4.38065934,0.186174757 C3.17472527,1.90565049 1.73241758,4.38732039 1.36021978,6.04143689 C0.988681319,7.6955534 0.588461538,9.1341165 1.21417582,12.6285243 C0.568681319,13.616835 0.226483516,14.6226408 0.0445054945,15.7027184 C-0.833406593,24.0455922 11.4926374,29.6057476 14.8823077,34 C18.2716484,29.6057476 30.598022,24.0455922 29.7201099,15.7027184"/>
</svg>
