<svg xmlns="http://www.w3.org/2000/svg" width="30" height="30" viewBox="0 0 30 30">
  <g fill="none" transform="translate(0 .31)">
    <path fill="#C51D23" d="M29.6857808,14.8351644 C29.6857808,22.9725616 23.0878356,29.5705068 14.9520822,29.5705068 C6.81427397,29.5705068 0.217561644,22.9725616 0.217561644,14.8351644 C0.217561644,6.69858904 6.81427397,0.101876712 14.9520822,0.101876712 C23.0878356,0.101876712 29.6857808,6.69858904 29.6857808,14.8351644"/>
    <path fill="#EC1D24" d="M28.8586438,10.3330685 C28.8586438,18.4704658 22.2611096,25.068411 14.1249452,25.068411 C7.55371233,25.068411 1.98768493,20.7660822 0.0878219178,14.8252603 C0.0878219178,14.8252603 9.39028767,16.5303288 16.0663151,12.2855342 C23.7011096,7.43128767 24.717,0.0919726027 24.717,0.0919726027 C27.3837123,2.75868493 28.8586438,6.2649863 28.8586438,10.3330685" transform="translate(.822 4.52)"/>
    <path fill="#FEFEFE" d="M0.12439726,11.0715205 L0.12439726,0.169191781 L3.37960274,0.169191781 C5.29672603,0.169191781 7.19741096,1.20850685 7.19741096,3.39193151 C7.19741096,5.10850685 6.39152055,6.44864384 4.53850685,6.67467123 L7.85782192,11.0715205 L5.89179452,11.0715205 L1.89686301,5.50015068 L3.18563014,5.50015068 C4.47439726,5.50015068 5.55480822,4.89727397 5.55480822,3.63275342 C5.55480822,2.33782192 4.66836986,1.55453425 3.25138356,1.55453425 L1.767,1.55453425 L1.767,11.0715205 L0.12439726,11.0715205 Z" transform="translate(2.877 9.041)"/>
    <polygon fill="#FEFEFE" points=".042 11.072 .042 .169 5.906 .169 5.906 1.555 1.686 1.555 1.686 4.686 5.906 4.686 5.906 6.073 1.686 6.073 1.686 9.686 5.906 9.686 5.906 11.072" transform="translate(11.918 9.041)"/>
    <path fill="#FEFEFE" d="M1.93438356,9.68634247 L3.4960274,9.68634247 C6.05876712,9.68634247 6.76684932,7.86373973 6.76684932,5.62113699 C6.76684932,3.37730137 6.05876712,1.55469863 3.4960274,1.55469863 L1.93438356,1.55469863 L1.93438356,9.68634247 Z M0.289726027,0.169356164 L3.75452055,0.169356164 C7.13794521,0.169356164 8.41068493,2.63921918 8.41068493,5.62113699 C8.41068493,8.60223288 7.13794521,11.0716849 3.75452055,11.0716849 L0.289726027,11.0716849 L0.289726027,0.169356164 Z" transform="translate(19.726 9.041)"/>
  </g>
</svg>
