<svg xmlns="http://www.w3.org/2000/svg" width="33" height="22" viewBox="0 0 33 22">
    <g fill="none" fill-rule="evenodd">
        <path fill="#232323" d="M32.821 9.26c-.058-.044-4.705-3.47-11.082-4.878C21.354 1.906 19.155 0 16.5 0s-4.855 1.906-5.24 4.382C4.884 5.79.237 9.216.179 9.26L0 9.394l.179.133C.252 9.582 7.589 15 16.5 15c8.911 0 16.248-5.418 16.321-5.473L33 9.394l-.179-.134z"/>
        <path fill="#FFF" d="M19 4.5a2.5 2.5 0 1 1-5 0 2.5 2.5 0 0 1 5 0"/>
        <path fill="#232323" d="M23 21c0 .552-2.91 1-6.5 1s-6.5-.448-6.5-1 2.91-1 6.5-1 6.5.448 6.5 1"/>
    </g>
</svg>
