<svg xmlns="http://www.w3.org/2000/svg" xmlns:xlink="http://www.w3.org/1999/xlink" width="34" height="26" viewBox="0 0 34 26">
  <defs>
    <linearGradient id="fogcreek-a" x1="50%" x2="50%" y1="0%" y2="99.121%">
      <stop offset="0%" stop-color="#E659FF"/>
      <stop offset="100%" stop-color="#0037FF"/>
    </linearGradient>
    <path id="fogcreek-b" d="M15.5743276,24.2693648 C15.9253007,25.0276164 15.8411736,25.7451509 15.8411736,25.7451509 C15.8411736,25.7451509 15.48089,25.8511132 14.80089,25.8601887 C14.5488411,25.9179119 13.5418924,26.0984403 11.9082298,25.7598679 C10.0053936,25.3655346 9.12588264,23.3809497 9.12588264,23.3809497 C9.12588264,23.3809497 9.14417115,23.3629623 9.18074817,23.3327107 C9.07267971,23.3134969 9.01116381,23.3070377 8.99952567,23.3171761 C7.77087042,23.5507673 7.12994132,23.5248491 6.1939022,23.5248491 C5.25786308,23.5248491 1.5544401,22.1504465 0.361530562,20.6771132 C0.361530562,20.6771132 2.2136577,20.2347862 2.2136577,19.8609748 C2.2136577,19.487327 0.0971784841,18.7966101 0.0971784841,18.7966101 C0.0971784841,18.7966101 -0.223701711,17.0726792 2.04490465,15.3512013 C3.53292421,14.222327 4.7748802,13.4823899 5.99106601,13.0796352 C4.81228851,12.925761 1.48128606,11.6301761 0.361530562,10.2471887 C0.361530562,10.2471887 2.2136577,9.80486164 2.2136577,9.43121384 C2.2136577,9.05756604 0.0989242054,8.36742138 0.0989242054,8.36742138 C0.0989242054,8.36742138 -0.22195599,6.64349057 2.04648411,4.92201258 C4.31467482,3.19996226 6.01218093,2.38251572 7.9197555,2.28685535 C9.82733007,2.19119497 10.466846,2.19119497 10.466846,2.19119497 C10.466846,2.19119497 12.1276088,0 12.9998044,0 C13.4359853,0 19.8257408,1.32730818 20.3792176,2.19135849 C20.9326944,3.05557233 21.2020342,2.99261635 21.4848411,3.19971698 C21.7677311,3.40681761 21.5895844,3.24116981 22.8714425,3.52103774 C26.0775012,4.22123899 25.6400733,4.49603774 28.0221516,4.92127673 C28.9862885,5.09379245 33.4042934,2.97127673 33.8211051,3.17813208 C34.0151296,3.27461006 34.167423,5.09951572 33.4089487,6.29649686 C32.6503912,7.49347799 34.0177897,8.48196855 33.4037115,9.9806478 C32.7896333,11.479327 34.1069878,12.5896415 33.821022,13.0965597 C33.5350562,13.6042956 28.8438875,11.4368113 28.0221516,11.5937925 C27.2867873,11.7344214 25.197824,12.6942956 21.1182396,13.4285094 C21.2524108,13.507 21.3674621,13.5470629 21.4848411,13.6329119 C21.7677311,13.8405849 21.5895844,13.6746101 22.8714425,13.9542327 C26.0775012,14.6549245 25.6400733,14.9296415 28.0221516,15.3547987 C28.9862885,15.5264969 33.4042934,13.4047987 33.8211051,13.6108365 C34.0151296,13.7064969 34.167423,15.5322201 33.4089487,16.7283836 C32.6503912,17.9253648 34.0177897,18.9138553 33.4037115,20.4125346 C32.7896333,21.9112138 34.1069878,23.0215283 33.821022,23.5284465 C33.5350562,24.0361824 28.8438875,21.8686981 28.0221516,22.0248616 C27.2004988,22.1818428 24.6892372,23.3616541 19.5999609,24.1064969 C18.2443667,24.3051761 16.8673252,24.3346101 15.5742445,24.2732893 L15.5743276,24.2693648 Z"/>
    <linearGradient id="fogcreek-c" x1="37.123%" x2="39.611%" y1="32.11%" y2="100%">
      <stop offset="0%" stop-color="#F1A5FF"/>
      <stop offset="100%" stop-color="#FF686C"/>
    </linearGradient>
    <path id="fogcreek-e" d="M15.5743276,24.2693648 C15.9253007,25.0276164 15.8411736,25.7451509 15.8411736,25.7451509 C15.8411736,25.7451509 15.48089,25.8511132 14.80089,25.8601887 C14.5488411,25.9179119 13.5418924,26.0984403 11.9082298,25.7598679 C10.0053936,25.3655346 9.12588264,23.3809497 9.12588264,23.3809497 C9.12588264,23.3809497 9.14417115,23.3629623 9.18074817,23.3327107 C9.07267971,23.3134969 9.01116381,23.3070377 8.99952567,23.3171761 C7.77087042,23.5507673 7.12994132,23.5248491 6.1939022,23.5248491 C5.25786308,23.5248491 1.5544401,22.1504465 0.361530562,20.6771132 C0.361530562,20.6771132 2.2136577,20.2347862 2.2136577,19.8609748 C2.2136577,19.487327 0.0971784841,18.7966101 0.0971784841,18.7966101 C0.0971784841,18.7966101 -0.223701711,17.0726792 2.04490465,15.3512013 C3.53292421,14.222327 4.7748802,13.4823899 5.99106601,13.0796352 C4.81228851,12.925761 1.48128606,11.6301761 0.361530562,10.2471887 C0.361530562,10.2471887 2.2136577,9.80486164 2.2136577,9.43121384 C2.2136577,9.05756604 0.0989242054,8.36742138 0.0989242054,8.36742138 C0.0989242054,8.36742138 -0.22195599,6.64349057 2.04648411,4.92201258 C4.31467482,3.19996226 6.01218093,2.38251572 7.9197555,2.28685535 C9.82733007,2.19119497 10.466846,2.19119497 10.466846,2.19119497 C10.466846,2.19119497 12.1276088,0 12.9998044,0 C13.4359853,0 19.8257408,1.32730818 20.3792176,2.19135849 C20.9326944,3.05557233 21.2020342,2.99261635 21.4848411,3.19971698 C21.7677311,3.40681761 21.5895844,3.24116981 22.8714425,3.52103774 C26.0775012,4.22123899 25.6400733,4.49603774 28.0221516,4.92127673 C28.9862885,5.09379245 33.4042934,2.97127673 33.8211051,3.17813208 C34.0151296,3.27461006 34.167423,5.09951572 33.4089487,6.29649686 C32.6503912,7.49347799 34.0177897,8.48196855 33.4037115,9.9806478 C32.7896333,11.479327 34.1069878,12.5896415 33.821022,13.0965597 C33.5350562,13.6042956 28.8438875,11.4368113 28.0221516,11.5937925 C27.2867873,11.7344214 25.197824,12.6942956 21.1182396,13.4285094 C21.2524108,13.507 21.3674621,13.5470629 21.4848411,13.6329119 C21.7677311,13.8405849 21.5895844,13.6746101 22.8714425,13.9542327 C26.0775012,14.6549245 25.6400733,14.9296415 28.0221516,15.3547987 C28.9862885,15.5264969 33.4042934,13.4047987 33.8211051,13.6108365 C34.0151296,13.7064969 34.167423,15.5322201 33.4089487,16.7283836 C32.6503912,17.9253648 34.0177897,18.9138553 33.4037115,20.4125346 C32.7896333,21.9112138 34.1069878,23.0215283 33.821022,23.5284465 C33.5350562,24.0361824 28.8438875,21.8686981 28.0221516,22.0248616 C27.2004988,22.1818428 24.6892372,23.3616541 19.5999609,24.1064969 C18.2443667,24.3051761 16.8673252,24.3346101 15.5742445,24.2732893 L15.5743276,24.2693648 Z"/>
    <path id="fogcreek-g" d="M15.5743276,24.2693648 C15.9253007,25.0276164 15.8411736,25.7451509 15.8411736,25.7451509 C15.8411736,25.7451509 15.48089,25.8511132 14.80089,25.8601887 C14.5488411,25.9179119 13.5418924,26.0984403 11.9082298,25.7598679 C10.0053936,25.3655346 9.12588264,23.3809497 9.12588264,23.3809497 C9.12588264,23.3809497 9.14417115,23.3629623 9.18074817,23.3327107 C9.07267971,23.3134969 9.01116381,23.3070377 8.99952567,23.3171761 C7.77087042,23.5507673 7.12994132,23.5248491 6.1939022,23.5248491 C5.25786308,23.5248491 1.5544401,22.1504465 0.361530562,20.6771132 C0.361530562,20.6771132 2.2136577,20.2347862 2.2136577,19.8609748 C2.2136577,19.487327 0.0971784841,18.7966101 0.0971784841,18.7966101 C0.0971784841,18.7966101 -0.223701711,17.0726792 2.04490465,15.3512013 C3.53292421,14.222327 4.7748802,13.4823899 5.99106601,13.0796352 C4.81228851,12.925761 1.48128606,11.6301761 0.361530562,10.2471887 C0.361530562,10.2471887 2.2136577,9.80486164 2.2136577,9.43121384 C2.2136577,9.05756604 0.0989242054,8.36742138 0.0989242054,8.36742138 C0.0989242054,8.36742138 -0.22195599,6.64349057 2.04648411,4.92201258 C4.31467482,3.19996226 6.01218093,2.38251572 7.9197555,2.28685535 C9.82733007,2.19119497 10.466846,2.19119497 10.466846,2.19119497 C10.466846,2.19119497 12.1276088,0 12.9998044,0 C13.4359853,0 19.8257408,1.32730818 20.3792176,2.19135849 C20.9326944,3.05557233 21.2020342,2.99261635 21.4848411,3.19971698 C21.7677311,3.40681761 21.5895844,3.24116981 22.8714425,3.52103774 C26.0775012,4.22123899 25.6400733,4.49603774 28.0221516,4.92127673 C28.9862885,5.09379245 33.4042934,2.97127673 33.8211051,3.17813208 C34.0151296,3.27461006 34.167423,5.09951572 33.4089487,6.29649686 C32.6503912,7.49347799 34.0177897,8.48196855 33.4037115,9.9806478 C32.7896333,11.479327 34.1069878,12.5896415 33.821022,13.0965597 C33.5350562,13.6042956 28.8438875,11.4368113 28.0221516,11.5937925 C27.2867873,11.7344214 25.197824,12.6942956 21.1182396,13.4285094 C21.2524108,13.507 21.3674621,13.5470629 21.4848411,13.6329119 C21.7677311,13.8405849 21.5895844,13.6746101 22.8714425,13.9542327 C26.0775012,14.6549245 25.6400733,14.9296415 28.0221516,15.3547987 C28.9862885,15.5264969 33.4042934,13.4047987 33.8211051,13.6108365 C34.0151296,13.7064969 34.167423,15.5322201 33.4089487,16.7283836 C32.6503912,17.9253648 34.0177897,18.9138553 33.4037115,20.4125346 C32.7896333,21.9112138 34.1069878,23.0215283 33.821022,23.5284465 C33.5350562,24.0361824 28.8438875,21.8686981 28.0221516,22.0248616 C27.2004988,22.1818428 24.6892372,23.3616541 19.5999609,24.1064969 C18.2443667,24.3051761 16.8673252,24.3346101 15.5742445,24.2732893 L15.5743276,24.2693648 Z"/>
    <linearGradient id="fogcreek-i" x1="39.856%" x2="43.004%" y1="8.321%" y2="72.326%">
      <stop offset="0%" stop-color="#F1A5FF"/>
      <stop offset="100%" stop-color="#FF686C"/>
    </linearGradient>
    <path id="fogcreek-j" d="M15.5743276,24.2693648 C15.9253007,25.0276164 15.8411736,25.7451509 15.8411736,25.7451509 C15.8411736,25.7451509 15.48089,25.8511132 14.80089,25.8601887 C14.5488411,25.9179119 13.5418924,26.0984403 11.9082298,25.7598679 C10.0053936,25.3655346 9.12588264,23.3809497 9.12588264,23.3809497 C9.12588264,23.3809497 9.14417115,23.3629623 9.18074817,23.3327107 C9.07267971,23.3134969 9.01116381,23.3070377 8.99952567,23.3171761 C7.77087042,23.5507673 7.12994132,23.5248491 6.1939022,23.5248491 C5.25786308,23.5248491 1.5544401,22.1504465 0.361530562,20.6771132 C0.361530562,20.6771132 2.2136577,20.2347862 2.2136577,19.8609748 C2.2136577,19.487327 0.0971784841,18.7966101 0.0971784841,18.7966101 C0.0971784841,18.7966101 -0.223701711,17.0726792 2.04490465,15.3512013 C3.53292421,14.222327 4.7748802,13.4823899 5.99106601,13.0796352 C4.81228851,12.925761 1.48128606,11.6301761 0.361530562,10.2471887 C0.361530562,10.2471887 2.2136577,9.80486164 2.2136577,9.43121384 C2.2136577,9.05756604 0.0989242054,8.36742138 0.0989242054,8.36742138 C0.0989242054,8.36742138 -0.22195599,6.64349057 2.04648411,4.92201258 C4.31467482,3.19996226 6.01218093,2.38251572 7.9197555,2.28685535 C9.82733007,2.19119497 10.466846,2.19119497 10.466846,2.19119497 C10.466846,2.19119497 12.1276088,0 12.9998044,0 C13.4359853,0 19.8257408,1.32730818 20.3792176,2.19135849 C20.9326944,3.05557233 21.2020342,2.99261635 21.4848411,3.19971698 C21.7677311,3.40681761 21.5895844,3.24116981 22.8714425,3.52103774 C26.0775012,4.22123899 25.6400733,4.49603774 28.0221516,4.92127673 C28.9862885,5.09379245 33.4042934,2.97127673 33.8211051,3.17813208 C34.0151296,3.27461006 34.167423,5.09951572 33.4089487,6.29649686 C32.6503912,7.49347799 34.0177897,8.48196855 33.4037115,9.9806478 C32.7896333,11.479327 34.1069878,12.5896415 33.821022,13.0965597 C33.5350562,13.6042956 28.8438875,11.4368113 28.0221516,11.5937925 C27.2867873,11.7344214 25.197824,12.6942956 21.1182396,13.4285094 C21.2524108,13.507 21.3674621,13.5470629 21.4848411,13.6329119 C21.7677311,13.8405849 21.5895844,13.6746101 22.8714425,13.9542327 C26.0775012,14.6549245 25.6400733,14.9296415 28.0221516,15.3547987 C28.9862885,15.5264969 33.4042934,13.4047987 33.8211051,13.6108365 C34.0151296,13.7064969 34.167423,15.5322201 33.4089487,16.7283836 C32.6503912,17.9253648 34.0177897,18.9138553 33.4037115,20.4125346 C32.7896333,21.9112138 34.1069878,23.0215283 33.821022,23.5284465 C33.5350562,24.0361824 28.8438875,21.8686981 28.0221516,22.0248616 C27.2004988,22.1818428 24.6892372,23.3616541 19.5999609,24.1064969 C18.2443667,24.3051761 16.8673252,24.3346101 15.5742445,24.2732893 L15.5743276,24.2693648 Z"/>
    <path id="fogcreek-l" d="M15.5743276,24.2693648 C15.9253007,25.0276164 15.8411736,25.7451509 15.8411736,25.7451509 C15.8411736,25.7451509 15.48089,25.8511132 14.80089,25.8601887 C14.5488411,25.9179119 13.5418924,26.0984403 11.9082298,25.7598679 C10.0053936,25.3655346 9.12588264,23.3809497 9.12588264,23.3809497 C9.12588264,23.3809497 9.14417115,23.3629623 9.18074817,23.3327107 C9.07267971,23.3134969 9.01116381,23.3070377 8.99952567,23.3171761 C7.77087042,23.5507673 7.12994132,23.5248491 6.1939022,23.5248491 C5.25786308,23.5248491 1.5544401,22.1504465 0.361530562,20.6771132 C0.361530562,20.6771132 2.2136577,20.2347862 2.2136577,19.8609748 C2.2136577,19.487327 0.0971784841,18.7966101 0.0971784841,18.7966101 C0.0971784841,18.7966101 -0.223701711,17.0726792 2.04490465,15.3512013 C3.53292421,14.222327 4.7748802,13.4823899 5.99106601,13.0796352 C4.81228851,12.925761 1.48128606,11.6301761 0.361530562,10.2471887 C0.361530562,10.2471887 2.2136577,9.80486164 2.2136577,9.43121384 C2.2136577,9.05756604 0.0989242054,8.36742138 0.0989242054,8.36742138 C0.0989242054,8.36742138 -0.22195599,6.64349057 2.04648411,4.92201258 C4.31467482,3.19996226 6.01218093,2.38251572 7.9197555,2.28685535 C9.82733007,2.19119497 10.466846,2.19119497 10.466846,2.19119497 C10.466846,2.19119497 12.1276088,0 12.9998044,0 C13.4359853,0 19.8257408,1.32730818 20.3792176,2.19135849 C20.9326944,3.05557233 21.2020342,2.99261635 21.4848411,3.19971698 C21.7677311,3.40681761 21.5895844,3.24116981 22.8714425,3.52103774 C26.0775012,4.22123899 25.6400733,4.49603774 28.0221516,4.92127673 C28.9862885,5.09379245 33.4042934,2.97127673 33.8211051,3.17813208 C34.0151296,3.27461006 34.167423,5.09951572 33.4089487,6.29649686 C32.6503912,7.49347799 34.0177897,8.48196855 33.4037115,9.9806478 C32.7896333,11.479327 34.1069878,12.5896415 33.821022,13.0965597 C33.5350562,13.6042956 28.8438875,11.4368113 28.0221516,11.5937925 C27.2867873,11.7344214 25.197824,12.6942956 21.1182396,13.4285094 C21.2524108,13.507 21.3674621,13.5470629 21.4848411,13.6329119 C21.7677311,13.8405849 21.5895844,13.6746101 22.8714425,13.9542327 C26.0775012,14.6549245 25.6400733,14.9296415 28.0221516,15.3547987 C28.9862885,15.5264969 33.4042934,13.4047987 33.8211051,13.6108365 C34.0151296,13.7064969 34.167423,15.5322201 33.4089487,16.7283836 C32.6503912,17.9253648 34.0177897,18.9138553 33.4037115,20.4125346 C32.7896333,21.9112138 34.1069878,23.0215283 33.821022,23.5284465 C33.5350562,24.0361824 28.8438875,21.8686981 28.0221516,22.0248616 C27.2004988,22.1818428 24.6892372,23.3616541 19.5999609,24.1064969 C18.2443667,24.3051761 16.8673252,24.3346101 15.5742445,24.2732893 L15.5743276,24.2693648 Z"/>
    <path id="fogcreek-n" d="M15.5743276,24.2693648 C15.9253007,25.0276164 15.8411736,25.7451509 15.8411736,25.7451509 C15.8411736,25.7451509 15.48089,25.8511132 14.80089,25.8601887 C14.5488411,25.9179119 13.5418924,26.0984403 11.9082298,25.7598679 C10.0053936,25.3655346 9.12588264,23.3809497 9.12588264,23.3809497 C9.12588264,23.3809497 9.14417115,23.3629623 9.18074817,23.3327107 C9.07267971,23.3134969 9.01116381,23.3070377 8.99952567,23.3171761 C7.77087042,23.5507673 7.12994132,23.5248491 6.1939022,23.5248491 C5.25786308,23.5248491 1.5544401,22.1504465 0.361530562,20.6771132 C0.361530562,20.6771132 2.2136577,20.2347862 2.2136577,19.8609748 C2.2136577,19.487327 0.0971784841,18.7966101 0.0971784841,18.7966101 C0.0971784841,18.7966101 -0.223701711,17.0726792 2.04490465,15.3512013 C3.53292421,14.222327 4.7748802,13.4823899 5.99106601,13.0796352 C4.81228851,12.925761 1.48128606,11.6301761 0.361530562,10.2471887 C0.361530562,10.2471887 2.2136577,9.80486164 2.2136577,9.43121384 C2.2136577,9.05756604 0.0989242054,8.36742138 0.0989242054,8.36742138 C0.0989242054,8.36742138 -0.22195599,6.64349057 2.04648411,4.92201258 C4.31467482,3.19996226 6.01218093,2.38251572 7.9197555,2.28685535 C9.82733007,2.19119497 10.466846,2.19119497 10.466846,2.19119497 C10.466846,2.19119497 12.1276088,0 12.9998044,0 C13.4359853,0 19.8257408,1.32730818 20.3792176,2.19135849 C20.9326944,3.05557233 21.2020342,2.99261635 21.4848411,3.19971698 C21.7677311,3.40681761 21.5895844,3.24116981 22.8714425,3.52103774 C26.0775012,4.22123899 25.6400733,4.49603774 28.0221516,4.92127673 C28.9862885,5.09379245 33.4042934,2.97127673 33.8211051,3.17813208 C34.0151296,3.27461006 34.167423,5.09951572 33.4089487,6.29649686 C32.6503912,7.49347799 34.0177897,8.48196855 33.4037115,9.9806478 C32.7896333,11.479327 34.1069878,12.5896415 33.821022,13.0965597 C33.5350562,13.6042956 28.8438875,11.4368113 28.0221516,11.5937925 C27.2867873,11.7344214 25.197824,12.6942956 21.1182396,13.4285094 C21.2524108,13.507 21.3674621,13.5470629 21.4848411,13.6329119 C21.7677311,13.8405849 21.5895844,13.6746101 22.8714425,13.9542327 C26.0775012,14.6549245 25.6400733,14.9296415 28.0221516,15.3547987 C28.9862885,15.5264969 33.4042934,13.4047987 33.8211051,13.6108365 C34.0151296,13.7064969 34.167423,15.5322201 33.4089487,16.7283836 C32.6503912,17.9253648 34.0177897,18.9138553 33.4037115,20.4125346 C32.7896333,21.9112138 34.1069878,23.0215283 33.821022,23.5284465 C33.5350562,24.0361824 28.8438875,21.8686981 28.0221516,22.0248616 C27.2004988,22.1818428 24.6892372,23.3616541 19.5999609,24.1064969 C18.2443667,24.3051761 16.8673252,24.3346101 15.5742445,24.2732893 L15.5743276,24.2693648 Z"/>
    <path id="fogcreek-p" d="M15.5743276,24.2693648 C15.9253007,25.0276164 15.8411736,25.7451509 15.8411736,25.7451509 C15.8411736,25.7451509 15.48089,25.8511132 14.80089,25.8601887 C14.5488411,25.9179119 13.5418924,26.0984403 11.9082298,25.7598679 C10.0053936,25.3655346 9.12588264,23.3809497 9.12588264,23.3809497 C9.12588264,23.3809497 9.14417115,23.3629623 9.18074817,23.3327107 C9.07267971,23.3134969 9.01116381,23.3070377 8.99952567,23.3171761 C7.77087042,23.5507673 7.12994132,23.5248491 6.1939022,23.5248491 C5.25786308,23.5248491 1.5544401,22.1504465 0.361530562,20.6771132 C0.361530562,20.6771132 2.2136577,20.2347862 2.2136577,19.8609748 C2.2136577,19.487327 0.0971784841,18.7966101 0.0971784841,18.7966101 C0.0971784841,18.7966101 -0.223701711,17.0726792 2.04490465,15.3512013 C3.53292421,14.222327 4.7748802,13.4823899 5.99106601,13.0796352 C4.81228851,12.925761 1.48128606,11.6301761 0.361530562,10.2471887 C0.361530562,10.2471887 2.2136577,9.80486164 2.2136577,9.43121384 C2.2136577,9.05756604 0.0989242054,8.36742138 0.0989242054,8.36742138 C0.0989242054,8.36742138 -0.22195599,6.64349057 2.04648411,4.92201258 C4.31467482,3.19996226 6.01218093,2.38251572 7.9197555,2.28685535 C9.82733007,2.19119497 10.466846,2.19119497 10.466846,2.19119497 C10.466846,2.19119497 12.1276088,0 12.9998044,0 C13.4359853,0 19.8257408,1.32730818 20.3792176,2.19135849 C20.9326944,3.05557233 21.2020342,2.99261635 21.4848411,3.19971698 C21.7677311,3.40681761 21.5895844,3.24116981 22.8714425,3.52103774 C26.0775012,4.22123899 25.6400733,4.49603774 28.0221516,4.92127673 C28.9862885,5.09379245 33.4042934,2.97127673 33.8211051,3.17813208 C34.0151296,3.27461006 34.167423,5.09951572 33.4089487,6.29649686 C32.6503912,7.49347799 34.0177897,8.48196855 33.4037115,9.9806478 C32.7896333,11.479327 34.1069878,12.5896415 33.821022,13.0965597 C33.5350562,13.6042956 28.8438875,11.4368113 28.0221516,11.5937925 C27.2867873,11.7344214 25.197824,12.6942956 21.1182396,13.4285094 C21.2524108,13.507 21.3674621,13.5470629 21.4848411,13.6329119 C21.7677311,13.8405849 21.5895844,13.6746101 22.8714425,13.9542327 C26.0775012,14.6549245 25.6400733,14.9296415 28.0221516,15.3547987 C28.9862885,15.5264969 33.4042934,13.4047987 33.8211051,13.6108365 C34.0151296,13.7064969 34.167423,15.5322201 33.4089487,16.7283836 C32.6503912,17.9253648 34.0177897,18.9138553 33.4037115,20.4125346 C32.7896333,21.9112138 34.1069878,23.0215283 33.821022,23.5284465 C33.5350562,24.0361824 28.8438875,21.8686981 28.0221516,22.0248616 C27.2004988,22.1818428 24.6892372,23.3616541 19.5999609,24.1064969 C18.2443667,24.3051761 16.8673252,24.3346101 15.5742445,24.2732893 L15.5743276,24.2693648 Z"/>
    <linearGradient id="fogcreek-r" x1="26.384%" x2="73.148%" y1="17.53%" y2="74.171%">
      <stop offset="0%" stop-color="#F1A5FF"/>
      <stop offset="100%" stop-color="#FF686C"/>
    </linearGradient>
    <path id="fogcreek-s" d="M15.5743276,24.2693648 C15.9253007,25.0276164 15.8411736,25.7451509 15.8411736,25.7451509 C15.8411736,25.7451509 15.48089,25.8511132 14.80089,25.8601887 C14.5488411,25.9179119 13.5418924,26.0984403 11.9082298,25.7598679 C10.0053936,25.3655346 9.12588264,23.3809497 9.12588264,23.3809497 C9.12588264,23.3809497 9.14417115,23.3629623 9.18074817,23.3327107 C9.07267971,23.3134969 9.01116381,23.3070377 8.99952567,23.3171761 C7.77087042,23.5507673 7.12994132,23.5248491 6.1939022,23.5248491 C5.25786308,23.5248491 1.5544401,22.1504465 0.361530562,20.6771132 C0.361530562,20.6771132 2.2136577,20.2347862 2.2136577,19.8609748 C2.2136577,19.487327 0.0971784841,18.7966101 0.0971784841,18.7966101 C0.0971784841,18.7966101 -0.223701711,17.0726792 2.04490465,15.3512013 C3.53292421,14.222327 4.7748802,13.4823899 5.99106601,13.0796352 C4.81228851,12.925761 1.48128606,11.6301761 0.361530562,10.2471887 C0.361530562,10.2471887 2.2136577,9.80486164 2.2136577,9.43121384 C2.2136577,9.05756604 0.0989242054,8.36742138 0.0989242054,8.36742138 C0.0989242054,8.36742138 -0.22195599,6.64349057 2.04648411,4.92201258 C4.31467482,3.19996226 6.01218093,2.38251572 7.9197555,2.28685535 C9.82733007,2.19119497 10.466846,2.19119497 10.466846,2.19119497 C10.466846,2.19119497 12.1276088,0 12.9998044,0 C13.4359853,0 19.8257408,1.32730818 20.3792176,2.19135849 C20.9326944,3.05557233 21.2020342,2.99261635 21.4848411,3.19971698 C21.7677311,3.40681761 21.5895844,3.24116981 22.8714425,3.52103774 C26.0775012,4.22123899 25.6400733,4.49603774 28.0221516,4.92127673 C28.9862885,5.09379245 33.4042934,2.97127673 33.8211051,3.17813208 C34.0151296,3.27461006 34.167423,5.09951572 33.4089487,6.29649686 C32.6503912,7.49347799 34.0177897,8.48196855 33.4037115,9.9806478 C32.7896333,11.479327 34.1069878,12.5896415 33.821022,13.0965597 C33.5350562,13.6042956 28.8438875,11.4368113 28.0221516,11.5937925 C27.2867873,11.7344214 25.197824,12.6942956 21.1182396,13.4285094 C21.2524108,13.507 21.3674621,13.5470629 21.4848411,13.6329119 C21.7677311,13.8405849 21.5895844,13.6746101 22.8714425,13.9542327 C26.0775012,14.6549245 25.6400733,14.9296415 28.0221516,15.3547987 C28.9862885,15.5264969 33.4042934,13.4047987 33.8211051,13.6108365 C34.0151296,13.7064969 34.167423,15.5322201 33.4089487,16.7283836 C32.6503912,17.9253648 34.0177897,18.9138553 33.4037115,20.4125346 C32.7896333,21.9112138 34.1069878,23.0215283 33.821022,23.5284465 C33.5350562,24.0361824 28.8438875,21.8686981 28.0221516,22.0248616 C27.2004988,22.1818428 24.6892372,23.3616541 19.5999609,24.1064969 C18.2443667,24.3051761 16.8673252,24.3346101 15.5742445,24.2732893 L15.5743276,24.2693648 Z"/>
    <path id="fogcreek-u" d="M15.5743276,24.2693648 C15.9253007,25.0276164 15.8411736,25.7451509 15.8411736,25.7451509 C15.8411736,25.7451509 15.48089,25.8511132 14.80089,25.8601887 C14.5488411,25.9179119 13.5418924,26.0984403 11.9082298,25.7598679 C10.0053936,25.3655346 9.12588264,23.3809497 9.12588264,23.3809497 C9.12588264,23.3809497 9.14417115,23.3629623 9.18074817,23.3327107 C9.07267971,23.3134969 9.01116381,23.3070377 8.99952567,23.3171761 C7.77087042,23.5507673 7.12994132,23.5248491 6.1939022,23.5248491 C5.25786308,23.5248491 1.5544401,22.1504465 0.361530562,20.6771132 C0.361530562,20.6771132 2.2136577,20.2347862 2.2136577,19.8609748 C2.2136577,19.487327 0.0971784841,18.7966101 0.0971784841,18.7966101 C0.0971784841,18.7966101 -0.223701711,17.0726792 2.04490465,15.3512013 C3.53292421,14.222327 4.7748802,13.4823899 5.99106601,13.0796352 C4.81228851,12.925761 1.48128606,11.6301761 0.361530562,10.2471887 C0.361530562,10.2471887 2.2136577,9.80486164 2.2136577,9.43121384 C2.2136577,9.05756604 0.0989242054,8.36742138 0.0989242054,8.36742138 C0.0989242054,8.36742138 -0.22195599,6.64349057 2.04648411,4.92201258 C4.31467482,3.19996226 6.01218093,2.38251572 7.9197555,2.28685535 C9.82733007,2.19119497 10.466846,2.19119497 10.466846,2.19119497 C10.466846,2.19119497 12.1276088,0 12.9998044,0 C13.4359853,0 19.8257408,1.32730818 20.3792176,2.19135849 C20.9326944,3.05557233 21.2020342,2.99261635 21.4848411,3.19971698 C21.7677311,3.40681761 21.5895844,3.24116981 22.8714425,3.52103774 C26.0775012,4.22123899 25.6400733,4.49603774 28.0221516,4.92127673 C28.9862885,5.09379245 33.4042934,2.97127673 33.8211051,3.17813208 C34.0151296,3.27461006 34.167423,5.09951572 33.4089487,6.29649686 C32.6503912,7.49347799 34.0177897,8.48196855 33.4037115,9.9806478 C32.7896333,11.479327 34.1069878,12.5896415 33.821022,13.0965597 C33.5350562,13.6042956 28.8438875,11.4368113 28.0221516,11.5937925 C27.2867873,11.7344214 25.197824,12.6942956 21.1182396,13.4285094 C21.2524108,13.507 21.3674621,13.5470629 21.4848411,13.6329119 C21.7677311,13.8405849 21.5895844,13.6746101 22.8714425,13.9542327 C26.0775012,14.6549245 25.6400733,14.9296415 28.0221516,15.3547987 C28.9862885,15.5264969 33.4042934,13.4047987 33.8211051,13.6108365 C34.0151296,13.7064969 34.167423,15.5322201 33.4089487,16.7283836 C32.6503912,17.9253648 34.0177897,18.9138553 33.4037115,20.4125346 C32.7896333,21.9112138 34.1069878,23.0215283 33.821022,23.5284465 C33.5350562,24.0361824 28.8438875,21.8686981 28.0221516,22.0248616 C27.2004988,22.1818428 24.6892372,23.3616541 19.5999609,24.1064969 C18.2443667,24.3051761 16.8673252,24.3346101 15.5742445,24.2732893 L15.5743276,24.2693648 Z"/>
    <path id="fogcreek-w" d="M15.5743276,24.2693648 C15.9253007,25.0276164 15.8411736,25.7451509 15.8411736,25.7451509 C15.8411736,25.7451509 15.48089,25.8511132 14.80089,25.8601887 C14.5488411,25.9179119 13.5418924,26.0984403 11.9082298,25.7598679 C10.0053936,25.3655346 9.12588264,23.3809497 9.12588264,23.3809497 C9.12588264,23.3809497 9.14417115,23.3629623 9.18074817,23.3327107 C9.07267971,23.3134969 9.01116381,23.3070377 8.99952567,23.3171761 C7.77087042,23.5507673 7.12994132,23.5248491 6.1939022,23.5248491 C5.25786308,23.5248491 1.5544401,22.1504465 0.361530562,20.6771132 C0.361530562,20.6771132 2.2136577,20.2347862 2.2136577,19.8609748 C2.2136577,19.487327 0.0971784841,18.7966101 0.0971784841,18.7966101 C0.0971784841,18.7966101 -0.223701711,17.0726792 2.04490465,15.3512013 C3.53292421,14.222327 4.7748802,13.4823899 5.99106601,13.0796352 C4.81228851,12.925761 1.48128606,11.6301761 0.361530562,10.2471887 C0.361530562,10.2471887 2.2136577,9.80486164 2.2136577,9.43121384 C2.2136577,9.05756604 0.0989242054,8.36742138 0.0989242054,8.36742138 C0.0989242054,8.36742138 -0.22195599,6.64349057 2.04648411,4.92201258 C4.31467482,3.19996226 6.01218093,2.38251572 7.9197555,2.28685535 C9.82733007,2.19119497 10.466846,2.19119497 10.466846,2.19119497 C10.466846,2.19119497 12.1276088,0 12.9998044,0 C13.4359853,0 19.8257408,1.32730818 20.3792176,2.19135849 C20.9326944,3.05557233 21.2020342,2.99261635 21.4848411,3.19971698 C21.7677311,3.40681761 21.5895844,3.24116981 22.8714425,3.52103774 C26.0775012,4.22123899 25.6400733,4.49603774 28.0221516,4.92127673 C28.9862885,5.09379245 33.4042934,2.97127673 33.8211051,3.17813208 C34.0151296,3.27461006 34.167423,5.09951572 33.4089487,6.29649686 C32.6503912,7.49347799 34.0177897,8.48196855 33.4037115,9.9806478 C32.7896333,11.479327 34.1069878,12.5896415 33.821022,13.0965597 C33.5350562,13.6042956 28.8438875,11.4368113 28.0221516,11.5937925 C27.2867873,11.7344214 25.197824,12.6942956 21.1182396,13.4285094 C21.2524108,13.507 21.3674621,13.5470629 21.4848411,13.6329119 C21.7677311,13.8405849 21.5895844,13.6746101 22.8714425,13.9542327 C26.0775012,14.6549245 25.6400733,14.9296415 28.0221516,15.3547987 C28.9862885,15.5264969 33.4042934,13.4047987 33.8211051,13.6108365 C34.0151296,13.7064969 34.167423,15.5322201 33.4089487,16.7283836 C32.6503912,17.9253648 34.0177897,18.9138553 33.4037115,20.4125346 C32.7896333,21.9112138 34.1069878,23.0215283 33.821022,23.5284465 C33.5350562,24.0361824 28.8438875,21.8686981 28.0221516,22.0248616 C27.2004988,22.1818428 24.6892372,23.3616541 19.5999609,24.1064969 C18.2443667,24.3051761 16.8673252,24.3346101 15.5742445,24.2732893 L15.5743276,24.2693648 Z"/>
    <path id="fogcreek-y" d="M15.5743276,24.2693648 C15.9253007,25.0276164 15.8411736,25.7451509 15.8411736,25.7451509 C15.8411736,25.7451509 15.48089,25.8511132 14.80089,25.8601887 C14.5488411,25.9179119 13.5418924,26.0984403 11.9082298,25.7598679 C10.0053936,25.3655346 9.12588264,23.3809497 9.12588264,23.3809497 C9.12588264,23.3809497 9.14417115,23.3629623 9.18074817,23.3327107 C9.07267971,23.3134969 9.01116381,23.3070377 8.99952567,23.3171761 C7.77087042,23.5507673 7.12994132,23.5248491 6.1939022,23.5248491 C5.25786308,23.5248491 1.5544401,22.1504465 0.361530562,20.6771132 C0.361530562,20.6771132 2.2136577,20.2347862 2.2136577,19.8609748 C2.2136577,19.487327 0.0971784841,18.7966101 0.0971784841,18.7966101 C0.0971784841,18.7966101 -0.223701711,17.0726792 2.04490465,15.3512013 C3.53292421,14.222327 4.7748802,13.4823899 5.99106601,13.0796352 C4.81228851,12.925761 1.48128606,11.6301761 0.361530562,10.2471887 C0.361530562,10.2471887 2.2136577,9.80486164 2.2136577,9.43121384 C2.2136577,9.05756604 0.0989242054,8.36742138 0.0989242054,8.36742138 C0.0989242054,8.36742138 -0.22195599,6.64349057 2.04648411,4.92201258 C4.31467482,3.19996226 6.01218093,2.38251572 7.9197555,2.28685535 C9.82733007,2.19119497 10.466846,2.19119497 10.466846,2.19119497 C10.466846,2.19119497 12.1276088,0 12.9998044,0 C13.4359853,0 19.8257408,1.32730818 20.3792176,2.19135849 C20.9326944,3.05557233 21.2020342,2.99261635 21.4848411,3.19971698 C21.7677311,3.40681761 21.5895844,3.24116981 22.8714425,3.52103774 C26.0775012,4.22123899 25.6400733,4.49603774 28.0221516,4.92127673 C28.9862885,5.09379245 33.4042934,2.97127673 33.8211051,3.17813208 C34.0151296,3.27461006 34.167423,5.09951572 33.4089487,6.29649686 C32.6503912,7.49347799 34.0177897,8.48196855 33.4037115,9.9806478 C32.7896333,11.479327 34.1069878,12.5896415 33.821022,13.0965597 C33.5350562,13.6042956 28.8438875,11.4368113 28.0221516,11.5937925 C27.2867873,11.7344214 25.197824,12.6942956 21.1182396,13.4285094 C21.2524108,13.507 21.3674621,13.5470629 21.4848411,13.6329119 C21.7677311,13.8405849 21.5895844,13.6746101 22.8714425,13.9542327 C26.0775012,14.6549245 25.6400733,14.9296415 28.0221516,15.3547987 C28.9862885,15.5264969 33.4042934,13.4047987 33.8211051,13.6108365 C34.0151296,13.7064969 34.167423,15.5322201 33.4089487,16.7283836 C32.6503912,17.9253648 34.0177897,18.9138553 33.4037115,20.4125346 C32.7896333,21.9112138 34.1069878,23.0215283 33.821022,23.5284465 C33.5350562,24.0361824 28.8438875,21.8686981 28.0221516,22.0248616 C27.2004988,22.1818428 24.6892372,23.3616541 19.5999609,24.1064969 C18.2443667,24.3051761 16.8673252,24.3346101 15.5742445,24.2732893 L15.5743276,24.2693648 Z"/>
  </defs>
  <g fill="none" fill-rule="evenodd">
    <path fill="url(#fogcreek-a)" fill-rule="nonzero" d="M15.5743276,24.2693648 C15.9253007,25.0276164 15.8411736,25.7451509 15.8411736,25.7451509 C15.8411736,25.7451509 15.48089,25.8511132 14.80089,25.8601887 C14.5488411,25.9179119 13.5418924,26.0984403 11.9082298,25.7598679 C10.0053936,25.3655346 9.12588264,23.3809497 9.12588264,23.3809497 C9.12588264,23.3809497 9.14417115,23.3629623 9.18074817,23.3327107 C9.07267971,23.3134969 9.01116381,23.3070377 8.99952567,23.3171761 C7.77087042,23.5507673 7.12994132,23.5248491 6.1939022,23.5248491 C5.25786308,23.5248491 1.5544401,22.1504465 0.361530562,20.6771132 C0.361530562,20.6771132 2.2136577,20.2347862 2.2136577,19.8609748 C2.2136577,19.487327 0.0971784841,18.7966101 0.0971784841,18.7966101 C0.0971784841,18.7966101 -0.223701711,17.0726792 2.04490465,15.3512013 C3.53292421,14.222327 4.7748802,13.4823899 5.99106601,13.0796352 C4.81228851,12.925761 1.48128606,11.6301761 0.361530562,10.2471887 C0.361530562,10.2471887 2.2136577,9.80486164 2.2136577,9.43121384 C2.2136577,9.05756604 0.0989242054,8.36742138 0.0989242054,8.36742138 C0.0989242054,8.36742138 -0.22195599,6.64349057 2.04648411,4.92201258 C4.31467482,3.19996226 6.01218093,2.38251572 7.9197555,2.28685535 C9.82733007,2.19119497 10.466846,2.19119497 10.466846,2.19119497 C10.466846,2.19119497 12.1276088,0 12.9998044,0 C13.4359853,0 19.8257408,1.32730818 20.3792176,2.19135849 C20.9326944,3.05557233 21.2020342,2.99261635 21.4848411,3.19971698 C21.7677311,3.40681761 21.5895844,3.24116981 22.8714425,3.52103774 C26.0775012,4.22123899 25.6400733,4.49603774 28.0221516,4.92127673 C28.9862885,5.09379245 33.4042934,2.97127673 33.8211051,3.17813208 C34.0151296,3.27461006 34.167423,5.09951572 33.4089487,6.29649686 C32.6503912,7.49347799 34.0177897,8.48196855 33.4037115,9.9806478 C32.7896333,11.479327 34.1069878,12.5896415 33.821022,13.0965597 C33.5350562,13.6042956 28.8438875,11.4368113 28.0221516,11.5937925 C27.2867873,11.7344214 25.197824,12.6942956 21.1182396,13.4285094 C21.2524108,13.507 21.3674621,13.5470629 21.4848411,13.6329119 C21.7677311,13.8405849 21.5895844,13.6746101 22.8714425,13.9542327 C26.0775012,14.6549245 25.6400733,14.9296415 28.0221516,15.3547987 C28.9862885,15.5264969 33.4042934,13.4047987 33.8211051,13.6108365 C34.0151296,13.7064969 34.167423,15.5322201 33.4089487,16.7283836 C32.6503912,17.9253648 34.0177897,18.9138553 33.4037115,20.4125346 C32.7896333,21.9112138 34.1069878,23.0215283 33.821022,23.5284465 C33.5350562,24.0361824 28.8438875,21.8686981 28.0221516,22.0248616 C27.2004988,22.1818428 24.6892372,23.3616541 19.5999609,24.1064969 C18.2443667,24.3051761 16.8673252,24.3346101 15.5742445,24.2732893 L15.5743276,24.2693648 Z"/>
    <mask id="fogcreek-d" fill="#fff">
      <use xlink:href="#fogcreek-b"/>
    </mask>
    <path fill="url(#fogcreek-c)" fill-rule="nonzero" d="M20.7823961,8.39546541 L34.1662592,8.39546541 L34.1662592,13.4104403 C34.1662592,13.4104403 25.4611785,13.4630943 21.1564792,13.4104403 C19.5662103,13.3910629 14.2974572,13.0555975 14.2974572,13.0555975 L5.11246944,13.0555975 L0.0831295844,13.4104403 L0.0831295844,9.40300629 L20.7823961,9.40300629 L20.7823961,8.39546541 Z" mask="url(#fogcreek-d)"/>
    <mask id="fogcreek-f" fill="#fff">
      <use xlink:href="#fogcreek-e"/>
    </mask>
    <polyline fill="#6F47FF" fill-rule="nonzero" points="13.467 12.156 25.521 12.156 25.521 13.591 13.467 13.113" mask="url(#fogcreek-f)"/>
    <mask id="fogcreek-h" fill="#fff">
      <use xlink:href="#fogcreek-g"/>
    </mask>
    <g mask="url(#fogcreek-h)">
      <g transform="translate(.083 18.887)">
        <polygon fill="#F78EC6" fill-rule="nonzero" points="16.127 .044 34.083 .044 34.083 7.432 0 7.432 0 1.024 16.127 1.024 16.127 .045"/>
        <polygon fill="url(#fogcreek-i)" fill-rule="nonzero" points="16.127 .044 34.083 .044 34.083 7.432 0 7.432 0 1.024 16.127 1.024 16.127 .045"/>
      </g>
    </g>
    <mask id="fogcreek-k" fill="#fff">
      <use xlink:href="#fogcreek-j"/>
    </mask>
    <path fill="#974DFF" fill-rule="nonzero" d="M13.2300733,4.85742138 C13.8094866,4.88661006 14.3888998,4.91669811 14.9296577,4.94613208 C15.1183619,4.95643396 15.2994181,4.96640881 15.4716626,4.97622013 C15.9604645,5.00385535 16.3704597,5.02871069 16.6853545,5.05005031 C17.8696186,5.13050314 19.6952274,5.39867925 21.0899756,5.67077987 C23.2276528,6.08792453 24.972709,6.7050566 27.7436675,7.90563522 C27.9548166,7.99720755 28.6805379,8.31321384 28.6974132,8.32049057 C28.8830416,8.40127044 29.0933594,8.30193082 29.1670954,8.09875472 C29.2408313,7.89557862 29.1501369,7.66542138 28.9644254,7.58472327 C28.948132,7.57761006 28.221912,7.26127673 28.0098484,7.16937736 C25.1975746,5.95097484 23.4130318,5.3199434 21.2169144,4.8913522 C19.7973105,4.61434591 17.9460978,4.34240881 16.7300782,4.25983019 C16.412357,4.23857233 16.0000342,4.21322642 15.5090709,4.18624528 C15.3361614,4.17643396 15.1547726,4.16662264 14.9656528,4.15599371 C14.4238973,4.12655975 13.8436528,4.09630818 13.2634083,4.06769182 C13.0605721,4.0578805 12.871868,4.04806918 12.7031149,4.03989308 C12.6440929,4.03744025 12.5917213,4.03416981 12.546,4.03253459 L12.4903032,4.03008176 C12.2118191,4.017 12.0247775,4.33832075 12.1536284,4.60894969 L12.183555,4.67435849 C12.2093252,4.73077358 12.2375892,4.79536478 12.2683472,4.86813208 C12.3564645,5.07662264 12.4454132,5.30473585 12.5277115,5.54266038 C12.6582249,5.92039623 12.7604743,6.28750314 12.8244841,6.62681132 C12.8485917,6.75435849 12.8668802,6.87618239 12.8785183,6.99228302 C12.9134328,7.32913836 12.8361222,7.91045912 12.6673692,8.64467296 C12.6075159,8.90467296 12.537687,9.17775472 12.4603765,9.4606478 C12.3656088,9.80649686 12.2633594,10.1482579 12.16111,10.4703962 C12.1253643,10.5832264 12.0921125,10.6846101 12.0630171,10.7745472 C12.0530416,10.8056164 12.0438973,10.8334151 12.0355844,10.8563082 L12.0264401,10.8832893 C11.9566112,11.0876918 12.0505477,11.3166226 12.2375892,11.393478 C12.4246308,11.4703333 12.6332861,11.3673145 12.7039462,11.1620943 L12.7147531,11.1310252 C12.723066,11.1064969 12.7330416,11.0778805 12.7438484,11.0451761 C12.7746064,10.9527862 12.8095208,10.8473145 12.8460978,10.7312138 C12.9516724,10.3998365 13.0564156,10.0476918 13.1545086,9.69039623 C13.2351443,9.39728302 13.3082983,9.11234591 13.3706455,8.84008176 C13.5593496,8.01838365 13.647467,7.36388679 13.6000831,6.90561635 C13.5857017,6.76498742 13.5641711,6.61977987 13.5360733,6.47023899 C13.4637506,6.08432704 13.3506944,5.67879245 13.2077115,5.26475472 C13.1590807,5.12371698 13.1083716,4.98594969 13.0568313,4.85349686 L13.2347286,4.86249057 L13.2300733,4.85742138 Z" mask="url(#fogcreek-k)"/>
    <g>
      <mask id="fogcreek-m" fill="#fff">
        <use xlink:href="#fogcreek-l"/>
      </mask>
      <path fill="#F1A5FF" fill-rule="nonzero" d="M13.2348117,9.37013836 C13.2823619,9.18740252 13.3262543,9.00875472 13.3661565,8.83542138 C13.5550269,8.01347799 13.6425623,7.35906289 13.5951785,6.90079245 C13.5807139,6.76032704 13.5591834,6.6151195 13.5311687,6.46557862 C13.4590954,6.07966667 13.345956,5.67331447 13.2028068,5.25960377 C13.1540929,5.11815723 13.1033839,4.98079874 13.0518435,4.8475283 L13.2301565,4.85652201 C13.8095697,4.88513836 14.3889829,4.91538994 14.9301565,4.9448239 C15.1188606,4.95463522 15.3000831,4.96526415 15.4721614,4.97507547 C15.9609633,5.0020566 16.3707922,5.02740252 16.6858533,5.04866038 C17.8704499,5.12878616 19.6959756,5.39696226 21.09089,5.66922642 C23.2289829,6.08620755 24.9738729,6.70350314 27.7445819,7.90375472 C27.9557311,7.99532704 28.6814523,8.31092453 28.6989095,8.31828302 C28.8851198,8.39922642 29.0954377,8.29947799 29.1685917,8.09671069 C29.242577,7.89312579 29.1519658,7.66337736 28.9657555,7.58243396 C28.9499609,7.57507547 28.2234083,7.25866038 28.0114279,7.16708805 C25.199154,5.94884906 23.4151932,5.31765409 21.2189095,4.88922642 C19.7998875,4.6120566 17.9485917,4.33979245 16.7324059,4.25721384 C16.4148509,4.23595597 16.0025281,4.21061006 15.5120636,4.18281132 C15.339154,4.173 15.1579315,4.16237107 14.9683961,4.15255975 C14.4272225,4.12312579 13.846978,4.09287421 13.2667335,4.06344025 C13.0638973,4.05281132 12.8751932,4.04381761 12.7064401,4.03564151 L12.5493252,4.02746541 L12.4936284,4.02435849 C12.2159756,4.0107044 12.0281027,4.33210692 12.1569535,4.60240881 C12.1619413,4.61303774 12.1727482,4.63511321 12.1868802,4.66806289 C12.2126504,4.7238239 12.2409144,4.78906918 12.2716724,4.86183648 C12.3597897,5.07032704 12.4487384,5.29762264 12.5310367,5.53554717 C12.6615501,5.91295597 12.7637995,6.27957233 12.826978,6.61969811 C12.8510856,6.74724528 12.8693741,6.86906918 12.8810122,6.98516981 C12.9159267,7.32202516 12.8384499,7.90301887 12.6690318,8.63755975 C12.6158289,8.87057862 12.554313,9.11422642 12.4861467,9.36564151 L13.240132,9.36564151 L13.2348117,9.37013836 Z" mask="url(#fogcreek-m)"/>
    </g>
    <g>
      <mask id="fogcreek-o" fill="#fff">
        <use xlink:href="#fogcreek-n"/>
      </mask>
      <path fill="#974DFF" fill-rule="nonzero" d="M10.2801369,4.98766667 C10.2857897,4.99666038 10.2975941,5.01644654 10.3148851,5.0458805 C10.3443961,5.09616352 10.3774817,5.15437736 10.4132274,5.2197044 C10.5158093,5.40775472 10.6185575,5.61215723 10.7141565,5.82800629 C10.8795844,6.20083648 11.0054425,6.56303774 11.0762689,6.89662264 C11.118665,7.09284906 11.1394474,7.27435849 11.1394474,7.4378805 C11.1394474,7.90146541 11.0330416,8.40920126 10.8534817,8.91938994 C10.7903032,9.10008176 10.7221369,9.26850943 10.6539707,9.41813208 C10.6306944,9.47045912 10.6090807,9.51624528 10.5899609,9.55549057 C10.579154,9.57838365 10.5716724,9.59310063 10.5683472,9.5988239 C10.4785672,9.7697044 10.5350954,9.98637107 10.6947042,10.0828491 C10.8551443,10.179327 11.0579804,10.1188239 11.1477604,9.9479434 C11.1702054,9.90542767 11.2076137,9.83020755 11.2541663,9.72800629 C11.3306455,9.55957862 11.4062934,9.37234591 11.4777848,9.17039623 C11.6813692,8.58490566 11.804401,7.99786164 11.804401,7.43779874 C11.804401,7.21720755 11.776802,6.98418868 11.724846,6.73955975 C11.6419658,6.34874214 11.4998142,5.9391195 11.3151834,5.52377358 C11.2107726,5.28830189 11.0990465,5.06509434 10.9874034,4.86150943 C10.9198191,4.73805031 10.8666161,4.6472956 10.8347775,4.59578616 C10.7333594,4.43226415 10.527198,4.3872956 10.3739902,4.49522013 C10.2207824,4.60314465 10.178802,4.82389937 10.2800538,4.98742138 L10.2801369,4.98766667 Z" mask="url(#fogcreek-o)"/>
    </g>
    <g>
      <mask id="fogcreek-q" fill="#fff">
        <use xlink:href="#fogcreek-p"/>
      </mask>
      <g mask="url(#fogcreek-q)">
        <g transform="translate(10.142 4.415)">
          <path fill="url(#fogcreek-r)" fill-rule="nonzero" d="M1.2594132,4.95504403 C1.28476773,4.88963522 1.30962347,4.82218239 1.33389731,4.75309434 C1.53889487,4.16981132 1.66259169,3.5827673 1.66259169,3.02221384 C1.66259169,2.80203145 1.63499267,2.56901258 1.58303667,2.32446541 C1.50015648,1.93397484 1.35800489,1.52459748 1.17337408,1.10867925 C1.06896333,0.87345283 0.957237164,0.650490566 0.845594132,0.446415094 C0.77800978,0.322955975 0.724806846,0.232201258 0.692968215,0.180855346 C0.591550122,0.0173333333 0.385388753,-0.0274716981 0.232180929,0.0806981132 C0.0789731051,0.188867925 0.036992665,0.409132075 0.138244499,0.572572327 C0.14406357,0.581566038 0.155867971,0.601352201 0.173158924,0.630786164 C0.202586797,0.681069182 0.235672372,0.739283019 0.271418093,0.804610063 C0.374,0.992660377 0.476748166,1.19706289 0.572347188,1.41291195 C0.737775061,1.78574214 0.863633252,2.1479434 0.934459658,2.4815283 C0.976855746,2.67775472 0.997638142,2.85926415 0.997638142,3.02278616 C0.997638142,3.48637107 0.891232274,3.99410692 0.711672372,4.5042956 C0.655144254,4.66618239 0.594459658,4.81825786 0.533775061,4.95561635 L1.26032763,4.95561635 L1.2594132,4.95504403 Z"/>
          <path fill="#F1A5FF" fill-rule="nonzero" d="M1.2594132,4.95504403 C1.28476773,4.88963522 1.30962347,4.82218239 1.33389731,4.75309434 C1.53889487,4.16981132 1.66259169,3.5827673 1.66259169,3.02221384 C1.66259169,2.80203145 1.63499267,2.56901258 1.58303667,2.32446541 C1.50015648,1.93397484 1.35800489,1.52459748 1.17337408,1.10867925 C1.06896333,0.87345283 0.957237164,0.650490566 0.845594132,0.446415094 C0.77800978,0.322955975 0.724806846,0.232201258 0.692968215,0.180855346 C0.591550122,0.0173333333 0.385388753,-0.0274716981 0.232180929,0.0806981132 C0.0789731051,0.188867925 0.036992665,0.409132075 0.138244499,0.572572327 C0.14406357,0.581566038 0.155867971,0.601352201 0.173158924,0.630786164 C0.202586797,0.681069182 0.235672372,0.739283019 0.271418093,0.804610063 C0.374,0.992660377 0.476748166,1.19706289 0.572347188,1.41291195 C0.737775061,1.78574214 0.863633252,2.1479434 0.934459658,2.4815283 C0.976855746,2.67775472 0.997638142,2.85926415 0.997638142,3.02278616 C0.997638142,3.48637107 0.891232274,3.99410692 0.711672372,4.5042956 C0.655144254,4.66618239 0.594459658,4.81825786 0.533775061,4.95561635 L1.26032763,4.95561635 L1.2594132,4.95504403 Z"/>
        </g>
      </g>
    </g>
    <g>
      <mask id="fogcreek-t" fill="#fff">
        <use xlink:href="#fogcreek-s"/>
      </mask>
      <path fill="#373FFF" fill-rule="nonzero" d="M13.2300733,15.4094969 C13.8094866,15.4386038 14.3888998,15.4686918 14.9296577,15.4981258 C15.1183619,15.5083459 15.2994181,15.5184025 15.4716626,15.5281321 C15.9604645,15.5559308 16.3704597,15.5812767 16.6853545,15.6025346 C17.8696186,15.683478 19.6952274,15.9516541 21.0899756,16.2231006 C23.2276528,16.6400818 24.972709,17.2573774 27.7436675,18.4584465 C27.9548166,18.5500189 28.6805379,18.866434 28.6974132,18.8737925 C28.8830416,18.9547358 29.0933594,18.855805 29.1670954,18.6522201 C29.2408313,18.4494528 29.1501369,18.2188868 28.9644254,18.138761 C28.948132,18.1314025 28.221912,17.815805 28.0098484,17.7234151 C25.1975746,16.5051761 23.4130318,15.8739811 21.2169144,15.4455535 C19.7973105,15.1683836 17.9460978,14.8969371 16.7300782,14.8143585 C16.412357,14.7931006 16.0000342,14.7677547 15.5090709,14.739956 C15.3361614,14.7301447 15.1547726,14.7203333 14.9656528,14.710522 C14.4238973,14.6810881 13.8436528,14.6508365 13.2634083,14.6214025 C13.0605721,14.6115912 12.871868,14.6017799 12.7031149,14.5936038 L12.546,14.5862453 L12.4903032,14.5837925 C12.2118191,14.5707107 12.0247775,14.8920314 12.1536284,15.1626604 L12.183555,15.2280692 C12.2093252,15.2844843 12.2375892,15.3494025 12.2683472,15.4218428 C12.3564645,15.6303333 12.4454132,15.8576289 12.5277115,16.0962075 C12.6582249,16.4735346 12.7604743,16.8402327 12.8244841,17.1803585 C12.8485917,17.3076604 12.8668802,17.4297296 12.8785183,17.5458302 C12.9134328,17.8824403 12.8361222,18.4635975 12.6673692,19.1982201 C12.6075159,19.4578931 12.537687,19.7313019 12.4603765,20.0133774 C12.3656088,20.3592264 12.2633594,20.7009874 12.16111,21.0229623 C12.1253643,21.1357925 12.0921125,21.2377484 12.0630171,21.3271132 C12.0530416,21.3581824 12.0438973,21.3855723 12.0355844,21.4088742 L12.0264401,21.4358553 C11.9566112,21.6406667 12.0505477,21.8689434 12.2375892,21.9458805 C12.4246308,22.0227358 12.6332861,21.919717 12.7039462,21.7144969 L12.7147531,21.6834277 C12.723066,21.6588994 12.7330416,21.630283 12.7438484,21.5975786 C12.7746064,21.5043711 12.8095208,21.3988994 12.8460978,21.2827987 C12.9516724,20.9516667 13.0564156,20.5992767 13.1545086,20.2419811 C13.2351443,19.9484591 13.3082983,19.6639308 13.3706455,19.3916667 C13.5593496,18.5699686 13.647467,17.9156352 13.6000831,17.4572013 C13.5857017,17.3165723 13.5641711,17.1718553 13.5360733,17.0222327 C13.4637506,16.636566 13.3506944,16.2307862 13.2077115,15.8167484 C13.1590807,15.6753019 13.1083716,15.5372893 13.0568313,15.404673 L13.2347286,15.4136667 L13.2300733,15.4094969 Z" mask="url(#fogcreek-t)"/>
    </g>
    <g>
      <mask id="fogcreek-v" fill="#fff">
        <use xlink:href="#fogcreek-u"/>
      </mask>
      <path fill="#F1A5FF" fill-rule="nonzero" d="M13.2348117,19.9220503 C13.2823619,19.7393962 13.3262543,19.5606667 13.3661565,19.3873333 C13.5550269,18.5653899 13.6425623,17.9109748 13.5951785,17.4528679 C13.5807139,17.312239 13.5591834,17.1671132 13.5311687,17.0175723 C13.4590954,16.6319057 13.345956,16.2261258 13.2028068,15.8120881 C13.1540929,15.6706415 13.1033839,15.5331195 13.0518435,15.4005031 L13.2301565,15.4094969 C13.8095697,15.4386038 14.3889829,15.4686918 14.9301565,15.4981258 C15.1188606,15.5083459 15.3000831,15.5184025 15.4721614,15.5281321 C15.9609633,15.5559308 16.3707922,15.5812767 16.6858533,15.6025346 C17.8704499,15.683478 19.6959756,15.9516541 21.09089,16.2231006 C23.2289829,16.6400818 24.9738729,17.2573774 27.7445819,18.4584465 C27.9557311,18.5500189 28.6814523,18.866434 28.6989095,18.8737925 C28.8851198,18.9547358 29.0954377,18.855805 29.1685917,18.6522201 C29.242577,18.4494528 29.1519658,18.2188868 28.9657555,18.138761 C28.9499609,18.1314025 28.2234083,17.815805 28.0114279,17.7234151 C25.199154,16.5051761 23.4151932,15.8739811 21.2189095,15.4455535 C19.7998875,15.1683836 17.9485917,14.8969371 16.7324059,14.8143585 C16.4148509,14.7931006 16.0025281,14.7677547 15.5120636,14.739956 C15.339154,14.7301447 15.1579315,14.7203333 14.9683961,14.710522 C14.4272225,14.6810881 13.846978,14.6508365 13.2667335,14.6214025 C13.0638973,14.6115912 12.8751932,14.6017799 12.7064401,14.5936038 L12.5493252,14.5862453 L12.4936284,14.5837925 C12.2159756,14.5707107 12.0281027,14.8920314 12.1569535,15.1626604 C12.1619413,15.1732893 12.1727482,15.1953648 12.1868802,15.2280692 C12.2126504,15.2844843 12.2409144,15.3494025 12.2716724,15.4218428 C12.3597897,15.6303333 12.4487384,15.8576289 12.5310367,16.0962075 C12.6615501,16.4735346 12.7637995,16.8402327 12.826978,17.1803585 C12.8510856,17.3076604 12.8693741,17.4297296 12.8810122,17.5458302 C12.9159267,17.8824403 12.8384499,18.4635975 12.6690318,19.1982201 C12.6158289,19.4309937 12.554313,19.6747233 12.4861467,19.9258931 L13.240132,19.9258931 L13.2348117,19.9220503 Z" mask="url(#fogcreek-v)"/>
    </g>
    <g>
      <mask id="fogcreek-x" fill="#fff">
        <use xlink:href="#fogcreek-w"/>
      </mask>
      <path fill="#373FFF" fill-rule="nonzero" d="M10.2801369,15.5396604 C10.2857897,15.5486541 10.2975941,15.5684403 10.3148851,15.5977107 C10.3443961,15.6480755 10.3774817,15.7064528 10.4132274,15.7716164 C10.5158093,15.9588491 10.6185575,16.1640692 10.7141565,16.3791006 C10.8795844,16.7511132 11.0054425,17.1141321 11.0762689,17.447717 C11.118665,17.6431258 11.1394474,17.8246352 11.1394474,17.9881572 C11.1394474,18.4517421 11.0330416,18.959478 10.8534817,19.4696667 C10.7903032,19.6503585 10.7221369,19.8179686 10.6539707,19.9684088 C10.6306944,20.0199182 10.6090807,20.066522 10.5899609,20.1049497 C10.579154,20.1270252 10.5716724,20.1417421 10.5683472,20.148283 C10.4785672,20.3191635 10.5350954,20.5350126 10.6947042,20.6314906 C10.8551443,20.7279686 11.0579804,20.6674654 11.1477604,20.4965849 C11.1702054,20.4540692 11.2076137,20.3788491 11.2541663,20.2758302 C11.3306455,20.1074025 11.4062934,19.9193522 11.4777848,19.7174025 C11.6831149,19.1336289 11.806978,18.5465849 11.806978,17.986522 C11.806978,17.7657673 11.7795452,17.5327484 11.7271736,17.288283 C11.6448753,16.898283 11.5027237,16.4886604 11.3173447,16.0724969 C11.2134328,15.8370252 11.1012078,15.6146352 10.9898142,15.4102327 C10.9224792,15.2867736 10.8692763,15.1960189 10.837687,15.1445094 C10.7362689,14.9809874 10.5301076,14.9360189 10.3771491,15.0439434 C10.2241907,15.1518679 10.1817946,15.3726226 10.2832127,15.5361447 L10.2801369,15.5396604 Z" mask="url(#fogcreek-x)"/>
    </g>
    <g>
      <mask id="fogcreek-z" fill="#fff">
        <use xlink:href="#fogcreek-y"/>
      </mask>
      <g mask="url(#fogcreek-z)">
        <g transform="translate(10.142 14.962)">
          <path fill="url(#fogcreek-r)" fill-rule="nonzero" d="M1.2594132,4.95978616 C1.28476773,4.89437736 1.30962347,4.82700629 1.33389731,4.75783648 C1.53889487,4.17455346 1.66259169,3.58750943 1.66259169,3.02695597 C1.66259169,2.80677358 1.63499267,2.57375472 1.58303667,2.32912579 C1.50015648,1.93879874 1.35800489,1.52933962 1.17337408,1.11333962 C1.06896333,0.878194969 0.957237164,0.655314465 0.845594132,0.451075472 C0.77800978,0.327779874 0.724806846,0.236861635 0.692968215,0.185597484 C0.591550122,0.0220754717 0.385388753,-0.0227295597 0.232180929,0.0854402516 C0.0789731051,0.193610063 0.036992665,0.413874214 0.138244499,0.577396226 C0.14406357,0.586389937 0.155867971,0.606176101 0.173158924,0.635446541 C0.202586797,0.685811321 0.235672372,0.744188679 0.271418093,0.809352201 C0.374,0.996584906 0.476748166,1.20180503 0.572347188,1.41683648 C0.737775061,1.78884906 0.863633252,2.15186792 0.934459658,2.48545283 C0.976855746,2.68086164 0.997638142,2.86237107 0.997638142,3.02589308 C0.997638142,3.48947799 0.891232274,3.99721384 0.711672372,4.50740252 C0.655144254,4.66928931 0.594459658,4.82054717 0.533775061,4.95872327 L1.26032763,4.95872327 L1.2594132,4.95978616 Z"/>
          <path fill="#F1A5FF" fill-rule="nonzero" d="M1.2594132,4.95978616 C1.28476773,4.89437736 1.30962347,4.82700629 1.33389731,4.75783648 C1.53889487,4.17455346 1.66259169,3.58750943 1.66259169,3.02695597 C1.66259169,2.80677358 1.63499267,2.57375472 1.58303667,2.32912579 C1.50015648,1.93879874 1.35800489,1.52933962 1.17337408,1.11333962 C1.06896333,0.878194969 0.957237164,0.655314465 0.845594132,0.451075472 C0.77800978,0.327779874 0.724806846,0.236861635 0.692968215,0.185597484 C0.591550122,0.0220754717 0.385388753,-0.0227295597 0.232180929,0.0854402516 C0.0789731051,0.193610063 0.036992665,0.413874214 0.138244499,0.577396226 C0.14406357,0.586389937 0.155867971,0.606176101 0.173158924,0.635446541 C0.202586797,0.685811321 0.235672372,0.744188679 0.271418093,0.809352201 C0.374,0.996584906 0.476748166,1.20180503 0.572347188,1.41683648 C0.737775061,1.78884906 0.863633252,2.15186792 0.934459658,2.48545283 C0.976855746,2.68086164 0.997638142,2.86237107 0.997638142,3.02589308 C0.997638142,3.48947799 0.891232274,3.99721384 0.711672372,4.50740252 C0.655144254,4.66928931 0.594459658,4.82054717 0.533775061,4.95872327 L1.26032763,4.95872327 L1.2594132,4.95978616 Z"/>
        </g>
      </g>
    </g>
    <g fill-rule="nonzero" transform="matrix(-1 0 0 1 7.416 15.575)">
      <ellipse cx="1.584" cy="1.605" fill="#000" rx="1.584" ry="1.605"/>
      <path fill="#FFF" d="M3.16831785,1.62230189 L3.16831785,1.60455975 C3.16831785,0.71827044 2.45922249,0 1.58428362,0 C0.709261614,0 0,0.718352201 0,1.60455975 C0,2.49068553 0.709261614,3.2091195 1.58420049,3.2091195 C2.36811247,3.2091195 3.01885086,2.63254088 3.14595599,1.87527044 C3.03664059,2.44481761 2.54160391,2.87479874 1.94722738,2.87479874 C1.27279707,2.87479874 0.72605379,2.32127673 0.72605379,1.63857233 C0.72605379,0.955867925 1.27271394,0.402264151 1.94722738,0.402264151 C2.61642054,0.402264151 3.16008802,0.947610063 3.16840098,1.62344654 L3.16831785,1.62230189 Z"/>
      <ellipse cx="2.384" cy="2.069" fill="#FFF" rx="1" ry="1"/>
    </g>
    <g fill-rule="nonzero" transform="matrix(-1 0 0 1 7.416 5.003)">
      <ellipse cx="1.584" cy="1.605" fill="#000" rx="1.584" ry="1.605"/>
      <path fill="#FFF" d="M3.16831785,1.62230189 L3.16831785,1.60455975 C3.16831785,0.71827044 2.45922249,0 1.58428362,0 C0.709261614,0 0,0.718352201 0,1.60455975 C0,2.49068553 0.709261614,3.2091195 1.58420049,3.2091195 C2.36811247,3.2091195 3.01885086,2.63254088 3.14595599,1.87527044 C3.03664059,2.44481761 2.54160391,2.87479874 1.94722738,2.87479874 C1.27279707,2.87479874 0.72605379,2.32127673 0.72605379,1.63857233 C0.72605379,0.955867925 1.27271394,0.402264151 1.94722738,0.402264151 C2.61642054,0.402264151 3.16008802,0.947610063 3.16840098,1.62344654 L3.16831785,1.62230189 Z"/>
      <ellipse cx="2.384" cy="2.069" fill="#FFF" rx="1" ry="1"/>
    </g>
  </g>
</svg>
