<svg xmlns="http://www.w3.org/2000/svg" width="32" height="31" viewBox="0 0 32 31">
  <defs>
    <linearGradient id="formstack-logo-a" x1="50%" x2="50%" y1="0%" y2="100%">
      <stop offset="0%" stop-color="#91C63C"/>
      <stop offset="100%" stop-color="#47AB43"/>
    </linearGradient>
  </defs>
  <g fill="none">
    <path fill="#CEE39B" d="M30.8,5.40512821 L16.64,5.40512821 C16.08,5.40512821 15.68,5.8025641 15.6,6.35897436 C14.8,13.5128205 14.8,17.2487179 15.6,24.4025641 C15.68,24.9589744 16.16,25.3564103 16.64,25.3564103 L30.8,25.3564103 C31.36,25.3564103 31.76,24.9589744 31.68,24.4025641 C30.88,17.2487179 30.88,13.5128205 31.68,6.35897436 C31.76,5.88205128 31.36,5.40512821 30.8,5.40512821 Z"/>
    <path fill="#A8C933" d="M26.4,3.25897436 L9.76,4.05384615 C9.12,4.13333333 8.56,4.61025641 8.56,5.16666667 C7.6,13.274359 7.6,17.4871795 8.56,25.5948718 C8.64,26.2307692 9.2,26.7076923 9.76,26.7076923 L26.4,27.5025641 C27.04,27.5820513 27.44,27.025641 27.36,26.3897436 C26.4,17.6461538 26.4,13.1153846 27.36,4.29230769 C27.52,3.73589744 27.04,3.25897436 26.4,3.25897436 Z"/>
    <path fill="url(#formstack-logo-a)" d="M22.08,0.635897436 C17.04,1.11282051 14.56,1.35128205 9.44,1.82820513 C5.76,5.40512821 3.92,7.07435897 0.4,10.3333333 C0.08,16.9307692 0.16,20.2692308 0.96,26.9461538 C1.04,27.6615385 1.68,28.2179487 2.48,28.2974359 L22.08,30.2846154 C22.8,30.3641026 23.28,29.8076923 23.28,29.0128205 C22.24,20.0307692 22.24,10.9692308 23.28,2.06666667 C23.36,1.11282051 22.88,0.556410256 22.08,0.635897436 Z"/>
    <path fill="#FFF" d="M3.68,25.8333333 C7.04,26.0717949 8.72,26.2307692 12,26.5487179 C11.76,24.3230769 11.68,23.2102564 11.6,20.9846154 C8.24,20.825641 6.56,20.825641 3.28,20.6666667 C3.36,22.7333333 3.44,23.7666667 3.68,25.8333333 Z M3.2,18.0435897 C8.8,18.2025641 11.52,18.2025641 17.04,18.2820513 C16.96,15.9769231 16.96,14.8641026 17.04,12.4794872 C11.44,12.6384615 8.72,12.6384615 3.2,12.7974359 C3.12,14.8641026 3.12,15.9769231 3.2,18.0435897 Z"/>
    <path fill="#CEE39B" d="M9.52,1.90769231 C5.84,5.48461538 4,7.15384615 0.48,10.4128205 C2.72,9.6974359 3.84,9.37948718 6.08,8.66410256 C6.32,8.58461538 6.56,8.42564103 6.8,8.26666667 C7.04,8.10769231 7.2,7.86923077 7.28,7.55128205 C8.16,5.16666667 8.56,4.05384615 9.52,1.90769231 Z"/>
    <path fill="#35933A" d="M7.12,10.0153846 C7.52,10.0153846 8,9.85641026 8.32,9.53846154 C8.72,9.22051282 8.88,8.82307692 8.88,8.34615385 C9.04,5.8025641 9.2,4.45128205 9.52,1.82820513 C8.56,4.05384615 8.16,5.16666667 7.36,7.39230769 C7.2,7.63076923 7.12,7.86923077 6.88,8.10769231 C6.64,8.26666667 6.4,8.50512821 6.16,8.50512821 C3.84,9.22051282 2.8,9.53846154 0.56,10.2538462 C3.12,10.2538462 4.48,10.174359 7.12,10.0153846 Z"/>
    <path fill="#FFF" d="M9.2,4.61025641 C9.04,6.12051282 8.96,6.91538462 8.88,8.42564103 C8.88,8.82307692 8.72,9.3 8.32,9.61794872 C7.92,9.93589744 7.52,10.0948718 7.12,10.0948718 C12.24,9.93589744 14.8,9.77692308 19.84,9.61794872 C20,7.31282051 20,6.12051282 20.24,3.81538462 C15.84,4.05384615 13.68,4.21282051 9.2,4.61025641 Z"/>
  </g>
</svg>
