<svg xmlns="http://www.w3.org/2000/svg" width="36" height="20" viewBox="0 0 36 20">
  <path d="M0,19.9834862 L2.26993742,19.9834862 L2.26993742,15.1013761 L4.39659574,18.4211009 L4.44435544,18.4211009 L6.58281852,15.0770642 L6.58281852,19.9834862 L8.88848561,19.9834862 L8.88848561,11.4399083 L6.43922403,11.4399083 L4.44417522,14.7477064 L2.44908135,11.440367 L9.01126408e-05,11.440367 L9.01126408e-05,19.9834862 L0,19.9834862 Z M9.70017522,19.9834862 L12.1372716,19.9834862 L12.7345832,18.4577982 L15.9601652,18.4577982 L16.5694168,19.9834862 L19.0542728,19.9834862 L15.4941477,11.3788991 L13.2601652,11.3788991 L9.70017522,19.9834862 Z M13.4155194,16.6149083 L14.359179,14.1861009 L15.2909437,16.6149083 L13.4155194,16.6149083 Z M19.8662328,19.9834862 L23.0440551,19.9834404 C26.0545382,19.9834404 27.8106984,18.1527064 27.8106984,15.6872936 L27.8106984,15.662844 C27.8106984,13.1975229 26.078418,11.44 23.0918148,11.44 L19.8662328,11.44 L19.8662328,19.9834862 Z M22.1839299,17.8841743 L22.1839299,13.5392202 L23.1276345,13.5392202 C24.5134318,13.5392202 25.4333467,14.3325229 25.4333467,15.6994954 L25.4333467,15.7238991 C25.4333467,17.1030275 24.5133867,17.8841743 23.1275895,17.8841743 L22.1839299,17.8841743 Z M29.0050063,19.9833945 L35.7904881,19.9833945 L35.7904881,17.969633 L31.2987334,17.969633 L31.2987334,16.6148165 L35.312801,16.6148165 L35.312801,14.7477064 L31.2987334,14.7477064 L31.2987334,13.4541284 L35.7309237,13.4541284 L35.7309237,11.440367 L29.0050063,11.440367 L29.0050063,19.9834862 L29.0050063,19.9833945 Z M0.0109486859,9.85261468 L2.68954693,9.85261468 L2.68954693,6.34481651 L7.25947434,6.34481651 L7.25947434,4.0856422 L2.68959199,4.0856422 L2.68959199,2.41591743 L7.74274844,2.41591743 L7.74274844,0.0305963303 L0.0109486859,0.0305963303 L0.0109486859,9.85261468 Z M13.306438,10.0350459 C16.0539725,10.0350459 17.8350488,8.64591743 17.8350488,5.47481651 L17.8350488,0.0306422018 L15.1150438,0.0306422018 L15.1150438,5.55908257 C15.1150438,6.93412844 14.4109036,7.57958716 13.3339675,7.57958716 C12.2570313,7.57958716 11.5528911,6.90605505 11.5528911,5.48889908 L11.5528911,0.0306422018 L8.83297622,0.0306422018 L8.83297622,5.54495413 C8.83297622,8.61788991 10.5588135,10.0350917 13.3063479,10.0350917 L13.306438,10.0350459 Z M19.422383,9.85266055 L27.2645707,9.85266055 L27.2645707,7.53747706 L22.0731815,7.53747706 L22.0731815,5.97995413 L26.7123154,5.97995413 L26.7123154,3.83316514 L22.0732716,3.83316514 L22.0732716,2.34587156 L27.1957247,2.34587156 L27.1957247,0.0306422018 L19.422383,0.0306422018 L19.422383,9.85266055 Z M28.6309937,9.85266055 L35.9900426,9.85266055 L35.9900426,7.46729358 L31.3093217,7.46729358 L31.3093217,0.0306422018 L28.6309937,0.0306422018 L28.6309937,9.85266055 Z"/>
</svg>
