<svg xmlns="http://www.w3.org/2000/svg" xmlns:xlink="http://www.w3.org/1999/xlink" width="26" height="27" viewBox="0 0 26 27">
  <defs>
    <polygon id="full-fabric-a" points="17.866 6.759 .382 6.759 .382 .606 17.866 .606"/>
    <polygon id="full-fabric-c" points=".173 .433 6.31 .433 6.31 6.585 .173 6.585"/>
    <polygon id="full-fabric-e" points="0 6.585 0 .433 17.483 .433 17.483 6.585 0 6.585"/>
    <polygon id="full-fabric-g" points="0 6.673 0 .52 11.809 .52 11.809 6.673 0 6.673"/>
  </defs>
  <g fill="none" fill-rule="evenodd">
    <path fill="#264660" d="M0,23.5244414 C0,21.8270621 1.37511111,20.449269 3.06896296,20.449269 C4.76377778,20.449269 6.13696296,21.8270621 6.13696296,23.5244414 C6.13696296,25.2247172 4.76377778,26.6015448 3.06896296,26.6015448 C1.37511111,26.6015448 0,25.2247172 0,23.5244414 Z"/>
    <g transform="translate(7.704 19.843)">
      <mask id="full-fabric-b" fill="#fff">
        <use xlink:href="#full-fabric-a"/>
      </mask>
      <path fill="#34BCC1" d="M14.7971778,0.605862069 L3.46117778,0.605862069 L3.44962222,0.605862069 L3.43806667,0.605862069 L3.37065926,0.605862069 L3.37065926,0.607793103 C1.71243704,0.650275862 0.381622222,2.00972414 0.381622222,3.68103448 C0.381622222,5.35524138 1.71243704,6.71372414 3.37065926,6.7562069 L3.37065926,6.75910345 L14.7971778,6.75910345 C16.4910296,6.75910345 17.8661407,5.38131034 17.8661407,3.68103448 C17.8661407,1.98462069 16.4910296,0.605862069 14.7971778,0.605862069" mask="url(#full-fabric-b)"/>
    </g>
    <g transform="translate(19.26 .533)">
      <mask id="full-fabric-d" fill="#fff">
        <use xlink:href="#full-fabric-c"/>
      </mask>
      <path fill="#34BCC1" d="M6.30991111,3.50849655 C6.30991111,5.2078069 4.9348,6.58463448 3.24094815,6.58463448 C1.54613333,6.58463448 0.172948148,5.2078069 0.172948148,3.50849655 C0.172948148,1.81015172 1.54613333,0.432358621 3.24094815,0.432358621 C4.9348,0.432358621 6.30991111,1.81015172 6.30991111,3.50849655" mask="url(#full-fabric-d)"/>
    </g>
    <g transform="translate(0 .533)">
      <mask id="full-fabric-f" fill="#fff">
        <use xlink:href="#full-fabric-e"/>
      </mask>
      <path fill="#264660" d="M3.06867407,6.58453793 L14.4027481,6.58453793 L14.4152667,6.58453793 L14.4268222,6.58453793 L14.4942296,6.58453793 L14.4942296,6.5826069 C16.1514889,6.54012414 17.4832667,5.18067586 17.4832667,3.5084 C17.4832667,1.83612414 16.1514889,0.476675862 14.4942296,0.434193103 L14.4942296,0.432262069 L3.06867407,0.432262069 C1.37482222,0.432262069 -0.000288888889,1.81005517 -0.000288888889,3.5084 C-0.000288888889,5.20771034 1.37482222,6.58453793 3.06867407,6.58453793" mask="url(#full-fabric-f)"/>
    </g>
    <g transform="translate(0 10.188)">
      <mask id="full-fabric-h" fill="#fff">
        <use xlink:href="#full-fabric-g"/>
      </mask>
      <path fill="#264660" d="M8.74245185,0.519544828 L3.08022963,0.519544828 L3.06771111,0.519544828 L3.05615556,0.519544828 L2.98874815,0.519544828 L2.98874815,0.521475862 C1.33148889,0.562993103 -0.000288888889,1.92244138 -0.000288888889,3.59664828 C-0.000288888889,5.2669931 1.33148889,6.6274069 2.98874815,6.66988966 L2.98874815,6.67278621 L8.74245185,6.67278621 C10.4353407,6.67278621 11.8094889,5.2949931 11.8094889,3.59664828 C11.8094889,1.89733793 10.4353407,0.519544828 8.74245185,0.519544828" mask="url(#full-fabric-h)"/>
    </g>
    <path fill="#34BCC1" d="M22.5008815,10.7077793 L16.8396222,10.7077793 L16.8271037,10.7077793 L16.8145852,10.7077793 L16.7481407,10.7077793 L16.7481407,10.7097103 C15.0908815,10.7512276 13.7591037,12.1106759 13.7591037,13.7848828 C13.7591037,15.4552276 15.0908815,16.8156414 16.7481407,16.8581241 L16.7481407,16.8610207 L22.5008815,16.8610207 C24.1947333,16.8610207 25.5698444,15.4832276 25.5698444,13.7848828 C25.5698444,12.0855724 24.1947333,10.7077793 22.5008815,10.7077793"/>
  </g>
</svg>
