<svg xmlns="http://www.w3.org/2000/svg" xmlns:xlink="http://www.w3.org/1999/xlink" width="30" height="30" viewBox="0 0 30 30">
  <defs>
    <polygon id="ga-a" points="0 0 29.963 0 29.963 29.947 0 29.947"/>
  </defs>
  <g fill="none" fill-rule="evenodd">
    <mask id="ga-b" fill="#fff">
      <use xlink:href="#ga-a"/>
    </mask>
    <path fill="#D0232B" d="M19.6917011,23.7054313 L19.1510814,19.446051 L17.7094046,19.446051 L17.1687849,23.7054313 L14.6622722,23.7054313 L16.9722357,6.19257594 L19.8718834,6.19257594 L22.1982139,23.7054313 L19.6917011,23.7054313 Z M13.2534022,22.9518955 C12.7127825,23.541616 11.9428068,23.8528797 10.8943378,23.8528797 C9.86223572,23.8528797 9.12503038,23.5580194 8.56800729,22.9682625 C8.01102066,22.378469 7.71612394,21.5921264 7.71612394,20.6091981 L7.71612394,9.32161604 C7.71612394,8.33865128 7.9782503,7.55230863 8.53523694,6.96251519 C9.07585662,6.35639125 9.84586877,6.06149453 10.8779344,6.06149453 C11.9264399,6.06149453 12.6636452,6.35639125 13.2206318,6.96251519 C13.7612515,7.55230863 14.0725152,8.33865128 14.0725152,9.32161604 L14.0725152,12.0247874 L11.6970838,12.0247874 L11.6970838,9.12503038 C11.6970838,8.6826853 11.3202795,8.35505468 10.8779344,8.35505468 C10.4356258,8.35505468 10.1079587,8.6990887 10.1079587,9.14139733 L10.1079587,20.7730134 C10.1079587,21.198955 10.4356258,21.5429891 10.8779344,21.5429891 C11.3202795,21.5429891 11.6806804,21.198955 11.6806804,20.75661 L11.6806804,17.5620292 L10.8779344,17.5620292 L10.8779344,15.4323208 L14.0725152,15.4323208 L14.0725152,20.5927947 C14.0725152,21.5757594 13.8103888,22.3621021 13.2534022,22.9518955 Z M28.1450304,14.9572418 C28.1450304,13.9579101 28.9641798,13.155164 29.9634751,13.155164 L29.5047631,10.9107047 C28.5873755,11.287582 27.522503,10.8615674 27.1456987,9.92777643 C26.7525273,8.99394897 27.1948724,7.94547995 28.1286634,7.55230863 L26.8508019,5.65195626 C26.146367,6.35639125 24.9995869,6.35639125 24.2951519,5.65195626 C23.5743499,4.94748481 23.5743499,3.80074119 24.2951519,3.09626974 L22.3947995,1.81844471 C22.0016282,2.75223572 20.9367558,3.17821385 20.0193317,2.80140948 C19.0855407,2.4246051 18.6596355,1.35973269 19.0364034,0.425941677 L16.792017,-0.0163669502 C16.792017,0.982928311 15.989271,1.80207776 14.9735358,1.80207776 C13.9742041,1.80207776 13.1714945,0.982928311 13.1714945,-0.0163669502 L10.9271081,0.425941677 C11.3039125,1.35973269 10.8615674,2.4246051 9.94414338,2.80140948 C9.01035237,3.17821385 7.94547995,2.75223572 7.56867558,1.81844471 L5.66832321,3.09626974 C6.3727582,3.80074119 6.3727582,4.94748481 5.66832321,5.65195626 C4.96388821,6.35639125 3.81710814,6.35639125 3.09626974,5.65195626 L1.83481166,7.55230863 C2.75223572,7.94547995 3.1945808,8.99394897 2.81777643,9.92777643 C2.44097205,10.8615674 1.37613609,11.287582 0.442308627,10.9107047 L0,13.155164 C0.999331713,13.155164 1.81844471,13.9579101 1.81844471,14.9572418 C1.81844471,15.9729405 0.999331713,16.7756865 0,16.7756865 L0.442308627,19.0200729 C1.37613609,18.6432685 2.44097205,19.0856136 2.81777643,20.0030377 C3.1945808,20.9368287 2.75223572,21.9852977 1.83481166,22.378469 L3.09626974,24.2788578 C3.81710814,23.5744228 4.96388821,23.5744228 5.66832321,24.2788578 C6.3727582,24.9832928 6.3727582,26.1300729 5.66832321,26.8345079 L7.56867558,28.1123329 C7.94547995,27.1785419 9.01035237,26.7362333 9.94414338,27.1294046 C10.8615674,27.5061725 11.3039125,28.571045 10.9271081,29.504836 L13.1714945,29.947181 C13.1714945,28.9478493 13.9742041,28.1286999 14.9735358,28.1286999 C15.989271,28.1286999 16.792017,28.9478493 16.792017,29.947181 L19.0364034,29.504836 C18.6596355,28.571045 19.0855407,27.5061725 20.0193317,27.1294046 C20.9367558,26.7362333 22.0016282,27.1785419 22.3947995,28.1123329 L24.2951519,26.8345079 C23.5743499,26.1300729 23.5743499,24.9832928 24.2951519,24.2788578 C24.9995869,23.5744228 26.146367,23.5744228 26.8508019,24.2788578 L28.1286634,22.378469 C27.1948724,21.9852977 26.7525273,20.9368287 27.1456987,20.0030377 C27.522503,19.0856136 28.5873755,18.6432685 29.5211665,19.0200729 L29.9634751,16.7756865 C28.9641798,16.7756865 28.1450304,15.9729405 28.1450304,14.9572418 Z" mask="url(#ga-b)"/>
    <path fill="#D0232B" d="M18.4466464,14.8261604 C17.7094046,14.8261604 17.1196476,15.4323208 17.1196476,16.1695261 C17.1196476,16.9067679 17.7094046,17.5129283 18.4466464,17.5129283 C19.1674484,17.5129283 19.7572418,16.9067679 19.7572418,16.1695261 C19.7572418,15.4323208 19.1674484,14.8261604 18.4466464,14.8261604"/>
  </g>
</svg>
