<svg xmlns="http://www.w3.org/2000/svg" xmlns:xlink="http://www.w3.org/1999/xlink" width="30" height="27" viewBox="0 0 30 27">
  <defs>
    <polygon id="gaggle-a" points="14.845 .064 0 .064 0 26.791 29.689 26.791 29.689 .064"/>
  </defs>
  <g fill="none" fill-rule="evenodd">
    <mask id="gaggle-b" fill="#fff">
      <use xlink:href="#gaggle-a"/>
    </mask>
    <path fill="#65879C" d="M26.9082603,12.4427002 C23.1327548,12.7959581 16.1767941,13.1457451 10.4929762,11.7813058 C10.4929762,11.7813058 12.3584073,15.3254545 16.4540535,15.9093328 C17.1877335,16.0142303 19.4755153,15.9725798 21.7456745,15.8971847 C19.1720181,16.2425367 16.3635917,16.4926326 14.150999,16.3561115 C14.150999,16.3561115 16.4562073,18.8819442 19.3419765,18.8181186 C20.0705656,18.8023068 22.5157743,18.4691029 24.5192476,18.1810203 C22.2467387,18.8589978 19.6307883,19.5412175 17.6331891,19.7675956 C19.4257809,21.1744569 21.2673237,21.0790078 22.03292,20.9841373 C22.6105437,20.9122131 23.3902379,20.7442612 24.2186875,20.5402509 C23.8306026,20.8383605 23.4121681,21.1141023 22.9627964,21.3661263 L22.9649502,21.3668976 C22.8862367,21.4106692 22.8061526,21.4523197 22.7250895,21.4947415 C22.3246689,21.7080075 21.9009477,21.9048832 21.4590165,22.0778484 L21.4421773,22.0836333 C21.3168623,22.1324183 21.1891977,22.1798536 21.0609456,22.2259391 L21.0098406,22.2431007 C20.8923578,22.2855225 20.7772246,22.3235093 20.6589586,22.3622674 L20.5146506,22.4083528 C20.4286923,22.4334203 20.3396013,22.4621514 20.2520765,22.4866403 C18.9080733,22.8773066 17.4123215,23.1048417 15.8421639,23.1048417 C8.64555917,23.1048417 4.04963209,18.8015356 4.04963209,13.4035541 C4.04963209,8.00865777 8.70606283,3.70303767 15.8421639,3.70303767 C19.4608299,3.70303767 22.6747677,4.84707655 24.8814862,6.79925076 C25.0420461,6.92208116 25.207501,7.06284441 25.3796133,7.22501139 C26.4968747,8.29596906 27.3049606,9.22307825 27.4741359,10.5537731 C30.9324378,8.94579398 28.8941113,5.62918032 28.8941113,5.62918032 C26.2532937,2.05552914 21.631912,0.064018356 15.8421639,0.064018356 C6.34916208,0.064018356 0,5.94522274 0,13.4654513 C0,20.983366 6.28787523,26.8028659 15.8421639,26.8028659 C22.0701229,26.8028659 26.7850992,24.4989764 29.6890782,20.1948989 L29.6890782,12.0657246 L26.9082603,12.4427002" mask="url(#gaggle-b)"/>
  </g>
</svg>
