<svg xmlns="http://www.w3.org/2000/svg" width="30" height="30" viewBox="0 0 30 30">
  <g fill="none">
    <polygon fill="#8DC63F" points="0 0 30 0 30 30 0 30"/>
    <path fill="#3D4351" d="M16.3846154,7.46153846 C18.6153846,7.46153846 20.2307692,8.23076923 21.7692308,9.53846154 C21.9230769,9.69230769 22,10 21.7692308,10.1538462 C21.5384615,10.3846154 21.3076923,10.6153846 21.1538462,10.7692308 C20.9230769,11 20.8461538,11 20.5384615,10.7692308 C19.3846154,9.76923077 17.7692308,9 16.3076923,9 C12.7692308,9 10.0769231,11.9230769 10.0769231,15.3846154 C10.0769231,18.8461538 12.7692308,21.8461538 16.3076923,21.8461538 C18.7692308,21.8461538 20.3076923,20.9230769 20.3076923,20.9230769 L20.3076923,17.7692308 L17.7692308,17.7692308 C17.5384615,17.7692308 17.3076923,17.6153846 17.3076923,17.3846154 L17.3076923,16.5384615 C17.3076923,16.3076923 17.4615385,16.0769231 17.7692308,16.0769231 L21.6153846,16.0769231 C21.8461538,16.0769231 22,16.3076923 22,16.5384615 L22,21.6153846 C22,21.6923077 21.9230769,21.9230769 21.8461538,22 C21.8461538,22 19.5384615,23.4615385 16.3076923,23.4615385 C11.8461538,23.4615385 8.23076923,19.9230769 8.23076923,15.4615385 C8.30769231,11.0769231 11.9230769,7.46153846 16.3846154,7.46153846 Z"/>
  </g>
</svg>
