<svg xmlns="http://www.w3.org/2000/svg" width="32" height="28" viewBox="0 0 32 28">
  <defs>
    <linearGradient id="giantswarm-a" x1="50%" x2="50%" y1="100%" y2="0%">
      <stop offset="0%" stop-color="#E14760"/>
      <stop offset="100%" stop-color="#FA8816"/>
    </linearGradient>
  </defs>
  <g fill="none">
    <path fill="url(#giantswarm-a)" d="M31.7714286,9.84516129 L24.3657143,0.496774194 C23.9542857,-1.05471187e-15 23.1314286,-1.05471187e-15 22.7657143,0.541935484 L19.6114286,4.96774194 C18.6057143,4.42580645 17.4628571,4.10967742 16.2285714,4.10967742 C14.9028571,4.10967742 13.6685714,4.42580645 12.6171429,5.01290323 L9.6,0.677419355 C9.23428571,0.135483871 8.41142857,0.0903225806 8,0.632258065 L0.548571429,9.98064516 C0.228571429,10.3419355 0.731428571,10.8387097 1.14285714,10.5225806 L7.54285714,4.92258065 C7.72571429,4.74193548 8.04571429,4.78709677 8.18285714,4.96774194 L8.96,7.40645161 C5.30285714,8.26451613 2.60571429,11.516129 2.65142857,15.4 C2.65142857,19.7354839 6.03428571,23.2580645 10.3771429,23.5741935 C10.5142857,25.1548387 11.4285714,26.8709677 14.3085714,27.8645161 C14.5371429,27.9548387 14.72,27.683871 14.5828571,27.5032258 C14.3085714,27.1419355 13.9885714,26.6 13.8971429,26.0129032 C14.5828571,26.2387097 15.3142857,26.3741935 16.0914286,26.3741935 C16.7771429,26.3741935 17.4628571,26.2387097 18.0571429,26.0580645 C17.92,26.6 17.6457143,27.0967742 17.3714286,27.4580645 C17.2342857,27.6387097 17.4171429,27.9096774 17.6457143,27.8193548 C20.5714286,26.7806452 21.5771429,25.0645161 21.76,23.5290323 C26.24,23.3935484 29.8514286,19.7354839 29.8057143,15.3096774 C29.8057143,11.4258065 27.0171429,8.12903226 23.3142857,7.31612903 L24.1371429,4.78709677 C24.32,4.60645161 24.5942857,4.56129032 24.7771429,4.74193548 L31.1771429,10.3419355 C31.5885714,10.7032258 32.0914286,10.2064516 31.7714286,9.84516129 Z"/>
    <ellipse cx="9.363" cy="16.305" fill="#FFF" rx="4.388" ry="5.871" transform="rotate(-31.555 9.363 16.305)"/>
    <path fill="#E54D42" d="M7.63428571,18.9225806 C7.63428571,18.9225806 7.54285714,18.6516129 7.54285714,18.2 C7.54285714,17.7032258 7.63428571,17.4774194 7.63428571,17.4774194 L9.87428571,16.5290323 L7.63428571,15.5806452 C7.63428571,15.5806452 7.54285714,15.3096774 7.54285714,14.8580645 C7.54285714,14.3612903 7.63428571,14.1354839 7.63428571,14.1354839 L11.4742857,15.7612903 C11.4742857,15.7612903 11.5657143,16.0322581 11.5657143,16.5290323 C11.5657143,16.9806452 11.4742857,17.2967742 11.4742857,17.2967742 L7.63428571,18.9225806 Z"/>
    <ellipse cx="23.105" cy="16.291" fill="#FFF" rx="4.434" ry="5.916" transform="rotate(-148.445 23.105 16.291)"/>
    <path fill="#E54D42" d="M20.3885714,17.2516129 C20.3885714,17.2516129 20.2971429,17.0709677 20.2971429,16.5741935 C20.2971429,16.0774194 20.3885714,15.8967742 20.3885714,15.8967742 L25.5085714,15.8967742 C25.5085714,15.8967742 25.6,16.0774194 25.6,16.5741935 C25.6,17.0709677 25.5085714,17.2516129 25.5085714,17.2516129 L20.3885714,17.2516129 Z"/>
  </g>
</svg>
