<svg xmlns="http://www.w3.org/2000/svg" width="50" height="50" viewBox="0 0 50 50">
  <g fill="none" fill-rule="evenodd">
    <circle cx="25" cy="25" r="25" fill="#FFF"/>
    <g fill-rule="nonzero" transform="matrix(1 0 0 -1 .077 49.973)">
      <path fill="#2690FF" d="M24.8710168,49.8187961 C11.1351929,49.8187961 0,38.6663441 0,24.909398 C0,11.1521763 11.1351929,0 24.8710168,0 C38.607016,0 49.7420337,11.1521763 49.7420337,24.909398 C49.7420337,38.6663441 38.607016,49.8187961 24.8710168,49.8187961"/>
      <path fill="#FFF" d="M15.5324039 36.4135513C17.1700552 36.4135513 18.9638079 35.7299452 20.2894815 34.5779888 20.4651988 34.4411673 20.4845645 34.2068669 20.3286632 34.0507501L18.7883658 32.4106467C18.6324645 32.2738253 18.4178407 32.2738253 18.2619645 32.3908502 17.5212146 33.0744563 16.6632948 33.3283027 15.707846 33.3283027 13.582775 33.3283027 11.8669355 31.5315814 11.8669355 29.3837853 11.8669355 27.255034 13.6023159 25.4979057 15.7274869 25.4979057 16.2927948 25.4979057 16.8777435 25.5758388 17.4625921 25.8106405L17.4625921 26.943051 16.2342473 26.943051C16.0197987 26.943051 15.8639224 27.0989172 15.8639224 27.2943764L15.8639224 29.2276685C15.8639224 29.4424231 16.0197987 29.5985399 16.2342473 29.5985399L20.153046 29.5985399C20.348129 29.5985399 20.5042054 29.4231278 20.5042054 29.2276685L20.523546 23.9747772C20.523546 23.8773984 20.4455579 23.7212566 20.3676698 23.6626188 20.3676698 23.6626188 18.3594935 22.3931362 15.5324039 22.3931362 11.6525118 22.3931362 8.53308554 25.4786104 8.53308554 29.3837853 8.53308554 33.2892109 11.6525118 36.4135513 15.5324039 36.4135513M23.5320575 35.8667667C23.5320575 36.0619753 23.7074745 36.2378886 23.9025575 36.2378886L26.2422523 36.2378886C26.4371602 36.2378886 26.6125522 36.0619753 26.6125522 35.8667667L26.6125522 22.9399209C26.6125522 22.7449378 26.4371602 22.5690495 26.2422523 22.5690495L23.9025575 22.5690495C23.7074745 22.5690495 23.5320575 22.7449378 23.5320575 22.9399209L23.5320575 35.8667667M35.8980721 36.4135513C37.5356483 36.4135513 39.329351 35.7299452 40.6551747 34.5779888 40.8308169 34.4411673 40.8500825 34.2068669 40.6942063 34.0507501L39.1539589 32.4106467C38.9980827 32.2738253 38.7834088 32.2738253 38.6275326 32.3908502 37.8866826 33.0744563 37.028988 33.3283027 36.0734642 33.3283027 33.9482431 33.3283027 32.2326036 31.5315814 32.2326036 29.3837853 32.2326036 27.255034 33.9680091 25.4979057 36.09298 25.4979057 36.6584379 25.4979057 37.2431615 25.5758388 37.8281352 25.8106405L37.8281352 26.943051 36.5998905 26.943051C36.3854668 26.943051 36.2295906 27.0989172 36.2295906 27.2943764L36.2295906 29.2276685C36.2295906 29.4424231 36.3854668 29.5985399 36.5998905 29.5985399L40.518564 29.5985399C40.7137221 29.5985399 40.8698485 29.4231278 40.8698485 29.2276685L40.8891141 23.9747772C40.8891141 23.8773984 40.8113011 23.7212566 40.7332379 23.6626188 40.7332379 23.6626188 38.7251116 22.3931362 35.8980721 22.3931362 32.01818 22.3931362 28.8986536 25.4786104 28.8986536 29.3837853 28.8986536 33.2892109 32.01818 36.4135513 35.8980721 36.4135513M11.019274 14.7689738L11.4472706 15.5260274C11.5201796 15.6444807 11.6931697 15.6262629 11.7568963 15.5806558 11.7934259 15.5623377 12.449157 15.0788769 13.0502187 15.0788769 13.4145638 15.0788769 13.6786527 15.3069627 13.6786527 15.6262629 13.6786527 16.009388 13.3598445 16.3012989 12.740593 16.5476777 11.9573337 16.8575808 10.9737371 17.4687668 10.9737371 18.5633384 10.9737371 19.4662347 11.67498 20.3783526 13.0775909 20.3783526 14.0246329 20.3783526 14.753348 19.8952677 15.0264192 19.6943206 15.1357827 19.6305958 15.117618 19.4662347 15.0811635 19.4026102L14.6167124 18.7001849C14.5529107 18.5999494 14.389003 18.5177312 14.3069865 18.5816564 14.2250952 18.6272636 13.5603068 19.1289172 13.0047819 19.1289172 12.6767663 19.1289172 12.4309672 18.9099527 12.4309672 18.6638746 12.4309672 18.3263566 12.7041385 18.0706809 13.4235711 17.7789706 14.1339964 17.4960809 15.263336 16.939799 15.263336 15.699084 15.263336 14.7596769 14.4527296 13.810973 13.1139454 13.810973 11.9299865 13.810973 11.2743556 14.3036305 11.0648109 14.5135988 10.9737371 14.6048131 10.9463649 14.6411484 11.019274 14.7689738M19.6901711 16.0913306L18.9980106 17.5966171 18.9889032 17.5966171 18.3057499 16.0913306 19.6901711 16.0913306zM15.9469897 14.1394698L18.7976483 20.2781171C18.8249204 20.3330211 18.888647 20.3783526 18.9523486 20.3783526L19.0435475 20.3783526C19.1072741 20.3783526 19.1710007 20.3330211 19.1983728 20.2781171L22.0490064 14.1394698C22.1036507 14.0209413 22.0306416 13.9023878 21.894106 13.9023878L20.8832123 13.9023878C20.7193296 13.9023878 20.6464205 13.9570161 20.5644041 14.1304736L20.2366137 14.8509163 17.7594075 14.8509163 17.4314919 14.1211768C17.3860551 14.0116194 17.2857739 13.9023878 17.1036014 13.9023878L16.1018151 13.9023878C15.9652795 13.9023878 15.8923705 14.0209413 15.9469897 14.1394698zM23.2062937 20.1140567C23.2062937 20.2051958 23.2792027 20.287414 23.3792838 20.287414L24.4631615 20.287414C24.5542603 20.287414 24.6361516 20.2051958 24.6361516 20.1140567L24.6361516 15.2430375 26.803707 15.2430375C26.9040383 15.2430375 26.9765971 15.1611201 26.9765971 15.0698807L26.9765971 14.0755446C26.9765971 13.9846059 26.9040383 13.9023878 26.803707 13.9023878L23.3792838 13.9023878C23.2792027 13.9023878 23.2062937 13.9846059 23.2062937 14.0755446L23.2062937 20.1140567M31.3398807 16.0913306L30.64757 17.5966171 30.6385627 17.5966171 29.9555095 16.0913306 31.3398807 16.0913306zM27.5965992 14.1394698L30.4471577 20.2781171C30.4744298 20.3330211 30.5382315 20.3783526 30.6020331 20.3783526L30.6931069 20.3783526C30.7569085 20.3783526 30.8207102 20.3330211 30.8479823 20.2781171L33.6985408 14.1394698C33.753085 14.0209413 33.680276 13.9023878 33.5436654 13.9023878L32.5328468 13.9023878C32.3689641 13.9023878 32.2959049 13.9570161 32.2140886 14.1304736L31.8863232 14.8509163 29.409067 14.8509163 29.0810513 14.1211768C29.0357647 14.0116194 28.9351832 13.9023878 28.7532859 13.9023878L27.7512244 13.9023878C27.614864 13.9023878 27.5418048 14.0209413 27.5965992 14.1394698zM36.9051377 15.2523344C37.9342211 15.2523344 38.6810759 16.0642169 38.6810759 17.1039597 38.6810759 18.1346061 37.9342211 18.9465637 36.9051377 18.9465637L36.0309297 18.9465637 36.0309297 15.2523344 36.9051377 15.2523344zM34.610029 20.1140567C34.610029 20.2051958 34.682838 20.287414 34.7739117 20.287414L36.9962115 20.287414C38.7538849 20.287414 40.1928002 18.8553244 40.1928002 17.1039597 40.1928002 15.3342769 38.7538849 13.9023878 36.9962115 13.9023878L34.7739117 13.9023878C34.682838 13.9023878 34.610029 13.9846059 34.610029 14.0755446L34.610029 20.1140567z"/>
    </g>
  </g>
</svg>
