<svg xmlns="http://www.w3.org/2000/svg" width="30" height="22" viewBox="0 0 30 22">
  <path fill="#3884FF" fill-rule="evenodd" d="M13.4965259,18.3288737 C13.9802452,18.3288737 14.3737602,18.729282 14.3737602,19.2212669 C14.3737602,19.7132518 13.9802452,20.1136601 13.4965259,20.1136601 C13.0130109,20.1136601 12.6194959,19.7132518 12.6194959,19.2212669 C12.6194959,18.729282 13.0130109,18.3288737 13.4965259,18.3288737 M27.2715124,12.8009267 C26.7877929,12.8009267 26.3942781,12.4004767 26.3942781,11.9084919 C26.3942781,11.416299 26.7877929,11.0158907 27.2715124,11.0158907 C27.7550272,11.0158907 28.1485423,11.416299 28.1485423,11.9084919 C28.1485423,12.4004767 27.7550272,12.8009267 27.2715124,12.8009267 M27.2715124,9.1446431 C25.773801,9.1446431 24.5552452,10.3845448 24.5552452,11.9084919 C24.5552452,12.2052631 24.6036784,12.5007452 24.6992781,12.7879512 L15.7261716,17.6480382 C15.216376,16.9005372 14.3900681,16.4574182 13.4965259,16.4574182 C12.4612398,16.4574182 11.5173842,17.0600684 11.0608038,18.0023671 L2.99942781,13.6780155 C2.14786102,13.2223785 1.51025885,11.7950817 1.5779019,10.4960836 C1.61297002,9.81845029 1.84324251,9.29248808 2.19355586,9.08941438 C2.41610353,8.96086617 2.68377385,8.9721365 2.96746594,9.12339167 L3.02133515,9.15229527 C5.15705722,10.2972518 12.1478747,14.0438227 12.44203,14.1829342 C12.8963215,14.3966544 13.1489101,14.4833236 13.9226158,14.1100722 L28.3731745,6.46297201 C28.584891,6.38162608 28.8318801,6.17514215 28.8318801,5.86156937 C28.8318801,5.42655994 28.389891,5.255093 28.3886241,5.255093 C27.5671389,4.85406086 26.3034604,4.25224234 25.0712944,3.66531229 C22.4376703,2.41052212 19.4525068,0.988340645 18.1414169,0.289871828 C17.009673,-0.31298639 16.0986376,0.195134593 15.9362125,0.297939878 L15.6205586,0.456847251 C9.72053134,3.4256828 1.82468665,7.40464688 1.37517711,7.68291152 C0.570163496,8.18130095 0.0716484911,9.17417051 0.00711171509,10.4068775 C-0.0937193533,12.3609682 0.88606268,14.3979437 2.28645776,15.1454446 L10.8105041,19.6185146 C11.0025613,20.971868 12.1474659,21.9851573 13.4965259,21.9851573 C14.9804632,21.9851573 16.1902725,20.7679626 16.2126294,19.2633539 L25.6009538,14.0862839 C26.0769484,14.4648586 26.6671389,14.6723822 27.2715124,14.6723822 C28.7692234,14.6723822 29.9878201,13.432439 29.9878201,11.9084919 C29.9878201,10.3845448 28.7692234,9.1446431 27.2715124,9.1446431"/>
</svg>
