<svg xmlns="http://www.w3.org/2000/svg" width="30" height="30" viewBox="0 0 30 30">
  <path fill="#161514" fill-rule="evenodd" d="M26,41.3674109 C26,47.9359042 30.2975536,53.5077607 36.2581417,55.4736541 C37.0086252,55.6105548 37.2821142,55.1514812 37.2821142,54.7572074 C37.2821142,54.4049163 37.2692225,53.4694285 37.2618558,52.2291086 C33.0895362,53.1271769 32.2092145,50.2358351 32.2092145,50.2358351 C31.5268731,48.5181883 30.5434175,48.0609401 30.5434175,48.0609401 C29.1814973,47.1391424 30.6465515,47.1573958 30.6465515,47.1573958 C32.1521225,47.262353 32.9440437,48.6897704 32.9440437,48.6897704 C34.2820222,50.9614086 36.4552012,50.3051981 37.3097394,49.9246143 C37.4460235,48.9644844 37.8336966,48.3091866 38.2618865,47.9377295 C34.9312134,47.5626217 31.4292642,46.2867076 31.4292642,40.5898152 C31.4292642,38.9670861 32.0139967,37.6391498 32.9735105,36.6005301 C32.8188097,36.2245097 32.3040609,34.7122138 33.1208447,32.6660054 C33.1208447,32.6660054 34.3796311,32.2662555 37.2452807,34.190166 C38.44145,33.8597791 39.725099,33.6954983 41.0004604,33.6891096 C42.274901,33.6954983 43.5576291,33.8597791 44.7556401,34.190166 C47.6194481,32.2662555 48.8763928,32.6660054 48.8763928,32.6660054 C49.6950183,34.7122138 49.1802695,36.2245097 49.0264895,36.6005301 C49.9878449,37.6391498 50.5679732,38.9670861 50.5679732,40.5898152 C50.5679732,46.3013104 47.0604991,47.5580584 43.7196967,47.9258648 C44.2574665,48.3849383 44.7372234,49.2921333 44.7372234,50.6793932 C44.7372234,52.6662781 44.7188066,54.269841 44.7188066,54.7572074 C44.7188066,55.1551319 44.9895331,55.6178561 45.7501458,55.4727414 C51.7061297,53.5022847 56,47.9340788 56,41.3674109 C56,33.1561097 49.2834034,26.5 40.9986187,26.5 C32.7165966,26.5 26,33.1561097 26,41.3674109 Z" transform="translate(-26 -26)"/>
</svg>
