<svg xmlns="http://www.w3.org/2000/svg" width="30" height="28" viewBox="0 0 30 28">
  <g fill="none" transform="matrix(1 0 0 -1 .04 27.96)">
    <path fill="#FC6D26" d="M29.7580638,11.9270603 L28.091209,17.1235823 L24.7877413,27.4227622 C24.6178219,27.9526178 23.8777414,27.9526178 23.7077413,27.4227622 L20.404193,17.1235823 L9.43443526,17.1235823 L6.13080629,27.4227622 C5.96088695,27.9526178 5.22080632,27.9526178 5.05080633,27.4227622 L1.74733867,17.1235823 L0.0805645143,11.9270603 C-0.0715322565,11.4530821 0.0950806427,10.9338466 0.493064504,10.6408983 L14.9192738,0.0236090439 L29.3455638,10.6408983 C29.7435477,10.9338466 29.9100799,11.4530821 29.7580638,11.9270603" transform="translate(.032 .047)"/>
    <polygon fill="#E24329" points="5.504 0 5.504 0 10.989 17.1 .019 17.1" transform="translate(9.447 .071)"/>
    <polygon fill="#FC6D26" points="13.226 0 7.741 17.1 .054 17.1" transform="translate(1.726 .071)"/>
    <path fill="#FCA326" d="M1.7741935,17.1553606 L0.107338707,11.9588385 C-0.0446774182,11.4848604 0.121854836,10.9656248 0.519919342,10.6727583 L14.9461286,0.0554689994 L1.7741935,17.1553606 Z" transform="translate(.005 .016)"/>
    <path fill="#E24329" d="M0,0 L7.68701595,0 L4.38346763,10.2991799 C4.21346764,10.8291171 3.47338701,10.8291171 3.30346766,10.2991799 L0,0 Z" transform="translate(1.78 17.171)"/>
    <polygon fill="#FC6D26" points="0 0 5.485 17.1 13.172 17.1" transform="translate(14.951 .071)"/>
    <path fill="#FCA326" d="M13.2258061,17.1553606 L14.8926609,11.9588385 C15.044677,11.4848604 14.8781448,10.9656248 14.4800803,10.6727583 L0.0538709664,0.0554689994 L13.2258061,17.1553606 Z" transform="translate(14.898 .016)"/>
    <path fill="#E24329" d="M7.7419353,0 L0.0549193534,0 L3.35846766,10.2991799 C3.52846766,10.8291171 4.26854828,10.8291171 4.43846763,10.2991799 L7.7419353,0 Z" transform="translate(20.381 17.171)"/>
  </g>
</svg>
