<svg xmlns="http://www.w3.org/2000/svg" width="24" height="24" viewBox="0 0 24 24">
  <path fill="#212529" fill-rule="evenodd" d="M23.166,10.228 L23.166,21.12 C23.166,22.25 22.251,23.166 21.12,23.166 L2.046,23.166 C1.50328573,23.1662655 0.982723376,22.9507906 0.598966388,22.5670336 C0.2152094,22.1832766 -0.000265450902,21.6627143 1.58818678e-22,21.12 L1.58818678e-22,2.046 C1.58818678e-22,0.916 0.915,0 2.046,0 L21.12,0 C22.25,0 23.166,0.915 23.166,2.046 L23.166,4.154 L19.923,5.63 L19.923,3.475 L3.475,3.475 L3.475,19.923 L19.923,19.923 L19.923,12.05 L12.046,15.521 L12.046,12.133 L4.865,15.298 L4.865,14.199 L15.52,7.37 L15.52,10.194 L23.165,6.719 L23.165,10.229 L23.166,10.228 Z"/>
</svg>
