<svg xmlns="http://www.w3.org/2000/svg" width="34" height="30" viewBox="0 0 34 30">
  <defs>
    <linearGradient id="groove-a" x1="9.644%" x2="9.66%" y1="37.113%" y2="35.723%">
      <stop offset="0%" stop-color="#F3F0EF"/>
      <stop offset="100%" stop-color="#EDDCD1"/>
    </linearGradient>
  </defs>
  <g fill="none" fill-rule="evenodd">
    <path fill="#EFD4C7" fill-rule="nonzero" d="M33.1571429,12.7263923 C33.1571429,12.7263923 33.8,11.7820823 33.9,11.2300242 C34,10.6779661 33.9857143,10.3656174 33.7142857,9.84987893 C33.6142857,9.65375303 33.3285714,9.37772397 32.8428571,9.24697337 C32.5214286,9.1598063 32.1714286,9.14527845 31.8714286,8.99273608 C31.4357143,8.7748184 31.0285714,8.5496368 30.9857143,8.52784504 C30.9857143,8.52784504 30.1642857,7.75060533 29.1428571,7.64164649 C29.1428571,7.64164649 26.4071429,3.2905569 21.15,2.86198547 C21.15,2.86198547 14.2071429,1.77239709 9.61428571,9.19612591 C9.61428571,9.19612591 8.67857143,10.9539952 7.52142857,13.1186441 C6.32857143,15.3922518 4.8,16.6198547 3.91428571,17.1937046 C0.542857143,18.566586 -0.335714286,21.3268765 0.107142857,22.5690073 C0.578571429,23.8983051 1.82857143,24.8861985 2.81428571,25.7360775 C3.77857143,26.5714286 4.78571429,27.1380145 5.87142857,27.8062954 L5.95,27.8571429 C10.9857143,30.559322 17.1785714,30.4430993 21.7285714,28.4891041 C23.8142857,27.5956416 25.5928571,26.3171913 26.8428571,24.748184 C27.8928571,23.440678 28.4571429,22.0169492 28.6214286,20.535109 L28.6357143,20.5133172 C28.6357143,20.5133172 29.7142857,19.7651332 30.4071429,18.8861985 C31.1214286,17.9782082 31.4285714,16.8450363 31.4285714,16.8450363 C31.8428571,16.31477 32.1642857,15.7990315 32.4214286,15.3050847 C32.4214286,15.3050847 33.1928571,13.7651332 33.1571429,12.7263923 Z" opacity=".96"/>
    <path fill="#D6BCB2" fill-rule="nonzero" d="M18.8,16.0024213 C17.8857143,16.6053269 16.3714286,17.4987893 15.2428571,17.7021792 C14.8285714,17.7820823 14.4071429,17.8401937 13.9857143,17.8910412 C13.3714286,17.9636804 12.7571429,18.0145278 12.1428571,18.0363196 C11.5357143,18.0581114 10.9285714,18.0290557 10.3214286,18.0435835 C8.32142857,18.094431 5.12142857,17.3825666 3.16428571,18.1380145 C1.45714286,18.7990315 -0.278571429,21.5956416 0.957142857,22.6634383 C2.58571429,24.0726392 5.77142857,23.3099274 6.77142857,23.0338983 C16.2571429,20.0920097 20.4714286,14.7312349 20.4714286,14.7312349 C20.4714286,14.7312349 19.7142857,15.3922518 18.8,16.0024213 Z" opacity=".96"/>
    <path fill="url(#groove-a)" fill-rule="nonzero" d="M9.35571429,17.5205811 L9.33571429,17.5205811 L9.35571429,17.5205811 Z"/>
    <path fill="#D6BCB2" fill-rule="nonzero" d="M33.1571429 12.7263923C33.1857143 13.5108959 32.6785714 14.7457627 32.6785714 14.7457627 32.7857143 14.4697337 32.7428571 14.0121065 32.75 13.7142857 32.7642857 12.7845036 32.5785714 11.8619855 32.2928571 10.9903148 32.0285714 10.1912833 31.7142857 9.31234867 31.1285714 8.69491525 31.0928571 8.65859564 30.9285714 8.44794189 30.8714286 8.44794189 30.8714286 8.44794189 32.5214286 9.3559322 33.1642857 12.748184M30.7285714 18.4358354C30.9928571 17.9564165 31.3285714 17.433414 31.4357143 16.7941889 31.5928571 15.8135593 31.4285714 14.6731235 31.3071429 13.8595642 30.6357143 9.46489104 29.0428571 5.83292978 23.9142857 3.50847458 23.1785714 3.17433414 22.35 2.92736077 21.5357143 2.89104116L21.4571429 3.2251816C22.1214286 3.25423729 22.8428571 3.4503632 23.4714286 3.66828087 24.75 4.11864407 26.1642857 5.01210654 27.15 5.94915254 28.5857143 7.31476998 29.5071429 9.23970944 30.0642857 11.3099274 30.6357143 13.4455206 30.8142857 15.7409201 30.7714286 17.7530266 30.7428571 17.9854722 30.7357143 18.2179177 30.7285714 18.4358354z" opacity=".96"/>
    <path d="M20.7214286,14.5060533 C17,6.90072639 12.9071429,1.5472155 12.9071429,1.5472155 C12.3928571,0.973365617 12.0928571,1.01694915 12.0928571,1.01694915 C12.0928571,1.01694915 11.9928571,1.02421308 11.7357143,1.06779661 L11.5571429,1.11138015 C9.08571429,1.88861985 7.60714286,3.30508475 6.97857143,3.937046 C6.8,4.11864407 6.70714286,4.22760291 6.70714286,4.22760291 C6.70714286,4.22760291 6.48571429,4.44552058 6.64285714,5.20823245 C6.64285714,5.20823245 6.69285714,5.38256659 6.80714286,5.73123487 C7.12142857,6.69007264 7.48571429,7.62711864 7.87857143,8.55690073 C8.58571429,10.2493947 9.35714286,11.9200969 10.1928571,13.5544794 C11.4285714,15.9661017 12.2642857,17.5423729 13.6642857,19.8523002 M20.7214286,14.5060533 C17,6.90072639 12.9071429,1.5472155 12.9071429,1.5472155 C12.3928571,0.973365617 12.0928571,1.01694915 12.0928571,1.01694915 C12.0928571,1.01694915 11.9928571,1.02421308 11.7357143,1.06779661 L11.5571429,1.11138015 C9.08571429,1.88861985 7.60714286,3.30508475 6.97857143,3.937046 C6.8,4.11864407 6.70714286,4.22760291 6.70714286,4.22760291 C6.70714286,4.22760291 6.48571429,4.44552058 6.64285714,5.20823245 C6.64285714,5.20823245 6.69285714,5.38256659 6.80714286,5.73123487 C7.12142857,6.69007264 7.48571429,7.62711864 7.87857143,8.55690073 C8.58571429,10.2493947 9.35714286,11.9200969 10.1928571,13.5544794 C11.4285714,15.9661017 12.2642857,17.5423729 13.6642857,19.8523002"/>
    <path fill="#D6BCB2" fill-rule="nonzero" d="M21.4428571,14.1719128 C23.0428571,12.5084746 23.5,10.3220339 23.5,10.3220339 C22.95,11.346247 21.8928571,12.283293 21.3,12.7191283 L21.4428571,14.1719128 Z" opacity=".96"/>
    <path fill="#D1749E" fill-rule="nonzero" d="M8.47142857,9.95157385 C8.27857143,9.87893462 8.02857143,9.79176755 7.82142857,9.72639225 C8.42857143,11.1210654 9.07142857,12.4939467 9.76428571,13.8450363 C10.9857143,16.2348668 11.8142857,17.8038741 13.1928571,20.0847458 L13.65,19.8377724 C10.9642857,15.4213075 9.55,12.2324455 8.47142857,9.95157385 Z"/>
    <path fill="#4BC6E7" fill-rule="nonzero" d="M17.3,17.4043584 C19.2,15.9443099 20.7285714,14.5133172 20.7285714,14.5133172 C17,6.90072639 12.9071429,1.5472155 12.9071429,1.5472155 C12.3928571,0.973365617 12.0928571,1.01694915 12.0928571,1.01694915 C12.0928571,1.01694915 11.9928571,1.02421308 11.7357143,1.06779661 L11.5571429,1.11138015 C9.08571429,1.88861985 7.60714286,3.30508475 6.97857143,3.937046 C6.8,4.11864407 6.70714286,4.22760291 6.70714286,4.22760291 C6.70714286,4.22760291 6.48571429,4.44552058 6.64285714,5.20823245 C6.64285714,5.20823245 6.69285714,5.38256659 6.80714286,5.73123487 C7.12142857,6.69007264 7.48571429,7.62711864 7.87857143,8.55690073 C8.58571429,10.2493947 9.35714286,11.9200969 10.1928571,13.5544794 C11.4285714,15.9661017 12.2642857,17.5423729 13.6642857,19.8523002 C13.6571429,19.8523002 15.9642857,18.4866828 17.3,17.4043584 Z"/>
    <path fill="#D6BCB2" fill-rule="nonzero" d="M23.5714286,10.4309927 C30.2,17.622276 29.7928571,28.5835351 13.6785714,29.9200969 C21.75,30.1815981 27.2785714,25.7651332 28.2642857,22.1694915 C29.65,17.1065375 25.3571429,11.905569 23.5714286,10.4309927 Z" opacity=".96"/>
    <path fill="#C15988" fill-rule="nonzero" d="M5.94285714,15.5447942 C4.65,17.0484262 3.35714286,17.4479419 3.35714286,17.4479419 C2.10714286,15.9588378 1.01428571,14.5786925 1.24285714,13.0532688 C1.6,10.7360775 3.87857143,10.409201 3.87857143,10.409201 C4.82142857,9.58837772 5.05,10.0968523 5.05,10.0968523 C13.1,11.5932203 5.94285714,15.5447942 5.94285714,15.5447942 Z"/>
    <path fill="#F180AF" fill-rule="nonzero" d="M7.82142857,9.72639225 C6.92142857,9.43583535 5.91428571,9.20338983 5.03571429,9.02179177 C3.6,8.71670702 2.36428571,9.79903148 1.47142857,11.7312349 C1.12142857,12.4866828 1.01428571,13.1622276 1.12857143,13.9249395 C1.2,14.4261501 1.58571429,15.0799031 1.97142857,15.6464891 C1.27857143,14.5496368 0.935714286,13.5399516 2.07142857,13.7215496 C2.07142857,13.7215496 5.64285714,14.4188862 11.9857143,20.7530266 L13.1857143,20.0920097 C11.8071429,17.811138 10.9785714,16.2421308 9.75714286,13.8523002 C9.07142857,12.4939467 8.42142857,11.1138015 7.82142857,9.72639225 Z"/>
    <path fill="#85D3E0" fill-rule="nonzero" d="M23.9428571,3.50121065 C23.9428571,3.50121065 23.1357143,3.19612591 22.7071429,3.10169492 C22.2785714,3.00726392 21.5214286,2.89104116 21.5214286,2.89104116 C21.0357143,4.68523002 20.7571429,7.968523 21.4428571,14.1719128 C21.4428571,14.1719128 18.5714286,16.7506053 14.9785714,19.031477 C14.9785714,19.031477 13.65,9.40677966 16.9571429,2.72397094 C16.9571429,2.72397094 17.7142857,1.00968523 19.0857143,0.370460048 C19.0857143,0.370460048 22.9928571,-1.01694915 23.8,2.11380145 C24.0142857,2.95641646 24.0357143,3.53753027 24.0357143,3.53753027 L23.9428571,3.50121065 Z"/>
    <path fill="#46B9D3" fill-rule="nonzero" d="M15.5714286,5.41162228 C13.5357143,11.7675545 14.5714286,19.2711864 14.5714286,19.2711864 C15.5785714,18.6319613 16.5285714,17.9709443 17.3714286,17.346247 C19.2428571,15.9079903 20.7285714,14.5060533 20.7285714,14.5060533 C18.9285714,10.8305085 17.0428571,7.68523002 15.5714286,5.41162228 Z"/>
    <path fill="#98E6F9" fill-rule="nonzero" d="M24.0642857,3.55205811 C24.0642857,3.55205811 24.0428571,2.91283293 23.8214286,2.07021792 C23.0142857,-1.06053269 19.1071429,0.326876513 19.1071429,0.326876513 C17.7357143,0.966101695 16.9785714,2.68038741 16.9785714,2.68038741 C13.6714286,9.36319613 15,18.9878935 15,18.9878935 C18.5928571,16.7070218 21.45,14.1283293 21.45,14.1283293 C20.0714286,1.72154964 22.4214286,0.588377724 23.1428571,1.04600484 C23.8642857,1.50363196 23.9785714,3.5157385 23.9785714,3.5157385 L24.0642857,3.55205811 Z"/>
  </g>
</svg>
