<svg xmlns="http://www.w3.org/2000/svg" width="44" height="10" viewBox="0 0 44 10">
  <g fill="#E92D35" transform="matrix(1 0 0 -1 .117 9.864)">
    <path d="M5.18187247,9.26252935 L3.67135664,9.26252935 C3.58779895,9.26252935 3.52043461,9.19339119 3.52043461,9.1080436 L3.52043461,5.69579394 L1.98886743,5.69579394 L1.98886743,9.1080436 C1.98886743,9.19339119 1.92117922,9.26252935 1.83794539,9.26252935 L0.327429567,9.26252935 C0.243871873,9.26252935 0.176507531,9.19339119 0.176507531,9.1080436 L0.176507531,0.316249217 C0.176507531,0.230901625 0.243871873,0.162094264 0.327429567,0.162094264 L1.83794539,0.162094264 C1.92117922,0.162094264 1.98886743,0.230901625 1.98886743,0.316249217 L1.98886743,3.84891175 L3.52043461,3.84891175 L3.52043461,0.316249217 C3.52043461,0.230901625 3.58779895,0.162094264 3.67135664,0.162094264 L5.18187247,0.162094264 C5.26543016,0.162094264 5.3327945,0.230901625 5.3327945,0.316249217 L5.3327945,9.1080436 C5.3327945,9.19339119 5.26543016,9.26252935 5.18187247,9.26252935" transform="translate(25.256 .2)"/>
    <path d="M5.18187247,9.26252935 L4.43924537,9.26252935 L3.63670287,9.26252935 C3.55314518,9.26252935 3.48545697,9.2016613 3.48545697,9.12689946 L3.48545697,5.04377804 L3.48545697,2.86179077 L3.4851331,2.85219743 C3.4851331,2.55414247 3.41712103,2.31695556 3.28304008,2.14659118 C3.15835127,1.98879737 2.99220748,1.9117199 2.77554044,1.9117199 C2.55854953,1.9117199 2.39272961,1.98879737 2.26804081,2.14659118 C2.13363599,2.31695556 2.06594778,2.55414247 2.06594778,2.85219743 L2.06562391,2.86179077 L2.06270911,5.04377804 L2.06270911,9.12689946 C2.06270911,9.2016613 1.9950209,9.26252935 1.91178707,9.26252935 L1.0736192,9.26252935 L0.369208413,9.26252935 C0.28565072,9.26252935 0.217962511,9.2016613 0.217962511,9.12689946 L0.217962511,5.04377804 L0.217962511,2.8353264 C0.217962511,2.00633002 0.414549797,1.27161296 0.876708048,0.77408281 C1.34566751,0.269605765 2.00959492,0.0162094264 2.77554044,0.0162094264 C3.5411621,0.0162094264 4.20541338,0.269605765 4.67437283,0.77408281 C5.13653108,1.27161296 5.33311837,2.00633002 5.33311837,2.8353264 L5.33311837,5.04377804 L5.33311837,9.12689946 C5.33311837,9.2016613 5.26543016,9.26252935 5.18187247,9.26252935" transform="translate(12.42 .2)"/>
    <path d="M2.59093623,9.47839145 C1.82499071,9.47839145 1.1610633,9.22532591 0.692103842,8.72051806 C0.229945591,8.22298791 0.033358304,7.48827085 0.033358304,6.65927448 L0.033358304,5.11210127 L0.033358304,3.26356505 L0.033358304,3.03233262 L0.033358304,2.90398043 C0.033358304,2.07498405 0.229945591,1.34026699 0.692103842,0.842736846 C1.1610633,0.337928996 1.82499071,0.0848634616 2.59093623,0.0848634616 C3.35655789,0.0848634616 4.02080917,0.337928996 4.48976863,0.842736846 C4.95192688,1.34026699 5.14851416,2.07498405 5.14851416,2.90398043 L5.14851416,3.26356505 L5.14851416,3.36247563 L5.14851416,4.54907181 L5.14851416,4.96952448 C5.14851416,5.0571877 5.07888275,5.12797989 4.99338186,5.12797989 L2.74995495,5.12797989 C2.66445405,5.12797989 2.58899303,5.0571877 2.58899303,4.96952448 L2.58899303,3.43657587 C2.58899303,3.34891265 2.66445405,3.27812046 2.74995495,3.27812046 L3.3358304,3.27812046 L3.3358304,3.24206275 L3.3358304,2.9304448 C3.3358304,2.6155188 3.26457966,2.3647689 3.1236975,2.18481119 C2.99253135,2.01775486 2.81861476,1.93637692 2.59093623,1.93637692 C2.36325771,1.93637692 2.18934112,2.01775486 2.05817497,2.18481119 C1.91761668,2.3647689 1.84021246,2.6155188 1.84021246,2.9304448 L1.84021246,3.26356505 L1.84021246,5.11210127 L1.84021246,6.64174183 C1.84021246,6.95666783 1.91761668,7.20741773 2.05817497,7.38737544 C2.18934112,7.55443178 2.36325771,7.63250167 2.59093623,7.63250167 C2.81861476,7.63250167 2.99253135,7.55443178 3.1236975,7.38737544 C3.26425579,7.20741773 3.3358304,6.95666783 3.3358304,6.64174183 L3.33550653,6.29340457 C3.33550653,6.21864272 3.40319474,6.15777467 3.48675244,6.15777467 L4.99726826,6.15777467 C5.08082596,6.15777467 5.14851416,6.21864272 5.14851416,6.29340457 L5.14851416,6.65927448 C5.14851416,7.48827085 4.95192688,8.22298791 4.48976863,8.72051806 C4.02080917,9.22532591 3.35655789,9.47839145 2.59093623,9.47839145" transform="translate(.065 .131)"/>
    <path d="M4.53413841,4.9620693 C4.81655046,5.21778127 5.26445856,5.8714512 5.26445856,6.66703631 C5.26445856,7.59527407 4.92051178,8.19039158 4.63129852,8.52715068 C4.16849253,9.065039 3.50456512,9.36110913 2.76096642,9.36110913 L1.35182098,9.36210154 L0.344594519,9.36210154 C0.261360693,9.36210154 0.193672484,9.29296338 0.193672484,9.20761579 L0.193672484,0.415821407 C0.193672484,0.330473815 0.261360693,0.26133565 0.344594519,0.26133565 L1.26761555,0.26133565 L2.86622321,0.26133565 C3.6580781,0.26133565 4.38548344,0.590155442 4.85703384,1.18825019 C5.12940601,1.53394102 5.4221818,2.13898267 5.4221818,3.05795791 C5.4221818,4.11785591 4.78319216,4.76226331 4.53413841,4.9620693 Z M1.99566863,7.50992648 L2.76096642,7.50992648 C2.98508241,7.50992648 3.15155006,7.44310395 3.26976153,7.30515842 C3.3908878,7.16423565 3.45209867,6.94954345 3.45209867,6.66703631 C3.45209867,6.37427422 3.38862073,6.14965788 3.26328419,5.99914178 C3.14118632,5.85325694 2.97698573,5.78213395 2.76096642,5.78213395 L1.99566863,5.78213395 L1.99566863,7.50992648 Z M3.41323462,2.348382 C3.28789808,2.18959578 3.10879961,2.1121875 2.86589934,2.1121875 L1.99566863,2.1121875 L1.99566863,3.98950371 L2.86589934,3.98950371 C3.0951972,3.98950371 3.271057,3.909449 3.40351861,3.74536991 C3.5421337,3.57268989 3.60982191,3.34807356 3.60982191,3.05795791 C3.60982191,2.75262524 3.54342917,2.51411511 3.41323462,2.348382 Z" transform="translate(18.893 .1)"/>
    <path d="M4.21027138,3.96965544 L4.20929978,3.97064785 C4.36475595,4.08378303 4.50887678,4.21445086 4.63777586,4.36397454 C4.94868821,4.72388997 5.31886822,5.35738082 5.31886822,6.3302772 C5.31886822,7.28001727 4.94901207,7.90854605 4.63680426,8.2707771 C4.17853241,8.80105691 3.5382473,9.10539716 2.82250116,9.14476291 L2.82250116,9.151379 L2.68647701,9.151379 C2.6796758,9.15170981 2.67319846,9.15237142 2.66672112,9.15237142 L2.66672112,9.151379 L0.273019906,9.151379 C0.189462212,9.151379 0.121774003,9.08257164 0.121774003,8.99722405 L0.121774003,0.20476806 C0.121774003,0.119420468 0.189462212,0.0506131068 0.273019906,0.0506131068 L1.78353573,0.0506131068 C1.86676956,0.0506131068 1.93445777,0.119420468 1.93445777,0.20476806 L1.93445777,3.48138782 L2.47402024,3.48138782 L3.43007571,0.161432654 C3.44918386,0.0956025351 3.50812766,0.0506131068 3.57516814,0.0506131068 L5.1796054,0.0506131068 C5.22753772,0.0506131068 5.27255524,0.0737694302 5.30105554,0.11313518 C5.32955583,0.15250093 5.33797638,0.203444841 5.32405009,0.250088293 L4.21027138,3.96965544 Z M3.27721047,5.58927486 C3.12887937,5.41725645 2.92937728,5.33356288 2.66672112,5.33356288 L1.93445777,5.33356288 L1.93445777,7.29986554 L2.66672112,7.29986554 C2.92905341,7.29986554 3.12887937,7.21650278 3.27721047,7.04481518 C3.43072344,6.8668423 3.50521286,6.63296343 3.50521286,6.3302772 C3.50521286,6.01369718 3.42845637,5.7642705 3.27721047,5.58927486 Z" transform="translate(6.25 .31)"/>
    <path d="M4.53413841,4.9620693 C4.81655046,5.21778127 5.26445856,5.8714512 5.26445856,6.66703631 C5.26445856,7.59527407 4.92051178,8.19039158 4.63129852,8.52715068 C4.16849253,9.065039 3.50456512,9.36110913 2.76096642,9.36110913 L1.35182098,9.36210154 L0.344594519,9.36210154 C0.261360693,9.36210154 0.193672484,9.29296338 0.193672484,9.20761579 L0.193672484,0.415821407 C0.193672484,0.330473815 0.261360693,0.26133565 0.344594519,0.26133565 L1.26761555,0.26133565 L2.86622321,0.26133565 C3.6580781,0.26133565 4.38548344,0.590155442 4.85703384,1.18825019 C5.12940601,1.53394102 5.4221818,2.13898267 5.4221818,3.05795791 C5.4221818,4.11785591 4.78319216,4.76226331 4.53413841,4.9620693 Z M1.99566863,7.50992648 L2.76096642,7.50992648 C2.98508241,7.50992648 3.15155006,7.44310395 3.26976153,7.30515842 C3.3908878,7.16423565 3.45209867,6.94954345 3.45209867,6.66703631 C3.45209867,6.37427422 3.38862073,6.14965788 3.26328419,5.99914178 C3.14118632,5.85325694 2.97698573,5.78213395 2.76096642,5.78213395 L1.99566863,5.78213395 L1.99566863,7.50992648 Z M3.41323462,2.348382 C3.28789808,2.18959578 3.10879961,2.1121875 2.86589934,2.1121875 L1.99566863,2.1121875 L1.99566863,3.98950371 L2.86589934,3.98950371 C3.0951972,3.98950371 3.271057,3.909449 3.40351861,3.74536991 C3.5421337,3.57268989 3.60982191,3.34807356 3.60982191,3.05795791 C3.60982191,2.75262524 3.54342917,2.51411511 3.41323462,2.348382 Z" transform="translate(38.187 .1)"/>
    <path d="M5.18187247,9.26252935 L4.43924537,9.26252935 L3.63670287,9.26252935 C3.55314518,9.26252935 3.48545697,9.2016613 3.48545697,9.12689946 L3.48545697,5.04377804 L3.48545697,2.86179077 L3.4851331,2.85219743 C3.4851331,2.55414247 3.41712103,2.31695556 3.28304008,2.14659118 C3.15835127,1.98879737 2.99220748,1.9117199 2.77554044,1.9117199 C2.55854953,1.9117199 2.39272961,1.98879737 2.26804081,2.14659118 C2.13363599,2.31695556 2.06594778,2.55414247 2.06594778,2.85219743 L2.06562391,2.86179077 L2.06270911,5.04377804 L2.06270911,9.12689946 C2.06270911,9.2016613 1.9950209,9.26252935 1.91178707,9.26252935 L1.0736192,9.26252935 L0.369208413,9.26252935 C0.28565072,9.26252935 0.217962511,9.2016613 0.217962511,9.12689946 L0.217962511,5.04377804 L0.217962511,2.8353264 C0.217962511,2.00633002 0.414549797,1.27161296 0.876708048,0.77408281 C1.34566751,0.269605765 2.00959492,0.0162094264 2.77554044,0.0162094264 C3.5411621,0.0162094264 4.20541338,0.269605765 4.67437283,0.77408281 C5.13653108,1.27161296 5.33311837,2.00633002 5.33311837,2.8353264 L5.33311837,5.04377804 L5.33311837,9.12689946 C5.33311837,9.2016613 5.26543016,9.26252935 5.18187247,9.26252935" transform="translate(31.704 .2)"/>
  </g>
</svg>
