<svg xmlns="http://www.w3.org/2000/svg" width="26" height="34" viewBox="0 0 26 34">
  <path fill="#00B6EF" d="M13.8666667,0 L8.18518519,0 C8.04074074,0 7.8962963,0.0485714286 7.8,0.145714286 C7.60740741,0.242857143 7.46296296,0.485714286 7.46296296,0.728571429 L7.46296296,32.3971429 L5.05555556,32.3971429 L5.05555556,0.728571429 C5.05555556,0.34 4.76666667,0.0485714286 4.38148148,0.0485714286 L0.674074074,0.0485714286 C0.288888889,0.0485714286 0,0.34 0,0.728571429 L0,33.0285714 C0,33.3685714 0.240740741,33.7085714 0.625925926,33.7571429 C1.01111111,33.8057143 1.34814815,33.4657143 1.34814815,33.0771429 L1.34814815,1.40857143 L3.70740741,1.40857143 L3.70740741,33.0285714 C3.70740741,33.4171429 3.9962963,33.7085714 4.38148148,33.7085714 L8.13703704,33.7085714 C8.52222222,33.7085714 8.81111111,33.4171429 8.81111111,33.0285714 L8.81111111,1.89428571 C8.81111111,1.60285714 9.05185185,1.36 9.34074074,1.36 L13.8666667,1.36 C19.837037,1.36 24.4592593,6.16857143 24.4592593,12.2885714 C24.4592593,18.4085714 19.7888889,23.2171429 13.8666667,23.2171429 L12.5666667,23.2171429 L12.5666667,21.1771429 L13.1925926,21.1771429 C18.0074074,21.1771429 21.9074074,17.2914286 22.0037037,12.4828571 C22.0518519,7.48 17.9111111,3.4 13,3.4 L11.8444444,3.4 C11.4592593,3.4 11.1703704,3.69142857 11.1703704,4.08 L11.1703704,7.67428571 C11.1703704,7.91714286 11.3148148,8.11142857 11.5074074,8.25714286 C11.6037037,8.35428571 11.7962963,8.40285714 11.9407407,8.40285714 L12.6148148,8.40285714 C14.5888889,8.40285714 16.2740741,9.95714286 16.3703704,11.9485714 C16.4666667,14.0371429 14.7814815,15.7857143 12.7111111,15.7857143 L11.8925926,15.7857143 C11.5555556,15.7857143 11.2185185,16.0285714 11.1703704,16.4171429 C11.1222222,16.8057143 11.4592593,17.1457143 11.8444444,17.1457143 L12.5666667,17.1457143 C15.3111111,17.1457143 17.5740741,15.0085714 17.6703704,12.24 C17.7666667,9.37428571 15.4555556,7.04285714 12.662963,7.04285714 L12.4703704,7.04285714 L12.4703704,4.80857143 L12.9518519,4.80857143 C17.0925926,4.80857143 20.6074074,8.25714286 20.5111111,12.4342857 C20.462963,16.5142857 17.1407407,19.8171429 13.0481481,19.8171429 L11.7481481,19.8171429 C11.362963,19.8171429 11.0740741,20.1085714 11.0740741,20.4971429 L11.0740741,23.8971429 C11.0740741,24.2857143 11.362963,24.5771429 11.7481481,24.5771429 L13.7222222,24.5771429 C20.4148148,24.5771429 25.7111111,19.1857143 25.7111111,12.2885714 C25.8555556,5.39142857 20.5592593,0 13.8666667,0 Z"/>
</svg>
