<svg xmlns="http://www.w3.org/2000/svg" width="50" height="50" viewBox="0 0 50 50">
  <g fill="none" fill-rule="evenodd">
    <circle cx="25" cy="25" r="25" fill="#EF4B3B"/>
    <g fill="#FFF" fill-rule="nonzero" transform="translate(7 22)">
      <polygon points="4.122 5.763 4.122 3.485 1.579 3.485 1.579 5.763 0 5.763 0 .094 1.579 .094 1.579 2.21 4.122 2.21 4.122 .094 5.7 .094 5.7 5.763"/>
      <path d="M11.63988,5.76266667 L11.33712,4.94666667 L8.92296,4.94666667 L8.61984,5.76266667 L6.82992,5.76266667 L9.13392,0.0936666667 L11.11644,0.0936666667 L13.4298,5.76266667 L11.63988,5.76266667 Z M10.125,1.53833333 L9.34488,3.672 L10.90548,3.672 L10.125,1.53833333 Z"/>
      <polygon points="18.72 5.763 16.138 2.482 16.138 5.763 14.559 5.763 14.559 .094 16.183 .094 18.662 3.213 18.662 .094 20.241 .094 20.241 5.763"/>
      <polygon points="26.193 5.763 23.609 2.482 23.609 5.763 22.031 5.763 22.031 .094 23.656 .094 26.134 3.213 26.134 .094 27.714 .094 27.714 5.763"/>
      <path d="M32.46804,5.865 C31.9968,5.865 31.56228,5.79266667 31.16448,5.648 C30.76668,5.50333333 30.42108,5.30266667 30.12732,5.04466667 C29.8332,4.78666667 29.60424,4.47833333 29.43828,4.118 C29.27376,3.75866667 29.1906,3.363 29.1906,2.93233333 C29.1906,2.502 29.27376,2.10633333 29.43828,1.74666667 C29.60424,1.387 29.8332,1.07833333 30.12732,0.820333333 C30.42072,0.562666667 30.76632,0.361333333 31.16448,0.216666667 C31.56228,0.0723333333 31.9968,0 32.46804,0 C32.9328,0 33.36588,0.0723333333 33.76656,0.216666667 C34.16796,0.361333333 34.5132,0.562333333 34.80444,0.820333333 C35.09496,1.07833333 35.32248,1.387 35.48772,1.74666667 C35.65296,2.10633333 35.73576,2.502 35.73576,2.93233333 C35.73576,3.363 35.65296,3.75833333 35.48772,4.118 C35.32248,4.47833333 35.0946,4.78666667 34.80444,5.04466667 C34.5132,5.30233333 34.16796,5.50333333 33.76656,5.648 C33.36588,5.79266667 32.9328,5.865 32.46804,5.865 Z M32.46804,4.57333333 C32.7186,4.57333333 32.94684,4.53066667 33.15204,4.44566667 C33.35652,4.36033333 33.53148,4.24433333 33.67476,4.097 C33.8184,3.95 33.93036,3.777 34.00992,3.57833333 C34.08948,3.38 34.12944,3.165 34.12944,2.93233333 C34.12944,2.70033333 34.08948,2.48466667 34.00992,2.286 C33.93036,2.088 33.81876,1.91533333 33.67476,1.768 C33.53148,1.62033333 33.35652,1.50433333 33.15204,1.41933333 C32.94684,1.334 32.7186,1.29166667 32.46804,1.29166667 C32.21064,1.29166667 31.97988,1.334 31.77504,1.41933333 C31.56984,1.50433333 31.39488,1.62033333 31.2516,1.768 C31.10796,1.915 30.996,2.088 30.9168,2.286 C30.83652,2.48466667 30.79728,2.7 30.79728,2.93233333 C30.79728,3.165 30.83652,3.38033333 30.9168,3.57833333 C30.996,3.777 31.1076,3.94966667 31.2516,4.097 C31.39488,4.24433333 31.56984,4.36033333 31.77504,4.44566667 C31.97952,4.53066667 32.21064,4.57333333 32.46804,4.57333333 Z"/>
    </g>
  </g>
</svg>
