<svg xmlns="http://www.w3.org/2000/svg" width="44" height="8" viewBox="0 0 44 8">
  <path fill="#F36C00" d="M0,7.71428571 L0,0.285714286 L1.48689655,0.285714286 L1.48689655,3.25714286 L3.61103448,3.25714286 L3.61103448,0.285714286 L5.09793103,0.285714286 L5.09793103,7.71428571 L3.61103448,7.71428571 L3.61103448,4.51428571 L1.48689655,4.51428571 L1.48689655,7.71428571 L0,7.71428571 Z M6.52413793,7.71428571 L8.4662069,0.285714286 L10.377931,0.285714286 L12.2593103,7.71428571 L10.8331034,7.71428571 L10.4689655,6.14285714 L8.40551724,6.14285714 L7.98068966,7.71428571 L6.52413793,7.71428571 Z M8.67862069,4.88571429 L10.1655172,4.88571429 L9.43724138,1.88571429 L9.40689655,1.88571429 L8.67862069,4.88571429 Z M17.1448276,7.71428571 L15.84,4.68571429 L15.1117241,4.68571429 L15.1117241,7.71428571 L13.6248276,7.71428571 L13.6248276,0.285714286 L15.7793103,0.285714286 C17.5696552,0.285714286 18.4193103,1.11428571 18.4193103,2.51428571 C18.4193103,3.42857143 18.0855172,4.11428571 17.2358621,4.4 L18.7227586,7.71428571 L17.1448276,7.71428571 Z M15.1117241,3.51428571 L15.8703448,3.51428571 C16.537931,3.51428571 16.9324138,3.2 16.9324138,2.48571429 C16.9324138,1.77142857 16.537931,1.45714286 15.8703448,1.45714286 L15.1117241,1.45714286 L15.1117241,3.51428571 Z M19.6634483,0.285714286 L21.1503448,0.285714286 L22.5158621,5.6 L22.5462069,5.6 L23.9117241,0.285714286 L25.3682759,0.285714286 L23.3655172,7.71428571 L21.6662069,7.71428571 L19.6634483,0.285714286 Z M26.7641379,7.71428571 L26.7641379,0.285714286 L30.8606897,0.285714286 L30.8606897,1.54285714 L28.2510345,1.54285714 L28.2510345,3.25714286 L30.2234483,3.25714286 L30.2234483,4.51428571 L28.2510345,4.51428571 L28.2510345,6.45714286 L30.9517241,6.45714286 L30.9517241,7.71428571 L26.7641379,7.71428571 Z M35.9889655,2.37142857 C35.7462069,1.68571429 35.4124138,1.37142857 34.8965517,1.37142857 C34.3806897,1.37142857 34.0772414,1.68571429 34.0772414,2.17142857 C34.0772414,3.28571429 37.4151724,3.37142857 37.4151724,5.65714286 C37.4151724,6.91428571 36.5048276,7.77142857 34.9268966,7.77142857 C33.7131034,7.77142857 32.7724138,7.14285714 32.377931,5.71428571 L33.8648276,5.42857143 C34.0468966,6.31428571 34.5931034,6.62857143 35.017931,6.62857143 C35.5337931,6.62857143 35.9282759,6.31428571 35.9282759,5.74285714 C35.9282759,4.34285714 32.5903448,4.34285714 32.5903448,2.28571429 C32.5903448,1.02857143 33.3793103,0.228571429 34.9268966,0.228571429 C36.262069,0.228571429 37.0813793,0.971428571 37.3241379,2 L35.9889655,2.37142857 Z M43.7875862,0.285714286 L43.7875862,1.54285714 L42.057931,1.54285714 L42.057931,7.71428571 L40.5710345,7.71428571 L40.5710345,1.54285714 L38.8413793,1.54285714 L38.8413793,0.285714286 L43.7875862,0.285714286 Z"/>
</svg>
