<svg xmlns="http://www.w3.org/2000/svg" width="28" height="34" viewBox="0 0 28 34">
  <path fill="#3197D6" d="M2.02123142,19.8971831 L11.9014862,9.94859155 C13.1796178,8.67359155 13.9762208,6.90176056 13.9762208,4.95035211 C13.9762208,3.02288732 13.203397,1.275 11.9549894,0 L2.07473461,9.94859155 C0.790658174,11.2235915 0,12.9894366 0,14.946831 C0,16.8742958 0.772823779,18.6221831 2.02123142,19.8971831 Z M25.9312102,14.0609155 L16.0509554,24.009507 C14.7728238,25.284507 13.9762208,27.056338 13.9762208,29.0077465 C13.9762208,30.9352113 14.7490446,32.6830986 15.9974522,33.9580986 L25.877707,24.009507 C27.1558386,22.734507 27.9524416,20.9626761 27.9524416,19.0112676 C27.9524416,17.0838028 27.1796178,15.3359155 25.9312102,14.0609155 Z M25.8717622,9.94859155 C27.1498938,8.67359155 27.940552,6.90774648 27.940552,4.95035211 C27.940552,3.02288732 27.1677282,1.275 25.9193206,0.00598591549 L2.07473461,24.015493 C0.796602972,25.290493 0,27.0623239 0,29.0137324 C0,30.9411972 0.772823779,32.6890845 2.02123142,33.9580986 L25.8717622,9.94859155 Z"/>
</svg>
