<svg xmlns="http://www.w3.org/2000/svg" width="22" height="24" viewBox="0 0 22 24">
  <path fill="#430098" d="M19.7388889,0 L2.2,0 C0.977777778,0 0,0.96 0,2.16 L0,21.84 C0,23.04 0.977777778,24 2.2,24 L19.7388889,24 C20.9611111,24 21.9388889,23.04 21.9388889,21.84 L21.9388889,2.16 C21.9388889,0.96 20.9611111,0 19.7388889,0 Z M20.7166667,21.84 C20.7166667,22.38 20.2888889,22.8 19.7388889,22.8 L2.2,22.8 C1.65,22.8 1.22222222,22.38 1.22222222,21.84 L1.22222222,2.16 C1.22222222,1.62 1.65,1.2 2.2,1.2 L19.7388889,1.2 C20.2888889,1.2 20.7166667,1.62 20.7166667,2.16 L20.7166667,21.84 Z M5.5,20.4 L8.25,18 L5.5,15.6 L5.5,20.4 Z M15.4,10.68 C14.9111111,10.2 13.9944444,9.6 12.4666667,9.6 C10.8166667,9.6 9.10555556,10.02 7.88333333,10.44 L7.88333333,3.6 L5.43888889,3.6 L5.43888889,13.98 L7.15,13.2 C7.15,13.2 9.96111111,11.94 12.4055556,11.94 C13.6277778,11.94 13.9333333,12.6 13.9333333,13.2 L13.9333333,20.4 L16.3777778,20.4 L16.3777778,13.2 C16.4388889,13.02 16.4388889,11.7 15.4,10.68 Z M12.1611111,7.5 L14.6055556,7.5 C15.7055556,6.24 16.2555556,4.98 16.4388889,3.6 L13.9944444,3.6 C13.75,4.98 13.1388889,6.24 12.1611111,7.5 Z"/>
</svg>
