<svg xmlns="http://www.w3.org/2000/svg" width="50" height="50" viewBox="0 0 50 50">
  <g fill="none" fill-rule="evenodd">
    <circle cx="25" cy="25" r="25" fill="#D14733"/>
    <path fill="#FFF" fill-rule="nonzero" d="M12.9157096,18.035566 C12.3504476,18.035566 11.9417853,18.5475134 11.9417853,19.5935294 C11.9417853,21.3645592 13.3558131,22.8710714 14.8586125,23.7361778 C14.7597306,22.6407298 14.6109475,21.4622119 14.5057393,20.7381552 C14.3111532,19.3992336 13.850588,18.035566 12.9157096,18.035566 Z M39.5353541,21.0369987 C39.2043597,20.8449539 38.8523265,20.726646 38.4838569,20.726646 C37.6461802,20.726646 37.1631665,21.1583205 36.9627143,21.8565544 C36.556112,23.2727426 36.9353202,25.8393973 37.0751399,27.5185179 C37.2641961,29.7897018 37.3544142,30.6812742 37.3905014,31.1563757 C37.4750946,32.2650455 37.0519097,33.4989034 35.8200494,33.4902284 C34.6750468,33.482077 33.1817367,32.0765903 32.5220124,30.6621296 C32.6827978,32.4737671 32.172463,34.0096019 30.8245976,33.9999548 C29.4767321,33.990532 28.0961398,31.9402595 27.6748543,31.0581098 C27.7601779,31.882302 27.8066384,32.2279527 27.8434561,32.673365 C27.8801278,33.1187773 27.8654445,33.4409459 27.4105555,33.4864892 C27.1347876,33.5141593 26.5966204,33.4167907 26.285715,33.3627221 C25.8875135,33.2933975 25.7583592,33.0024885 25.6848699,32.3716872 C25.6319809,31.9162539 25.4928916,30.1112721 25.3553364,28.3721749 C25.04297,28.3465241 24.5315394,28.2452668 24.2254554,28.2015931 C23.6504704,28.1195553 23.2830965,28.0545682 22.7211146,27.9522639 C22.9108282,29.9853362 23.1889337,32.1551881 23.2849228,32.9508877 C23.3429984,33.4321962 23.298072,33.7343228 22.8109674,33.7935515 C22.5341769,33.8271294 21.6957697,33.7040353 21.4349773,33.660212 C21.0059484,33.5881952 20.8425331,33.2139023 20.7881831,32.9220959 C20.5684455,31.7426807 20.3592272,29.609772 20.2186769,27.4479968 C19.2984525,27.2174383 18.3880169,26.9517315 17.4808686,26.6453423 C17.5711598,28.3249116 17.6305503,30.19847 17.5740818,31.1226482 C17.4927029,32.4555198 16.7479252,33.3304902 15.6028715,33.3304902 C14.382977,33.3304902 12.9750928,32.6592309 12.0916569,31.8950153 C11.5139836,31.3953847 11.1890524,30.816932 11.1890524,30.3591804 C11.1890524,29.8918565 11.417673,29.468655 12.0214913,29.468655 C12.4887041,30.1225645 13.7114257,31.2698227 14.3942195,31.2698227 C15.0085937,31.2698227 15.1653686,30.723901 15.1653686,30.1674348 C15.1653686,29.7097579 15.0751652,27.5960687 14.9877084,25.8096334 C12.6445367,24.7377572 10,22.6938412 10,19.4963104 C10,17.4263697 11.2343367,16.0678473 13.0031955,16.0678473 C15.3173222,16.0678473 16.5304814,18.2137085 16.9093462,20.5592873 C17.1033918,21.7611452 17.2524598,23.3205369 17.354125,24.6699283 C17.3645713,24.6735179 17.3751637,24.6772571 17.3857561,24.6808467 C18.2850149,24.9865629 19.1934781,25.2699935 20.1099769,25.5225384 C19.971399,22.8117678 19.8997359,20.3551201 20.6089158,18.5742187 C21.2080076,17.0697183 22.4790233,15.9848298 24.4711262,16.0001604 C25.8408339,16.0106526 27.1174015,16.5737522 27.6890992,17.1036627 C27.8796895,17.2803095 27.9585846,17.5246431 27.9523022,17.6914184 C27.9393722,18.036097 27.725917,18.3171195 27.4431362,18.5067039 C26.8768443,18.1769896 26.2491894,17.8990856 25.3586237,17.8641541 C24.467912,17.829245 23.2578209,18.3265572 22.7606352,19.9923663 C22.3316063,21.4291724 22.4564505,24.2596644 22.5735514,26.0782568 C23.4370152,26.2532508 24.3069804,26.4295162 25.1824976,26.526436 L25.2098918,26.5692124 C25.1989341,26.437219 25.1882686,26.309563 25.1778223,26.1875159 C25.0056409,24.1682038 24.7781599,21.035361 24.7875835,20.4122624 C24.7948886,19.937475 25.0297478,19.7461033 25.377544,19.7486459 C25.7254132,19.7510091 26.3467857,19.8747239 26.5630899,19.9504724 C26.7404579,20.0126926 26.882104,20.095396 26.9788236,20.2502208 C27.0660466,20.3901189 27.1122149,20.5996631 27.1286513,20.8744935 C27.1730664,21.6169546 27.2924319,23.4428757 27.4051497,24.6010524 C27.5180136,25.7593039 27.6298548,26.7676886 27.8338864,27.6611306 C28.2447988,29.4602044 29.0884656,31.4093693 29.8566708,31.4148285 C30.3494733,31.4182686 30.3654715,30.46829 30.226017,29.1614431 C30.0864895,27.8545215 29.7101303,23.0735111 29.7188234,22.4949014 C29.7265668,21.9904323 29.8720846,21.7242768 30.2958539,21.7273504 C30.64365,21.7297435 31.3006714,21.7803646 31.5600758,21.8861762 C31.723345,21.952659 31.8444636,22.0144155 31.9280341,22.163841 C32.0015235,22.2953259 32.0459385,22.4945499 32.0640552,22.8244811 C32.1055482,23.5833197 32.3749606,26.6460153 32.6104772,27.6140916 C33.0598144,29.4602044 33.9999087,30.6947353 34.5216395,30.6983997 C35.0434434,30.7020641 34.8810508,29.3876641 34.7445184,27.8876507 C34.4807309,24.9919473 34.2114646,21.9706894 34.9195487,20.4930962 C35.3383506,19.6190306 36.0922377,18.7987122 37.8801628,18.7987122 C38.5500412,18.7987122 39.3208761,19.0745373 39.7331034,19.4896472 C39.9196028,19.6775116 40.0073371,20.0060368 39.9995207,20.1787948 C39.9836686,20.5357454 39.8225909,20.8404894 39.5353541,21.0369987 Z"/>
  </g>
</svg>
