<svg xmlns="http://www.w3.org/2000/svg" width="30" height="34" viewBox="0 0 30 34">
  <path fill="#EE4854" d="M46.6050368,57.0463396 C49.0798514,48.0388267 48.1929464,43.5017682 43.8455853,42.6251889 C44.5135956,45.68698 45.257936,48.8263511 42.0831017,50.9449588 C40.4183697,52.0542781 39.1047555,51.6327019 36.1591574,49.3364833 C34.8012226,52.1652849 35.2614184,54.9828611 35.8853544,58 C31.6591363,57.2568783 28.3301647,55.4817679 26.786822,51.3443337 C25.1942341,47.5853204 26.0663656,43.2201353 28.9765072,40.384349 C29.9931732,39.3386403 31.0920785,38.3777458 32.2611582,37.5111447 C37.0135606,33.8948187 37.9329674,30.3894995 35.425651,24.9539098 C35.3136183,24.642592 35.2222685,24.32404 35.1523404,24 C40.4360979,24.8134675 45.4330024,26.9612614 49.6818733,30.2455649 C58.9456231,37.921745 57.8289895,51.7102819 47.6017585,56.7801729 C47.2558114,56.8071138 46.9179897,56.896917 46.6050368,57.0463396 Z" transform="translate(-26 -24)"/>
</svg>
