<svg xmlns="http://www.w3.org/2000/svg" width="50" height="50" viewBox="0 0 50 50">
  <g fill="none" fill-rule="evenodd">
    <circle cx="25" cy="25" r="25" fill="#F66D2D"/>
    <path fill="#FFF" fill-rule="nonzero" d="M15.1229402,29.8701377 C12.7653983,29.8727001 10.7135892,28.258519 10.1611773,25.9666637 C10.1542081,25.9368364 10.1331513,25.9122708 10.1047403,25.9008219 C9.43342169,25.6307881 8.78509417,25.3067894 8.16612538,24.9320078 C8.14806507,24.9211934 8.13415438,24.9046336 8.12661941,24.8849781 C7.2228781,22.541678 6.99125866,19.9926213 7.45783966,17.5248132 C7.4643451,17.4896517 7.4902259,17.4612199 7.52462348,17.4514467 L7.54343586,17.4514467 C7.57196121,17.4482968 7.60036397,17.4583415 7.62056659,17.4787239 C8.86676431,18.8257982 10.3766946,19.9021902 12.0565237,20.6410082 C12.0687058,20.6462034 12.0818476,20.6487676 12.0950891,20.648533 C12.1150139,20.648604 12.1344466,20.6423461 12.1505856,20.6306616 C14.3687429,19.03742 17.449214,19.4800273 19.1290347,21.6333371 C19.146994,21.6566679 19.174842,21.6702434 19.2042841,21.6700204 L19.2155716,21.6700204 C19.6802371,21.6070004 20.1561901,21.5176438 20.6189744,21.4066535 C23.3944133,20.7326586 25.8870785,19.2016839 27.7432194,17.0310002 C27.7613042,17.0098543 27.7878235,16.9978004 27.815647,16.9980793 C27.8314048,16.9980005 27.8469299,17.0018817 27.8607967,17.0093665 C27.9000061,17.0302824 27.9192275,17.0757849 27.9068871,17.1184757 C26.7887111,21.072012 23.9234444,24.2968762 20.1289122,25.872604 C20.1005011,25.8840529 20.0794443,25.9086185 20.0724751,25.9384458 C19.5356547,28.2392231 17.4855657,29.8677233 15.1229402,29.8701377 Z M5.61046479,22.879627 C5.5850009,22.8797758 5.56056476,22.8695943 5.54274021,22.8514091 C2.66096886,19.9224954 1.29952355,15.8233189 1.85645607,11.7523746 C1.86066962,11.7219738 1.84978562,11.6914293 1.8272969,11.6705428 C0.106109897,10.0570213 -0.281724207,7.47271117 0.890021172,5.42506045 C2.06176645,3.37740983 4.48637503,2.402412 6.74955383,3.06879103 C6.77913621,3.07752248 6.81111972,3.07119621 6.83515014,3.05186028 C7.40453203,2.59952483 8.01049097,2.19524721 8.64678145,1.84319421 C8.66092779,1.83555476 8.67679614,1.83166872 8.69287179,1.83190707 C11.1860006,2.217753 13.5209343,3.29508828 15.4324038,4.94151797 C15.459414,4.96465872 15.4710611,5.00105534 15.4625035,5.03557759 C15.4542734,5.07091066 15.4264564,5.09836107 15.3910165,5.10612228 C13.5965733,5.51070993 11.9048894,6.28112338 10.4217287,7.36919659 C10.3942246,7.38898934 10.3794925,7.42204572 10.3831633,7.45573138 C10.4011949,7.62695721 10.4102999,7.79900566 10.4104413,7.97117814 C10.3931818,10.501712 8.52899441,12.6396997 6.02433693,13.0014863 C5.99054172,13.0058597 5.96175486,13.0281689 5.94908741,13.0598033 C5.77036997,13.4981211 5.61140534,13.9514884 5.47877814,14.4076775 C4.67586776,17.1442285 4.75418679,20.064012 5.70264538,22.7535872 C5.71332269,22.7830416 5.70863328,22.8158788 5.69013828,22.8411673 C5.67164317,22.8664559 5.64177052,22.880876 5.61046479,22.879627 Z M22.3036223,18.1343195 C22.272687,18.1358578 22.2429772,18.1220684 22.2241832,18.0974489 C22.2053892,18.0728294 22.1999204,18.0405359 22.2095605,18.0111014 C22.7469936,16.2801389 22.92716,14.4580387 22.7391287,12.6553469 C22.7357888,12.6220554 22.7150149,12.5930441 22.6845728,12.5791587 C20.8917823,11.7430535 19.7416753,9.94834345 19.7310305,7.97023748 C19.7272278,7.30432697 19.8550942,6.64423241 20.107278,6.02790652 C20.1204664,5.99664279 20.1157937,5.96069938 20.0950499,5.9338469 C19.7907999,5.53519903 19.4658397,5.15279121 19.1215098,4.78820079 C17.1545944,2.72259176 14.58794,1.32774703 11.7846849,0.801013676 C11.7390578,0.793147717 11.7059405,0.753248297 11.7066137,0.706954066 C11.7053238,0.662680469 11.7350971,0.623505838 11.7781007,0.612894445 C15.7925626,-0.422240203 20.0601312,0.481724876 23.3100841,3.05562269 C23.3268851,3.06910179 23.3478034,3.07640638 23.3693431,3.07631576 C23.3786958,3.07773466 23.388209,3.07773466 23.3975617,3.07631576 C23.8588281,2.93713417 24.337969,2.866152 24.8197769,2.86562224 C26.9110712,2.85993072 28.793169,4.13357048 29.5653819,6.07703421 C30.337595,8.02049793 29.8428608,10.2384995 28.3179373,11.6696021 C28.2954486,11.6904887 28.2845647,11.7210332 28.2887782,11.7514341 C28.3692591,12.3418686 28.4101106,12.9370297 28.4110586,13.5329231 C28.4110586,13.5884183 28.4110586,13.6429729 28.4035337,13.6975274 L28.3969493,13.8019337 C28.3966163,13.8228267 28.3893354,13.843014 28.3762557,13.85931 C26.7999736,15.8175952 24.7077164,17.2963446 22.3356033,18.1286759 L22.3036223,18.1343195 Z" transform="translate(10 10)"/>
  </g>
</svg>
