<svg xmlns="http://www.w3.org/2000/svg" width="50" height="50" viewBox="0 0 50 50">
  <g fill="none" fill-rule="evenodd">
    <circle cx="25" cy="25" r="25" fill="#202027"/>
    <path fill="#FFF" fill-rule="nonzero" d="M29.7545455,18.1090909 L26.8909091,5.64545455 C26.7272727,4.96363636 26.1,4.28181818 25.4454545,4.09090909 L12.3818182,0.0818181818 C12.2181818,0.0272727273 12.0272727,0 11.8363636,0 C11.2636364,0 10.6909091,0.218181818 10.3090909,0.545454545 L0.927272727,9.24545455 C0.436363636,9.70909091 0.136363636,10.6090909 0.3,11.2636364 L3.35454545,24.6 C3.51818182,25.2818182 4.14545455,25.9636364 4.8,26.1545455 L17.0181818,29.9181818 C17.1818182,29.9727273 17.3727273,30 17.5636364,30 C18.1363636,30 18.7090909,29.7818182 19.0909091,29.4545455 L29.1272727,20.1545455 C29.6454545,19.6636364 29.9181818,18.7909091 29.7545455,18.1090909 Z M13.7181818,3.05454545 L22.6636364,5.80909091 C23.0181818,5.91818182 23.0181818,6.08181818 22.6636364,6.16363636 L17.9454545,7.25454545 C17.5909091,7.33636364 17.1,7.17272727 16.8545455,6.92727273 L13.5545455,3.38181818 C13.2818182,3.08181818 13.3636364,2.94545455 13.7181818,3.05454545 Z M19.3090909,19.1454545 C19.3909091,19.5 19.1727273,19.7181818 18.8181818,19.6090909 L9.13636364,16.6090909 C8.78181818,16.5 8.72727273,16.2 9,15.9545455 L16.4181818,9.08181818 C16.6909091,8.83636364 16.9636364,8.91818182 17.0454545,9.27272727 L19.3090909,19.1454545 Z M3.35454545,10.3363636 L11.2090909,3.02727273 C11.4818182,2.78181818 11.8909091,2.78181818 12.1636364,3.05454545 L16.1181818,7.30909091 C16.3636364,7.58181818 16.3636364,7.99090909 16.0909091,8.26363636 L8.20909091,15.5727273 C7.93636364,15.8181818 7.52727273,15.8181818 7.25454545,15.5454545 L3.32727273,11.2909091 C3.08181818,11.0181818 3.10909091,10.5818182 3.35454545,10.3363636 Z M5.26363636,21.9545455 L3.19090909,12.8181818 C3.10909091,12.4636364 3.24545455,12.3818182 3.49090909,12.6545455 L6.79090909,16.2 C7.03636364,16.4727273 7.14545455,16.9636364 7.03636364,17.3181818 L5.61818182,21.9545455 C5.50909091,22.3090909 5.34545455,22.3090909 5.26363636,21.9545455 Z M16.7727273,27.2727273 L6.51818182,24.1090909 C6.16363636,24 5.97272727,23.6181818 6.08181818,23.2636364 L7.8,17.7272727 C7.90909091,17.3727273 8.29090909,17.1818182 8.64545455,17.2909091 L18.8727273,20.4545455 C19.2272727,20.5636364 19.4181818,20.9454545 19.3090909,21.3 L17.5909091,26.8363636 C17.5090909,27.1909091 17.1272727,27.3818182 16.7727273,27.2727273 Z M25.8818182,19.8272727 L19.0090909,26.1818182 C18.7363636,26.4272727 18.6,26.3454545 18.7090909,25.9909091 L20.1272727,21.3545455 C20.2363636,21 20.6181818,20.6454545 20.9727273,20.5636364 L25.6909091,19.4727273 C26.0727273,19.4181818 26.1545455,19.5545455 25.8818182,19.8272727 Z M26.6454545,18.4636364 L21,19.7454545 C20.6454545,19.8272727 20.2909091,19.6090909 20.2090909,19.2545455 L17.8090909,8.80909091 C17.7272727,8.45454545 17.9454545,8.1 18.3,8.01818182 L23.9454545,6.73636364 C24.3,6.65454545 24.6545455,6.87272727 24.7363636,7.22727273 L27.1363636,17.6727273 C27.2181818,18.0272727 27,18.3818182 26.6454545,18.4636364 Z" transform="translate(10 10)"/>
  </g>
</svg>
