<svg xmlns="http://www.w3.org/2000/svg" width="26" height="30" viewBox="0 0 26 30">
  <path fill="#9FC65D" d="M20.236,2.70666667 L19.248,3.88933333 C18.928,4.316 18.5993333,4.756 18.2613333,5.212 C17.5826667,6.116 16.8653333,7.06666667 16.2146667,8.11 C15.876,8.62333333 15.5346667,9.14333333 15.188,9.67 C14.8693333,10.2146667 14.55,10.7673333 14.2293333,11.322 C13.56,12.4153333 12.992,13.592 12.4046667,14.7466667 C11.8446667,15.9186667 11.3193333,17.1013333 10.8433333,18.2833333 C10.3733333,19.468 9.93666667,20.6366667 9.57,21.7953333 C9.18,22.9393333 8.86666667,24.07 8.56666667,25.142 C8.27733333,26.2193333 8.018,27.2486667 7.78866667,28.2086667 C7.65866667,28.762 7.53066667,29.2833333 7.414,29.782 C29.3473333,23.5833333 28.3206667,24.3933333 21.614,1.08 C21.1806667,1.57533333 20.7406667,2.12 20.2406667,2.70666667 M4.42733333,23.7533333 C4.874,22.6626667 5.34066667,21.5086667 5.894,20.3413333 C6.42066667,19.1646667 7.02733333,17.9773333 7.66733333,16.7833333 C8.314,15.5966667 9.014,14.41 9.74066667,13.2513333 C10.5006667,12.108 11.2273333,10.956 12.054,9.89266667 C12.4606667,9.35266667 12.854,8.81933333 13.2473333,8.29266667 C13.6673333,7.786 14.0873333,7.29266667 14.494,6.79933333 C15.2873333,5.79933333 16.134,4.91266667 16.934,4.066 L18.094,2.83266667 L19.2406667,1.746 C19.6473333,1.35933333 20.0273333,0.999333333 20.394,0.646 C-2.07933333,7.03933333 -2.43266667,6.046 3.454,26.3193333 C3.754,25.4993333 4.08066667,24.646 4.44066667,23.7326667"/>
</svg>
