<svg xmlns="http://www.w3.org/2000/svg" width="30" height="30" viewBox="0 0 30 30">
  <path fill="#286EFA" fill-rule="evenodd" d="M26.25,0 L3.75,0 C1.6790625,0 0,1.6790625 0,3.75 L0,26.25 C0,28.3209375 1.6790625,30 3.75,30 L26.25,30 C28.3209375,30 30,28.3209375 30,26.25 L30,3.75 C30,1.6790625 28.3209375,0 26.25,0 Z M18.999375,5.5003125 C18.999375,4.948125 19.4475,4.5 19.9996875,4.5 C20.551875,4.5 21,4.948125 21,5.5003125 L21,18.860625 C21,19.4128125 20.551875,19.8609375 19.9996875,19.8609375 C19.4475,19.8609375 18.999375,19.4128125 18.999375,18.860625 L18.999375,5.5003125 Z M13.9996875,4.9940625 C13.9996875,4.441875 14.4478125,3.99375 15,3.99375 C15.5521875,3.99375 16.0003125,4.441875 16.0003125,4.9940625 L16.0003125,19.494375 C16.0003125,20.0465625 15.5521875,20.4946875 15,20.4946875 C14.4478125,20.4946875 13.9996875,20.0465625 13.9996875,19.494375 L13.9996875,4.9940625 Z M9,5.5003125 C9,4.948125 9.448125,4.5 10.0003125,4.5 C10.5525,4.5 10.9996875,4.948125 10.9996875,5.5003125 L10.9996875,18.860625 C10.9996875,19.4128125 10.5525,19.8609375 10.0003125,19.8609375 C9.448125,19.8609375 9,19.4128125 9,18.860625 L9,5.5003125 Z M4.0003125,7.5 C4.0003125,6.9478125 4.4475,6.4996875 4.9996875,6.4996875 C5.551875,6.4996875 6,6.9478125 6,7.5 L6,16.494375 C6,17.0465625 5.551875,17.4946875 4.9996875,17.4946875 C4.4475,17.4946875 4.0003125,17.0465625 4.0003125,16.494375 L4.0003125,7.5 Z M25.6509375,22.753125 C25.4971875,22.88625 21.7921875,25.9940625 15,25.9940625 C8.2078125,25.9940625 4.5046875,22.88625 4.3490625,22.753125 C3.93,22.3940625 3.8803125,21.763125 4.2403125,21.343125 C4.5984375,20.925 5.2284375,20.8753125 5.6475,21.2334375 C5.705625,21.2821875 9.0140625,23.994375 14.9990625,23.994375 C21.0590625,23.994375 24.3159375,21.2625 24.3478125,21.2353125 C24.7659375,20.8753125 25.39875,20.9240625 25.756875,21.343125 C26.1178125,21.763125 26.07,22.3940625 25.6509375,22.753125 Z M25.9996875,16.494375 C25.9996875,17.0465625 25.5515625,17.4946875 24.999375,17.4946875 C24.4471875,17.4946875 24,17.0465625 24,16.494375 L24,7.5 C24,6.9478125 24.4471875,6.4996875 24.999375,6.4996875 C25.5515625,6.4996875 25.9996875,6.9478125 25.9996875,7.5 L25.9996875,16.494375 Z"/>
</svg>
