<svg xmlns="http://www.w3.org/2000/svg" width="50" height="50" viewBox="0 0 50 50">
  <g fill="none" fill-rule="evenodd">
    <circle cx="25" cy="25" r="25" fill="#000"/>
    <polygon fill="#FFF" fill-rule="nonzero" points="8.875 26.971 7.883 26.971 7.883 23.029 8.875 23.029"/>
    <polygon fill="#FFF" fill-rule="nonzero" points="10.644 23.029 11.636 23.029 13.445 25.429 13.445 25.429 13.445 23.029 14.437 23.029 14.437 26.971 13.445 26.971 11.636 24.571 11.636 24.571 11.636 26.971 10.644 26.971"/>
    <polygon fill="#FFF" fill-rule="nonzero" points="17.913 26.971 16.921 26.971 16.921 23.886 16.107 23.886 16.107 23.029 18.726 23.029 18.726 23.896 17.913 23.896"/>
    <polygon fill="#FFF" fill-rule="nonzero" points="21.584 23.896 21.584 24.554 22.698 24.554 22.698 25.422 21.584 25.422 21.584 26.107 22.758 26.107 22.758 26.975 20.598 26.975 20.598 23.029 22.761 23.029 22.761 23.896"/>
    <polygon fill="#FFF" fill-rule="nonzero" points="25.87 26.104 27.054 26.104 27.054 26.971 24.881 26.971 24.881 23.029 25.873 23.029"/>
    <polygon fill="#FFF" fill-rule="nonzero" points="29.875 26.104 31.059 26.104 31.059 26.971 28.889 26.971 28.889 23.029 29.881 23.029"/>
    <path fill="#FFF" fill-rule="nonzero" d="M35.8009449,23.0285714 L35.8009449,25.2434286 C35.8009449,25.7508571 35.7811024,26.2514286 35.4040945,26.632 C34.6589167,27.2171838 33.6292723,27.2171838 32.8840945,26.632 C32.5070866,26.2514286 32.4872441,25.7474286 32.4872441,25.2434286 L32.4872441,23.0285714 L33.4793701,23.0285714 L33.4793701,25.1028571 C33.4793701,25.6137143 33.515748,26.1725714 34.1407874,26.1725714 C34.7658268,26.1725714 34.8022047,25.6137143 34.8022047,25.1028571 L34.8022047,23.0285714 L35.8009449,23.0285714 Z"/>
    <polygon fill="#FFF" fill-rule="nonzero" points="37.772 23.029 38.744 23.029 39.515 25.134 40.332 23.029 41.324 23.029 41.899 26.968 40.907 26.968 40.629 24.702 40.629 24.702 39.717 26.971 39.323 26.971 38.45 24.705 38.45 24.705 38.119 26.971 37.127 26.971"/>
    <polygon fill="#FFF" fill-rule="nonzero" points="43.209 19.806 44.998 19.806 44.998 21.661 45.778 22.47 45.778 19 42.432 19"/>
    <polygon fill="#FFF" fill-rule="nonzero" points="44.998 23.93 44.998 30.194 4.777 30.194 4.777 19.806 41.023 19.806 40.246 19 4 19 4 31 45.778 31 45.778 24.736"/>
  </g>
</svg>
