<svg xmlns="http://www.w3.org/2000/svg" width="30" height="30" viewBox="0 0 30 30">
  <g fill="none">
    <rect width="30" height="30" fill="#F36" rx="2.719"/>
    <path fill="#FFF" d="M10.026 9.4392C11.0149176 9.42139056 11.8042042 8.6090008 11.7934833 7.61998098 11.7827623 6.63096117 10.9760506 5.83587202 9.98697933 5.83950396 8.99790807 5.84313589 8.19705728 6.64412812 8.1936 7.6332 8.19516899 8.11628684 8.38957799 8.57874707 8.73364331 8.91785533 9.07770863 9.25696359 9.54294126 9.4446413 10.026 9.4392zM6.2256 19.1088C6.12176779 19.5538508 6.06743803 20.0090135 6.0636 20.466 6.0636 22.056 6.9264 23.112 8.7588 23.112 10.2792 23.112 11.5116 22.2096 12.3984 20.7516L11.8572 22.926 14.88 22.926 16.6044 16.008C17.0352 14.256 17.8704 13.3464 19.1376 13.3464 20.1348 13.3464 20.7552 13.9668 20.7552 14.9904 20.7583185 15.3187943 20.7113798 15.6457466 20.616 15.96L19.7268 19.14C19.6000688 19.5779196 19.5366264 20.0317149 19.5384 20.4876 19.5384 21.9972 20.4276 23.1012 22.2876 23.1012 23.8776 23.1012 25.1448 22.0776 25.8456 19.6212L24.66 19.164C24.0672 20.8068 23.5548 21.1044 23.1504 21.1044 22.746 21.1044 22.53 20.8356 22.53 20.2968 22.5412176 20.0124497 22.5863368 19.730455 22.6644 19.4568L23.5272 16.3584C23.7206118 15.7234649 23.820461 15.0637325 23.8236 14.4 23.8236 12.0828 22.422 10.8732 20.724 10.8732 19.134 10.8732 17.5164 12.3132 16.7088 13.8168L17.3016 11.1072 12.6936 11.1072 12.0468 13.494 14.2068 13.494 12.8796 18.81C11.8368 21.1272 9.9216 21.1656 9.6816 21.1116 9.2868 21.0228 9.0348 20.8716 9.0348 20.3604 9.04665965 19.9430196 9.10993703 19.5286938 9.2232 19.1268L11.2392 11.1084 6.12 11.1084 5.472 13.494 7.6008 13.494 6.2256 19.1088z"/>
  </g>
</svg>
