<svg xmlns="http://www.w3.org/2000/svg" width="50" height="50" viewBox="0 0 50 50">
  <g fill="none" fill-rule="evenodd">
    <circle cx="25" cy="25" r="25" fill="#341935"/>
    <polygon fill="#FFF" fill-rule="nonzero" points="3 30.063 3 20.219 4.314 20.219 4.314 30.063"/>
    <path fill="#FFF" fill-rule="nonzero" d="M11.6285714,21.175 C9.57142857,21.175 8.31428571,22.80625 8.31428571,25.16875 C8.31428571,27.475 9.62857143,29.1625 11.6285714,29.1625 C13.6857143,29.1625 14.9428571,27.53125 14.9428571,25.16875 C14.8857143,22.8625 13.6285714,21.175 11.6285714,21.175 Z M11.5714286,30.23125 C8.94285714,30.23125 6.94285714,28.20625 6.94285714,25.16875 C6.94285714,22.075 9,20.05 11.5714286,20.05 C14.2,20.05 16.2,22.01875 16.2,25.1125 C16.2,28.20625 14.2,30.23125 11.5714286,30.23125 Z"/>
    <polygon fill="#FFF" fill-rule="nonzero" points="19.457 33.775 19.457 16.113 20.257 16 20.257 33.606"/>
    <path fill="#FFF" fill-rule="nonzero" d="M26.7142857 24.4375C25.9714286 24.4375 25.3428571 24.8875 24.7714286 25.5625L24.7714286 29.05C25.2857143 29.33125 25.7428571 29.5 26.4285714 29.5 27.5714286 29.5 28.4857143 28.65625 28.4857143 26.85625 28.4857143 25.28125 27.7428571 24.4375 26.7142857 24.4375zM26.4285714 30.23125C25.8 30.23125 25.2285714 30.11875 24.7714286 29.95L24.7714286 32.48125 23.8571429 32.65 23.8571429 23.81875 24.5428571 23.81875 24.7142857 24.71875C25.2285714 24.15625 25.8571429 23.65 26.7714286 23.65 28.2 23.65 29.3428571 24.6625 29.3428571 26.8 29.4 29.10625 28.0285714 30.23125 26.4285714 30.23125zM31.2285714 30.175L31.2285714 23.81875 32.0857143 23.81875 32.0857143 30.175 31.2285714 30.175zM31.6857143 22.3C31.3428571 22.3 31.0571429 22.01875 31.0571429 21.68125 31.0571429 21.34375 31.3428571 21.0625 31.6857143 21.0625 32.0285714 21.0625 32.3142857 21.34375 32.3142857 21.68125 32.3142857 22.01875 32.0285714 22.3 31.6857143 22.3zM37.1142857 24.4375C36.3714286 24.4375 35.7428571 24.8875 35.1714286 25.5625L35.1714286 29.05C35.6857143 29.275 36.1428571 29.44375 36.8285714 29.44375 37.9714286 29.44375 38.8857143 28.6 38.8857143 26.8 38.8857143 25.28125 38.1428571 24.4375 37.1142857 24.4375zM36.8857143 30.23125C36.2571429 30.23125 35.6857143 30.11875 35.2285714 29.95L35.2285714 32.48125 34.3142857 32.65 34.3142857 23.81875 35 23.81875 35.1714286 24.71875C35.6857143 24.15625 36.3142857 23.65 37.2285714 23.65 38.6571429 23.65 39.8 24.6625 39.8 26.8 39.8 29.10625 38.4285714 30.23125 36.8857143 30.23125zM43.9142857 24.38125C42.8857143 24.38125 42.2571429 25.1125 42.0857143 26.35L45.6285714 26.35C45.5142857 25.225 44.9428571 24.38125 43.9142857 24.38125zM46.4857143 27.025L42.0285714 27.025C42.0285714 28.6 42.7714286 29.5 44.0857143 29.5 44.9428571 29.5 45.6857143 29.10625 46.3714286 28.54375L46.4857143 29.33125C45.8571429 29.89375 45 30.23125 44.0285714 30.23125 42.3142857 30.23125 41.1142857 29.10625 41.1142857 26.9125 41.1142857 24.8875 42.3142857 23.59375 43.9142857 23.59375 45.6857143 23.59375 46.5428571 25 46.5428571 26.8 46.4857143 26.9125 46.4857143 26.96875 46.4857143 27.025z"/>
  </g>
</svg>
