<svg xmlns="http://www.w3.org/2000/svg" width="26" height="29" viewBox="0 0 26 29">
  <g fill="none">
    <path fill="#14BF96" d="M2.22444444,6.57333333 C1.29152884,7.16607143 0.700097108,8.17357332 0.635555556,9.28 L0.635555556,19.72 C0.700097108,20.8264267 1.29152884,21.8339286 2.22444444,22.4266667 L11.5555556,27.666 C12.5578881,28.1590108 13.7310008,28.1590108 14.7333333,27.666 L24.0740741,22.4266667 C25.0069897,21.8339286 25.5984214,20.8264267 25.662963,19.72 L25.662963,9.28 C25.5984214,8.17357332 25.0069897,7.16607143 24.0740741,6.57333333 L14.742963,1.334 C13.7406304,0.840989235 12.5675177,0.840989235 11.5651852,1.334 L2.22444444,6.57333333 Z"/>
    <path fill="#FFF" d="M22.7355556,11.9093333 C17.5548148,11.9093333 13.6837037,16.2206667 13.6837037,21.5083333 L13.6837037,21.7306667 L12.6437037,21.7306667 L12.6437037,21.5083333 C12.6437037,16.2206667 8.79185185,11.9286667 3.5724583,11.9093333 C3.57259259,12.238 3.57259259,12.5763333 3.57259259,12.876 C3.55153372,16.876275 6.00886102,20.4685213 9.73555556,21.8853333 C10.8429791,22.2929661 12.0130682,22.5023637 13.1925926,22.504 C14.3815243,22.5023703 15.5611016,22.2930242 16.6785185,21.8853333 C20.3996171,20.4630562 22.8516295,16.8729701 22.8318519,12.876 C22.7837037,12.5666667 22.7644444,12.238 22.7355556,11.9093333 Z"/>
    <ellipse cx="13.154" cy="9.415" fill="#FFF" rx="2.889" ry="2.9"/>
  </g>
</svg>
