<svg xmlns="http://www.w3.org/2000/svg" width="50" height="50" viewBox="0 0 50 50">
  <g fill="none" fill-rule="evenodd">
    <circle cx="25" cy="25" r="25" fill="#000"/>
    <g fill="#FFF" fill-rule="nonzero" transform="translate(15 11)">
      <path d="M11.8823529,8.98333333 L9.17647059,9.21666667 L11.6470588,14.35 L9.29411765,19.3666667 L11.8823529,19.6 L14.3529412,14.2333333 L11.8823529,8.98333333 Z M6.47058824,16.1 C5.76470588,16.1 5.17647059,16.6833333 5.17647059,17.3833333 C5.17647059,18.0833333 5.88235294,18.6666667 6.47058824,18.6666667 C7.05882353,18.6666667 7.76470588,18.0833333 7.76470588,17.3833333 C7.76470588,16.6833333 7.17647059,16.1 6.47058824,16.1 Z M6.47058824,11.9 C5.76470588,11.9 5.17647059,12.4833333 5.17647059,13.1833333 C5.17647059,13.8833333 5.76470588,14.4666667 6.47058824,14.4666667 C7.17647059,14.4666667 7.76470588,13.8833333 7.76470588,13.1833333 C7.76470588,12.4833333 7.17647059,11.9 6.47058824,11.9 Z"/>
      <path d="M14.8235294,0 L4.70588235,0 C2.11764706,0 0.117647059,2.1 0.117647059,4.66666667 L0.117647059,23.3333333 C0.117647059,25.9 2.11764706,28 4.70588235,28 L14.8235294,28 C17.2941176,28 19.4117647,25.9 19.4117647,23.45 L19.4117647,4.66666667 C19.4117647,2.1 17.2941176,0 14.8235294,0 Z M16.7058824,23.1 C16.7058824,24.3833333 15.7647059,25.3166667 14.4705882,25.3166667 L4.94117647,25.3166667 C3.76470588,25.3166667 2.70588235,24.2666667 2.70588235,23.1 L2.70588235,4.9 C2.70588235,3.61666667 3.64705882,2.68333333 4.94117647,2.68333333 L14.5882353,2.68333333 C15.7647059,2.68333333 16.8235294,3.73333333 16.8235294,4.9 L16.8235294,23.1 L16.7058824,23.1 Z"/>
    </g>
  </g>
</svg>
