<svg xmlns="http://www.w3.org/2000/svg" width="30" height="30" viewBox="0 0 30 30">
  <g>
    <path d="M11.637931 27.2608696C11.637931 28.7217391 10.4741379 29.8956522 9.02586207 29.8956522 7.57758621 29.8956522 6.4137931 28.6956522 6.4137931 27.2608696 6.4137931 25.8 7.57758621 24.626087 9.02586207 24.626087 10.4741379 24.626087 11.637931 25.8 11.637931 27.2608696zM27.4396552 27.2608696C27.4396552 28.7217391 26.2758621 29.8956522 24.8275862 29.8956522 23.3793103 29.8956522 22.2155172 28.6956522 22.2155172 27.2608696 22.2155172 25.8 23.3793103 24.626087 24.8275862 24.626087 26.2758621 24.626087 27.4396552 25.8 27.4396552 27.2608696z"/>
    <polygon points="29.974 4.304 22.707 .209 22.991 2.035 .026 2.035 9 23.583 24.853 23.583 27.31 8.53 22.216 11.478 21 19.148 12.078 19.174 6.879 6.6 23.017 6.6 22.707 8.426"/>
  </g>
</svg>
