<svg xmlns="http://www.w3.org/2000/svg" width="30" height="31" viewBox="0 0 30 31">
  <g fill="none">
    <path fill="#F9A11D" d="M13.1487683,8.46482399 L9.43800046,8.46482399 L9.43800046,6.58294072 C9.43800046,5.07989797 8.19969185,3.85722013 6.67800046,3.85722013 C5.15630769,3.85722013 3.918462,5.0803534 3.918462,6.58294072 L3.918462,8.46482399 L0.207692308,8.46482399 L0.207692308,6.58294072 C0.207692308,3.05897013 3.11030677,0.191470588 6.67846154,0.191470588 C10.2466163,0.191470588 13.1492308,3.05851471 13.1492308,6.58294072 L13.1492308,8.46482399 L13.1487678,8.46482399 L13.1487683,8.46482399 Z" transform="translate(8.308 8.206)"/>
    <path fill="#2C3C69" d="M22.9532298,16.6707063 L7.01861538,16.6707063 C6.33830723,16.6707063 5.78169231,17.2204991 5.78169231,17.892471 L5.78169231,29.5357068 C5.78169231,30.2076769 6.33830723,30.7574715 7.01861538,30.7574715 L22.9532298,30.7574715 C23.6335389,30.7574715 24.1901529,30.2076769 24.1901529,29.5357068 L24.1901529,17.892471 C24.1901529,17.2204991 23.6335389,16.6707063 22.9532298,16.6707063 Z M15.7933851,24.315398 L15.7933851,25.8932045 C15.7933851,26.3335882 15.4315389,26.6905432 14.9861538,26.6905432 C14.5407688,26.6905432 14.1789226,26.3331328 14.1789226,25.8932045 L14.1789226,24.3158539 C13.6823072,24.0373097 13.3467683,23.5116774 13.3467683,22.9071774 C13.3467683,22.0127353 14.081076,21.2878824 14.9861538,21.2878824 C15.8916914,21.2878824 16.6255375,22.0131912 16.6255375,22.9071774 C16.6255375,23.511222 16.2899986,24.0368543 15.7933846,24.3153984 L15.7933851,24.315398 Z"/>
    <path fill="#F9A11D" d="M5.40323123 14.934705L1.55815431 14.934705C.934615385 14.934705.429231231 14.4355152.429231231 13.8196172.429231231 13.2037192.934615385 12.7045294 1.55815431 12.7045294L5.40323123 12.7045294C6.02676969 12.7045294 6.53215385 13.203721 6.53215385 13.8196172 6.53215385 14.4355133 6.02630723 14.934705 5.40323123 14.934705zM8.11153892 8.9603681C7.85953846 8.9603681 7.60523123 8.87739706 7.39523123 8.70644118L4.35369277 6.23601516C3.87230769 5.84486719 3.80261585 5.1423534 4.19907692 4.66641176 4.59507692 4.19092693 5.30630769 4.12208824 5.78815431 4.51323529L8.82969277 6.98366222C9.31107692 7.37480928 9.38076969 8.07732399 8.98430769 8.55326471 8.76138462 8.82177987 8.43784615 8.96036856 8.11153892 8.96036856L8.11153892 8.9603681zM14.9856932 6.33448529C14.3621538 6.33448529 13.8567688 5.83529366 13.8567688 5.2193966L13.8567688 1.39135294C13.8567688.775455882 14.3621538.276264706 14.9856932.276264706 15.6092326.276264706 16.1146158.775455882 16.1146158 1.39135294L16.1146158 5.2193966C16.1146158 5.83529366 15.6092308 6.33448529 14.9856932 6.33448529z"/>
    <path fill="#F9A11D" d="M1.55215338,4.85742693 C1.22584523,4.85742693 0.902769692,4.71883824 0.679384615,4.45032307 C0.283383692,3.97483824 0.352615385,3.27186765 0.833999538,2.88072059 L3.875538,0.410293662 C4.35738554,0.0191466029 5.06861631,0.0879852941 5.46461354,0.563470132 C5.86061446,1.03895497 5.79138277,1.74192556 5.30999862,2.13307353 L2.268462,4.60349954 C2.05846108,4.77445543 1.80461538,4.85742647 1.55215338,4.85742647 L1.55215338,4.85742693 Z" transform="translate(20.308 4.103)"/>
    <path fill="#F9A11D" d="M28.4136942,14.934705 L24.5321538,14.934705 C23.9086145,14.934705 23.4032312,14.4355152 23.4032312,13.8196172 C23.4032312,13.2037192 23.9086145,12.7045294 24.5321538,12.7045294 L28.4136942,12.7045294 C29.0372317,12.7045294 29.5426168,13.203721 29.5426168,13.8196172 C29.5426168,14.4355133 29.0372317,14.934705 28.4136942,14.934705 Z"/>
  </g>
</svg>
