<svg xmlns="http://www.w3.org/2000/svg" width="50" height="50" viewBox="0 0 50 50">
  <g fill="none" fill-rule="evenodd">
    <circle cx="25" cy="25" r="25" fill="#222"/>
    <path fill="#FFF" fill-rule="nonzero" d="M24.1053571 24.1413333L24.3625 24.072C26.2628575 23.5058114 28.1269908 22.8254524 29.9446429 22.0346667 31.7886844 21.3145758 33.5189451 20.3338421 35.0821429 19.1226667 36.7395949 17.8114283 37.9881851 16.0578527 38.6821429 14.0666667 38.8324356 13.7342502 38.9421473 13.3850911 39.0089286 13.0266667 36.5125 16.424 26.6071429 16.776 26.6071429 16.776L28.9428571 14.6426667C22.1436471 14.6684765 15.521841 16.8050327 10 20.7546667 13.7374738 21.1540201 17.2528282 22.7181663 20.0446429 25.224 21.3839286 24.808 22.7553571 24.5093333 24.1053571 24.1413333zM39.6303571 23.8106667C33.3318453 23.5148551 27.0295195 24.3088439 21.0035714 26.1573333 22.2695534 27.4705462 23.326408 28.9687464 24.1375 30.6 29.1303571 27.8373333 36.0464286 24.3066667 39.6303571 23.8106667M24.7642857 32.024C25.3551648 33.5332254 25.7354893 35.1159523 25.8946429 36.728L34.5892857 27.8266667"/>
  </g>
</svg>
