<svg xmlns="http://www.w3.org/2000/svg" width="30" height="26" viewBox="0 0 30 26">
  <g fill="none">
    <path fill="#FF931E" d="M30,18.363 L30,25 C30,25.5522847 29.5522847,26 29,26 L1,26 C0.44771525,26 6.66133815e-17,25.5522847 0,25 L0,1 C-6.66133815e-17,0.44771525 0.44771525,8.8817842e-17 1,0 L29,0 C29.5522847,2.22044605e-17 30,0.44771525 30,1 L30,18.363 Z"/>
    <path fill="#FFF" d="M15,19.6 C9.92616666,19.6082553 4.87649541,18.9013013 -5.68434189e-14,17.5 L-5.68434189e-14,19.4 C4.88594733,20.7448928 9.93236713,21.4177488 15,21.4 C20.0676329,21.4177488 25.1140527,20.7448928 30,19.4 L30,17.5 C25.1235046,18.9013013 20.0738333,19.6082553 15,19.6 Z"/>
  </g>
</svg>
