<svg xmlns="http://www.w3.org/2000/svg" width="30" height="24" viewBox="0 0 30 24">
  <g fill="none">
    <path fill="#9C3" d="M28.5888889,0.0717757009 L20.0155556,0.0717757009 C19.2472661,0.0717757009 18.6244444,0.700418123 18.6244444,1.47588785 L18.6244444,10.1293458 C18.6244444,10.9048155 19.2472661,11.5334579 20.0155556,11.5334579 L28.5888889,11.5334579 C29.3571783,11.5334579 29.98,10.9048155 29.98,10.1293458 L29.98,1.47364486 C29.9800005,1.10145709 29.8333665,0.744545848 29.5724185,0.481579811 C29.3114705,0.218613774 28.95763,0.0711802005 28.5888889,0.0717757009 Z"/>
    <path fill="#C03" d="M10.7666667,0.0538317757 L3.57777778,0.0538317757 C3.26835854,0.0538317757 2.97161231,0.17789684 2.75281987,0.398734071 C2.53402742,0.619571301 2.41111111,0.919090862 2.41111111,1.23140187 L2.41111111,8.48747664 C2.41111111,9.13783064 2.93344557,9.66504673 3.57777778,9.66504673 L10.7666667,9.66504673 C11.4109989,9.66504673 11.9333333,9.13783064 11.9333333,8.48747664 L11.9333333,1.22915888 C11.9333339,0.917053737 11.8103467,0.617764269 11.5914902,0.397283091 C11.3726336,0.176801912 11.0758814,0.0532361552 10.7666667,0.0538317757 Z"/>
    <path fill="#C03" d="M12.4666667,15.9902804 L6.60222222,15.9902804 C6.34997187,15.9902804 6.10805304,16.0914229 5.92968511,16.2714579 C5.75131717,16.4514928 5.65111111,16.6956725 5.65111111,16.9502804 L5.65111111,22.8785047 C5.65111111,23.1331125 5.75131717,23.3772923 5.92968511,23.5573272 C6.10805304,23.7373621 6.34997187,23.8385047 6.60222222,23.8385047 L12.4666667,23.8385047 C12.9919508,23.8385047 13.4177778,23.408698 13.4177778,22.8785047 L13.4177778,16.9502804 C13.4177778,16.420087 12.9919508,15.9902804 12.4666667,15.9902804 Z" opacity=".6"/>
    <rect width="3.256" height="3.284" x="14.113" y=".065" fill="#909" rx=".398"/>
    <path fill="#909" d="M21.6155556,5.8317757 L11.4844444,5.8317757 C11.0485151,5.8311803 10.6302384,6.00555376 10.3217812,6.31647301 C10.013324,6.62739226 9.8399996,7.04934197 9.84,7.48934579 L9.84,17.7151402 C9.84122613,18.6309536 10.57711,19.3727111 11.4844444,19.3727103 L21.6155556,19.3727103 C22.5225298,19.3727103 23.2577778,18.6305909 23.2577778,17.7151402 L23.2577778,7.47813084 C23.2516705,6.5670629 22.5182083,5.83175485 21.6155556,5.8317757 Z" opacity=".7"/>
    <rect width="4.693" height="4.737" y="2.487" fill="#9C3" opacity=".7" rx=".576"/>
  </g>
</svg>
