<svg xmlns="http://www.w3.org/2000/svg" width="50" height="50" viewBox="0 0 50 50">
  <g fill="none" fill-rule="evenodd">
    <circle cx="25" cy="25" r="25" fill="#FFF"/>
    <path fill="#74CDD6" fill-rule="nonzero" d="M24.9177331,0 C11.179159,0 0,11.1996337 0,24.96337 C0,38.7271062 11.179159,49.9267399 24.9177331,49.9267399 C38.7422303,49.9267399 49.9213894,38.728022 49.9213894,24.9642857 C49.9213894,11.2005495 38.7413163,0 24.9177331,0"/>
    <path fill="#FFF" fill-rule="nonzero" d="M23.7632541,16.8846154 L23.7632541,25.3122711 C23.7434569,25.9603164 23.5543501,26.5918267 23.214808,27.1437729 C23.0840951,27.3965201 22.9588665,27.6016484 22.88117,27.728022 C22.7394881,27.9487179 18.2815356,34.3040293 18.2815356,34.3040293 L16.4734918,36.8681319 C15.4396709,38.3470696 14.0054845,38.4917582 12.6563071,37.5421245 C11.3071298,36.5924908 10.9497258,35.1968864 11.9835466,33.7179487 L16.7367459,26.9001832 L17.3921389,25.959707 L17.4579525,25.8681319 C17.9707342,25.205384 18.2589469,24.3959478 18.2806216,23.5576923 L18.2806216,14.029304 C18.2806216,12.224359 19.369287,11.2820513 21.0228519,11.2820513 C22.6764168,11.2820513 23.7650823,12.2225275 23.7650823,14.029304 L23.7632541,16.8846154 Z M37.2641682,37.5412088 C35.9104205,38.4908425 34.4798903,38.3461538 33.4469835,36.8672161 L31.6389397,34.3031136 C31.6389397,34.3031136 27.1809872,27.9505495 27.0457038,27.731685 C26.9670932,27.6053114 26.8427788,27.4001832 26.7120658,27.1474359 C26.3725238,26.5954897 26.183417,25.9639794 26.1636197,25.3159341 L26.1636197,14.029304 C26.1636197,12.224359 27.2522852,11.2820513 28.9058501,11.2820513 C30.559415,11.2820513 31.6480804,12.2225275 31.6480804,14.029304 L31.6480804,23.5494505 C31.6697551,24.3877061 31.9579678,25.1971423 32.4707495,25.8598901 L32.5365631,25.9514652 L33.1919561,26.8919414 L37.9451554,33.709707 C38.9789762,35.1886447 38.6252285,36.5842491 37.2723949,37.5338828 L37.2641682,37.5412088 Z"/>
  </g>
</svg>
