<svg xmlns="http://www.w3.org/2000/svg" width="30" height="30" viewBox="0 0 30 30">
  <g fill="none">
    <path fill="#48555C" d="M11.6748837,20.0825581 L6.51627907,27.1827907 C8.78511628,28.7274419 11.5032558,29.6609302 14.4348837,29.7474419 L14.4348837,20.972093 C13.4274419,20.8995349 12.4876744,20.584186 11.6748837,20.0825581 Z"/>
    <path fill="#B2AD4B" d="M14.4111628,8.77883721 L14.4111628,0.00279069767 C11.4809302,0.0934883721 8.76418605,1.03116279 6.49744186,2.57930233 L11.6553488,9.67813953 C12.4667442,9.1744186 13.4044186,8.8555814 14.4111628,8.77883721 Z"/>
    <path fill="#E4B33A" d="M23.2423256,2.56604651 C20.9734884,1.02139535 18.2553488,0.0879069767 15.3251163,0.00139534884 L15.3251163,8.77674419 C16.3318605,8.84930233 17.2709302,9.16395349 18.0844186,9.6655814 L23.2423256,2.56604651 Z"/>
    <path fill="#4E5C5A" d="M9.22465116,17.2046512 L0.876976744,19.9172093 C1.84465116,22.6025581 3.56232558,24.93 5.77744186,26.6455814 L10.9353488,19.5460465 C10.1923256,18.9181395 9.60139535,18.1165116 9.22465116,17.2046512 Z"/>
    <path fill="#9F9540" d="M10.917907,10.2181395 L5.75860465,3.11790698 C3.54627907,4.83697674 1.83209302,7.16651163 0.868604651,9.85395349 L9.21627907,12.565814 C9.58953488,11.6518605 10.1776744,10.8488372 10.917907,10.2181395 Z"/>
    <path fill="#6A7B54" d="M8.76418605,14.8744186 C8.76418605,14.3790698 8.82488372,13.8969767 8.93581395,13.435814 L0.58744186,10.7232558 C0.205116279,12.0411628 0,13.4337209 0,14.8744186 C0,16.3234884 0.207906977,17.7237209 0.59372093,19.047907 L8.94139535,16.3353488 C8.82697674,15.8672093 8.76418605,15.3781395 8.76418605,14.8744186 Z"/>
    <path fill="#D55641" d="M18.842093,19.5306977 L24.0006977,26.6309302 C26.2137209,24.9118605 27.9272093,22.5816279 28.89,19.8948837 L20.5430233,17.1830233 C20.1697674,18.0969767 19.5823256,18.9 18.842093,19.5306977 Z"/>
    <path fill="#993428" d="M15.3481395,20.9706977 L15.3481395,29.7467442 C18.2783721,29.6560465 20.9951163,28.7183721 23.2618605,27.1695349 L18.1039535,20.0706977 C17.2932558,20.5744186 16.3548837,20.8939535 15.3481395,20.9706977 Z"/>
    <path fill="#E8703E" d="M29.1648837,10.7009302 L20.8172093,13.4134884 C20.9330233,13.8816279 20.9944186,14.3706977 20.9944186,14.8744186 C20.9944186,15.3697674 20.9344186,15.8511628 20.8227907,16.3123256 L29.1711628,19.0248837 C29.5527907,17.7069767 29.7586047,16.3144186 29.7586047,14.8737209 C29.7593023,13.4253488 29.552093,12.0251163 29.1648837,10.7009302 Z"/>
    <path fill="#F2A838" d="M20.5339535,12.544186 L28.8823256,9.83162791 C27.9153488,7.1455814 26.1969767,4.81953488 23.9818605,3.10325581 L18.8239535,10.2027907 C19.5662791,10.8306977 20.157907,11.6316279 20.5339535,12.544186 Z"/>
  </g>
</svg>
