<svg xmlns="http://www.w3.org/2000/svg" width="34" height="29" viewBox="0 0 34 29">
  <g fill="none">
    <path fill="#E9BA2C" d="M18.1005926,0 C15.7936296,0 13.6944444,0.6675 12.1946667,2.22875 C11.6418519,2.80375 11.146963,3.40125 10.715037,4.01625 C12.1556296,4.32875 13.4237037,5.08 14.1125185,6.55375 C14.9058519,8.165 15.0443704,12.5575 13.6188889,14.95375 C14.081037,15.45625 14.4399259,16.06 14.7182222,16.69125 C15.2068148,17.79625 15.8162963,19.32 15.8792593,20.81375 C16.9811111,21.40875 18.1446667,21.8975 18.8762963,22.0775 C19.9353333,22.33875 21.0258519,22.44 22.1025185,22.44 C22.9437037,22.44 23.7760741,22.3775 24.576963,22.2825 C26.9078519,22.00375 29.0145926,21.02375 30.6428148,19.4925 C33.631037,16.68625 35.0502222,11.8875 32.3428148,7.6825 C29.6001481,3.43 23.3214815,0 18.0993333,0"/>
    <path fill="#5EB8DD" d="M8.874,3.83375 C7.77340741,3.83375 6.6702963,4.0025 5.72081481,4.23375 C2.48325926,4.985 1.60051852,6.56 1.67481481,9.86 C1.72518519,12.41125 2.97059259,14.96125 4.95896296,16.315 C5.35311111,15.84625 5.79511111,15.4275 6.27740741,15.07625 C7.21177778,14.39375 8.364,13.84625 9.54266667,13.65375 C8.0857037,10.15125 8.71155556,6.87375 10.7137778,4.01625 C10.1088559,3.89029557 9.49206881,3.82911229 8.874,3.83375"/>
    <path fill="#568626" d="M10.7162963,4.01625 C8.71281481,6.87375 8.0857037,10.15 9.54266667,13.65375 C9.83646477,13.6047942 10.1337965,13.579711 10.4317037,13.57875 C11.1582963,13.57875 11.8773333,13.73625 12.5422222,14.1 C12.9527407,14.325 13.3103704,14.61625 13.6188889,14.95375 C15.0456296,12.5575 14.9058519,8.165 14.1125185,6.55375 C13.4237037,5.08 12.1556296,4.32875 10.715037,4.01625"/>
    <path fill="#EC008C" d="M4.95896296,16.315 C3.41007407,18.155 2.60792593,20.75875 3.13303704,23.0125 L3.13303704,23.01625 C3.23377778,23.01 3.33325926,23.00625 3.43274074,23.00625 C4.36711111,23.00625 5.29644444,23.28625 5.72081481,24.19375 C5.95503704,24.67 6.08725926,25.695 5.93866667,26.6375 C6.94355556,27.20625 7.93711111,27.5025 8.92940741,27.5025 C10.8976296,27.5025 12.8608148,26.34 14.8957778,23.845 C15.6802963,22.96375 15.9233333,21.89625 15.878,20.81375 C14.8227407,20.24375 13.8228889,19.57625 13.3154074,18.98875 C12.6062668,18.2871369 11.9481235,17.5365055 11.3459259,16.7425 C10.2906667,17.19125 9.67740741,17.1675 8.67125926,17.28 C7.35745097,17.4062982 6.04130006,17.0637256 4.95896296,16.31375"/>
    <path fill="#D80018" d="M13.6188889,14.95375 C13.3204444,15.45625 12.9527407,15.87 12.5082222,16.15375 C12.1326549,16.3718998 11.7445607,16.5680678 11.3459259,16.74125 C11.9037778,17.485 12.5585926,18.23375 13.3154074,18.98875 C13.8228889,19.57625 14.8227407,20.24375 15.878,20.81375 C15.8162963,19.32 15.2068148,17.79625 14.7194815,16.6925 C14.4399259,16.06 14.081037,15.455 13.6188889,14.95375"/>
    <path fill="#570079" d="M9.54266667,13.65375 C8.36525926,13.84625 7.21303704,14.39375 6.27740741,15.07625 C5.78951983,15.434771 5.34685759,15.8502565 4.95896296,16.31375 C6.04120597,17.0639277 7.35743307,17.40652 8.67125926,17.28 C9.67866667,17.16625 10.2906667,17.19125 11.3459259,16.7425 C10.6174766,15.7915613 10.0116897,14.7539266 9.54266667,13.65375"/>
    <path fill="#500014" d="M10.4317037,13.58 C10.1332593,13.58 9.83733333,13.605 9.54266667,13.655 C9.96451852,14.66625 10.5588889,15.6975 11.3459259,16.7425 C11.6796296,16.6 12.0586667,16.41 12.5082222,16.15375 C12.9527407,15.87 13.3204444,15.45625 13.6188889,14.95375 C13.3096939,14.612378 12.9459295,14.3239286 12.5422222,14.1 C11.8948429,13.7509924 11.1683532,13.5719963 10.4317037,13.58"/>
    <path fill="#F1812D" d="M3.13303704,23.01625 L3.10281481,23.01875 C2.74896296,23.0425 2.39762963,23.0975 2.05133333,23.18125 C0.635925926,23.50875 0.250592593,24.19875 0.283333333,25.64125 C0.313555556,27.26875 1.46074074,28.89625 3.10407407,28.89625 C3.18340741,28.89625 3.26148148,28.8925 3.34207407,28.885 C3.92133333,28.82 4.61392593,28.7275 5.01940741,28.3925 C5.64903704,27.86875 5.87066667,27.48625 5.93866667,26.63625 C5.93866667,26.63625 5.70318519,26.5025 5.58607407,26.42875 C4.22103704,25.56875 3.44533333,24.35375 3.13303704,23.01625"/>
    <path fill="#DF0019" d="M3.43274074,23.00625 C3.332,23.00625 3.23251852,23.01 3.13303704,23.01625 C3.44407407,24.35375 4.22103704,25.56875 5.58733333,26.42875 C5.70444444,26.5025 5.93866667,26.6375 5.93866667,26.6375 C6.08725926,25.695 5.95503704,24.67 5.72081481,24.195 C5.29518519,23.28625 4.36711111,23.0075 3.43274074,23.0075"/>
    <path fill="#CE143F" d="M5.74977778,24.18875 C5.27503704,23.17375 4.17066667,22.94375 3.13177778,23.01375 C3.44281481,24.35125 4.21977778,25.5675 5.58733333,26.4275 C5.70444444,26.5025 5.82155556,26.57125 5.93866667,26.6375 C6.08725926,25.695 5.984,24.665 5.74977778,24.18875"/>
  </g>
</svg>
