<svg xmlns="http://www.w3.org/2000/svg" width="50" height="50" viewBox="0 0 50 50">
  <g fill="none" fill-rule="evenodd">
    <circle cx="25" cy="25" r="25" fill="#FE5000"/>
    <path fill="#FFF" d="M3,0 C1.3425,0 0,1.347 0,3 L0,27 C0,28.6575 1.347,30 3,30 L27,30 C28.6575,30 30,28.653 30,27 L30,3 C30,1.3425 28.653,0 27,0 L3,0 Z M15.162,23.625 C14.7404415,23.6305929 14.3219305,23.5528549 13.9305,23.39625 C13.5814826,23.255321 13.2640505,23.0462493 12.99675,22.78125 C12.7494359,22.5273811 12.5574002,22.2250271 12.43275,21.89325 C12.30075,21.5595 12.25125,21.19725 12.25125,20.81625 L12.25125,8.17125 L11.25,8.17125 L11.25,6.375 L14.5875,6.375 L14.5875,19.75275 C14.5875,19.89375 14.57475,20.05425 14.60925,20.23125 C14.64525,20.4165 14.694,20.59125 14.78475,20.751 C14.88,20.91825 15.015,21.06375 15.2025,21.183 C15.393,21.3045 15.62775,21.366 15.9075,21.366 C16.24875,21.366 16.62075,21.249 17.016,21.0165 C17.36775,20.81025 17.65125,20.43 17.88075,19.85925 L18.6855,20.95425 C18.693,20.97975 18.7035,21.006 18.7185,21.03525 C18.7326278,21.0593672 18.7432351,21.0853804 18.75,21.1125 C18.75,21.189 18.71625,21.35925 18.555,21.70275 C18.42375,21.98175 18.21,22.26675 17.922,22.5495 C17.63175,22.833 17.25225,23.0865 16.794,23.30325 C16.341,23.517 15.792,23.625 15.162,23.625 Z" transform="translate(10 10)"/>
  </g>
</svg>
