<svg xmlns="http://www.w3.org/2000/svg" width="24" height="30" viewBox="0 0 24 30">
  <g fill="none">
    <path fill="#E13526" d="M17.3217391,5.48275862 L6.26086957,5.48275862 C5.63478261,5.48275862 5.11304348,6 5.11304348,6.62068966 L5.11304348,15.1034483 C5.11304348,15.7241379 5.63478261,16.2413793 6.26086957,16.2413793 L17.3217391,16.2413793 C17.9478261,16.2413793 18.4695652,15.7241379 18.4695652,15.1034483 L18.4695652,6.62068966 C18.3652174,6 17.9478261,5.48275862 17.3217391,5.48275862 Z"/>
    <path fill="#FFF" d="M8.34782609,9.4137931 L8.66086957,9.4137931 C8.66086957,9.93103448 9.07826087,10.3448276 9.6,10.3448276 C10.1217391,10.3448276 10.5391304,9.93103448 10.5391304,9.4137931 L10.8521739,9.4137931 C10.8521739,10.137931 10.3304348,10.6551724 9.6,10.6551724 C8.86956522,10.6551724 8.34782609,10.137931 8.34782609,9.4137931 Z M11.7913043,13.6551724 C10.6434783,13.6551724 9.6,12.8275862 9.6,11.7931034 L9.91304348,11.7931034 C9.91304348,12.2068966 10.1217391,12.6206897 10.4347826,12.9310345 C10.7478261,13.2413793 11.2695652,13.4482759 11.7913043,13.4482759 C12.3130435,13.4482759 12.8347826,13.2413793 13.1478261,12.9310345 C13.4608696,12.6206897 13.6695652,12.2068966 13.6695652,11.7931034 L13.9826087,11.7931034 C13.9826087,12.8275862 12.9391304,13.6551724 11.7913043,13.6551724 Z M13.773913,10.6551724 C13.0434783,10.6551724 12.5217391,10.137931 12.5217391,9.4137931 L12.8347826,9.4137931 C12.8347826,9.93103448 13.2521739,10.3448276 13.773913,10.3448276 C14.2956522,10.3448276 14.7130435,9.93103448 14.7130435,9.4137931 L15.026087,9.4137931 C15.026087,10.137931 14.5043478,10.6551724 13.773913,10.6551724 Z"/>
    <path fill="#E13526" d="M21.6,16.9655172 L1.87826087,16.9655172 C0.834782609,16.9655172 0,17.7931034 0,18.8275862 L0,30 L4.27826087,30 L4.27826087,22.6551724 L5.00869565,22.6551724 L5.00869565,30 L18.3652174,30 L18.3652174,22.6551724 L19.0956522,22.6551724 L19.0956522,30 L23.4782609,30 L23.4782609,18.9310345 C23.5826087,17.8965517 22.7478261,16.9655172 21.6,16.9655172 Z M20.3478261,12.9310345 C20.3478261,13.2413793 20.0347826,13.5517241 19.7217391,13.5517241 C19.4086957,13.5517241 19.0956522,13.2413793 19.0956522,12.9310345 L19.0956522,8.68965517 C19.0956522,8.37931034 19.4086957,8.06896552 19.7217391,8.06896552 C20.0347826,8.06896552 20.3478261,8.37931034 20.3478261,8.68965517 L20.3478261,12.9310345 Z M4.3826087,12.9310345 C4.3826087,13.2413793 4.06956522,13.5517241 3.75652174,13.5517241 C3.44347826,13.5517241 3.13043478,13.2413793 3.13043478,12.9310345 L3.13043478,8.68965517 C3.13043478,8.37931034 3.44347826,8.06896552 3.75652174,8.06896552 C4.06956522,8.06896552 4.3826087,8.37931034 4.3826087,8.68965517 L4.3826087,12.9310345 Z M12.9391304,1.13793103 C12.9391304,0.517241379 12.4173913,0 11.7913043,0 C11.1652174,0 10.6434783,0.517241379 10.6434783,1.13793103 C10.6434783,1.55172414 10.9565217,1.96551724 11.2695652,2.17241379 L10.9565217,4.86206897 L12.7304348,4.86206897 L12.4173913,2.17241379 C12.626087,2.06896552 12.9391304,1.65517241 12.9391304,1.13793103 Z"/>
  </g>
</svg>
