<svg xmlns="http://www.w3.org/2000/svg" width="50" height="13" viewBox="0 0 50 13">
  <g fill="none">
    <path fill="#000" d="M6.52968037 6.85135135C5.69634703 6.85135135 5.03424658 7.19099099 4.56621005 7.85855856 4.24657534 7.22612613 3.60730594 6.83963964 2.9109589 6.85135135 2.24885845 6.82792793 1.62100457 7.12072072 1.19863014 7.64774775L1.19863014 7.53063063C1.19863014 7.19099099.924657534 6.90990991.593607306 6.90990991.262557078 6.90990991 0 7.19099099 0 7.53063063L0 12.2504505C.0114155251 12.5900901.296803653 12.8594595.627853881 12.836036.936073059 12.8243243 1.18721461 12.5666667 1.19863014 12.2504505L1.19863014 8.98288288C1.47260274 8.52612613 1.88356164 8.01081081 2.62557078 8.01081081 3.33333333 8.01081081 3.60730594 8.36216216 3.60730594 9.27567568L3.60730594 12.2504505C3.61872146 12.5900901 3.90410959 12.8594595 4.23515982 12.836036 4.543379 12.8243243 4.79452055 12.5666667 4.80593607 12.2504505L4.80593607 8.98288288C5.07990868 8.52612613 5.49086758 8.01081081 6.23287671 8.01081081 6.94063927 8.01081081 7.21461187 8.36216216 7.21461187 9.27567568L7.21461187 12.2504505C7.2260274 12.5900901 7.51141553 12.8594595 7.84246575 12.836036 8.15068493 12.8243243 8.40182648 12.5666667 8.41324201 12.2504505L8.41324201 9.07657658C8.43607306 7.9990991 7.84246575 6.85135135 6.52968037 6.85135135zM12.283105 6.85135135C11.6324201 6.85135135 10.9817352 6.99189189 10.3881279 7.26126126 10.1712329 7.34324324 10.0342466 7.55405405 10.0342466 7.78828829 10.0342466 8.08108108 10.2511416 8.31531532 10.5365297 8.32702703 10.5365297 8.32702703 10.5479452 8.32702703 10.5479452 8.32702703 10.6050228 8.32702703 10.6621005 8.31531532 10.7191781 8.3036036 11.1643836 8.13963964 11.6324201 8.04594595 12.1118721 8.04594595 13.0365297 8.04594595 13.4246575 8.3972973 13.4360731 9.26396396L12.2488584 9.26396396C10.6392694 9.25225225 9.66894977 9.95495495 9.66894977 11.1495495 9.66894977 12.309009 10.6050228 12.918018 11.5296804 12.918018 12.2260274 12.9414414 12.8995434 12.6954955 13.4360731 12.2387387L13.4360731 12.2504505C13.4474886 12.5900901 13.7328767 12.8594595 14.0639269 12.836036 14.3721461 12.8243243 14.6232877 12.5666667 14.6347032 12.2504505L14.6347032 9.13513514C14.6347032 7.9990991 13.9041096 6.85135135 12.283105 6.85135135zM11.8949772 11.8054054C11.2214612 11.8054054 10.8675799 11.5477477 10.8675799 11.0441441 10.8675799 10.8567568 10.8675799 10.2945946 12.3744292 10.2945946L13.4360731 10.2945946 13.4360731 11.0558559C13.1164384 11.4072072 12.5342466 11.8054054 11.8949772 11.8054054zM16.9292237 4.64954955L16.9977169 4.64954955C17.3630137 4.64954955 17.6598174 4.95405405 17.6598174 5.32882883L17.6598174 5.37567568C17.6598174 5.75045045 17.3630137 6.05495495 16.9977169 6.05495495L16.9292237 6.05495495C16.5639269 6.05495495 16.2671233 5.75045045 16.2671233 5.37567568L16.2671233 5.32882883C16.2671233 4.95405405 16.5639269 4.64954955 16.9292237 4.64954955zM16.9520548 6.8981982C16.6210046 6.8981982 16.3584475 7.16756757 16.3584475 7.50720721 16.3584475 7.50720721 16.3584475 7.51891892 16.3584475 7.51891892L16.3584475 12.2387387C16.369863 12.5783784 16.6552511 12.8477477 16.9863014 12.8243243 17.2945205 12.8126126 17.5456621 12.554955 17.5570776 12.2387387L17.5570776 7.51891892C17.5570776 7.17927928 17.2945205 6.8981982 16.9520548 6.8981982 16.9520548 6.8981982 16.9520548 6.8981982 16.9520548 6.8981982zM20 4.47387387C19.6689498 4.47387387 19.4063927 4.74324324 19.4063927 5.08288288 19.4063927 5.08288288 19.4063927 5.09459459 19.4063927 5.09459459L19.4063927 12.2387387C19.4178082 12.5783784 19.7031963 12.8477477 20.0342466 12.8243243 20.3424658 12.8126126 20.5936073 12.554955 20.6050228 12.2387387L20.6050228 5.09459459C20.6050228 4.75495495 20.3424658 4.47387387 20.0114155 4.47387387 20 4.47387387 20 4.47387387 20 4.47387387zM24.760274 6.85135135C23.9041096 6.85135135 23.196347 7.17927928 22.716895 7.8 22.3059361 8.33873874 22.0776256 9.07657658 22.0776256 9.88468468 22.0776256 11.781982 23.1621005 12.918018 24.9657534 12.918018 25.9589041 12.918018 26.4497717 12.6837838 26.9063927 12.4144144 27.1004566 12.3207207 27.2260274 12.1216216 27.2488584 11.8990991 27.2488584 11.5945946 27.0091324 11.3486486 26.7237443 11.3486486 26.7237443 11.3486486 26.7123288 11.3486486 26.7123288 11.3486486 26.6324201 11.3486486 26.5410959 11.3603604 26.4726027 11.4072072 26.0388128 11.6414414 25.5593607 11.7468468 25.0799087 11.7351351 24.0753425 11.7351351 23.4817352 11.254955 23.3333333 10.3414414L26.826484 10.3414414C27.1461187 10.3531532 27.4200913 10.0954955 27.4315068 9.76756757 27.4315068 9.75585586 27.4315068 9.74414414 27.4315068 9.72072072 27.4315068 7.75315315 26.0502283 6.85135135 24.760274 6.85135135zM24.760274 7.92882883C25.2625571 7.92882883 26.1073059 8.22162162 26.2214612 9.2990991L23.2990868 9.2990991C23.413242 8.35045045 24.0981735 7.92882883 24.760274 7.92882883zM31.5981735 6.85135135L31.5410959 6.85135135C30.9703196 6.85135135 30.4452055 7.13243243 29.9657534 7.67117117L29.9657534 7.53063063C29.9657534 7.19099099 29.6917808 6.90990991 29.3607306 6.90990991 29.0296804 6.90990991 28.7557078 7.19099099 28.7671233 7.53063063L28.7671233 12.2504505C28.7785388 12.5900901 29.0639269 12.8594595 29.3949772 12.836036 29.7031963 12.8243243 29.9543379 12.5666667 29.9657534 12.2504505L29.9657534 8.93603604C30.3538813 8.36216216 30.9018265 8.04594595 31.5182648 8.04594595L31.5753425 8.04594595C31.8949772 8.06936937 32.1575342 7.82342342 32.1803653 7.4954955 32.1803653 7.48378378 32.1803653 7.47207207 32.1803653 7.46036036 32.1917808 7.13243243 31.9292237 6.85135135 31.609589 6.83963964 31.609589 6.85135135 31.5981735 6.85135135 31.5981735 6.85135135z"/>
    <path fill="#21C16C" d="M48.2191781,0 L36.0730594,0 C35.1255708,0 34.3607306,0.784684685 34.3607306,1.75675676 L34.3607306,12.918018 L36.7237443,10.5171171 L48.2305936,10.5171171 C49.1780822,10.5171171 49.9429224,9.73243243 49.9429224,8.76036036 L49.9429224,1.75675676 C49.9315068,0.784684685 49.1666667,0 48.2191781,0 Z M38.0022831,7.87027027 C38.0022831,8.12792793 37.7968037,8.33873874 37.5456621,8.33873874 C37.2945205,8.33873874 37.0890411,8.12792793 37.0890411,7.87027027 L37.0890411,2.89279279 C37.0890411,2.63513514 37.2945205,2.42432432 37.5456621,2.42432432 C37.7968037,2.42432432 38.0022831,2.63513514 38.0022831,2.89279279 L38.0022831,7.87027027 Z M40.1255708,7.87027027 C40.1255708,8.12792793 39.9200913,8.33873874 39.6689498,8.33873874 C39.4178082,8.33873874 39.2123288,8.12792793 39.2123288,7.87027027 L39.2123288,4.57927928 C39.2123288,4.32162162 39.4178082,4.11081081 39.6689498,4.11081081 C39.9200913,4.11081081 40.1255708,4.32162162 40.1255708,4.57927928 L40.1255708,7.87027027 Z M40.1826484,3.08018018 C40.1826484,3.36126126 39.9657534,3.58378378 39.6917808,3.58378378 L39.6461187,3.58378378 C39.3721461,3.58378378 39.1552511,3.36126126 39.1552511,3.08018018 L39.1552511,3.04504505 C39.1552511,2.76396396 39.3721461,2.54144144 39.6461187,2.54144144 L39.6917808,2.54144144 C39.9657534,2.54144144 40.1826484,2.76396396 40.1826484,3.04504505 L40.1826484,3.08018018 Z M43.4018265,8.22162162 C43.196347,8.32702703 42.9680365,8.37387387 42.7283105,8.37387387 C41.9406393,8.37387387 41.5182648,7.98738739 41.5182648,7.24954955 L41.5182648,4.98918919 L41.1073059,4.98918919 C40.9703196,4.98918919 40.8561644,4.88378378 40.8561644,4.74324324 C40.8561644,4.74324324 40.8561644,4.73153153 40.8561644,4.73153153 C40.8561644,4.64954955 40.9018265,4.56756757 40.9703196,4.50900901 L41.9863014,3.49009009 C42.043379,3.43153153 42.1118721,3.3963964 42.1917808,3.38468468 C42.3287671,3.38468468 42.4543379,3.5018018 42.4543379,3.64234234 C42.4543379,3.64234234 42.4543379,3.64234234 42.4543379,3.65405405 L42.4543379,4.14594595 L43.1849315,4.14594595 C43.413242,4.14594595 43.5958904,4.33333333 43.5958904,4.56756757 C43.5958904,4.8018018 43.413242,4.98918919 43.1849315,4.98918919 L43.1849315,4.98918919 L42.4543379,4.98918919 L42.4543379,7.19099099 C42.4543379,7.50720721 42.6141553,7.53063063 42.8310502,7.53063063 C42.9223744,7.53063063 43.0136986,7.51891892 43.0936073,7.4954955 C43.1506849,7.47207207 43.2191781,7.47207207 43.2762557,7.46036036 C43.4817352,7.46036036 43.652968,7.63603604 43.6643836,7.85855856 C43.6415525,8.01081081 43.5388128,8.16306306 43.4018265,8.22162162 Z M46.1986301,7.4954955 C46.5296804,7.50720721 46.8607306,7.42522523 47.1575342,7.27297297 C47.2146119,7.23783784 47.283105,7.22612613 47.3401826,7.22612613 C47.5684932,7.22612613 47.7511416,7.4018018 47.7511416,7.63603604 C47.7511416,7.63603604 47.7511416,7.63603604 47.7511416,7.64774775 C47.739726,7.81171171 47.6484018,7.96396396 47.5,8.03423423 C47.1803653,8.22162162 46.8378995,8.38558559 46.130137,8.38558559 C44.8515982,8.38558559 44.0753425,7.57747748 44.0753425,6.23063063 C44.0753425,4.64954955 45.1027397,4.07567568 45.9703196,4.07567568 C47.2716895,4.07567568 47.8652968,5.14144144 47.8652968,6.12522523 C47.8767123,6.37117117 47.6826484,6.58198198 47.4429224,6.59369369 C47.4315068,6.59369369 47.4200913,6.59369369 47.4086758,6.59369369 L45.0114155,6.59369369 C45.1369863,7.17927928 45.5479452,7.4954955 46.1986301,7.4954955 Z"/>
    <path fill="#21C16C" d="M45.9931507,4.90720721 C45.4908676,4.8954955 45.0684932,5.28198198 45.0228311,5.7972973 L46.9748858,5.7972973 C46.9178082,5.28198198 46.4954338,4.8954955 45.9931507,4.90720721 Z"/>
  </g>
</svg>
