<svg xmlns="http://www.w3.org/2000/svg" width="30" height="30" viewBox="0 0 30 30">
  <defs>
    <linearGradient id="manifold-a" x1="2.664%" x2="99.101%" y1="57.641%" y2="57.641%">
      <stop offset="0%" stop-color="#FF2C5F"/>
      <stop offset="100%" stop-color="#FDD632"/>
    </linearGradient>
    <linearGradient id="manifold-b" x1="50%" x2="50%" y1="0%" y2="100%">
      <stop offset="0%" stop-color="#195F9E"/>
      <stop offset="100%" stop-color="#15265D"/>
    </linearGradient>
    <linearGradient id="manifold-c" x1="50%" y1="0%" y2="92.319%">
      <stop offset="0%" stop-color="#309CD0"/>
      <stop offset="100%" stop-color="#1881B4"/>
    </linearGradient>
    <linearGradient id="manifold-d" x1="78.885%" x2="-2.809%" y1="23.357%" y2="100%">
      <stop offset="0%" stop-color="#4C51A4"/>
      <stop offset="100%" stop-color="#9A4DB3"/>
    </linearGradient>
  </defs>
  <g fill="none" fill-rule="evenodd">
    <circle cx="15.029" cy="14.992" r="14.913" fill="#000" fill-rule="nonzero" transform="matrix(1 0 0 -1 0 29.984)"/>
    <circle cx="15.029" cy="14.992" r="14.913" fill="url(#manifold-a)" transform="matrix(1 0 0 -1 0 29.984)"/>
    <path fill="url(#manifold-b)" fill-rule="nonzero" d="M29.7195124,20.826781 C26.8930661,21.9300868 15.587281,26.3309132 15.141,26.4796735 C14.8434793,26.5788471 13.2814959,27.2978554 11.8062893,26.7276074 C8.39719835,25.4011612 8.5087686,18.2978554 7.36827273,17.2813264 L5.03769421,15.2358719 L14.8434793,6.50859915 C14.8434793,6.50859915 24.0790165,3.66975618 29.9054628,19.3019876 C29.8682727,19.8226488 29.818686,20.3309132 29.7195124,20.826781 Z" transform="matrix(1 0 0 -1 0 33.252)"/>
    <path fill="url(#manifold-c)" fill-rule="nonzero" d="M29.7319091,29.4806653 C27.1533967,30.5839711 26.0252975,29.2327314 25.7525702,28.8360372 C25.7153802,28.7864504 25.6905868,28.7492603 25.6905868,28.7492603 C25.1079421,27.8195083 24.6368678,26.4682686 24.3517438,24.707938 L24.2525702,24.0757066 C24.0542231,22.885624 23.7814959,21.869095 23.4343884,21.0633099 C22.963314,19.922814 22.3682727,19.1790124 21.7112479,18.831905 C21.426124,18.6831446 21.1038099,18.6087645 20.7938926,18.6211612 C19.8889339,18.6459545 18.9219917,19.3525661 17.9922397,20.815376 C17.3848017,21.7575248 16.8393471,22.4517397 16.2195124,22.7864504 C13.9385207,24.0013264 11.7443058,21.2120702 11.7443058,17.0219876 C11.7443058,15.4847975 12.0542231,13.761657 12.4509174,12.2368636 C13.2938926,12.0881033 14.1492645,12.0137231 15.0294298,12.0137231 C23.2732314,12.0137231 29.9426529,18.6955413 29.9426529,26.9269463 C29.9426529,27.7947149 29.8682727,28.6500868 29.7319091,29.4806653 Z" transform="matrix(1 0 0 -1 0 41.919)"/>
    <path fill="#000" fill-rule="nonzero" d="M15.7856281,19.0207066 L16.0583554,18.9091364 C15.9715785,18.9463264 15.8848017,18.9835165 15.7856281,19.0207066 Z" transform="matrix(1 0 0 -1 0 37.942)"/>
    <path fill="url(#manifold-d)" fill-rule="nonzero" d="M0.116206612,27.3636818 C0.116206612,19.9008719 5.59554545,13.7149215 12.7608347,12.6240124 C12.3641405,14.0620289 12.0294298,15.7107893 12.0294298,17.1735992 C12.0294298,20.8058306 13.7401736,24.1157479 15.8104215,23.4339298 L0.314553719,29.7314504 C0.178190083,28.9628554 0.116206612,28.1694669 0.116206612,27.3636818 Z" transform="matrix(1 0 0 -1 0 42.355)"/>
  </g>
</svg>
