<svg xmlns="http://www.w3.org/2000/svg" width="30" height="30" viewBox="0 0 30 30">
  <path fill="#4264FB" d="M14.9329609,0.133333333 C6.68715084,0.133333333 0,6.78333333 0,14.9833333 C0,23.1833333 6.68715084,29.8333333 14.9329609,29.8333333 C23.1787709,29.8333333 29.8659218,23.1833333 29.8659218,14.9833333 C29.8659218,6.78333333 23.1787709,0.133333333 14.9329609,0.133333333 Z M16.4748603,5.9 C18.3854749,5.95 20.3128492,6.7 21.7877095,8.18333333 C24.7541899,11.1333333 24.8547486,15.8 22.0223464,18.6333333 C16.9106145,23.7166667 7.81005587,22.0833333 7.81005587,22.0833333 C7.81005587,22.0833333 6.16759777,13.0333333 11.2793296,7.95 C12.7039106,6.55 14.5810056,5.86666667 16.4748603,5.9 Z M16.6424581,8.83333333 L15.1843575,11.8333333 L12.1843575,13.2833333 L15.1843575,14.7333333 L16.6424581,17.7333333 L18.1173184,14.7333333 L21.1173184,13.2833333 L18.1173184,11.8333333 L16.6424581,8.83333333 Z"/>
</svg>
