<svg xmlns="http://www.w3.org/2000/svg" width="40" height="32" viewBox="0 0 40 32">
  <path d="M38.3130435,14.4765714 C37.3819095,14.4768872 36.6267271,13.7332604 36.626087,12.8154286 C36.626727,11.8975043 37.3818157,11.1537141 38.3130435,11.1537143 C39.2446377,11.1537143 40,11.8965714 40,12.8108571 C40,13.7251429 39.2446377,14.468 38.3130435,14.468 L38.3130435,14.4765714 Z M31.3553623,4.33142857 C30.881673,4.34854773 30.4363405,4.10921152 30.1943399,3.70745714 C29.9523393,3.30570276 29.9523393,2.80572581 30.1943399,2.40397143 C30.4363405,2.00221705 30.881673,1.76288084 31.3553623,1.78 C32.04868,1.80893767 32.5956468,2.37140305 32.5956468,3.05542857 C32.5956468,3.73945409 32.04868,4.30191948 31.3553623,4.33085714 L31.3553623,4.33142857 Z M16.1147826,31.7411429 C7.21391304,31.7411429 0,24.636 0,15.8708571 C0,7.10514286 7.21449275,0 16.1142029,0 C25.0144928,0 32.2289855,7.10571429 32.2289855,15.8708571 C32.2289855,24.6365714 25.0144928,31.7411429 16.1142029,31.7411429 L16.1147826,31.7411429 Z M8.52927536,22.4022857 L9.11130435,22.4022857 L9.11130435,21.9565714 L9.12173913,21.9565714 C9.18550725,22.0205714 9.26318841,22.1377143 9.35594203,22.2062857 C9.44869565,22.2805714 9.54724638,22.3262857 9.6515942,22.3662857 C9.84268027,22.4372484 10.0445535,22.4758871 10.2486957,22.4805714 C10.5153623,22.4805714 10.7472464,22.4348571 10.9501449,22.3434286 C11.1472464,22.252 11.3153623,22.1262857 11.4486957,21.9605714 C11.582029,21.8005714 11.6805797,21.612 11.7443478,21.3891429 C11.8081159,21.172 11.8428986,20.9434286 11.8428986,20.6977143 C11.8428986,20.452 11.8081159,20.2234286 11.7385507,20.0062857 C11.6689855,19.7891429 11.5704348,19.5948571 11.4371014,19.4291429 C11.3015233,19.2616859 11.1290495,19.1268505 10.9327536,19.0348571 C10.7298551,18.9377143 10.4921739,18.8862857 10.2197101,18.8862857 C9.97623188,18.8862857 9.75014493,18.932 9.54724638,19.0177143 C9.34434783,19.1091429 9.19362319,19.2462857 9.10086957,19.4348571 L9.09507246,19.4348571 L9.09507246,17.652 L8.51536232,17.652 L8.51536232,22.4291429 L8.52927536,22.4022857 Z M12.5362319,11.884 C12.5362319,11.3445714 12.4237681,10.9354286 12.1953623,10.648 C11.9669565,10.3611429 11.6127536,10.2217143 11.1286957,10.2217143 C10.7843478,10.2217143 10.4869565,10.304 10.2382609,10.4525714 C9.98898551,10.6011429 9.80927536,10.8194286 9.69913043,11.1382857 L9.68173913,11.1382857 C9.60637681,10.8194286 9.45565217,10.6125714 9.22376812,10.46 C8.99768116,10.308 8.71362319,10.2177143 8.3773913,10.2177143 C8.06434783,10.2177143 7.79188406,10.2805714 7.56,10.3891429 C7.33391304,10.5034286 7.13101449,10.692 6.94550725,10.9491429 L6.92811594,10.9491429 L6.92811594,10.3777143 L5.49565217,10.3777143 L5.49565217,15.9148571 L6.98086957,15.9148571 L6.98086957,12.2691429 C6.98086957,11.9377143 7.05043478,11.6977143 7.18956522,11.5434286 C7.32521739,11.3948571 7.5142029,11.3148571 7.74608696,11.3148571 C7.94898551,11.3148571 8.10144928,11.3777143 8.18956522,11.5034286 C8.27652174,11.6291429 8.33623188,11.812 8.33623188,12.0462857 L8.33623188,15.9148571 L9.75652174,15.9148571 L9.75652174,12.2748571 C9.75652174,11.9434286 9.83014493,11.7034286 9.96695652,11.5491429 C10.1037681,11.3948571 10.293913,11.3205714 10.5234783,11.3205714 C10.7292754,11.3205714 10.8817391,11.3834286 10.9698551,11.5091429 C11.0568116,11.6348571 11.1147826,11.8177143 11.1147826,12.052 L11.1147826,15.9205714 L12.537971,15.9205714 L12.537971,11.8857143 L12.5362319,11.884 Z M12.6162319,19.4954286 C12.5350725,19.6411429 12.4898551,19.7925714 12.4805797,20.048 L13.0544928,20.048 C13.066087,19.7931429 13.1530435,19.6091429 13.3153623,19.5177143 C13.4776812,19.4262857 13.6805797,19.3691429 13.924058,19.3691429 C14.0110145,19.3691429 14.1037681,19.3748571 14.1965217,19.3885714 C14.2892754,19.4022857 14.3704348,19.4285714 14.4457971,19.4685714 C14.5211594,19.5085714 14.5791304,19.5668571 14.6255072,19.6428571 C14.6718841,19.7182857 14.6950725,19.8188571 14.6950725,19.9434286 C14.6950725,20.052 14.666087,20.132 14.6023188,20.1891429 C14.5385507,20.2462857 14.4515942,20.2862857 14.3414493,20.3148571 C14.2313043,20.3434286 14.1037681,20.3662857 13.9646377,20.3834286 C13.8197101,20.4005714 13.6689855,20.4234286 13.5124638,20.4577143 C13.3617391,20.4862857 13.2168116,20.5205714 13.0718841,20.5605714 C12.9269565,20.6005714 12.7994203,20.6634286 12.6892754,20.7377143 C12.5791304,20.8177143 12.4881159,20.9205714 12.4226087,21.0405714 C12.3530435,21.1662857 12.3182609,21.3262857 12.3182609,21.5262857 C12.3182609,21.7034286 12.3472464,21.852 12.4110145,21.972 C12.4707246,22.0977143 12.555942,22.1948571 12.6573913,22.2691429 C12.7617391,22.3491429 12.8857971,22.4005714 13.0284058,22.4405714 C13.1710145,22.4748571 13.3211594,22.492 13.4805797,22.492 C13.724058,22.492 13.9518841,22.452 14.1617391,22.372 C14.3727536,22.292 14.555942,22.1548571 14.7153623,21.9662857 C14.7153623,22.1548571 14.7617391,22.2862857 14.8486957,22.372 C14.9356522,22.456 15.0533333,22.4977143 15.2023188,22.4977143 C15.3797101,22.4977143 15.5501449,22.4691429 15.613913,22.412 L15.613913,21.972 C15.5501449,21.9891429 15.497971,21.9988571 15.4486957,21.9988571 C15.355942,21.9988571 15.3153623,21.9702857 15.297971,21.9074286 C15.2805797,21.8445714 15.2892754,21.7474286 15.2892754,21.6137143 L15.2892754,19.8285714 C15.2892754,19.6285714 15.2330435,19.4685714 15.155942,19.3428571 C15.07426,19.2217536 14.9632943,19.1225846 14.8330435,19.0542857 C14.7055072,18.9857143 14.5628986,18.94 14.4098551,18.92 C14.2533333,18.8971429 14.0968116,18.8868571 13.9356522,18.8868571 C13.7373913,18.8868571 13.5507246,18.904 13.3768116,18.9497143 C13.2028986,18.9897143 13.0463768,19.0582857 12.9130435,19.1497143 C12.7762319,19.2411429 12.6695652,19.3611429 12.5884058,19.5097143 L12.6162319,19.4954286 Z M17.564058,15.4588571 C17.5288874,15.2615167 17.5114285,15.0615049 17.5118841,14.8611429 L17.5118841,11.9257143 C17.5118841,11.6765714 17.5002899,11.4468571 17.4481159,11.2354286 C17.3947826,11.0251429 17.3107246,10.8434286 17.1628986,10.6908571 C17.0156522,10.5365714 16.8092754,10.4165714 16.5414493,10.3365714 C16.2747826,10.2508571 15.924058,10.2108571 15.4886957,10.2108571 C15.2150725,10.2108571 14.9571014,10.2394286 14.7147826,10.2965714 C14.4730435,10.3537143 14.2626087,10.4508571 14.084058,10.5822857 C13.9043478,10.7137143 13.7652174,10.8908571 13.6591304,11.108 C13.5536232,11.3251429 13.5049275,11.5937143 13.5049275,11.9194286 L13.5049275,12.0737143 L14.7976812,12.0737143 L14.7976812,11.8965714 C14.7976812,11.6737143 14.8556522,11.4965714 14.9686957,11.3651429 C15.0846377,11.2337143 15.2527536,11.1651429 15.4788406,11.1651429 C15.7281159,11.1651429 15.902029,11.2251429 16.0005797,11.348 C16.1049275,11.468 16.1571014,11.6394286 16.1571014,11.8508571 C16.1571014,12.0394286 16.1165217,12.1822857 16.0295652,12.276 C15.9484058,12.3731429 15.7976812,12.4531429 15.5773913,12.5045714 L14.7542029,12.7217143 C14.5049275,12.7942857 14.2846377,12.8702857 14.1049275,12.9617143 C13.9252174,13.0531429 13.7802899,13.1674286 13.6643478,13.2988571 C13.5484058,13.436 13.4614493,13.596 13.4092754,13.7885714 C13.3571014,13.9828571 13.3281159,14.2057143 13.3281159,14.4685714 C13.3281159,14.6571429 13.3513043,14.8457143 13.4034783,15.0342857 C13.4556522,15.2268571 13.5310145,15.3942857 13.6353623,15.5485714 C13.7397101,15.7005714 13.8846377,15.8171429 14.0585507,15.9051429 C14.2324638,15.9908571 14.4469565,16.0354286 14.702029,16.0354286 C15.0498551,16.0354286 15.3397101,15.9857143 15.56,15.8994286 C15.7802899,15.8137143 15.9773913,15.6422857 16.1455072,15.3222857 L16.1628986,15.3222857 C16.186087,15.4502857 16.2092754,15.5165714 16.2324638,15.6148571 C16.2556522,15.7131429 16.2962319,15.832 16.3426087,15.8948571 L17.733913,15.8948571 C17.6643478,15.7691429 17.6005797,15.5862857 17.5773913,15.4434286 L17.564058,15.4588571 Z M18.3321739,19.0914286 C18.1967708,19.0060953 18.0460336,18.9471273 17.8881159,18.9177143 C17.7067507,18.8825547 17.5222225,18.8657058 17.3373913,18.8674286 C17.1837681,18.8674286 17.0289855,18.8862857 16.8724638,18.9245714 C16.7235999,18.9592113 16.5815824,19.01791 16.4521739,19.0982857 C16.3275362,19.176 16.226087,19.2777143 16.1466667,19.4022857 C16.0678261,19.5268571 16.0284058,19.6765714 16.0284058,19.8497143 C16.0284058,20.0725714 16.0805797,20.2462857 16.1965217,20.3714286 C16.3066667,20.496 16.4515942,20.5931429 16.6197101,20.6628571 C16.7878261,20.7314286 16.9733333,20.7845714 17.1704348,20.8228571 C17.3675362,20.86 17.5530435,20.9028571 17.7211594,20.9485714 C17.8892754,20.996 18.0284058,21.0571429 18.1443478,21.1331429 C18.2552231,21.2081865 18.3188212,21.3344303 18.3124638,21.4668571 C18.3124638,21.5737143 18.2834783,21.6611429 18.2313043,21.7308571 C18.1733333,21.7994286 18.1037681,21.8508571 18.0226087,21.8851429 C17.9356522,21.9194286 17.8428986,21.9422857 17.7443478,21.9594286 C17.6457971,21.9708571 17.5472464,21.9765714 17.4544928,21.9765714 C17.3385507,21.9765714 17.2226087,21.9651429 17.1124638,21.9422857 C17.0023188,21.9194286 16.897971,21.8851429 16.8110145,21.8337143 C16.7222347,21.7851589 16.6481942,21.7141486 16.5965217,21.628 C16.5385507,21.5422857 16.5095652,21.4394286 16.5037681,21.3137143 L15.9298551,21.3137143 C15.9373913,21.5022857 15.982029,21.7022857 16.0643478,21.8565714 C16.1455072,22.0051429 16.2556522,22.1194286 16.3889855,22.2108571 C16.5281159,22.3022857 16.6828986,22.3651429 16.8585507,22.4051429 C17.0365217,22.4451429 17.222029,22.4622857 17.4150725,22.4622857 C17.5930435,22.4622857 17.7686957,22.4451429 17.9484058,22.4108571 C18.1281159,22.3765714 18.2886957,22.3194286 18.4295652,22.2337143 C18.5744928,22.148 18.6904348,22.0394286 18.7773913,21.9022857 C18.8643478,21.7651429 18.9107246,21.588 18.9107246,21.3822857 C18.9107246,21.2165714 18.8788406,21.0737143 18.8121739,20.9651429 C18.7484058,20.8508571 18.6614493,20.7594286 18.5553623,20.6851429 C18.4492754,20.6108571 18.3263768,20.5537143 18.1901449,20.508 C18.0510145,20.4622857 17.9089855,20.4222857 17.7646377,20.3937143 C17.6289855,20.3594286 17.4921739,20.3308571 17.3588406,20.3022857 C17.2324466,20.2780715 17.1087638,20.2417073 16.9895652,20.1937143 C16.8794203,20.148 16.7924638,20.0965714 16.7188406,20.0337143 C16.6508475,19.9697169 16.6130267,19.8806579 16.6144928,19.788 C16.6144928,19.6965714 16.6376812,19.628 16.684058,19.5708571 C16.7304348,19.5137143 16.7884058,19.468 16.8597101,19.4394286 C16.9321739,19.4051429 17.0127536,19.3822857 17.1031884,19.3651429 C17.1901449,19.3497143 17.2771014,19.3422857 17.364058,19.3422857 C17.4568116,19.3422857 17.5507246,19.3497143 17.6434783,19.3708571 C17.7362319,19.3897143 17.8173913,19.4188571 17.8985507,19.4634286 C17.973913,19.5068571 18.0376812,19.5605714 18.0852174,19.632 C18.1373913,19.7062857 18.1663768,19.832 18.1721739,19.8948571 L18.7518841,19.8948571 C18.743517,19.7178756 18.6974977,19.5446048 18.6168116,19.3862857 C18.5445429,19.2549732 18.438604,19.1446369 18.3095652,19.0662857 L18.3321739,19.0914286 Z M21.5826087,10.2342857 C21.5176812,10.2274286 21.4828986,10.2268571 21.4376812,10.2228571 C21.3913043,10.2194286 21.3333333,10.2217143 21.2927536,10.2217143 C20.9901449,10.2217143 20.733913,10.3108571 20.5228986,10.4731429 C20.2888551,10.6455139 20.1037829,10.8743857 19.9855072,11.1377143 L19.9669565,11.1377143 L19.9669565,10.3777143 L18.5449275,10.3777143 L18.5449275,15.9148571 L20.0313043,15.9148571 L20.0313043,12.5891429 C20.0313043,12.4062857 20.062029,12.2462857 20.1252174,12.1205714 C20.1889855,11.9948571 20.2718841,11.892 20.3773913,11.812 C20.4875362,11.7377143 20.6034783,11.6805714 20.7310145,11.6405714 C20.8585507,11.6062857 20.986087,11.5891429 21.1136232,11.5891429 C21.1947826,11.5891429 21.275942,11.5948571 21.3513043,11.5948571 C21.4266667,11.6005714 21.4614493,11.6062857 21.5947826,11.612 L21.5947826,10.2405714 L21.5826087,10.2342857 Z M21.0295652,18.8674286 C20.7895652,18.8674286 20.5692754,18.9131429 20.3686957,19.0011429 C20.1657971,19.0902857 19.9918841,19.2148571 19.8452174,19.3754286 C19.697971,19.5354286 19.5843478,19.7251429 19.5031884,19.9434286 C19.422029,20.1662857 19.3814493,20.4062857 19.3814493,20.6691429 C19.3895652,20.932 19.4289855,21.1777143 19.4997101,21.4005714 C19.5692754,21.6234286 19.6736232,21.8177143 19.8144928,21.9777143 C19.9536232,22.1377143 20.1275362,22.2634286 20.3333333,22.3548571 C20.5391304,22.4462857 20.782029,22.492 21.0637681,22.492 C21.4608696,22.492 21.7907246,22.4005714 22.0533333,22.2005714 C22.315942,22.0062857 22.4852174,21.7148571 22.5623188,21.332 L21.9924638,21.332 C21.9426087,21.5262857 21.84,21.7262857 21.6834783,21.8348571 C21.5269565,21.9491429 21.3275362,21.9948571 21.0828986,21.9948571 C20.893913,21.9948571 20.7292754,21.9662857 20.5884058,21.9034286 C20.4481159,21.8405714 20.3333333,21.7605714 20.2423188,21.6577143 C20.1518841,21.5548571 20.0857971,21.4405714 20.0452174,21.3034286 C20.0046377,21.1662857 19.9872464,21.0177143 19.9913043,20.8862857 L22.6173913,20.8862857 C22.626087,20.6348571 22.6069565,20.4405714 22.5594203,20.212 C22.5118841,19.9834286 22.426087,19.7548571 22.3014493,19.5548571 C22.1773913,19.3605714 22.0115942,19.2005714 21.8063768,19.0691429 C21.6005797,18.9434286 21.3414493,18.8805714 21.0295652,18.8805714 L21.0295652,18.8674286 Z M23.4782609,11.3394286 C23.6156522,11.2388571 23.7750725,11.1885714 23.9582609,11.1885714 C24.195942,11.1885714 24.364058,11.256 24.4585507,11.3908571 C24.5571014,11.5257143 24.6034783,11.7108571 24.6034783,12.0285714 L25.9136232,12.0285714 L25.9136232,11.8011429 C25.9136232,11.296 25.7571014,10.9051429 25.4382609,10.6285714 C25.1252174,10.3525714 24.6324638,10.2137143 23.9715942,10.2137143 C23.6005797,10.2137143 23.2817391,10.2594286 23.0208696,10.3485714 C22.76,10.4388571 22.5455072,10.56 22.3773913,10.712 C22.2092754,10.864 22.0875362,11.0422857 22.0121739,11.2457143 C21.9368116,11.4502857 21.8962319,11.6662857 21.8962319,11.8942857 C21.8962319,12.2885714 22.0005797,12.612 22.2034783,12.864 C22.4063768,13.1165714 22.7136232,13.312 23.1136232,13.4502857 L24.133913,13.8131429 C24.2788406,13.8691429 24.4005797,13.9428571 24.5049275,14.036 C24.6092754,14.1302857 24.6614493,14.2662857 24.6614493,14.4462857 C24.6614493,14.6691429 24.5976812,14.8348571 24.4643478,14.9491429 C24.3310145,15.0634286 24.1513043,15.1148571 23.9252174,15.1148571 C23.6817391,15.1148571 23.4904348,15.0405714 23.3628986,14.892 C23.2324638,14.7434286 23.16,14.5491429 23.16,14.3091429 L23.16,14.1377143 L21.8550725,14.1377143 L21.8550725,14.3205714 C21.8550725,14.5948571 21.884058,14.8348571 21.9478261,15.052 C22.0115942,15.2691429 22.1217391,15.4577143 22.2782609,15.6062857 C22.4371014,15.7605714 22.6510145,15.8748571 22.9217391,15.9491429 C23.1918841,16.0291429 23.5304348,16.0634286 23.937971,16.0634286 C24.2469565,16.0634286 24.5292754,16.0348571 24.786087,15.972 C25.0411594,15.9091429 25.2637681,15.8062857 25.4504348,15.6634286 C25.635942,15.5205714 25.7831884,15.3377143 25.8881159,15.1205714 C25.9924638,14.9034286 26.0475362,14.6462857 26.0475362,14.3491429 C26.0475362,13.932 25.9524638,13.5948571 25.7634783,13.3491429 C25.5721739,13.1034286 25.2498551,12.9091429 24.7953623,12.7548571 L23.92,12.4634286 C23.6730435,12.3891429 23.5084058,12.2977143 23.4191304,12.1834286 C23.3333419,12.0781633 23.28688,11.9470232 23.2875362,11.812 C23.2875362,11.612 23.3571014,11.4634286 23.4904348,11.3605714 L23.4782609,11.3394286 Z M25.7837681,17.6291429 L25.7837681,19.412 L25.7605797,19.412 C25.6968116,19.2862857 25.6185507,19.2234286 25.5257971,19.1548571 C25.4353509,19.0866221 25.3358829,19.0308698 25.2301449,18.9891429 C25.1257971,18.9491429 25.0226087,18.9205714 24.9182609,18.8977143 C24.813913,18.8805714 24.7171014,18.8748571 24.6266667,18.8748571 C24.36,18.8748571 24.1281159,18.9262857 23.9252174,19.0177143 C23.7281159,19.1148571 23.56,19.2462857 23.4266667,19.4062857 C23.2933333,19.572 23.1947826,19.7605714 23.1310145,19.9777143 C23.0672464,20.1948571 23.0324638,20.4291429 23.0324638,20.6748571 C23.0324638,20.9205714 23.0672464,21.1548571 23.1368116,21.372 C23.2063768,21.5948571 23.3049275,21.7834286 23.4382609,21.9491429 C23.5715942,22.1148571 23.7397101,22.2462857 23.9426087,22.3491429 C24.1455072,22.4462857 24.3831884,22.5034286 24.6556522,22.5034286 C24.8991304,22.5034286 25.1252174,22.4691429 25.3281159,22.3834286 C25.5310145,22.2977143 25.6817391,22.172 25.7744928,21.9777143 L25.7976812,21.9777143 L25.7976812,22.4234286 L26.3773913,22.4234286 L26.3773913,17.6462857 L25.7918841,17.6462857 L25.7837681,17.6291429 Z M25.5495652,21.572 C25.4626087,21.6977143 25.3524638,21.7948571 25.2173913,21.8691429 C25.0811594,21.9491429 24.915942,21.9834286 24.7217391,21.9834286 C24.5362319,21.9834286 24.373913,21.9491429 24.2365217,21.8805714 C24.1017352,21.8137178 23.9853762,21.7156864 23.8973913,21.5948571 C23.8070178,21.4705759 23.7402386,21.3311813 23.7002899,21.1834286 C23.6573913,21.0348571 23.6365217,20.8748571 23.6365217,20.7148571 C23.6365217,20.5491429 23.653913,20.3834286 23.6904348,20.2234286 C23.7263768,20.0634286 23.7855072,19.9205714 23.8666667,19.8005714 C23.9478261,19.6748571 24.0568116,19.5777143 24.1924638,19.5034286 C24.3281159,19.4291429 24.493913,19.3891429 24.6875362,19.3891429 C24.8869565,19.3891429 25.0562319,19.4291429 25.1965217,19.5034286 C25.3368116,19.5777143 25.4515942,19.6748571 25.5385507,19.7948571 C25.6272464,19.9148571 25.6921739,20.0577143 25.7327536,20.212 C25.7733333,20.372 25.7907246,20.5377143 25.7907246,20.7034286 C25.7907246,20.8634286 25.7675362,21.0234286 25.7327536,21.1777143 C25.6921739,21.3377143 25.6284058,21.4748571 25.5472464,21.5948571 L25.5495652,21.572 Z M20.0805797,19.9777143 C20.1269565,19.8634286 20.1965217,19.7491429 20.2834783,19.6577143 C20.3646377,19.572 20.4689855,19.4977143 20.5907246,19.4462857 C20.7066667,19.3948571 20.8457971,19.372 20.9907246,19.372 C21.1356522,19.372 21.2631884,19.4005714 21.3849275,19.452 C21.5008696,19.5034286 21.6052174,19.572 21.697971,19.6634286 C21.7849275,19.7491429 21.8544928,19.8634286 21.9066667,19.9891429 C21.9588406,20.1091429 21.9878261,20.2577143 21.9994203,20.3834286 L19.9878261,20.3834286 C19.9936232,20.2577143 20.0226087,20.1148571 20.0747826,19.9948571 L20.0805797,19.9777143 Z M15.8486957,14.9148571 C15.678317,15.0468091 15.4682657,15.1191763 15.2515942,15.1205714 C15.0544928,15.1205714 14.9095652,15.0462857 14.8284058,14.892 C14.7414493,14.7434286 14.7008696,14.5605714 14.7008696,14.3434286 C14.7008696,14.0977143 14.7646377,13.8977143 14.8921739,13.7548571 C15.0197101,13.612 15.2284058,13.5091429 15.524058,13.4462857 C15.6168116,13.4234286 15.7153623,13.3948571 15.8313043,13.3491429 C15.9414493,13.3034286 16.0168116,13.2462857 16.1443478,13.1662857 L16.1443478,14.2691429 C16.1443478,14.4234286 16.1153623,14.5548571 16.0573913,14.6634286 C16.0046755,14.7676949 15.9294938,14.8593544 15.8371014,14.932 L15.8486957,14.9148571 Z M14.7298551,21.2005714 C14.7298551,21.2805714 14.6950725,21.3662857 14.6544928,21.4577143 C14.613913,21.5491429 14.5385507,21.6348571 14.4515942,21.7091429 C14.3646377,21.7891429 14.2544928,21.852 14.1153623,21.9034286 C13.9762319,21.9548571 13.813913,21.9834286 13.6284058,21.9834286 C13.5356522,21.9834286 13.4486957,21.9777143 13.3675362,21.9605714 C13.2863768,21.9434286 13.2110145,21.9148571 13.1530435,21.8748571 C13.0168137,21.792523 12.936844,21.643627 12.9443478,21.4862857 C12.9443478,21.3434286 12.9733333,21.2348571 13.0428986,21.1491429 C13.1066667,21.0691429 13.1936232,21.0062857 13.297971,20.9605714 C13.4023188,20.9205714 13.5182609,20.8862857 13.6515942,20.8691429 C13.7791304,20.8462857 13.9124638,20.8291429 14.04,20.8177143 C14.1675362,20.8005714 14.3066667,20.7834286 14.4226087,20.7588571 C14.5385507,20.736 14.5907246,20.696 14.7182609,20.6445714 L14.7182609,21.2217143 L14.7298551,21.2005714 Z M9.32695652,19.7834286 C9.41391304,19.6634286 9.52405797,19.5662857 9.6573913,19.4862857 C9.79072464,19.412 9.95884058,19.372 10.1501449,19.372 C10.3356522,19.372 10.497971,19.412 10.6313043,19.4805714 C10.7704348,19.5548571 10.8805797,19.6462857 10.9675362,19.7662857 C11.0544928,19.8862857 11.1182609,20.0234286 11.1646377,20.1777143 C11.2052174,20.332 11.2284058,20.492 11.2284058,20.652 C11.2284058,20.8234286 11.2110145,20.9891429 11.1704348,21.1491429 C11.1298551,21.3091429 11.0776812,21.452 10.9907246,21.5777143 C10.9095652,21.7034286 10.7994203,21.8005714 10.666087,21.8805714 C10.5327536,21.9548571 10.3686957,21.9948571 10.1675362,21.9948571 C9.97043478,21.9948571 9.80115942,21.9605714 9.66086957,21.8862857 C9.52173913,21.812 9.4057971,21.7148571 9.31884058,21.5948571 C9.22654265,21.4698155 9.16015638,21.3280657 9.12347826,21.1777143 C9.04178611,20.8610335 9.04019364,20.5294289 9.11884058,20.212 C9.15594203,20.0577143 9.2173913,19.9148571 9.30434783,19.7948571 L9.32695652,19.7834286 Z"/>
</svg>
