<svg xmlns="http://www.w3.org/2000/svg" width="30" height="30" viewBox="0 0 30 30">
  <g fill="none">
    <circle cx="15" cy="15" r="15" fill="#EF5028"/>
    <path fill="#FFF" d="M19.2626667,20.8780833 C19.2179167,21.3126667 18.75975,21.4713333 18.28125,21.4713333 C17.1354167,21.4713333 16.9506667,20.91225 17.0088333,19.81525 C17.146,17.2298333 19.85925,12.9060833 20.0789167,11.56125 C18.7890833,11.8900833 15.3955,15.9936667 14.6468333,19.1601667 C14.5321181,19.7592344 14.4541116,20.3647513 14.41325,20.9733333 C14.3624167,21.38675 14.2859167,21.4713333 13.5998333,21.4713333 C12.6115,21.4713333 12.085,21.1385 12.0898333,20.2083333 C12.10575,16.94175 14.8083333,12.6041667 15.1098333,11.56125 C13.8191667,11.8900833 10.23925,16.6504167 9.68708333,19.0413333 C9.54981472,19.6881416 9.46368745,20.344754 9.4295,21.0050833 C9.39983333,21.31675 9.31725,21.4713333 8.63075,21.4713333 C7.64241667,21.4713333 7.121175,20.9293333 7.121175,20.2083333 C7.121175,16.94175 10.8320833,9.47225 11.321175,9.01083333 C12.1460083,8.23041667 13.3732583,8.38866667 13.400925,9.55325 C13.3871125,10.1339376 13.1656389,10.690445 12.776675,11.1218333 C11.8594876,12.6817795 11.0963598,14.3273201 10.4980917,16.0351667 L10.5530083,16.0351667 C13.0228417,11.5881667 14.9450917,8.92575 16.0433417,8.92575 C16.506618,8.88873681 16.9653357,9.03944068 17.3163972,9.34399075 C17.6674588,9.64854081 17.8814136,10.0813882 17.910175,10.54525 C17.910175,11.2309167 16.2902583,13.23525 15.4670917,16.0351667 L15.5212583,16.0351667 C17.9923417,11.5881667 19.9137583,8.92575 21.0123417,8.92575 C21.475613,8.888797 21.9343065,9.03951992 22.2853673,9.34405578 C22.6364282,9.64859164 22.8504176,10.081403 22.8792583,10.54525 C22.8792583,11.3960833 21.8717583,12.8963333 21.1490917,14.4160833 C20.3741511,15.8970185 19.8101596,17.4790671 19.4735083,19.11625 C19.3652235,19.6983537 19.2947953,20.2868659 19.2626667,20.8780833 Z"/>
  </g>
</svg>
