<svg xmlns="http://www.w3.org/2000/svg" width="50" height="50" viewBox="0 0 50 50">
  <g fill="none" fill-rule="evenodd">
    <circle cx="25" cy="25" r="25" fill="#5A4FFF"/>
    <path fill="#FFF" d="M38.6632967,22.9705495 L31.331978,19.3045055 C31.0225275,19.1520879 30.7662637,18.8967033 30.6120879,18.5863736 L26.9442857,11.2513187 C26.5646154,10.4927473 25.8023077,10.0214286 24.9543956,10.0213187 L24.9540659,10.0213187 C24.1059341,10.0213187 23.3436264,10.4925275 22.9642857,11.2513187 L19.2982417,18.5826373 C19.1458242,18.891978 18.8904396,19.1482417 18.5801099,19.3026373 L11.2450549,22.9703297 C10.4864835,23.3495605 10.0151648,24.1121978 10.0150549,24.9602198 C10.0149451,25.8085714 10.4862637,26.570989 11.2450549,26.9503297 L18.5763736,30.6163736 C18.8857143,30.7687912 19.141978,31.0241758 19.2963736,31.3346154 L22.9640659,38.6696703 C23.3434066,39.4282417 24.1058242,39.8995604 24.953956,39.8995604 L24.953956,39.8997802 C25.8023077,39.8997802 26.5646154,39.4284616 26.9440659,38.6696703 L30.6102198,31.3382418 C30.7625275,31.029011 31.018022,30.7727473 31.3283516,30.6183517 L38.6632967,26.9505495 C39.421978,26.5713187 39.8932967,25.8087912 39.8932967,24.9606593 C39.8935165,24.1124176 39.4221978,23.3497802 38.6632967,22.9705495 Z M28.4505495,27.2491209 C28.4505495,27.6001099 28.166044,27.8849451 27.8148352,27.8849451 C27.4637362,27.8849451 27.1791209,27.6001099 27.1791209,27.2491209 L27.1791209,23.9945055 L25.3510989,25.4568132 C25.1189011,25.642967 24.7891209,25.642967 24.557033,25.4568132 L22.7291209,23.9946154 L22.7291209,27.2491209 C22.7291209,27.6001099 22.4445055,27.8849451 22.0934066,27.8849451 C21.7423077,27.8849451 21.4576923,27.6001099 21.4576923,27.2491209 L21.4576923,22.671978 C21.4576923,22.4275824 21.5978022,22.2048352 21.818022,22.0991209 C22.0378022,21.9928571 22.2995605,22.0227472 22.4904396,22.1756044 L24.9540659,24.1463736 L27.4178022,22.1754945 C27.6083516,22.0226374 27.87,21.992967 28.0902198,22.099011 C28.3104396,22.2047253 28.4505495,22.4274725 28.4505495,22.6718681 L28.4505495,27.2491209 Z"/>
    <path fill="#FFF" d="M38.0389011,21.9475824 L38.3815384,21.5526373 C38.9369231,20.911978 39.0805495,20.0271429 38.7562637,19.2434066 C38.4316483,18.4595605 37.7042857,17.9353846 36.8584615,17.8754945 L36.337033,17.8384615 L35.4062638,20.6310989 L38.0389011,21.9475824 M32.0763736,13.5774725 L32.0392308,13.0561538 C31.9791209,12.2103297 31.4549451,11.4830769 30.6713187,11.1582418 C30.3968132,11.0445055 30.1087912,10.9868132 29.8153846,10.9868132 C29.2841758,10.9868132 28.7682418,11.1807692 28.3621978,11.532967 L27.9672527,11.8754945 L29.2835165,14.5082418 L32.0763736,13.5774725 M31.1808791,18.3026374 C31.2738462,18.4896703 31.4279121,18.642967 31.6146154,18.735055 L34.8318681,20.3438461 L36.0551648,16.6737363 C36.3234066,15.8692308 36.1175824,14.9968132 35.5179121,14.3969231 C35.0965934,13.9754945 34.5397802,13.7435165 33.9504396,13.7435165 C33.7103297,13.7435165 33.4716484,13.7824176 33.2408791,13.8594506 L29.5708791,15.0826374 L31.1808791,18.3026374 M21.9414286,11.8756044 L21.5465934,11.5332967 C21.1402198,11.1808791 20.6239561,10.9868132 20.092967,10.9868132 C19.7996703,10.9868132 19.511978,11.0445055 19.2373627,11.1582418 C18.4536264,11.4828571 17.9295604,12.2101099 17.8694506,13.0562637 L17.8324176,13.5774725 L20.6248352,14.5082418 L21.9414286,11.8756044 M15.0764835,20.3437363 L18.2963736,18.7337362 C18.4834066,18.6406594 18.6367033,18.4867033 18.7289011,18.2998901 L20.3376923,15.0827473 L16.6674725,13.8594506 C16.4368132,13.7824176 16.1979121,13.7435165 15.9578022,13.7435165 C15.3685714,13.7435165 14.8120879,13.9753846 14.3907692,14.3968132 C13.7907692,14.9965934 13.5848352,15.869011 13.8532967,16.6734066 L15.0764835,20.3437363 M11.8695604,21.9473626 L14.5021978,20.630989 L13.5714286,17.8382418 L13.0503297,17.8752747 C12.203956,17.9357143 11.4767033,18.4597802 11.1524176,19.2431868 C10.8276923,20.0269231 10.9712088,20.9116483 11.527033,21.5524176 L11.8695604,21.9473626 M18.7274725,31.6183516 C18.6343956,31.4312088 18.4804396,31.2778022 18.2936264,31.1858242 L15.0763736,29.5769231 L13.8532967,33.2471428 C13.5848352,34.0517582 13.7907692,34.9241758 14.3904396,35.5237363 C14.8118681,35.9451648 15.3685714,36.1772527 15.958022,36.1772527 C16.1981319,36.1772527 16.4368132,36.1382418 16.6674725,36.0614286 L20.3374725,34.838022 L18.7274725,31.6183516 M17.8323077,36.3432967 L17.8693407,36.8642857 C17.9295604,37.7103297 18.4536264,38.4374725 19.2372527,38.761978 C20.009011,39.0824176 20.9161538,38.9343956 21.5462638,38.3872528 L21.940989,38.0450549 L20.6247253,35.4125275 L17.8323077,36.3432967 M11.8694505,27.9732967 L11.527033,28.368022 C10.9714286,29.0085714 10.8278022,29.8934066 11.1523077,30.677033 C11.4767033,31.4608791 12.2038462,31.984945 13.0501099,32.0447253 L13.5714286,32.0817583 L14.501978,29.2896703 L11.8694505,27.9732967 M27.967033,38.0453846 L28.3615384,38.3874725 C28.9920879,38.933956 29.8984615,39.081978 30.6708791,38.7624176 C31.4545055,38.4379121 31.9786813,37.7105494 32.0387912,36.8645055 L32.0759341,36.3432967 L29.2835165,35.4126373 L27.967033,38.0453846 M34.8317582,29.5771429 L31.6120879,31.1871429 C31.4249451,31.2801099 31.2714286,31.4341758 31.1795605,31.620989 L29.5707692,34.8381319 L33.2408791,36.0614286 C33.4716484,36.1384615 33.7103297,36.1774725 33.9504396,36.1774725 C34.5397802,36.1774725 35.0963736,35.9452747 35.5174725,35.5241758 C36.1173626,34.9242857 36.3234066,34.0517582 36.0551648,33.2471428 L34.8317582,29.5771429 M38.0389011,27.9735165 L35.4061538,29.2898901 L36.337033,32.0824176 L36.858022,32.0453846 C37.7045055,31.984945 38.4318681,31.4606593 38.7562637,30.6776923 C39.0807692,29.8940659 38.9373626,29.0092308 38.3815384,28.3684615 L38.0389011,27.9735165"/>
  </g>
</svg>
