<svg xmlns="http://www.w3.org/2000/svg" width="50" height="50" viewBox="0 0 50 50">
  <g fill="none" fill-rule="evenodd">
    <circle cx="25" cy="25" r="25" fill="#4FA6D3"/>
    <path fill="#FFF" fill-rule="nonzero" d="M25.332,16 C25.1563136,15.9998467 24.9847898,15.946507 24.84,15.847 C24.4329795,15.5640996 24.3252373,15.0085399 24.597,14.594 C26.2621243,12.0335771 26.2621243,8.73242295 24.597,6.172 C24.3251406,5.7580269 24.4324524,5.20284331 24.839,4.92 C25.0335614,4.78705207 25.2735639,4.7383018 25.5045762,4.7848055 C25.7355885,4.8313092 25.9380344,4.9691261 26.066,5.167 C28.1299175,8.33808175 28.1299175,12.4279182 26.066,15.599 C25.9040574,15.8481761 25.6271768,15.9986547 25.33,15.999 L25.332,16 Z M22.8,14.534 C22.6212363,14.5347907 22.4465983,14.4803036 22.3,14.378 C21.8942915,14.0931605 21.7895925,13.5368358 22.064,13.124 C23.1621998,11.4609402 23.1621998,9.3030598 22.064,7.64 C21.790461,7.22710675 21.8955581,6.67146669 22.301,6.387 C22.4949323,6.25298216 22.7348204,6.20308917 22.9661061,6.24866827 C23.1973918,6.29424738 23.4004143,6.43142406 23.529,6.629 C25.0334455,8.90557222 25.0334455,11.8604278 23.529,14.137 C23.3676392,14.3852872 23.0921114,14.5356434 22.796,14.537 L22.8,14.534 Z M18.662,6.453 C18.337276,2.82533546 15.3150024,0.0348459365 11.673,0 C8.64574685,0.0221206973 5.97087336,1.97524127 5.028,4.852 C2.57051281,5.25449583 0.826091276,7.46544096 1.00639293,9.94913528 C1.18669459,12.4328296 3.23214717,14.3686521 5.722,14.412 L17.812,14.412 C19.8438626,14.3725983 21.5291664,12.8278959 21.7449774,10.8071426 C21.9607885,8.78638937 20.6397147,6.92061388 18.662,6.453 Z M17.812,12.606 L5.722,12.606 C4.06348892,12.606 2.71900006,11.2615111 2.71900006,9.603 C2.71900006,7.94448892 4.06348892,6.60000003 5.722,6.6 C6.50819132,6.59831255 7.26137763,6.9158995 7.809,7.48 C7.97320039,7.64904784 8.19883299,7.74443622 8.4345,7.74443622 C8.67016701,7.74443622 8.89579961,7.64904784 9.06,7.48 C9.40561268,7.12448689 9.40561268,6.55851311 9.06,6.203 C8.4647825,5.59371106 7.7138926,5.1592948 6.889,4.947 C7.89269922,2.65748641 10.373918,1.39580343 12.8152546,1.93353956 C15.2565912,2.47127569 16.9781068,4.65866555 16.927,7.158 C16.9278809,7.72668343 16.8391253,8.29195218 16.664,8.833 C16.5085016,9.30268396 16.7580996,9.81033336 17.225,9.974 C17.3148561,10.0044979 17.4091094,10.0200379 17.504,10.02 C17.8888556,10.0174545 18.2281587,9.76701646 18.344,9.4 C18.4572345,9.04582978 18.5428246,8.68340928 18.6,8.316 C19.5807638,8.71152253 20.1478735,9.74248318 19.9568224,10.7825963 C19.7657713,11.8227094 18.8693021,12.5848355 17.812,12.606 Z" transform="translate(11 17)"/>
  </g>
</svg>
