<svg xmlns="http://www.w3.org/2000/svg" width="18" height="30" viewBox="0 0 18 30">
  <g>
    <path d="M10.44,20.9571429 L11.6047059,19.7785714 L12.7694118,18.6 L13.5529412,17.7857143 L13.7223529,17.6142857 L13.8917647,17.4428571 L15.0564706,16.2642857 L16.2211765,15.0857143 L15.0564706,13.9285714 L13.7223529,12.5785714 L12.7482353,11.5928571 L11.5835294,10.4142857 L10.4188235,9.23571429 L9.25411765,8.07857143 L1.50352941,0.214285714 L0,1.73571429 L7.41176471,9.23571429 L7.39058824,9.25714286 L6.22588235,10.4357143 L5.06117647,11.6142857 L3.89647059,12.7928571 L2.75294118,13.9285714 L1.60941176,15.0857143 L2.75294118,16.2857143 L3.91764706,17.4642857 L5.08235294,18.6428571 L6.24705882,19.8214286 L7.41176471,21 L7.58117647,21.1714286 L7.75058824,21.3428571 L8.55529412,22.1571429 L16.3270588,30 L17.8305882,28.4785714 L10.4188235,20.9785714 L10.44,20.9571429 Z M12.4094118,15.9214286 L12.24,16.0928571 L12.0494118,16.2857143 L10.8847059,17.4642857 L9.74117647,18.6214286 L8.91529412,19.4571429 L8.89411765,19.4357143 L8.08941176,18.6214286 L6.92470588,17.4428571 L5.76,16.2642857 L4.59529412,15.0857143 L5.76,13.9071429 L6.92470588,12.7285714 L8.08941176,11.55 L8.89411765,10.7357143 L8.91529412,10.7142857 L9.74117647,11.55 L10.9058824,12.7285714 L12.24,14.0785714 L13.2141176,15.0642857 L12.4094118,15.9214286 Z"/>
    <rect width="8.492" height="2.143" x="-.484" y="25.112" transform="rotate(-45 3.762 26.183)"/>
    <rect width="8.492" height="2.143" x="9.83" y="2.933" transform="rotate(-45 14.075 4.004)"/>
  </g>
</svg>
