<svg xmlns="http://www.w3.org/2000/svg" xmlns:xlink="http://www.w3.org/1999/xlink" width="50" height="50" viewBox="0 0 50 50">
  <defs>
    <circle id="mozilla-a" cx="25" cy="25" r="25"/>
  </defs>
  <g fill="none" fill-rule="evenodd">
    <mask id="mozilla-b" fill="#fff">
      <use xlink:href="#mozilla-a"/>
    </mask>
    <use fill="#4FA6D3" xlink:href="#mozilla-a"/>
    <g fill-rule="nonzero" mask="url(#mozilla-b)">
      <rect width="50" height="50" fill="#000"/>
      <path fill="#FFF" d="M42.5393701,31.2992126 L45.4035433,31.2992126 L45.4035433,35.9744094 L36.3779528,35.9744094 L36.3779528,23.8582677 C36.3779528,20.1377953 35.1377953,18.7007874 32.7066929,18.7007874 C29.7440945,18.7007874 28.5531496,20.7972441 28.5531496,23.8090551 L28.5531496,31.2992126 L31.4173228,31.2992126 L31.4173228,35.9744094 L22.3917323,35.9744094 L22.3917323,23.8582677 C22.3917323,20.1377953 21.1515748,18.7007874 18.7106299,18.7007874 C15.7480315,18.7007874 14.5570866,20.7972441 14.5570866,23.8090551 L14.5570866,31.2992126 L18.6614173,31.2992126 L18.6614173,35.9744094 L5.54133858,35.9744094 L5.54133858,31.2992126 L8.40551181,31.2992126 L8.40551181,19.1240157 L5.54133858,19.1240157 L5.54133858,14.4488189 L14.5669291,14.4488189 L14.5669291,17.6968504 C15.8562992,15.4035433 18.1003937,14.0255906 21.1023622,14.0255906 C24.2027559,14.0255906 27.0669291,15.5019685 28.1200787,18.6515748 C29.3110236,15.7874016 31.7519685,14.0255906 35.1377953,14.0255906 C39.0059055,14.0255906 42.5393701,16.3681102 42.5393701,21.476378 L42.5393701,31.2992126 Z"/>
    </g>
  </g>
</svg>
