<svg xmlns="http://www.w3.org/2000/svg" width="50" height="50" viewBox="0 0 50 50">
  <g fill="none" fill-rule="evenodd">
    <circle cx="25" cy="25" r="25" fill="#18232E"/>
    <path fill="#EBF8FA" fill-rule="nonzero" d="M5.55471698,0.0465116279 L6.0754717,0.0465116279 L6.0754717,4.93023256 L4.7115903,4.93023256 L4.7115903,2.38372093 L3.16172507,3.65116279 L3.00053908,3.65116279 L1.4754717,2.38372093 L1.4754717,4.93023256 L0.111590296,4.93023256 L0.111590296,0.0465116279 L0.60754717,0.0465116279 L3.07493261,2.1627907 L5.55471698,0.0465116279 Z M16.019407,3.20930233 C15.8830189,3.36046512 15.7590296,3.48837209 15.6102426,3.58139535 C15.5854447,3.59302326 15.5730458,3.60465116 15.548248,3.61627907 C15.5358491,3.62790698 15.5110512,3.63953488 15.4986523,3.63953488 C15.4738544,3.65116279 15.4366577,3.6627907 15.4118598,3.68604651 C15.3994609,3.68604651 15.387062,3.69767442 15.3746631,3.69767442 C15.2134771,3.75581395 15.0398922,3.79069767 14.8787062,3.79069767 C14.2215633,3.79069767 13.5892183,3.34883721 13.5892183,2.48837209 C13.5892183,1.60465116 14.2215633,1.18604651 14.8911051,1.18604651 C15.3126685,1.18604651 15.7342318,1.38372093 15.9698113,1.76744186 C15.9698113,1.77906977 15.9822102,1.77906977 15.9822102,1.79069767 L17.0485175,1.02325581 C16.5525606,0.348837209 15.7218329,0 14.8911051,0 C13.5520216,0 12.2501348,0.837209302 12.2501348,2.5 C12.2501348,4.1744186 13.5148248,4.98837209 14.8663073,4.98837209 C15.8458221,4.98837209 16.6269542,4.58139535 17.0857143,3.91860465 L16.019407,3.20930233 Z M20.5698113,2.19767442 L22.3180593,0.255813953 L22.3180593,0.0465116279 L20.780593,0.0465116279 L18.9703504,2.02325581 L18.9703504,0.0465116279 L17.606469,0.0465116279 L17.606469,4.93023256 L18.9703504,4.93023256 L18.9703504,3.63953488 L19.6150943,2.97674419 L21.0037736,4.93023256 L22.5660377,4.93023256 L22.5660377,4.75581395 L20.5698113,2.19767442 Z M44.0657682,2.19767442 L45.8760108,0.255813953 L45.8760108,0.0465116279 L44.2765499,0.0465116279 L42.4043127,2.02325581 L42.4043127,0.0465116279 L41.0404313,0.0465116279 L41.0404313,4.93023256 L42.4043127,4.93023256 L42.4043127,3.63953488 L43.0862534,2.97674419 L44.4997305,4.93023256 L46,4.93023256 L46,4.75581395 L44.0657682,2.19767442 Z M6.81940701,2.77906977 L6.81940701,0.0465116279 L8.18328841,0.0465116279 L8.18328841,2.76744186 C8.18328841,3.46511628 8.66684636,3.80232558 9.23719677,3.80232558 C9.80754717,3.80232558 10.2911051,3.47674419 10.2911051,2.80232558 L10.2911051,0.0465116279 L11.6549865,0.0465116279 L11.6549865,2.74418605 C11.6549865,4.31395349 10.6754717,5 9.22479784,5 C7.76172507,5 6.81940701,4.30232558 6.81940701,2.77906977 Z M33.46469,0.0465116279 L32.5967655,0.0465116279 L30.2533693,4.76744186 L30.2533693,4.93023256 L31.6172507,4.93023256 L31.9148248,4.34883721 L34.1218329,4.34883721 L34.4318059,4.93023256 L35.8328841,4.93023256 L35.8328841,4.76744186 L33.46469,0.0465116279 Z M33.6878706,3.30232558 L32.3735849,3.30232558 L32.9439353,2.02325581 L33.1175202,2.02325581 L33.6878706,3.30232558 Z M39.5153639,3.20930233 C39.3789757,3.36046512 39.2549865,3.48837209 39.1061995,3.58139535 C39.0814016,3.59302326 39.0690027,3.60465116 39.0442049,3.61627907 C39.0318059,3.62790698 39.0070081,3.63953488 38.9946092,3.63953488 C38.9698113,3.65116279 38.9326146,3.6627907 38.9078167,3.68604651 C38.8954178,3.68604651 38.8830189,3.69767442 38.8706199,3.69767442 C38.709434,3.75581395 38.5358491,3.79069767 38.3746631,3.79069767 C37.7175202,3.79069767 37.0851752,3.34883721 37.0851752,2.48837209 C37.0851752,1.60465116 37.7175202,1.18604651 38.387062,1.18604651 C38.8086253,1.18604651 39.2301887,1.38372093 39.4657682,1.76744186 C39.4657682,1.77906977 39.4781671,1.77906977 39.4781671,1.79069767 L40.5444744,1.02325581 C40.0485175,0.348837209 39.2177898,0 38.387062,0 C37.0479784,0 35.7460916,0.837209302 35.7460916,2.5 C35.7460916,4.1744186 37.0107817,4.98837209 38.3622642,4.98837209 C39.341779,4.98837209 40.1229111,4.58139535 40.5816712,3.91860465 L39.5153639,3.20930233 Z M29.2118598,3.20930233 C29.7326146,2.88372093 29.980593,2.3372093 29.9929919,1.76744186 C29.9929919,0.906976744 29.3854447,0.0348837209 28.1207547,0.0348837209 C27.3520216,0.023255814 26.2981132,0.0348837209 25.5541779,0.0348837209 L25.5541779,4.93023256 L26.9180593,4.93023256 L26.9180593,3.41860465 L27.6991914,3.41860465 L28.4927224,4.93023256 L29.8814016,4.93023256 L29.9185984,4.72093023 L29.0630728,3.27906977 C29.1622642,3.23255814 29.2118598,3.20930233 29.2118598,3.20930233 Z M26.9056604,1.09302326 L28.0959569,1.09302326 C28.4803235,1.09302326 28.6663073,1.41860465 28.6663073,1.72093023 C28.6663073,2.02325581 28.4803235,2.37209302 28.0959569,2.37209302 L26.9056604,2.37209302 L26.9056604,1.09302326 Z" transform="translate(2 23)"/>
  </g>
</svg>
