<svg xmlns="http://www.w3.org/2000/svg" width="36" height="24" viewBox="0 0 36 24">
  <g fill="none" fill-rule="evenodd">
    <path fill="#5B7F93" d="M24.4670059,2.41528592 C24.2978698,2.41528592 24.1785799,2.43532071 24.0582249,2.4643294 L24.0582249,2.48394679 L24.0776095,2.48394679 C24.1581302,2.63984245 24.2978698,2.74815549 24.3967101,2.88464245 C24.4770178,3.04095549 24.5468876,3.19685114 24.6265562,3.35295549 C24.636355,3.34356419 24.6459408,3.3333381 24.6459408,3.3333381 C24.7865325,3.23608592 24.8561893,3.07977288 24.8561893,2.84499027 C24.7959053,2.7763294 24.7865325,2.70850332 24.7362604,2.63984245 C24.6766154,2.54238158 24.5468876,2.49354679 24.4670059,2.41528592"/>
    <path fill="#196D80" d="M8.60549112 21.6956338L7.22428402 21.6956338C7.17571598 19.4118772 7.04108876 17.264399 6.82104142 15.2527816L6.80889941 15.2527816 4.70620118 21.6956338 3.65453254 21.6956338 1.56461538 15.2527816 1.55226036 15.2527816C1.39739645 17.1846772 1.29983432 19.3321555 1.25914793 21.6956338L0 21.6956338C.0813727811 18.8212685.285017751 16.126799.610934911 13.611599L2.32253254 13.611599 4.31510059 19.5514946 4.32745562 19.5514946 6.33216568 13.611599 7.96984615 13.611599C8.32856805 16.5573381 8.54030769 19.2526424 8.60549112 21.6956338M14.5951243 15.7313207C14.0327574 18.7208859 13.2910296 20.8934077 12.3701538 22.2486772 11.6527101 23.2929903 10.8668876 23.8151468 10.0109822 23.8151468 9.78284024 23.8151468 9.5016568 23.7477381 9.16764497 23.6139642L9.16764497 22.8933381C9.33081657 22.916712 9.52210651 22.9292338 9.74236686 22.9292338 10.1415621 22.9292338 10.4632189 22.8211294 10.7081893 22.6053381 11.0013018 22.3423816 11.147858 22.0468685 11.147858 21.7194251 11.147858 21.4957033 11.0334675 21.0367816 10.8057515 20.3424511L9.28991716 15.7313207 10.6468402 15.7313207 11.7345089 19.1800164C11.9790533 19.9630424 12.0808757 20.5096164 12.0401893 20.821199 12.6351479 19.2643294 13.0507456 17.5676338 13.2871953 15.7313207L14.5951243 15.7313207"/>
    <polyline fill="#E6892E" points="32.979 21.696 29.056 21.696 29.056 13.612 30.376 13.612 30.376 20.701 32.979 20.701 32.979 21.696"/>
    <path fill="#E6892E" d="M23.1151953 20.0784511C22.7809704 19.5514946 22.6135385 18.7058598 22.6135385 17.5398772 22.6135385 15.5042598 23.2453491 14.4858251 24.5083314 14.4858251 25.1686864 14.4858251 25.6533018 14.7293729 25.9632426 15.2160511 26.2970414 15.7432164 26.4644734 16.5815468 26.4644734 17.7312511 26.4644734 19.7831468 25.8326627 20.809512 24.5696805 20.809512 23.9095385 20.809512 23.4247101 20.5661729 23.1151953 20.0784511M28.0290888 21.8905555L26.5124024 21.1578251C26.6474556 21.0493033 26.7756923 20.9322251 26.891787 20.7967816 27.5357396 20.0550772 27.8580355 18.9573381 27.8580355 17.5039816 27.8580355 14.8295468 26.7863432 13.491599 24.6431716 13.491599 23.591929 13.491599 22.7726627 13.8307294 22.1860118 14.5100338 21.5418462 15.2525729 21.2201893 16.3461381 21.2201893 17.7913555 21.2201893 19.2123642 21.5052071 20.254799 22.0756686 20.9169903 22.5973491 21.5155294 23.3838107 21.8152164 24.4352663 21.8152164 24.827858 21.8152164 25.188071 21.7678424 25.5154793 21.6730946L27.4905799 22.7992164 28.0290888 21.8905555M20.6448284 19.4548685C20.6448284 20.1404338 20.387716 20.7032859 19.8751953 21.1436338 19.3622485 21.5821033 18.6731361 21.8018598 17.8102012 21.8018598 17.0030769 21.8018598 16.2208757 21.5489207 15.4631716 21.0470077L15.8176331 20.3526772C16.4696805 20.6719816 17.0597396 20.8314251 17.5895148 20.8314251 18.0864852 20.8314251 18.4754556 20.723112 18.7568521 20.5089903 19.0376095 20.2934077 19.2058935 19.9926772 19.2058935 19.6111816 19.2058935 19.1311816 18.864213 18.7208859 18.2373018 18.3767468 17.6585325 18.0655816 16.5018462 17.415912 16.5018462 17.415912 15.8751479 16.9680511 15.5609467 16.4874251 15.5609467 15.6956338 15.5609467 15.0407468 15.7952663 14.5114946 16.2632663 14.108712 16.7323314 13.7053033 17.3375148 13.5034946 18.0786036 13.5034946 18.8446154 13.5034946 19.5411834 13.7038424 20.1685207 14.1028685L19.8498462 14.7965729C19.3130414 14.5736859 18.7836923 14.4618251 18.2617988 14.4618251 17.8383195 14.4618251 17.5119763 14.5613729 17.2844734 14.7617207 17.0556923 14.960399 16.9142485 15.2160511 16.9142485 15.5276338 16.9142485 16.0063816 17.2633846 16.4216859 17.9079763 16.7725033 18.4939882 17.0838772 19.6790059 17.7460685 19.6790059 17.7460685 20.3235976 18.1930946 20.6448284 18.6697555 20.6448284 19.4548685"/>
    <path fill="#196D80" d="M34.6362604,10.9037729 C33.8382959,10.8841555 33.2203314,10.9622077 32.7020592,11.1771642 C32.5525207,11.2358077 32.3135148,11.2358077 32.2930651,11.4213381 C32.3733728,11.4993903 32.3829586,11.6262772 32.4532544,11.7341729 C32.5725444,11.929512 32.7815148,12.1926772 32.9713136,12.329999 C33.1807101,12.486312 33.3901065,12.641999 33.6097278,12.7786946 C33.9982722,13.0141033 34.4370888,13.1501729 34.8154083,13.3847468 C35.0354556,13.5214424 35.2540118,13.6969555 35.4740592,13.8438772 C35.5833373,13.9221381 35.652568,14.0492338 35.7927337,14.0974424 L35.7927337,14.0680164 C35.7224379,13.9803642 35.7028402,13.8532685 35.6333964,13.7551816 C35.5339172,13.6581381 35.4340118,13.5696511 35.3341065,13.472399 C35.0448284,13.0915294 34.6854675,12.7597033 34.2975621,12.486312 C33.9782485,12.2707294 33.2799763,11.9777207 33.1508876,11.617512 C33.1508876,11.617512 33.1404497,11.6070772 33.1306509,11.5974772 C33.3500592,11.5776511 33.6097278,11.4993903 33.8189112,11.4401207 C34.1573964,11.3524685 34.4664852,11.3722946 34.8154083,11.2846424 C34.9751716,11.245199 35.1347219,11.1961555 35.2949112,11.1481555 L35.2949112,11.0596685 C35.1144852,10.8841555 34.9853964,10.6493729 34.7960237,10.4834598 C34.2879763,10.0537555 33.7290178,9.63427723 33.1508876,9.28199897 C32.8413728,9.08665984 32.4426036,8.96019027 32.1134911,8.79365114 C31.9944142,8.73500766 31.7952426,8.70599897 31.7251598,8.60791201 C31.5455858,8.39295549 31.4454675,8.11017288 31.3161657,7.85577288 C31.0273136,7.31921636 30.7476213,6.72359897 30.4988166,6.15615549 C30.3194556,5.77549462 30.2097515,5.39483375 29.9903432,5.04297288 C28.9629586,3.38217288 27.8467456,2.37667723 26.1319527,1.38996419 C25.7630059,1.18439897 25.3244024,1.09674679 24.8561893,0.989268533 C24.6065325,0.979042446 24.3575148,0.960051142 24.108284,0.950451142 C23.9485207,0.881790272 23.7887574,0.696051142 23.6494438,0.608190272 C23.0808994,0.256746794 21.6159763,-0.504992336 21.1969704,0.500920707 C20.927716,1.13619027 21.5957396,1.76102506 21.8251598,2.08345984 C21.9945089,2.30780766 22.2141302,2.56220766 22.3332071,2.81577288 C22.4030769,2.98189462 22.4231006,3.15803375 22.4931834,3.33354679 C22.6525207,3.76325114 22.8018462,4.24199897 23.0116686,4.64269462 C23.1209467,4.84784245 23.2404497,5.06300766 23.3799763,5.24770332 C23.460497,5.35580766 23.5995976,5.40401636 23.6296331,5.58036419 C23.4905325,5.77549462 23.4796686,6.06850332 23.4,6.31288592 C23.0412781,7.41667723 23.1805917,8.78405114 23.6892781,9.59462506 C23.8484024,9.83879897 24.227787,10.3761903 24.7362604,10.1706251 C25.1848757,9.99511201 25.0851834,9.43831201 25.2146982,8.95017288 C25.2445207,8.83225984 25.224497,8.75483375 25.284142,8.67678158 L25.284142,8.69660766 C25.4236686,8.96958158 25.5636213,9.23274679 25.6931361,9.50697288 C26.0026509,9.98509462 26.5405207,10.4834598 26.9895621,10.8152859 C27.228142,10.9916338 27.4177278,11.2940338 27.7168047,11.4017207 L27.7168047,11.3722946 L27.6972071,11.3722946 C27.6371361,11.2846424 27.5476686,11.245199 27.467787,11.1771642 C27.288426,11.0012338 27.0894675,10.7862772 26.9493018,10.5911468 C26.5307219,10.0443642 26.1613491,9.43831201 25.8330888,8.81326853 C25.6731124,8.50982506 25.5337988,8.17799897 25.404071,7.87539027 C25.344426,7.7587294 25.344426,7.58238158 25.2445207,7.52394679 C25.0945562,7.73869462 24.875787,7.92443375 24.7662959,8.18739027 C24.5767101,8.60791201 24.5568994,9.12547723 24.4866036,9.66286853 C24.4469822,9.67309462 24.4670059,9.66286853 24.4469822,9.68227723 C24.1283077,9.60422506 24.0186036,9.28199897 23.8986746,9.00923375 C23.5995976,8.31490332 23.5493254,7.20151201 23.8089941,6.4005381 C23.8784379,6.19580766 24.1783669,5.55114679 24.0582249,5.35580766 C23.9979408,5.16944245 23.7987692,5.06300766 23.6892781,4.91587723 C23.5599763,4.73034679 23.4195976,4.49639897 23.3307692,4.29083375 C23.0913373,3.74405114 22.9709822,3.13820766 22.7125917,2.59142506 C22.5928757,2.33702506 22.3830533,2.07323375 22.2141302,1.83928592 C22.0243314,1.57549462 21.8151479,1.38996419 21.6653964,1.07775549 C21.6159763,0.970068533 21.5461065,0.794138098 21.6255621,0.677268533 C21.6451598,0.599007664 21.6856331,0.569581577 21.7655148,0.54975549 C21.8943905,0.442485925 22.2637633,0.578972881 22.3930651,0.637616359 C22.7622249,0.783703316 23.0713136,0.921233751 23.3799763,1.12596419 C23.519716,1.22384245 23.6692544,1.40937288 23.8484024,1.45862506 L24.0582249,1.45862506 C24.3771124,1.52645114 24.7362604,1.47761636 25.0355503,1.56589462 C25.5636213,1.73180766 26.0420592,1.97598158 26.4710769,2.23977288 C27.7766627,3.05055549 28.8534675,4.20339027 29.5809231,5.58036419 C29.7008521,5.80471201 29.7511243,6.01006853 29.8606154,6.24401636 C30.0700118,6.72359897 30.3294675,7.21194679 30.5384379,7.68025984 C30.7476213,8.13939027 30.947432,8.60791201 31.2469349,8.98940766 C31.3960473,9.1941381 31.9944142,9.30161636 32.2636686,9.40909462 C32.4626272,9.49674679 32.772142,9.57500766 32.951716,9.68227723 C33.2906272,9.88721636 33.6288994,10.121999 33.948426,10.3469729 C34.1075503,10.4640511 34.6062249,10.7080164 34.6362604,10.9037729"/>
    <path fill="#E6892E" d="M33.9217988,21.694799 L34.140568,21.694799 L34.140568,20.8723294 L34.4268639,20.8723294 L34.4268639,20.7043294 L33.624426,20.7043294 L33.624426,20.8723294 L33.9217988,20.8723294 L33.9217988,21.694799 Z M35.5865325,21.694799 L35.7927337,21.694799 L35.7927337,20.7043294 L35.4825799,20.7043294 L35.2301538,21.3794598 L34.9553609,20.7043294 L34.656497,20.7043294 L34.656497,21.694799 L34.8516213,21.694799 L34.8516213,20.9409903 L34.8626982,20.9409903 L35.1504852,21.694799 L35.2991716,21.694799 L35.5865325,20.9409903 L35.5865325,21.694799 Z"/>
  </g>
</svg>
