<svg xmlns="http://www.w3.org/2000/svg" width="30" height="30" viewBox="0 0 30 30">
  <g fill="#00D664">
    <path d="M2.07142857 29.6714286C1.64708219 29.6714286 1.24011593 29.5028576.940057724 29.2027994.639999514 28.9027412.471428571 28.495775.471428571 28.0714286L.471428571 2.07142857C.473680332 1.42602566.863479062.845170119 1.45988388.598489595 2.05628869.351809069 2.74250592.48761089 3.2.942857143L12.7238095 10.4666667C13.1645481 10.8618994 13.3510366 11.4681901 13.2086104 12.042798 13.0661842 12.6174059 12.6181227 13.0664128 12.0438162 13.2100496 11.4695097 13.3536864 10.8628274 13.1684761 10.4666667 12.7285714L3.67142857 5.93809524 3.67142857 28.0809524C3.67016752 28.5040364 3.50088767 28.9092909 3.20082905 29.2075634 2.90077044 29.505836 2.49451259 29.6726934 2.07142857 29.6714286zM28.0761905 29.6714286C27.65162 29.6692091 27.2454503 29.4978294 26.947619 29.1952381L17.4238095 19.6714286C16.8005168 19.0481358 16.8005169 18.0375785 17.4238096 17.4142858 18.0471023 16.790993 19.0576596 16.790993 19.6809524 17.4142857L26.4761905 24.2047619 26.4761905 2.06190476C26.4761905 1.17956412 27.1914689.464285714 28.0738095.464285714 28.9561501.464285714 29.6714286 1.17956412 29.6714286 2.06190476L29.6714286 28.0619048C29.6739612 28.4870749 29.5071626 28.8957688 29.2078598 29.197752 28.908557 29.4997351 28.5013662 29.6701707 28.0761905 29.6714286z"/>
  </g>
</svg>
