<svg xmlns="http://www.w3.org/2000/svg" width="44" height="10" viewBox="0 0 44 10">
  <g fill="none">
    <path fill="#F3336C" d="M1.73179156 2.51245833L1.73179156 3.36570833 1.75809064 3.36570833C2.13869064 2.64795833 2.7945167 2.322875 3.55552294 2.322875 4.68388881 2.322875 5.35295523 2.95916667 5.35295523 4.39470833L5.35295523 9.798375 3.54247229 9.798375 3.54247229 4.77408333C3.54247229 4.04266667 3.3062044 3.758375 2.76841541 3.758375 2.15154349 3.758375 1.81048294 4.15120833 1.81048294 4.96345833L1.81048294 9.798375 0 9.798375 0 2.51245833 1.73179156 2.51245833zM9.1061956 8.71491667C9.84090679 8.71491667 10.0769809 7.97020833 10.0769809 6.15529167 10.0769809 4.340625 9.84090679 3.59591667 9.1061956 3.59591667 8.21410165 3.59591667 8.13541028 4.66570833 8.13541028 6.15529167 8.13541028 7.64508333 8.21410165 8.71491667 9.1061956 8.71491667zM9.1061956 2.322875C11.2842319 2.28225 11.8876617 3.62304167 11.8876617 6.15529167 11.8876617 8.647125 11.1792455 9.98775 9.1061956 9.98775 6.92815927 10.0285833 6.32472954 8.68775 6.32472954 6.15529167 6.32472954 3.66345833 7.03314569 2.322875 9.1061956 2.322875z"/>
    <path fill="#333" d="M13.0168147 2.607125L13.80412 2.607125 13.80412 3.73120833 13.8302172 3.73120833C14.1319321 2.93225 14.7749053 2.44470833 15.5885057 2.44470833 15.6802437 2.44470833 15.7719857 2.458375 15.8639255 2.48529167L15.8639255 3.29795833C15.7328378 3.27083333 15.6015563 3.25733333 15.4835193 3.25733333 14.6175226 3.25733333 13.80412 3.90733333 13.80412 5.30225L13.80412 9.798375 13.0168147 9.798375 13.0168147 2.607125zM20.1810481 5.559375C20.154753 3.77183333 19.6691626 3.12183333 18.6983772 3.12183333 17.7275919 3.12183333 17.2420015 3.77183333 17.2159042 5.559375L20.1810481 5.559375zM20.955105 7.41491667C20.8370679 8.94508333 20.0234675 9.961 18.7116257 9.961 17.2420015 9.961 16.3762066 8.9045 16.3762066 6.196125 16.3762066 3.70408333 17.2420015 2.44470833 18.7770686 2.44470833 20.3253802 2.44470833 21.0207457 3.54183333 21.0207457 5.93879167L21.0207457 6.23675 17.2159042 6.23675 17.2159042 6.57529167C17.2159042 8.647125 17.9243204 9.28366667 18.6983772 9.28366667 19.5250283 9.28366667 20.036716 8.67429167 20.1677996 7.41491667L20.955105 7.41491667zM24.3275435 9.28366667C25.1278954 9.28366667 25.84956 8.863875 25.84956 6.196125 25.84956 3.54183333 25.1278954 3.12183333 24.3275435 3.12183333 23.5402382 3.12183333 22.8057248 3.54183333 22.8057248 6.196125 22.8057248 8.863875 23.5402382 9.28366667 24.3275435 9.28366667zM25.9282514 8.60654167L25.9019523 8.60654167C25.6921772 9.432875 25.0231068 9.961 24.1964558 9.961 22.6615905 9.961 21.9660272 8.68775 21.9660272 6.196125 21.9660272 3.71775 22.6615905 2.44470833 24.1964558 2.44470833 25.0622547 2.44470833 25.6526338 2.93225 25.8230672 3.690625L25.84956 3.690625 25.84956.129 26.6366675.129 26.6366675 9.798375 25.9282514 9.798375 25.9282514 8.60654167z"/>
    <path fill="#F3336C" d="M27.9890418 2.51245833L29.7995248 2.51245833 29.7995248 9.798375 27.9890418 9.798375 27.9890418 2.51245833zM27.9890418.0204166667L29.7995248.0204166667 29.7995248 1.618375 27.9890418 1.618375 27.9890418.0204166667zM31.0724206 2.51245833L32.804422 2.51245833 32.804422 3.36570833 32.8304991 3.36570833C33.2113211 2.64795833 33.8671229 2.322875 34.6279596 2.322875 35.7562972 2.322875 36.4255817 2.95916667 36.4255817 4.39470833L36.4255817 9.798375 34.6148807 9.798375 34.6148807 4.77408333C34.6148807 4.04266667 34.3786128 3.758375 33.840844 3.758375 33.2243596 3.758375 32.8830972 4.15120833 32.8830972 4.96345833L32.8830972 9.798375 31.0724206 9.798375 31.0724206 2.51245833z"/>
    <polygon fill="#F3336C" points="39.51 .129 39.51 5.234 39.536 5.234 41.36 2.512 43.354 2.512 41.32 5.383 43.656 9.798 41.661 9.798 40.152 6.806 39.51 7.672 39.51 9.798 37.699 9.798 37.699 .129"/>
  </g>
</svg>
