<svg xmlns="http://www.w3.org/2000/svg" width="44" height="12" viewBox="0 0 44 12">
  <g fill="none">
    <path fill="#25A3DB" d="M26.3025954,9.66445714 C25.2180458,9.66445714 24.3383817,8.7672 24.3383817,7.66011429 C24.3383817,7.16262857 24.5163969,6.708 24.810626,6.35725714 C24.1650687,5.64274286 23.6001221,5.01668571 23.2178931,4.59291429 C22.9501985,4.29668571 22.7708397,4.09817143 22.7167634,4.0392 C22.4366412,3.7296 22.0772519,3.55645714 21.7538015,3.55782857 C21.557313,3.55885714 21.3705649,3.61542857 21.1875115,3.75257143 C21.0531603,3.8544 20.9194809,4.00422857 20.7995725,4.21714286 C20.7223206,4.36902857 20.6218931,4.5888 20.5711756,4.71771429 C20.4569771,5.00365714 20.3192672,5.35097143 20.1583817,5.75862857 C19.9974962,6.16628571 19.8366107,6.57394286 19.6760611,6.9816 C19.5151756,7.38925714 19.3673893,7.76022857 19.2323664,8.09382857 C19.0973435,8.42742857 18.9989313,8.66331429 18.9367939,8.8008 C18.8746565,8.66331429 18.7705344,8.42194286 18.6254351,8.07771429 C18.4803359,7.73348571 18.3170992,7.33645714 18.1357252,6.88628571 C17.9536794,6.43645714 17.7645802,5.94617143 17.5674198,5.4168 C17.4555725,5.11577143 17.333313,4.7808 17.2170992,4.452 C17.0908092,4.10605714 16.9158168,3.88731429 16.7233588,3.74811429 C16.530229,3.6096 16.3135878,3.5472 16.0885496,3.54685714 C15.7184122,3.5448 15.3338321,3.72788571 15.1050992,4.0056 C15.0295267,4.09611429 14.8552061,4.30182857 14.6247939,4.572 C14.2096489,5.0592 13.6117863,5.75862857 13.0723664,6.38914286 C13.3501374,6.73508571 13.5167328,7.17737143 13.5167328,7.65942857 C13.5167328,8.76651429 12.6374046,9.66377143 11.552855,9.66377143 C10.4683053,9.66377143 9.58931298,8.76651429 9.58931298,7.65942857 C9.58931298,6.55234286 10.4683053,5.65474286 11.552855,5.65474286 C11.9307176,5.65474286 12.2830534,5.76377143 12.5823206,5.952 C12.6599084,5.86148571 12.7381679,5.7696 12.8174351,5.67702857 C13.2792672,5.13702857 13.7589008,4.57645714 14.1109008,4.16262857 C13.8495878,3.98502857 13.5671145,3.83314286 13.2618015,3.70902857 C12.727084,3.49234286 12.1591145,3.38365714 11.5575573,3.38365714 C10.9452519,3.38365714 10.3749313,3.49234286 9.84592366,3.70902857 C9.31658015,3.9264 8.85239695,4.22537143 8.45303817,4.60662857 C8.1581374,4.88811429 7.91025954,5.20697143 7.70873282,5.56388571 C7.67883969,5.484 7.64625954,5.40548571 7.60931298,5.32937143 C7.40174046,4.90045714 7.11926718,4.54285714 6.76155725,4.25691429 C6.40351145,3.97131429 5.98299237,3.75394286 5.50100763,3.60582857 C5.01868702,3.45771429 4.50748092,3.38365714 3.96839695,3.38365714 C3.41822901,3.38365714 2.90467176,3.45771429 2.42772519,3.60582857 C1.95044275,3.75428571 1.53025954,3.97131429 1.16717557,4.25691429 C0.803755725,4.54285714 0.51859542,4.90011429 0.311358779,5.32937143 C0.10378626,5.75862857 0,6.24891429 0,6.7992 L0,11.7078857 L2.50531298,11.7078857 L2.50531298,7.38685714 C2.50531298,6.28525714 2.99300763,5.73497143 3.96839695,5.73497143 C4.43526718,5.73497143 4.7929771,5.87005714 5.04219847,6.14022857 C5.29108397,6.41005714 5.41569466,6.82594286 5.41569466,7.3872 L5.41569466,11.7085714 L7.92100763,11.7085714 L7.92100763,10.0878857 C8.07752672,10.3114286 8.25487023,10.5178286 8.45337405,10.7077714 C8.85239695,11.0890286 9.31691603,11.3883429 9.84625954,11.6046857 C10.3752672,11.8220571 10.9455878,11.9307429 11.5578931,11.9307429 C12.1597863,11.9307429 12.7274198,11.8220571 13.2621374,11.6046857 C13.7961832,11.3883429 14.2630534,11.0890286 14.6624122,10.7077714 C15.0621069,10.3265143 15.3758168,9.87634286 15.6042137,9.3576 C15.7721527,8.97531429 15.8779542,8.56662857 15.9222901,8.13291429 C15.9310229,8.15177143 15.9400916,8.17028571 15.9488244,8.18982857 C16.1980458,8.72502857 16.475145,9.29965714 16.7814656,9.91337143 C17.0871145,10.5277714 17.4011603,11.1264 17.7229313,11.7085714 L20.0418321,11.7085714 C20.1556947,11.4860571 20.3162443,11.1713143 20.5241527,10.7633143 C20.7313893,10.356 20.9547481,9.89725714 21.1935573,9.3888 C21.430687,8.88274286 21.6735267,8.35885714 21.9214046,7.81577143 C21.939542,8.3688 22.0513893,8.88377143 22.2599695,9.35725714 C22.4880305,9.87634286 22.8017405,10.3261714 23.2014351,10.7074286 C23.6011298,11.0886857 24.065313,11.388 24.5946565,11.6043429 C25.1233282,11.8217143 25.6936489,11.9304 26.3062901,11.9304 C26.9078473,11.9304 27.4758168,11.8217143 28.0101985,11.6043429 C28.3820153,11.4541714 28.7202443,11.2621714 29.0265649,11.0317714 C28.5811908,10.5377143 28.0347176,9.93154286 27.4509618,9.28457143 C27.128855,9.52354286 26.7318473,9.66445714 26.3025954,9.66445714 Z M43.4683053,6.23382857 C43.3376489,5.73634286 43.1522443,5.31805714 42.9114198,4.97897143 C42.5295267,4.44925714 42.0431756,4.04708571 41.4510229,3.77177143 C40.8585344,3.49645714 40.2018931,3.35862857 39.479084,3.35862857 C38.8865954,3.35862857 38.337771,3.46217143 37.8312672,3.66857143 C37.5477863,3.78411429 37.2864733,3.92605714 37.045313,4.09302857 L37.045313,0.238285714 C36.9828397,0.217371429 36.8400916,0.172114286 36.6174046,0.103542857 C36.3937099,0.0346285714 36.1424733,0 35.8623511,0 C35.4676947,0 35.1512977,0.0850285714 34.9128244,0.254057143 C34.6740153,0.423771429 34.5551145,0.714514286 34.5551145,1.12765714 L34.5551145,4.14342857 C34.3505649,3.972 34.0986565,3.77588571 33.7070229,3.6192 C33.3116947,3.4608 32.8481832,3.38365714 32.2674504,3.38365714 C31.7384427,3.38365714 31.2403359,3.48685714 30.7734656,3.69325714 C30.3069313,3.9 29.8995115,4.18868571 29.5518779,4.55897143 C29.5216489,4.5912 29.4927634,4.6248 29.4632061,4.6584 C29.4460763,4.64125714 29.4296183,4.62342857 29.4121527,4.60662857 C29.012458,4.22537143 28.5455878,3.9264 28.0112061,3.70902857 C27.4768244,3.49234286 26.908855,3.38365714 26.3072977,3.38365714 C25.6949924,3.38365714 25.1246718,3.49234286 24.5956641,3.70902857 C24.2839695,3.83691429 23.9954504,3.99394286 23.7290992,4.17874286 C24.1153588,4.60662857 24.6745954,5.22582857 25.3097405,5.93005714 C25.6012824,5.7552 25.9405191,5.65474286 26.3025954,5.65474286 C27.387145,5.65474286 28.2668092,6.55234286 28.2668092,7.65942857 C28.2668092,8.088 28.1341374,8.48468571 27.909771,8.8104 C28.3873893,9.34011429 28.8394809,9.84102857 29.2334656,10.2781714 C29.3127328,10.3738286 29.3960305,10.4670857 29.4840305,10.5562286 C29.496458,10.5696 29.5092214,10.5836571 29.5209771,10.5970286 C29.5219847,10.5963429 29.5226565,10.5949714 29.5236641,10.5942857 C29.5552366,10.6251429 29.5868092,10.6566857 29.6187176,10.6868571 C30.0315115,11.0677714 30.511145,11.3674286 31.0579542,11.5841143 C31.6044275,11.8014857 32.1935573,11.9098286 32.826687,11.9098286 C33.4480611,11.9098286 34.0348397,11.8014857 34.586687,11.5841143 C35.1385344,11.3674286 35.620855,11.0677714 36.0339847,10.6868571 C36.1001527,10.6258286 36.1629618,10.5624 36.2240916,10.4976 C36.2254351,10.4982857 36.2254351,10.4993143 36.2261069,10.4996571 L37.809771,8.85188571 C37.5676031,8.51794286 37.4241832,8.10582857 37.4241832,7.65908571 C37.4241832,6.552 38.3035115,5.6544 39.3883969,5.6544 C40.4729466,5.6544 41.3519389,6.552 41.3519389,7.65908571 C41.3519389,8.76617143 40.4729466,9.66342857 39.3883969,9.66342857 C38.9762748,9.66342857 38.5940458,9.53382857 38.2783206,9.31268571 L36.6718168,10.9848 C36.9475725,11.2347429 37.2562443,11.4384 37.5981679,11.5947429 C38.0495878,11.8014857 38.5312366,11.9043429 39.0431145,11.9043429 C39.6050382,11.9043429 40.0695573,11.8066286 40.4356641,11.6105143 C40.801771,11.4147429 41.0755115,11.2210286 41.2558779,11.0310857 C41.2558779,11.0310857 41.2696489,11.016 41.269313,11.0142857 C41.302229,11.3214857 41.4110534,11.532 41.6025038,11.6725714 C41.832916,11.8419429 42.1389008,11.9269714 42.5201221,11.9269714 C42.7915115,11.9269714 43.0343511,11.8923429 43.2503206,11.8237714 C43.4662901,11.7545143 43.6043359,11.7096 43.664458,11.6883429 L43.664458,7.99714286 C43.6641221,7.31931429 43.5982901,6.73165714 43.4683053,6.23382857 Z M32.6765496,9.63668571 C31.6067786,9.63668571 30.739542,8.75142857 30.739542,7.65977143 C30.739542,6.56742857 31.6067786,5.68251429 32.6765496,5.68251429 C33.7463206,5.68251429 34.6135573,6.56777143 34.6135573,7.65977143 C34.6135573,8.75142857 33.7463206,9.63668571 32.6765496,9.63668571 Z"/>
    <ellipse cx="11.554" cy="7.66" fill="#F9A326" rx="1.214" ry="1.239"/>
    <ellipse cx="26.303" cy="7.66" fill="#F9A326" rx="1.214" ry="1.239"/>
    <ellipse cx="39.388" cy="7.66" fill="#F9A326" rx="1.214" ry="1.239"/>
  </g>
</svg>
