<svg xmlns="http://www.w3.org/2000/svg" width="40" height="40" viewBox="0 0 40 40">
  <g fill="none">
    <path fill="#28E171" d="M38.3831398,8.32723415 L18.72082,30.5324701 C18.6240338,30.6417717 18.4551612,30.6469304 18.3518885,30.5437356 L9.33578167,21.5346089 C9.25295891,21.4518511 9.23759623,21.3231415 9.29860866,21.223216 L11.7428654,17.2200597 C11.8283958,17.079984 12.0224713,17.0568848 12.1384901,17.1729749 L17.5445459,22.5824169 C17.6221807,22.6601004 17.7505396,22.6513282 17.8168893,22.563811 L32.9521536,2.59881041 C33.0368107,2.48714205 33.1968721,2.46578786 33.3083977,2.55062511 C35.3031305,4.06796234 37.0304708,5.91926577 38.4060799,8.02111038 C38.4684656,8.11643398 38.458661,8.24194077 38.3831398,8.32723415 Z"/>
    <path fill="#000" d="M39.9829037,20.0229856 C39.9829037,31.0388541 31.052798,39.9690344 20.0373191,39.9691513 C9.02932998,39.9692681 0.0894489681,31.0282119 0.0909407553,20.0202228 C0.0924341702,9.00555063 9.02208044,0.0771802553 20.0371016,0.0771802553 C23.3314839,0.0771802553 26.439407,0.87600384 29.1779863,2.29076386 C29.3177373,2.36296066 29.3585108,2.54392503 29.2634907,2.66927922 L27.1740203,5.42577053 C27.0711047,5.56154291 26.8876615,5.60681606 26.7330608,5.53522637 C24.7045574,4.59590993 22.4453573,4.07006609 20.0639149,4.0661475 C11.2503896,4.05164678 4.08013202,11.2096584 4.08024565,20.0231934 C4.08035928,28.8107689 11.1834392,35.938935 19.9614732,35.979663 C28.8045291,36.0206961 35.9655047,28.9177428 35.993516,20.0746382 C35.9977495,18.7377443 35.8374997,17.4386824 35.5317656,16.1970747 C35.4978326,16.0592684 35.5347199,15.9136281 35.628805,15.807375 L38.254466,12.8421783 C38.3803282,12.7000362 38.6129566,12.7412739 38.6806017,12.9186752 C39.5221467,15.125635 39.9829037,17.5201838 39.9829037,20.0229856 Z"/>
  </g>
</svg>
