<svg xmlns="http://www.w3.org/2000/svg" width="34" height="14" viewBox="0 0 34 14">
  <g fill="none">
    <path fill="#CB3837" d="M0,0 L34,0 L34,12 L17,12 L17,14 L9.44444444,14 L9.44444444,12 L0,12 L0,0 Z M1.88888889,10 L5.66666667,10 L5.66666667,4 L7.55555556,4 L7.55555556,10 L9.44444444,10 L9.44444444,2 L1.88888889,2 L1.88888889,10 Z M11.3333333,2 L11.3333333,12 L15.1111111,12 L15.1111111,10 L18.8888889,10 L18.8888889,2 L11.3333333,2 Z M15.1111111,4 L17,4 L17,8 L15.1111111,8 L15.1111111,4 Z M20.7777778,2 L20.7777778,10 L24.5555556,10 L24.5555556,4 L26.4444444,4 L26.4444444,10 L28.3333333,10 L28.3333333,4 L30.2222222,4 L30.2222222,10 L32.1111111,10 L32.1111111,2 L20.7777778,2 Z"/>
    <polygon fill="#FFF" points="1.889 10 5.667 10 5.667 4 7.556 4 7.556 10 9.444 10 9.444 2 1.889 2"/>
    <path fill="#FFF" d="M11.3333333,2 L11.3333333,12 L15.1111111,12 L15.1111111,10 L18.8888889,10 L18.8888889,2 L11.3333333,2 Z M17,8 L15.1111111,8 L15.1111111,4 L17,4 L17,8 Z"/>
    <polygon fill="#FFF" points="20.778 2 20.778 10 24.556 10 24.556 4 26.444 4 26.444 10 28.333 10 28.333 4 30.222 4 30.222 10 32.111 10 32.111 2"/>
  </g>
</svg>
