<svg xmlns="http://www.w3.org/2000/svg" xmlns:xlink="http://www.w3.org/1999/xlink" width="23" height="30" viewBox="0 0 23 30">
  <defs>
    <polygon id="olark-a" points="22.885 .154 .334 .154 .334 29.946 22.885 29.946"/>
  </defs>
  <g fill="none" fill-rule="evenodd">
    <mask id="olark-b" fill="#fff">
      <use xlink:href="#olark-a"/>
    </mask>
    <path fill="#231F20" fill-rule="nonzero" d="M14.9863763,10.1375294 C14.5772184,8.30811763 13.7582974,6.9557647 12.4896658,6.9557647 C11.6707447,6.9557647 11.466771,7.5122353 11.466771,7.94988237 C11.466771,8.90458823 12.3667974,10.1375294 14.4949026,10.1375294 L14.9863763,10.1375294 Z M15.3955342,12.8822353 L14.6183763,12.8822353 C11.2210342,12.8822353 8.47858684,10.934 8.47858684,7.8704706 C8.47858684,5.8022353 9.99295528,4.09164707 12.202771,4.09164707 C15.1909553,4.09164707 16.9099026,6.39929413 17.8105342,9.18282353 C19.0216658,8.7875294 20.2588237,7.70164707 21.0837974,6.62870587 C21.2066658,6.27105883 21.3706921,6.11164707 21.575271,6.11164707 C22.1484553,6.11164707 22.8850605,7.18517647 22.8850605,8.25988237 C22.8850605,9.25341177 20.7720868,11.1051765 18.465429,12.1663529 C18.62885,13.2804706 18.7105605,14.354 18.7105605,15.3087059 C18.7105605,25.3716471 14.2086132,29.9463529 9.41977104,29.9463529 C3.44461316,29.9463529 0.33416579,24.0992941 0.33416579,16.9792941 C0.33416579,3.4557647 8.60145528,0.35282353 8.92890264,0.233411765 C9.05177104,0.194 9.21519212,0.154 9.37921844,0.154 C10.27985,0.154 10.8118763,1.34694118 10.8118763,2.22223529 C10.8118763,2.73988235 10.64785,3.13752941 10.27985,3.13752941 C10.1975342,3.13752941 10.1569816,3.13752941 10.0746658,3.09752941 C8.64261316,3.89282353 3.6080342,6.39929413 3.6080342,16.5816471 C3.6080342,23.7810588 6.63737632,26.9634118 9.54263948,26.9634118 C12.9399816,26.9634118 15.4772447,22.7475294 15.5184026,15.3087059 C15.5184026,14.5534118 15.4772447,13.7175294 15.3955342,12.8822353 Z" mask="url(#olark-b)"/>
    <path fill="#231F20" fill-rule="nonzero" d="M5.93185534 19.8728382C5.64739521 19.9097151 5.44839266 20.17618 5.50098192 20.4557303 6.17328788 24.0387323 7.83522827 25.6666667 9.44577457 25.6666667 11.3300241 25.6666667 12.7772822 23.7948693 13.380266 19.8728382 13.43166 19.5403518 13.2244329 18.9610284 12.889774 19.0020688 10.6750487 19.2756712 8.15136148 19.5897192 5.93185534 19.8728382M7.55223881 16.4996459C7.55223881 17.1440567 7.01402851 17.6666667 6.35038163 17.6666667 5.68673476 17.6666667 5.14925373 17.1440567 5.14925373 16.4996459 5.14925373 15.8552352 5.68673476 15.3333333 6.35038163 15.3333333 7.01402851 15.3333333 7.55223881 15.8552352 7.55223881 16.4996459M14.0746269 15.8333333C14.0746269 16.4779397 13.5365798 17 12.8731343 17 12.2096888 17 11.6716418 16.4779397 11.6716418 15.8333333 11.6716418 15.188727 12.2096888 14.6666667 12.8731343 14.6666667 13.5365798 14.6666667 14.0746269 15.188727 14.0746269 15.8333333"/>
  </g>
</svg>
