<svg xmlns="http://www.w3.org/2000/svg" width="40" height="16" viewBox="0 0 40 16">
  <g fill="#0C29D0">
    <path d="M5.77352632,0.184778667 C2.40563158,0.184778667 0,2.70448 0,5.95904 C0,9.21365333 2.40563158,11.7333333 5.77352632,11.7333333 C9.12047368,11.7333333 11.5261053,9.21365333 11.5261053,5.95904 C11.5261053,2.70448 9.12047368,0.184778667 5.77352632,0.184778667 Z M8.49294737,5.95904 C8.49294737,7.76485333 7.40515789,9.17162667 5.77352632,9.17162667 C4.14186842,9.17162667 3.03318421,7.76485333 3.03318421,5.95904 C3.03318421,4.15328 4.14186842,2.74645333 5.77352632,2.74645333 C7.40515789,2.74645333 8.49294737,4.15328 8.49294737,5.95904 Z" transform="translate(0 4.267)"/>
    <polygon points="3.058 0 .087 0 .087 15.748 3.058 15.748" transform="translate(13.158)"/>
    <path d="M3.23926316,15.21472 L3.23926316,4.17008 L0.268842105,4.17008 L0.268842105,15.21472 L3.23926316,15.21472 Z M3.23926316,2.63726933 L3.23926316,0.0965866667 L0.268842105,0.0965866667 L0.268842105,2.63726933 L3.23926316,2.63726933 Z" transform="translate(18.421 .533)"/>
    <path d="M8.59089474,1.6336 C7.56584211,0.667717333 6.248,0.184778667 4.78368421,0.184778667 C2.77552632,0.184778667 0.851,1.31861333 0.851,3.56533333 C0.851,5.49712 2.29442105,6.25301333 3.61226316,6.81994667 C4.70005263,7.30288 5.70410526,7.63882667 5.70410526,8.41573333 C5.70410526,9.08768 4.90921053,9.3816 4.30257895,9.3816 C3.23573684,9.3816 2.54542105,8.89866667 1.70868421,8.07978667 L0.0142631579,9.84357333 C1.22752632,11.06144 2.73368421,11.7333333 4.449,11.7333333 C6.58268421,11.7333333 8.67452632,10.62048 8.67452632,8.1848 C8.67452632,6.08501333 6.87557895,5.37114667 5.45310526,4.7832 C4.53268421,4.40522667 3.71684211,4.04826667 3.71684211,3.35536 C3.71684211,2.83045333 4.21889474,2.51546667 4.78368421,2.51546667 C5.62042105,2.51546667 6.39442105,2.93541333 6.95921053,3.43936 L8.59089474,1.6336 Z" transform="translate(23.158 4.267)"/>
    <path d="M7.58094737,5.04778667 L7.58094737,2.57008 L4.77784211,2.57008 L4.77784211,0.134384 L2.26763158,0.134384 L1.80742105,2.57008 L0.489578947,2.57008 L0.489578947,5.04778667 L1.80742105,5.04778667 L1.80742105,9.64618667 C1.80742105,10.29712 1.84926316,10.9480533 2.01663158,11.4939733 C2.41405263,12.92176 3.56457895,13.8666667 5.27989474,13.8666667 C6.13757895,13.8666667 7.18347368,13.63568 7.89473684,13.2157333 L6.97431579,11.01104 C6.59778947,11.2 6.24215789,11.3259733 5.78194737,11.3259733 C5.15436842,11.3259733 4.90336842,10.92704 4.81968421,10.2761067 C4.77784211,9.96117333 4.77784211,9.6672 4.77784211,9.33125333 L4.77784211,5.04778667 L7.58094737,5.04778667 Z" transform="translate(32.105 2.133)"/>
  </g>
</svg>
