<svg xmlns="http://www.w3.org/2000/svg" width="40" height="5" viewBox="0 0 40 5">
  <g fill="#F80000">
    <path d="M16.6248244 3.23882256L19.1655687 3.23882256 17.8221137 1.13012195 15.3564106 4.94274512 14.2342262 4.94274512 17.2333431.362971951C17.3637425.177929878 17.5810637.0661365854 17.8221137.0661365854 18.0552312.0661365854 18.2725562.174076829 18.3990062.355262195L21.409975 4.94274512 20.2877875 4.94274512 19.7582937 4.09078415 17.1859169 4.09078415 16.6248244 3.23882256zM28.2814687 4.09078415L28.2814687.112396951 27.3291812.112396951 27.3291812 4.48014329C27.3291812 4.59964939 27.3766062 4.71529878 27.4674812 4.80396341 27.55835 4.8926311 27.68085 4.94274512 27.8152 4.94274512L32.1578 4.94274512 32.7188937 4.09078415 28.2814687 4.09078415zM12.5272206 3.37760427C13.4518631 3.37760427 14.20263 2.64900549 14.20263 1.74692744 14.20263.844852439 13.4518631.112396951 12.5272206.112396951L8.36124187.112396951 8.36124187 4.94274512 9.31315187 4.94274512 9.31315187.964358537 12.4639956.964358537C12.9065694.964358537 13.2621887 1.31516341 13.2621887 1.74692744 13.2621887 2.17869085 12.9065694 2.52949939 12.4639956 2.52949939L9.77942312 2.52564268 12.6220419 4.94274512 14.0050562 4.94274512 12.0925781 3.37760427 12.5272206 3.37760427zM2.50133812 4.94274512C1.1345325 4.94274512.02536625 3.8633378.02536625 2.52949939.02536625 1.19565793 1.1345325.112396951 2.50133812.112396951L5.37912375.112396951C6.74630812.112396951 7.854685 1.19565793 7.854685 2.52949939 7.854685 3.8633378 6.74630812 4.94274512 5.37912375 4.94274512L2.50133812 4.94274512zM5.31510937 4.09078415C6.200635 4.09078415 6.91781437 3.39302317 6.91781437 2.52949939 6.91781437 1.66597195 6.200635.964358537 5.31510937.964358537L2.56494187.964358537C1.67982687.964358537.96223625 1.66597195.96223625 2.52949939.96223625 3.39302317 1.67982687 4.09078415 2.56494187 4.09078415L5.31510937 4.09078415zM23.397525 4.94274512C22.0303375 4.94274512 20.9200062 3.8633378 20.9200062 2.52949939 20.9200062 1.19565793 22.0303375.112396951 23.397525.112396951L26.8154875.112396951 26.2583437.964358537 23.46075.964358537C22.5756312.964358537 21.8564937 1.66597195 21.8564937 2.52949939 21.8564937 3.39302317 22.5756312 4.09078415 23.46075 4.09078415L26.8945062 4.09078415 26.3334187 4.94274512 23.397525 4.94274512zM35.0423187 4.09078415C34.3113 4.09078415 33.6909312 3.61275976 33.5012562 2.95355L37.5712125 2.95355 38.1323062 2.10158902 33.5012562 2.10158902C33.6909312 1.44623537 34.3113.964358537 35.0423187.964358537L37.8359625.964358537 38.4010062.112396951 34.9790937.112396951C33.6119062.112396951 32.501575 1.19565793 32.501575 2.52949939 32.501575 3.8633378 33.6119062 4.94274512 34.9790937 4.94274512L37.9149875 4.94274512 38.476075 4.09078415 35.0423187 4.09078415zM38.91075.625115854C38.91075.389956707 39.1043437.201061585 39.3453937.201061585 39.5903937.201061585 39.7839875.389956707 39.7839875.625115854 39.7839875.86412439 39.5903937 1.05302317 39.3453937 1.05302317 39.1043437 1.05302317 38.91075.86412439 38.91075.625115854zM39.3453937 1.17252866C39.6535875 1.17252866 39.9025375.929660366 39.9025375.628968902 39.9025375.328277439 39.6535875.0854121951 39.3453937.0854121951 39.0411187.0854121951 38.7922.328277439 38.7922.628968902 38.7922.929660366 39.0411187 1.17252866 39.3453937 1.17252866zM39.2940187.30514878C39.3809437.30514878 39.4165187.309001829 39.4560437.324420732 39.5666687.359118902 39.5785125.455492683 39.5785125.494043902 39.5785125.501753659 39.5785125.521028659 39.5706125.544157317 39.5666687.567289634 39.5508687.61355 39.4955437.648244512 39.4876437.65210061 39.4836937.655954268 39.4678937.663663415L39.6101437.914241463 39.4718437.914241463 39.3453937.682939024 39.258475.682939024 39.258475.914241463 39.135975.914241463 39.135975.30514878 39.2940187.30514878zM39.3374937.582708537C39.3769937.578855488 39.4165187.578855488 39.4402187.544157317 39.4520625.528738415 39.4560437.513319512 39.4560437.490187195 39.4560437.45934939 39.4362687.432364024 39.4086187.416942073 39.3809437.405379268 39.3532937.405379268 39.2940187.405379268L39.258475.405379268 39.258475.582708537 39.3374937.582708537z"/>
  </g>
</svg>
