<svg xmlns="http://www.w3.org/2000/svg" width="42" height="8" viewBox="0 0 42 8">
  <g fill="#D3002D">
    <path d="M13.6852333,4.50302222 C14.5182333,4.24168889 15.1255364,3.43502222 15.1259606,2.47724444 C15.1255364,1.30835556 14.2219,0.361688889 13.1061424,0.361244444 L9.62671818,0.361244444 L9.62671818,7.61591111 L10.7810818,7.61591111 L10.7810818,4.59324444 L12.3885364,4.59324444 L14.1298394,7.61591111 L15.4759606,7.61591111 L13.6852333,4.50302222 Z M10.7810818,3.38368889 L10.7810818,1.56991111 L13.1061424,1.56991111 C13.5838394,1.5708 13.9709606,1.97613333 13.971597,2.47724444 C13.9709606,2.97724444 13.5838394,3.3828 13.1061424,3.38368889 L10.7810818,3.38368889 Z M8.80884242,1.13313333 C8.80884242,1.62491111 8.42850909,2.0238 7.95929697,2.0238 C7.49008485,2.0238 7.10953939,1.62491111 7.10953939,1.13313333 C7.10953939,0.641577778 7.49008485,0.243133333 7.95929697,0.243133333 C8.42850909,0.243133333 8.80884242,0.641577778 8.80884242,1.13313333 Z M8.48484848e-05,4.02202222 C0.000296969697,1.93491111 1.61453939,0.243577778 3.60699394,0.243133333 C5.59923636,0.243577778 7.21326667,1.93491111 7.21369091,4.02202222 C7.21326667,6.10868889 5.59923636,7.80002222 3.60699394,7.80046667 C1.61453939,7.80002222 0.000296969697,6.10868889 8.48484848e-05,4.02202222 Z M1.87247879,2.20446667 C1.42787273,2.67202222 1.15444848,3.31024444 1.15423636,4.02202222 C1.15444848,4.73313333 1.42787273,5.3718 1.87247879,5.83846667 C2.31814545,6.30446667 2.92778182,6.59091111 3.60699394,6.59135556 C4.28599394,6.59091111 4.89520606,6.30446667 5.34108485,5.83846667 C5.78590303,5.3718 6.05932727,4.73313333 6.05932727,4.02202222 C6.05932727,3.31024444 5.78590303,2.67202222 5.34108485,2.20446667 C4.89520606,1.73913333 4.28599394,1.45291111 3.60699394,1.45246667 C2.92778182,1.45291111 2.31814545,1.73913333 1.87247879,2.20446667 Z"/>
    <polygon points="39.724 .361 38.321 .361 36.545 3.054 34.769 .361 33.366 .361 35.966 4.306 35.966 7.616 37.121 7.616 37.121 4.308"/>
    <path d="M41.089597,0.199422222 C40.6178394,0.199422222 40.2351727,0.600088889 40.2351727,1.09408889 C40.2351727,1.58808889 40.6178394,1.98875556 41.089597,1.98875556 C41.5607182,1.98875556 41.943597,1.58808889 41.943597,1.09408889 C41.943597,0.600088889 41.5607182,0.199422222 41.089597,0.199422222 M41.089597,1.84564444 C40.6935667,1.84564444 40.372203,1.50897778 40.372203,1.09408889 C40.372203,0.678977778 40.6935667,0.342311111 41.089597,0.342311111 C41.4849909,0.342311111 41.8065667,0.678977778 41.8065667,1.09408889 C41.8065667,1.50897778 41.4849909,1.84564444 41.089597,1.84564444"/>
    <path d="M41.4725182,0.897333333 C41.4725182,0.750444444 41.3594576,0.631555556 41.2190333,0.631555556 L40.7383667,0.631555556 L40.7383667,1.54333333 L40.8828212,1.54333333 L40.8828212,1.16355556 L41.1265485,1.16355556 L41.3011242,1.54333333 L41.4625485,1.54333333 L41.2839424,1.15488889 C41.3927606,1.12488889 41.4725182,1.02111111 41.4725182,0.897333333 Z M40.8828212,0.783555556 L41.2190333,0.783555556 C41.2794879,0.783555556 41.3274273,0.834444444 41.3274273,0.897333333 C41.3274273,0.960444444 41.2794879,1.01155556 41.2190333,1.01155556 L40.8828212,1.01155556 L40.8828212,0.783555556 Z"/>
    <polygon points="21.098 1.57 21.098 .361 16.284 .361 16.284 7.616 21.098 7.616 21.098 6.406 17.437 6.406 17.437 4.593 20.922 4.593 20.922 3.384 17.437 3.384 17.437 1.57"/>
    <polygon points="24.67 7.616 24.67 .361 25.824 .361 25.824 6.406 29.154 6.406 29.154 7.616"/>
    <polygon points="30.095 7.616 30.095 .361 31.249 .361 31.249 6.406 34.579 6.406 34.579 7.616"/>
    <polygon points="22.309 7.616 23.463 7.616 23.463 .361 22.309 .361"/>
  </g>
</svg>
