<svg xmlns="http://www.w3.org/2000/svg" width="44" height="9" viewBox="0 0 44 9">
  <g fill="#25C151">
    <path d="M9.45884211 2.73673469C9.2841231 2.37163738 8.97579455 2.09800213 8.60547368 1.97938776 8.44882346 1.9271385 8.28572258 1.89969827 8.12147368 1.89795918L5.53936842 1.89795918 5.53936842 2.98163265 8.12147368 2.98163265C8.24374113 2.97746006 8.36252719 3.02506264 8.45147368 3.11387755 8.54130335 3.20691049 8.58914524 3.33618012 8.58289474 3.46897959L8.58289474 3.94530612 6.6 3.94530612C6.36096551 3.93745113 6.12371539 3.99124443 5.90873684 4.10204082 5.73003332 4.1973281 5.57224261 4.33123796 5.44557895 4.49510204 5.33047244 4.64699409 5.24381876 4.82071048 5.19026316 5.00693878 5.14030405 5.1731446 5.11377356 5.34622762 5.11152632 5.52061224 5.10453526 5.77322386 5.15559148 6.02385903 5.26031579 6.25102041 5.350201 6.44015128 5.47686231 6.60706229 5.632 6.74081633 5.7749393 6.86227018 5.93839976 6.9538952 6.11368421 7.01081633 6.27024551 7.06368867 6.43334841 7.0917482 6.59768421 7.09408163L8.11915789 7.09408163C8.35843474 7.1018463 8.59589726 7.04783975 8.811 6.93673469 8.98970352 6.84144741 9.14749423 6.70753755 9.27415789 6.54367347 9.38887712 6.39242325 9.47550534 6.21958882 9.52947368 6.03428571 9.58061525 5.86788644 9.607935 5.69433395 9.61052632 5.51938776L9.61052632 3.46714286C9.61703819 3.21423618 9.56496409 2.96348269 9.45884211 2.73673469zM8.58289474 5.51020408C8.58681498 5.63915244 8.54369969 5.76475794 8.46247368 5.86102041 8.3738078 5.95852882 8.24916018 6.01000219 8.12147368 6.00183673L6.60868421 6.00183673C6.48821734 6.00512635 6.37079649 5.96155646 6.27868421 5.87938776 6.18421132 5.79149016 6.13301276 5.66267448 6.13973684 5.52979592 6.13594584 5.40024156 6.17877523 5.27399096 6.25957895 5.17653061 6.34734615 5.07762716 6.47192827 5.02474898 6.6 5.03204082L8.58289474 5.03204082 8.58289474 5.51020408zM18.2738947 5.05591837C18.5142228 5.0636051 18.7526958 5.0091744 18.9686316 4.89734694 19.3157358 4.71151542 19.5759269 4.3837173 19.6888421 3.99 19.7391465 3.82386318 19.7658758 3.6507559 19.7681579 3.47632653 19.7752865 3.22218987 19.7238233 2.97003647 19.6182105 2.74163265 19.5274447 2.55240954 19.4000126 2.38552265 19.2442105 2.25183673 19.1001211 2.12874667 18.935029 2.0360492 18.7578947 1.97877551 18.6012013 1.92679517 18.4381098 1.89956281 18.2738947 1.89795918L16.7431579 1.89795918C16.5028213 1.89017329 16.2643259 1.94460908 16.0484211 2.05653061 15.8695456 2.15260928 15.711752 2.28735596 15.5852632 2.45204082 15.4699444 2.60429551 15.3827433 2.77813568 15.3282105 2.9644898 15.2782764 3.1311407 15.2515574 3.30459339 15.2488947 3.47938776L15.2488947 5.53959184C15.2417121 5.793802 15.2933866 6.04601676 15.3994211 6.27428571 15.573834 6.64245131 15.8843211 6.91806571 16.2574211 7.03591837 16.4145027 7.08927982 16.5781898 7.1177518 16.7431579 7.12040816L19.6141579 7.12040816 19.6141579 6.02510204 16.7512632 6.02510204C16.628015 6.02918312 16.5079315 5.98342292 16.4154737 5.89714286 16.3222942 5.80544286 16.2726276 5.67458399 16.28 5.54020408L16.28 5.05653061 18.2738947 5.05591837zM16.2794211 3.48489796C16.275775 3.35411957 16.3192311 3.22675742 16.401 3.12857143 16.4893314 3.02953986 16.614662 2.97706255 16.7431579 2.98530612L18.2744737 2.98530612C18.3951003 2.98243035 18.5122467 3.02817545 18.6021579 3.11326531 18.6946716 3.20416699 18.7442917 3.33378204 18.7376316 3.46714286 18.7413154 3.59744999 18.6980664 3.72437391 18.6166316 3.8222449 18.5282081 3.92113288 18.4029436 3.97358252 18.2744737 3.9655102L16.2794211 3.9655102 16.2794211 3.48489796zM27.2006842 7.10204082L25.5587895 7.10204082C24.9757895 7.10204082 24.6353684 6.85163265 24.453 6.64102041 24.0882632 6.22163265 24.0859474 5.67979592 24.0923158 5.53530612L24.0923158 3.45367347C24.0923158 2.85244898 24.3238947 2.49673469 24.5184211 2.3044898 24.9167368 1.90959184 25.4389474 1.90285714 25.5657368 1.9077551L27.6117368 1.9077551 27.6117368.0324489796 28.6538421.0324489796 28.6538421 5.55918367C28.6538421 6.12489796 28.4344211 6.47142857 28.2485789 6.66122449 27.8473684 7.07755102 27.3089474 7.10204082 27.2006842 7.10204082zM25.1326842 5.59163265C25.1326842 5.64857143 25.1442632 5.80836735 25.2224211 5.8977551 25.3005789 5.98714286 25.4470526 5.99938776 25.5587895 5.99938776L27.2024211 5.99938776C27.6117368 5.99326531 27.6117368 5.66816327 27.6117368 5.56102041L27.6117368 3.00795918 25.52 3.00795918C25.4621053 3.00795918 25.3104211 3.02571429 25.2305263 3.11081633 25.168 3.17204082 25.1367368 3.28959184 25.1367368 3.45306122L25.1326842 5.59163265zM1.07452632 8.96938776L.0324210526 8.96938776.0324210526 3.42857143C.0324210526 2.8622449.252421053 2.51510204.437684211 2.32346939.845842105 1.89795918 1.39931579 1.88632653 1.49368421 1.88693878L3.13326316 1.88693878C3.71684211 1.88693878 4.05957895 2.13795918 4.24078947 2.34857143 4.60610526 2.76857143 4.60842105 3.31163265 4.60205263 3.45612245L4.60205263 5.54204082C4.60205263 6.14387755 4.37047368 6.50020408 4.17536842 6.69306122 3.77647368 7.08857143 3.25426316 7.09530612 3.12689474 7.09040816L1.07452632 7.09040816 1.07452632 8.96938776zM3.16915789 5.98959184C3.22415789 5.98959184 3.38047368 5.97306122 3.46557895 5.88612245 3.52810526 5.82489796 3.55994737 5.70612245 3.55994737 5.54204082L3.55994737 3.39918367C3.55994737 3.34163265 3.54836842 3.18122449 3.46963158 3.09306122 3.39089474 3.00489796 3.24384211 2.99081633 3.13152632 2.99081633L1.48615789 2.99081633C1.07452632 2.99693878 1.07452632 3.32387755 1.07452632 3.43102041L1.07452632 5.98959184 3.16915789 5.98959184zM21.2311579 7.10204082L20.1890526 7.10204082 20.1890526 3.43530612C20.1890526 2.87081633 20.4084737 2.52428571 20.5943158 2.33326531 21.0047895 1.90469388 21.5646316 1.89183673 21.6532105 1.89183673L23.6795263 1.89183673 23.6795263 2.99387755 21.6468421 2.99387755C21.2311579 3.00122449 21.2311579 3.32816327 21.2311579 3.43591837L21.2311579 7.10204082zM30.6558421 7.10204082C30.5765263 7.10204082 30.0108947 7.0855102 29.5981053 6.65326531 29.4157368 6.46163265 29.1980526 6.11571429 29.1980526 5.55612245L29.1980526 1.89244898 30.2401579 1.89244898 30.2401579 5.55857143C30.2401579 5.79979592 30.3188947 5.87877551 30.4034211 5.92591837 30.4837744 5.96964761 30.5719705 5.99489483 30.6622105 6L32.7006842 6 32.7006842 1.89244898 33.7427895 1.89244898 33.7427895 7.10204082 30.6558421 7.10204082zM13.1762632 8.92040816L10.7012632 8.92040816 10.7012632 7.81836735 13.1756842 7.81836735C13.4362105 7.81836735 13.5276842 7.71061224 13.5809474 7.60530612 13.6292656 7.50700656 13.6580322 7.39928254 13.6654737 7.28877551L13.6654737 7.07816327 11.6970526 7.07816327C11.5656316 7.08306122 11.0138947 7.07816327 10.5924211 6.66122449 10.3874737 6.45857143 10.1437368 6.08387755 10.1437368 5.44836735L10.1437368 3.52836735C10.1396842 3.3955102 10.1466316 2.80408163 10.549 2.35653061 10.7406316 2.1422449 11.0937895 1.88632653 11.6883684 1.88632653L13.1681579 1.88632653C13.7864737 1.88632653 14.7064211 2.31979592 14.7064211 3.51306122L14.7064211 7.29795918C14.7052632 7.95367347 14.2907368 8.92040816 13.1762632 8.92040816zM11.1904737 3.48979592L11.1904737 3.51 11.1904737 3.51795918 11.1904737 5.44897959C11.1904737 5.64183673 11.2304211 5.77959184 11.3062632 5.85734694 11.429 5.97979592 11.6536316 5.97979592 11.6536316 5.97979592L11.6877895 5.97979592 13.6654737 5.97979592 13.6654737 3.51306122C13.6654737 3.22040816 13.5537368 3.12244898 13.4448947 3.06428571 13.3583462 3.02084118 13.264882 2.99488536 13.1693158 2.9877551L11.6918421 2.9877551C11.5146842 2.9877551 11.3873158 3.02877551 11.3126316 3.11020408 11.2095789 3.2222449 11.1898947 3.41755102 11.1904737 3.48979592zM42.4478421 8.9344898L39.9763158 8.9344898 39.9763158 7.83244898 42.4478421 7.83244898C42.7072105 7.83244898 42.7981053 7.72591837 42.8531053 7.62183673 42.9009783 7.52430091 42.9293565 7.41738914 42.9364737 7.3077551L42.9364737 7.10510204 40.964 7.10510204C40.3636316 7.10510204 40.0087368 6.84734694 39.8165263 6.63061224 39.4199474 6.18367347 39.4141579 5.59653061 39.4187895 5.45877551L39.4187895 1.89795918 40.4608947 1.89795918 40.4608947 5.50408163C40.4608947 5.57632653 40.4788421 5.76918367 40.5801579 5.88061224 40.6548421 5.96204082 40.7839474 6.00306122 40.9645789 6.00306122L42.9364737 6.00306122 42.9364737 1.89 43.9785789 1.89 43.9785789 7.31632653C43.9739474 7.96897959 43.5628947 8.9344898 42.4478421 8.9344898z"/>
    <polygon points="37.093 7.107 36.051 7.107 36.051 2.997 34.278 2.997 34.278 1.895 36.051 1.895 36.051 .479 37.093 .479 37.093 1.895 38.873 1.895 38.873 2.997 37.093 2.997"/>
  </g>
</svg>
