<svg xmlns="http://www.w3.org/2000/svg" width="30" height="29" viewBox="0 0 30 29">
  <g fill="none">
    <path fill="#F16722" d="M14.8965517,20.9007143 C17.1307486,20.928852 19.2072872,19.7513629 20.3321479,17.8184912 C21.4570087,15.8856195 21.4562123,13.4963172 20.3300634,11.5641975 C19.2039145,9.63207787 17.1265914,8.45597654 14.8924138,8.48560714 C11.4678675,8.48646521 8.69241896,11.266609 8.69327595,14.6952321 C8.69413295,18.1238553 11.4709709,20.902608 14.8955172,20.90175"/>
    <path fill="#0DA9A0" d="M24.8927586,24.7017857 L4.89931034,24.7017857 L4.89931034,4.6835 L24.8937931,4.6835 L24.8937931,24.7017857 L24.8927586,24.7017857 Z M14.8965517,0.435 C7.03034483,0.435 0.654827586,6.81603571 0.654827586,14.6926429 C0.654827586,22.5682143 7.03034483,28.9513214 14.8955172,28.9513214 C22.7617241,28.9513214 29.1382759,22.5682143 29.1382759,14.6926429 C29.1382759,6.81707143 22.7606897,0.432928571 14.8955172,0.432928571 L14.8965517,0.435 Z"/>
    <path fill="#9FC854" d="M14.8965517,8.48560714 C17.1118448,8.48560711 19.15886,9.66885883 20.2665066,11.5896428 C21.3741531,13.5104268 21.3741531,15.8769303 20.2665066,17.7977143 C19.15886,19.7184983 17.1118448,20.90175 14.8965517,20.90175 C11.4720054,20.90175 8.69586207,18.1223017 8.69586207,14.6936786 C8.69586207,11.2650554 11.4720054,8.48560714 14.8965517,8.48560714 Z M4.83103448,24.7701429 L24.96,24.7701429 L24.96,4.61617857 L4.83103448,4.61617857 L4.83103448,24.7701429 Z"/>
  </g>
</svg>
