<svg xmlns="http://www.w3.org/2000/svg" width="26" height="30" viewBox="0 0 26 30">
  <g fill="#5BA745">
    <path d="M16.1061947 26.8139535C16.1061947 28.5116279 14.7486726 29.8837209 13.0690265 29.8837209 11.3893805 29.8837209 10.0318584 28.5116279 10.0318584 26.8139535 10.0318584 25.1162791 11.3893805 23.744186 13.0690265 23.744186 14.7256637 23.744186 16.1061947 25.1162791 16.1061947 26.8139535zM8.67433628 16.6511628C10.5840708 18.5116279 11.4353982 21.2790698 11.6654867 22.1860465 12.1256637 22.0465116 12.6088496 21.9534884 13.0920354 21.9534884 13.5752212 21.9534884 14.0353982 22.0232558 14.4725664 22.1627907 14.7026549 21.255814 15.5539823 18.5116279 17.440708 16.6511628 18.4761062 15.6511628 19.1893805 14.6046512 19.6035398 13.5348837 20.040708 12.4418605 20.0867257 10.6511628 20.0867257 10.6511628 20.0867257 10.4186047 19.9486726 10.3255814 19.7415929 10.4651163L17.6707965 11.8837209C17.4867257 12.0232558 17.440708 11.9767442 17.5787611 11.7906977L19.5575221 9.13953488C19.6955752 8.95348837 19.7415929 8.62790698 19.6725664 8.39534884 19.6725664 8.39534884 19.2123894 7.06976744 18.7522124 6.23255814 18.2920354 5.41860465 17.3486726 4.1627907 17.3486726 4.1627907 17.2106195 3.97674419 17.0265487 4 16.9575221 4.23255814L16.060177 7.06976744C15.9911504 7.30232558 15.9451327 7.27906977 15.9451327 7.04651163L16.060177 3.06976744C16.060177 2.8372093 15.9451327 2.51162791 15.7840708 2.34883721 15.7840708 2.34883721 15.1858407 1.74418605 14.7256637 1.30232558 14.1964602.813953488 13.4141593.162790698 13.4141593.162790698 13.2300885.023255814 12.9309735.023255814 12.7699115.162790698 12.7699115.162790698 11.9646018.837209302 11.4353982 1.3255814 10.9292035 1.69767442 10.3539823 2.30232558 10.3539823 2.30232558 10.1929204 2.46511628 10.0548673 2.79069767 10.0778761 3.02325581L10.1929204 7C10.1929204 7.23255814 10.1469027 7.23255814 10.0778761 7.02325581L9.15752212 4.1627907C9.08849558 3.93023256 8.90442478 3.90697674 8.76637168 4.09302326 8.76637168 4.09302326 7.77699115 5.41860465 7.29380531 6.27906977 6.85663717 7.09302326 6.41946903 8.3255814 6.41946903 8.3255814 6.35044248 8.55813953 6.39646018 8.88372093 6.53451327 9.06976744L8.53628319 11.744186C8.67433628 11.9302326 8.62831858 11.9767442 8.44424779 11.8372093L6.37345133 10.4186047C6.18938053 10.2790698 6.02831858 10.372093 6.02831858 10.6046512 6.02831858 10.6046512 6.05132743 12.1860465 6.37345133 13.1627907 6.78761062 14.372093 7.52389381 15.5348837 8.67433628 16.6511628zM23.9061947 21.8604651L25.5628319 20.5116279C25.7469027 20.372093 25.9079646 20.0465116 25.9309735 19.8139535 25.9309735 19.8139535 25.9769912 19.372093 25.9769912 18.9069767 26 18.5116279 25.9769912 18.1162791 25.9769912 18.1162791 25.9769912 17.8837209 25.7929204 17.6511628 25.5628319 17.6046512 25.5628319 17.6046512 25.1026549 17.5116279 24.6654867 17.4651163 24.2743363 17.4186047 23.9061947 17.3953488 23.9061947 17.3953488 23.6761062 17.372093 23.3309735 17.4883721 23.1699115 17.6511628L21.6053097 19.0930233C21.4442478 19.255814 21.3982301 19.2093023 21.5132743 19.0232558L22.3185841 17.7209302C22.4336283 17.5116279 22.3415929 17.372093 22.1115044 17.372093 22.1115044 17.372093 21.2831858 17.4186047 20.7079646 17.5348837 20.1327434 17.6511628 19.4884956 17.9069767 19.4884956 17.9069767 19.2814159 18 19.0513274 18.255814 19.0053097 18.4883721L18.6371681 20.2093023C18.5911504 20.4418605 18.5221239 20.4418605 18.499115 20.2093023L18.3610619 18.9767442C18.3380531 18.744186 18.1769912 18.6744186 17.9929204 18.8372093 17.9929204 18.8372093 17.3946903 19.3488372 17.0725664 19.9069767 16.6814159 20.5813953 16.4283186 21.4186047 16.359292 22.4186047 16.359292 22.6046512 16.3362832 22.7674419 16.2902655 22.9534884 17.4637168 23.7906977 18.2460177 25.1395349 18.2920354 26.6976744 18.7982301 26.6046512 19.3274336 26.5581395 19.879646 26.627907 20.7079646 26.6976744 21.4442478 26.6511628 22.0884956 26.4418605 22.8247788 26.2093023 23.6300885 25.5581395 23.6300885 25.5581395 23.8141593 25.4186047 23.7681416 25.2325581 23.5610619 25.1627907L22.3646018 24.8372093C22.1345133 24.7674419 22.1575221 24.7209302 22.3876106 24.6976744L24.1362832 24.5813953C24.3663717 24.5581395 24.6654867 24.3953488 24.780531 24.1860465 24.780531 24.1860465 25.1486726 23.5348837 25.3557522 22.9534884 25.539823 22.4186047 25.700885 21.6744186 25.700885 21.6744186 25.7469027 21.4418605 25.6088496 21.3255814 25.4017699 21.4186047L23.9982301 22C23.7451327 22.0465116 23.7221239 22 23.9061947 21.8604651zM2.30088496 21.8604651L.644247788 20.5116279C.460176991 20.372093.299115044 20.0465116.276106195 19.8139535.276106195 19.8139535.230088496 19.372093.230088496 18.9069767.207079646 18.5116279.230088496 18.1162791.230088496 18.1162791.230088496 17.8837209.437168142 17.6511628.667256637 17.6046512.667256637 17.6046512 1.12743363 17.5116279 1.56460177 17.4651163 1.95575221 17.4186047 2.32389381 17.3953488 2.32389381 17.3953488 2.5539823 17.372093 2.89911504 17.4883721 3.06017699 17.6511628L4.62477876 19.0930233C4.78584071 19.255814 4.83185841 19.2093023 4.71681416 19.0232558L3.91150442 17.7209302C3.79646018 17.5116279 3.88849558 17.372093 4.11858407 17.372093 4.11858407 17.372093 4.94690265 17.4186047 5.52212389 17.5348837 6.09734513 17.6511628 6.74159292 17.9069767 6.74159292 17.9069767 6.94867257 18 7.17876106 18.255814 7.22477876 18.4883721L7.59292035 20.2093023C7.63893805 20.4418605 7.7079646 20.4418605 7.73097345 20.2093023L7.86902655 18.9767442C7.8920354 18.744186 8.05309735 18.6744186 8.23716814 18.8372093 8.23716814 18.8372093 8.83539823 19.3488372 9.15752212 19.9069767 9.54867257 20.5813953 9.80176991 21.4186047 9.87079646 22.4186047 9.87079646 22.6046512 9.89380531 22.7674419 9.93982301 22.9534884 8.76637168 23.7906977 7.9840708 25.1395349 7.9380531 26.6976744 7.43185841 26.6046512 6.90265487 26.5581395 6.35044248 26.627907 5.52212389 26.6976744 4.78584071 26.6511628 4.14159292 26.4418605 3.40530973 26.2093023 2.6 25.5581395 2.6 25.5581395 2.4159292 25.4186047 2.4619469 25.2325581 2.66902655 25.1627907L3.86548673 24.8372093C4.09557522 24.7674419 4.07256637 24.7209302 3.84247788 24.6976744L2.09380531 24.5813953C1.86371681 24.5581395 1.58761062 24.3953488 1.47256637 24.1860465 1.47256637 24.1860465 1.10442478 23.5348837.897345133 22.9534884.690265487 22.3953488.52920354 21.627907.52920354 21.627907.483185841 21.3953488.621238938 21.2790698.828318584 21.372093L2.23185841 21.9534884C2.4619469 22.0465116 2.48495575 22 2.30088496 21.8604651z"/>
  </g>
</svg>
