<svg xmlns="http://www.w3.org/2000/svg" width="40" height="36" viewBox="0 0 40 36">
  <g fill="#00729C">
    <path d="M32.9946667,5.03295941 C29.6790667,2.04123985 25.9254667,0.670051661 24.1738667,0.296103321 C23.6108,0.171365314 23.1728,0.109062731 22.9226667,0.0467601476 C22.6098667,-0.0155424354 22.3596,-0.0155424354 22.2970667,0.0467601476 C22.4221333,0.171365314 22.86,0.420708487 23.4230667,0.670051661 C24.5492,1.23104059 27.1766667,2.5399262 29.2410667,4.59670849 C30.68,6.03019926 31.9937333,8.02481181 32.3690667,9.83225092 C32.4941333,10.2686347 32.4941333,10.7048856 32.4941333,11.0788339 C32.4316,12.9487085 30.5548,14.0705535 27.552,14.1952915 C26.6761333,14.2575941 26.2382667,14.8808856 26.2382667,15.8781255 C26.4258667,18.1219483 28.3652,21.4876162 31.1804,22.7341993 C32.2438667,23.170583 33.2449333,23.2951882 34.2458667,23.170583 C36.8733333,22.7966347 38.9377333,20.3034686 39.0002667,16.9376679 C39.0002667,16.4391144 38.9377333,15.940428 38.8752,15.379572 C38.3121333,11.764428 35.6846667,7.52612546 32.9946667,5.03295941 Z"/>
    <path d="M2.34066667,22.7966347 C2.77853333,22.7341993 3.09133333,21.799262 3.52933333,20.3657712 C4.09226667,18.4335941 4.9056,14.5069373 7.5956,11.1411365 C9.4724,8.77270849 12.7254667,6.59118819 16.4165333,6.15493727 C16.4790667,6.15493727 16.5416,6.15493727 16.6041333,6.15493727 C19.3568,5.96789668 22.7349333,7.2144797 25.2998667,9.45830258 C25.8629333,9.95698893 26.4885333,10.2061993 27.1141333,10.2686347 C28.5529333,10.3309373 29.6790667,9.27139483 29.4913333,7.77546863 C29.4288,7.4015203 29.2410667,6.96513653 28.9282667,6.52888561 C26.9889333,3.66177122 20.9206667,0.85695941 15.7909333,1.16860517 C15.7282667,1.16860517 15.6657333,1.16860517 15.6032,1.16860517 C9.84773333,1.60498893 4.46773333,5.40704059 2.15293333,9.02205166 C1.02693333,10.8294908 0.401333333,12.6370627 0.151066667,14.3198967 C-0.224266667,16.9376679 0.151066667,19.2439262 0.714133333,20.5528118 C1.33973333,22.2356458 1.9028,22.9212399 2.34066667,22.7966347 Z"/>
    <path d="M12.7254667,28.9671144 C18.1681333,35.5115424 26.9889333,37.0074686 31.9937333,35.1998967 C32.0562667,35.1998967 32.1813333,35.1375941 32.2438667,35.1375941 C36.5605333,33.4547601 38.8752,29.7150111 39.5008,27.7828339 C39.7510667,26.9726347 39.8761333,26.4116458 39.9386667,26.0376974 C39.9386667,25.5390111 39.7510667,25.4144059 39.3757333,25.5390111 C39.2505333,25.6013137 39.0629333,25.6013137 38.9377333,25.7260517 C38.3746667,25.975262 37.3737333,26.5985535 35.9974667,26.9726347 C35.2468,27.1595424 34.3709333,27.2841476 33.4325333,27.221845 C30.8050667,27.0972399 27.1141333,25.6636162 24.2989333,22.3602509 C22.6724,20.4903764 21.8590667,17.8726052 21.8590667,15.3171365 C21.7965333,14.2575941 21.9217333,13.1980517 22.2345333,12.2008118 C22.2345333,12.1383764 22.2970667,12.0137712 22.2970667,11.9514686 C22.0468,10.3932399 19.044,9.08435424 16.1662667,9.396 C14.9150667,9.52060517 13.6013333,9.95698893 12.5378667,10.7671882 C10.4733333,12.325417 9.28466667,14.9431882 9.03453333,17.9973432 C8.78426667,21.5500517 10.0354667,25.7260517 12.7254667,28.9671144 Z"/>
  </g>
</svg>
