<svg xmlns="http://www.w3.org/2000/svg" width="30" height="30" viewBox="0 0 30 30">
  <defs>
    <linearGradient id="payfully-a" x1="50%" x2="50%" y1="0%" y2="91.98%">
      <stop offset="0%" stop-color="#4784EC"/>
      <stop offset="100%" stop-color="#3267C1"/>
    </linearGradient>
  </defs>
  <path fill="url(#payfully-a)" d="M8.96809913,16.8692349 C11.5557534,16.8692349 13.6397041,18.8741732 13.6397041,21.3136793 L13.6397041,22.4988646 L13.5014324,22.4988646 C10.9137781,22.4988646 8.82982753,20.4939263 8.82982753,18.0445436 L8.82982753,16.8692349 L8.96809913,16.8692349 Z M20.4447411,12.9485436 C20.4447411,15.3969387 18.3607904,17.4028646 15.7731362,17.4028646 L15.6348646,17.4028646 L15.6348646,16.2265682 C15.6348646,13.7781732 17.7188152,11.7732349 20.3064696,11.7732349 L20.4447411,11.7732349 L20.4447411,12.9485436 Z M14.9234571,0.740741111 C22.7555559,0.740741111 29.1061732,7.0913584 29.1061732,14.9234571 L29.1061732,15.200988 C29.1061732,22.7950621 23.1407411,28.9975312 15.6345682,29.3629633 L15.6345682,19.4172843 L15.7728399,19.4172843 C19.4370374,19.4172843 22.42963,16.5333337 22.42963,12.9481486 L22.42963,10.7654324 C22.42963,10.212346 21.9851856,9.75802507 21.4419757,9.75802507 L20.3061732,9.75802507 C16.6320991,9.75802507 13.6395066,12.6419757 13.6395066,16.2271609 L13.6395066,16.7111114 C12.4345682,15.5555559 10.7851856,14.8543213 8.9679016,14.8543213 L7.83209913,14.8543213 C7.28888926,14.8543213 6.83456827,15.3086423 6.83456827,15.8627164 L6.83456827,18.0454324 C6.83456827,21.6207411 9.82716087,24.5046918 13.5012349,24.5046918 L13.6395066,24.5046918 L13.6395066,29.3234571 C10.2419757,29.0172843 7.17037074,27.5071609 4.8987658,25.2246918 C2.33086457,22.666667 0.740741111,19.1120991 0.740741111,15.200988 L0.740741111,14.9234571 C0.740741111,7.0913584 7.0913584,0.740741111 14.9234571,0.740741111 Z"/>
</svg>
