<svg xmlns="http://www.w3.org/2000/svg" width="30" height="30" viewBox="0 0 30 30">
  <path fill="#151619" fill-rule="evenodd" d="M16.690425,3.856935 C16.4271,3.90399 16.1598,3.78516 16.018275,3.5575575 C15.45375,2.6499 14.9205,1.647585 14.41425,0.5656125 C14.291175,0.302673 14.47965,0 14.768925,0 C19.086,0 22.9704,1.8552225 25.67655,4.8142125 C25.930875,5.0921625 25.596675,5.5103775 25.267275,5.328915 C23.480175,4.34454 20.42925,3.18585 16.690425,3.856935 Z M6.0067725,11.7786 C6.72894,11.119275 7.3374,10.422375 7.81515,9.6828 C9.323925,7.3472925 11.4699,5.5847175 13.989975,4.57086 C14.24325,4.468875 14.340825,4.1634525 14.202225,3.92706 C13.60365,2.90643 13.040925,1.792965 12.50865,0.6016845 C12.40485,0.369324 12.13185,0.27063 11.903475,0.38104275 C10.074675,1.26672 8.456325,2.6486175 7.2722175,4.4816925 C5.89929,6.60681 5.27307,9.069225 5.447025,11.5536 C5.4664275,11.832075 5.8013325,11.9661 6.0067725,11.7786 Z M3.51453,13.7853 C2.6174925,14.356575 1.62744,14.89635 0.55883775,15.4089 C0.2990115,15.53355 0,15.342975 0,15.0498 C0,10.68 1.8328875,6.7479825 4.7559825,4.0085475 C5.0302725,3.7514625 5.443725,4.08948 5.2644675,4.4227275 C4.2916275,6.2319975 3.1472175,9.3204 3.81024,13.10505 C3.8567475,13.37145 3.73938,13.642125 3.51453,13.7853 Z M11.63595,23.9196 C11.821275,24.127425 11.6889,24.46635 11.413725,24.48615 C8.9595,24.662325 6.52698,24.02835 4.42749,22.638825 C2.6165775,21.440175 1.251345,19.80195 0.37646475,17.950575 C0.26733375,17.7195 0.364929,17.442975 0.59454375,17.33805 C1.771365,16.799175 2.8714575,16.22955 3.8794575,15.623625 C4.1129175,15.483375 4.4146725,15.5823 4.5155625,15.83865 C5.51715,18.389475 7.2582975,20.562 9.56565,22.089075 C10.296225,22.572675 10.98465,23.1885 11.63595,23.9196 Z M18.112425,5.5138575 C17.83725,5.5336275 17.7048,5.87256 17.890125,6.080565 C18.541425,6.81171 19.22955,7.42731 19.9605,7.911075 C22.2678,9.43815 24.009,11.610525 25.01055,14.161575 C25.11105,14.4177 25.413,14.516625 25.646475,14.376525 C26.6547,13.77045 27.754575,13.200825 28.93155,12.66195 C29.1612,12.557025 29.258775,12.280725 29.14965,12.04965 C28.274775,10.19805 26.90955,8.559975 25.0986,7.3613925 C22.998975,5.97162 20.566575,5.337705 18.112425,5.5138575 Z M26.1222,16.2147 C27.0192,15.643425 28.009275,15.1038 29.077875,14.5911 C29.337675,14.46645 29.6367,14.65725 29.6367,14.9502 C29.6367,19.32 27.804,23.252175 24.88095,25.991475 C24.60645,26.248725 24.192975,25.91055 24.372225,25.57725 C25.345125,23.768025 26.489475,20.67975 25.826475,16.89495 C25.779975,16.62855 25.89735,16.357875 26.1222,16.2147 Z M23.629725,18.10935 C22.907625,18.768675 22.29915,19.465575 21.8214,20.20515 C20.312775,22.5408 18.1668,24.303225 15.646575,25.317075 C15.3933,25.419225 15.295875,25.7247 15.434325,25.960875 C16.0329,26.9817 16.595775,28.095 17.1279,29.286225 C17.2317,29.51865 17.5047,29.6175 17.733,29.506875 C19.561875,28.621425 21.180375,27.239475 22.364475,25.40625 C23.737275,23.281125 24.36345,20.818725 24.189525,18.33435 C24.1701,18.056025 23.835375,17.92185 23.629725,18.10935 Z M12.94665,26.143275 C13.20975,26.096025 13.477125,26.214825 13.61865,26.44245 C14.183175,27.35025 14.71635,28.352625 15.22245,29.43435 C15.345675,29.6973 15.157275,30 14.868,30 C10.550925,30 6.6665025,28.1448 3.9602025,25.185975 C3.7062375,24.908025 4.04022,24.4896 4.3696275,24.6711 C6.156735,25.655625 9.207675,26.8143 12.94665,26.143275 Z"/>
</svg>
