<svg xmlns="http://www.w3.org/2000/svg" width="50" height="50" viewBox="0 0 50 50">
  <defs>
    <radialGradient id="plex-a" r="67.894%" fx="50%" fy="50%" gradientTransform="matrix(1 0 0 .61398 0 .193)">
      <stop offset="17%" stop-color="#F9BE03"/>
      <stop offset="51%" stop-color="#E8A50B"/>
      <stop offset="100%" stop-color="#CC7C19"/>
    </radialGradient>
  </defs>
  <g fill="none" fill-rule="evenodd">
    <circle cx="25" cy="25" r="25" fill="#272A2D"/>
    <polygon fill="#FFF" fill-rule="nonzero" points="44.879 19.113 41.132 19.113 37.384 25.532 41.132 31.952 44.877 31.952 41.132 25.536"/>
    <g fill-rule="nonzero" transform="translate(33.162 19)">
      <polygon fill="url(#plex-a)" points=".087 .113 3.836 .113 7.97 6.532 3.836 12.952 .087 12.952 4.222 6.532"/>
      <polygon fill="#E5A00D" points=".087 .113 3.836 .113 7.97 6.532 3.836 12.952 .087 12.952 4.222 6.532"/>
    </g>
    <polygon fill="#FFF" fill-rule="nonzero" points="31.956 31.952 24.5 31.952 24.5 19.113 31.956 19.113 31.956 21.341 27.245 21.341 27.245 24.162 31.629 24.162 31.629 26.39 27.245 26.39 27.245 29.703 31.956 29.703"/>
    <polygon fill="#FFF" fill-rule="nonzero" points="15.227 31.952 15.227 19.113 17.968 19.113 17.968 29.703 23.211 29.703 23.211 31.952"/>
    <path fill="#FFF" fill-rule="nonzero" d="M13.929595,23.1166667 C13.929595,24.4992063 13.4951194,25.5565397 12.6261682,26.2886667 C11.757217,27.0207937 10.52108,27.3864444 8.91775701,27.385619 L7.74143302,27.385619 L7.74143302,31.9517143 L5,31.9517143 L5,19.1126667 L9.12959502,19.1126667 C10.6963655,19.1126667 11.8880582,19.4465397 12.7046729,20.1142857 C13.5212876,20.7820317 13.929595,21.7828254 13.929595,23.1166667 Z M7.74143302,25.1545714 L8.64361371,25.1545714 C9.48681205,25.1545714 10.1173416,24.9894921 10.5352025,24.6593333 C10.9551402,24.33 11.1582555,23.8471429 11.1582555,23.2144762 C11.1582555,22.5818095 10.9825545,22.1001905 10.6323988,21.8005714 C10.282243,21.5009524 9.73520249,21.3437143 8.98753894,21.3437143 L7.74143302,21.3437143 L7.74143302,25.1545714 Z"/>
  </g>
</svg>
