<svg xmlns="http://www.w3.org/2000/svg" width="30" height="26" viewBox="0 0 30 26">
  <path fill="#00BBE3" d="M13.8367347,10.0976744 C13.8367347,11.2465116 12.9183673,12.0930233 11.6938776,12.0930233 L8.08163265,12.0930233 L8.08163265,8.10232558 L11.6938776,8.10232558 C12.9183673,8.1627907 13.8367347,8.94883721 13.8367347,10.0976744 Z M29.2653061,14.3302326 L23.3877551,24.3674419 C22.9591837,25.1534884 21.8571429,25.7581395 20.9387755,25.7581395 L9.12244898,25.7581395 C8.26530612,25.7581395 7.16326531,25.1534884 6.67346939,24.3674419 L0.795918367,14.3302326 C0.367346939,13.6046512 0.367346939,12.3348837 0.795918367,11.6093023 L6.73469388,1.57209302 C7.16326531,0.786046512 8.26530612,0.181395349 9.18367347,0.181395349 L21,0.181395349 C21.9183673,0.181395349 22.9591837,0.786046512 23.4489796,1.57209302 L29.3265306,11.6093023 C29.6938776,12.3348837 29.6938776,13.6046512 29.2653061,14.3302326 Z M15.6734694,10.0976744 C15.6734694,8.10232558 14.0816327,6.65116279 12,6.65116279 L7.16326531,6.65116279 C6.67346939,6.65116279 6.24489796,7.0744186 6.24489796,7.55813953 L6.24489796,17.7767442 L8.08163265,17.7767442 L8.08163265,13.6046512 L12,13.6046512 C14.1428571,13.6046512 15.6734694,12.0930233 15.6734694,10.0976744 Z M24.3061224,13.1209302 C24.3061224,11.0651163 22.6530612,9.55348837 20.5102041,9.55348837 C18.3673469,9.55348837 16.7142857,11.0651163 16.7142857,13.1209302 L16.7142857,17.7767442 L18.4897959,17.7767442 L18.4897959,13.1209302 C18.4897959,11.9116279 19.2857143,11.0651163 20.5102041,11.0651163 C21.7346939,11.0651163 22.5306122,11.9116279 22.5306122,13.1209302 L22.5306122,17.7767442 L24.3061224,17.7767442 L24.3061224,13.1209302 Z"/>
</svg>
