<svg xmlns="http://www.w3.org/2000/svg" width="26" height="30" viewBox="0 0 26 30">
  <g fill="none">
    <path fill="#3DB7E2" d="M25.1037647,1.539 C25.4157647,0.999 25.1037647,0.384 24.4002353,0.384 L19.552,0.384 C19.2369412,0.384 18.9249412,0.615 18.8484706,0.7695 L13.4496471,9.462 L16.7348235,14.385 L25.1037647,1.539 Z M25.3377647,28.1535 L16.7348235,14.5335 L13.4496471,19.4535 L19.4724706,28.9185 C19.5489412,29.0685 19.8624706,29.2935 20.176,29.2935 L24.7122353,29.2935 C25.3392941,29.2935 25.7292941,28.6785 25.3392941,28.1385 L25.3377647,28.1535 Z"/>
    <path fill="#161B59" d="M16.7348235,14.538 L16.6583529,14.463 L13.3701176,9.5385 L7.81835294,0.6135 C7.66235294,0.4485 7.50482353,0.2235 7.11482353,0.2235 L2.10905882,0.2235 C1.39023529,0.2235 1.00788235,0.8385 1.39023529,1.3785 L10.062,14.5335 L1.06905882,28.3785 C0.747882353,28.9185 1.06905882,29.5335 1.84905882,29.5335 L6.54435294,29.5335 C6.85023529,29.5335 7.17141176,29.2935 7.24788235,29.1435 L13.3502353,19.5285 L13.4267059,19.4535 L16.7149412,14.5335 L16.7348235,14.538 Z"/>
  </g>
</svg>
