<svg xmlns="http://www.w3.org/2000/svg" width="24" height="27" viewBox="0 0 24 27">
  <path fill="#2C248D" fill-rule="evenodd" d="M19.4296681,7.74849748 L20.3364741,8.91333427 C20.3364741,8.91333427 15.8791952,12.5131344 13.6780573,14.1055201 C12.5057707,15.0320886 11.7718522,14.5867212 10.9685837,14.2050638 C10.2534114,13.8426128 4.60490453,11.1411594 0.401695984,9.03148065 C0.0037459339,8.6993208 -0.241525663,7.8286702 0.367887838,7.30708101 C0.977301338,6.78549181 7.98530884,2.31639313 10.7891404,0.376227918 C11.7391276,-0.263562553 12.1227201,0.0344100227 12.6420327,0.376227918 C14.4966684,1.51751123 18.9721026,4.44900909 23.4477988,7.42616028 C24.0322084,7.95449911 23.9996734,8.29373787 23.9996734,8.97753829 C23.9996734,11.6899171 23.9996734,20.2462627 23.9996734,20.6409422 C23.9996734,21.4051348 23.4974545,22.0791126 22.5051258,22.3565344 L11.5500404,22.3565344 C10.80469,22.3565344 10.9104488,22.4317135 10.6381416,22.6312673 C10.3662344,22.8696219 6.57027391,25.8366126 5.61183467,26.576962 C4.8377148,27.3335544 3.97300647,27.0323167 3.97300647,26.0153413 C3.97300647,24.3152239 3.97300647,22.3565344 3.97300647,22.3565344 L2.11678214,22.3565344 C1.05404692,22.3565344 0.335461275,21.4431908 0.335461275,20.6108431 L0.335461275,11.1076032 L1.81710448,11.1076032 L1.81710448,20.347085 C1.81710448,20.6938968 1.81710448,20.8825853 2.38583864,20.8531996 L4.33224511,20.8531996 C4.45534142,20.8531996 5.50721364,20.8531996 5.46419493,22.2056275 L5.46419493,24.7904435 L10.0841539,21.1704334 C10.0841539,21.1704334 10.6069882,20.8531996 11.008487,20.8531996 L21.9873573,20.8531996 C22.5333535,20.8531996 22.5333535,20.7057224 22.5333535,20.333778 C22.5205039,16.0226142 22.5333535,8.6205474 22.5333535,8.6205474 L11.7718522,1.57091686 L1.87933951,8.09388225 C1.87933951,8.09388225 6.82659818,10.5329771 11.8852504,12.9860103 C12.2341194,13.1445869 12.3544468,13.2246078 12.6420327,12.9860103 C15.7087675,10.6281308 19.4296681,7.74849748 19.4296681,7.74849748 Z"/>
</svg>
