<svg xmlns="http://www.w3.org/2000/svg" width="35" height="36" viewBox="0 0 35 36">
  <g fill="none" fill-rule="evenodd" transform="matrix(1 0 0 -1 .7 35.827)">
    <path fill="#E3182C" d="M25.783875,31.23714 C25.7923489,31.2333396 25.7978478,31.2248699 25.7979375,31.21548 C25.7979707,31.2127771 25.7975912,31.2100853 25.7968125,31.2075 C25.2028125,29.50263 24.217875,27.56292 23.2419375,26.09118 C21.186,22.99779 18.2334375,21.04611 16.6505625,21.7341 C15.06825,22.42152 15.4485,25.48812 17.5066875,28.58322 C17.9539299,29.2549672 18.4547299,29.888456 19.0040625,30.47733 C19.0077364,30.4820739 19.0098949,30.4878405 19.01025,30.49386 C19.0104061,30.5001053 19.0080265,30.5061419 19.0036671,30.5105593 C18.9993078,30.5149768 18.9933506,30.5173882 18.9871875,30.51723 L18.9838125,30.51666 C18.322895,30.4234219 17.6675322,30.293456 17.0206875,30.12735 C17.0161875,30.12678 17.01225,30.12336 17.008875,30.11937 C10.0614375,21.48558 7.1049375,10.27311 7.511625,0.27018 C7.5117811,0.26393474 7.50940147,0.257898137 7.50504212,0.253480655 C7.50068276,0.249063173 7.49472559,0.246651815 7.4885625,0.24681 C7.48575,0.24681 7.482375,0.24681 7.4795625,0.24795 C3.3845625,1.91976 0.3920625,5.92914 0.079875,11.00556 L0.0759375,11.06427 C-0.441,20.09592 6.6639375,29.34702 15.9474375,31.72848 C19.544625,32.65131 22.94325,32.40792 25.783875,31.23714 Z M17.6900625,26.10144 C17.0240625,24.67872 17.289,23.51079 18.2818125,23.49312 C19.2751875,23.47545 20.6218125,24.61317 21.2866875,26.03475 C21.95325,27.45804 21.68775,28.62597 20.694375,28.64421 C19.7015625,28.66074 18.3555,27.52302 17.6900625,26.10144 Z"/>
    <path fill="#231F20" fill-rule="nonzero" d="M23.1575625,6.87819 C22.4807852,6.40158 21.7776346,5.96462503 21.0515625,5.56947 C21.0483291,5.56816775 21.0449109,5.56739802 21.0414375,5.56719 C21.0289103,5.56686537 21.0184197,5.57673657 21.0178125,5.58942 C20.8816875,7.7577 20.421,9.85872 19.6239375,11.60634 C17.4988125,16.27236 13.7840625,16.63203 11.329875,12.40776 C9.8285625,9.82224 9.1445625,6.11781 9.329625,2.56215 C9.329625,2.55246 9.336375,2.54334 9.345375,2.54106 C11.9491875,1.71456 14.949,1.62393 18.1490625,2.44188 C27.4190625,4.83531 34.5099375,14.07729 33.994125,23.09925 C33.5401875,31.0251 27.37125,36.14655 19.5935625,35.67117 C19.5881112,35.6710932 19.5829688,35.668592 19.5795,35.66433 C18.8414394,34.9086129 18.131446,34.1252686 17.451,33.31593 C17.4475562,33.3119814 17.4455686,33.306946 17.445375,33.30168 C17.445375,33.288 17.4560625,33.27774 17.4684375,33.27774 L17.4718125,33.27831 C22.0291875,33.86256 25.6820625,32.92434 28.065375,31.00002 C28.0709083,30.9956035 28.0742083,30.9889155 28.074375,30.98178 C28.0744582,30.977179 28.0732906,30.9726435 28.071,30.96867 C19.8579375,19.23579 20.8749375,12.55197 23.166,6.90669 C23.1671001,6.90397654 23.167673,6.90107347 23.1676875,6.89814 C23.1675992,6.89024582 23.163848,6.88285453 23.1575625,6.87819"/>
  </g>
</svg>
