<svg xmlns="http://www.w3.org/2000/svg" width="30" height="30" viewBox="0 0 30 30">
  <g fill="#208E44">
    <path d="M18.75,12.5275862 C17.8563883,12.4737595 16.9595648,12.5188609 16.0758621,12.662069 C15.2561246,12.8019125 14.4557595,13.0380288 13.6913793,13.3655172 C12.9229865,13.699825 12.2014016,14.1327759 11.5448276,14.6534483 C10.8161758,15.2351427 10.142642,15.8827048 9.53275862,16.587931 C9.39114933,16.7332364 9.32272265,16.9347149 9.34655172,17.1362069 C9.37457384,17.3377287 9.47584938,17.5218661 9.63103448,17.6534483 C9.76435382,17.7725867 9.93855589,17.835596 10.1172414,17.8293103 C10.336789,17.8421682 10.5489209,17.7476731 10.6862069,17.5758621 C11.2211976,16.9609062 11.8116155,16.3964598 12.45,15.8896552 C13.0195164,15.4392273 13.6433672,15.0621364 14.3068966,14.7672414 C14.9664022,14.4739472 15.6622575,14.2704095 16.3758621,14.162069 C17.1539458,14.0394472 17.9428276,13.9995697 18.7293103,14.0431034 C18.9353901,14.0721227 19.1420532,13.9941366 19.2775862,13.8362069 C19.4209049,13.6994294 19.5107667,13.516038 19.5310345,13.3189655 C19.5341881,13.110978 19.4584109,12.9095218 19.3189655,12.7551724 C19.1788572,12.6013969 18.9786345,12.5163967 18.7706897,12.5224138"/>
    <path d="M14.8448276,0 C6.6462557,-5.02017741e-16 -6.10139188e-15,6.6462557 -7.10542736e-15,14.8448276 C-8.10946284e-15,23.0433995 6.6462557,29.6896552 14.8448276,29.6896552 C23.0433995,29.6896552 29.6896552,23.0433995 29.6896552,14.8448276 C29.6896552,6.6462557 23.0433995,4.14291505e-15 14.8448276,0 M23.7931034,13.1689655 C23.2206897,16.2931034 21.3586207,18.6758621 18.2068966,20.3172414 C16.8136864,21.0691782 15.2589195,21.4720687 13.6758621,21.4913793 C13.1766152,21.4889651 12.6784022,21.4457175 12.1862069,21.362069 C11.6829269,21.2781057 11.1891568,21.1447012 10.712069,20.9637931 C10.5638638,20.9100468 10.4202852,20.844312 10.2827586,20.7672414 C10.137931,20.687931 9.98793103,20.6155172 9.83275862,20.55 C9.65172414,20.4465517 9.46551724,20.3482759 9.28448276,20.2603448 C9.14542699,20.1811102 8.99282115,20.1284875 8.83448276,20.1051724 C8.73610975,20.1291559 8.64975058,20.1879536 8.59137931,20.2706897 C8.50862069,20.3637931 8.42068966,20.4827586 8.32758621,20.612069 L8.07413793,21 L7.85689655,21.3103448 C7.7875421,21.4569899 7.70256757,21.5957238 7.60344828,21.7241379 L7.39137931,21.8689655 C7.2362069,22.0655172 7.03448276,21.9724138 6.7862069,21.9724138 L6.72413793,21.9724138 C6.34655172,21.9724138 6.08275862,22.0137931 5.93275862,21.8017241 C5.78275862,21.5896552 5.68448276,21.5172414 5.63275862,21.4137931 C5.46097361,21.2128052 5.42067336,20.9307034 5.52931034,20.6896552 C5.63602253,20.3762851 5.81294038,20.0914473 6.04655172,19.8568966 C6.26896552,19.6344828 6.49655172,19.437931 6.72931034,19.2413793 C6.96206897,19.0448276 7.09137931,18.9465517 7.24655172,18.8172414 C7.3727143,18.7099055 7.46446376,18.5677838 7.51034483,18.4086207 C7.52612196,18.3759426 7.52612196,18.3378505 7.51034483,18.3051724 C7.48723793,18.2279596 7.45602989,18.153407 7.41724138,18.0827586 L7.31896552,17.8086207 C7.27308145,17.6935792 7.23336981,17.5761708 7.2,17.4568966 C7.03952639,16.5077219 7.08896127,15.5349142 7.34482759,14.6068966 C7.58546044,13.7578015 7.97992968,12.960097 8.50862069,12.2534483 C9.01720281,11.5650331 9.63792631,10.9670403 10.3448276,10.4844828 C11.0561023,9.99812785 11.8259963,9.60362232 12.6362069,9.31034483 C13.1920574,9.11924833 13.7717085,9.00610321 14.3586207,8.97413793 C14.9793103,8.9362069 15.6362069,8.91034483 16.3293103,8.89655172 C16.7068966,8.89655172 17.1103448,8.89655172 17.55,8.89655172 C17.9671954,8.88671303 18.3834416,8.85216977 18.7965517,8.79310345 C19.1702621,8.73834724 19.5375914,8.64651491 19.8931034,8.51896552 C20.1988471,8.41208626 20.4752279,8.23491907 20.7,8.00172414 C20.837973,7.88122034 20.9659763,7.74975749 21.0827586,7.60862069 C21.1904546,7.48179022 21.3118868,7.36729705 21.4448276,7.26724138 C21.5777225,7.16937376 21.7218504,7.08775916 21.8741379,7.02413793 C22.048203,6.95405641 22.2348441,6.92060189 22.4224138,6.92586207 C22.7179911,6.90978152 22.9915892,7.08181668 23.1051724,7.35517241 C23.9752131,9.16250856 24.2173082,11.2084847 23.7931034,13.1689655"/>
  </g>
</svg>
