<svg xmlns="http://www.w3.org/2000/svg" width="28" height="27" viewBox="0 0 28 27">
  <g>
    <path d="M10.3635,5.72884615 L6.3231,5.72884615 C6.22258418,5.72884615 6.1411,5.8094349 6.1411,5.90884615 L6.1411,20.5996154 C6.14091388,20.6474742 6.16000663,20.693436 6.19415844,20.7273424 C6.22831026,20.7612488 6.27470907,20.780308 6.3231,20.7803077 L7.6293,20.7803077 C7.69671582,20.7804103 7.75866647,20.7436484 7.7903,20.6847692 L10.5245,15.2660769 C10.5383758,15.2400442 10.5455863,15.2110437 10.5455,15.1816154 L10.5455,5.90884615 C10.5455,5.8094349 10.4640158,5.72884615 10.3635,5.72884615 M16.1518,5.72607692 L12.796,5.72607692 C12.7248647,5.72575208 12.6593903,5.76439184 12.6259,5.82646154 L11.5619,7.89369231 C11.5465826,7.92150983 11.5386357,7.95270999 11.5388,7.98438462 L11.5388,9.22846154 C11.5391839,9.33383272 11.625458,9.41915874 11.732,9.41953846 L15.0514,9.41953846 C15.1221989,9.4193023 15.1871964,9.38078551 15.2208,9.31915385 L16.3212,7.12176923 C16.3364032,7.0941574 16.3443465,7.0632096 16.3443,7.03176923 L16.3443,5.91715385 C16.344486,5.86666061 16.324383,5.8181624 16.2884134,5.78232845 C16.2524439,5.74649451 16.2035543,5.7262602 16.1525,5.72607692 L16.1518,5.72607692 M20.1824,9.31846154 C21.1543107,9.31846154 21.9422,8.53923037 21.9422,7.578 C21.9422,6.61676963 21.1543107,5.83753846 20.1824,5.83753846 C19.2104893,5.83753846 18.4226,6.61676963 18.4226,7.578 C18.4226,8.53923037 19.2104893,9.31846154 20.1824,9.31846154 M20.1824,6.71815385 C20.6624652,6.718154 21.0516709,7.10297967 21.0517997,7.57776942 C21.0519284,8.05255916 20.6629314,8.43759123 20.1828663,8.43784603 C19.7028012,8.43810083 19.3133865,8.05348192 19.313,7.57869231 C19.3129998,7.10370027 19.7021304,6.71853598 20.1824,6.71815385 M21.7861,10.4566154 L18.5885,10.4566154 C18.4841182,10.4566154 18.3995,10.5403037 18.3995,10.6435385 L18.3995,11.2943077 C18.3995,11.3975425 18.4841182,11.4812308 18.5885,11.4812308 L21.7861,11.4812308 C21.8904818,11.4812308 21.9751,11.3975425 21.9751,11.2943077 L21.9751,10.6435385 C21.9751,10.5403037 21.8904818,10.4566154 21.7861,10.4566154"/>
    <path d="M0.6748,26.4987692 L27.468,26.4987692 L27.468,0 L0.6748,0 L0.6748,26.4987692 Z M26.1933,25.2373846 L1.9502,25.2373846 L1.9502,1.26069231 L26.1933,1.26069231 L26.1933,25.2373846 Z"/>
  </g>
</svg>
