<svg xmlns="http://www.w3.org/2000/svg" width="30" height="29" viewBox="0 0 30 29">
  <g>
    <path d="M22.762,2.26134091 C22.5273333,2.11370455 22.29,1.97331818 22.046,1.83886364 L20.9153333,11.3436136 L7.302,4.65779545 L7.01266667,5.12179545 L13.5766667,9.02822727 L10.2746667,11.3759091 L10.2746667,10.1763636 L9.55133333,10.1763636 L9.42533333,11.9802955 L6.64,13.9608636 L6.944,14.4452955 L9.354,13.0084773 L8.96533333,18.5824091 L0.72,18.5824091 C0.941333333,19.3383864 1.222,20.0699773 1.558,20.7699318 L11.3346667,20.1952045 L18.0546667,25.0217273 L18.468,24.5959545 L13.77,20.0521818 L19.332,19.7246136 L19.332,21.5779773 L20.0866667,21.5779773 L20.2213333,19.6725455 L26.2673333,19.3172955 L26.2673333,18.5824091 L20.2986667,18.5824091 L20.6753333,13.2523409 L29.0926667,18.2620909 C29.3226667,17.3973636 29.4753333,16.5016591 29.542,15.5815682 L22.6486667,12.1958182 L22.762,2.26134091 Z M19.332,18.5824091 L15.8253333,18.5824091 L15.8253333,15.4431591 L13.7826667,15.4431591 L13.7826667,18.5824091 L10.2753333,18.5824091 L10.2753333,12.4587955 L14.804,9.75784091 L19.332,12.4522045 L19.332,18.5824091 Z"/>
    <path d="M25.1006667 4.64527273C25.23 3.99870455 25.0693333 3.36004545 24.7153333 2.82881818 24.1826667 3.18670455 23.788 3.71595455 23.6593333 4.36318182 23.53 5.01040909 23.6906667 5.64840909 24.0453333 6.17963636 24.5773333 5.82240909 24.9713333 5.2925 25.1006667 4.64527273zM24.8446667 10.2317273C24.312 10.6996818 24.0546667 11.3706364 24.046 12.0897045 24.7693333 12.1648409 25.4733333 11.9915 26.006 11.5235455 26.5386667 11.0555909 26.796 10.3839773 26.8046667 9.66622727 26.0813333 9.58911364 25.3766667 9.76377273 24.8446667 10.2317273zM28.238 12.1285909C27.6033333 12.0013864 26.9673333 12.1964773 26.4293333 12.6044545 26.7626667 13.1870909 27.2726667 13.6115455 27.908 13.7394091 28.5426667 13.8666136 29.1786667 13.6715227 29.7166667 13.2642045 29.382 12.6815682 28.8726667 12.2557955 28.238 12.1285909zM23.8993333 7.69554545C23.638 8.20502273 23.6406667 8.78502273 23.8426667 9.32679545 24.4046667 9.16927273 24.8806667 8.82984091 25.1426667 8.32102273 25.4046667 7.81154545 25.4013333 7.23154545 25.1993333 6.69043182 24.6366667 6.84795455 24.1613333 7.18738636 23.8993333 7.69554545zM29.042 9.91470455C29.046 9.32086364 28.7813333 8.78370455 28.3566667 8.37309091 27.9246667 8.77777273 27.6526667 9.31097727 27.648 9.90415909 27.6433333 10.4966818 27.908 11.0345 28.3333333 11.4451136 28.7646667 11.0404318 29.0373333 10.5065682 29.042 9.91470455zM21.8933333 17.8686136C22.2966667 17.4909545 22.5513333 16.9920227 22.556 16.4377273 22.5593333 15.8827727 22.3126667 15.3812045 21.9146667 14.9976136 21.5113333 15.3759318 21.2566667 15.8742045 21.252 16.4278409 21.2486667 16.9821364 21.4953333 17.4843636 21.8933333 17.8686136zM26.9446667 19.8023864C26.8493333 20.3322955 27.0106667 20.8529773 27.3386667 21.286 27.7986667 20.9920455 28.132 20.5583636 28.228 20.0297727 28.3226667 19.4992045 28.1613333 18.9791818 27.8333333 18.5461591 27.3733333 18.8401136 27.0406667 19.2744545 26.9446667 19.8023864zM25.8693333 22.6522955C25.548 23.0859773 25.46 23.6237955 25.5626667 24.1556818 26.1066667 24.0910909 26.5993333 23.8465682 26.92 23.4135455 27.2413333 22.9798636 27.328 22.4413864 27.226 21.9108182 26.682 21.9740909 26.19 22.2192727 25.8693333 22.6522955zM24.134 24.0278182C23.5646667 23.7411136 22.9186667 23.7417727 22.3146667 23.9592727 22.492 24.5709091 22.8706667 25.0882955 23.4386667 25.3743409 24.0073333 25.6610455 24.6533333 25.6603864 25.258 25.4428864 25.0806667 24.83125 24.7013333 24.3138636 24.134 24.0278182zM21.3986667 20.5497955C21.4453333 21.2543636 21.7333333 21.9048864 22.2806667 22.3471364 22.8293333 22.7907045 23.5306667 22.9403182 24.2386667 22.8454091 24.192 22.1421591 23.904 21.4916364 23.356 21.0480682 22.8066667 20.6051591 22.1053333 20.4562045 21.3986667 20.5497955zM23.2113333 16.5688864C23.3766667 17.0605682 23.7046667 17.4744773 24.182 17.7005455 24.6593333 17.9259545 25.192 17.9180455 25.6826667 17.7367955 25.518 17.2437955 25.1886667 16.8298864 24.712 16.6038182 24.2346667 16.3784091 23.702 16.3869773 23.2113333 16.5688864zM24.8786667 21.4784545C25.2906667 21.6728864 25.7653333 21.6379545 26.2113333 21.4356136 26.0906667 20.9637045 25.82 20.5774773 25.4086667 20.3817273 24.996 20.1872955 24.522 20.2242045 24.076 20.4258864 24.1966667 20.8977955 24.4666667 21.2833636 24.8786667 21.4784545zM17.2406667 22.1968636C17.6653333 22.5639773 18.2046667 22.7208409 18.746 22.6925 18.7026667 22.1579773 18.474 21.6504773 18.05 21.2820455 17.6246667 20.9142727 17.0853333 20.7593864 16.5446667 20.7870682 16.588 21.3215909 16.816 21.8290909 17.2406667 22.1968636zM20.0826667 22.6239545C19.6293333 22.8500227 19.3466667 23.2995227 19.2346667 23.8478864 19.7466667 24.0858182 20.2806667 24.1286591 20.7346667 23.9025909 21.188 23.6771818 21.4713333 23.2276818 21.5826667 22.6799773 21.07 22.4407273 20.5353333 22.3985455 20.0826667 22.6239545zM20.6593333 25.8337273C21.11 25.6986136 21.4513333 25.3651136 21.6573333 24.9340682 21.244 24.6882273 20.772 24.5985909 20.322 24.7323864 19.8713333 24.8681591 19.53 25.2023182 19.324 25.6327045 19.7373333 25.8785455 20.208 25.9681818 20.6593333 25.8337273zM21.208 26.4651364C20.5366667 26.7182273 20.028 27.1921136 19.718 27.7582727 20.3306667 27.9784091 21.0293333 27.9968636 21.7006667 27.7444318 22.3713333 27.492 22.882 27.0174545 23.192 26.4512955 22.5786667 26.2311591 21.878 26.2140227 21.208 26.4651364zM15.23 26.81775C15.0833333 27.6093182 15.228 28.3745227 15.5693333 29 16.1126667 28.536 16.5206667 27.8696591 16.668 27.0774318 16.8146667 26.2852045 16.6686667 25.5213182 16.328 24.8958409 15.7853333 25.3611591 15.3766667 26.0248636 15.23 26.81775zM17.456 27.3114091C17.4866667 27.9283182 17.796 28.4700909 18.266 28.8721364 18.694 28.4265909 18.9466667 27.8558182 18.9173333 27.2402273 18.886 26.6233182 18.5766667 26.0815455 18.1066667 25.6801591 17.6793333 26.1263636 17.426 26.6951591 17.456 27.3114091zM13.62 24.5834318C13.6453333 25.0915909 13.8993333 25.5377955 14.2866667 25.8693182 14.6393333 25.5015455 14.848 25.0322727 14.8233333 24.5241136 14.7973333 24.0159545 14.5426667 23.5710682 14.1553333 23.2395455 13.8033333 23.6073182 13.5946667 24.0765909 13.62 24.5834318zM12.5786667 27.5453864C12.0706667 27.7648636 11.7113333 28.1906364 11.5226667 28.70275 12.0326667 28.9143182 12.592 28.9413409 13.1006667 28.7225227 13.6086667 28.5023864 13.966 28.0772727 14.156 27.5631818 13.6446667 27.3535909 13.086 27.32525 12.5786667 27.5453864zM9.63066667 26.4704091C9.04133333 26.2496136 8.408 26.3128864 7.84133333 26.5798182 8.08533333 27.1532273 8.518 27.61525 9.106 27.8367045 9.696 28.0575 10.328 27.9929091 10.8946667 27.7259773 10.6506667 27.1538864 10.22 26.6918636 9.63066667 26.4704091zM13.28 26.5224773C13.1046667 25.8653636 12.71 25.2985455 12.106 24.969 11.502 24.6394545 10.8053333 24.6111136 10.1493333 24.8154318 10.324 25.4732045 10.7206667 26.0400227 11.324 26.3702273 11.9293333 26.6984545 12.6246667 26.7254773 13.28 26.5224773zM11.9953333 22.0597727C11.5046667 21.5799545 10.842 21.36575 10.1546667 21.3861818 10.142 22.0657045 10.368 22.7182045 10.858 23.1980227 11.35 23.6778409 12.0113333 23.8900682 12.698 23.8702955 12.71 23.1901136 12.486 22.5389318 11.9953333 22.0597727zM8.76066667 25.2636136C9.25133333 24.67175 9.51266667 23.9408182 9.418 23.1775909 9.32333333 22.4156818 8.88866667 21.7677955 8.26666667 21.3110455 7.776 21.9035682 7.51466667 22.6364773 7.60866667 23.3990455 7.70466667 24.1622727 8.13866667 24.8068636 8.76066667 25.2636136zM6.41266667 23.5038409C5.974 23.9823409 5.722 24.5873864 5.768 25.2319773 5.816 25.8778864 6.15333333 26.4387727 6.656 26.8493864 7.09466667 26.3722045 7.34666667 25.7684773 7.29933333 25.1232273 7.25266667 24.4773182 6.916 23.9151136 6.41266667 23.5038409zM2.49066667 21.6939773C2.43 22.42425 2.626 23.1413409 3.11866667 23.6910227 3.61333333 24.2413636 4.31066667 24.5148864 5.05 24.54125 5.11133333 23.8116364 4.916 23.0958636 4.422 22.5461818 3.92933333 21.9965 3.232 21.7196818 2.49066667 21.6939773zM6.738 22.4440227C6.636 22.0261591 6.394 21.663 6.01666667 21.4461591 5.63933333 21.2299773 5.19933333 21.2022955 4.78133333 21.3229091 4.88333333 21.7407727 5.126 22.1045909 5.50333333 22.3214318 5.88133333 22.5382727 6.32066667 22.5639773 6.738 22.4440227zM2.76933333 16.3454545C2.93266667 16.8667955 3.264 17.2932273 3.746 17.5061136 4.22933333 17.7176818 4.77066667 17.6748409 5.27133333 17.4454773 5.10733333 16.9234773 4.77733333 16.4977045 4.29533333 16.2848182 3.81266667 16.0725909 3.27 16.1154318 2.76933333 16.3454545zM7.79666667 16.9452273C8.064 16.4660682 8.01933333 15.8768409 7.74533333 15.2975 7.10333333 15.37725 6.57466667 15.6540682 6.30666667 16.1319091 6.03933333 16.6123864 6.08533333 17.2002955 6.35933333 17.7796364 7.00133333 17.7005455 7.52866667 17.4243864 7.79666667 16.9452273zM4.272 13.9885455C3.66866667 13.9720682 3.11866667 14.2020909 2.69333333 14.5810682 3.09666667 14.9844318 3.63333333 15.2427955 4.23533333 15.2605909 4.838 15.2777273 5.38933333 15.0483636 5.81466667 14.6687273 5.41133333 14.2660227 4.874 14.0063409 4.272 13.9885455zM1.23 17.8092955C1.62866667 17.2147955 1.81733333 16.4884773 1.69133333 15.7404091 1.564 14.993 1.14466667 14.3695.572 13.9358182.173333333 14.5316364-.0153333333 15.2559773.111333333 16.0033864.237333333 16.7514545.656 17.3769318 1.23 17.8092955zM5.51066667 11.8260682C5.076 11.5874773 4.55533333 11.6013182 4.052 11.8016818 4.14466667 12.3329091 4.408 12.7758182 4.84133333 13.0144091 5.27466667 13.2543182 5.79666667 13.2411364 6.30066667 13.0394545 6.20733333 12.5108636 5.944 12.0666364 5.51066667 11.8260682zM4.768 8.01256818C4.78733333 8.89311364 5.11066667 9.77102273 5.768 10.4670227 6.426 11.1636818 7.29266667 11.5426591 8.17933333 11.6204318 8.16 10.7412045 7.83466667 9.86131818 7.178 9.16334091 6.51933333 8.46668182 5.65333333 8.09034091 4.768 8.01256818zM3.82333333 7.56965909C4.042 6.97318182 3.928 6.32529545 3.58333333 5.73804545 2.93733333 5.97070455 2.43133333 6.39713636 2.214 6.99295455 1.994 7.58811364 2.10666667 8.23797727 2.452 8.82456818 3.09666667 8.59256818 3.60333333 8.16415909 3.82333333 7.56965909zM4.34266667 10.3431136C3.838 9.87252273 3.18333333 9.58515909 2.46333333 9.59768182 1.74266667 9.60954545 1.09666667 9.91997727.61 10.4077045 1.114 10.8776364 1.77066667 11.165 2.49133333 11.1544545 3.212 11.1412727 3.856 10.8295227 4.34266667 10.3431136zM6.014 6.98702273C6.25333333 6.40702273 6.27733333 5.78022727 6.01266667 5.22461364 5.746 4.66834091 5.24 4.29265909 4.63333333 4.10877273 4.39266667 4.69009091 4.36933333 5.31490909 4.63533333 5.86986364 4.90066667 6.42613636 5.40666667 6.80445455 6.014 6.98702273zM7.94466667 3.20977273C8.552 2.82815909 8.968 2.27584091 9.17333333 1.68529545 8.54466667 1.62070455 7.86333333 1.76175 7.25666667 2.14270455 6.65 2.52629545 6.236 3.07729545 6.03066667 3.66784091 6.66 3.73309091 7.33933333 3.59204545 7.94466667 3.20977273zM9.44866667 4.89968182C9.76333333 4.62352273 9.96 4.26102273 9.95933333 3.86161364 9.95866667 3.46154545 9.75866667 3.10168182 9.44266667 2.8275 9.12666667 3.10365909 8.93066667 3.4655 8.932 3.86490909 8.93266667 4.26497727 9.13133333 4.62615909 9.44866667 4.89968182zM14.6033333 3.79965909C15.0126667 3.45890909 15.2253333 2.96986364 15.2593333 2.44522727 14.73 2.38920455 14.2066667 2.51509091 13.7986667 2.85584091 13.39 3.19593182 13.1753333 3.68563636 13.1426667 4.21027273 13.6706667 4.26497727 14.1946667 4.13909091 14.6033333 3.79965909zM21.078 2.67327273C21.2746667 2.05438636 21.1426667 1.40122727 20.7873333.822545455 20.16 1.09606818 19.676 1.55940909 19.4793333 2.17697727 19.2826667 2.79520455 19.4126667 3.451 19.7693333 4.02836364 20.3966667 3.75484091 20.8806667 3.29084091 21.078 2.67327273zM17.222 4.23663636C17.4666667 4.79159091 17.9106667 5.30040909 18.5266667 5.64577273 19.144 5.99047727 19.814 6.10120455 20.4193333 6.02145455 20.176 5.4665 19.7326667 4.95768182 19.116 4.61363636 18.4993333 4.26893182 17.8273333 4.15622727 17.222 4.23663636zM18.8773333 6.72865909C18.5706667 7.25988636 18.4653333 7.86361364 18.6473333 8.439 18.83 9.01504545 19.268 9.44806818 19.8266667 9.70906818 20.134 9.17784091 20.2393333 8.57411364 20.056 8.00004545 19.874 7.42531818 19.4366667 6.989 18.8773333 6.72865909zM18.8033333.577363636C18.0993333.5945 17.4353333.850227273 16.9593333 1.36629545 16.4826667 1.88236364 16.2866667 2.56122727 16.336 3.25525 17.0393333 3.23745455 17.704 2.98172727 18.1806667 2.46631818 18.658 1.94959091 18.8506667 1.27138636 18.8033333.577363636zM16.302.708522727C15.7846667.248477273 15.1186667-.0250454545 14.394.00197727273 13.6693333.0283409091 13.024.351954545 12.5446667.84825 13.062 1.30697727 13.7286667 1.58181818 14.4533333 1.55545455 15.1786667 1.52909091 15.8206667 1.20415909 16.302.708522727zM15.7186667 6.13547727C16.0953333 5.52647727 16.156 4.81004545 15.9733333 4.12459091 15.2706667 4.27618182 14.6553333 4.65911364 14.28 5.26679545 13.904 5.87447727 13.84 6.59288636 14.0246667 7.27768182 14.7253333 7.12543182 15.3413333 6.74184091 15.7186667 6.13547727zM16.362 7.15179545C16.3273333 7.6995 16.5453333 8.21095455 16.9213333 8.61234091 17.3433333 8.25906818 17.6233333 7.77859091 17.6586667 7.23022727 17.6933333 6.68120455 17.4726667 6.17238636 17.0986667 5.77034091 16.676 6.12361364 16.396 6.60409091 16.362 7.15179545zM12.23 3.83920455C12.4706667 3.20252273 12.4766667 2.52365909 12.1706667 1.93113636 11.864 1.33861364 11.3026667.949090909 10.64.770477273 10.398 1.40781818 10.392 2.08602273 10.6993333 2.67788636 11.0046667 3.26909091 11.566 3.66190909 12.23 3.83920455zM12.1333333 4.56222727C11.662 4.46863636 11.1806667 4.66504545 10.7673333 5.04534091 11.002 5.55547727 11.3713333 5.91665909 11.8413333 6.00959091 12.312 6.10318182 12.794 5.90809091 13.2073333 5.52713636 12.9726667 5.01831818 12.6033333 4.65581818 12.1333333 4.56222727zM10.28 8.93463636C10.1006667 8.32365909 9.712 7.78518182 9.12933333 7.45563636 8.546 7.12675 7.88 7.07270455 7.25666667 7.23286364 7.43666667 7.8445 7.824 8.38165909 8.406 8.70988636 8.99 9.03877273 9.65733333 9.09545455 10.28 8.93463636zM1.53933333 13.4019545C2.21466667 13.5845227 2.906 13.456 3.498 13.1106364 3.162 12.5187727 2.632 12.0620227 1.958 11.8787955 1.282 11.6975455.592666667 11.8273864 0 12.1714318.335333333 12.7646136.864 13.2213636 1.53933333 13.4019545zM26.966 8.22215909C27.2833333 7.69093182 27.412 7.05886364 27.266 6.42415909 27.1186667 5.78879545 26.7246667 5.27404545 26.206 4.93263636 25.8886667 5.46320455 25.76 6.09527273 25.9066667 6.73063636 26.0533333 7.366 26.4466667 7.88009091 26.966 8.22215909z"/>
  </g>
</svg>
