<svg xmlns="http://www.w3.org/2000/svg" width="50" height="50" viewBox="0 0 50 50">
  <g fill="none" fill-rule="evenodd">
    <circle cx="25" cy="25" r="25" fill="#293D4D"/>
    <path fill="#FFF" fill-rule="nonzero" d="M27.4419673,23.344878 C27.4419673,23.344878 26.0965934,24.3092683 25.1633945,24.5273171 C25.3781899,23.5863415 26.3360613,22.2282927 26.3360613,22.2282927 C25.8173646,22.4403878 25.3486294,22.7599691 24.9602096,23.1663415 C24.0531344,24.082439 22.7513001,26.9580488 22.7513001,26.9580488 C22.7513001,26.9580488 25.6045958,25.6409756 26.5131224,24.7307317 C26.9161467,24.3399559 27.232683,23.867678 27.4419673,23.344878 Z"/>
    <path fill="#FFF" fill-rule="nonzero" d="M32.673977,20.6478049 L35.4764765,17.8219512 C35.4764765,17.8219512 38.0177384,15.2317073 37.7057045,11.9243902 C34.4257206,11.6097561 31.8568837,14.1721951 31.8568837,14.1721951 L29.0543842,16.9980488 C24.5552913,18.1204878 23.5103407,22.9980488 23.5103407,22.9980488 C24.1940525,21.9672996 25.2254012,21.2216602 26.4129813,20.8995122 L26.2054425,21.6882927 L27.1110663,22.6 L28.0152389,23.5131707 L28.7975005,23.3039024 C28.4780149,24.5013789 27.7385378,25.5413223 26.7163072,26.2307317 C26.7163072,26.2307317 31.5608144,25.1785366 32.673977,20.6478049 Z M31.4984076,15.8741463 C32.1631123,15.364878 33.5070349,14.5204878 35.088974,14.5643902 C35.1310623,16.1580488 34.2951018,17.5131707 33.7827857,18.184878 L31.4984076,15.8741463 Z"/>
    <path fill="#FFF" fill-rule="nonzero" d="M29.5449305 13.7917073L30.2401129 10.8282927 27.1923403 10.0043902 26.3215481 12.9312195C25.361942 12.8126841 24.3915754 12.8126841 23.4319694 12.9312195L22.5611772 10.0043902 19.5134046 10.8282927 20.2071357 13.7917073C19.3165861 14.1738756 18.4762102 14.6653948 17.7050595 15.255122L15.5063092 13.1668293 13.2741786 15.417561 15.346664 17.6302439C14.762691 18.4084115 14.2752991 19.2556773 13.8953437 20.1531707L10.9578714 19.4536585 10.1407781 22.5268293 13.0347107 23.404878C12.9186121 24.3725699 12.9186121 25.3508447 13.0347107 26.3185366L10.1407781 27.1965854 10.9578714 30.2697561 13.8953437 29.5702439C14.2672568 30.4538887 14.7433294 31.2891678 15.3132836 32.0580488L24.4391856 22.857561C23.7358376 23.0490073 23.0442934 23.2820945 22.3681516 23.5556098 22.3511416 23.801735 22.2818474 24.0412952 22.1649667 24.2580488 22.1653236 24.2536659 22.1653236 24.2492609 22.1649667 24.244878 22.3330642 23.3054972 21.910644 22.3586423 21.1020259 21.862296 20.2934078 21.3659497 19.2652642 21.4224189 18.5148962 22.0043902 18.5705094 22.3033029 18.5469813 22.611717 18.4466841 22.8985366L18.4466841 22.8809756C18.577596 21.807402 17.8493907 20.819353 16.792179 20.6360976 18.9865136 16.3851204 24.0531351 14.5494285 28.4288651 16.42L30.5434388 14.2878049C30.2212457 14.1004878 29.8859907 13.9365854 29.5449305 13.7917073zM34.2472082 36.5580488L36.4793388 34.3131707 34.4083048 32.0960976C34.992863 31.3183225 35.4802981 30.4709815 35.8596251 29.5731707L38.7985487 30.2726829 39.615642 27.1995122 36.720258 26.3214634C36.8378138 25.3538607 36.8378138 24.3754076 36.720258 23.4078049L39.615642 22.5297561 38.7985487 19.4565854 35.8523685 20.1517073C35.6985704 19.7866164 35.5266125 19.4295777 35.3371498 19.0819512L33.2269301 21.2097561C35.1262572 25.6317401 33.3119866 30.7818899 29.0718 33.004878 28.8881265 31.944074 27.9148535 31.2125322 26.8541826 31.3380488L26.8367668 31.3380488C27.121216 31.2369158 27.4270812 31.2131917 27.7235235 31.2692683 28.3023948 30.5129861 28.3593027 29.4752481 27.8666543 28.6592221 27.3740059 27.8431961 26.4336561 27.4175952 25.5015521 27.5887805L25.4884902 27.5887805C25.7031704 27.4702372 25.9409035 27.4003206 26.185124 27.3839024 26.4563788 26.7021261 26.6875396 26.0048191 26.8774037 25.2956098L17.752953 34.497561C18.5155152 35.0718135 19.3438955 35.5513645 20.2201975 35.9258537L19.5264664 38.8892683 22.5742391 39.7131707 23.4450312 36.795122C24.4047257 36.912188 25.3749155 36.912188 26.33461 36.795122L27.2054021 39.7131707 30.2531748 38.8892683 29.5449305 35.9229268C30.4356293 35.5401484 31.2764137 35.0486754 32.048458 34.4595122L34.2472082 36.5580488z"/>
  </g>
</svg>
