<svg xmlns="http://www.w3.org/2000/svg" width="30" height="36" viewBox="0 0 30 36">
  <g fill="#53BAD3">
    <path d="M26.7564103,12.6580645 L17.7820513,7.44516129 C17.7307692,7.41935484 17.6666667,7.40645161 17.6153846,7.40645161 C17.5641026,7.40645161 17.5,7.41935484 17.4487179,7.44516129 L8.5,12.6451613 L8.48717949,12.6451613 C8.47435897,12.6451613 8.46153846,12.6580645 8.46153846,12.6580645 L8.44871795,12.6580645 L8.3974359,12.6709677 C8.29487179,12.7354839 8.20512821,12.8387097 8.20512821,12.9548387 L8.20512821,23.4193548 C8.20512821,23.5354839 8.29487179,23.6387097 8.3974359,23.7032258 L17.4358974,28.9290323 C17.4871795,28.9548387 17.5512821,28.9677419 17.6025641,28.9677419 C17.6538462,28.9677419 17.7564103,28.9548387 17.8333333,28.9290323 L26.8846154,23.7032258 C26.9871795,23.6516129 27.1410256,23.5354839 27.1410256,23.4193548 L27.1410256,12.9548387 C27.1410256,12.8387097 26.9871795,12.7354839 26.8846154,12.6709677 L26.7564103,12.6580645 Z M17.6025641,8.09032258 L20.5384615,9.79354839 L12.2307692,14.6193548 L9.29487179,12.916129 L17.6025641,8.09032258 Z M17.4487179,28.0645161 L9.08974359,23.2129032 L9.1025641,23.2129032 L9.1025641,13.483871 L11.7435897,15.2258065 L11.7435897,18.6064516 L12.2051282,18.4129032 L13,19.2258065 L13.6794872,19.2258065 L13.9358974,19.6129032 L13.9358974,16.3354839 L17.4487179,18.3225806 L17.4487179,28.0645161 Z M17.6025641,17.7419355 L14.0128205,15.6645161 L22.3333333,10.8387097 L25.9102564,12.916129 L17.6025641,17.7419355 Z M26.2435897,23.2129032 L17.8846154,28.0645161 L17.8846154,18.3225806 L26.2435897,13.4709677 L26.2435897,23.2129032 Z"/>
    <path d="M28.7435897,29.5741935 C22.5512821,35.8064516 12.474359,35.8064516 6.28205128,29.5741935 C0.0897435897,23.3419355 0.0897435897,13.2 6.28205128,6.96774194 C11.2820513,1.93548387 18.8717949,0.877419355 24.9615385,4.14193548 L23.4358974,6.67096774 C23.4102564,6.72258065 23.4102564,6.77419355 23.4358974,6.81290323 C23.4615385,6.83870968 23.5,6.86451613 23.5384615,6.86451613 C23.5384615,6.86451613 23.5512821,6.86451613 23.5641026,6.87741935 L29.6794872,6.06451613 C29.7179487,6.0516129 29.7435897,6.03870968 29.7692308,6 C29.7948718,5.96129032 29.7948718,5.92258065 29.7820513,5.88387097 L27.5641026,0.206451613 C27.5384615,0.167741935 27.5,0.129032258 27.4487179,0.129032258 C27.4102564,0.116129032 27.3589744,0.15483871 27.3333333,0.193548387 L25.8076923,2.72258065 C19.0769231,-0.941935484 10.6538462,0.219354839 5.12820513,5.79354839 C-1.70512821,12.6709677 -1.70512821,23.8451613 5.12820513,30.7225806 C8.53846154,34.1677419 13.025641,35.883871 17.5128205,35.883871 C21.9871795,35.883871 26.474359,34.1548387 29.8974359,30.7354839 L28.7435897,29.5741935 Z"/>
  </g>
</svg>
