<svg xmlns="http://www.w3.org/2000/svg" width="50" height="50" viewBox="0 0 50 50">
  <g fill="none" fill-rule="evenodd">
    <circle cx="25" cy="25" r="25" fill="#723080"/>
    <path fill="#FFF" fill-rule="nonzero" d="M31.9152542 31.5342466C30.5728814 29.3972603 29.5559322 28 28.8644068 27.4657534 32.3627119 26.5616438 35.820339 23.6027397 35.820339 18.7534247 35.820339 12.8356164 31.7932203 10 25.4067797 10 19.7932203 10 16.5389831 12.6712329 15.8067797 17.3150685L13 17.3150685 18.5728814 22.1232877 24.4711864 17.3150685 21.2983051 17.3150685C21.2983051 17.3150685 21.3389831 13.9863014 25.4881356 13.9863014 29.0271186 13.9863014 30.2474576 16.6164384 30.2474576 18.7945205 30.2474576 21.9589041 28.579661 24.3835616 24.5932203 24.3835616L15.7661017 24.3835616 15.7661017 39.8356164 21.3389831 39.8356164 21.3389831 28.2054795C22.559322 28.2054795 23.7389831 28.6575342 25.8135593 31.739726L30.7762712 39.8356164 37 39.8356164 31.9152542 31.5342466zM25.2440678 10L25.4084514 10C25.4084514 10 25.2440678 10 25.2440678 10z"/>
  </g>
</svg>
