<svg xmlns="http://www.w3.org/2000/svg" width="30" height="26" viewBox="0 0 30 26">
  <g fill="none" fill-rule="evenodd">
    <path fill="#000" d="M28.9695074,22.3753966 L28.9695074,21.7104358 L29.269803,21.7104358 C29.329803,21.7104358 29.3759113,21.7161006 29.4070936,21.7280112 C29.438867,21.7399218 29.4636946,21.7615642 29.4827586,21.7916313 C29.5012315,21.8216983 29.5105419,21.8551061 29.5105419,21.892 C29.5105419,21.9392067 29.4948768,21.9788603 29.4642857,22.0112514 C29.4331034,22.0434972 29.3846305,22.0639777 29.3199015,22.0729832 C29.3436946,22.0844581 29.3615764,22.0952067 29.3742857,22.1059553 C29.4001478,22.1297765 29.4249754,22.1592626 29.4481773,22.1944134 L29.5659606,22.3753966 L29.4533498,22.3753966 L29.3637931,22.2369721 C29.337931,22.1973184 29.3159113,22.1666704 29.2992118,22.1456089 C29.2825123,22.1246927 29.2668473,22.1092961 29.2535468,22.1008715 C29.2402463,22.0928827 29.2265025,22.0866369 29.2126108,22.0832961 C29.2027094,22.0815531 29.1860099,22.0803911 29.1629557,22.0803911 L29.059064,22.0803911 L29.059064,22.3753966 L28.9695074,22.3753966 Z M29.059064,22.0038436 L29.2519212,22.0038436 C29.292266,22.0038436 29.3246305,21.9999218 29.3476847,21.991352 C29.3707389,21.9833631 29.3880296,21.9698547 29.4001478,21.9516983 C29.412266,21.9335419 29.4181773,21.9136425 29.4181773,21.892 C29.4181773,21.8603352 29.4065025,21.8347709 29.3834483,21.8142905 C29.3603941,21.7939553 29.3234483,21.7836425 29.273202,21.7836425 L29.059064,21.7836425 L29.059064,22.0038436 Z M29.2680296,21.3502123 C28.8800985,21.3502123 28.5660591,21.6627933 28.5660591,22.0440782 C28.5660591,22.4247821 28.8800985,22.7340223 29.2680296,22.7340223 C29.6553695,22.7340223 29.97,22.4247821 29.97,22.0440782 C29.97,21.6627933 29.6553695,21.3502123 29.2680296,21.3502123 Z M29.2680296,21.4954637 C29.5751232,21.4954637 29.8222167,21.7416648 29.8222167,22.0440782 C29.8222167,22.3459106 29.5751232,22.5887709 29.2680296,22.5887709 C28.9603448,22.5887709 28.7138424,22.3459106 28.7138424,22.0440782 C28.7138424,21.7416648 28.9603448,21.4954637 29.2680296,21.4954637 Z M18.6685714,25.8438547 C18.6685714,25.7888045 19.5979803,24.4311397 20.6717734,22.9184916 C21.0551232,22.3783017 21.1896059,22.0690615 21.227734,21.6401341 C21.2553695,21.3291508 21.3916256,20.696 21.5306897,20.2329385 C21.6699015,19.7700223 21.7559113,19.3643352 21.7223645,19.3313631 C21.6889655,19.2979553 21.4331527,19.3501006 21.1548768,19.4465475 C20.5458621,19.657743 20.1430049,19.6667486 19.4519704,19.4851844 C19.0120197,19.369419 18.8481281,19.3795866 18.3996059,19.5476425 C17.9008374,19.7348715 17.8378818,19.7354525 17.3726601,19.5521453 C16.9072906,19.368838 16.8051724,19.369419 15.6938424,19.5617318 C13.6163054,19.9203575 12.9449261,19.7194749 11.558867,18.3231732 C10.699803,17.4590726 10.3794089,17.2695196 10.2155172,17.5305363 C10.1751724,17.5945922 10.0180788,17.6468827 9.86630542,17.6468827 C9.66369458,17.6468827 9.48753695,17.4908827 9.20926108,17.0641341 C9.00029557,16.7441453 8.67990148,16.377676 8.49753695,16.25 C7.50059113,15.552067 6.37315271,16.0581229 6.37315271,17.2037207 C6.37315271,17.6752067 7.33374384,19.0988156 7.81862069,19.3450168 C8.45881773,19.6706704 8.09807882,20.1581341 7.29384236,20.0519553 C6.87768473,19.996905 6.6935468,19.8744581 6.13477833,19.2815419 C5.53729064,18.646648 5.4246798,18.5767821 5.0055665,18.5791061 C4.74990148,18.5802682 4.32206897,18.6788939 4.0553202,18.7981453 C3.36901478,19.1044804 2.47241379,19.2735531 1.53561576,19.2735531 L0.729162562,19.2735531 L0.545024631,18.6051061 C0.125320197,17.0862123 0.0520197044,16.4927151 0.0524630542,14.6255084 C0.0524630542,13.1968156 0.108472906,12.456324 0.270738916,11.7204804 C1.14990148,7.74306145 3.38748768,4.52719553 6.78251232,2.36193296 C8.44788177,1.29985475 9.97714286,0.676290503 11.9295074,0.263776536 C13.3247291,-0.0312290503 16.4478325,-0.0392178771 17.8044828,0.247944134 C22.424335,1.22664804 26.25,4.09027933 28.2421182,8.0602905 C29.3574384,10.2832179 29.7817241,12.0921788 29.7817241,14.6255084 C29.7817241,17.1016089 29.3627586,18.9325028 28.305665,21.0743799 C27.5385222,22.6295866 27.6447783,22.5496983 26.5270936,22.4112737 C25.515665,22.2863575 24.1903448,22.3919553 23.3394089,22.6658994 C22.9594581,22.7884916 22.8561576,22.8837765 22.8076847,23.1596089 C22.7562562,23.4518547 22.6454187,23.5397318 22.0399507,23.7701006 C21.5302463,23.9641564 21.1174877,24.2466704 20.5621182,24.7806145 C20.1384236,25.1886257 19.6851724,25.5732514 19.5552709,25.6357095 C19.2499507,25.7815419 18.6685714,25.9182235 18.6685714,25.8438547 Z M21.5058621,18.2907821 C24.1400985,17.8965698 25.9631527,16.8394302 26.7251232,15.264324 C27.3774384,13.9156648 27.093399,12.6759441 25.9341872,11.8112626 C25.3777833,11.3965698 23.9559606,10.790581 23.5384729,10.790581 C23.4236453,10.790581 23.2238424,11.0016313 23.0708867,11.2847263 C22.8382759,11.7142346 22.1859606,12.301486 21.9406404,12.301486 C21.8955665,12.301486 22.0185222,12.0064804 22.2141872,11.6461117 C22.4237438,11.259162 22.5699015,10.8155642 22.5699015,10.5641341 C22.5699015,9.43901676 21.3362069,6.14878212 20.3438424,4.62930726 C19.8849754,3.9257095 19.6563547,3.69650279 19.1419212,3.42241341 C18.2524138,2.94802235 17.1895567,2.88905028 15.8030542,3.23692737 C14.9705911,3.44507263 14.5844335,3.48138547 13.7940887,3.42531844 C10.5758128,3.19654749 10.704532,3.19494972 10.1728079,3.46221229 C9.49448276,3.80195531 9.28093596,4.19979888 8.86123153,5.9070838 C8.40635468,7.75497207 8.39600985,8.32581006 8.80817734,8.80746369 C9.22832512,9.29884916 10.5809852,9.90716201 11.9295074,10.2117542 C13.5435961,10.5766257 14.6438424,10.8983575 14.9497537,11.0957542 C15.0963547,11.1900223 15.2794581,11.4344804 15.3573399,11.6388492 C15.6956158,12.5289497 15.8779803,12.8881564 16.0841379,13.0714637 C16.2047291,13.1792402 16.3040394,13.3313184 16.3040394,13.4096089 C16.3040394,14.2522123 10.1994089,12.3836983 8.62566502,11.0594413 C7.94394089,10.4864246 7.74827586,10.0665028 7.83310345,9.36246927 L7.90182266,8.78872626 L6.33960591,8.83927374 C5.01945813,8.8818324 4.68975369,8.93063687 4.21477833,9.15592179 C2.58280788,9.92982123 2.66009852,11.2222682 4.43807882,12.8824916 C7.03699507,15.3086257 12.3629557,17.6740447 16.592069,18.2811955 C18.0462562,18.4899218 20.1469951,18.4939888 21.5058621,18.2907821 Z M10.4614286,7.06502793 C10.0347783,6.63668156 9.88004926,6.39265922 9.88004926,6.14413408 C9.88004926,5.5637095 10.3033005,5.2624581 10.6501478,5.59551955 C11.1721182,6.09649162 11.3550739,6.14311732 12.5240394,6.06758659 C13.7444335,5.98871508 14.4521675,6.12321788 14.5832512,6.4584581 C14.702069,6.76261453 14.4931034,6.85688268 13.448867,6.97032402 C12.3237931,7.09175419 11.7747783,7.24267039 11.569803,7.48494972 C11.329064,7.77036872 11.0658621,7.67043575 10.4614286,7.06502793 Z M17.1019212,5.23529609 C16.5614778,5.19099441 16.5302956,5.05024581 17.0308374,4.90949721 C17.48867,4.78022346 17.7433005,4.44207821 17.4962069,4.29058101 C17.2334483,4.12935196 16.328867,4.02724022 15.9288177,4.11351955 C15.6892611,4.1650838 15.591133,4.15099441 15.6407882,4.0715419 C15.7661084,3.87298324 17.0187192,3.67093855 17.7305911,3.73397765 C18.4723153,3.80035754 19.0733498,4.05730726 19.1909852,4.35913966 C19.3896059,4.86751955 18.2830049,5.33116201 17.1019212,5.23529609 Z M16.6856158,22.2943464 C16.4726601,22.1666704 16.1649754,22.0622346 16.0021182,22.0622346 C15.6558621,22.0622346 15.504532,21.7859665 15.7140887,21.5380223 C15.8976355,21.3207263 16.5072414,21.3213073 16.8951724,21.5391844 C17.3097044,21.7723128 17.6503448,21.7524134 17.9002463,21.4812291 C18.1882759,21.168648 18.3135961,21.1891285 18.3135961,21.5481899 C18.3135961,21.9255531 17.7189163,22.5274749 17.3478325,22.5268939 C17.1965025,22.5264581 16.8981281,22.4220223 16.6856158,22.2943464 Z"/>
    <path fill="#CA0000" d="M17.451133,3.01396648 C16.9557635,3.00989944 16.4097044,3.08368715 15.8030542,3.23576536 C14.9705911,3.44449162 14.5832512,3.48080447 13.7934975,3.42473743 C10.5746305,3.19553073 10.704532,3.19436872 10.1728079,3.46105028 C9.49448276,3.80093855 9.28152709,4.20081564 8.86123153,5.90810056 C8.40635468,7.75671508 8.39704433,8.32464804 8.80921182,8.80586592 C9.23009852,9.29710615 10.5826108,9.90658101 11.931133,10.2111732 C13.5446305,10.5760447 14.6432512,10.8966145 14.9497537,11.0935754 C15.0957635,11.1882793 15.2782759,11.4338994 15.3561576,11.6382682 C15.6944335,12.528514 15.8779803,12.8893184 16.0841379,13.0726257 C16.2047291,13.1804022 16.3058128,13.3318994 16.3058128,13.4107709 C16.3058128,14.2527933 10.1982266,12.3848603 8.62448276,11.0611844 C7.94275862,10.4875866 7.748867,10.0659218 7.83369458,9.36188827 L7.90064039,8.7877095 L6.33738916,8.83869274 C5.01768473,8.8812514 4.68812808,8.92947486 4.21300493,9.15475978 C2.58103448,9.92807821 2.66068966,11.2240112 4.43866995,12.8842346 C7.03699507,15.3103687 12.3641379,17.6728827 16.5938424,18.2800335 C18.0474384,18.488905 20.1487685,18.4945698 21.5076355,18.2907821 C24.141133,17.8970056 25.9625616,16.8405922 26.724532,15.266067 C27.3768473,13.9174078 27.093399,12.6771061 25.9335961,11.8130056 C25.3771921,11.3975866 23.9569951,10.7921788 23.5396552,10.7921788 C23.4248276,10.7921788 23.2238424,11.0027933 23.0702956,11.2864693 C22.8376847,11.7159777 22.1847783,12.3032291 21.9400493,12.3032291 C21.8943842,12.3032291 22.0173399,12.0064804 22.2131527,11.6455307 C22.4231527,11.259162 22.5715271,10.8149832 22.5715271,10.5635531 C22.5715271,9.43843575 21.3356158,6.14979888 20.3438424,4.62988827 C19.8843842,3.92687151 19.6575369,3.69475978 19.1431034,3.42067039 C18.6425616,3.15398883 18.087931,3.01963128 17.451133,3.01396648 Z M17.4396059,3.72206704 C17.5423153,3.72264804 17.6428079,3.72540782 17.7316256,3.73339665 C18.4734975,3.79919553 19.0733498,4.05614525 19.1909852,4.3575419 C19.3896059,4.86592179 18.2847783,5.33275978 17.1035468,5.23631285 C16.5626601,5.19273743 16.5298522,5.05082682 17.0296552,4.90949721 C17.4874877,4.78080447 17.7421182,4.44367598 17.4950246,4.29217877 C17.232266,4.13109497 16.328867,4.02782123 15.9288177,4.11468156 C15.6892611,4.16624581 15.5905419,4.15041341 15.6407882,4.07096089 C15.7498522,3.89738547 16.7213793,3.72148603 17.4396059,3.72206704 Z M10.316601,5.45825698 C10.4244828,5.44910615 10.5404926,5.4916648 10.6491133,5.59610056 C11.1715271,6.09707263 11.3533005,6.14311732 12.522266,6.0681676 C13.7426601,5.98929609 14.4533498,6.12147486 14.5838424,6.45686034 C14.7026601,6.76087151 14.4942857,6.85572067 13.4494581,6.96858101 C12.3243842,7.09059218 11.7741872,7.24150838 11.5692118,7.48436872 C11.3284729,7.76978771 11.0652709,7.67217877 10.4608374,7.06677095 C10.0337438,6.63842458 9.88064039,6.39265922 9.88064039,6.14413408 C9.88064039,5.74527374 10.0792611,5.47757542 10.316601,5.45825698 Z"/>
  </g>
</svg>
