<svg xmlns="http://www.w3.org/2000/svg" width="50" height="50" viewBox="0 0 50 50">
  <g fill="none" fill-rule="evenodd">
    <circle cx="25" cy="25" r="25" fill="#0E2134"/>
    <path fill="#FFF" fill-rule="nonzero" d="M10.4852941,28.58 L10.4852941,28.8675 L8.36305882,28.8675 L7.05117647,26.44 L6.00117647,26.44 L6.00117647,28.8675 L4,28.8675 L4,21.11 C5.13894118,21.11 6.24329412,21.11 7.36988235,21.11 C9.21788235,21.11 10.1245882,22.495 10.1245882,23.86 C10.1339184,24.7533487 9.70911768,25.594375 8.98811765,26.11 L10.4852941,28.58 Z M7.35752941,24.79 C7.91588235,24.79 8.18764706,24.3025 8.18764706,23.815 C8.18764706,23.3275 7.92576471,22.8725 7.35752941,22.8725 L5.97647059,22.8725 L5.97647059,24.79 L7.35752941,24.79 Z"/>
    <polygon fill="#FFF" fill-rule="nonzero" points="16.402 22.885 13.623 22.885 13.623 23.992 16.182 23.992 16.182 25.765 13.623 25.765 13.623 27.027 16.499 27.027 16.499 28.878 11.622 28.878 11.622 21.122 16.402 21.122"/>
    <path fill="#FFF" fill-rule="nonzero" d="M20.8296471 21.1325C23.3224706 21.1325 24.6022353 23.06 24.6022353 24.9675 24.6343529 26.9175 23.3669412 28.88 20.8296471 28.88L17.9094118 28.88 17.9094118 21.1325 20.8296471 21.1325zM20.8 27.05C22.0130588 27.05 22.5936471 26.02 22.5936471 24.99 22.5936471 23.96 21.9883529 22.95 20.8 22.95L19.9105882 22.95 19.9105882 27.05 20.8 27.05zM29.3927059 29C27.3692941 29 25.4768235 27.6925 25.4768235 25 25.4768235 22.3075 27.4335294 21 29.4297647 21 31.426 21 33.3332941 22.3175 33.3332941 25 33.3332941 27.3725 31.7150588 29 29.3951765 29M29.3951765 27.0825C30.3463529 27.0825 31.3197647 26.385 31.3197647 25 31.3197647 23.615 30.3685882 22.9275 29.4174118 22.9275 28.4291765 22.9275 27.4705882 23.5825 27.4705882 25 27.4705882 26.4175 28.4118824 27.0825 29.3951765 27.0825"/>
    <polygon fill="#FFF" fill-rule="nonzero" points="37.182 23.238 38.42 21.122 40.572 21.122 40.572 21.42 38.363 24.767 40.836 28.59 40.836 28.878 38.606 28.878 37.195 26.453 37.128 26.453 35.73 28.878 33.477 28.878 33.477 28.59 35.96 24.767 33.738 21.42 33.738 21.122 35.905 21.122 37.14 23.238"/>
    <polygon fill="#00B287" fill-rule="nonzero" points="44.238 21.128 42.445 21.128 40.676 23.852 40.676 24.172 42.39 24.172 43.342 22.523 44.3 24.172 46 24.172 46 23.852"/>
  </g>
</svg>
