<svg xmlns="http://www.w3.org/2000/svg" width="30" height="30" viewBox="0 0 30 30">
  <path fill="#3378BD" d="M14.8772034,0 C6.66101695,0 0,6.66101695 0,14.8779661 C0,23.0949153 6.66101695,29.7551695 14.8769492,29.7551695 C23.0938983,29.7551695 29.7538983,23.0941525 29.7538983,14.8777119 C29.7538983,6.66127119 23.0938983,0 14.8772034,0 Z M21.4278814,23.0611017 L18.8504237,23.0516949 C16.6169492,23.0135593 14.8022034,21.15 14.8011864,18.8966949 L14.8011864,13.3380508 L11.9758475,13.3421186 C11.4511017,13.3421186 11.0316102,13.7277966 10.9309322,14.3016102 L10.9283898,21.4830508 C10.9283898,22.325339 10.2419492,23.0110169 9.39966102,23.0110169 C8.55737288,23.0110169 7.87169492,22.3255932 7.87169492,21.4830508 L7.86661017,14.3923729 C7.86661017,12.1278814 9.7090678,10.285678 11.9738136,10.285678 L14.8009322,10.2816102 L14.8009322,7.38330508 C14.8009322,6.54101695 15.4861017,5.85533898 16.3281356,5.85533898 C17.1701695,5.85533898 17.8550847,6.54076271 17.8550847,7.38330508 L17.8566102,10.2790678 L19.6583898,10.2765254 C20.5019492,10.2765254 21.1888983,10.9609322 21.189661,11.8019492 C21.190678,12.2107627 21.0320339,12.5951695 20.7416949,12.8842373 C20.4569492,13.1710169 20.074322,13.3301695 19.6657627,13.3322034 L17.8568644,13.3339831 L17.8573729,18.9200847 C17.8573729,19.5241525 18.3175424,19.9967797 18.905339,19.9967797 L21.4294068,20.0051695 C22.2694068,20.0051695 22.9533051,20.6908475 22.9533051,21.5331356 C22.9533051,22.3738983 22.2694068,23.0598305 21.4278814,23.0611017 Z"/>
</svg>
