<svg xmlns="http://www.w3.org/2000/svg" width="42" height="12" viewBox="0 0 42 12">
  <g>
    <path d="M6.9680315.776666667C6.9329502.592075873 7.01115518.404287589 7.16644113.300239187 7.32172707.196190785 7.52378474.196190785 7.67907068.300239187 7.83435663.404287589 7.91256161.592075873 7.87748031.776666667L7.87748031 3.56C7.90394535 3.69970504 7.86757897 3.84404615 7.77818866 3.95409656 7.68879836 4.06414697 7.55559007 4.12857305 7.41448819 4.13 7.25400676 4.12516649 7.10592422 4.04183088 7.0176378 3.90666667 6.93822641 3.61911563 6.88726898 3.32434324 6.86551181 3.02666667 6.66047244 1.73 5.49307087.846666667 4.0015748.846666667 2.51007874.846666667 1.39559055 1.74666667 1.39559055 3.02666667 1.39559055 4.02666667 1.94456693 4.54666667 3.64440945 5.12L5.39385827 5.72666667C7.33181102 6.39333333 8.08582677 7.21333333 8.08582677 8.72666667 8.08582677 10.6466667 6.64393701 11.9266667 4.50094488 11.9266667 2.84740157 11.9266667 1.75606299 11.3033333 1.22362205 10.06L1.22362205 11.2C1.25870335 11.3845908 1.18049836 11.5723791 1.02521242 11.6764275.869926471 11.7804759.667868805 11.7804759.51258286 11.6764275.357296916 11.5723791.27909193 11.3845908.314173228 11.2L.314173228 8.26333333C.287123557 8.1207436.325552103 7.97347515.418702194 7.86275044.511852286 7.75202572.649715036 7.689742.793700787 7.69333333 1.12440945 7.69333333 1.24015748 7.86666667 1.27322835 8.36 1.34593609 9.04957262 1.61853855 9.70228673 2.05700787 10.2366667 2.64752893 10.8423201 3.46395724 11.169063 4.30582677 11.1366667 5.95937008 11.1366667 7.05070866 10.2033333 7.05070866 8.80333333 7.07543839 8.15501324 6.75526111 7.54261067 6.21070866 7.19666667 5.80500698 6.95754685 5.37334755 6.76628827 4.92425197 6.62666667L3.43275591 6.10666667C2.2488189 5.69333333 1.69984252 5.44 1.26992126 5.10666667.674753388 4.61878091.338627281 3.87959449.360472441 3.10666667.360472441 1.29 1.8023622.0633333333 3.89574803.0633333333 5.37070866.0633333333 6.41905512.633333333 6.9680315 1.75666667L6.9680315.776666667zM14.891811 10.0633333C14.2899213 11.43 13.400315 12 11.8228346 12 10.040315 12 8.9423622 11.0833333 8.9423622 9.56333333 8.9098217 8.6016117 9.4764057 7.72169482 10.3611024 7.36 10.9795276 7.08333333 11.8889764 6.96333333 13.3110236 6.96333333 13.6185827 6.96333333 13.9724409 6.96333333 14.2370079 6.98 14.3390468 6.99243122 14.4417938 6.99799909 14.5445669 6.99666667 14.6281388 7.00715874 14.7121665 6.98106465 14.7753898 6.92498655 14.8386132 6.86890845 14.8749751 6.78821885 14.8752756 6.70333333L14.8752756 6.64C14.8752756 5.51666667 14.7727559 5.15333333 14.3097638 4.73666667 13.9162205 4.37333333 13.3837795 4.21666667 12.5768504 4.21666667 11.2044094 4.21666667 10.3809449 4.78666667 10.2255118 5.84333333 10.2109002 6.11027095 9.98436331 6.31472757 9.71952756 6.29999998 9.45469181 6.28527238 9.25184508 6.05693762 9.26645669 5.79 9.26645669 5.08 9.86834646 4.23333333 10.6388976 3.85333333 11.2656046 3.5860991 11.9432342 3.46201938 12.6231496 3.49 13.823622 3.49 14.6801575 3.78333333 15.2125984 4.40666667 15.6755906 4.92666667 15.8144882 5.46 15.8144882 6.62L15.8144882 10.6933333C15.8023472 10.7849473 15.8332629 10.8770305 15.8981045 10.9423867 15.9629461 11.0077429 16.0543043 11.038904 16.1451969 11.0266667L16.7272441 11.0266667C16.8671809 11.0029106 17.0077968 11.0649096 17.0854729 11.1846133 17.163149 11.3043171 17.163149 11.4590162 17.0854729 11.57872 17.0077968 11.6984238 16.8671809 11.7604227 16.7272441 11.7366667L15.3018898 11.7366667C15.1878251 11.7586198 15.0703771 11.7222129 14.9882641 11.6394481 14.906151 11.5566834 14.8700308 11.4383032 14.891811 11.3233333L14.891811 10.0633333zM9.9311811 9.52666667C9.9311811 10.6333333 10.7017323 11.2733333 12.0245669 11.2733333 13.1059843 11.2733333 13.9294488 10.86 14.3924409 10.08 14.6951886 9.41172508 14.8584093 8.68785453 14.8719685 7.95333333 14.8768038 7.83920002 14.8089762 7.73464035 14.7033071 7.69333333 14.1961823 7.6350741 13.6857104 7.61168667 13.1754331 7.62333333 10.9629921 7.62333333 9.91464567 8.24666667 9.91464567 9.52666667L9.9311811 9.52666667zM20.2162205 10.6933333C20.2040795 10.7849473 20.2349952 10.8770305 20.2998368 10.9423867 20.3646784 11.0077429 20.4560366 11.038904 20.5469291 11.0266667L21.5026772 11.0266667C21.642614 11.0029106 21.7832299 11.0649096 21.860906 11.1846133 21.938582 11.3043171 21.938582 11.4590162 21.860906 11.57872 21.7832299 11.6984238 21.642614 11.7604227 21.5026772 11.7366667L18.2617323 11.7366667C18.1177185 11.7683026 17.9691042 11.7083793 17.8864727 11.5853567 17.8038412 11.4623342 17.8038412 11.3009992 17.8864727 11.1779766 17.9691042 11.0549541 18.1177185 10.9950307 18.2617323 11.0266667L18.9462992 11.0266667C19.0371918 11.038904 19.12855 11.0077429 19.1933915 10.9423867 19.2582331 10.8770305 19.2891488 10.7849473 19.2770079 10.6933333L19.2770079 4.79C19.2891488 4.69838607 19.2582331 4.60630281 19.1933915 4.54094662 19.12855 4.47559042 19.0371918 4.44442934 18.9462992 4.45666667L18.1393701 4.45666667C17.9994333 4.48042275 17.8588174 4.41842378 17.7811413 4.29871999 17.7034652 4.17901621 17.7034652 4.02431712 17.7811413 3.90461334 17.8588174 3.78490956 17.9994333 3.72291059 18.1393701 3.74666667L18.9462992 3.74666667C19.0371918 3.75890399 19.12855 3.72774291 19.1933915 3.66238672 19.2582331 3.59703052 19.2891488 3.50494727 19.2770079 3.41333333L19.2770079 2.85333333C19.2770079 1.8 19.5349606 1.05666667 20.0674016.586666667 20.5602834.206809842 21.1633281.000686110253 21.7837795 0 22.1871447.00132474493 22.587401.0711930165 22.9677165.206666667 23.0584052.296774395 23.1185832.413419937 23.139685.54 23.1159296.69902325 23.0021318.829365255 22.8486614.873333333 22.7737195.87150303 22.6992926.860306368 22.6270866.84 22.3793976.782466053 22.1270086.74787765 21.8730709.736666667 21.3573714.756193614 20.8751544.999215681 20.5502362 1.40333333 20.3088189 1.73666667 20.2195276 2.13 20.2195276 2.92333333L20.2195276 3.37333333C20.2073866 3.46494727 20.2383023 3.55703052 20.3031439 3.62238672 20.3679855 3.68774291 20.4593437 3.71890399 20.5502362 3.70666667L21.7341732 3.70666667C21.878187 3.67503069 22.0268013 3.73495407 22.1094328 3.85797661 22.1920643 3.98099916 22.1920643 4.14233418 22.1094328 4.26535672 22.0268013 4.38837927 21.878187 4.44830265 21.7341732 4.41666667L20.5601575 4.41666667C20.4692649 4.40442934 20.3779067 4.43559042 20.3130651 4.50094662 20.2482236 4.56630281 20.2173079 4.65838607 20.2294488 4.75L20.2294488 10.6933333 20.2162205 10.6933333zM28.7385827 10.0633333C28.1366929 11.43 27.2470866 12 25.6696063 12 23.8870866 12 22.7891339 11.0833333 22.7891339 9.56333333 22.757646 8.59994985 23.3271896 7.71954113 24.2144882 7.36 24.8329134 7.08333333 25.7423622 6.96333333 27.1644094 6.96333333 27.4719685 6.96333333 27.8258268 6.96333333 28.0903937 6.98 28.1924326 6.99243122 28.2951797 6.99799909 28.3979528 6.99666667 28.4815246 7.00715874 28.5655523 6.98106465 28.6287757 6.92498655 28.691999 6.86890845 28.7283609 6.78821885 28.7286614 6.70333333L28.7286614 6.64C28.7286614 5.51666667 28.6261417 5.15333333 28.1631496 4.73666667 27.7696063 4.37333333 27.2371654 4.21666667 26.4302362 4.21666667 25.0577953 4.21666667 24.2343307 4.78666667 24.0788976 5.84333333 24.064286 6.11027095 23.8377491 6.31472757 23.5729134 6.29999998 23.3080776 6.28527238 23.1052309 6.05693762 23.1198425 5.79 23.1198425 5.08 23.7217323 4.23333333 24.4922835 3.85333333 25.1189904 3.5860991 25.7966201 3.46201938 26.4765354 3.49 27.6770079 3.49 28.5335433 3.78333333 29.0659843 4.40666667 29.5289764 4.92666667 29.667874 5.46 29.667874 6.62L29.667874 10.6933333C29.655733 10.7849473 29.6866488 10.8770305 29.7514903 10.9423867 29.8163319 11.0077429 29.9076901 11.038904 29.9985827 11.0266667L30.5806299 11.0266667C30.7205667 11.0029106 30.8611826 11.0649096 30.9388587 11.1846133 31.0165348 11.3043171 31.0165348 11.4590162 30.9388587 11.57872 30.8611826 11.6984238 30.7205667 11.7604227 30.5806299 11.7366667L29.1486614 11.7366667C29.0345968 11.7586198 28.9171488 11.7222129 28.8350357 11.6394481 28.7529226 11.5566834 28.7168025 11.4383032 28.7385827 11.3233333L28.7385827 10.0633333zM23.7779528 9.52666667C23.7779528 10.6333333 24.5485039 11.2733333 25.8713386 11.2733333 26.9527559 11.2733333 27.7762205 10.86 28.2392126 10.08 28.54205 9.41175566 28.705275 8.68786605 28.7187402 7.95333333 28.7235754 7.83920002 28.6557478 7.73464035 28.5500787 7.69333333 28.042954 7.6350741 27.532482 7.61168667 27.0222047 7.62333333 24.8097638 7.62333333 23.7647244 8.24666667 23.7647244 9.52666667L23.7779528 9.52666667zM33.9505512 5.37666667C34.04082 4.92336044 34.2725867 4.51104558 34.6119685 4.2 35.1355895 3.74106568 35.8064169 3.48884109 36.500315 3.49 36.9467717 3.49 37.2047244 3.66333333 37.2047244 3.94 37.2213413 4.01973228 37.2022471 4.10279348 37.1525335 4.16703468 37.1028199 4.23127588 37.0275414 4.2701655 36.9467717 4.27333333 36.8725674 4.27447126 36.7984116 4.26889333 36.7251969 4.25666667 36.6415542 4.23162847 36.5544481 4.2203724 36.4672441 4.22333333 36.0539197 4.2546381 35.6484336 4.35371792 35.2667717 4.51666667 34.4102362 4.91333333 33.943937 5.85 33.943937 7.25L33.943937 10.6933333C33.931796 10.7849473 33.9627118 10.8770305 34.0275533 10.9423867 34.0923949 11.0077429 34.1837531 11.038904 34.2746457 11.0266667L35.2667717 11.0266667C35.4067084 11.0029106 35.5473244 11.0649096 35.6250004 11.1846133 35.7026765 11.3043171 35.7026765 11.4590162 35.6250004 11.57872 35.5473244 11.6984238 35.4067084 11.7604227 35.2667717 11.7366667L31.959685 11.7366667C31.8156712 11.7683026 31.6670569 11.7083793 31.5844255 11.5853567 31.501794 11.4623342 31.501794 11.3009992 31.5844255 11.1779766 31.6670569 11.0549541 31.8156712 10.9950307 31.959685 11.0266667L32.6640945 11.0266667C32.7549871 11.038904 32.8463452 11.0077429 32.9111868 10.9423867 32.9760284 10.8770305 33.0069441 10.7849473 32.9948031 10.6933333L32.9948031 4.79C33.0069441 4.69838607 32.9760284 4.60630281 32.9111868 4.54094662 32.8463452 4.47559042 32.7549871 4.44442934 32.6640945 4.45666667L31.959685 4.45666667C31.8156712 4.48830265 31.6670569 4.42837927 31.5844255 4.30535672 31.501794 4.18233418 31.501794 4.02099916 31.5844255 3.89797661 31.6670569 3.77495407 31.8156712 3.71503069 31.959685 3.74666667L33.5206299 3.74666667C33.6346945 3.72471358 33.7521425 3.76112043 33.8342556 3.8438852 33.9163687 3.92664998 33.9524889 4.0450301 33.9307087 4.16L33.9307087 5.38666667 33.9505512 5.37666667zM40.4489764 10.6933333C40.4368354 10.7849473 40.4677511 10.8770305 40.5325927 10.9423867 40.5974343 11.0077429 40.6887925 11.038904 40.779685 11.0266667L41.3815748 11.0266667C41.5215116 11.0029106 41.6621275 11.0649096 41.7398036 11.1846133 41.8174797 11.3043171 41.8174797 11.4590162 41.7398036 11.57872 41.6621275 11.6984238 41.5215116 11.7604227 41.3815748 11.7366667L38.4647244 11.7366667C38.3207106 11.7683026 38.1720963 11.7083793 38.0894648 11.5853567 38.0068333 11.4623342 38.0068333 11.3009992 38.0894648 11.1779766 38.1720963 11.0549541 38.3207106 10.9950307 38.4647244 11.0266667L39.1691339 11.0266667C39.2600264 11.038904 39.3513846 11.0077429 39.4162262 10.9423867 39.4810678 10.8770305 39.5119835 10.7849473 39.4998425 10.6933333L39.4998425 4.79C39.5119835 4.69838607 39.4810678 4.60630281 39.4162262 4.54094662 39.3513846 4.47559042 39.2600264 4.44442934 39.1691339 4.45666667L38.4647244 4.45666667C38.3207106 4.48830265 38.1720963 4.42837927 38.0894648 4.30535672 38.0068333 4.18233418 38.0068333 4.02099916 38.0894648 3.89797661 38.1720963 3.77495407 38.3207106 3.71503069 38.4647244 3.74666667L40.0256693 3.74666667C40.1397339 3.72471358 40.2571819 3.76112043 40.339295 3.8438852 40.4214081 3.92664998 40.4575283 4.0450301 40.435748 4.16L40.435748 10.6933333 40.4489764 10.6933333zM40.6011024 1.19333333C40.5992926 1.57365168 40.2938591 1.88150923 39.9165354 1.88333333 39.5304602 1.876224 39.2191793 1.56247268 39.212126 1.17333333 39.2121216.791713886 39.5180827.481834709 39.8966929.48 40.0849121.477254729 40.2661746.551637287 40.3989676.68611252 40.5317605.820587754 40.6047076 1.00363525 40.6011024 1.19333333z"/>
  </g>
</svg>
