<svg xmlns="http://www.w3.org/2000/svg" width="34" height="24" viewBox="0 0 34 24">
  <g fill="none" fill-rule="evenodd">
    <path fill="#00A1E0" fill-rule="nonzero" d="M14.3574524,21.0471878 C15.4409615,22.175604 16.9494511,22.875423 18.6177871,22.875423 C20.8355349,22.875423 22.7704409,21.6393791 23.8008274,19.804447 C24.6962539,20.2043436 25.6873967,20.4267741 26.7302263,20.4267741 C30.7302125,20.4267741 33.9730825,17.1572848 33.9730825,13.1243566 C33.9730825,9.09095008 30.7302125,5.8214608 26.7302263,5.8214608 C26.2420729,5.8214608 25.7649269,5.87025201 25.3035741,5.96352932 C24.3961831,4.34576593 22.6670673,3.2527472 20.6823888,3.2527472 C19.8515709,3.2527472 19.0657396,3.44456362 18.3660531,3.78562373 C17.446219,1.62302518 15.3031299,0.106670974 12.8054118,0.106670974 C10.20432,0.106670974 7.98752935,1.75170004 7.13661101,4.05875882 C6.76475299,3.97983187 6.37949468,3.93869418 5.98418616,3.93869418 C2.88728368,3.93869418 0.376643835,6.47392362 0.376643835,9.60182273 C0.376643835,11.6979313 1.50466101,13.5280799 3.18065429,14.5072525 C2.83559685,15.3008272 2.64368557,16.1766772 2.64368557,17.0974916 C2.64368557,20.6946474 5.56542713,23.6106396 9.16914769,23.6106396 C11.2849576,23.6106396 13.1653053,22.605158 14.3574524,21.0471878" transform="matrix(1 0 0 -1 .01 23.964)"/>
    <path fill="#FFF" fill-rule="nonzero" d="M0.478581747,0.478345176 C0.45752415,0.423335481 0.486239055,0.411855197 0.492939199,0.402288293 C0.55611199,0.356367156 0.620241944,0.323361339 0.68485048,0.286528761 C1.02751501,0.104757594 1.35103627,0.0516612791 1.68939357,0.0516612791 C2.37855128,0.0516612791 2.80640336,0.418073684 2.80640336,1.00787329 L2.80640336,1.01935357 C2.80640336,1.56466707 2.32351438,1.76270198 1.87029747,1.90572718 L1.81143191,1.92486099 C1.46972454,2.03583707 1.17491819,2.13150611 1.17491819,2.35632834 L1.17491819,2.36828697 C1.17491819,2.56058173 1.34720762,2.7021719 1.61425623,2.7021719 C1.91097691,2.7021719 2.26321308,2.6036328 2.49006083,2.47830636 C2.49006083,2.47830636 2.55658369,2.43525529 2.58099136,2.49983189 C2.59439165,2.53427274 2.70925127,2.84328373 2.72121581,2.87676789 C2.73413752,2.91312212 2.7111656,2.93990945 2.68771509,2.95425981 C2.42880236,3.11163537 2.07082322,3.21926304 1.70040095,3.21926304 L1.63148517,3.21878469 C1.00071443,3.21878469 0.560419225,2.83802193 0.560419225,2.29223009 L0.560419225,2.2807498 C0.560419225,1.70530055 1.0461797,1.51874594 1.50131094,1.38863605 L1.57453395,1.36615382 C1.9061911,1.2642663 2.1919044,1.17672913 2.1919044,0.943296688 L2.1919044,0.931816404 C2.1919044,0.718474455 2.00621468,0.559663856 1.70662251,0.559663856 C1.59032714,0.559663856 1.21942629,0.562055582 0.818853369,0.815100181 C0.770516612,0.843322546 0.742280289,0.863891389 0.704950913,0.886373612 C0.685329061,0.898810587 0.636035141,0.92033612 0.614498963,0.855281176 L0.478581747,0.478345176 Z" transform="matrix(1 0 0 -1 4.774 13.02)"/>
    <path fill="#FFF" fill-rule="nonzero" d="M0.478581747,0.478345176 C0.45752415,0.423335481 0.486239055,0.411855197 0.492939199,0.402288293 C0.55611199,0.356367156 0.620241944,0.323361339 0.68485048,0.286528761 C1.02751501,0.104757594 1.35103627,0.0516612791 1.68939357,0.0516612791 C2.37855128,0.0516612791 2.80640336,0.418073684 2.80640336,1.00787329 L2.80640336,1.01935357 C2.80640336,1.56466707 2.32351438,1.76270198 1.87029747,1.90572718 L1.81143191,1.92486099 C1.46972454,2.03583707 1.17491819,2.13150611 1.17491819,2.35632834 L1.17491819,2.36828697 C1.17491819,2.56058173 1.34720762,2.7021719 1.61425623,2.7021719 C1.91097691,2.7021719 2.26321308,2.6036328 2.49006083,2.47830636 C2.49006083,2.47830636 2.55658369,2.43525529 2.58099136,2.49983189 C2.59439165,2.53427274 2.70925127,2.84328373 2.72121581,2.87676789 C2.73413752,2.91312212 2.7111656,2.93990945 2.68771509,2.95425981 C2.42880236,3.11163537 2.07082322,3.21926304 1.70040095,3.21926304 L1.63148517,3.21878469 C1.00071443,3.21878469 0.560419225,2.83802193 0.560419225,2.29223009 L0.560419225,2.2807498 C0.560419225,1.70530055 1.0461797,1.51874594 1.50131094,1.38863605 L1.57453395,1.36615382 C1.9061911,1.2642663 2.19238298,1.17672913 2.19238298,0.943296688 L2.19238298,0.931816404 C2.19238298,0.718474455 2.00621468,0.559663856 1.70662251,0.559663856 C1.59032714,0.559663856 1.21942629,0.562055582 0.818853369,0.815100181 C0.770516612,0.843322546 0.741801708,0.862934698 0.705429495,0.886373612 C0.692986369,0.89450548 0.634599396,0.916987703 0.614498963,0.855281176 L0.478581747,0.478345176 Z" transform="matrix(1 0 0 -1 14.863 13.02)"/>
    <path fill="#FFF" fill-rule="nonzero" d="M2.39290873,1.91338071 C2.39290873,1.57997412 2.33069311,1.31736262 2.20817618,1.13176469 C2.087095,0.94808014 1.90379819,0.858629592 1.64823554,0.858629592 C1.3921943,0.858629592 1.20985466,0.947601795 1.0906878,1.13176469 C0.970085201,1.31688427 0.908826737,1.57997412 0.908826737,1.91338071 C0.908826737,2.24630895 0.970085201,2.50844211 1.0906878,2.69212665 C1.20985466,2.87389782 1.3921943,2.96239168 1.64823554,2.96239168 C1.90379819,2.96239168 2.087095,2.87389782 2.20865476,2.69212665 C2.33069311,2.50844211 2.39290873,2.24630895 2.39290873,1.91338071 M2.96816399,2.53140267 C2.91169135,2.7222624 2.82363231,2.8906399 2.70637978,3.03079504 C2.58912725,3.17142852 2.44076691,3.28431798 2.26464883,3.36659335 C2.08900932,3.44839038 1.88130485,3.49000641 1.64823554,3.49000641 C1.41468764,3.49000641 1.20698317,3.44839038 1.03134366,3.36659335 C0.855225582,3.28431798 0.70686524,3.17142852 0.58913413,3.03079504 C0.472360184,2.89016156 0.384301143,2.72178405 0.327349915,2.53140267 C0.27135585,2.34149964 0.243119527,2.13389783 0.243119527,1.91338071 C0.243119527,1.69286358 0.27135585,1.48478343 0.327349915,1.29535874 C0.384301143,1.10497736 0.471881602,0.936599856 0.589612712,0.795966374 C0.70686524,0.655332892 0.855704163,0.542921775 1.03134366,0.463038131 C1.20746175,0.383154486 1.41468764,0.342495146 1.64823554,0.342495146 C1.88130485,0.342495146 2.08853074,0.383154486 2.26464883,0.463038131 C2.44028833,0.542921775 2.58912725,0.655332892 2.70637978,0.795966374 C2.82363231,0.93612151 2.91169135,1.10449901 2.96816399,1.29535874 C3.02463664,1.48526177 3.05287296,1.69334192 3.05287296,1.91338071 C3.05287296,2.13341949 3.02463664,2.34149964 2.96816399,2.53140267" transform="matrix(1 0 0 -1 19.836 13.3)"/>
    <path fill="#FFF" d="M2.39290873,0.956690353 C2.37376546,1.01265674 2.31968573,0.991609551 2.31968573,0.991609551 C2.23593392,0.959560424 2.14691772,0.929903023 2.05215853,0.915074323 C1.9559636,0.900245622 1.85019703,0.892592099 1.73677316,0.892592099 C1.45823858,0.892592099 1.23713382,0.975345815 1.07872326,1.13893987 C0.919834117,1.30253392 0.830817912,1.5670588 0.831775076,1.92486099 C0.832732239,2.25061406 0.911219646,2.49552679 1.05240126,2.6820814 C1.19262571,2.86767933 1.40607317,2.96287002 1.69082931,2.96287002 C1.92820586,2.96287002 2.10910976,2.93560435 2.29862813,2.8758112 C2.29862813,2.8758112 2.3440934,2.85619905 2.36562957,2.91551385 C2.41588066,3.05519064 2.45321003,3.15516478 2.50681119,3.30871359 C2.52212581,3.352243 2.48479643,3.37089846 2.47139614,3.37616026 C2.39673739,3.40533931 2.22061931,3.45269548 2.08757358,3.47278598 C1.96314233,3.49191979 1.81765347,3.50196504 1.65589284,3.50196504 C1.41420906,3.50196504 1.19884728,3.46082735 1.0145933,3.37855198 C0.830817912,3.29675496 0.674800263,3.18386549 0.551326172,3.04323201 C0.427852082,2.90259853 0.334050059,2.73422103 0.27135585,2.54383965 C0.209140223,2.35393661 0.177553828,2.14537812 0.177553828,1.92486099 C0.177553828,1.44795085 0.306292318,1.06240464 0.560419225,0.780180983 C0.815024715,0.497000638 1.19741153,0.35301874 1.69609371,0.35301874 C1.99090007,0.35301874 2.29336373,0.412811887 2.51063984,0.498435674 C2.51063984,0.498435674 2.55227646,0.518526171 2.53409035,0.566839034 L2.39290873,0.956690353 Z" transform="matrix(1 0 0 -1 25.136 13.309)"/>
    <path fill="#FFF" d="M0.957163494,1.91338071 C0.984442653,2.09850029 1.0356509,2.25252744 1.11461689,2.37259208 C1.23378374,2.55484159 1.41564481,2.65481573 1.67120746,2.65481573 C1.92677011,2.65481573 2.09570947,2.55436324 2.21679065,2.37259208 C2.29719238,2.25252744 2.33212885,2.09180346 2.34600772,1.91338071 L0.957163494,1.91338071 Z M2.89398382,2.32045245 C2.84516848,2.50461534 2.7240873,2.69069162 2.64464273,2.77583706 C2.51925432,2.9107304 2.39673739,3.0049644 2.27517762,3.05758237 C2.11628848,3.12550738 1.92581295,3.17047183 1.71715131,3.17047183 C1.47403178,3.17047183 1.25340559,3.12981249 1.07441602,3.04562374 C0.894947866,2.96143499 0.744194616,2.84663215 0.625984925,2.70360694 C0.507775233,2.56106007 0.418759028,2.39124754 0.362286382,2.19847443 C0.305335154,2.00665802 0.27662025,1.79762117 0.27662025,1.57710405 C0.27662025,1.35276016 0.306292318,1.14372332 0.365157873,0.955733663 C0.424502009,0.766308973 0.519261195,0.599366506 0.647521103,0.46112475 C0.77530243,0.321926304 0.939934551,0.212863604 1.13711023,0.13680672 C1.33285016,0.0612281826 1.57070529,0.0220038781 1.84397547,0.0224822233 C2.40630902,0.024395604 2.70255112,0.14972204 2.82458947,0.21716871 C2.84612565,0.22912734 2.86670466,0.250174527 2.84086125,0.31044602 L2.7135585,0.666813176 C2.69441523,0.719909491 2.6403355,0.700297338 2.6403355,0.700297338 C2.50106821,0.648636059 2.30293537,0.555837095 1.84110398,0.556793785 C1.5391189,0.557272131 1.31514264,0.646244333 1.17491819,0.78544278 C1.03086508,0.927989642 0.960513566,1.13750483 0.94807044,1.43312215 L2.89541957,1.43120877 C2.89541957,1.43120877 2.94662781,1.43216546 2.95189221,1.48191336 C2.95380654,1.50296054 3.01889366,1.88180992 2.89398382,2.32045245 Z" transform="matrix(1 0 0 -1 27.578 12.98)"/>
    <path fill="#FFF" d="M0.957163494,1.91338071 C0.984921235,2.09850029 1.0356509,2.25252744 1.11461689,2.37259208 C1.23378374,2.55484159 1.41564481,2.65481573 1.67120746,2.65481573 C1.92677011,2.65481573 2.09570947,2.55436324 2.21726923,2.37259208 C2.29719238,2.25252744 2.33212885,2.09180346 2.34600772,1.91338071 L0.957163494,1.91338071 Z M2.89350524,2.32045245 C2.8446899,2.50461534 2.7240873,2.69069162 2.64464273,2.77583706 C2.51925432,2.9107304 2.39673739,3.0049644 2.27517762,3.05758237 C2.11628848,3.12550738 1.92581295,3.17047183 1.71715131,3.17047183 C1.47451036,3.17047183 1.25340559,3.12981249 1.07441602,3.04562374 C0.894947866,2.96143499 0.744194616,2.84663215 0.625984925,2.70360694 C0.507775233,2.56106007 0.418759028,2.39124754 0.362286382,2.19847443 C0.305813736,2.00665802 0.27662025,1.79762117 0.27662025,1.57710405 C0.27662025,1.35276016 0.306292318,1.14372332 0.365157873,0.955733663 C0.424502009,0.766308973 0.519261195,0.599366506 0.647521103,0.46112475 C0.77530243,0.321926304 0.939934551,0.212863604 1.13711023,0.13680672 C1.33285016,0.0612281826 1.57070529,0.0220038781 1.84397547,0.0224822233 C2.40630902,0.024395604 2.70255112,0.14972204 2.82458947,0.21716871 C2.84612565,0.22912734 2.86670466,0.250174527 2.84086125,0.31044602 L2.71403709,0.666813176 C2.69441523,0.719909491 2.6403355,0.700297338 2.6403355,0.700297338 C2.50106821,0.648636059 2.30341395,0.555837095 1.8406254,0.556793785 C1.5391189,0.557272131 1.31514264,0.646244333 1.17491819,0.78544278 C1.03086508,0.927989642 0.960513566,1.13750483 0.94807044,1.43312215 L2.89541957,1.43120877 C2.89541957,1.43120877 2.94662781,1.43216546 2.95189221,1.48191336 C2.95380654,1.50296054 3.01889366,1.88180992 2.89350524,2.32045245 Z" transform="matrix(1 0 0 -1 11.982 12.98)"/>
    <path fill="#FFF" fill-rule="nonzero" d="M0.957163494,0.956690353 C0.881068996,1.01744019 0.870540197,1.03274724 0.844696783,1.07197154 C0.806410243,1.13176469 0.786788392,1.21691013 0.786788392,1.32501614 C0.786788392,1.49626371 0.843261038,1.61919842 0.960513566,1.70195214 C0.959077821,1.70147379 1.12801718,1.84784742 1.52524003,1.84258562 C1.80425319,1.83875886 2.05359428,1.79762117 2.05359428,1.79762117 L2.05359428,0.912682597 L2.05407286,0.912682597 C2.05407286,0.912682597 1.80664609,0.859586282 1.52811152,0.842844201 C1.13184583,0.818926942 0.955727748,0.957168698 0.957163494,0.956690353 M1.73198734,2.32427921 C1.65302135,2.33001935 1.55060486,2.33336777 1.42808793,2.33336777 C1.2610629,2.33336777 1.09978085,2.31232058 0.948549022,2.27166124 C0.796360027,2.2310019 0.659485647,2.16738199 0.541754537,2.08319324 C0.423544846,1.99852615 0.328307078,1.89042014 0.259391307,1.76222363 C0.190475535,1.63402712 0.155539068,1.48287005 0.155539068,1.31353585 C0.155539068,1.14133159 0.185211136,0.991609551 0.244555273,0.869153186 C0.303899409,0.746218475 0.389565542,0.643852608 0.49868218,0.564925653 C0.606841655,0.485998699 0.740365962,0.428118933 0.895426448,0.393199735 C1.04809403,0.358280537 1.22134062,0.340581766 1.41085899,0.340581766 C1.61042758,0.340581766 1.80951758,0.356845502 2.00238603,0.389851319 C2.19334015,0.422378791 2.4278452,0.469734963 2.49293232,0.484563664 C2.55754085,0.499870709 2.62932812,0.519482862 2.62932812,0.519482862 C2.67766487,0.531441491 2.67383622,0.58310277 2.67383622,0.58310277 L2.67287906,2.36302517 C2.67287906,2.75335484 2.56854823,3.04275367 2.36323667,3.22213311 C2.15888226,3.4010342 1.85785434,3.49144144 1.46876738,3.49144144 C1.32279995,3.49144144 1.08781631,3.47135095 0.947113277,3.44312858 C0.947113277,3.44312858 0.521654104,3.36085321 0.346493185,3.22404649 C0.346493185,3.22404649 0.308206645,3.20012923 0.329264242,3.14655457 L0.467095785,2.7763154 C0.484324728,2.72848089 0.530747157,2.74474462 0.530747157,2.74474462 C0.530747157,2.74474462 0.545583191,2.75048476 0.562812134,2.76053001 C0.937541642,2.96430506 1.41133757,2.95808657 1.41133757,2.95808657 C1.62191354,2.95808657 1.78367417,2.9159922 1.89279081,2.83228179 C1.99903596,2.75096311 2.05311569,2.6280284 2.05311569,2.36876531 L2.05311569,2.28648994 C1.88561208,2.3104072 1.73198734,2.32427921 1.73198734,2.32427921" transform="matrix(1 0 0 -1 7.773 13.298)"/>
    <path fill="#FFF" d="M1.91432699,3.34841624 C1.92916302,3.39242399 1.89805521,3.41347118 1.8851335,3.41825463 C1.85211136,3.43116995 1.68652208,3.46608915 1.55874075,3.47422102 C1.31418548,3.48904972 1.17826826,3.44791203 1.0567085,3.39338068 C0.936105897,3.33884933 0.802103008,3.25083382 0.727444255,3.15085968 L0.727444255,3.38764054 C0.727444255,3.42064636 0.70399375,3.44695534 0.671450191,3.44695534 L0.172289429,3.44695534 C0.13974587,3.44695534 0.116295364,3.42064636 0.116295364,3.38764054 L0.116295364,0.484563664 C0.116295364,0.452036192 0.143095942,0.425248862 0.175639501,0.425248862 L0.687243388,0.425248862 C0.719786947,0.425248862 0.746108943,0.452036192 0.746108943,0.484563664 L0.746108943,1.93490624 C0.746108943,2.12959273 0.767645122,2.32380087 0.810717479,2.44577889 C0.852832673,2.56632187 0.910262482,2.6629476 0.981092581,2.73230765 C1.05240126,2.80118935 1.13328158,2.84950222 1.2218192,2.87676789 C1.31227115,2.90451191 1.41229473,2.91360047 1.48312483,2.91360047 C1.58506275,2.91360047 1.69705087,2.88729149 1.69705087,2.88729149 C1.73438025,2.88298638 1.75543785,2.90594695 1.76788097,2.93990945 C1.80138169,3.02888166 1.89614088,3.29531992 1.91432699,3.34841624" transform="matrix(1 0 0 -1 23.297 13.32)"/>
    <path fill="#FFF" d="M3.82865397,5.74014212 C3.76643835,5.75927592 3.7099657,5.77219124 3.63626411,5.78606325 C3.56160536,5.79945692 3.47258915,5.80615375 3.37160841,5.80615375 C3.01937224,5.80615375 2.74179483,5.70665796 2.54701206,5.51053643 C2.35318645,5.3153716 2.22157647,5.01831925 2.15553219,4.62751124 L2.1316031,4.49596631 L1.68939357,4.49596631 C1.68939357,4.49596631 1.63579241,4.49787969 1.62430645,4.43952158 L1.5520406,4.03436322 C1.54677621,3.9960956 1.56352657,3.9717 1.6152134,3.9717 L2.04545839,3.9717 L1.60899183,1.53596636 C1.57501253,1.33984484 1.53576883,1.17864251 1.49221789,1.05618615 C1.44962411,0.935643165 1.4079875,0.845235927 1.35630067,0.779224292 C1.30652817,0.716082729 1.25962716,0.669204902 1.17826826,0.641939227 C1.11126682,0.619457004 1.03373657,0.60893341 0.949027604,0.60893341 C0.902126593,0.60893341 0.839432384,0.616586932 0.793009954,0.626153836 C0.747066107,0.635242394 0.722658438,0.645287643 0.68772197,0.660116344 C0.68772197,0.660116344 0.637470887,0.679250151 0.617370453,0.629023907 C0.601577256,0.587407877 0.486717636,0.272178405 0.472838766,0.233432446 C0.459438477,0.194686487 0.478581747,0.164550741 0.502989416,0.155462182 C0.560419225,0.135371685 0.603013001,0.12197802 0.681021826,0.103322558 C0.7891813,0.0779702638 0.880590414,0.0765352282 0.966256547,0.0765352282 C1.14524612,0.0765352282 1.30892108,0.101887523 1.44435971,0.150678731 C1.58027693,0.199948284 1.6989652,0.28557207 1.80425319,0.401331603 C1.91767706,0.526658039 1.98898574,0.657724618 2.05694435,0.837104059 C2.12442437,1.01409177 2.18233277,1.23413056 2.22827661,1.49052357 L2.66713607,3.9717 L3.30843562,3.9717 C3.30843562,3.9717 3.36251535,3.96978662 3.37352273,4.02862308 L3.44626716,4.4333031 C3.45105298,4.47204905 3.4347812,4.49596631 3.38261579,4.49596631 L2.75998093,4.49596631 C2.76333101,4.50983832 2.79156733,4.72892041 2.86287601,4.93508719 C2.89350524,5.02262435 2.95093505,5.09389778 2.99927181,5.14268899 C3.04712998,5.19052351 3.10216688,5.22448602 3.16246818,5.24409817 C3.22420523,5.26418867 3.29455674,5.27375557 3.37160841,5.27375557 C3.42999538,5.27375557 3.48790377,5.26705874 3.53145471,5.25797018 C3.59175601,5.24505486 3.61520652,5.23835803 3.63099971,5.23357458 C3.69465109,5.21444077 3.70326556,5.23309623 3.71570868,5.26371032 L3.86454761,5.6722171 C3.87986222,5.71622486 3.84205426,5.73488032 3.82865397,5.74014212" transform="matrix(1 0 0 -1 16.58 14.365)"/>
    <path fill="#FFF" d="M0.957163494,0.478345176 C0.957163494,0.445817704 0.933712988,0.41950872 0.901169429,0.41950872 L0.384779724,0.41950872 C0.352236166,0.41950872 0.329264242,0.445817704 0.329264242,0.478345176 L0.329264242,4.63229469 C0.329264242,4.66482216 0.352236166,4.69113115 0.384779724,4.69113115 L0.901169429,4.69113115 C0.933712988,4.69113115 0.957163494,4.66482216 0.957163494,4.63229469 L0.957163494,0.478345176 Z" transform="matrix(1 0 0 -1 10.753 13.313)"/>
  </g>
</svg>
