<svg xmlns="http://www.w3.org/2000/svg" width="30" height="40" viewBox="0 0 30 40">
  <g fill="none">
    <path fill="#D32F2F" d="M5.26530612,13.6615385 C5.32653061,14.0307692 5.51020408,14.7692308 5.75510204,15.4461538 C5.87755102,15.6923077 6,16 6.12244898,16.2461538 C6.30612245,16.5538462 6.48979592,16.9230769 6.67346939,17.1692308 C7.46938776,16.2461538 8.63265306,15.6307692 9.91836735,15.6307692 C9.91836735,15.3846154 9.97959184,14.8923077 10.0408163,14.2769231 C10.1020408,13.7846154 10.1632653,13.3538462 10.2857143,12.8615385 C10.4081633,12.4923077 10.5306122,12.1230769 10.6530612,11.8153846 C10.7755102,11.4461538 10.9591837,11.1384615 11.1428571,10.7692308 C12,9.23076923 13.2244898,7.93846154 14.755102,7.01538462 C16.5306122,5.96923077 18.6122449,5.53846154 20.6326531,5.78461538 C20.8163265,6.52307692 21.4285714,7.01538462 22.1632653,7.01538462 C23.0204082,7.01538462 23.755102,6.27692308 23.755102,5.41538462 C23.755102,4.55384615 23.0204082,3.81538462 22.1632653,3.81538462 C21.6122449,3.81538462 21.122449,4.06153846 20.877551,4.49230769 C18.5510204,4.18461538 16.1632653,4.67692308 14.1428571,5.84615385 C11.6326531,7.32307692 9.85714286,9.66153846 9.12244898,12.4307692 C8.93877551,13.1692308 8.81632653,13.9076923 8.75510204,14.5846154 C8.14285714,14.7076923 7.59183673,14.9538462 7.04081633,15.3230769 C6.85714286,14.8923077 6.67346939,14.4 6.55102041,13.9692308 C5.87755102,11.5076923 6.24489796,8.92307692 7.53061224,6.70769231 C8.57142857,4.92307692 10.1020408,3.50769231 12,2.70769231 C12.3061224,3.01538462 12.7346939,3.2 13.1632653,3.2 C14.0204082,3.2 14.755102,2.46153846 14.755102,1.6 C14.755102,0.738461538 14.0204082,0 13.1632653,0 C12.3061224,0 11.6326531,0.676923077 11.5714286,1.47692308 C9.36734694,2.4 7.65306122,3.93846154 6.42857143,6.03076923 C5.51020408,7.69230769 4.95918367,9.53846154 4.95918367,11.4461538 C5.08163265,12.3076923 5.14285714,12.9846154 5.26530612,13.6615385"/>
    <path fill="#D32F2F" d="M28.1020408,25.1692308 C27.244898,25.1692308 26.5102041,25.9076923 26.5102041,26.7692308 C26.5102041,26.9538462 26.5102041,27.0769231 26.5714286,27.2615385 C24.9183673,28.4923077 22.9591837,29.1692308 20.877551,29.1692308 C17.5714286,29.1692308 14.5102041,27.4461538 12.7959184,24.6769231 C14.3877551,23.6923077 15.3673469,21.9692308 15.3673469,20.0615385 C15.3673469,18.1538462 14.3877551,16.4307692 12.7959184,15.4461538 C14.5102041,12.6769231 17.6326531,10.9538462 20.877551,10.9538462 C22.9591837,10.9538462 24.9183673,11.6307692 26.5714286,12.8615385 C26.5102041,12.9846154 26.5102041,13.1692308 26.5102041,13.3538462 C26.5102041,14.2153846 27.244898,14.9538462 28.1020408,14.9538462 C28.9591837,14.9538462 29.6938776,14.2153846 29.6938776,13.3538462 C29.6938776,12.4923077 28.9591837,11.7538462 28.1020408,11.7538462 C27.8571429,11.7538462 27.6122449,11.8153846 27.4285714,11.9384615 C25.5306122,10.5230769 23.3265306,9.72307692 20.9387755,9.72307692 C17.2040816,9.72307692 13.7142857,11.6923077 11.755102,14.8923077 C11.6326531,15.1384615 11.5102041,15.5076923 11.3877551,15.9384615 C13.1632653,16.4923077 14.4489796,18.1538462 14.4489796,20.1230769 C14.4489796,22.0923077 13.1632653,23.7538462 11.3877551,24.3076923 C11.4489796,24.7384615 11.6326531,25.1076923 11.755102,25.3538462 C13.7142857,28.5538462 17.2040816,30.5230769 20.9387755,30.5230769 C23.3265306,30.5230769 25.5306122,29.7846154 27.4285714,28.3076923 C27.6122449,28.4307692 27.8571429,28.4923077 28.1020408,28.4923077 C28.9591837,28.4923077 29.6938776,27.7538462 29.6938776,26.8923077 C29.6938776,25.9076923 29.0204082,25.1692308 28.1020408,25.1692308 M3.6122449,35.3846154 C3.42857143,35.3846154 3.30612245,35.3846154 3.12244898,35.4461538 C1.89795918,33.7846154 1.2244898,31.8153846 1.2244898,29.7230769 C1.2244898,27.7538462 1.83673469,25.9076923 2.87755102,24.3076923 C3.42857143,23.4461538 4.16326531,22.7076923 5.02040816,22.0923077 C5.3877551,21.8461538 5.69387755,21.6615385 5.87755102,21.6 C5.69387755,21.1076923 5.57142857,20.5538462 5.57142857,20 C5.57142857,19.4461538 5.69387755,18.8923077 5.87755102,18.4 C5.51020408,18.2769231 4.89795918,17.9076923 4.16326531,17.1692308 C3.73469388,16.7384615 3.30612245,16.3076923 3,15.8153846 C2.93877551,15.7538462 2.93877551,15.6923077 2.87755102,15.6307692 C1.7755102,14.0307692 1.16326531,12.1846154 1.16326531,10.2153846 C1.16326531,8.12307692 1.83673469,6.15384615 3.06122449,4.49230769 C3.18367347,4.55384615 3.36734694,4.55384615 3.55102041,4.55384615 C4.40816327,4.55384615 5.14285714,3.81538462 5.14285714,2.95384615 C5.14285714,2.09230769 4.40816327,1.35384615 3.55102041,1.35384615 C2.69387755,1.35384615 1.95918367,2.09230769 1.95918367,2.95384615 C1.95918367,3.2 2.02040816,3.44615385 2.14285714,3.63076923 C0.734693878,5.6 0,7.87692308 0,10.2153846 C0,13.7846154 1.7755102,17.1076923 4.71428571,19.1384615 C4.65306122,19.3846154 4.65306122,19.6923077 4.65306122,19.9384615 C4.65306122,20.1846154 4.65306122,20.4923077 4.71428571,20.7384615 C1.7755102,22.8307692 0,26.1538462 0,29.7846154 C0,32.1846154 0.734693878,34.4 2.20408163,36.3076923 C2.08163265,36.4923077 2.02040816,36.7384615 2.02040816,36.9846154 C2.02040816,37.8461538 2.75510204,38.5846154 3.6122449,38.5846154 C4.46938776,38.5846154 5.20408163,37.8461538 5.20408163,36.9846154 C5.20408163,36.1230769 4.46938776,35.3846154 3.6122449,35.3846154"/>
    <path fill="#D32F2F" d="M22.2244898,32.9230769 C21.4897959,32.9230769 20.8163265,33.4769231 20.6938776,34.1538462 C18.6734694,34.4 16.5918367,33.9692308 14.8163265,32.9230769 C13.2857143,32 12.0612245,30.7692308 11.2040816,29.2307692 C11.0204082,28.9230769 10.8367347,28.5538462 10.7142857,28.1846154 C10.5918367,27.8769231 10.4693878,27.5076923 10.3469388,27.1384615 C10.2244898,26.7076923 10.1632653,26.2153846 10.1020408,25.7230769 C9.97959184,25.1076923 9.97959184,24.6153846 9.97959184,24.3692308 C8.69387755,24.3692308 7.53061224,23.7538462 6.73469388,22.8307692 C5.93877551,23.8153846 5.44897959,25.6615385 5.32653061,26.4 C5.20408163,27.0769231 5.14285714,27.7538462 5.14285714,28.4307692 C5.14285714,30.3384615 5.63265306,32.1846154 6.6122449,33.8461538 C7.7755102,35.9384615 9.55102041,37.4769231 11.755102,38.4 C11.8163265,39.2 12.4897959,39.8769231 13.3469388,39.8769231 C14.2040816,39.8769231 14.9387755,39.1384615 14.9387755,38.2769231 C14.9387755,37.4153846 14.2040816,36.6769231 13.3469388,36.6769231 C12.9183673,36.6769231 12.4897959,36.8615385 12.1836735,37.1692308 C10.2857143,36.3692308 8.75510204,34.9538462 7.71428571,33.1692308 C6.42857143,30.9538462 6.12244898,28.3692308 6.73469388,25.9076923 C6.85714286,25.4769231 7.04081633,24.9846154 7.2244898,24.5538462 C7.71428571,24.8615385 8.32653061,25.1076923 8.87755102,25.2923077 C8.93877551,26.0307692 9.06122449,26.7692308 9.24489796,27.4461538 C9.97959184,30.2153846 11.755102,32.5538462 14.2653061,34.0307692 C16.2857143,35.2 18.6734694,35.6923077 21,35.3846154 C21.3061224,35.8153846 21.7959184,36.0615385 22.2857143,36.0615385 C23.1428571,36.0615385 23.877551,35.3230769 23.877551,34.4615385 C23.8163265,33.6615385 23.0816327,32.9230769 22.2244898,32.9230769"/>
    <path fill="#231F20" d="M13.5306122,20 C13.5306122,21.9692308 11.9387755,23.5076923 10.0408163,23.5076923 C8.08163265,23.5076923 6.55102041,21.9076923 6.55102041,20 C6.55102041,18.0307692 8.14285714,16.4923077 10.0408163,16.4923077 C12,16.4923077 13.5306122,18.0307692 13.5306122,20 Z"/>
  </g>
</svg>
