<svg xmlns="http://www.w3.org/2000/svg" width="26" height="30" viewBox="0 0 26 30">
  <g fill="#52989E">
    <polygon points="20.557 19.328 20.557 19.328 20.557 25.534 25.983 22.414 25.965 16.19 20.557 13.086"/>
    <polygon points="7.592 26.759 13 29.862 18.408 26.759 18.408 20.569"/>
    <polygon points="25.965 13.707 25.965 7.517 20.557 4.414 15.167 7.5"/>
    <polygon points="7.592 11.862 7.592 18.069 13 21.172 18.408 18.086 18.408 11.862 13 8.759"/>
    <polygon points=".017 16.207 .017 22.414 5.425 25.517 10.833 22.414"/>
    <polygon points="5.425 4.414 .017 7.517 .017 13.724 5.425 16.828"/>
    <polygon points="13 6.276 13 6.276 18.408 3.172 13 .069 7.592 3.172 7.592 9.379"/>
  </g>
</svg>
