<svg xmlns="http://www.w3.org/2000/svg" width="50" height="50" viewBox="0 0 50 50">
  <g fill="none" fill-rule="evenodd">
    <circle cx="25" cy="25" r="25" fill="#334E75"/>
    <path fill="#FFF" d="M17.68,22.6795 C16.222069,23.8597 15.9655172,25.6993 16.1627586,28.3397 C16.34,30.7393 18.4482759,31.9993 20.8717241,31.9797 C22.1524138,31.9797 23.1572414,31.6787 23.9255172,31.0795 C24.3593103,30.7393 24.4772414,30.1191 24.182069,29.6396 C23.987082,29.3290199 23.7964877,29.0156211 23.6103448,28.6995 L22.7041379,29.2791 C21.2655172,30.1394 18.6455172,29.8391 18.98,27.5396 L25.0489655,27.5396 C25.4034483,23.9598 24.0634483,21.92 21.1082759,21.7198 C19.6696552,21.6197 18.4675862,22.06 17.68,22.6795 Z M22.3696552,25.8197 L19,25.8197 C18.5862069,23.3396 22.8027586,23.2199 22.3689655,25.8197 L22.3696552,25.8197 Z M27.5510345,22.6795 C26.0931034,23.8597 25.8372414,25.6993 26.0337931,28.3397 C26.2110345,30.7393 28.3193103,31.9993 30.7427586,31.9797 C32.0234483,31.9797 33.0282759,31.6787 33.7972414,31.0795 C34.2303448,30.7393 34.3489655,30.1191 34.0531034,29.6396 C33.8958621,29.3995 33.482069,28.6995 33.482069,28.6995 L32.5558621,29.2791 C31.1172414,30.1394 28.4965517,29.8391 28.8317241,27.5396 L34.9006897,27.5396 C35.2744828,23.9598 33.9351724,21.92 30.9793103,21.7198 C29.5413793,21.6197 28.3393103,22.06 27.5517241,22.6795 L27.5510345,22.6795 Z M32.2206897,25.8197 L28.8517241,25.8197 C28.4572414,23.3396 32.6737931,23.2199 32.2206897,25.8197 Z M42.1710345,19.2201 C42.0724138,20.66 42.1510345,21.3201 42.1317241,22.8601 C41.56,22.2595 40.9889655,21.7996 40.102069,21.7198 C38.0137931,21.5 35.9448276,22.7194 35.7675862,25.0994 C35.7282759,25.6797 35.7675862,26.2992 35.7675862,26.8998 C35.7675862,27.5193 35.7082759,28.1598 35.7675862,28.7394 C35.9641379,30.6791 37.442069,32.0392 39.4917241,31.9993 C40.6737931,31.979 41.5206897,31.3595 42.1710345,30.719 C42.1710345,30.719 42.1903448,30.7393 42.2303448,30.7589 C42.3875862,31.3189 42.8993103,31.7389 43.5110345,31.7389 L44.9172414,31.7389 C44.8503448,31.4953 44.8503448,18 44.9172414,18 L43.5103448,18 C42.8206897,18 42.2496552,18.5397 42.1710345,19.2201 Z M42.1317241,26.8592 C42.1317241,28.1794 42.1117241,29.039 41.3434483,29.4996 C40.5158621,29.9994 39.057931,29.7194 38.6634483,28.8395 C38.5062069,28.4797 38.5255172,27.7391 38.5255172,26.9992 C38.5255172,26.1396 38.4468966,25.3794 38.6048276,24.9398 C38.8013793,24.3798 39.3137931,24.0193 39.9841379,23.9199 C40.9496552,23.7995 41.7772414,24.2797 42.0131034,24.9398 C42.2103448,25.3997 42.1317241,26.2194 42.1317241,26.8592 Z M14.8034483,29.9 C14.0737931,30.9997 12.5372414,31.8397 10.7834483,31.9601 C10.5868966,31.9797 10.4089655,31.9797 10.2317241,31.9797 L9.93655172,31.9797 C8.04482759,31.9601 6.48827586,31.3399 5.48344828,30.2997 L5.44413793,30.2598 C5.38482759,30.2003 5.34551724,30.1597 5.3062069,30.1002 C4.77448276,29.34 4.97103448,28.6799 5.62137931,28.22 C5.93655172,28.0002 6.70482759,27.4402 6.70482759,27.4402 C6.70482759,27.4402 7.00068966,28.0198 7.41448276,28.4601 C8.06482759,29.0999 9.12827586,29.5402 10.1924138,29.5402 L10.4682759,29.5402 C10.5075862,29.5402 10.8627586,29.48 10.902069,29.48 C10.9806897,29.4597 11.04,29.4401 11.1186207,29.4198 C11.157931,29.4198 11.177931,29.4002 11.2172414,29.4002 C11.3158621,29.3603 11.4144828,29.34 11.5124138,29.2798 C12.0448276,29.0397 12.6551724,28.5 12.3793103,27.5599 C12.1434483,26.7402 10.6655172,26.4399 9.60137931,26.1599 C8.26137931,25.8001 7.09931034,25.6202 6.31103448,24.8404 C5.64137931,24.1803 5.20758621,23.1401 5.36551724,21.6806 C5.58206897,19.6009 7.4537931,18.2009 9.66068966,18.0406 C11.157931,17.9209 12.7737931,18.2205 13.837931,18.9604 C13.9165517,19.0206 14.0151724,19.0808 14.0737931,19.1403 C14.6848276,19.7605 14.6255172,20.4003 14.0937931,20.9407 L13.2068966,21.8395 C13.2068966,21.8395 12.8331034,21.36 12.3793103,21.0198 C11,19.9397 8.14344828,20.2001 8.24137931,21.9396 C8.30137931,23.18 10.5075862,23.46 11.7882759,23.7799 C13.2068966,24.1593 14.5075862,24.7795 15.0593103,25.8995 C15.6110345,27.0195 15.4531034,28.9193 14.8034483,29.8993 L14.8034483,29.9 Z"/>
  </g>
</svg>
