<svg xmlns="http://www.w3.org/2000/svg" width="29" height="28" viewBox="0 0 29 28">
  <path fill="#2C3458" fill-rule="evenodd" d="M21.2988615,17.76152 C19.2851593,16.5218345 16.9571058,15.8654445 14.5815939,15.8676 C12.2060864,15.8654748 9.87804119,16.5218624 7.86432638,17.76152 L4.12827324,14.14168 C7.14364326,11.99688 10.7709677,10.8388 14.5815939,10.8388 C18.3927894,10.8388 22.0201139,11.99688 25.0354839,14.14168 L21.2988615,17.76152 Z M9.84705882,19.68232 C11.3000879,18.9060621 12.9281298,18.5014841 14.5815939,18.50576 C16.2648956,18.50576 17.8833017,18.91456 19.316129,19.68232 L14.5815939,24.26872 L9.84705882,19.68232 Z M14.5815939,3.73072 L19.9041746,8.88664 C18.1675358,8.43283995 16.3784559,8.20225467 14.5815939,8.20064 C12.7907021,8.20064 11.0009488,8.43304 9.2601518,8.88664 L14.5815939,3.73072 Z M29.0311195,13.99888 L14.5815939,0 L0.132637571,13.99888 L0.130929791,14 L14.5810247,28 L29.0322581,14 L29.0311195,13.99888 Z"/>
</svg>
