<svg xmlns="http://www.w3.org/2000/svg" width="30" height="30" viewBox="0 0 30 30">
  <g fill="#222">
    <path d="M9.52173913,0.391304348 C3.13043478,2.2826087 -2.08695652,22.8913043 2.2173913,27.6521739 C6.52173913,32.4130435 27.7826087,27.1304348 29.4782609,20.3478261 C31.173913,13.5652174 15.9782609,-1.43478261 9.52173913,0.391304348 Z M17.4782609,17.9347826 C17.0869565,18.3913043 16.5652174,18.7826087 15.9782609,19.0434783 C14.6086957,19.6304348 12.9782609,19.5652174 11.673913,18.8478261 C11.673913,19.4347826 11.673913,20.3478261 14.5434783,20.5434783 C15.3913043,20.6086957 15.8478261,20.6086957 16.7608696,20.7391304 C16.9565217,20.8043478 17.0869565,20.8043478 17.2826087,20.8695652 C17.0217391,22.1086957 16.5652174,23.0869565 15.3913043,22.9565217 C14.9347826,22.8913043 14.6086957,22.9565217 14.4782609,22.9565217 C9.97826087,22.9565217 9,20.7391304 9,18.8478261 L9,13.8913043 C9,9.13043478 11.6086957,8.15217391 13.8913043,8.15217391 C15.2608696,8.08695652 16.6304348,8.67391304 17.5434783,9.7173913 C18.5217391,10.826087 18.9782609,12.326087 18.9130435,13.826087 C18.9130435,15.326087 18.4565217,16.7608696 17.4782609,17.9347826 Z"/>
    <path d="M13.7608696,10.5652174 C13.1086957,10.5 12.5217391,10.826087 12.1956522,11.3478261 C11.7391304,12.1304348 11.5434783,13.0434783 11.6086957,13.8913043 C11.5434783,14.7391304 11.7391304,15.5869565 12.1956522,16.3043478 C12.5869565,16.826087 13.173913,17.0869565 13.7608696,17.0217391 C14.4130435,17.0217391 15,16.7608696 15.4565217,16.2391304 C15.9782609,15.5217391 16.173913,14.673913 16.1086957,13.7608696 C16.173913,12.8478261 15.9130435,12 15.3913043,11.2826087 C15,10.826087 14.4130435,10.5652174 13.7608696,10.5652174 Z"/>
  </g>
</svg>
