<svg xmlns="http://www.w3.org/2000/svg" width="30" height="30" viewBox="0 0 30 30">
  <g fill="none">
    <path fill="#000" d="M21.409901,2.1158707 C21.6097771,2.08619191 21.8080444,2.04653845 22.0039604,1.99705882 C21.8168317,2.03567268 21.6118812,2.07725684 21.409901,2.1158707 Z"/>
    <path fill="#0D97FF" d="M29.670297,11.0382353 C29.1049605,9.0896064 27.8880034,7.38888099 26.2188119,6.21470588 C25.7882627,5.91092033 25.3309721,5.64612643 24.8524752,5.42352941 C24.772661,5.38382341 24.7087914,5.31850649 24.6712871,5.23823529 C24.4336553,4.77199921 24.1585094,4.3254593 23.8485149,3.90294118 C22.6342228,2.27004514 20.897345,1.09237835 18.9207921,0.561764706 C18.1961296,0.377174711 17.4502036,0.287196421 16.7019802,0.294117647 C15.417579,0.305674697 14.149827,0.583188248 12.980198,1.10882353 C12.4929765,1.33161768 12.0259228,1.59532665 11.5841584,1.89705882 C11.5212516,1.9371472 11.4480755,1.95857863 11.3732673,1.95882353 C11.1415842,1.94117647 10.909901,1.93529412 10.6930693,1.93529412 C10.3873161,1.93733845 10.0819065,1.95599395 9.77821782,1.99117647 C8.75964926,2.10122058 7.76733601,2.38167492 6.84356436,2.82058824 C5.93275897,3.2515876 5.10300286,3.83348642 4.39009901,4.54117647 C2.58515405,6.38883821 1.67257807,8.91749916 1.88613861,11.4794118 C1.89177138,11.5665818 1.86885429,11.6532256 1.82079208,11.7264706 C1.52934824,12.1631819 1.27406018,12.6225231 1.05742574,13.1 C-0.681065192,16.9194535 0.577488183,21.423382 4.05148515,23.8147059 C4.48278703,24.1197815 4.94109271,24.3855719 5.42079208,24.6088235 C5.49920847,24.649018 5.56266807,24.7128856 5.6019802,24.7911765 C5.83589437,25.2588259 6.11018196,25.7055858 6.42178218,26.1264706 C7.02692271,26.9428402 7.76824431,27.6510329 8.61386139,28.2205882 C9.44748289,28.7873031 10.372636,29.2090394 11.349505,29.4676471 C12.0760597,29.6532082 12.8239481,29.744171 13.5742574,29.7382353 C14.8570162,29.7262386 16.1229392,29.4476804 17.290099,28.9205882 C17.7773501,28.6989935 18.2444224,28.436258 18.6861386,28.1352941 C18.7495579,28.0966811 18.822581,28.0763129 18.8970297,28.0764706 C19.1079208,28.0764706 19.3336634,28.0970588 19.5891089,28.0970588 C24.1650308,28.0988047 27.9821212,24.6346414 28.3782178,20.1205882 C28.4213643,19.5989125 28.4213643,19.0746169 28.3782178,18.5529412 C28.3703088,18.4646457 28.393388,18.3763502 28.4435644,18.3029412 C28.7357068,17.8681872 28.9900838,17.4096812 29.2039604,16.9323529 C29.7218686,15.7685653 29.9870041,14.5099955 29.9821782,13.2382353 C29.9778549,12.4944048 29.8729625,11.7544966 29.670297,11.0382353 Z M14.4475248,1.96176471 C15.1789234,1.73787115 15.9394244,1.62095099 16.7049505,1.61470588 C17.3399789,1.60824037 17.9731149,1.68438157 18.5881188,1.84117647 C19.9492844,2.20342917 21.1828296,2.93121076 22.1524752,3.94411765 C22.2480904,4.04417007 22.2748984,4.19074555 22.2207921,4.31764706 C22.1654178,4.44339833 22.0414708,4.52598423 21.9029703,4.52941176 C21.885308,4.53275019 21.8671673,4.53275019 21.849505,4.52941176 C21.5196236,4.48155229 21.1875215,4.45014012 20.8544554,4.43529412 C20.649505,4.43529412 20.4267327,4.41764706 20.1683168,4.43529412 C19.4432011,4.44304683 18.7199628,4.50993974 18.0059406,4.63529412 L17.9584158,4.63529412 C17.8788722,4.6332076 17.8019945,4.60646132 17.7386139,4.55882353 C17.002476,3.94785023 16.1970636,3.42373994 15.3386139,2.99705882 C15.0415508,2.85056303 14.7372024,2.7190228 14.4267327,2.60294118 C14.2873011,2.55247923 14.1979094,2.41731395 14.2069307,2.27058824 C14.2121919,2.1272967 14.3088897,2.00317657 14.4475248,1.96176471 Z M9.84950495,5.53235294 C10.3683449,4.73649509 11.0097681,4.02593817 11.750495,3.42647059 C11.8142362,3.37500335 11.893991,3.34694717 11.9762376,3.34705882 L12.029703,3.34705882 C12.9748018,3.4877602 13.892446,3.77146459 14.750495,4.18823529 C14.9970297,4.30588235 15.2554455,4.44705882 15.5465347,4.61764706 C15.6630986,4.68906115 15.7269237,4.82120533 15.709901,4.95588235 C15.6981585,5.0944466 15.6012616,5.21145506 15.4663366,5.25 C15.1217822,5.35588235 14.7950495,5.46176471 14.4742574,5.56764706 L14.3435644,5.61176471 C13.6544554,5.83235294 13.1554455,5.98823529 12.6534653,6.12941176 C12.1514851,6.27058824 11.6613861,6.37941176 11.1326733,6.49705882 L10.9425743,6.52647059 C10.5623762,6.60882353 10.1821782,6.69411765 9.78415842,6.79117647 C9.75758131,6.79521504 9.73053751,6.79521504 9.7039604,6.79117647 C9.58195851,6.79130669 9.46898334,6.72754218 9.40693069,6.62352941 C9.34769294,6.51841357 9.34769294,6.39040996 9.40693069,6.28529412 C9.53168317,6.04411765 9.68613861,5.78235294 9.84950495,5.53235294 Z M4.66633663,18.0529412 C4.51592507,18.9753881 4.47009609,19.9115905 4.52970297,20.8441176 C4.55049505,21.1382353 4.58910891,21.4764706 4.64257426,21.8205882 C4.66511943,21.9247236 4.63769968,22.0333273 4.56831683,22.1147059 C4.50065499,22.1891355 4.4050618,22.2327411 4.3039604,22.2352941 C4.21567032,22.2373383 4.13018259,22.2045366 4.06633663,22.1441176 C1.9189287,20.2371703 1.08948236,17.2666538 1.94257426,14.5382353 C1.98540124,14.3977922 2.11278431,14.2991836 2.26076121,14.2919233 C2.40873811,14.284663 2.54534184,14.3703194 2.6019802,14.5058824 C2.72376238,14.8 2.86336634,15.1147059 3.01188119,15.4058824 C3.44447497,16.2376254 3.96951013,17.0189368 4.57722772,17.7352941 C4.65273993,17.8230069 4.6853439,17.9392304 4.66633663,18.0529412 Z M5.62574257,14.3764706 C5.50990099,14.7411765 5.39405941,15.1117647 5.27524752,15.5 C5.23410346,15.6469179 5.09951258,15.7489725 4.94554455,15.75 C4.8244414,15.7525665 4.71117767,15.6908822 4.64851485,15.5882353 C4.4853644,15.3373777 4.33565263,15.0781961 4.2,14.8117647 C3.74915414,13.9395155 3.4432503,13.0010072 3.29405941,12.0323529 C3.18640769,11.3731917 3.16245936,10.7032839 3.22277228,10.0382353 C3.22277228,9.90294118 3.24950495,9.77941176 3.27029703,9.65294118 C3.67703979,6.61963055 5.94545624,4.15645987 8.95841584,3.47647059 C8.98604363,3.473257 9.01395637,3.473257 9.04158416,3.47647059 C9.16947701,3.47835561 9.28495276,3.55267897 9.33861386,3.66764706 C9.40048536,3.78693956 9.38533779,3.93116128 9.3,4.03529412 C9.1039604,4.28235294 8.91089109,4.55 8.70594059,4.83235294 C8.17266634,5.65148511 7.73896883,6.53012088 7.41386139,7.45 C7.4002353,7.49087725 7.36851926,7.52336528 7.32772277,7.53823529 C6.48932369,7.84622103 5.68590752,8.2405405 4.93069307,8.71470588 L4.82673267,8.78529412 L4.73465347,8.83823529 L4.67524752,8.87941176 L4.64851485,8.89705882 L4.6039604,8.92647059 L4.58019802,8.94411765 L4.52376238,8.97941176 C4.50028584,8.99638276 4.48432631,9.02166766 4.47920792,9.05 C4.47746763,9.08232999 4.47746763,9.11472883 4.47920792,9.14705882 L4.47920792,9.24705882 C4.47920792,9.31372549 4.47227723,9.38039216 4.45841584,9.44705882 C4.44653465,9.58235294 4.43663366,9.71862745 4.42871287,9.85588235 C4.42079208,9.99313725 4.42079208,10.1333333 4.42871287,10.2764706 C4.42871287,10.3147059 4.42871287,10.3529412 4.42871287,10.3882353 C4.42841224,10.4434238 4.45934276,10.494133 4.50881293,10.5195556 C4.55828309,10.5449783 4.61796367,10.5408341 4.66336634,10.5088235 C4.84158416,10.3852941 5.02277228,10.2647059 5.20693069,10.1411765 L5.28415842,10.0558824 C5.34653465,10.0088235 5.40891089,9.96470588 5.47425743,9.92352941 L5.57821782,9.85588235 C5.77722772,9.72352941 6,9.59117647 6.24653465,9.45588235 C6.39710679,9.3818284 6.57921151,9.41813432 6.68910891,9.54411765 C6.75406459,9.6276208 6.77901162,9.73502273 6.75742574,9.83823529 C6.67425743,10.1794118 6.60594059,10.5088235 6.53762376,10.8264706 L6.5019802,10.9882353 C6.39207921,11.5411765 6.26732673,12.1294118 6.11881188,12.6941176 C5.97029703,13.2588235 5.82178218,13.7352941 5.65247525,14.2705882 L5.62574257,14.3764706 Z M6.94752475,23.8058824 L6.59108911,23.6764706 L6.54653465,23.65 L6.51683168,23.5852941 C6.14822551,22.6773698 5.92668658,21.7175152 5.86039604,20.7411765 C5.8377723,20.4476269 5.83083193,20.1530985 5.83960396,19.8588235 C5.84285804,19.6715476 5.99797781,19.521887 6.18712871,19.5235294 C6.27382075,19.5223879 6.35770746,19.5539313 6.42178218,19.6117647 C6.71881188,19.8882353 7.01584158,20.15 7.31287129,20.4 L7.38118812,20.4617647 C7.78514851,20.8176471 8.20990099,21.2 8.61089109,21.5852941 C9.01188119,21.9705882 9.3950495,22.3882353 9.82574257,22.8529412 C9.93861386,22.9735294 10.0544554,23.0941176 10.1673267,23.2176471 L10.2,23.2529412 C10.2113636,23.2578521 10.2242799,23.2578521 10.2356436,23.2529412 C10.6943236,23.2437351 11.1518289,23.2034448 11.6049505,23.1323529 C11.6606787,23.1243342 11.707033,23.0857954 11.724652,23.0328334 C11.7422711,22.9798715 11.7281236,22.9215981 11.6881188,22.8823529 C11.3910891,22.5882353 11.1178218,22.2941176 10.7970297,21.9470588 L10.6574257,21.8205882 C10.3069307,21.4441176 9.92673267,21.0411765 9.53762376,20.6617647 C9.14851485,20.2823529 8.77425743,19.9470588 8.39405941,19.6088235 L8.18316832,19.4205882 C7.72871287,19.0176471 7.29207921,18.6411765 6.85841584,18.2176471 C6.65940594,18.0352941 6.46336634,17.8411765 6.26435644,17.6470588 C6.1710873,17.5487408 6.13324099,17.4109641 6.16336634,17.2794118 C6.22574257,17.0147059 6.29108911,16.7529412 6.36237624,16.5 C6.51683168,15.9294118 6.68613861,15.3970588 6.83168317,14.9411765 L6.92673267,14.6294118 C7.0960396,14.0852941 7.25940594,13.5705882 7.39306931,13.0411765 C7.52673267,12.5117647 7.66336634,11.9058824 7.7970297,11.2764706 L7.85049505,11.0176471 C7.94851485,10.5676471 8.05841584,10.0558824 8.19207921,9.52647059 C8.24851485,9.29411765 8.31683168,9.03235294 8.4,8.75294118 C8.44002481,8.62109408 8.54352079,8.51751082 8.67623762,8.47647059 C8.90792079,8.40588235 9.12475248,8.34705882 9.32376238,8.29117647 L9.45148515,8.25588235 C10.0811881,8.09411765 10.6722772,7.96176471 11.2158416,7.84117647 L11.4356436,7.79117647 C11.9762376,7.66764706 12.4841584,7.55 12.9920792,7.41176471 C13.5,7.27352941 14.0613861,7.09117647 14.5752475,6.92941176 L14.7415842,6.87647059 C15.2792079,6.7 15.8554455,6.51176471 16.4673267,6.33235294 C16.8267327,6.23235294 17.1178218,6.15588235 17.3881188,6.09411765 C18.0567535,5.93496063 18.7371188,5.82874302 19.4227723,5.77647059 C19.6722772,5.75588235 19.9217822,5.74411765 20.1653465,5.74411765 C20.3643564,5.74411765 20.5633663,5.74411765 20.7594059,5.74411765 C21.7433705,5.79501679 22.7129019,6.00052395 23.6316832,6.35294118 C23.6721234,6.36616109 23.7046873,6.39625614 23.7207921,6.43529412 C24.0934097,7.34226966 24.3170298,8.30245193 24.3831683,9.27941176 C24.4009901,9.55588235 24.4069307,9.84705882 24.4009901,10.1617647 C24.402864,10.3019758 24.3186322,10.4292895 24.1880686,10.4835885 C24.0575051,10.5378876 23.9067268,10.5083105 23.8069307,10.4088235 C23.509901,10.1323529 23.2128713,9.87058824 22.9158416,9.62058824 L22.7673267,9.48823529 C22.3633663,9.12941176 21.980198,8.78529412 21.6178218,8.43823529 C21.2554455,8.09117647 20.8871287,7.68823529 20.5069307,7.28529412 L20.3940594,7.16470588 L20.150495,6.9 L20.049505,6.79117647 C20.0254428,6.76890338 19.9932953,6.75723153 19.960396,6.75882353 C19.512623,6.76926614 19.0660683,6.80955335 18.6237624,6.87941176 C18.5687882,6.88848099 18.5232829,6.9267078 18.505287,6.97893722 C18.4872911,7.03116664 18.4997114,7.08896252 18.5376238,7.12941176 C18.7960396,7.39705882 19.0455446,7.66470588 19.3247525,7.95588235 L19.5534653,8.20588235 C19.9158416,8.59117647 20.290099,8.99117647 20.6821782,9.38235294 C21.0742574,9.77352941 21.549505,10.1941176 21.9831683,10.5794118 L22.1881188,10.7558824 L22.3485149,10.9029412 C22.6782178,11.1970588 23.019802,11.4911765 23.3673267,11.8323529 C23.5663366,12.0205882 23.7920792,12.2441176 24.029703,12.4941176 C24.0627279,12.5310301 24.0769449,12.5808432 24.0683168,12.6294118 C24,12.9441176 23.9227723,13.25 23.839604,13.5441176 C23.6762376,14.1470588 23.5069307,14.6882353 23.3435644,15.2117647 L23.3049505,15.3352941 C23.1267327,15.9029412 22.9574257,16.4411765 22.8089109,17.0029412 C22.660396,17.5647059 22.5475248,18.1058824 22.4079208,18.7676471 L22.3366337,19.1058824 C22.2386139,19.5588235 22.1346535,20.0294118 22.0128713,20.5235294 C21.9475248,20.7941176 21.8643564,21.0970588 21.7633663,21.4323529 C21.7469947,21.4786341 21.7095834,21.5145891 21.6623762,21.5294118 C21.3326733,21.6323529 21.0237624,21.7205882 20.7712871,21.7911765 C20.1415842,21.9558824 19.5475248,22.0852941 19.0128713,22.2088235 L18.9267327,22.2264706 C18.3712871,22.3529412 17.7950495,22.4823529 17.2277228,22.6352941 C16.660396,22.7882353 16.090099,22.9764706 15.5287129,23.1470588 L15.5108911,23.1470588 L15.2316832,23.2382353 C14.7594059,23.3911765 14.2722772,23.55 13.7465347,23.7 L13.7108911,23.7 C13.5029703,23.7617647 13.1851485,23.85 12.819802,23.9323529 C12.1517152,24.0892296 11.4725176,24.1954199 10.7881188,24.25 C10.5415842,24.2705882 10.2891089,24.2823529 10.0455446,24.2823529 C9.84653465,24.2823529 9.64158416,24.2823529 9.45148515,24.2823529 L9.07425743,24.2558824 L8.74158416,24.2176471 L8.64059406,24.2176471 L8.41188119,24.1735294 C8.39311194,24.175303 8.37421479,24.175303 8.35544554,24.1735294 C8.26633663,24.1735294 8.17722772,24.1411765 8.09405941,24.1205882 C7.92772277,24.0911765 7.76138614,24.0529412 7.6009901,24.0117647 C7.44059406,23.9705882 7.18217822,23.8794118 6.94455446,23.8058824 L6.94752475,23.8058824 Z M15.8257426,28.0676471 C15.0945322,28.2927022 14.3340034,28.4106175 13.5683168,28.4176471 C12.9323614,28.4231944 12.2983636,28.3470696 11.6821782,28.1911765 C10.3207423,27.8279541 9.08719916,27.0991559 8.11782178,26.0852941 C8.02199808,25.986538 7.99509783,25.8406162 8.04950495,25.7147059 C8.10457202,25.5891151 8.22906174,25.5073196 8.36732673,25.5058824 L8.42376238,25.5058824 C8.74752475,25.5529412 9.08316832,25.5882353 9.41287129,25.6058824 C9.64158416,25.6058824 9.87623762,25.6235294 10.1108911,25.6058824 C10.8301508,25.5965368 11.5474176,25.5286612 12.2554455,25.4029412 L12.3148515,25.4029412 C12.3919735,25.4029412 12.4670152,25.4277098 12.5287129,25.4735294 C13.2680558,26.0735946 14.0730977,26.5895712 14.9287129,27.0117647 C15.2257426,27.1470588 15.5227723,27.2794118 15.8405941,27.4 C15.9797888,27.4533582 16.0701317,27.587544 16.0663366,27.7352941 C16.0681133,27.8871618 15.9691334,28.0222237 15.8227723,28.0676471 L15.8257426,28.0676471 Z M20.4207921,24.5 C19.9036228,25.2953648 19.2630915,26.0050517 18.5227723,26.6029412 C18.4620631,26.6559568 18.3839159,26.6852361 18.3029703,26.6852941 L18.2465347,26.6852941 C17.2997204,26.5495647 16.3804835,26.2666704 15.5227723,25.8470588 C15.2435644,25.7117647 14.9762376,25.5529412 14.7267327,25.4176471 C14.61049,25.3451808 14.547173,25.2125922 14.5643673,25.077647 C14.5815617,24.9427019 14.6761532,24.829841 14.8069307,24.7882353 C15.1039604,24.6970588 15.4009901,24.6058824 15.6980198,24.4941176 L15.9445545,24.4176471 C16.5386139,24.2264706 17.0762376,24.05 17.6287129,23.8941176 C18.1158416,23.7617647 18.6148515,23.6470588 19.1405941,23.5323529 L19.3514851,23.4823529 C19.7257426,23.4 20.1059406,23.3147059 20.5009901,23.2205882 C20.5286368,23.2177124 20.5565117,23.2177124 20.5841584,23.2205882 C20.7064823,23.2192398 20.82003,23.2833275 20.8811881,23.3882353 C20.9393272,23.4925867 20.9393272,23.619178 20.8811881,23.7235294 C20.7356436,23.9941176 20.5782178,24.2558824 20.4178218,24.5 L20.4207921,24.5 Z M27.0475248,19.9970588 C27.0475248,20.1294118 27.0207921,20.2588235 26.9970297,20.3852941 C26.5923361,23.4185228 24.3245903,25.8822518 21.3118812,26.5617647 C21.2852381,26.5648292 21.2583263,26.5648292 21.2316832,26.5617647 C21.0978198,26.5609699 20.9761042,26.4847427 20.9180121,26.3653209 C20.8599201,26.2458991 20.8755982,26.1041415 20.9584158,26 C21.160396,25.75 21.3534653,25.4823529 21.5376238,25.2029412 C22.0475278,24.4139168 22.4678963,23.5715588 22.7910891,22.6911765 C22.8333396,22.5831355 22.9196022,22.4977186 23.0287129,22.4558824 C23.8418342,22.151257 24.6203684,21.7628488 25.3514851,21.2970588 L25.4554455,21.2294118 L25.5653465,21.1588235 L25.6247525,21.1176471 L25.6514851,21.1 L25.719802,21.0529412 L25.7851485,21.0088235 C25.7935063,21.0035366 25.8006013,20.9965111 25.8059406,20.9882353 C25.8132917,20.9640819 25.819242,20.939532 25.8237624,20.9147059 C25.8810605,20.4857246 25.9078591,20.053288 25.9039604,19.6205882 C25.904261,19.5653997 25.8733305,19.5146906 25.8238603,19.4892679 C25.7743902,19.4638452 25.7147096,19.4679894 25.6693069,19.5 C25.3722772,19.6970588 25.0990099,19.8852941 24.7782178,20.0882353 C24.549505,20.2411765 24.2881188,20.4 24.0029703,20.5558824 C23.9533223,20.5844204 23.8970096,20.5996279 23.839604,20.6 C23.7312469,20.6023343 23.6279938,20.5544769 23.560396,20.4705882 C23.4954404,20.3870851 23.4704933,20.2796832 23.4920792,20.1764706 C23.5663366,19.8823529 23.6257426,19.5882353 23.6851485,19.2941176 L23.7475248,19.0235294 C23.8485149,18.5117647 23.9762376,17.9058824 24.1306931,17.3117647 C24.270297,16.7852941 24.4277228,16.2529412 24.6,15.7382353 L24.629703,15.6441176 C24.7455446,15.2794118 24.8584158,14.9058824 24.9742574,14.5147059 C25.0179744,14.3674485 25.1548963,14.2666637 25.309901,14.2676471 C25.4291565,14.2694067 25.5400371,14.3286952 25.6069307,14.4264706 C25.7851485,14.7205882 25.9306931,14.9647059 26.0524752,15.2058824 C26.5093205,16.081304 26.8212128,17.0236963 26.9762376,17.9970588 C27.0858797,18.6580029 27.1098358,19.3301053 27.0475248,19.9970588 Z M28.3306931,15.5029412 C28.2880557,15.6434948 28.1600882,15.7418061 28.0120004,15.7477777 C27.8639125,15.7537493 27.7282956,15.6660669 27.6742574,15.5294118 C27.5524752,15.2352941 27.4128713,14.9235294 27.2643564,14.6470588 C26.828567,13.8148976 26.3016343,13.0327407 25.6930693,12.3147059 C25.6193368,12.2261301 25.5879243,12.1102925 25.6069307,11.9970588 C25.7579408,11.0746809 25.8047639,10.1385214 25.7465347,9.20588235 C25.7168317,8.85882353 25.6811881,8.52647059 25.6306931,8.22647059 C25.6142491,8.12894696 25.6413403,8.02915584 25.7049505,7.95294118 C25.7727826,7.87501459 25.871352,7.829967 25.9752475,7.82941176 C26.0620461,7.82766686 26.1461511,7.85929233 26.209901,7.91764706 C28.3435128,9.82430666 29.1702456,12.7812264 28.3306931,15.5029412 Z" opacity=".48"/>
    <path fill="#0D97FF" d="M29.6851485,11.0558824 C29.1159487,9.10513561 27.8935513,7.4041265 26.2188119,6.23235294 C25.788254,5.92858076 25.3309646,5.66378759 24.8524752,5.44117647 C24.772661,5.40147046 24.7087914,5.33615355 24.6712871,5.25588235 C24.4336553,4.78964627 24.1585094,4.34310636 23.8485149,3.92058824 C22.6342228,2.2876922 20.897345,1.11002541 18.9207921,0.579411765 C18.1961296,0.39482177 17.4502036,0.30484348 16.7019802,0.311764706 C15.417579,0.323321756 14.149827,0.600835307 12.980198,1.12647059 C12.4929765,1.34926474 12.0259228,1.61297371 11.5841584,1.91470588 C11.5212516,1.95479426 11.4480755,1.97622569 11.3732673,1.97647059 C11.1415842,1.95882353 10.909901,1.95294118 10.6930693,1.95294118 C10.3873163,1.95499142 10.0819071,1.97364689 9.77821782,2.00882353 C8.76066387,2.11919381 7.7693817,2.39964059 6.84653465,2.83823529 C5.93575885,3.26928453 5.10601085,3.85117767 4.39306931,4.55882353 C2.58704304,6.40597701 1.6733615,8.93470168 1.88613861,11.4970588 C1.89177138,11.5842289 1.86885429,11.6708727 1.82079208,11.7441176 C1.52934824,12.1808289 1.27406018,12.6401702 1.05742574,13.1176471 C-0.681065192,16.9371006 0.577488183,21.441029 4.05148515,23.8323529 C4.48279588,24.1374151 4.94110029,24.4032047 5.42079208,24.6264706 C5.49920847,24.6666651 5.56266807,24.7305327 5.6019802,24.8088235 C5.83589437,25.276473 6.11018196,25.7232328 6.42178218,26.1441176 C7.02692271,26.9604872 7.76824431,27.66868 8.61386139,28.2382353 C9.44748289,28.8049502 10.372636,29.2266865 11.349505,29.4852941 C12.0760597,29.6708552 12.8239481,29.7618181 13.5742574,29.7558824 C14.8570162,29.7438857 16.1229392,29.4653274 17.290099,28.9382353 C17.7773433,28.7166276 18.2444146,28.4538927 18.6861386,28.1529412 C18.7495579,28.1143282 18.822581,28.0939599 18.8970297,28.0941176 C19.1079208,28.0941176 19.3336634,28.1147059 19.5891089,28.1147059 C24.1650308,28.1164518 27.9821212,24.6522885 28.3782178,20.1382353 C28.4213643,19.6165595 28.4213643,19.092264 28.3782178,18.5705882 C28.3703088,18.4822927 28.393388,18.3939973 28.4435644,18.3205882 C28.7356945,17.8858269 28.990071,17.427322 29.2039604,16.95 C29.7218686,15.7862124 29.9870041,14.5276426 29.9821782,13.2558824 C29.9826925,12.5127142 29.8827965,11.772818 29.6851485,11.0558824 Z M14.4475248,1.97941176 C15.1789234,1.75551821 15.9394244,1.63859805 16.7049505,1.63235294 C17.3399789,1.62588743 17.9731149,1.70202863 18.5881188,1.85882353 C19.9492844,2.22107623 21.1828296,2.94885782 22.1524752,3.96176471 C22.2480904,4.06181713 22.2748984,4.20839261 22.2207921,4.33529412 C22.1654178,4.46104539 22.0414708,4.54363129 21.9029703,4.54705882 C21.8853014,4.55032793 21.8671738,4.55032793 21.849505,4.54705882 C21.519626,4.49917964 21.1875229,4.46776737 20.8544554,4.45294118 C20.649505,4.45294118 20.4267327,4.43529412 20.1683168,4.45294118 C19.4432004,4.46068056 18.719961,4.52757357 18.0059406,4.65294118 L17.9584158,4.65294118 C17.8788722,4.65085466 17.8019945,4.62410837 17.7386139,4.57647059 C17.0018824,3.97596282 16.1975374,3.46176794 15.3415842,3.04411765 C15.0445189,2.8976264 14.7401708,2.76608626 14.429703,2.65 C14.2902714,2.59953806 14.2008797,2.46437278 14.209901,2.31764706 C14.2015538,2.16432647 14.2994483,2.02498273 14.4475248,1.97941176 Z M9.84950495,5.55 C10.3683839,4.75417152 11.0098019,4.04362024 11.750495,3.44411765 C11.8142362,3.39265041 11.893991,3.36459423 11.9762376,3.36470588 L12.029703,3.36470588 C12.9748018,3.50540726 13.892446,3.78911165 14.750495,4.20588235 C14.9970297,4.32352941 15.2554455,4.46470588 15.5465347,4.63529412 C15.6630986,4.70670821 15.7269237,4.83885239 15.709901,4.97352941 C15.6981585,5.11209366 15.6012616,5.22910212 15.4663366,5.26764706 C15.1217822,5.37352941 14.7950495,5.47941176 14.4742574,5.58529412 L14.3435644,5.62941176 C13.6544554,5.85 13.1554455,6.00588235 12.6534653,6.14705882 C12.1514851,6.28823529 11.6613861,6.39705882 11.1326733,6.51470588 L10.9425743,6.55882353 C10.5623762,6.64117647 10.1821782,6.72647059 9.78415842,6.82352941 C9.75758491,6.82761442 9.73053391,6.82761442 9.7039604,6.82352941 C9.58195851,6.82365963 9.46898334,6.75989512 9.40693069,6.65588235 C9.34769294,6.55076651 9.34769294,6.42276291 9.40693069,6.31764706 C9.53168317,6.06176471 9.68613861,5.8 9.84950495,5.55 Z M4.66633663,18.0705882 C4.51592507,18.9930351 4.47009609,19.9292376 4.52970297,20.8617647 C4.55049505,21.1558824 4.58910891,21.4941176 4.64257426,21.8382353 C4.66511943,21.9423706 4.63769968,22.0509743 4.56831683,22.1323529 C4.50065499,22.2067826 4.4050618,22.2503882 4.3039604,22.2529412 C4.21567032,22.2549854 4.13018259,22.2221836 4.06633663,22.1617647 C1.9189287,20.2548174 1.08948236,17.2843008 1.94257426,14.5558824 C1.98540124,14.4154393 2.11278431,14.3168306 2.26076121,14.3095703 C2.40873811,14.30231 2.54534184,14.3879665 2.6019802,14.5235294 C2.72376238,14.8176471 2.86336634,15.1323529 3.01188119,15.4235294 C3.44447497,16.2552724 3.96951013,17.0365838 4.57722772,17.7529412 C4.65273993,17.8406539 4.6853439,17.9568775 4.66633663,18.0705882 Z M5.62574257,14.3941176 C5.50990099,14.7588235 5.39405941,15.1294118 5.27524752,15.5176471 C5.23410346,15.6645649 5.09951258,15.7666196 4.94554455,15.7676471 C4.8244414,15.7702136 4.71117767,15.7085293 4.64851485,15.6058824 C4.48535971,15.3550275 4.3356478,15.0958457 4.2,14.8294118 C3.75430102,13.9562799 3.453424,13.017809 3.30891089,12.05 C3.19531212,11.3915778 3.16537654,10.7216664 3.21980198,10.0558824 C3.21980198,9.92058824 3.24653465,9.79705882 3.26732673,9.67058824 C3.67406949,6.63727761 5.94248594,4.17410693 8.95544554,3.49411765 C8.98307333,3.49090406 9.01098607,3.49090406 9.03861386,3.49411765 C9.16650671,3.49600267 9.28198246,3.57032603 9.33564356,3.68529412 C9.39751506,3.80458662 9.3823675,3.94880834 9.2970297,4.05294118 C9.1009901,4.3 8.90792079,4.56764706 8.7029703,4.85 C8.16969604,5.66913217 7.73599854,6.54776794 7.41089109,7.46764706 C7.397265,7.50852431 7.36554897,7.54101234 7.32475248,7.55588235 C6.48635339,7.86386808 5.68293722,8.25818756 4.92772277,8.73235294 C4.79405941,8.81764706 4.66633663,8.90588235 4.53564356,8.99411765 C4.4627414,9.04020488 4.42336918,9.12391058 4.43465347,9.20882353 C4.43465347,9.3 4.41980198,9.39117647 4.41089109,9.48235294 C4.4019802,9.57352941 4.39009901,9.75588235 4.38415842,9.89117647 C4.37821782,10.0264706 4.38415842,10.1852941 4.38415842,10.3088235 L4.38415842,10.4235294 C4.38385778,10.4787179 4.4147883,10.5294271 4.46425847,10.5548498 C4.51372864,10.5802724 4.57340921,10.5761282 4.61881188,10.5441176 C4.7970297,10.4205882 4.97821782,10.3 5.16237624,10.1764706 L5.26930693,10.1029412 C5.33168317,10.0558824 5.39405941,10.0117647 5.45940594,9.97058824 L5.56336634,9.90294118 C5.76237624,9.77058824 5.98514851,9.63823529 6.23168317,9.50294118 C6.3822553,9.42888722 6.56436003,9.46519314 6.67425743,9.59117647 C6.73921311,9.67467962 6.76416013,9.78208155 6.74257426,9.88529412 C6.65940594,10.2264706 6.59108911,10.5558824 6.52277228,10.8735294 L6.51683168,11.0147059 C6.40693069,11.5676471 6.28217822,12.1558824 6.13366337,12.7205882 C5.98514851,13.2852941 5.83663366,13.7617647 5.66732673,14.2970588 L5.62574257,14.3941176 Z M6.94752475,23.8235294 L6.59108911,23.6941176 L6.54653465,23.6676471 L6.51683168,23.6176471 C6.14822551,22.7097227 5.92668658,21.7498681 5.86039604,20.7735294 C5.83778335,20.4799793 5.83084299,20.1854515 5.83960396,19.8911765 C5.84285804,19.7039005 5.99797781,19.5542399 6.18712871,19.5558824 C6.27382075,19.5547408 6.35770746,19.5862842 6.42178218,19.6441176 C6.71881188,19.9205882 7.01584158,20.1823529 7.31287129,20.4323529 L7.38118812,20.4941176 C7.78514851,20.85 8.20990099,21.2323529 8.61089109,21.6176471 C9.01188119,22.0029412 9.3950495,22.4205882 9.82574257,22.8852941 C9.93861386,23.0058824 10.0544554,23.1264706 10.1673267,23.25 L10.2,23.2852941 C10.2110282,23.2915988 10.2246154,23.2915988 10.2356436,23.2852941 C10.6943231,23.2760788 11.1518278,23.2357886 11.6049505,23.1647059 C11.6606787,23.1566871 11.707033,23.1181483 11.724652,23.0651864 C11.7422711,23.0122245 11.7281236,22.953951 11.6881188,22.9147059 C11.3910891,22.6205882 11.1178218,22.3264706 10.7970297,21.9794118 L10.6574257,21.8205882 C10.3069307,21.4441176 9.92673267,21.0411765 9.53762376,20.6617647 C9.14851485,20.2823529 8.77425743,19.9470588 8.39405941,19.6088235 L8.18316832,19.4205882 C7.72871287,19.0176471 7.29207921,18.6411765 6.85841584,18.2176471 C6.65940594,18.0352941 6.46336634,17.8411765 6.26435644,17.6470588 C6.1710873,17.5487408 6.13324099,17.4109641 6.16336634,17.2794118 C6.22574257,17.0147059 6.29108911,16.7529412 6.36237624,16.5 C6.51683168,15.9294118 6.68613861,15.3970588 6.83168317,14.9411765 L6.92673267,14.6294118 C7.11089109,14.0911765 7.27425743,13.5852941 7.40792079,13.0470588 C7.54158416,12.5088235 7.67821782,11.9117647 7.81188119,11.2823529 L7.86534653,11.0235294 C7.96336634,10.5735294 8.07326733,10.0617647 8.20693069,9.53235294 C8.26336634,9.3 8.33168317,9.03823529 8.41485149,8.75882353 C8.45487629,8.62697644 8.55837227,8.52339317 8.69108911,8.48235294 C8.92277228,8.40882353 9.13960396,8.35 9.33861386,8.29117647 L9.46633663,8.25588235 C10.0960396,8.09411765 10.6871287,7.96176471 11.2306931,7.84117647 L11.450495,7.79117647 C11.9910891,7.66764706 12.4990099,7.55 13.0069307,7.41176471 C13.5148515,7.27352941 14.0762376,7.09117647 14.590099,6.92941176 L14.7564356,6.87647059 C15.2940594,6.7 15.870297,6.51176471 16.4821782,6.33235294 C16.8415842,6.23235294 17.1326733,6.15588235 17.4029703,6.09411765 C18.071605,5.93496063 18.7519703,5.82874302 19.4376238,5.77647059 C19.6871287,5.75588235 19.9366337,5.74411765 20.180198,5.74411765 C20.3792079,5.74411765 20.5782178,5.74411765 20.7742574,5.74411765 C21.758222,5.79501679 22.7277534,6.00052395 23.6465347,6.35294118 C23.6869749,6.36616109 23.7195388,6.39625614 23.7356436,6.43529412 C24.1083101,7.34225435 24.331932,8.30244451 24.3980198,9.27941176 C24.4158416,9.55588235 24.4217822,9.84705882 24.4158416,10.1617647 C24.4177155,10.3019758 24.3334836,10.4292895 24.2029201,10.4835885 C24.0723566,10.5378876 23.9215783,10.5083105 23.8217822,10.4088235 C23.5247525,10.1323529 23.2277228,9.87058824 22.9306931,9.62058824 L22.7821782,9.48823529 C22.3782178,9.12941176 21.9950495,8.78529412 21.6326733,8.43823529 C21.270297,8.09117647 20.9019802,7.68823529 20.5217822,7.28529412 L20.4089109,7.16470588 L20.1653465,6.9 L20.1,6.82058824 C20.0759379,6.79831514 20.0437904,6.78664329 20.0108911,6.78823529 C19.5631186,6.79868679 19.1165645,6.83897395 18.6742574,6.90882353 C18.6192832,6.91789276 18.5737779,6.95611956 18.5557821,7.00834898 C18.5377862,7.0605784 18.5502064,7.11837428 18.5881188,7.15882353 C18.8465347,7.42647059 19.0960396,7.69411765 19.3752475,7.98529412 L19.6039604,8.23529412 C19.9663366,8.62058824 20.3405941,9.02058824 20.7326733,9.41176471 C21.1247525,9.80294118 21.6,10.2235294 22.0336634,10.6088235 L22.2386139,10.7852941 L22.3990099,10.9323529 C22.7287129,11.2264706 23.070297,11.5205882 23.4178218,11.8617647 C23.6168317,12.05 23.8425743,12.2735294 24.080198,12.5235294 C24.113223,12.5604419 24.12744,12.610255 24.1188119,12.6588235 C24.050495,12.9735294 23.9732673,13.2794118 23.890099,13.5735294 C23.7267327,14.1617647 23.5574257,14.7176471 23.3940594,15.2411765 L23.3554455,15.3647059 C23.1772277,15.9323529 23.0079208,16.4705882 22.8594059,17.0323529 C22.7108911,17.5941176 22.5980198,18.1352941 22.4584158,18.7970588 L22.3871287,19.1352941 C22.2891089,19.5882353 22.1851485,20.0588235 22.0633663,20.5529412 C21.9980198,20.8235294 21.9148515,21.1264706 21.8138614,21.4617647 C21.7974897,21.5080459 21.7600785,21.5440008 21.7128713,21.5588235 C21.3831683,21.6617647 21.0742574,21.75 20.8217822,21.8205882 C20.1920792,21.9852941 19.5980198,22.1147059 19.0633663,22.2382353 L18.9772277,22.2558824 C18.4217822,22.3823529 17.8455446,22.5117647 17.2782178,22.6647059 C16.7108911,22.8176471 16.1405941,23.0058824 15.5792079,23.1764706 L15.5613861,23.1911765 L15.2821782,23.2823529 C14.809901,23.4352941 14.3227723,23.5941176 13.7970297,23.7441176 L13.7613861,23.7441176 C13.5534653,23.8058824 13.2356436,23.8941176 12.870297,23.9764706 C12.2022125,24.1333584 11.523014,24.2395489 10.8386139,24.2941176 C10.5920792,24.3147059 10.339604,24.3264706 10.0960396,24.3264706 C9.85247525,24.3264706 9.69207921,24.3264706 9.5019802,24.3264706 L9.12475248,24.3 L8.79207921,24.2617647 L8.69108911,24.2470588 L8.41188119,24.1735294 C8.39311194,24.175303 8.37421479,24.175303 8.35544554,24.1735294 C8.26633663,24.1735294 8.17722772,24.1411765 8.09405941,24.1205882 C7.92772277,24.0911765 7.76138614,24.0529412 7.6009901,24.0117647 C7.40792079,23.9676471 7.18217822,23.9029412 6.94455446,23.8235294 L6.94752475,23.8235294 Z M15.8257426,28.0852941 C15.0945322,28.3103492 14.3340034,28.4282645 13.5683168,28.4352941 C12.9323614,28.4408414 12.2983636,28.3647167 11.6821782,28.2088235 C10.3207423,27.8456012 9.08719916,27.1168029 8.11782178,26.1029412 C8.02199808,26.0041851 7.99509783,25.8582633 8.04950495,25.7323529 C8.10457202,25.6067621 8.22906174,25.5249667 8.36732673,25.5235294 L8.42376238,25.5235294 C8.74752475,25.5705882 9.08316832,25.6058824 9.41287129,25.6235294 C9.64158416,25.6235294 9.87623762,25.6411765 10.1108911,25.6382353 C10.8301508,25.6288897 11.5474176,25.5610141 12.2554455,25.4352941 L12.3148515,25.4352941 C12.3919735,25.4352941 12.4670152,25.4600628 12.5287129,25.5058824 C13.2680558,26.1059475 14.0730977,26.6219241 14.9287129,27.0441176 C15.2257426,27.1794118 15.5227723,27.3117647 15.8405941,27.4323529 C15.9797888,27.4857111 16.0701317,27.619897 16.0663366,27.7676471 C16.0617083,27.9140716 15.9639669,28.0415421 15.8227723,28.0852941 L15.8257426,28.0852941 Z M20.4207921,24.5176471 C19.9036228,25.3130119 19.2630915,26.0226987 18.5227723,26.6205882 C18.4620631,26.6736038 18.3839159,26.7028832 18.3029703,26.7029412 L18.2465347,26.7029412 C17.2997204,26.5672118 16.3804835,26.2843175 15.5227723,25.8647059 C15.2435644,25.7294118 14.9762376,25.5705882 14.7267327,25.4352941 C14.61049,25.3628278 14.547173,25.2302393 14.5643673,25.0952941 C14.5815617,24.9603489 14.6761532,24.8474881 14.8069307,24.8058824 C15.1039604,24.7147059 15.4009901,24.6235294 15.6980198,24.5264706 L15.9445545,24.45 C16.5386139,24.2588235 17.0762376,24.0823529 17.6287129,23.9264706 C18.1158416,23.7941176 18.6148515,23.6794118 19.1405941,23.5647059 L19.3514851,23.5147059 C19.7257426,23.4323529 20.1059406,23.3470588 20.5009901,23.2529412 C20.5286356,23.2500436 20.5565129,23.2500436 20.5841584,23.2529412 C20.7064823,23.2515928 20.82003,23.3156804 20.8811881,23.4205882 C20.9393272,23.5249396 20.9393272,23.651531 20.8811881,23.7558824 C20.7356436,24.0117647 20.5782178,24.2735294 20.4178218,24.5176471 L20.4207921,24.5176471 Z M25.8237624,21.0088235 C25.8261852,20.9853553 25.8261852,20.9617036 25.8237624,20.9382353 C25.8810508,20.5092531 25.9078493,20.0768171 25.9039604,19.6441176 C25.904261,19.5889291 25.8733305,19.53822 25.8238603,19.5127973 C25.7743902,19.4873746 25.7147096,19.4915188 25.6693069,19.5235294 C25.3722772,19.7205882 25.0990099,19.9088235 24.7782178,20.1117647 C24.549505,20.2647059 24.2881188,20.4235294 24.0029703,20.5794118 C23.9533223,20.6079499 23.8970096,20.6231573 23.839604,20.6235294 C23.7312469,20.6258637 23.6279938,20.5780064 23.560396,20.4941176 C23.4954404,20.4106145 23.4704933,20.3032126 23.4920792,20.2 C23.5663366,19.9058824 23.6257426,19.6117647 23.6851485,19.3176471 L23.7475248,19.0470588 C23.8485149,18.5352941 23.9762376,17.9294118 24.1306931,17.3352941 C24.270297,16.8088235 24.4277228,16.2764706 24.6,15.7617647 L24.629703,15.6676471 C24.7455446,15.3029412 24.8584158,14.9294118 24.9742574,14.5382353 C25.0179744,14.3909779 25.1548963,14.2901931 25.309901,14.2911765 C25.4291565,14.2929361 25.5400371,14.3522246 25.6069307,14.45 C25.7851485,14.7441176 25.9306931,14.9882353 26.0524752,15.2294118 C26.4967965,16.1031002 26.7976016,17.0413467 26.9435644,18.0088235 C27.0527002,18.6678397 27.0766552,19.3379334 27.0148515,20.0029412 C27.0148515,20.1352941 26.9881188,20.2647059 26.9643564,20.3911765 C26.5596628,23.4244051 24.291917,25.8881341 21.2792079,26.5676471 C21.2525648,26.5707116 21.225653,26.5707116 21.1990099,26.5676471 C21.0706538,26.5645221 20.9553446,26.4891642 20.9019802,26.3735294 C20.8393116,26.2543861 20.8545073,26.1097068 20.9405941,26.0058824 C21.1425743,25.7558824 21.3356436,25.4882353 21.5346535,25.2088235 C22.0445576,24.4197992 22.464926,23.5774411 22.7881188,22.6970588 C22.8303693,22.5890179 22.9166319,22.503601 23.0257426,22.4617647 C23.8388727,22.1571593 24.617409,21.76875 25.3485149,21.3029412 L25.7019802,21.0705882 C25.7389619,21.0535667 25.7722519,21.0295932 25.8,21 L25.8237624,21.0088235 Z M28.3425743,15.5205882 C28.2999369,15.6611418 28.1719694,15.7594532 28.0238815,15.7654248 C27.8757937,15.7713964 27.7401768,15.683714 27.6861386,15.5470588 C27.5643564,15.2529412 27.4247525,14.9411765 27.2762376,14.6647059 C26.8404482,13.8325447 26.3135155,13.0503878 25.7049505,12.3323529 C25.631218,12.2437772 25.5998055,12.1279396 25.6188119,12.0147059 C25.7697974,11.0923254 25.8166204,10.1561686 25.7584158,9.22352941 C25.7287129,8.87647059 25.6930693,8.54411765 25.6425743,8.24411765 C25.6261303,8.14659402 25.6532215,8.0468029 25.7168317,7.97058824 C25.7846637,7.89266165 25.8832332,7.84761405 25.9871287,7.84705882 C26.0739273,7.84531392 26.1580322,7.87693939 26.2217822,7.93529412 C28.3511245,9.84462974 29.1731136,12.8011457 28.3306931,15.5205882 L28.3425743,15.5205882 Z"/>
    <path fill="#0D97FF" d="M5.57821782,9.86764706 L5.50990099,9.91517181 L5.28415842,10.0577461 C5.34653465,10.0102213 5.40891089,9.96566686 5.47425743,9.9240827 L5.57821782,9.86764706 Z"/>
  </g>
</svg>
