<svg xmlns="http://www.w3.org/2000/svg" width="44" height="6" viewBox="0 0 44 6">
  <g fill="#42444C">
    <path d="M10.1255696 2.247C10.0472804 2.247 9.9721977 2.21349652 9.91683886 2.15385996 9.86148002 2.09422339 9.83037975 2.01333884 9.83037975 1.929L9.83037975.429C9.83037975.252545022 9.96316416.1095 10.126962.1095 10.2907599.1095 10.4235443.252545022 10.4235443.429L10.4235443 1.929C10.4235478 2.01386121 10.3920656 2.09520374 10.3361029 2.1549273 10.2801403 2.21465086 10.2043402 2.24780058 10.1255696 2.247zM22.1893671 5.856L22.1392405 5.856C21.5010936 5.85816703 20.892721 5.56542919 20.4683544 5.052 20.3676149 4.91365267 20.3900573 4.71352395 20.518481 4.605 20.6469047 4.49647605 20.8326782 4.52065267 20.9334177 4.659 21.2447186 5.02139985 21.6837093 5.22516639 22.1420253 5.22 22.5279538 5.25884906 22.9111885 5.12050677 23.1974684 4.839 23.3499788 4.64137117 23.4104734 4.37959014 23.3617722 4.128 23.2865823 3.579 22.6544304 3.345 22.1448101 3.156L22.0863291 3.135C21.9426681 3.07028393 21.870377 2.89648268 21.9211616 2.73790648 21.9719461 2.57933028 22.1283389 2.49052147 22.278481 2.535L22.336962 2.556C22.9273418 2.775 23.8212658 3.105 23.9465823 4.041 24.0210061 4.47788675 23.9084507 4.92762459 23.6402532 5.265 23.2571398 5.67613187 22.729143 5.89120468 22.1893671 5.856zM38.5974684 5.85C38.4933715 5.84977343 38.397081 5.79049848 38.3440506 5.694L37.2301266 3.666C37.1874865 3.58931393 37.1767769 3.49683545 37.2006208 3.41121427 37.2244647 3.32559308 37.2806598 3.254737 37.355443 3.216 37.355443 3.216 38.2187342 2.751 38.2187342 1.956 38.2187342 1.161 37.795443.756 36.9627848.756L35.6177215.756C35.4539236.756 35.3211392.612954978 35.3211392.4365 35.3211392.260045022 35.4539236.117 35.6177215.117L36.9627848.117C38.1212658.117 38.8118987.81 38.8118987 1.968 38.764447 2.6441812 38.4142867 3.2531031 37.8734177 3.6L38.8453165 5.355C38.9007379 5.45336295 38.9025117 5.57630542 38.8499546 5.67647631 38.7973975 5.77664721 38.698709 5.83841885 38.5918987 5.838L38.5974684 5.85zM33.1865823 4.296L30.5577215 4.296C30.3939236 4.296 30.2611392 4.15295498 30.2611392 3.9765 30.2611392 3.80004502 30.3939236 3.657 30.5577215 3.657L33.1865823 3.657C33.3503801 3.657 33.4831646 3.80004502 33.4831646 3.9765 33.4831646 4.15295498 33.3503801 4.296 33.1865823 4.296zM1.97164557 3.15C1.93845224 3.14989022 1.90550922 3.14380646 1.87417722 3.132L1.72379747 3.078C1.16683544 2.88.353670886 2.583.297974684 1.689.259948269 1.27481862.388735547.862971283.65164557.558.999778267.201644544 1.47012144.0178886403 1.94936709.051 2.52821371.0477470528 3.0802794.313405599 3.4643038.78 3.56504333.91834733 3.54260089 1.11847604 3.41417721 1.227 3.28575353 1.33552395 3.09998004 1.31134733 2.99924051 1.173 2.72759489.860591682 2.34669863.685358277 1.94936709.69 1.6356403.658724092 1.32369954.767125794 1.08607595.99.934823143 1.16761867.863558702 1.40780297.891139241 1.647.918987342 2.079 1.35063291 2.271 1.91316456 2.472L2.06911392 2.529C2.20939044 2.57692083 2.29547718 2.72882593 2.27094316 2.88513952 2.24640914 3.0414531 2.11874897 3.15442472 1.97164557 3.15zM8.37670886 5.85C8.27883557 5.85061131 8.18704483 5.79892212 8.13164557 5.712L6.19341772 2.7C6.13223034 2.60568188 6.12239966 2.48336285 6.16762881 2.37911929 6.21285797 2.27487574 6.30627557 2.20454473 6.4126921 2.19461929 6.51910864 2.18469385 6.62235692 2.23668188 6.6835443 2.331L8.63291139 5.349C8.69641827 5.44622461 8.70428083 5.57349071 8.65329428 5.67892419 8.60230773 5.78435767 8.50098782 5.85034905 8.39063291 5.85L8.37670886 5.85zM5.19088608 5.85C5.02785721 5.85 4.8956962 5.70762655 4.8956962 5.532L4.8956962 3.732C4.8956962 3.55554502 5.02848061 3.4125 5.19227848 3.4125 5.35607635 3.4125 5.48886076 3.55554502 5.48886076 3.732L5.48886076 5.532C5.48886427 5.61686121 5.45738201 5.69820374 5.4014194 5.7579273 5.34545679 5.81765086 5.26965669 5.85080058 5.19088608 5.85zM12.2531646 5.85C12.0956134 5.84038785 11.9729424 5.69898716 11.9746835 5.529L11.9746835.42C11.9746835.243545022 12.107468.1005 12.2712658.1005 12.4350637.1005 12.5678481.243545022 12.5678481.42L12.5678481 5.52C12.5711965 5.61017094 12.538824 5.6976281 12.4787982 5.76057544 12.4187725 5.82352277 12.3367472 5.85603157 12.2531646 5.85zM19.2681013 5.85L16.5055696 5.85C16.3417718 5.85 16.2089873 5.70695498 16.2089873 5.5305 16.2089873 5.35404502 16.3417718 5.211 16.5055696 5.211L19.2681013 5.211C19.4318991 5.211 19.5646835 5.35404502 19.5646835 5.5305 19.5646835 5.70695498 19.4318991 5.85 19.2681013 5.85zM28.1265823 5.85C28.0482931 5.85 27.9732104 5.81649652 27.9178515 5.75685996 27.8624927 5.69722339 27.8313924 5.61633884 27.8313924 5.532L27.8313924.42C27.8313924.243545022 27.9641768.1005 28.1279747.1005 28.2917726.1005 28.424557.243545022 28.424557.42L28.424557 5.52C28.4276081 5.60692151 28.3974743 5.6913954 28.3411741 5.75374648 28.284874 5.81609756 28.2073224 5.85088272 28.1265823 5.85z"/>
    <path d="M28.1265823 3.315L26.6422785 3.315C26.4784806 3.315 26.3456962 3.17195498 26.3456962 2.9955 26.3456962 2.81904502 26.4784806 2.676 26.6422785 2.676L28.1265823 2.676C28.2903801 2.676 28.4231646 2.81904502 28.4231646 2.9955 28.4231646 3.17195498 28.2903801 3.315 28.1265823 3.315zM29.9255696 5.85C29.8248967 5.85275368 29.7298666 5.8000284 29.6734859 5.71013711 29.6171052 5.62024582 29.607154 5.50559273 29.6470886 5.406L31.6326582.306C31.6957166.140314584 31.8715156.0610689922 32.0253165.129000014 32.1791173.196931036 32.2526786.386314577 32.1896203.552L30.2040506 5.652C30.1580729 5.77360777 30.0474405 5.85226745 29.9255696 5.85zM43.5098734 5.85L40.5997468 5.85C40.436718 5.85 40.304557 5.70762655 40.304557 5.532L40.304557 2.976C40.304557 2.79954502 40.4373414 2.6565 40.6011392 2.6565 40.7649371 2.6565 40.8977215 2.79954502 40.8977215 2.976L40.8977215 5.211 43.5126582 5.211C43.6764561 5.211 43.8092405 5.35404502 43.8092405 5.5305 43.8092405 5.70695498 43.6764561 5.85 43.5126582 5.85L43.5098734 5.85zM1.97443038 5.856L1.92151899 5.856C1.28337212 5.85816703.674999513 5.56542919.250632911 5.052.149893381 4.91116739.174206021 4.70902396.304936713 4.60050001.435667405 4.49197605.623311097 4.51816739.724050633 4.659 1.03535155 5.02139985 1.47434225 5.22516639 1.93265823 5.22 2.31858675 5.25884906 2.7018214 5.12050677 2.98810127 4.839 3.14061173 4.64137117 3.20110627 4.37959014 3.15240506 4.128 3.07721519 3.579 2.44506329 3.345 1.93544304 3.156L1.87696203 3.135C1.73330104 3.07028393 1.66100994 2.89648268 1.71179447 2.73790648 1.76257901 2.57933028 1.91897181 2.49052147 2.06911392 2.535L2.12759494 2.556C2.71797468 2.775 3.61189873 3.105 3.73721519 4.041 3.81163898 4.47788675 3.69908359 4.92762459 3.43088608 5.265 3.04645436 5.67774721 2.51610186 5.89295344 1.97443038 5.856zM22.1893671 3.15C22.1561738 3.14989022 22.1232307 3.14380646 22.0918987 3.132L21.941519 3.078C21.384557 2.88 20.5713924 2.583 20.5156962 1.689 20.4761042 1.2742614 20.603915.861200025 20.8665823.555 21.2156926.196417163 21.6886407.0124331783 22.1698734.048 22.7443038.0498107803 23.2905853.316216315 23.6708861.78 23.7716256.91834733 23.7491832 1.11847605 23.6207595 1.227 23.4923358 1.33552395 23.3065623 1.31134733 23.2058228 1.173 22.9354936.862135256 22.5569187.687040901 22.161519.69 21.8476095.6569189 21.5350205.7655459 21.2982278.99 21.1505494 1.16720477 21.0814668 1.40469454 21.1088608 1.641 21.1367089 2.073 21.5683544 2.265 22.1308861 2.466L22.2868354 2.523C22.427112 2.57092083 22.5131987 2.72282593 22.4886647 2.87913952 22.4641307 3.0354531 22.3364705 3.14842472 22.1893671 3.144L22.1893671 3.15zM15.0379747 5.85L12.2531646 5.85C12.0893667 5.85 11.9565823 5.70695498 11.9565823 5.5305 11.9565823 5.35404502 12.0893667 5.211 12.2531646 5.211L15.0379747 5.211C15.2017726 5.211 15.334557 5.35404502 15.334557 5.5305 15.334557 5.70695498 15.2017726 5.85 15.0379747 5.85zM10.1255696 5.85C9.96254075 5.85 9.83037975 5.70762655 9.83037975 5.532L9.83037975 1.932C9.83037975 1.75554502 9.96316416 1.6125 10.126962 1.6125 10.2907599 1.6125 10.4235443 1.75554502 10.4235443 1.932L10.4235443 5.532C10.4235478 5.61686121 10.3920656 5.69820374 10.3361029 5.7579273 10.2801403 5.81765086 10.2043402 5.85080058 10.1255696 5.85zM16.5055696 5.85C16.3425408 5.85 16.2103797 5.70762655 16.2103797 5.532L16.2103797.42C16.2103797.243545022 16.3431642.1005 16.506962.1005 16.6707599.1005 16.8035443.243545022 16.8035443.42L16.8035443 5.52C16.8065954 5.60692151 16.7764616 5.6913954 16.7201615 5.75374648 16.6638613 5.81609756 16.5863098 5.85088272 16.5055696 5.85zM25.1524051 5.85C24.9893762 5.85 24.8572152 5.70762655 24.8572152 5.532L24.8572152.42C24.8572152.243545022 24.9899996.1005 25.1537975.1005 25.3175953.1005 25.4503797.243545022 25.4503797.42L25.4503797 5.52C25.4534309 5.60692151 25.4232971 5.6913954 25.3669969 5.75374648 25.3106968 5.81609756 25.2331452 5.85088272 25.1524051 5.85z"/>
    <path d="M26.6422785 3.315L25.1524051 3.315C24.9886072 3.315 24.8558228 3.17195498 24.8558228 2.9955 24.8558228 2.81904502 24.9886072 2.676 25.1524051 2.676L26.6394937 2.676C26.8032915 2.676 26.9360759 2.81904502 26.9360759 2.9955 26.9360759 3.17195498 26.8032915 3.315 26.6394937 3.315L26.6422785 3.315zM33.8967089 5.85C33.7755215 5.85275993 33.6650856 5.77542969 33.6182278 5.655L31.6326582.555C31.5918666.447820322 31.6072518.325338544 31.6730184.233692369 31.7387849.142046194 31.8449413.0951588571 31.9514994.110692365 32.0580575.126225874 32.1488287.201820318 32.1896203.309L34.1751899 5.409C34.2135623 5.50862874 34.202921 5.62235834 34.1468641 5.7117334 34.0908072 5.80110847 33.99683 5.8541789 33.8967089 5.853L33.8967089 5.85zM35.6037975 5.85C35.4407686 5.85 35.3086076 5.70762655 35.3086076 5.532L35.3086076.42C35.3086076.243545022 35.441392.1005 35.6051899.1005 35.7689877.1005 35.9017722.243545022 35.9017722.42L35.9017722 5.52C35.9048233 5.60692151 35.8746895 5.6913954 35.8183893 5.75374648 35.7620892 5.81609756 35.6845376 5.85088272 35.6037975 5.85z"/>
    <path d="M37.4724051 3.822L35.756962 3.822C35.5931642 3.822 35.4603797 3.67895498 35.4603797 3.5025 35.4603797 3.32604502 35.5931642 3.183 35.756962 3.183L37.4724051 3.183C37.6362029 3.183 37.7689873 3.32604502 37.7689873 3.5025 37.7689873 3.67895498 37.6362029 3.822 37.4724051 3.822zM43.0921519 3.3L40.5997468 3.3C40.436718 3.3 40.304557 3.15762655 40.304557 2.982L40.304557.42C40.304557.24437345 40.436718.102 40.5997468.102L43.5098734.102C43.6736713.102 43.8064557.245045022 43.8064557.4215 43.8064557.597954978 43.6736713.741 43.5098734.741L40.8949367.741 40.8949367 2.658 43.0893671 2.658C43.253165 2.658 43.3859494 2.80104502 43.3859494 2.9775 43.3859494 3.15395498 43.253165 3.297 43.0893671 3.297L43.0921519 3.3zM5.19088608 4.038C5.02785721 4.038 4.8956962 3.89562655 4.8956962 3.72L4.8956962.42C4.8956962.243545022 5.02848061.1005 5.19227848.1005 5.35607635.1005 5.48886076.243545022 5.48886076.42L5.48886076 2.937 7.99518987.195C8.06931118.113543441 8.17814151.0808733359 8.28068553.109296199 8.38322955.137719061 8.46390839.222916782 8.4923311.332796203 8.52075382.442675624 8.49260232.560543446 8.41848101.642L5.4164557 3.942C5.35750444 4.00733459 5.27537033 4.04228998 5.19088608 4.038z"/>
  </g>
</svg>
