<svg xmlns="http://www.w3.org/2000/svg" width="40" height="10" viewBox="0 0 40 10">
  <g fill="none">
    <polygon fill="#4A77DA" points=".841 .911 9.226 1.704 8.384 9.612 0 8.819"/>
    <polygon fill="#4A77DA" points="19.69 .485 28.069 1.329 27.174 9.231 18.794 8.387"/>
    <polygon fill="#FFBA00" points="24.136 .078 32.562 .078 32.562 8.025 24.136 8.025"/>
    <polygon fill="#53BC0E" points="11.733 1.49 20.159 1.49 20.159 9.437 11.733 9.437"/>
    <polygon fill="#53BC0E" points="30.816 2.083 39.205 1.335 39.997 9.247 31.608 9.995"/>
    <polygon fill="#FFBA00" points="6.732 .58 15.136 0 15.752 7.926 7.348 8.506"/>
    <path fill="#FFF" d="M5.71375073,4.75493274 C5.57909109,4.56494768 5.34347572,4.41479821 5.00690462,4.3044843 C4.84793871,4.25265855 4.68611852,4.20924475 4.52217671,4.17443946 C4.37035303,4.14289985 4.21197581,4.11038864 4.04704506,4.07690583 C3.79551395,4.02578475 3.62855471,3.96913303 3.54616735,3.90695067 C3.46377999,3.84476831 3.43343086,3.75568012 3.45511995,3.6396861 C3.47151444,3.55945523 3.51602319,3.48699507 3.5812756,3.43430493 C3.64927258,3.3751185 3.72881686,3.32939837 3.8153306,3.29977578 C3.91213127,3.26472644 4.0128085,3.24042719 4.11538912,3.22735426 C4.2157972,3.21460015 4.31696941,3.20815886 4.41825629,3.20807175 C4.69474229,3.20666938 4.96901974,3.25527828 5.22668227,3.35134529 C5.48133411,3.44686099 5.68940901,3.56554559 5.85090696,3.7073991 L5.97940316,3.7073991 L6.16898771,2.69394619 C5.93096538,2.599269 5.68333771,2.52848702 5.43007607,2.48273543 C5.13578958,2.42631692 4.83634064,2.39829943 4.53622001,2.39910314 C3.9242442,2.39910314 3.39933684,2.52862481 2.96149795,2.78766816 C2.52365906,3.04671151 2.26619856,3.38101644 2.18911644,3.79058296 C2.13200702,4.09596413 2.17039204,4.35149477 2.3042715,4.55717489 C2.43815097,4.76285501 2.69038424,4.92541106 3.06097133,5.04484305 C3.23254487,5.10059751 3.40806719,5.14450659 3.58619075,5.17623318 C3.77499512,5.21076233 3.95342305,5.24768311 4.12147455,5.28699552 C4.28156817,5.3245142 4.39859567,5.37817638 4.47255705,5.44798206 C4.54398925,5.5114755 4.57558842,5.60611405 4.55588063,5.69753363 C4.53637605,5.80216741 4.4919056,5.8809417 4.42246928,5.9338565 C4.3462605,5.99059256 4.26119028,6.03546335 4.17039204,6.06681614 C4.07240446,6.09798326 3.97088915,6.11785428 3.86799298,6.12600897 C3.74675249,6.13781764 3.64961966,6.14372197 3.5765945,6.14372197 C3.28296255,6.14206011 2.99191156,6.0910629 2.71667642,5.99304933 C2.43790708,5.89862051 2.18155002,5.7519739 1.9625512,5.56165919 L1.83101229,5.56165919 L1.63370392,6.61547085 C1.879189,6.71888832 2.13384213,6.80105456 2.39461673,6.86098655 C2.66986542,6.92496263 3.00066316,6.95695067 3.38700995,6.95695067 C4.055315,6.95695067 4.60924517,6.82152466 5.04880047,6.55067265 C5.48835576,6.27982063 5.748937,5.92772795 5.83054418,5.49439462 C5.88734153,5.19155456 5.84841038,4.94506726 5.71375073,4.75493274 Z M11.0141603,3.0029148 C10.6627657,2.59230194 10.1132826,2.38699552 9.36571094,2.38699552 C8.61813926,2.38699552 7.99188609,2.59230194 7.48695143,3.0029148 C6.98420129,3.41352765 6.66674469,3.97242152 6.53458163,4.67959641 C6.40351083,5.38079223 6.51273649,5.93766816 6.86225863,6.35022422 C7.21178077,6.76278027 7.76110786,6.9690583 8.51023991,6.9690583 C9.26202458,6.9690583 9.88952604,6.76278027 10.3927443,6.35022422 C10.8959626,5.93766816 11.2131071,5.38079223 11.3441779,4.67959641 C11.4763409,3.972571 11.3671153,3.41367713 11.0165009,3.0029148 L11.0141603,3.0029148 Z M9.12486834,6.05381166 C8.97926319,6.10942851 8.82404234,6.13833092 8.66729081,6.13901345 C8.52071431,6.14057966 8.37545422,6.1123822 8.24107665,6.05627803 C8.11158332,6.00133393 8.00109413,5.91221016 7.92252779,5.79932735 C7.83982836,5.68318386 7.78388921,5.53303438 7.75471036,5.34887892 C7.7255315,5.16472347 7.73536181,4.9416293 7.78420129,4.67959641 C7.82474917,4.44533412 7.90051167,4.21793495 8.00912815,4.0044843 C8.11117613,3.81016442 8.2246928,3.65799701 8.34967817,3.54798206 C8.47075789,3.4381201 8.61296804,3.35184263 8.76840257,3.29394619 C8.91065556,3.24308252 9.06126808,3.21703605 9.21310708,3.21704036 C9.35699972,3.21580754 9.49961535,3.2429789 9.63206554,3.29686099 C9.76235462,3.35115661 9.8734702,3.44039224 9.95201872,3.55381166 C10.0350302,3.66801196 10.0915935,3.81748879 10.1217086,4.00224215 C10.1518237,4.18699552 10.1422274,4.41121076 10.0929198,4.67488789 C10.0547779,4.89682997 9.9859866,5.11292547 9.88835576,5.31748879 C9.80207884,5.49395175 9.68402774,5.65447627 9.53961381,5.79170404 C9.42129396,5.90504609 9.28019957,5.99421382 9.12486834,6.05381166 Z M15.7252194,4.75336323 C15.5905598,4.56337818 15.3549444,4.4132287 15.0183733,4.3029148 C14.8594074,4.25108905 14.6975872,4.20767525 14.5336454,4.17286996 C14.3818217,4.14133034 14.2234445,4.10881913 14.0585138,4.07533632 C13.8069826,4.02421525 13.6400234,3.96756353 13.557636,3.90538117 C13.4752487,3.8431988 13.4448996,3.75411061 13.4665886,3.63811659 C13.4829831,3.55788572 13.5274919,3.48542556 13.5927443,3.43273543 C13.6607413,3.37354899 13.7402856,3.32782886 13.8267993,3.29820628 C13.9236006,3.26315882 14.0242776,3.23885962 14.1268578,3.22578475 C14.227266,3.21303128 14.3284381,3.20659 14.429725,3.20650224 C14.7060537,3.20515633 14.9801669,3.25376427 15.2376829,3.34977578 C15.4923347,3.44529148 15.7004096,3.56397608 15.8619075,3.7058296 L15.9904037,3.7058296 L16.1799883,2.69237668 C15.941966,2.59769949 15.6943383,2.52691751 15.4410767,2.48116592 C15.1468883,2.42530262 14.8475981,2.39781111 14.5476887,2.39910314 C13.9354008,2.39910314 13.4108055,2.5284006 12.9739029,2.78699552 C12.5370002,3.04559043 12.2795397,3.37967115 12.2015214,3.78923767 C12.1444119,4.09461883 12.182797,4.35014948 12.3166764,4.5558296 C12.4505559,4.76150972 12.7025551,4.9245142 13.0726741,5.04484305 C13.2442476,5.10059751 13.4197699,5.14450659 13.5978935,5.17623318 C13.7866979,5.21076233 13.9651258,5.24768311 14.1331773,5.28699552 C14.2932709,5.3245142 14.4102984,5.37817638 14.4842598,5.44798206 C14.5556518,5.51149999 14.5872436,5.60611647 14.5675834,5.69753363 C14.5480788,5.80216741 14.5036083,5.8809417 14.434172,5.9338565 C14.3579633,5.99059256 14.272893,6.03546335 14.1820948,6.06681614 C14.0841072,6.09798326 13.9825919,6.11785428 13.8796957,6.12600897 C13.7584552,6.13781764 13.6613224,6.14372197 13.5882972,6.14372197 C13.2946653,6.14206011 13.0036143,6.0910629 12.7283792,5.99304933 C12.4496072,5.89862595 12.193249,5.75197873 11.9742539,5.56165919 L11.842715,5.56165919 L11.6454067,6.61547085 C11.8907408,6.71886308 12.1452362,6.80102895 12.4058514,6.86098655 C12.6811001,6.92496263 13.0118978,6.95695067 13.3982446,6.95695067 C14.0665496,6.95695067 14.6204798,6.82152466 15.0600351,6.55067265 C15.4995904,6.27982063 15.7601716,5.92772795 15.8417788,5.49439462 C15.8982641,5.19110613 15.8592549,4.94446936 15.7247513,4.7544843 L15.7252194,4.75336323 Z M21.412756,2.47713004 L20.2090111,2.47713004 L19.9080164,4.08721973 L18.131773,4.08721973 L18.4327677,2.47713004 L17.229959,2.47713004 L16.4074898,6.87757848 L17.6105325,6.87757848 L17.9728496,4.93946188 L19.749093,4.93946188 L19.3870099,6.87757848 L20.5898186,6.87757848 L21.412756,2.47713004 Z M25.1906378,2.47713004 L23.8062025,2.47713004 L21.25945,6.87757848 L22.4718549,6.87757848 L22.9607958,5.98834081 L24.6899941,5.98834081 L24.8463429,6.87757848 L26.0898771,6.87757848 L25.1906378,2.47713004 Z M23.404096,5.18026906 L24.272206,3.60269058 L24.5504974,5.18026906 L23.4036279,5.18026906 L23.404096,5.18026906 Z M29.4108836,6.92914798 C29.5613784,6.9047851 29.7105028,6.87320581 29.8576946,6.83452915 C29.9785749,6.80370424 30.0975135,6.76627377 30.2139263,6.72242152 C30.3286132,6.67907324 30.4489955,6.63281016 30.5750731,6.58363229 L30.7716793,5.53183857 L30.6450556,5.53183857 C30.5796762,5.57907324 30.4971328,5.63520179 30.3974254,5.70022422 C30.2946112,5.76687118 30.1880318,5.82802566 30.0781744,5.88340807 C29.9426144,5.95475845 29.7990908,6.01124358 29.6503218,6.05179372 C29.5058422,6.09228981 29.3561525,6.11319554 29.2056173,6.11390135 C29.0525334,6.11378185 28.9004452,6.09031938 28.7550614,6.04439462 C28.6090442,5.9994493 28.4773572,5.91966951 28.3723815,5.81255605 C28.2667447,5.70627803 28.1900527,5.56053812 28.1423054,5.37533632 C28.0945582,5.19013453 28.0963526,4.96038864 28.1476887,4.68609865 C28.1969963,4.42212257 28.2770431,4.19790732 28.3878291,4.01345291 C28.485667,3.84344914 28.6153969,3.69218966 28.7705091,3.56726457 C28.9099116,3.45668012 29.0692803,3.37149259 29.2407256,3.31591928 C29.4010305,3.26592819 29.5685711,3.2405029 29.7371562,3.24058296 C29.8790706,3.23890388 30.0202066,3.26090655 30.1542422,3.30560538 C30.2743606,3.34638979 30.3893658,3.39985812 30.4971328,3.46502242 C30.5907414,3.52269514 30.6797691,3.58692114 30.7634874,3.65717489 C30.8402575,3.72219731 30.9039204,3.77825112 30.953072,3.82556054 L31.0897601,3.82556054 L31.289175,2.75896861 C31.2111566,2.7196562 31.1194851,2.67683109 31.0141603,2.63049327 C30.8984052,2.58048027 30.7790405,2.53851822 30.6569924,2.50493274 C30.5185047,2.46931982 30.3777858,2.44220942 30.2356934,2.42376682 C30.0615744,2.40186384 29.8860824,2.39152526 29.710474,2.39282511 C29.3662423,2.39107917 29.0241696,2.44497437 28.6986542,2.55224215 C28.3919493,2.65135621 28.1074008,2.8047619 27.8598011,3.0044843 C27.6089495,3.20972209 27.399243,3.45703612 27.2409596,3.73430493 C27.0728701,4.03022164 26.9568614,4.35066258 26.8976009,4.68273543 C26.8276965,5.0564275 26.8239516,5.38632287 26.8863663,5.67242152 C26.948781,5.95852018 27.0676809,6.19686099 27.2430661,6.38744395 C27.4181393,6.57847534 27.6434562,6.72227205 27.919017,6.81883408 C28.1945777,6.91539611 28.5055588,6.96367713 28.8519602,6.96367713 C29.0385662,6.9665455 29.2251228,6.95552581 29.4099473,6.93071749 L29.4108836,6.92914798 Z M34.9366881,6.02511211 L32.7599766,6.02511211 L32.9631363,4.93789238 L34.9837332,4.93789238 L35.1426565,4.08699552 L33.1222937,4.08699552 L33.2641311,3.32780269 L35.4408426,3.32780269 L35.6,2.47690583 L32.225395,2.47690583 L31.4029257,6.87600897 L34.7765945,6.87600897 L34.9366881,6.02511211 Z"/>
  </g>
</svg>
