<svg xmlns="http://www.w3.org/2000/svg" width="42" height="12" viewBox="0 0 42 12">
  <path fill="#4C80F1" fill-rule="evenodd" d="M11.9902462,0.283854545 C11.2576575,0.302010588 10.5502852,0.55850916 9.97273846,1.01541818 L9.92686154,0.474763636 L7.93929231,0.474763636 L7.93929231,11.7820364 L9.97230769,11.7820364 L9.97230769,7.87047273 C10.5449507,8.33834352 11.2543081,8.60116195 11.9898154,8.61796364 C14.1186769,8.61796364 15.5800615,6.90021818 15.5800615,4.45069091 C15.5800615,2.00116364 14.1186769,0.283418182 11.9898154,0.283418182 M11.5609846,6.86770909 C10.9583857,6.85340383 10.3864171,6.59575451 9.97230769,6.15207273 L9.97230769,2.74930909 C10.3864171,2.30562731 10.9583857,2.04797799 11.5609846,2.03367273 C12.7046769,2.03367273 13.4994462,3.01963636 13.4994462,4.45090909 C13.4994462,5.88218182 12.7051077,6.86836364 11.5609846,6.86836364 M20.6902769,0.222545455 C18.2693538,0.222545455 16.5548923,1.97236364 16.5548923,4.46749091 C16.5548923,6.94625455 18.27,8.71221818 20.6902769,8.71221818 C23.1105538,8.71221818 24.8101538,6.94625455 24.8101538,4.46749091 C24.8101538,1.97236364 23.1109846,0.222545455 20.6902769,0.222545455 M20.6902769,6.97876364 C19.488,6.97876364 18.6542462,5.95810909 18.6542462,4.46749091 C18.6542462,2.97687273 19.488,1.95621818 20.6902769,1.95621818 C21.8766154,1.95621818 22.7101538,2.97687273 22.7101538,4.46749091 C22.7101538,5.95810909 21.8766154,6.97876364 20.6902769,6.97876364 M29.3752308,0.283854545 C27.2623077,0.283854545 25.7847692,2.0016 25.7847692,4.45112727 C25.7847692,6.90065455 27.2623077,8.6184 29.3752308,8.6184 C30.1117187,8.60691205 30.8227307,8.34348057 31.3927385,7.87090909 L31.3927385,11.7820364 L33.4419077,11.7820364 L33.4419077,0.474981818 L31.4407692,0.474981818 L31.3927385,1.01563636 C30.8177301,0.55407777 30.1087705,0.297003655 29.3752308,0.284072727 M29.82,6.86836364 C28.6603692,6.86836364 27.8660308,5.8824 27.8660308,4.45090909 C27.8660308,3.01941818 28.6603692,2.03367273 29.82,2.03367273 C30.4184585,2.0452822 30.98633,2.30374912 31.3923077,2.74930909 L31.3923077,6.15294545 C30.98633,6.59850543 30.4184585,6.85697234 29.82,6.86858182 M38.3746462,0.217309091 C37.4116352,0.242785507 36.4655623,0.479732723 35.6017846,0.911781818 L35.6017846,2.84858182 C36.3987077,2.34872727 37.4581846,1.97323636 38.1590462,1.96014545 C38.1958769,1.96014545 38.2318462,1.96014545 38.2667385,1.96014545 C39.8205231,1.96014545 39.9523385,2.61665455 39.9523385,3.18523636 L39.9523385,3.54065455 C39.9523385,3.54065455 38.4386154,3.49898182 38.0957231,3.49898182 C36.1051385,3.49898182 34.8416923,4.296 34.7303385,5.97250909 C34.6284615,7.50938182 35.7081846,8.64785455 37.5128923,8.64785455 C38.4965538,8.64785455 39.3867385,8.3832 39.9523385,7.92785455 L39.9781846,8.55905455 L42,8.55905455 L42,3.20552727 C42,1.26567273 40.9556,0.216436364 38.374,0.216436364 M38.0976615,6.92465455 C37.5111692,6.92465455 36.7306154,6.84370909 36.6884,6.09250909 C36.6420923,5.27083636 37.3765538,4.86305455 38.4556308,4.86305455 C39.6012615,4.86305455 39.9521231,4.86043636 39.9521231,4.86043636 L39.9521231,6.29432727 C39.4159303,6.69897779 38.7662796,6.91979258 38.0976615,6.92465455 M3.76061538,3.70450909 C2.90273846,3.48763636 2.21587692,3.34996364 2.21587692,2.71592727 C2.21587692,2.26494545 2.68024615,2.00749091 3.41384615,2.00749091 C4.34102584,2.03690274 5.24396376,2.31461442 6.03076923,2.81236364 L6.13630769,2.88305455 L6.13630769,0.9384 L6.104,0.918981818 C5.23710998,0.474645839 4.28148833,0.236742122 3.31003077,0.223418182 C1.2488,0.223418182 0.0183076923,1.16596364 0.0183076923,2.74494545 C0.0183076923,4.42494545 1.60633846,4.85454545 2.88292308,5.18596364 C3.76492308,5.41527273 4.51747692,5.49250909 4.4884,6.13745455 C4.4604,6.75992727 3.76190769,6.93883636 2.86526154,6.83061818 C1.874689,6.72433493 0.927008004,6.36487414 0.111138462,5.78596364 L2.84217094e-14,5.69432727 L2.84217094e-14,7.82181818 L0.028,7.84189091 C0.612338462,8.25927273 1.93329231,8.70174545 3.01732308,8.70174545 C5.45289231,8.70174545 6.70190769,7.85650909 6.70190769,6.12436364 C6.70190769,4.37432727 5.06993846,4.03636364 3.76147692,3.70538182"/>
</svg>
