<svg xmlns="http://www.w3.org/2000/svg" width="26" height="32" viewBox="0 0 26 32">
  <g fill="none">
    <polygon fill="#376DB6" points=".137 13.935 25.726 13.935 25.726 19.234 .137 19.234"/>
    <polygon fill="#4CA2DA" points=".137 7.088 25.726 7.088 25.726 12.387 .137 12.387"/>
    <path fill="#91D8F4" d="M21.7236842,0 L4.24210526,0 C1.98421053,0 0.136842105,1.89247312 0.136842105,4.23225806 L0.136842105,5.60860215 L25.7263158,5.60860215 L25.7263158,4.23225806 C25.7263158,1.89247312 23.9473684,0 21.7236842,0 Z"/>
    <path fill="#1E5397" d="M0.136842105,20.7483871 L0.136842105,22.1247312 C0.136842105,24.4645161 1.98421053,26.3569892 4.24210526,26.3569892 L15.1894737,26.3569892 L15.1894737,31.9655914 L20.5947368,26.3569892 L21.7921053,26.3569892 C24.05,26.3569892 25.8973684,24.4645161 25.8973684,22.1247312 L25.8973684,20.7483871 L0.136842105,20.7483871 Z"/>
  </g>
</svg>
