<svg xmlns="http://www.w3.org/2000/svg" width="20" height="22" viewBox="0 0 20 22">
  <path fill="#231F20" d="M15.0943639,9.6272 C16.8979066,8.8616 19.6483092,7.7 19.6483092,4.8664 C19.643346,2.18077023 17.4135864,0.00484334773 14.6615137,0 L5.1568438,0 C4.6457873,0.000235754729 4.13782697,0.0774100939 3.65088567,0.2288 L3.53365539,0.264 L3.43446055,0.264 C1.68962093,0.88842474 0.445364544,2.40789117 0.206119163,4.2064 C0.159825647,4.52104978 0.144726273,4.83932214 0.161030596,5.1568 L0.161030596,5.28 C0.241588246,6.20185476 0.592190453,7.08163734 1.17101449,7.8144 L4.66988728,12.3728 C2.61384863,13.2528 0.161030596,14.388 0.161030596,17.1336 C0.165993769,19.8192298 2.39575342,21.9951567 5.14782609,22 L14.652496,22 C15.6695947,21.9989221 16.661579,21.6916094 17.4930757,21.12 L17.610306,21.0408 L17.7004831,20.9704 L17.7545894,20.9264 C19.824226,19.2653464 20.1823213,16.3066712 18.5661836,14.2208 L15.0943639,9.6272 Z M14.6615137,1.6632 C16.4723034,1.6680347 17.939007,3.09932796 17.9439614,4.8664 C17.9439614,6.3712 16.7806763,7.1192 14.336876,8.1312 L14.0302738,8.2632 L9.12463768,1.936 L8.89017713,1.6632 L14.6615137,1.6632 Z M2.5236715,6.8112 C2.13904823,6.31394436 1.91320682,5.71705762 1.87439614,5.0952 L1.87439614,4.8664 C1.8760601,3.53181399 2.72323235,2.33727496 4.00257649,1.8656 L4.0747182,1.8656 C5.41284727,1.41450052 6.89674178,1.84644288 7.76296296,2.9392 L12.4431562,8.9672 L6.29307568,11.6688 L2.5236715,6.8112 Z M5.14782609,20.3368 C3.33352258,20.3319493 1.86537161,18.8953077 1.86537842,17.1248 C1.86537842,15.532 3.30821256,14.784 5.47246377,13.8336 L5.72495974,13.7192 L10.6396135,20.0552 L10.8740741,20.328 L5.14782609,20.3368 Z M17.9078905,17.6 C17.8218912,18.2929177 17.5050664,18.9390948 17.0061192,19.4392 L16.7626409,19.6504 L16.6544283,19.7296 C15.205932,20.7730484 13.1677478,20.4911462 12.07343,19.096 L7.37520129,13.024 L13.5252818,10.3224 L17.294686,15.1888 C17.8250551,15.8784279 18.0463032,16.7484042 17.9078905,17.6 Z"/>
</svg>
