<?xml version="1.0" encoding="UTF-8"?>
<svg width="50px" height="50px" viewBox="0 0 50 50" version="1.1" xmlns="http://www.w3.org/2000/svg" xmlns:xlink="http://www.w3.org/1999/xlink">
    <!-- Generator: Sketch 50.2 (55047) - http://www.bohemiancoding.com/sketch -->
    <title>Starbucks (2)</title>
    <desc>Created with Sketch.</desc>
    <defs></defs>
    <g id="Page-1" stroke="none" stroke-width="1" fill="none" fill-rule="evenodd">
        <g id="remote-list" transform="translate(-655.000000, -408.000000)">
            <g id="company-card" transform="translate(639.000000, 392.000000)">
                <g id="Starbucks-(2)" transform="translate(16.000000, 16.000000)">
                    <path d="M0.633203125,25.2022385 C0.633203125,11.6872385 11.5421875,0.730084615 25.0007812,0.730084615 C38.4582031,0.730084615 49.3675781,11.6872385 49.3675781,25.2022385 C49.3675781,38.7184154 38.4582031,49.6743923 25.0007813,49.6743923 C11.5421875,49.6743923 0.633203125,38.7180231 0.633203125,25.2022385" id="Shape" fill="#397657" fill-rule="nonzero"></path>
                    <path d="M1.3515625,25.2022385 C1.3515625,12.0858231 11.9390625,1.45232308 25.0003906,1.45232308 C38.0609375,1.45232308 48.6492188,12.0858231 48.6492188,25.2022385 C48.6492188,38.3190462 38.0609375,48.9529385 25.0003906,48.9529385 C11.9390625,48.9525462 1.3515625,38.3190462 1.3515625,25.2022385" id="Shape" fill="#FFFFFF" fill-rule="nonzero"></path>
                    <path d="M2.121875,25.2022385 C2.121875,12.5130462 12.3648437,2.22634615 25.0007812,2.22634615 C37.6359375,2.22634615 47.8789062,12.5130462 47.8789062,25.2022385 C47.8789062,37.8922154 37.6355469,48.1789154 25.0007812,48.1789154 C12.3644531,48.1789154 2.121875,37.8922154 2.121875,25.2022385" id="Shape" fill="#397657" fill-rule="nonzero"></path>
                    <path d="M10.8585938,25.1053385 C10.8585938,17.2901769 17.1664063,10.9551923 24.9472656,10.9551923 C32.728125,10.9551923 39.0355469,17.2901769 39.0355469,25.1053385 C39.0355469,32.9193231 32.728125,39.2539154 24.9472656,39.2539154 C17.1664063,39.2539154 10.8585938,32.9193231 10.8585938,25.1053385" id="Shape" fill="#FFFFFF" fill-rule="nonzero"></path>
                    <path d="M27.175,4.24947692 C27.5609375,4.59706154 27.6703125,5.05449231 27.6503906,5.56174615 C27.5414062,5.92031538 27.34375,6.2679 27.0261719,6.51701538 C27.4128906,6.80496923 27.7992187,7.10390769 27.8582031,7.62057692 C27.9675781,8.12783077 27.8183594,8.58486923 27.53125,8.96305385 C26.9277344,9.64880769 25.9671875,9.47030769 25.0953125,9.49933846 L22.7933594,9.56014615 L22.7777344,9.34986923 L22.5410156,4.10000769 L22.53125,3.98545385 C24.0460937,3.97564615 25.828125,3.58216154 27.175,4.24947692" id="Shape" fill="#FFFFFF" fill-rule="nonzero"></path>
                    <path d="M31.4632813,4.98976154 C31.0566406,6.16825385 30.5226563,7.33223077 30.234375,8.57506154 C30.2054688,8.8842 30.3882813,9.20196923 30.7398438,9.29141538 C30.9832031,9.42597692 31.3292969,9.45108462 31.5121094,9.29141538 C32.2949219,8.18785385 32.6664063,6.81516923 33.1570313,5.57665385 C33.7804688,5.79595385 34.2664063,6.10901538 34.8707031,6.33773077 C34.2261719,7.71041538 33.8300781,9.32672308 32.9386719,10.455 C32.2953125,11.0218846 31.2753906,10.8822231 30.5035156,10.6931308 C29.621875,10.3753615 28.6613281,9.80886923 28.3941406,8.81397692 C28.1867188,8.13293077 29.1273438,5.79556154 29.6417969,4.39894615 L31.4632813,4.98976154" id="Shape" fill="#FFFFFF" fill-rule="nonzero"></path>
                    <path d="M17.1933594,11.5299231 L15.8859375,12.3941769 C15.3980469,12.1360385 15.1132812,11.9618538 14.7570312,11.7978692 L13.3097656,13.0214769 C13.4585937,13.3800462 13.6484375,13.8170769 13.8066406,14.2148769 L12.5140625,15.6660231 L12.4101562,15.4373077 L10.1222656,9.97795385 L12.2117188,8.17255385 L12.3800781,8.2773 C14.0195313,9.28239231 15.7042969,10.4675538 17.3648438,11.4165462 L17.1933594,11.5299231" id="Shape" fill="#FFFFFF" fill-rule="nonzero"></path>
                    <path d="M17.5199219,11.3298462 C16.8335937,9.64880769 15.9929687,7.68530769 15.3710938,6.10862308 C16.9460938,5.47190769 19.2238281,3.90581538 20.6292969,5.36323846 C20.9855469,5.76103846 21.0351562,6.31772308 21.0449219,6.82497692 C20.9566406,7.15255385 20.8761719,7.4817 20.6589844,7.75003846 C21.1289062,8.33104615 22.0015625,8.99051538 22.6050781,9.56720769 L22.5308594,9.59231538 L20.7484375,9.98736923 C20.1144531,9.47540769 19.7554687,9.11409231 19.2039062,8.73433846 C18.9660156,8.76336923 18.8023437,8.90342308 18.5789062,9.00267692 L19.1929687,10.4153769 L17.5199219,11.3298462" id="Shape" fill="#FFFFFF" fill-rule="nonzero"></path>
                    <path d="M25.6304688,5.17414615 C25.76875,5.32243846 25.7398438,5.63157692 25.659375,5.80066154 C25.4027344,6.0996 24.9273437,6.08861538 24.53125,6.03879231 C24.5601563,5.70101538 24.4359375,5.37265385 24.4609375,5.02506923 C24.7976562,5.0745 25.3828125,4.90502308 25.6304688,5.17414615" id="Shape" fill="#397657" fill-rule="nonzero"></path>
                    <path d="M19.0949219,6.54604615 C19.1929687,6.79476923 19.1988281,7.19963077 18.9878906,7.34713846 L18.0078125,7.76455385 C17.7632813,7.31300769 17.659375,7.00347692 17.4910156,6.63627692 C17.9460937,6.46719231 18.7277344,5.78104615 19.0949219,6.54604615" id="Shape" fill="#397657" fill-rule="nonzero"></path>
                    <path d="M25.9570312,7.44129231 C26.0355469,7.79005385 25.878125,8.14783846 25.5410156,8.21766923 C25.2242187,8.26670769 24.9871094,8.23728462 24.65,8.24709231 C24.6003906,7.88852308 24.5714844,7.41147692 24.6003906,7.11293077 C25.0554687,7.17256154 25.7398437,6.92423077 25.9570312,7.44129231" id="Shape" fill="#397657" fill-rule="nonzero"></path>
                    <path d="M39.3246094,9.38125385 C39.6617187,9.79866923 39.8902344,10.3157308 40.0382812,10.8426 C39.6222656,11.067 39.3054687,11.3208231 38.9089844,11.4993231 C38.8109375,10.8826154 38.4738281,10.2561 37.8699219,9.94813846 C37.5828125,9.77866154 37.15625,9.74884615 36.8300781,9.8583 C36.3246094,10.047 35.8894531,10.4848154 35.7011719,10.9920692 C35.5328125,11.4793154 35.7207031,11.9563615 35.9988281,12.3341538 C36.384375,12.7719692 36.9003906,13.0014692 37.4828125,13.0210846 C37.2210938,13.4534077 37.078125,13.7264538 36.8300781,14.0654077 C35.8589844,13.9257462 34.9484375,13.3886769 34.3941406,12.4836231 C33.91875,11.7182308 33.8894531,10.5448385 34.3054687,9.73903846 C34.740625,8.8536 35.6027344,8.28671538 36.5324219,8.15725385 C37.6519531,8.11763077 38.6617187,8.56525385 39.3246094,9.38125385" id="Shape" fill="#FFFFFF" fill-rule="nonzero"></path>
                    <path d="M13.5984375,11.0517 C13.3316406,11.3008154 13.0339844,11.5389462 12.7078125,11.7672692 C12.4699219,11.2003846 12.2417969,10.6931308 11.9945312,10.0666154 C12.5632813,10.3706538 13.0628906,10.7229462 13.5984375,11.0517" id="Shape" fill="#397657" fill-rule="nonzero"></path>
                    <path d="M42.2964844,12.9014308 C41.8414062,13.3588615 41.2375,13.7472462 40.7511719,14.1846692 C41.5242187,14.3533615 42.3949219,14.3235462 43.1875,14.4530077 C43.5441406,14.9708538 43.7320312,15.4679077 44.0789062,16.0940308 L41.1675781,15.8857154 C40.5238281,16.8998308 39.9398437,17.9339538 39.3847656,18.9880846 C39.0386719,18.4808308 38.771875,17.8252846 38.434375,17.2584 C38.8113281,16.4922231 39.3007812,15.6817154 39.678125,14.9155385 C39.0296875,15.3188308 38.4601562,15.8406 37.8,16.2580154 L36.7714844,14.8704231 C38.1574219,13.6770231 39.6527344,12.6130846 41.1085937,11.5299231 L41.2265625,11.4871615 L42.2964844,12.9014308" id="Shape" fill="#FFFFFF" fill-rule="nonzero"></path>
                    <path d="M9.6078125,12.5338385 C9.34492188,13.0807154 8.9984375,13.4534077 8.75664062,13.9755692 L12.1429688,16.2129 C11.9644531,16.7197615 11.5785156,17.2179923 11.2511719,17.7044538 L7.77578125,15.5263615 C7.4640625,15.9390692 7.240625,16.3619769 6.92851562,16.8892385 C6.47304687,16.5863769 6.15117187,16.3870846 5.78515625,16.1242385 C6.64726562,14.6809385 7.4640625,13.3290462 8.41445312,11.8316077 L9.6078125,12.5338385" id="Shape" fill="#FFFFFF" fill-rule="nonzero"></path>
                    <path d="M19.1351562,25.8354231 C19.1390625,26.0676692 19.1203125,26.3014846 19.0640625,26.5364769 C18.5394531,27.6008077 17.6882812,28.5348923 17.55,29.7592846 C16.9460937,30.1461 16.45,30.8228308 15.5890625,30.5945077 C15.5589844,30.8228308 15.6285156,31.1700231 15.7074219,31.4289462 C15.0246094,31.3999154 14.5585937,31.9063846 13.9839844,32.1453 C13.6773437,32.0464385 13.5980469,31.6478538 13.4796875,31.3697077 C14.1523438,31.1413846 14.6375,30.4646538 15.4101562,30.4756385 C15.4996094,30.2257385 15.3601562,29.9974154 15.3207031,29.7592846 C14.3597656,29.3308846 12.8351562,31.8769615 12.7070312,29.6694462 C13.6671875,29.6098154 14.28125,28.7145692 15.2324219,28.6251231 L15.2613281,27.9087692 C14.1820312,27.7993154 13.4886719,28.9134692 12.4097656,28.8036231 L12.1714844,27.8495308 C13.4191406,27.9283846 14.1625,26.8052077 15.3507812,26.7447923 C15.5085937,26.5364769 15.5285156,26.2277308 15.5589844,25.9393846 C14.2617188,25.7699077 13.3707031,27.2128154 11.9941406,26.7746077 C11.9941406,26.7746077 11.9472656,26.1739846 11.9214844,25.8350308 L19.1351562,25.8350308" id="Shape" fill="#000000" fill-rule="nonzero"></path>
                    <path d="M20.6570312,25.8354231 C20.7007812,26.3650385 20.571875,26.8934769 20.075,27.4321154 C19.3617187,28.2763615 18.6394531,29.3406923 19.1542969,30.4756385 C19.6992187,31.7274923 21.4121094,32.7023769 20.6691406,34.2637615 C20.2636719,35.2484538 19.2925781,35.9946231 19.3324219,37.1578154 C19.0753906,37.0483615 18.8085937,36.9385154 18.5902344,36.7404 C18.5902344,35.2586538 20.6886719,34.3335923 19.6886719,32.7722077 C19.6003906,33.0801692 19.5804687,33.4979769 19.5109375,33.8463462 C19.1636719,34.7514 18.4214844,35.4767769 18.14375,36.4132154 C17.6792969,36.2331462 17.1933594,35.8553538 16.8070312,35.4575538 L17.3425781,35.1288 C17.2832031,34.9295077 17.1242188,34.7608154 16.9855469,34.5917308 C16.6382812,34.5426923 16.4109375,34.7710154 16.1242188,34.8608538 C15.8765625,34.6415538 15.6382813,34.4426538 15.4410156,34.1743154 C15.61875,33.6662769 17.0054687,34.0852615 16.3019531,33.2496462 C15.8269531,32.9514923 15.3519531,33.3791077 14.9359375,33.5784 L14.3714844,32.8620462 C14.8566406,32.5638923 15.3414062,32.1456923 15.9449219,32.2653462 C16.09375,32.5344692 16.1042969,32.9310923 16.3910156,33.0715385 C17.4109375,33.0515308 18.1339844,32.2755462 18.9160156,31.6686462 C18.3707031,30.8542154 17.9261719,29.7294692 18.4105469,28.7447769 C18.7984375,27.7577308 19.8101562,26.9272154 19.8558594,25.8362077 L20.6570312,25.8362077" id="Shape" fill="#000000" fill-rule="nonzero"></path>
                    <path d="M22.1082031,25.8354231 C22.1589844,26.2905 22.084375,26.7573462 21.7679688,27.2520462 C21.125,28.1284615 20.2832031,29.0519538 20.66875,30.2057308 C21.0351563,31.3697077 22.48125,32.0754692 22.3921875,33.4285385 C22.3824219,35.0291538 20.5300781,36.0244385 21.0550781,37.8145385 L20.134375,37.5156 C19.7683594,35.9247923 21.4515625,35.1095769 21.4710938,33.6376385 C21.7089844,31.9460077 19.5589844,31.3191 19.6878906,29.6694462 C19.6789063,28.4160231 20.7777344,27.6204231 21.2628906,26.5662923 C21.3460938,26.3097231 21.3742187,26.0676692 21.3628906,25.8354231 L22.1082031,25.8354231" id="Shape" fill="#000000" fill-rule="nonzero"></path>
                    <path d="M27.1988281,25.8354231 C27.1449219,26.2214538 27.190625,26.6223923 27.4128906,27.0437308 C28.05625,28.0672615 29.1855469,29.1523846 28.48125,30.4756385 C27.7394531,31.5682154 26.5015625,32.6333308 26.9960938,34.0546615 C27.5410156,35.2982769 28.6796875,36.4814769 28.0652344,38.0236385 L27.1449219,38.2319538 C27.8773438,36.7294154 26.7789063,35.2390385 26.1355469,33.9357923 C25.3527344,32.0660538 27.8183594,31.1696308 27.8578125,29.4603462 C27.8484375,28.3571769 26.6796875,27.7302692 26.4328125,26.7157615 C25.9273438,26.2873615 25.4023438,26.8852385 24.7980469,26.7746077 C24.3523438,26.8648385 23.6691406,26.1579 23.4023438,26.9240769 C23.0851563,28.0472538 21.6386719,28.8734538 22.2734375,30.2057308 C22.8777344,31.3897154 24.3324219,32.2547538 23.846875,33.7871077 C23.4117188,35.2182462 21.9757813,36.5815154 22.8667969,38.2319538 C22.5003906,38.1130846 21.8167969,38.3414077 21.8269531,37.7545154 C21.2625,35.7553154 23.6691406,34.5917308 22.9257813,32.5933154 C22.5796875,31.3697077 21.0046875,30.6929769 21.3515625,29.2210385 C21.6078125,28.0095923 22.9597656,27.1622077 22.7699219,25.8350308 L27.1988281,25.8350308" id="Shape" fill="#000000" fill-rule="nonzero"></path>
                    <path d="M28.6304687,25.8354231 C28.6113281,26.1755538 28.6796875,26.5137231 28.8980469,26.8346308 C29.5816406,27.9487846 30.7699219,29.1723923 30.0867188,30.6243231 C29.3144531,31.7875154 27.9675781,32.9711077 28.7195313,34.5030692 C29.2644531,35.4179308 30.1066406,36.3320077 29.8792969,37.4567538 L28.9875,37.7549077 C29.5816406,35.6568462 26.6699219,34.4226462 27.8886719,32.3245846 C28.6414063,31.2006231 29.9875,30.1461 29.2257813,28.6545462 C28.7703125,27.7306615 27.8292969,27.1833923 27.8585938,26.0288308 L27.890625,25.8358154 L28.6304687,25.8358154" id="Shape" fill="#000000" fill-rule="nonzero"></path>
                    <path d="M30.1054688,25.8354231 C30.1035156,26.1174923 30.1625,26.3999538 30.3238281,26.6851615 C30.9675781,27.8499231 32.1265625,28.9530923 31.6910156,30.4144385 C31.5710937,30.8628462 31.2160156,31.2112154 31.1265625,31.6678615 C31.8800781,32.2947692 32.5925781,33.0001385 33.5921875,33.0401538 C33.9484375,32.8118308 33.7503906,31.7973231 34.4832031,32.2645615 L35.5523437,32.8024154 C35.4742187,33.0903692 35.2355469,33.3496846 35.0183594,33.5478 C34.6125,33.3492923 34.2164062,33.1103769 33.7105469,33.1296 C33.5613281,33.2888769 33.4324219,33.4681615 33.44375,33.6964846 C33.8,33.7553308 34.1257812,33.9048 34.4234375,34.1139 C34.2851562,34.4128385 34.0171875,34.6011462 33.7695312,34.8302538 L32.9378906,34.5313154 C32.7996094,34.7306077 32.5113281,34.9397077 32.6121094,35.1582231 C32.7996094,35.2386462 33.0082031,35.3473154 33.1460937,35.4869769 C32.7796875,35.8847769 32.3148437,36.1421308 31.8683594,36.4124308 C31.4832031,35.1488077 30.2144531,34.2629769 30.3234375,32.8020231 L30.2648437,32.7423923 C29.9671875,33.0793846 30.0671875,33.6172385 30.0867187,34.0542692 C30.4433594,34.9691308 31.2949219,35.6764615 31.4238281,36.6799846 C31.275,36.9381231 30.9382812,36.9879462 30.6804687,37.0974 C30.7105469,35.2876846 27.9777344,33.9161769 29.7304687,32.0856692 C30.3148437,31.1892462 31.2949219,30.3348 30.9476562,29.1013846 C30.5914062,27.9099462 29.3296875,27.1704462 29.340625,25.8350308 L30.1054688,25.8350308" id="Shape" fill="#000000" fill-rule="nonzero"></path>
                    <path d="M38.0195312,25.8354231 C38.0292969,26.1716308 38.0601562,26.4607615 37.9292969,26.8056 C36.5726563,27.1932 35.6816406,25.7510769 34.3652344,25.9688077 L34.5132813,26.7157615 C35.73125,26.7557769 36.49375,27.9287769 37.7515625,27.8781692 C37.5730469,28.2367385 37.8308594,29.1814154 37.0390625,28.8036231 C36.2171875,28.6051154 35.6226563,27.8781692 34.7214844,27.8781692 C34.6128906,28.0782462 34.6816406,28.3571769 34.6625,28.5945231 C35.6128906,28.7439923 36.2960938,29.5501846 37.2460938,29.6992615 C37.1566406,30.0272308 37.0675781,30.3940385 36.8003906,30.5941154 C36.0273438,30.4050231 35.4238281,29.7082846 34.6011719,29.7282923 L34.4539063,30.4140462 C35.2359375,30.4340538 35.7414063,31.1304 36.4441406,31.3387154 C36.4632813,31.6282385 36.2066406,31.8863769 36.0582031,32.1449077 C35.4347656,31.9566 34.9589844,31.4191385 34.2460938,31.4591538 C34.2359375,31.1892462 34.3945313,30.8820692 34.334375,30.5941154 C33.5335938,30.8330308 32.9976563,30.0868615 32.4046875,29.6384538 C32.3875,28.1720077 30.8503906,27.2088923 30.7691406,25.8350308 L38.0195312,25.8350308" id="Shape" fill="#000000" fill-rule="nonzero"></path>
                    <path d="M11.921875,25.8354231 C11.9125,25.7028231 11.9050781,25.6110231 11.9050781,25.6110231 C13.1332031,26.0892462 14.2117187,25.2038077 15.2617188,24.7467692 C15.5289062,24.6663462 15.9445313,24.8060077 16.0644531,24.5078538 C16.0539063,24.2791385 16.4699219,24.0104077 16.1238281,23.8511308 C14.5882813,23.6420308 13.56875,25.5023538 11.9945313,24.6569308 L11.875,24.4180154 C12.2023438,19.9233462 14.7273437,15.5773615 18.915625,13.4388923 C22.6589844,11.2902231 28.4027344,11.4699 31.9277344,13.9759615 C33.8,15.1293462 35.5917969,17.0292923 36.5632813,18.9590538 C37.4929687,20.6495077 37.9195313,22.5482769 38.0472656,24.5674846 C36.4230469,25.8005077 35.3339844,23.4046846 33.6796875,23.9409692 C33.7691406,24.1998923 33.81875,24.4682308 34.0078125,24.6871385 C35.4738281,24.6769385 36.4832031,26.2187077 38.0179688,25.6110231 L38.0191406,25.8354231 L30.76875,25.8354231 C30.753125,25.5612 30.7945313,25.2693231 30.91875,24.9554769 C31.4238281,23.7820846 31.2648438,22.2595385 30.7105469,21.1653923 C30.5421875,20.8774385 30.2453125,20.6491154 29.9675781,20.4796385 C30.3742188,21.3454615 30.86875,22.3693846 30.6214844,23.4333231 C30.5929688,24.2548154 30.1113281,25.0433538 30.1058594,25.8354231 L29.3410156,25.8354231 L29.3441406,25.7310692 C29.6308594,24.3383769 30.5035156,22.8562385 29.7902344,21.3744923 C29.5917969,20.7781846 29.1472656,20.1018462 28.5429688,19.8531231 C29.44375,20.8880308 29.8,22.5780923 29.2847656,23.9711769 C29.025,24.5251154 28.6667969,25.1838 28.63125,25.8350308 L27.890625,25.8350308 C28.1972656,24.1971462 29.4382813,22.6475308 28.5714844,20.8970538 C28.34375,20.3799923 27.8886719,19.8531231 27.3835938,19.5541846 L27.353125,19.5847846 C28.3636719,20.5694769 28.6703125,22.1908846 28.1257812,23.4929538 C27.8710938,24.2567769 27.3128906,25.0162846 27.1996094,25.8350308 L22.7703125,25.8350308 C22.7550781,25.7240077 22.728125,25.6098462 22.6894531,25.4917615 C22.184375,24.0594462 21.1539063,22.6279154 21.7679688,20.9562923 C21.9367188,20.4788538 22.2738281,20.0708538 22.5699219,19.6440231 C21.5894531,20.1708923 21.0945312,21.2850462 21.1144531,22.4188154 C21.071875,23.6510538 21.9792969,24.7071462 22.1082031,25.8350308 L21.3632812,25.8350308 C21.3039062,24.6690923 20.2582031,23.7593308 20.4316406,22.4486308 C20.4902344,21.4839462 20.8167969,20.6381308 21.440625,19.9127538 C20.5796875,20.2603385 20.2234375,21.2552308 19.9855469,22.0904538 C19.5726562,23.4301846 20.5582031,24.6345692 20.6570312,25.8350308 L19.8558594,25.8350308 C19.8660156,25.5867 19.8269531,25.3250308 19.71875,25.0437462 C19.184375,23.6616462 18.9957031,21.7926923 20.015625,20.5690846 C19.4609375,20.7185538 19.134375,21.4137231 18.9460937,21.9409846 C18.3328125,23.2905231 19.1085937,24.5412 19.1351562,25.8350308 L11.921875,25.8350308" id="Shape" fill="#000000" fill-rule="nonzero"></path>
                    <path d="M25.659375,14.3035385 L27.2640625,14.3933769 L27.234375,14.5428462 L26.0460938,15.6766154 C26.2535156,16.1842615 26.4617188,16.6915154 26.6699219,17.1975923 C27.5710938,16.6715077 28.4332031,16.0147846 29.5222656,15.9445615 C29.4230469,16.5220385 28.9875,17.1289385 29.0460937,17.7048462 C29.7199219,17.5161462 30.3347656,17.0987308 31.0675781,17.1379615 C30.6113281,17.9837769 29.9476562,18.8295923 29.9078125,19.8833308 C28.9078125,19.5063231 27.8777344,19.0477154 26.759375,18.8692154 C24.3726562,18.4608231 22.0746094,18.9880846 20.1035156,19.9433538 C19.9355469,18.9390462 19.4507812,18.0634154 18.85625,17.2281923 C19.2125,17.1089308 19.6480469,17.3070462 20.0152344,17.4078692 C20.3222656,17.4965308 20.5796875,17.7052385 20.9066406,17.7656538 C20.9652344,17.1689538 20.6195312,16.5820615 20.3722656,16.0347923 C20.540625,15.9053308 20.8078125,16.0041923 20.9960937,16.065 C21.7777344,16.3627615 22.48125,16.83 23.1945312,17.2584 C23.5605469,16.83 23.6984375,16.2132923 23.8472656,15.6464077 L22.6300781,14.5428462 L22.6300781,14.4239769 L24.2339844,14.3337462 C24.5007812,13.8268846 24.6792969,13.2898154 24.946875,12.7825615 C25.2738281,13.2301846 25.3828125,13.8170769 25.659375,14.3035385" id="Shape" fill="#FFFFFF" fill-rule="nonzero"></path>
                    <path d="M26.2238281,17.5557692 L26.0761719,17.7048462 C25.3332031,17.6256 24.5511719,17.7244615 23.8472656,17.7354462 C23.7683594,17.6558077 23.6105469,17.5361538 23.7578125,17.4365077 L24.8871094,16.5706846 C25.353125,16.8405923 25.8476562,17.1881769 26.2238281,17.5557692" id="Shape" fill="#000000" fill-rule="nonzero"></path>
                    <path d="M6.40898437,17.9731846 C5.79453125,18.4514077 5.35898437,19.1477538 5.48828125,19.9429615 C5.5578125,20.0622231 5.6265625,20.2407231 5.78515625,20.2705385 C6.28007813,20.2705385 6.4484375,19.7342538 6.67578125,19.4055 C6.94335937,18.8088 7.45898437,18.1618846 8.16171875,18.0928385 C8.765625,18.0536077 9.28164062,18.2121 9.67734375,18.6895385 C10.28125,19.4160923 10.1722656,20.5894846 9.88554687,21.4353 C9.6171875,22.0618154 9.2015625,22.6973538 8.6078125,23.1057462 L7.53789062,22.4490231 C8.12226562,22.0422 8.73671875,21.3748846 8.815625,20.6291077 C8.815625,20.3607692 8.75703125,20.0025923 8.42890625,19.9723846 C7.74609375,20.1716769 7.67695312,20.9967 7.21171875,21.4643308 C6.85546875,21.8327077 6.409375,22.1104615 5.84453125,22.0308231 C5.31953125,22.0006154 4.8734375,21.6730385 4.56679687,21.2552308 C3.98242187,20.3607692 4.26953125,19.0469308 4.62617187,18.3615692 C4.84453125,17.9731846 5.10234375,17.5855846 5.45859375,17.2866462 C5.75507812,17.4565154 6.10234375,17.7154385 6.40898437,17.9731846" id="Shape" fill="#FFFFFF" fill-rule="nonzero"></path>
                    <path d="M45.2078125,18.7503462 C45.7222656,19.5851769 45.9214844,20.6887385 45.6535156,21.7036385 L44.5542969,21.6440077 C44.7035156,20.9774769 44.8121094,20.1422538 44.3464844,19.5851769 C44.2082031,19.4160923 43.9605469,19.3160538 43.7820313,19.4058923 C43.178125,20.0822308 43.8328125,21.0575077 43.45625,21.8229 C43.2773438,22.1716615 43.0101563,22.5890769 42.6238281,22.7471769 C41.9992188,22.9860923 41.2269531,22.8668308 40.7515625,22.3893923 C39.8214844,21.4145077 39.3851563,19.9025538 39.9800781,18.6299077 L41.1382813,18.6299077 C40.9402344,19.1281385 40.8027344,19.8335077 40.9902344,20.4204 C41.0886719,20.6691231 41.2078125,20.9872846 41.4957031,21.0767308 C42.4460938,21.1112538 41.8019531,19.7440615 42.0296875,19.1069538 C42.1191406,18.6299077 42.3761719,18.1328538 42.8609375,17.9135538 C43.7519531,17.4761308 44.7925781,17.9731846 45.2078125,18.7503462" id="Shape" fill="#FFFFFF" fill-rule="nonzero"></path>
                    <path d="M16.0644531,20.6291077 C17.0246094,20.2607308 18.3316406,19.6248 19.3617188,20.3011385 C19.1433594,20.6091 18.71875,20.7785769 18.4105469,21.0465231 C17.90625,21.5435769 17.2921875,22.1496923 16.9261719,22.7766 C15.6882813,22.5274846 14.6972656,23.2548231 13.6578125,23.6722385 C13.2617187,23.7510923 12.7367188,23.7911077 12.4101562,23.5227692 C13.390625,21.9009692 14.7761719,20.4094154 14.4300781,18.2713385 C14.5390625,18.0822462 14.7269531,18.2419154 14.8457031,18.3015462 C15.6089844,18.8982462 15.975,19.7240538 16.0644531,20.6291077" id="Shape" fill="#FFFFFF" fill-rule="nonzero"></path>
                    <path d="M35.6121094,18.5106462 C35.2265625,20.5392692 36.6121094,21.9719769 37.5429688,23.5231615 C36.4742187,24.2395154 35.4628906,23.1347769 34.4535156,22.8664385 C34.0078125,22.7973923 33.4835937,22.7369769 33.0566406,22.8068077 C32.44375,21.8527154 31.6214844,20.9570769 30.6210938,20.4204 C30.6800781,20.0928231 31.1355469,20.0716385 31.453125,20.0320154 C32.334375,19.9433538 33.1066406,20.3109462 33.8296875,20.6891308 C33.9683594,20.3615538 34.0277344,19.9927846 34.1261719,19.6452 C34.3648437,19.0583077 34.8308594,18.4608231 35.4347656,18.2128846 C35.5628906,18.2325 35.6519531,18.3721615 35.6121094,18.5106462" id="Shape" fill="#FFFFFF" fill-rule="nonzero"></path>
                    <path d="M27.3527344,20.3611615 C27.3832031,20.5298538 27.5511719,20.6793231 27.4421875,20.8684154 C26.8578125,20.6887385 26.1949219,20.7879923 25.6300781,21.0167077 C25.1246094,21.3945 25.2039063,22.1712692 25.3328125,22.7173615 L25.4816406,22.8374077 C25.7289063,22.7773846 25.7394531,22.4596154 25.9566406,22.3893923 C26.3234375,22.4792308 26.828125,22.6090846 27.1746094,22.3893923 C27.48125,22.3995923 27.4722656,22.8268154 27.5011719,23.0461154 C27.2835937,24.1998923 26.7984375,25.4529231 25.6300781,25.9998 C25.1445312,26.2387154 24.5203125,26.0786538 24.0550781,25.9099615 C22.9066406,25.2238154 22.2628906,23.8613308 22.3917969,22.6287 C22.48125,22.4396077 22.6199219,22.2901385 22.8382812,22.4196 C23.3023437,22.7373692 23.8074219,22.1712692 24.2339844,22.5678923 C24.7484375,22.3391769 24.4417969,21.7036385 24.4417969,21.2262 C24.0261719,20.6887385 23.3128906,20.7679846 22.6894531,20.808 C22.4117187,20.6385231 22.709375,20.3705769 22.7777344,20.1814846 C23.4515625,19.227 24.7394531,19.2073846 25.8671875,19.3462615 C26.4421875,19.4953385 27.0761719,19.7440615 27.3527344,20.3611615" id="Shape" fill="#FFFFFF" fill-rule="nonzero"></path>
                    <path d="M23.9066406,21.7330615 L23.9066406,21.8531077 C23.5703125,21.8229 23.0261719,21.4847308 22.71875,21.9123462 C22.5210938,22.0010077 22.4914063,21.7722923 22.5113281,21.6436154 C22.4714844,21.4945385 22.5609375,21.3744923 22.6898438,21.3454615 C23.1542969,21.2360077 23.6792969,21.3748846 23.9066406,21.7330615" id="Shape" fill="#FFFFFF" fill-rule="nonzero"></path>
                    <path d="M27.4421875,21.5835923 C27.4328125,21.7036385 27.4621094,21.8425154 27.3234375,21.9123462 C26.946875,21.7632692 26.421875,21.5541692 26.0457031,21.8531077 C25.8273437,21.3854769 26.4324219,21.4847308 26.6398437,21.3458538 C26.9472656,21.3348692 27.3039062,21.3258462 27.4421875,21.5835923" id="Shape" fill="#FFFFFF" fill-rule="nonzero"></path>
                    <path d="M25.540625,23.4924821 C25.3628906,23.868654 24.7882813,23.631154 24.4710938,23.699904 C24.3632813,23.6600602 24.43125,23.5420915 24.4117188,23.4627946 C24.7289063,23.2444352 25.2933594,23.215529 25.540625,23.4924821" id="Shape" fill="#000000" fill-rule="nonzero"></path>
                    <path d="M26.015625,24.3293538 C25.7792969,24.6871385 25.4222656,25.1339769 24.9472656,25.1053385 C24.4117187,25.1449615 24.2933594,24.7071462 23.9066406,24.4486154 L23.8777344,24.2685462 C24.5910156,24.3783923 25.3730469,24.2399077 26.015625,24.3293538" id="Shape" fill="#000000" fill-rule="nonzero"></path>
                    <path d="M7.5078125,28.9833 C8.1078125,28.9801615 8.68359375,29.0033077 9.303125,28.9887923 L7.92460938,30.1464923 C8.05742188,30.6337385 8.17226563,31.1939538 8.34023438,31.8475385 L6.9734375,30.8926615 C6.39882813,31.1562923 6.05273438,31.4795538 5.45898438,31.7875154 L5.93398438,30.1461 C5.4828125,29.7753692 4.97851563,29.4234692 4.55195313,29.0456769 C5.17382813,29.0295923 5.71835938,29.0547 6.31953125,29.0425385 C6.59726563,28.5207692 6.72109375,27.9228923 6.9734375,27.4011231 L7.5078125,28.9833" id="Shape" fill="#FFFFFF" fill-rule="nonzero"></path>
                    <path d="M14.5488281,36.8302385 C14.6683594,37.1181923 14.840625,37.3465154 14.9140625,37.7788385 C14.5976562,37.9789154 14.1976562,38.1429 13.8359375,38.3221846 C13.7476563,37.6654615 13.1726563,37.0287462 12.5292969,36.8592692 C11.9949219,36.7258846 11.4105469,36.9797077 11.0148438,37.4567538 C10.6875,37.8435692 10.5882813,38.4014308 10.6875,38.8886769 C10.9453125,39.5638385 11.6582031,40.0738385 12.3808594,40.0738385 L12.5886719,40.0801154 C12.3914063,40.5583385 12.2625,40.7980385 12.0546875,41.1566077 C10.8558594,41.1158077 9.64804688,40.4096538 9.20195313,39.2456769 C8.81601563,38.3017846 8.98476563,37.0781769 9.58867188,36.2919923 C10.3214844,35.3579077 11.4902344,35.0989846 12.6191406,35.3379 C13.3800781,35.5473923 14.0933594,36.1236923 14.5488281,36.8302385" id="Shape" fill="#FFFFFF" fill-rule="nonzero"></path>
                    <path d="M37.63125,36.2041154 L37.70625,36.2778692 L35.9238281,37.9443923 L36.5179687,38.6646692 C37.0226562,38.2668692 37.5679687,37.8439615 38.1074219,37.3374923 C38.3847656,37.5713077 38.6082031,37.8439615 38.8699219,38.1534923 C38.3359375,38.6646692 37.7804687,39.0130385 37.315625,39.5006769 C37.5136719,39.7497923 37.6664062,40.0322538 37.9683594,40.3311923 L39.8902344,38.7396 L40.7113281,39.5901231 C39.6222656,40.6289538 38.434375,41.6987769 37.3054688,42.5285077 L33.9480469,38.1723231 C35.0179688,37.2766846 35.91875,36.4614692 36.8597656,35.5164 C37.1472656,35.7062769 37.3554688,35.9542154 37.63125,36.2041154" id="Shape" fill="#FFFFFF" fill-rule="nonzero"></path>
                    <path d="M18.7378906,39.8737615 C19.3417969,40.6493538 19.3515625,41.8521692 18.975,42.7372154 C18.5550781,43.6375615 17.7476563,44.2099385 16.8660156,44.4084462 C15.7976563,44.5771385 14.7871094,44.2299462 14.0144531,43.4845615 C13.3316406,42.7281923 12.9550781,41.6442462 13.3011719,40.5905077 C13.6082031,39.4465385 14.7171875,38.6113154 15.8566406,38.4720462 C17.034375,38.4018231 18.1238281,38.9487 18.7378906,39.8737615" id="Shape" fill="#FFFFFF" fill-rule="nonzero"></path>
                    <path d="M17.490625,40.5901154 C17.8261719,41.3755154 17.4402344,42.1511077 16.8957031,42.7077923 C16.5496094,42.9859385 16.0960937,43.1613 15.6410156,42.9922154 C15.3542969,42.8529462 15,42.5983385 14.9207031,42.2895923 C14.7023437,41.4943846 15.0644531,40.7486077 15.6183594,40.2017308 C15.9550781,39.9228 16.440625,39.7643077 16.865625,39.9628154 C17.1234375,40.0420615 17.4105469,40.3311923 17.490625,40.5901154" id="Shape" fill="#397657" fill-rule="nonzero"></path>
                    <path d="M29.3144531,41.8521692 C28.48125,41.9726077 27.6855469,42.0722538 26.8921875,42.2017154 C26.9722656,42.5940231 26.9367188,42.8568692 26.9964844,43.1558077 C27.7394531,43.1412923 28.3882813,43.0086923 29.0816406,42.9188538 L29.284375,44.1946385 C28.6058594,44.3193923 27.8667969,44.4327692 27.1546875,44.5033846 C27.1746094,45.0796846 27.2507813,45.7854462 27.2417969,46.4221615 C26.6578125,46.512 26.0273438,46.5763385 25.4230469,46.5363231 L25.0667969,41.0969769 L25.0621094,40.9828154 C26.403125,40.8533538 27.7648437,40.6795615 29.0464844,40.4700692 C29.1015625,40.8780692 29.2253906,41.3492308 29.3144531,41.8521692" id="Shape" fill="#FFFFFF" fill-rule="nonzero"></path>
                    <path d="M33.8578125,39.4069154 L33.9078125,39.5002846 L31.7324219,40.596 L32.1007812,41.4547615 C32.7644531,41.2005462 33.3375,40.9635923 33.996875,40.6289538 C34.1980469,40.9322077 34.3359375,41.2566462 34.5015625,41.6265923 C33.9035156,41.9467154 33.284375,42.1950462 32.6324219,42.4826077 C32.7535156,42.7768385 32.8144531,42.9914308 33.0273438,43.4633769 L35.3167969,42.4771154 L35.8679688,43.5261462 C34.5320312,44.2158231 33.0929687,44.9070692 31.7765625,45.3856846 L29.7714844,40.2590077 C31.0484375,39.7011462 32.1417969,39.1719231 33.3082031,38.5312846 C33.5320312,38.7933462 33.6621094,39.0907154 33.8578125,39.4069154" id="Shape" fill="#FFFFFF" fill-rule="nonzero"></path>
                    <path d="M24.25,42.4704462 C23.4214844,42.3311769 22.6308594,42.1824923 21.8375,42.0628385 C21.7933594,42.4614231 21.68125,42.7019077 21.6480469,43.0035923 C22.3601562,43.2166154 23.0179687,43.2888 23.7054688,43.4151231 L23.5121094,44.6940462 C22.828125,44.6049923 22.0898438,44.4873 21.3890625,44.3362615 C21.2335938,44.8909846 21.09375,45.5873308 20.8925781,46.1914846 C20.3082031,46.0981154 19.6875,45.9663 19.1242188,45.7430769 L20.43125,40.4532 L20.4621094,40.3437462 C21.7792969,40.6297385 23.1285156,40.8792462 24.4132813,41.0722615 C24.3414063,41.4775154 24.3164062,41.9655462 24.25,42.4704462" id="Shape" fill="#FFFFFF" fill-rule="nonzero"></path>
                    <path d="M43.5023438,28.9915385 C44.1011719,28.9891846 44.6363281,29.0052692 45.2964844,28.9978154 L43.9191406,30.1555154 C44.053125,30.6419769 44.1667969,31.2021923 44.3339844,31.8565615 L42.9683594,30.9009 C42.3925781,31.1637462 42.046875,31.4877923 41.4527344,31.7957538 L41.928125,30.1551231 C41.4773438,29.7851769 40.971875,29.4317077 40.5476563,29.0539154 C41.1679688,29.0378308 41.7128906,29.0629385 42.3136719,29.0507769 C42.55625,28.5074308 42.7296875,27.9856615 42.9683594,27.4093615 L43.5023438,28.9915385" id="Shape" fill="#FFFFFF" fill-rule="nonzero"></path>
                    <path d="M49.7945312,25.3960385 C49.7945312,39.4147615 38.640625,50.7924692 24.8976563,50.7924692 C11.1546875,50.7924692 0,39.4147615 0,25.3960385 C0,11.3777077 11.1542969,0 24.8976562,0 C38.6410156,0 49.7945312,11.3777077 49.7945312,25.3960385 Z" id="Shape"></path>
                </g>
            </g>
        </g>
    </g>
</svg>