<svg xmlns="http://www.w3.org/2000/svg" width="24" height="26" viewBox="0 0 24 26">
  <path fill="#4360DF" fill-rule="evenodd" d="M16.45,12.387 C13.045,12.574 10.91,11.817 7.506,12.005 C6.689,12.05 5.823,12.163 5,12.354 C5.502,6.35 9.959,1.097 16.019,0.764 C19.738,0.559 23.455,2.748 23.657,6.302 C23.855,9.796 21.061,12.132 16.449,12.387 M7.503,25.44 C4.016,25.635 0.532,23.555 0.343,20.178 C0.157,16.86 2.776,14.64 7.1,14.398 C10.291,14.221 12.292,14.939 15.484,14.761 C16.2753751,14.7182529 17.0616066,14.6075114 17.834,14.43 C17.363,20.134 13.184,25.124 7.503,25.44"/>
</svg>
