<svg xmlns="http://www.w3.org/2000/svg" width="46" height="6" viewBox="0 0 46 6">
  <path fill="#2F3237" d="M1.98311111,2.6 L1.92177778,2.57777778 C1.104,2.33333333 0.715555556,2.15555556 0.715555556,1.44444444 C0.715555556,0.844444444 1.04266667,0.511111111 1.59466667,0.511111111 C1.59466667,0.511111111 2.76,0.511111111 3.08711111,1.55555556 L3.10755556,1.6 L3.47555556,1.6 L3.47555556,0 L3.10755556,0 L2.96444444,0.577777778 C2.61688889,0.222222222 2.16711111,0 1.656,0 C0.695111111,0 0.0204444444,0.666666667 0.0204444444,1.62222222 C0.0204444444,2.68888889 0.838222222,3 1.75822222,3.24444444 C2.67822222,3.48888889 3.06666667,3.68888889 3.06666667,4.42222222 C3.06666667,5.06666667 2.576,5.37777778 2.14666667,5.37777778 C1.36977778,5.37777778 0.817777778,5.04444444 0.388444444,4.35555556 L0.368,4.31111111 L0,4.31111111 L0,5.91111111 L0.368,5.91111111 L0.531555556,5.22222222 C0.981333333,5.68888889 1.472,5.91111111 2.08533333,5.91111111 C3.06666667,5.91111111 3.76177778,5.17777778 3.76177778,4.2 C3.76177778,3.11111111 2.944,2.86666667 1.98311111,2.6 Z M4.51822222,1.22222222 L4.86577778,1.22222222 L4.88622222,1.11111111 C5.00888889,0.466666667 5.02933333,0.466666667 5.43822222,0.466666667 L6.37866667,0.466666667 L6.37866667,5.42222222 L5.86755556,5.42222222 L5.86755556,5.88888889 L7.64622222,5.88888889 L7.64622222,5.42222222 L7.15555556,5.42222222 L7.15555556,0.466666667 L8.07555556,0.466666667 C8.50488889,0.466666667 8.54577778,0.466666667 8.66844444,1.11111111 L8.68888889,1.22222222 L9.03644444,1.22222222 L9.03644444,0 L4.51822222,0 L4.51822222,1.22222222 Z M12.9208889,1.22222222 L13.2684444,1.22222222 L13.2888889,1.11111111 C13.4115556,0.466666667 13.432,0.466666667 13.8408889,0.466666667 L14.7813333,0.466666667 L14.7813333,5.42222222 L14.2906667,5.42222222 L14.2906667,5.88888889 L16.0693333,5.88888889 L16.0693333,5.42222222 L15.5786667,5.42222222 L15.5786667,0.466666667 L16.4986667,0.466666667 C16.928,0.466666667 16.9688889,0.466666667 17.0915556,1.11111111 L17.112,1.22222222 L17.4595556,1.22222222 L17.4595556,0 L12.9208889,0 L12.9208889,1.22222222 Z M10.0791111,0 L10.0791111,0.466666667 L10.5902222,0.466666667 L10.5902222,5.44444444 L10.0791111,5.44444444 L10.0791111,5.91111111 L11.8577778,5.91111111 L11.8577778,5.44444444 L11.3671111,5.44444444 L11.3671111,0.466666667 L11.8577778,0.466666667 L11.8577778,0 L10.0791111,0 Z M27.0684444,0 L27.0684444,0.466666667 L27.5795556,0.466666667 L27.5795556,2.88888889 L25.0444444,2.88888889 L25.0444444,0.466666667 L25.5351111,0.466666667 L25.5351111,0 L23.7564444,0 L23.7564444,0.466666667 L24.288,0.466666667 L24.288,5.44444444 L23.7768889,5.44444444 L23.7768889,5.91111111 L25.5555556,5.91111111 L25.5555556,5.44444444 L25.0444444,5.44444444 L25.0444444,3.35555556 L27.5795556,3.35555556 L27.5795556,5.44444444 L27.0684444,5.44444444 L27.0684444,5.91111111 L28.8471111,5.91111111 L28.8471111,5.44444444 L28.3564444,5.44444444 L28.3564444,0.466666667 L28.8471111,0.466666667 L28.8471111,0 L27.0684444,0 Z M38.1084444,0 L38.1084444,0.466666667 L38.6195556,0.466666667 L38.6195556,5.44444444 L38.1084444,5.44444444 L38.1084444,5.91111111 L39.8871111,5.91111111 L39.8871111,5.44444444 L39.3964444,5.44444444 L39.3964444,0.466666667 L39.8871111,0.466666667 L39.8871111,0 L38.1084444,0 Z M44.1395556,0 L44.1395556,0.466666667 L44.5484444,0.466666667 L43.4035556,2.26666667 L42.2995556,0.466666667 L42.7084444,0.466666667 L42.7084444,0 L40.9297778,0 L40.9297778,0.466666667 L41.4408889,0.466666667 L42.9946667,2.97777778 L41.4613333,5.44444444 L40.9093333,5.44444444 L40.9093333,5.91111111 L42.688,5.91111111 L42.688,5.44444444 L42.1155556,5.44444444 L43.3013333,3.51111111 L44.4871111,5.44444444 L44.0373333,5.44444444 L44.0373333,5.91111111 L45.816,5.91111111 L45.816,5.44444444 L45.3253333,5.44444444 L43.7306667,2.8 L45.2026667,0.466666667 L45.9182222,0.466666667 L45.9182222,0 L44.1395556,0 Z M32.9973333,0.466666667 L33.5288889,0.466666667 L33.5288889,5.42222222 L32.9973333,5.42222222 L32.9973333,5.88888889 L34.776,5.88888889 L34.776,5.42222222 L34.3057778,5.42222222 L34.3057778,3.33333333 L35.1235556,3.33333333 C35.4302222,3.33333333 35.4506667,3.37777778 35.5528889,3.71111111 L35.5733333,3.75555556 L35.5733333,3.8 L35.9208889,3.8 L35.9208889,2.33333333 L35.5733333,2.33333333 L35.5733333,2.37777778 C35.5733333,2.42222222 35.5528889,2.44444444 35.5324444,2.46666667 C35.4302222,2.73333333 35.3893333,2.86666667 35.1031111,2.86666667 L34.2853333,2.86666667 L34.2853333,0.466666667 L36.1457778,0.466666667 C36.4933333,0.466666667 36.5751111,0.577777778 36.7795556,1.13333333 L36.7795556,1.17777778 L37.1884444,1.17777778 L37.1884444,0 L32.9768889,0 L32.9973333,0.466666667 Z M22.1208889,3.57777778 C21.9573333,4.73333333 21.3848889,5.37777778 20.5057778,5.37777778 C19.4631111,5.37777778 18.8293333,4.42222222 18.8293333,2.91111111 C18.8293333,1.46666667 19.4631111,0.533333333 20.4444444,0.533333333 C21.3848889,0.533333333 21.8755556,1.17777778 22.1004444,1.73333333 L22.1208889,1.77777778 L22.4888889,1.77777778 L22.4888889,0 L22.08,0 L21.9368889,0.622222222 C21.5484444,0.2 21.0577778,0 20.4648889,0 C19.0746667,0 18.0115556,1.26666667 18.0115556,2.95555556 C18.0115556,3.82222222 18.2568889,4.55555556 18.6862222,5.08888889 C19.1155556,5.62222222 19.7288889,5.88888889 20.4035556,5.88888889 C21.6302222,5.88888889 22.4071111,5.06666667 22.5706667,3.57777778 L22.5706667,3.51111111 L22.1004444,3.51111111 L22.1004444,3.57777778 L22.1208889,3.57777778 Z"/>
</svg>
