<svg xmlns="http://www.w3.org/2000/svg" width="42" height="18" viewBox="0 0 42 18">
  <g fill="#6772E5" fill-rule="evenodd">
    <path d="M42 9.288C42 6.216 40.5533333 3.792 37.7883333 3.792 35.0116667 3.792 33.3316667 6.216 33.3316667 9.264 33.3316667 12.876 35.315 14.7 38.1616667 14.7 39.55 14.7 40.6 14.376 41.3933333 13.92L41.3933333 11.52C40.6 11.928 39.69 12.18 38.535 12.18 37.4033333 12.18 36.4 11.772 36.2716667 10.356L41.9766667 10.356C41.9766667 10.2 42 9.576 42 9.288zM36.2366667 8.148C36.2366667 6.792 37.0416667 6.228 37.7766667 6.228 38.4883333 6.228 39.2466667 6.792 39.2466667 8.148L36.2366667 8.148zM28.8283333 3.792C27.685 3.792 26.95 4.344 26.5416667 4.728L26.39 3.984 23.8233333 3.984 23.8233333 17.976 26.74 17.34 26.7516667 13.944C27.1716667 14.256 27.79 14.7 28.8166667 14.7 30.905 14.7 32.8066667 12.972 32.8066667 9.168 32.795 5.688 30.87 3.792 28.8283333 3.792zM28.1283333 12.06C27.44 12.06 27.0316667 11.808 26.7516667 11.496L26.74 7.044C27.0433333 6.696 27.4633333 6.456 28.1283333 6.456 29.19 6.456 29.925 7.68 29.925 9.252 29.925 10.86 29.2016667 12.06 28.1283333 12.06z"/>
    <polygon points="19.81 3.084 22.738 2.436 22.738 0 19.81 .636"/>
    <rect width="2.928" height="10.5" x="19.81" y="3.996"/>
    <path d="M16.6716667 4.884L16.485 3.996 13.965 3.996 13.965 14.496 16.8816667 14.496 16.8816667 7.38C17.57 6.456 18.7366667 6.624 19.0983333 6.756L19.0983333 3.996C18.725 3.852 17.36 3.588 16.6716667 4.884zM10.8383333 1.392L7.99166667 2.016 7.98 11.628C7.98 13.404 9.275 14.712 11.0016667 14.712 11.9583333 14.712 12.6583333 14.532 13.0433333 14.316L13.0433333 11.88C12.67 12.036 10.8266667 12.588 10.8266667 10.812L10.8266667 6.552 13.0433333 6.552 13.0433333 3.996 10.8266667 3.996 10.8383333 1.392zM2.95166667 7.044C2.95166667 6.576 3.325 6.396 3.94333333 6.396 4.83 6.396 5.95 6.672 6.83666667 7.164L6.83666667 4.344C5.86833333 3.948 4.91166667 3.792 3.94333333 3.792 1.575 3.792 0 5.064 0 7.188 0 10.5 4.43333333 9.972 4.43333333 11.4 4.43333333 11.952 3.96666667 12.132 3.31333333 12.132 2.345 12.132 1.10833333 11.724.128333333 11.172L.128333333 14.028C1.21333333 14.508 2.31 14.712 3.31333333 14.712 5.74 14.712 7.40833333 13.476 7.40833333 11.328 7.39666667 7.752 2.95166667 8.388 2.95166667 7.044z"/>
  </g>
</svg>
