<svg xmlns="http://www.w3.org/2000/svg" width="42" height="20" viewBox="0 0 42 20">
  <g fill="none">
    <g transform="translate(6.853 2.247)">
      <path fill="#0D2C40" d="M34.2764211 16.1348315C33.9193115 16.1422418 33.635014 16.4412362 33.639849 16.8043113 33.6446841 17.1673863 33.9368393 17.4584474 34.2940153 17.4560275 34.6511913 17.4536076 34.9395046 17.1586139 34.9395789 16.7955056 34.9323563 16.4284548 34.6375554 16.134758 34.2764211 16.1348315zM34.2764211 17.3235955C33.9901118 17.3211183 33.7597557 17.0835988 33.7613767 16.7925348 33.7629978 16.5014709 33.9959848 16.2666182 34.2823033 16.2674369 34.5686217 16.2682557 34.8003054 16.504437 34.8003158 16.7955056 34.8009307 16.9369285 34.7454832 17.0726417 34.6464908 17.1720075 34.5474985 17.2713732 34.413307 17.3260144 34.2742105 17.3235955L34.2764211 17.3235955zM5.90652632 12.3438202L2.91347368 11.894382C2.39842105 11.811236 2.13757895 11.552809 2.13757895 11.1303371 2.13757895 10.7580103 2.43448485 10.4561798 2.80073684 10.4561798L7.66389474 10.4561798 7.66389474 8.62696629 2.80736842 8.62696629C2.13416293 8.60397123 1.48009365 8.85688422.992097614 9.32888821.504101575 9.8008922.22309657 10.4524103.212210526 11.1370787.212210526 12.2921348.895263158 13.4898876 2.45810526 13.7348315L5.45115789 14.1842697C5.96842105 14.2674157 6.22705263 14.5258427 6.22705263 14.9505618 6.22705263 15.3228886 5.93014673 15.6247191 5.56389474 15.6247191L2.02705263 15.6247191C1.30863158 15.6449438.552631579 16.2044944.552631579 17.3033708L.552631579 17.4674157 5.55726316 17.4674157C6.23252708 17.491058 6.88862898 17.2368278 7.37709103 16.7622582 7.86555307 16.2876887 8.14508253 15.632898 8.15242105 14.9460674 8.15242105 13.788764 7.47157895 12.5910112 5.90652632 12.3438202zM25.2862105 11.1370787L25.2862105 14.9460674C25.2970828 15.631139 25.5783918 16.2830116 26.0668725 16.7550823 26.5553532 17.227153 27.2099975 17.4797912 27.8835789 17.4561798L33.1335789 17.4561798 33.1335789 17.2921348C33.1335789 16.1955056 32.3775789 15.6359551 31.6569474 15.6134831L27.8725263 15.6134831C27.5062743 15.6134831 27.2093684 15.3116526 27.2093684 14.9393258 27.1998735 14.7288948 27.2796708 14.5244403 27.4285012 14.3778694 27.5773316 14.2312985 27.7808816 14.1567075 27.9874737 14.1730337L29.6276842 14.1730337C31.0711579 14.1730337 31.9023158 13.2741573 32.1631579 12.2382022L28.2217895 12.2382022C27.8090727 12.2341974 27.4249632 12.4520804 27.2115789 12.811236L27.2115789 11.1370787C27.2115789 10.7647519 27.5084849 10.4629213 27.8747368 10.4629213L31.6591579 10.4629213C32.3775789 10.4426966 33.1357895 9.88089888 33.1357895 8.78426966L33.1357895 8.62247191 27.8813684 8.62247191C27.2074081 8.59946952 26.5526678 8.8529926 26.0645405 9.32596892 25.5764132 9.79894525 25.2959222 10.4516248 25.2862105 11.1370787z"/>
      <path fill="#0D2C40" d="M34.5571579 16.6764045C34.5571579 16.5460674 34.4621053 16.4674157 34.3117895 16.4674157L34.0332632 16.4674157 34.0332632 17.0988764 34.1703158 17.0988764 34.1703158 16.9011236 34.2786316 16.9011236 34.4134737 17.105618 34.5748421 17.105618 34.4223158 16.8808989C34.509138 16.8536735 34.5653719 16.7683921 34.5571579 16.6764045zM34.3095789 16.7775281L34.1703158 16.7775281 34.1703158 16.5910112 34.3073684 16.5910112C34.3736842 16.5910112 34.4178947 16.6224719 34.4178947 16.6853933 34.4178947 16.7483146 34.3803158 16.7730337 34.3095789 16.7730337L34.3095789 16.7775281zM22.5385263 12.3438202L19.5454737 11.894382C19.0304211 11.811236 18.7695789 11.552809 18.7695789 11.1303371 18.7695789 10.7580103 19.0664849 10.4561798 19.4327368 10.4561798L24.2958947 10.4561798 24.2958947 8.62696629 19.4437895 8.62696629C18.770208 8.6033549 18.1155637 8.85599309 17.627083 9.32806376 17.1386023 9.80013443 16.8572933 10.4520071 16.8464211 11.1370787 16.8464211 12.2921348 17.5294737 13.4898876 19.0945263 13.7348315L22.0853684 14.1842697C22.6026316 14.2674157 22.8634737 14.5258427 22.8634737 14.9505618 22.8634737 15.3228886 22.5665678 15.6247191 22.2003158 15.6247191L17.3526316 15.6247191 17.3526316 17.4674157 22.1936842 17.4674157C22.8691555 17.4910512 23.5254818 17.2368888 24.014292 16.7623851 24.5031023 16.2878814 24.7831232 15.6331017 24.7910526 14.9460674 24.7910526 13.788764 24.108 12.5910112 22.5385263 12.3438202zM14.4148421 13.8741573C14.4388468 14.5993994 14.0719464 15.2802425 13.4578066 15.6500917 12.8436668 16.0199408 12.0800174 16.0199408 11.4658776 15.6500917 10.8517378 15.2802425 10.4848374 14.5993994 10.5088421 13.8741573L10.5088421 8.62247191 8.62768421 8.62247191 8.62768421 13.7550562C8.59426403 15.1699014 9.31765298 16.4920573 10.5176916 17.2094696 11.7177302 17.9268819 13.205954 17.9268819 14.4059926 17.2094696 15.6060312 16.4920573 16.3294202 15.1699014 16.296 13.7550562L16.296 8.62247191 14.4148421 8.62247191 14.4148421 13.8741573z"/>
      <path fill="#02D35F" d="M14.4524211,2.06966292 C14.8078063,2.08170559 15.1425157,1.90009298 15.3304674,1.59323682 C15.5184191,1.28638065 15.5310588,0.900899678 15.3636253,0.582000851 C15.1961917,0.263102024 14.8741221,0.0592336641 14.5187368,0.0471910112 C13.9725182,0.0282452816 13.5144645,0.462718934 13.4952632,1.01797753 C13.484504,1.286606 13.5794136,1.54853227 13.7590185,1.74587465 C13.9386234,1.94321704 14.1881371,2.05972891 14.4524211,2.06966292 Z M14.6734737,0.559550562 C14.9166316,0.559550562 15.1155789,0.692134831 15.1155789,0.858426966 C15.1155789,1.0247191 14.9188421,1.15730337 14.6734737,1.15730337 C14.4281053,1.15730337 14.2313684,1.02247191 14.2313684,0.858426966 C14.2313684,0.694382022 14.4413684,0.561797753 14.6823158,0.561797753 L14.6734737,0.559550562 Z"/>
    </g>
    <path fill="#02D35F" d="M23.7123158,4.69438202 C23.7476842,4.66966292 23.8781053,4.58202247 23.8471579,4.46966292 C23.7189474,4.02022472 23.2812632,2.5011236 22.9143158,2.11685393 C22.8102576,1.99076434 22.6871421,1.88229442 22.5495789,1.79550562 C21.1503158,0.966292135 17.8278947,0.465168539 17.6709474,0.447191011 C17.6615644,0.444014737 17.6512341,0.445966323 17.6436001,0.452357418 C17.6359661,0.458748513 17.6321012,0.468681051 17.6333684,0.478651685 C17.6333684,0.478651685 17.6201053,1.17977528 17.6201053,1.25842697 C17.2818947,1.14157303 14.8149474,0.33258427 12.5005263,0.249438202 C10.5397895,0.179775281 7.85842105,0.0853932584 4.08063158,2.4494382 L3.97010526,2.51910112 C2.18621053,3.64269663 0.957157895,5.04044944 0.316105263,6.65842697 C-0.0114217505,7.53136229 -0.0828334973,8.48213847 0.110526316,9.39550562 C0.23562155,9.8874891 0.44677508,10.3525767 0.733894737,10.7685393 C1.42431494,11.7479647 2.50178592,12.3711767 3.68273684,12.4741573 C5.35831579,12.6314607 6.62273684,11.8606742 7.08252632,10.4269663 C7.43197437,9.21276182 6.94533612,7.91036249 5.89105263,7.23820225 C5.10155915,6.71436112 4.08818063,6.69084883 3.276,7.17752809 C2.76761704,7.50351735 2.45957664,8.07210893 2.46031579,8.68314607 C2.46917854,9.5676732 3.16023143,10.2889879 4.02978947,10.3213483 C4.23477096,10.3226202 4.43859087,10.2899842 4.63326316,10.2247191 C4.71108907,10.2002695 4.7854114,10.1655142 4.85431579,10.1213483 L4.87863158,10.105618 L4.89410526,10.105618 C5.10677287,9.96394411 5.19066318,9.68880299 5.09409707,9.44969037 C4.99753096,9.21057775 4.74766349,9.07473378 4.49842105,9.1258427 L4.46305263,9.1258427 L4.41221053,9.14157303 L4.33926316,9.16629213 C4.24537637,9.19124038 4.14891751,9.20481775 4.05189474,9.20674157 C3.7902843,9.16754398 3.59701244,8.93847991 3.59873684,8.66966292 C3.60292235,8.55643978 3.63647698,8.4463537 3.696,8.3505618 C3.90745048,8.09312252 4.23693601,7.96837054 4.56252632,8.02247191 C5.11113686,8.05891484 5.59265518,8.40669813 5.80705263,8.92134831 C6.05807417,9.45082911 5.9930216,10.0790789 5.63905263,10.5438202 C5.28536842,11.0067416 4.65978947,11.2044944 3.82642105,11.1123596 C3.01287272,11.017048 2.29444261,10.5288126 1.89680806,9.80102051 C1.49917352,9.07322846 1.47112515,8.19518146 1.82147368,7.44269663 C2.67252632,5.80898876 4.27957895,5.82696629 5.16157895,5.98202247 C6.41494737,6.20674157 8.31378947,7.34382022 9.02778947,9.98651685 L10.7608421,9.98651685 C10.5397895,9.31235955 10.4226316,7.36179775 12.3745263,7.36179775 C14.5143158,7.36179775 14.784,8.89438202 15.3896842,9.98651685 L17.2244211,9.98651685 C16.7425263,9.28539326 16.4021053,8.50337079 16.5104211,7.84494382 C16.6695789,6.8741573 17.4277895,6.96179775 18.48,7.08089888 C18.8248421,7.12134831 19.2161053,7.16629213 19.6184211,7.1752809 C20.6124229,7.19812125 21.6006252,7.01539847 22.5230526,6.63820225 C22.8764049,6.50907878 23.2092925,6.32813974 23.5111579,6.1011236 C23.5796544,6.02950396 23.6291002,5.94134541 23.6548421,5.84494382 L23.6813684,5.7752809 C23.7123158,5.69213483 23.7521053,5.51685393 23.7786316,5.42022472 C23.8294737,5.2247191 23.6570526,5.32808989 23.6570526,5.32808989 C23.0699062,5.67540455 22.4117069,5.87998497 21.7338947,5.9258427 C20.7811579,5.94606742 18.8602105,4.9505618 18.6546316,4.84494382 L18.6347368,4.82247191 C18.5861053,4.70561798 18.2965263,4.01123596 18.2368421,3.86516854 C19.6162105,4.78876404 20.7701053,5.3011236 21.6543158,5.37977528 C22.6247368,5.46966292 23.3873684,4.9258427 23.7123158,4.69438202 Z M19.9146316,3.27191011 C19.9337715,2.68664434 20.2979756,2.17078606 20.8372911,1.9650562 C21.3766065,1.75932635 21.9847274,1.90427689 22.3778792,2.33226788 C22.771031,2.76025887 22.8717185,3.38692783 22.6329568,3.91984497 C22.394195,4.45276211 21.863047,4.78688269 21.2873684,4.76629213 C20.5037965,4.73580485 19.8909948,4.06869962 19.9146316,3.27191011 Z"/>
  </g>
</svg>
