<svg xmlns="http://www.w3.org/2000/svg" width="30" height="29" viewBox="0 0 30 29">
  <g fill="none">
    <path fill="#26235D" d="M19.125,8.25384615 C18.525,8.17948718 18,8.17948718 17.4,8.25384615 C17.1,8.25384615 16.875,8.4025641 16.725,8.7 C16.575,8.9974359 16.65,9.29487179 16.875,9.51794872 L27.675,19.8538462 C27.825,20.0025641 27.975,20.0769231 28.275,20.0769231 C28.65,20.0769231 28.8,19.8538462 28.875,19.6307692 C29.1,19.1102564 29.25,18.5897436 29.4,17.9948718 C29.475,17.6974359 29.4,17.325641 29.175,17.1025641 L29.1,17.0282051 L20.4,8.84871795 C20.025,8.47692308 19.575,8.32820513 19.125,8.25384615 Z M11.025,20.6717949 C11.625,20.7461538 12.15,20.7461538 12.75,20.6717949 C13.05,20.6717949 13.275,20.5230769 13.425,20.225641 C13.575,19.9282051 13.5,19.6307692 13.275,19.4076923 L2.475,9.14615385 C2.325,8.9974359 2.175,8.92307692 1.875,8.92307692 C1.5,8.92307692 1.35,9.14615385 1.275,9.36923077 C1.05,9.88974359 0.9,10.4102564 0.75,11.0051282 C0.675,11.3025641 0.75,11.674359 0.975,11.8974359 L1.05,11.9717949 L9.75,20.1512821 C10.125,20.4487179 10.575,20.6717949 11.025,20.6717949 Z"/>
    <path fill="#DE1B54" d="M9.525,2.15641026 L14.4,7.06410256 C15.75,8.4025641 17.775,6.32051282 16.5,4.98205128 L12.3,0.669230769 C11.775,0.0743589744 10.725,0.594871795 10.125,0.817948718 C9.525,0.966666667 9,1.56153846 9.525,2.15641026 Z M25.725,9.81538462 C27.075,11.1538462 29.1,9.07179487 27.825,7.73333333 L21.375,1.41282051 C20.7,0.743589744 19.725,0.520512821 18.9,0.297435897 C18.375,0.148717949 17.775,0 17.25,0 C16.95,0 16.725,0 16.575,0.297435897 C16.5,0.520512821 16.5,0.743589744 16.65,0.892307692 L25.725,9.81538462 Z M25.95,23.125641 L6.45,3.79230769 C5.925,3.27179487 5.25,3.71794872 4.875,4.16410256 C4.425,4.61025641 3.825,5.27948718 4.425,5.87435897 L23.925,25.2076923 C24.45,25.7282051 25.05,25.3564103 25.5,24.9102564 C25.875,24.4641026 26.55,23.7948718 25.95,23.125641 Z M20.7,26.8435897 L15.825,22.0102564 C14.475,20.6717949 12.45,22.7538462 13.725,24.0923077 L17.925,28.4051282 C18.45,29 19.5,28.4794872 20.1,28.2564103 C20.775,27.9589744 21.3,27.4384615 20.7,26.8435897 Z M4.575,19.1846154 C3.225,17.8461538 1.2,19.9282051 2.475,21.2666667 L8.925,27.5871795 C9.6,28.2564103 10.575,28.4794872 11.4,28.7025641 C11.925,28.8512821 12.525,29 13.05,29 C13.35,29 13.575,29 13.725,28.7025641 C13.8,28.4794872 13.8,28.2564103 13.65,28.1076923 L4.575,19.1846154 Z"/>
  </g>
</svg>
