<svg xmlns="http://www.w3.org/2000/svg" width="32" height="31" viewBox="0 0 32 31">
  <g fill="none">
    <path fill="#00B4C8" d="M27.5408696,27.0871111 L25.1617391,29.4362222 L18.2052174,22.5473333 L18.9008696,21.8584444 L15.3043478,18.228 L10.6295652,22.8573333 L4.78608696,17.0706667 C-0.987826087,11.3873333 2.36521739,2.15622222 2.36521739,2.15622222 L27.5408696,27.0871111 Z"/>
    <path fill="#0E0F26" d="M10.5947826,24.3177778 L4.01391304,17.8008889 C-2.08695652,11.7111111 1.23826087,2.21133333 1.39130435,1.80488889 L1.54434783,1.37777778 L2.01043478,1.21244444 C2.41391304,1.06777778 12.0208696,-2.232 18.1565217,3.81644444 L24.7373913,10.3333333 L20.0626087,14.9557778 L22.9565217,19.2888889 L19.4782609,22.7333333 L15.3043478,19.6884444 L10.5947826,24.3177778 Z M3.19304348,2.98288889 C2.64347826,4.86355556 1.00173913,11.8971111 5.48869565,16.3335556 L10.5947826,21.3968889 L15.3043478,16.7675556 L18.9495652,20.3704444 L20.7930435,18.5448889 L17.1130435,14.9351111 L21.7878261,10.3333333 L16.6956522,5.24933333 C12.1947826,0.812888889 5.09913043,2.43866667 3.19304348,2.98288889 Z"/>
    <path fill="#0E0F26" d="M25.1617391 30.8966667L16.6956522 22.5404444 22.9565217 16.3817778 31.3878261 24.738 25.1617391 30.8966667zM19.6730435 22.5404444L25.1617391 27.9757778 28.4382609 24.738 22.9565217 19.2888889 19.6730435 22.5404444zM6.86608696 9.362C6.78162321 8.58698664 6.79798888 7.80444139 6.91478261 7.03355556L5.15478261 5.28377778C4.7631776 6.68389902 4.64047288 8.14437686 4.79304348 9.58933333 4.93290134 11.5203659 5.75271993 13.3415388 7.10956522 14.7353333L9.8573913 17.4908889 11.3321739 16.0235556 8.58434783 13.3024444C7.56523496 12.2274873 6.95745444 10.8336796 6.86608696 9.362z"/>
  </g>
</svg>
