<svg xmlns="http://www.w3.org/2000/svg" width="44" height="18" viewBox="0 0 44 18">
  <g fill="none">
    <path fill="#000" d="M9.40880503,14.4 L9.40880503,0 L11.1798742,0 L11.1798742,3.6 L13.5597484,3.6 L13.5597484,5.34461538 L11.1798742,5.34461538 L11.1798742,14.4 L9.40880503,14.4 Z M13.836478,9.77538462 C13.836478,8.80615385 14.0578616,8.39076923 14.472956,7.83692308 C14.9433962,7.14461538 15.6352201,6.81230769 16.5761006,6.81230769 L20.9484277,6.81230769 L20.9484277,6.09230769 C20.9484277,5.89846154 20.8930818,5.73230769 20.754717,5.59384615 C20.6440252,5.45538462 20.4779874,5.37230769 20.3119497,5.37230769 L14.6666667,5.37230769 L14.6666667,3.6 L20.2012579,3.6 C21.5849057,3.6 22.4150943,4.26461538 22.6918239,5.53846154 L22.7471698,6.09230769 L22.7471698,11.7415385 C22.7471698,12.2123077 22.608805,12.6830769 22.3597484,13.1261538 C21.8062893,14.0123077 21.0591195,14.4553846 20.1459119,14.4553846 L16.5484277,14.4553846 C16.0503145,14.4553846 15.5522013,14.2892308 15.0264151,13.9015385 C14.5283019,13.5415385 14.1962264,13.1261538 14.0025157,12.6 C13.8918239,12.3230769 13.836478,11.9630769 13.836478,11.6030769 L13.836478,9.74769231 L13.836478,9.77538462 Z M16.0503145,12.5446154 C16.2716981,12.6276923 16.6037736,12.6830769 17.0742138,12.6830769 L19.509434,12.6830769 C20.4779874,12.6830769 20.9761006,12.3507692 20.9761006,11.6307692 L20.9761006,9.69230769 C20.9761006,9.05538462 20.5610063,8.66769231 19.7308176,8.58461538 L16.8805031,8.58461538 C16.0503145,8.69538462 15.6075472,9.05538462 15.6075472,9.69230769 L15.6075472,11.6307692 C15.6075472,12.0738462 15.7735849,12.3784615 16.0779874,12.5446154 L16.0503145,12.5446154 Z M23.7987421,17.8061538 L23.7987421,16.0615385 L29.6100629,16.0615385 C30.4402516,16.0615385 30.9106918,15.5907692 30.9106918,14.76 L30.9106918,14.4830769 L26.6490566,14.4830769 C25.8188679,14.4830769 25.1823899,14.2061538 24.6566038,13.5969231 C24.1584906,13.0430769 23.909434,12.3784615 23.909434,11.5753846 L23.909434,6.36923077 C23.909434,5.06769231 24.4628931,4.23692308 25.5144654,3.79384615 C25.8742138,3.65538462 26.1786164,3.6 26.4553459,3.6 L30.163522,3.6 C31.6301887,3.6 32.4603774,4.29230769 32.6540881,5.70461538 L32.6540881,15.1753846 C32.6540881,16.0061538 32.3773585,16.6984615 31.8238994,17.1692308 C31.2704403,17.5846154 30.5232704,17.8061538 29.6100629,17.8061538 L23.7987421,17.8061538 Z M25.6528302,11.5753846 C25.763522,12.3230769 26.1509434,12.6830769 26.7597484,12.6830769 L29.9698113,12.6830769 C30.2465409,12.6830769 30.5232704,12.6 30.6616352,12.4061538 C30.827673,12.2123077 30.9383648,11.9353846 30.9383648,11.5753846 L30.9383648,6.64615385 C30.9383648,5.81538462 30.6062893,5.42769231 29.9698113,5.42769231 L26.6490566,5.42769231 C25.9849057,5.53846154 25.6528302,5.98153846 25.6528302,6.61846154 L25.6528302,11.6030769 L25.6528302,11.5753846 Z M34.8679245,0 L35.9748428,0 L35.9748428,8.30769231 L34.8679245,8.30769231 L34.8679245,0 Z"/>
    <polyline fill="#000" points="33.761 0 35.975 0 35.975 1.108 33.761 1.108"/>
    <path fill="#2D70C0" d="M0,7.2 L4.70440252,0 L6.36477987,0 L1.66037736,7.2 L6.36477987,14.4 L4.70440252,14.4 M44,7.2 L39.2955975,0 L37.6352201,0 L42.3396226,7.2 L37.6352201,14.4 L39.2955975,14.4"/>
  </g>
</svg>
