<svg xmlns="http://www.w3.org/2000/svg" width="30" height="30" viewBox="0 0 30 30">
  <g fill="none">
    <path fill="#FFF" d="M14.7885267,1.42857143 C15.4576748,1.42857143 16.0316269,1.83176585 16.2834995,2.40809787 C16.3086867,2.46561208 16.3646144,2.49714573 16.4207403,2.49714573 C16.4608019,2.49714573 16.5010619,2.4808831 16.5300173,2.44637457 C16.8368258,2.07987024 17.2947579,1.86052295 17.7808521,1.86052295 C17.9204728,1.86052295 18.0624734,1.87876885 18.2036807,1.91645056 C18.8512113,2.08998481 19.3016071,2.62942841 19.3948197,3.25276342 C19.4059259,3.32733356 19.4723648,3.37572482 19.5411835,3.37572482 C19.5691473,3.37572482 19.597706,3.3675935 19.6230916,3.3499426 C19.8989615,3.15657586 20.2281808,3.05324862 20.5631515,3.05324862 C20.839418,3.05324862 21.1194526,3.12365394 21.3762833,3.2718026 C21.9567802,3.6069716 22.2522842,4.244586 22.1808873,4.87069756 C22.1707727,4.95915044 22.2445495,5.03233231 22.3274493,5.03233231 C22.3435137,5.03233231 22.3599746,5.02955577 22.3762373,5.02360602 C22.5571095,4.95776217 22.747303,4.92464191 22.9372983,4.92464191 C23.3545737,4.92464191 23.7714526,5.08350012 24.089764,5.40200984 C24.5637603,5.87600623 24.6841435,6.56835829 24.4532935,7.15460652 C24.41581,7.24960418 24.4899835,7.35352636 24.5895426,7.35352636 C24.5939058,7.35352636 24.5980706,7.35332802 24.6022354,7.35293141 C24.6500317,7.34876659 24.6976296,7.34658498 24.745426,7.34658498 C25.3092635,7.34658498 25.8574334,7.63832086 26.1596804,8.16189845 C26.4948494,8.74239532 26.4317821,9.44228373 26.0569482,9.94880536 C25.9938809,10.0342834 26.0450487,10.1606163 26.1497642,10.1790605 C26.7554483,10.285561 27.2748611,10.7302053 27.4446271,11.3634565 C27.6181614,12.0109872 27.3762051,12.670814 26.8829712,13.0631005 C26.7998731,13.1291427 26.8165323,13.2644002 26.9129182,13.30942 C27.4704094,13.5690272 27.8571429,14.1330631 27.8571429,14.7885267 C27.8571429,15.4578731 27.4541467,16.0316269 26.8778148,16.2834995 C26.779049,16.3267343 26.7568366,16.4608019 26.8393397,16.5300173 C27.3111545,16.9250804 27.5390298,17.5702311 27.3692637,18.2036807 C27.1957295,18.8512113 26.6562859,19.3016071 26.0329509,19.3948197 C25.9278387,19.4104874 25.8748859,19.5360271 25.9357717,19.6230916 C26.2887899,20.1266384 26.3417427,20.8084793 26.0139117,21.3762833 C25.7116646,21.8996626 25.163693,22.1913985 24.5998555,22.1913985 C24.5383748,22.1913985 24.4764974,22.1878287 24.4150167,22.1808873 C24.4096619,22.1802923 24.4041089,22.1798956 24.3989524,22.1798956 C24.3011782,22.1798956 24.2275998,22.281438 24.2621083,22.3762373 C24.4727292,22.9539575 24.3473879,23.6262788 23.8837045,24.089764 C23.5653931,24.4082737 23.1485142,24.5671319 22.731437,24.5671319 C22.5275591,24.5671319 22.3236811,24.5290535 22.1311077,24.4532935 C22.1140518,24.4465504 22.0965992,24.4433772 22.0795433,24.4433772 C21.9982301,24.4433772 21.9250482,24.5147742 21.9327829,24.6024337 C21.9867273,25.2148608 21.6916199,25.8318495 21.1238158,26.1596804 C20.8671835,26.3078291 20.5871488,26.3782345 20.3108823,26.3782345 C19.9622272,26.3782345 19.6195218,26.2661809 19.3369089,26.0571465 C19.3111267,26.0381073 19.2817746,26.029381 19.2528192,26.029381 C19.1853887,26.029381 19.1195448,26.0765823 19.1066538,26.1497642 C19.0001533,26.7554483 18.555509,27.2750594 17.9222577,27.4446271 C17.7808521,27.4825072 17.6390498,27.5005548 17.4994291,27.5005548 C16.9994522,27.5005548 16.5294223,27.2685147 16.2226137,26.8829712 C16.1938566,26.846876 16.1520101,26.8296218 16.1101636,26.8296218 C16.0558225,26.8296218 16.0016799,26.8585772 15.9764926,26.9129182 C15.716687,27.4704094 15.1526512,27.8571429 14.4971875,27.8571429 C13.8278412,27.8571429 13.2540873,27.4541467 13.0022148,26.8778148 C12.9770275,26.8203005 12.9211,26.7887669 12.864974,26.7887669 C12.8249124,26.7887669 12.7846525,26.8048312 12.755697,26.8393397 C12.4488885,27.205844 11.9909564,27.4251914 11.5048622,27.4251914 C11.3652415,27.4251914 11.2232409,27.4071438 11.0820336,27.3692637 C10.434503,27.1957295 9.98410718,26.6562859 9.89089452,26.0331492 C9.87978832,25.9583807 9.8133495,25.9099895 9.7445308,25.9099895 C9.71656698,25.9099895 9.6880082,25.9181208 9.66262261,25.93597 C9.38675277,26.1293367 9.05753352,26.232664 8.7225628,26.232664 C8.44629634,26.232664 8.16626161,26.1622587 7.90943093,26.0139117 C7.32893407,25.6787427 7.03362839,25.0411283 7.10482705,24.4150167 C7.11494161,24.3265638 7.04116473,24.2535803 6.95826498,24.2535803 C6.94220066,24.2535803 6.92573966,24.2561585 6.909477,24.2621083 C6.72860477,24.3281504 6.53841123,24.3610724 6.34841602,24.3610724 C5.93114054,24.3610724 5.5142617,24.2022142 5.19595032,23.8839028 C4.72195392,23.4097081 4.60157073,22.717356 4.83242086,22.1311077 C4.86990425,22.0363085 4.79573076,21.9321879 4.69617168,21.9321879 C4.69180854,21.9321879 4.68764372,21.9323862 4.6834789,21.9327829 C4.63568261,21.9369477 4.58808464,21.9391293 4.54028836,21.9391293 C3.9764508,21.9391293 3.42828091,21.6473935 3.12603384,21.1238158 C2.79086484,20.543319 2.85393214,19.8434306 3.22876611,19.3369089 C3.29183341,19.2514309 3.2406656,19.125098 3.13595008,19.1066538 C2.53026598,19.0001533 2.01085319,18.555509 1.84108712,17.9222577 C1.66755288,17.2747271 1.90950919,16.6149003 2.4027431,16.2228121 C2.48584122,16.1565716 2.46918192,16.021314 2.37279605,15.9764926 C1.81530489,15.7168854 1.42857143,15.1528495 1.42857143,14.4971875 C1.42857143,13.8280395 1.83156753,13.2540873 2.40809787,13.0022148 C2.50666532,12.95898 2.52887771,12.8249124 2.44637457,12.7558953 C1.97455975,12.3608322 1.74668449,11.7154831 1.91645056,11.0820336 C2.08998481,10.434503 2.62942841,9.98410718 3.25276342,9.89089452 C3.35787558,9.87522689 3.41082832,9.74968725 3.3499426,9.66262261 C2.99692436,9.15907582 2.94397162,8.477235 3.2718026,7.90962927 C3.57404967,7.38605168 4.12202124,7.09451414 4.6858588,7.09451414 C4.7473395,7.09451414 4.80901853,7.09788566 4.87069756,7.10502532 C4.87605232,7.10562034 4.88160542,7.10581861 4.8869602,7.10581861 C4.98453602,7.10581861 5.05811454,7.00427632 5.02360602,6.90967534 C4.81298502,6.33175674 4.93832633,5.65943549 5.40181151,5.19595032 C5.72032122,4.8774406 6.13720006,4.71878072 6.55427722,4.71878072 C6.75815517,4.71878072 6.96203311,4.75666077 7.15460652,4.83261918 C7.17166248,4.83936223 7.18911505,4.8423371 7.206171,4.8423371 C7.28748423,4.8423371 7.36066609,4.77094016 7.35293141,4.6834789 C7.29898705,4.07085343 7.59409445,3.45386482 8.16189845,3.12603384 C8.41853086,2.97788517 8.69856552,2.90747985 8.97483205,2.90747985 C9.32348714,2.90747985 9.66639082,3.01953339 9.94880536,3.22876611 C9.97458764,3.24760697 10.0039397,3.25633326 10.0328951,3.25633326 C10.1003255,3.25633326 10.1661694,3.20933027 10.1790605,3.13595008 C10.285561,2.53026598 10.7302053,2.01085319 11.3634565,1.84108712 C11.5048622,1.80320707 11.6466644,1.78515951 11.7862851,1.78515951 C12.2862621,1.78515951 12.756292,2.01719959 13.0631005,2.4027431 C13.0918576,2.43903655 13.1337042,2.45629081 13.1755507,2.45629081 C13.2298917,2.45629081 13.2840344,2.42713706 13.30942,2.37279605 C13.5690272,1.81530489 14.1330631,1.42857143 14.7885267,1.42857143"/>
    <g fill="#2F2F2F">
      <path d="M20.896997,21.2334845 C19.4067922,21.2334845 19.5237175,19.1298198 20.896997,19.1298198 C22.2702765,19.1298198 22.3872018,21.2334845 20.896997,21.2334845 M8.58310575,21.2334845 C7.09290089,21.2334845 7.20982623,19.1298198 8.58310575,19.1298198 C9.95638527,19.1298198 10.0733105,21.2334845 8.58310575,21.2334845 M25.3992129,13.461261 L24.89438,13.461261 C23.9889992,13.461261 23.2114066,12.9201381 22.8633958,12.1445944 C22.5153851,12.9201381 21.7377925,13.461261 20.8326091,13.461261 C19.9272282,13.461261 19.149833,12.9201381 18.8018223,12.1445944 C18.4538116,12.9201381 17.676219,13.461261 16.7708381,13.461261 C15.8656547,13.461261 15.0880621,12.9201381 14.7400514,12.1445944 C14.3920407,12.9201381 13.614448,13.461261 12.7092646,13.461261 C11.8038837,13.461261 11.0264886,12.9201381 10.6782804,12.1445944 C10.3302697,12.9201381 9.55287457,13.461261 8.64749366,13.461261 C7.74211275,13.461261 6.96471764,12.9201381 6.6167069,12.1445944 C6.26869618,12.9201381 5.49110355,13.461261 4.58572265,13.461261 L4.0866176,13.461261 C3.3293684,14.2759077 3.8097101,14.9641608 5.67972457,14.9641608 L5.67972457,19.1475939 C5.67972457,23.0792271 10.2074191,25.0450437 14.7351136,25.0450437 C19.2628082,25.0450437 23.7905027,23.0792271 23.7905027,19.1475939 L23.7905027,14.9641608 C25.6620972,14.9641608 26.1505368,14.2759077 25.3992129,13.461261"/>
      <path d="M14.8851217,0.00274413238 C14.2220842,0.00274413238 13.587488,0.210503734 13.0605342,0.575860447 C12.6945502,0.433272584 12.3007174,0.35783136 11.8952316,0.35783136 C11.6157565,0.35783136 11.3364789,0.394762012 11.0651016,0.467438374 C10.4237901,0.639254774 9.86385232,1.00500647 9.44908357,1.49537442 C9.33176332,1.48214259 9.21365298,1.47542792 9.09534511,1.47542792 C8.53540732,1.47542792 7.98218482,1.62394049 7.49572036,1.90477143 C6.92096939,2.23655483 6.47499425,2.73442741 6.20124688,3.31504835 C5.52932153,3.41616329 4.90934102,3.7276052 4.41991392,4.21698571 C3.94984268,4.68681469 3.64785153,5.2840248 3.5340864,5.91658564 C2.91904362,6.18734459 2.39268234,6.64828652 2.04743674,7.24648405 C1.71542424,7.8213778 1.57815554,8.47566259 1.63168046,9.11553055 C1.10946687,9.53361709 0.720374291,10.1132506 0.539851137,10.7864944 C0.368018375,11.4279423 0.404755034,12.0954589 0.622014849,12.6997786 C0.22600946,13.2387292 5.92526766e-05,13.8995311 5.92526766e-05,14.5962762 C5.92526766e-05,15.260238 0.208233657,15.8953662 0.574612707,16.4228623 C0.331479224,17.0459436 0.284274592,17.7424913 0.464600238,18.4159325 C0.636630509,19.057183 1.00221953,19.6166725 1.49243667,20.0314017 C1.41896335,20.6961534 1.55366444,21.3812466 1.90226768,21.9849739 C2.23329264,22.5584852 2.73081761,23.0059978 3.31327142,23.2803116 C3.4145935,23.9411135 3.72191738,24.5679471 4.21470214,25.060685 C4.68418085,25.5299215 5.27354748,25.8356362 5.91406891,25.949193 C6.18307606,26.5602274 6.64169178,27.0847612 7.24429152,27.4327388 C7.7309535,27.7137672 8.284176,27.8622798 8.8441138,27.8622798 C8.93516536,27.8622798 9.0256245,27.8583299 9.115491,27.8508253 C9.53341991,28.3718043 10.112516,28.7600698 10.7848364,28.9401808 C11.0562137,29.0128572 11.3354913,29.0497878 11.6149664,29.0497878 C11.9902334,29.0497878 12.357205,28.9844186 12.701463,28.8603948 C13.2398723,29.2547825 13.8995521,29.4799213 14.594981,29.4799213 C15.2580185,29.4799213 15.8926147,29.2721617 16.4195685,28.906805 C16.7855525,29.0495903 17.1795828,29.1248341 17.5848711,29.1248341 C17.8643463,29.1248341 18.1436238,29.0881009 18.4150011,29.015227 C19.0563126,28.8434106 19.6162504,28.4776589 20.0308216,27.987291 C20.1483394,28.0005228 20.2664498,28.0072375 20.3847576,28.0072375 C20.9446954,28.0072375 21.4979179,27.8587249 21.9843824,27.577894 C22.5593309,27.2461106 23.0051085,26.748238 23.2788558,26.1676171 C23.9509787,26.0665021 24.5707617,25.7550602 25.0601888,25.2656797 C25.5300625,24.7958507 25.8320537,24.1986406 25.9460163,23.5660798 C26.5610591,23.2955183 27.0874204,22.8345764 27.432666,22.2363788 C27.7646785,21.6614851 27.9019472,21.0072003 27.8484223,20.3673324 C28.3706358,19.9492458 28.7597284,19.3696123 28.9402516,18.696171 C29.1120843,18.0547231 29.0753477,17.3872065 28.8580879,16.7830843 C29.2540933,16.2439362 29.4800435,15.5833318 29.4800435,14.8863892 C29.4800435,14.2226249 29.2716716,13.5872993 28.90549,13.0600006 C29.1486235,12.4369193 29.1958281,11.7401742 29.015305,11.0667329 C28.8434722,10.4254825 28.4778832,9.86599295 27.9876661,9.45126375 C28.0611393,8.78651202 27.9264383,8.1014188 27.577835,7.4976915 C27.2466125,6.9241802 26.7492851,6.4768651 26.1668313,6.20235384 C26.0655092,5.54155191 25.7581853,4.91491578 25.2654006,4.42217793 C24.7959219,3.95274393 24.2065553,3.64702923 23.5660338,3.5336699 C23.2972242,2.92263549 22.8386084,2.39790425 22.2358112,2.04992667 C21.7493468,1.76909572 21.1961243,1.62058316 20.6361865,1.62058316 C20.5451348,1.62058316 20.4544782,1.62433547 20.3646117,1.63184009 C19.9466828,1.11105866 19.3675867,0.7225956 18.6952663,0.542484618 C18.423889,0.469808255 18.1446114,0.432877604 17.8653338,0.432877604 C17.4898694,0.432877604 17.1228978,0.498246832 16.7786397,0.622468115 C16.2402304,0.227882864 15.5805506,0.00274413238 14.8851217,0.00274413238 M14.8851217,1.58266505 C15.5515168,1.58266505 16.1231076,1.98416246 16.373944,2.55806874 C16.3990276,2.61534087 16.4547251,2.6467418 16.5106201,2.6467418 C16.5505169,2.6467418 16.5906112,2.63054761 16.6194475,2.59618433 C16.9249938,2.2312226 17.3810419,2.01279853 17.8651363,2.01279853 C18.0041825,2.01279853 18.1455989,2.03096762 18.2862253,2.06849074 C18.9310919,2.24129459 19.3796347,2.77846771 19.4724639,3.39917914 C19.4835244,3.47343542 19.5496899,3.52162301 19.6182255,3.52162301 C19.6460742,3.52162301 19.6745155,3.51352591 19.6997967,3.4959493 C19.9745315,3.30339643 20.3023964,3.20050408 20.6359889,3.20050408 C20.9111189,3.20050408 21.1900015,3.27061307 21.4457755,3.41813819 C22.0238842,3.75189648 22.3181725,4.38682721 22.2470693,5.0103035 C22.2369963,5.09838409 22.3104696,5.17125794 22.3930283,5.17125794 C22.4090266,5.17125794 22.4254198,5.16849308 22.4416155,5.16256838 C22.6217437,5.09700166 22.8111547,5.06402081 23.0003682,5.06402081 C23.415927,5.06402081 23.8310908,5.22221039 24.1480926,5.53937952 C24.6201389,6.0113809 24.7400268,6.70081889 24.5101265,7.28459966 C24.4727973,7.37919743 24.5466656,7.48268223 24.6458151,7.48268223 C24.6501603,7.48268223 24.654308,7.48248477 24.6584557,7.4820898 C24.7060553,7.4779425 24.7534574,7.47577009 24.8010571,7.47577009 C25.362575,7.47577009 25.9084896,7.76627809 26.2094933,8.28765198 C26.5432833,8.86570555 26.4804755,9.56264816 26.1071836,10.0670379 C26.0443758,10.1521561 26.0953331,10.2779573 26.1996178,10.2963239 C26.80281,10.4023761 27.3200859,10.845149 27.4891535,11.4757349 C27.6619739,12.1205401 27.421013,12.7775898 26.9298083,13.1682252 C26.847052,13.2339894 26.8636428,13.3686777 26.9596321,13.4135079 C27.5148297,13.6720225 27.8999721,14.2336844 27.8999721,14.8863892 C27.8999721,15.5529183 27.498634,16.1242572 26.9246731,16.3750697 C26.8263136,16.4181225 26.8041926,16.5516258 26.8863563,16.6205499 C27.35623,17.0139502 27.5831678,17.6563855 27.4141002,18.287169 C27.2412798,18.9319742 26.7040556,19.3804743 26.083285,19.4732946 C25.9786053,19.4888963 25.9258704,19.6139076 25.9865056,19.7006058 C26.3380715,20.2020331 26.3908064,20.8810042 26.0643242,21.4464183 C25.7633206,21.9675948 25.2176035,22.2581027 24.6560855,22.2581027 C24.5948578,22.2581027 24.533235,22.2545479 24.4720073,22.2476358 C24.4666745,22.2470433 24.4611443,22.2466483 24.456009,22.2466483 C24.3586371,22.2466483 24.2853613,22.3477632 24.3197279,22.4421635 C24.5294823,23.0174522 24.4046567,23.6869437 23.9428808,24.1484781 C23.625879,24.4656473 23.2107153,24.6238368 22.795354,24.6238368 C22.5923148,24.6238368 22.3892757,24.5859188 22.1974945,24.5104775 C22.1805087,24.5037629 22.163128,24.500603 22.1461422,24.500603 C22.0651635,24.500603 21.9922827,24.5716994 21.9999856,24.6589901 C22.053708,25.2688396 21.7598147,25.8832313 21.1943467,26.2096825 C20.9387701,26.3572076 20.6598875,26.4273166 20.3847576,26.4273166 C20.0375369,26.4273166 19.6962415,26.3157346 19.4147913,26.10758 C19.3891152,26.088621 19.3598838,26.0799314 19.3310475,26.0799314 C19.2638945,26.0799314 19.1983215,26.1269341 19.1854834,26.199808 C19.0794211,26.8029427 18.6366061,27.3203669 18.0059601,27.4892209 C17.8651363,27.5269415 17.7239174,27.5449131 17.5848711,27.5449131 C17.0869512,27.5449131 16.618855,27.3138497 16.3133087,26.9299289 C16.2846699,26.8939857 16.2429955,26.876804 16.2013211,26.876804 C16.1472037,26.876804 16.0932837,26.9056376 16.0682001,26.9597499 C15.8094634,27.5148946 15.247748,27.9000003 14.594981,27.9000003 C13.9283885,27.9000003 13.3569951,27.4987004 13.1061588,26.9247942 C13.0810752,26.867522 13.0253776,26.8361211 12.9694827,26.8361211 C12.9295858,26.8361211 12.8894915,26.8521178 12.8606552,26.8864811 C12.5551089,27.2514428 12.0990608,27.4698669 11.6149664,27.4698669 C11.4759202,27.4698669 11.3345038,27.4518953 11.1938774,27.4141747 C10.5490108,27.2413708 10.100468,26.7041977 10.0076388,26.0836838 C9.99657832,26.00923 9.93041284,25.9610424 9.86187723,25.9610424 C9.8340285,25.9610424 9.8055872,25.9691395 9.78030607,25.9869136 C9.50557118,26.1794665 9.17770636,26.2823588 8.8441138,26.2823588 C8.56898386,26.2823588 8.29010127,26.2122498 8.0343272,26.0645273 C7.45621855,25.7307689 7.1621278,25.0958382 7.23303348,24.4723619 C7.24310645,24.3842813 7.16963311,24.311605 7.08707441,24.311605 C7.07107616,24.311605 7.05468293,24.3141723 7.03848723,24.320097 C6.85835905,24.3858612 6.66894801,24.4186446 6.47973447,24.4186446 C6.06417569,24.4186446 5.64901194,24.260455 5.33201011,23.9434834 C4.8599638,23.4712845 4.74007588,22.7818465 4.96997626,22.1980658 C5.00730545,22.1036655 4.93343711,21.9999832 4.83428763,21.9999832 C4.82994243,21.9999832 4.82579475,22.0001806 4.82164706,22.0005756 C4.77404741,22.0047229 4.72664527,22.0068953 4.67904562,22.0068953 C4.11752776,22.0068953 3.57161309,21.7163873 3.2706095,21.1950134 C2.93681941,20.6169599 2.99962726,19.9200173 3.37291912,19.4156275 C3.43572695,19.3305093 3.38476965,19.2047081 3.28048494,19.1863415 C2.67729269,19.0802893 2.16001683,18.6375164 1.99094919,18.0069305 C1.81812888,17.3621253 2.05908976,16.7050756 2.55029446,16.3146377 C2.6330507,16.248676 2.61645995,16.1139878 2.52047061,16.069355 C1.96527303,15.8108404 1.58013063,15.2491786 1.58013063,14.5962762 C1.58013063,13.9299446 1.98146876,13.3584082 2.5556272,13.1075957 C2.65378913,13.0645429 2.67591013,12.9310396 2.59374642,12.862313 C2.12387269,12.4689127 1.89693494,11.8262799 2.06600258,11.1954964 C2.23882289,10.5506912 2.77604716,10.1021911 3.3968177,10.0093708 C3.50149743,9.99376909 3.55423231,9.86875786 3.49359707,9.7820597 C3.14203119,9.28063227 3.0892963,8.60166123 3.41577855,8.03644452 C3.71678215,7.51507064 4.2624993,7.22476016 4.82401717,7.22476016 C4.88524493,7.22476016 4.94667021,7.2281175 5.00809548,7.23522716 C5.01342822,7.23581959 5.01895848,7.23601711 5.02429122,7.23601711 C5.12146561,7.23601711 5.19474142,7.13490218 5.16037486,7.04069939 C4.95062039,6.46521318 5.07544603,5.79572169 5.53702438,5.33418729 C5.85422371,5.01701817 6.26938746,4.85902607 6.68474872,4.85902607 C6.88778789,4.85902607 7.09082707,4.89674669 7.2826082,4.9723854 C7.299594,4.97910006 7.31697477,4.98206241 7.33396057,4.98206241 C7.41493923,4.98206241 7.48782,4.91096597 7.48011716,4.82387283 C7.42639473,4.21382587 7.72028802,3.59943412 8.28575605,3.27298295 C8.54133259,3.12545784 8.82021518,3.05534885 9.09534511,3.05534885 C9.4425658,3.05534885 9.78405873,3.16693077 10.0653115,3.37528283 C10.0909876,3.3940444 10.1202189,3.40273396 10.1490552,3.40273396 C10.2162082,3.40273396 10.2817812,3.3559288 10.2946193,3.28285746 C10.4006816,2.67972265 10.8434966,2.16249603 11.4741425,1.99344449 C11.6149664,1.95572388 11.7561853,1.93775228 11.8952316,1.93775228 C12.3931516,1.93775228 12.8612478,2.16881572 13.166794,2.5527365 C13.1954328,2.5888772 13.2371072,2.60605883 13.2787816,2.60605883 C13.332899,2.60605883 13.386819,2.57702779 13.4121001,2.5229155 C13.6706393,1.96777078 14.2323547,1.58266505 14.8851217,1.58266505"/>
    </g>
  </g>
</svg>
