<svg xmlns="http://www.w3.org/2000/svg" width="27" height="35" viewBox="0 0 27 35">
  <g fill="#3FAE2A" stroke="#3FAE2A" stroke-width=".5" transform="translate(0 1)">
    <path d="M5.24727273,16.1150685 C5.24727273,17.9780822 6.99636364,19.4684932 9.12363636,19.4684932 C11.2509091,19.4684932 13,17.9780822 13,16.1150685 C13,14.2520548 11.2509091,12.7616438 9.12363636,12.7616438 C6.99636364,12.7616438 5.24727273,14.2986301 5.24727273,16.1150685 Z M7.42181818,16.1150685 C7.42181818,15.2767123 8.22545455,14.6246575 9.17090909,14.6246575 C10.1163636,14.6246575 10.92,15.2767123 10.92,16.1150685 C10.92,16.9534247 10.1163636,17.6054795 9.17090909,17.6054795 C8.17818182,17.6520548 7.42181818,16.9534247 7.42181818,16.1150685 Z M13,24.5452055 C13,26.4082192 14.7490909,27.8986301 16.8763636,27.8986301 C19.0036364,27.8986301 20.7527273,26.4082192 20.7527273,24.5452055 C20.7527273,22.6821918 19.0036364,21.1917808 16.8763636,21.1917808 C14.7018182,21.1917808 13,22.6821918 13,24.5452055 Z M15.1272727,24.5452055 C15.1272727,23.7068493 15.9309091,23.0547945 16.8763636,23.0547945 C17.8218182,23.0547945 18.6254545,23.7534247 18.6254545,24.5452055 C18.6254545,25.3835616 17.8218182,26.0356164 16.8763636,26.0356164 C15.8836364,26.0821918 15.1272727,25.3835616 15.1272727,24.5452055 Z"/>
    <path d="M25.6690909,11.5506849 C25.6690909,10.7123288 24.5345455,10.3863014 23.8254545,10.8986301 C16.7345455,16.2547945 9.59636364,21.6109589 2.50545455,26.9671233 L2.50545455,19.3287671 L2.50545455,13.6931507 C2.50545455,12.6219178 2.6,11.7369863 3.54545455,10.9452055 C3.87636364,10.6657534 4.34909091,10.5260274 4.72727273,10.3863014 C4.82181818,10.339726 5.72,10.2 5.29454545,10.2465753 L5.38909091,10.2465753 C7.46909091,10.8986301 10.3054545,11.2246575 13,11.2246575 C18.2,11.2246575 23.7781818,10.060274 23.7781818,7.49863014 L23.7781818,3.95890411 C23.7781818,1.39726027 18.2,0.232876712 13,0.232876712 C7.8,0.232876712 2.22181818,1.39726027 2.22181818,3.95890411 L2.22181818,7.45205479 C2.22181818,8.05753425 2.50545455,8.56986301 3.07272727,9.03561644 C2.31636364,9.40821918 1.65454545,9.92054795 1.13454545,10.5726027 C-0.189090909,12.2027397 0.378181818,15.0438356 0.378181818,16.9534247 L0.378181818,29.0164384 C0.378181818,29.8547945 1.51272727,30.1808219 2.22181818,29.6684932 C9.31272727,24.3123288 16.4509091,18.9561644 23.5418182,13.6 L23.5418182,25.3835616 C23.5418182,26.3150685 23.7309091,27.3863014 23.3527273,28.2712329 C22.88,29.5753425 20.9890909,30.4136986 19.6654545,30.8794521 C15.0327273,32.4630137 9.40727273,32.2767123 4.96363636,30.3205479 C3.73454545,29.7616438 2.69454545,31.4849315 3.87636364,31.9041096 C8.79272727,33.7205479 13.2363636,33.9534247 18.6254545,33.0684932 C21.3672727,32.6027397 25.48,30.6931507 25.6218182,27.7589041 C25.9054545,22.3561644 25.6690909,16.9534247 25.6690909,11.5506849 Z M13,2.09589041 C18.6727273,2.09589041 21.6509091,3.49315068 21.6509091,3.95890411 C21.6509091,4.42465753 18.6727273,5.82191781 13,5.82191781 C7.32727273,5.82191781 4.34909091,4.42465753 4.34909091,3.95890411 C4.34909091,3.49315068 7.32727273,2.09589041 13,2.09589041 Z M4.34909091,6.33424658 C6.42909091,7.26575342 9.78545455,7.73150685 13,7.73150685 C16.2145455,7.73150685 19.5709091,7.26575342 21.6509091,6.33424658 L21.6509091,7.49863014 C21.6509091,7.96438356 18.6727273,9.36164384 13,9.36164384 C7.32727273,9.36164384 4.34909091,7.96438356 4.34909091,7.49863014 L4.34909091,6.33424658 Z"/>
  </g>
</svg>
