<svg xmlns="http://www.w3.org/2000/svg" width="30" height="28" viewBox="0 0 30 28">
  <path fill="#64585A" d="M14.9929495,0.0141772152 C4.67802585,0.0141772152 0,4.51189873 0,14.1063291 C0,23.4987342 4.67802585,28 14.9929495,28 C24.9130435,28 29.9788484,23.4987342 29.9788484,14.1063291 C29.9788484,4.51189873 24.9130435,0.0141772152 14.9929495,0.0141772152 Z M19.960047,17.6931646 C19.8507638,17.7959494 18.7720329,18.6820253 14.9929495,18.6820253 C11.7814336,18.6820253 10.2831962,18.0724051 9.93772033,17.7498734 C9.75088132,17.5762025 9.26439483,16.5767089 9.26439483,14.1027848 C9.26439483,11.4906329 9.77555817,10.4344304 9.97297297,10.2465823 C10.3113984,9.92759494 11.7920094,9.32506329 14.9894242,9.32506329 C18.7544066,9.32506329 19.8119859,10.2075949 19.9212691,10.3068354 C20.2843713,10.6435443 20.7109283,11.841519 20.7109283,14.1027848 C20.7144536,16.2435443 20.3090482,17.3741772 19.960047,17.6931646 Z"/>
</svg>
