<svg xmlns="http://www.w3.org/2000/svg" width="30" height="30" viewBox="0 0 30 30">
  <defs>
    <radialGradient id="teamsnap-a" cy="69.596%" r="50.23%" fx="50%" fy="69.596%" gradientTransform="matrix(.99542 0 0 1 .002 0)">
      <stop offset="0%" stop-color="#FFA100"/>
      <stop offset="100%" stop-color="#FF5A00"/>
    </radialGradient>
  </defs>
  <g fill="none">
    <path fill="url(#teamsnap-a)" d="M0.0127880184,14.8262615 C0.0127880184,6.64489679 6.67569124,0.0129013761 14.8940668,0.0129013761 C23.1133065,0.0129013761 29.7753456,6.64489679 29.7753456,14.8262615 C29.7753456,23.0071101 23.1133065,29.6391055 14.8940668,29.6391055 C6.67569124,29.6391055 0.0127880184,23.0071101 0.0127880184,14.8262615" transform="matrix(1 0 0 -1 .104 29.893)"/>
    <path fill="#FFF" d="M5.74337558,0.0223623853 L1.83352535,2.99827982 C3.06670643,4.39355904 4.359366,5.73561492 5.70794931,7.02075688 C6.24107143,7.54008028 6.57753456,7.86949541 6.71578341,8.00883028 C6.28150922,8.07574541 5.04193548,8.3559633 2.99792627,8.84827982 C1.52246544,9.20384174 0.551958525,9.4668578 0.0850230415,9.63595183 L1.6952765,14.2168005 C3.92177419,13.2999427 5.92327189,12.2917431 7.69769585,11.1872133 C7.28364055,14.0327408 7.07764977,16.3553326 7.07764977,18.1544725 L11.6778802,18.1544725 C11.6778802,16.8638188 11.4457949,14.5238532 10.9800691,11.1331995 C11.3244816,11.2718463 12.0743088,11.6055619 13.2324885,12.1388188 C14.8150922,12.8423739 16.2748272,13.443578 17.6115207,13.9415711 L18.9456221,9.27041284 C17.0092742,8.8415711 14.7684332,8.4206422 12.2218894,8.00883028 L15.3463134,4.47522936 C15.9701613,3.76066514 16.4644009,3.17614679 16.8297235,2.72408257 L12.827765,0.11353211 L9.35253456,5.94598624 C8.30253456,4.09231651 7.10080645,2.11720183 5.74320276,0.0223623853" transform="matrix(1 0 0 -1 5.634 24.216)"/>
  </g>
</svg>
