<svg xmlns="http://www.w3.org/2000/svg" width="40" height="15" viewBox="0 0 40 15">
  <path fill="#E62B1E" d="M25.0343706,37.8290123 L21,37.8290123 L21,34 L33.538115,34 L33.538115,37.8290123 L29.5031477,37.8290123 L29.5031477,49 L25.0343706,49 L25.0343706,37.8290123 Z M34.2320912,34 L46.4229197,34 L46.4229197,37.8290123 L38.7008682,37.8290123 L38.7008682,39.6759259 L46.4229197,39.6759259 L46.4229197,43.2790123 L38.7008682,43.2790123 L38.7008682,45.1709877 L46.4229197,45.1709877 L46.4229197,49 L34.2320912,49 L34.2320912,34 Z M47.1604559,34 L54.4922577,34 C59.3083212,34 61,37.6938272 61,41.4777778 C61,46.0722222 58.6573082,49 53.6246382,49 L47.1604559,49 L47.1604559,34 Z M51.6292329,45.1709877 L53.3644718,45.1709877 C56.1409732,45.1709877 56.5318197,42.8290123 56.5318197,41.432716 C56.5318197,40.4864198 56.2280932,37.8740741 53.0171853,37.8740741 L51.5856729,37.8740741 L51.6292329,45.1709877 Z" transform="translate(-21 -34)"/>
</svg>
