<svg xmlns="http://www.w3.org/2000/svg" width="22" height="36" viewBox="0 0 22 36">
  <g fill="none" fill-rule="evenodd">
    <polygon points="7.432 33.752 15.172 33.752 15.172 35.954 7.432 35.954"/>
    <path fill="#C0BEBB" fill-rule="nonzero" d="M15.104878,34.8763636 C15.104878,35.4725455 13.366878,35.9770909 11.2457561,35.9770909 C9.10209756,35.9770909 7.38663415,35.4954545 7.36409756,34.8758182 C7.36409756,34.2796364 9.10209756,33.7750909 11.2232195,33.7750909 C13.366878,33.7750909 15.104878,34.2796364 15.104878,34.8758182 L15.104878,34.8763636 Z"/>
    <path fill="#C163A0" fill-rule="nonzero" d="M14.856439,0.879272727 C17.1809268,1.70509091 19.234439,3.288 20.5431707,5.628 C21.4732443,7.25069498 21.9638675,9.09487637 21.965122,10.9729091 C21.965122,10.9958182 21.9425854,11.0416364 21.9425854,11.0645455 C21.9413775,12.9468314 21.4591569,14.7965136 20.5431707,16.4323636 C20.5206341,16.4552727 20.4980976,16.4781818 20.4980976,16.5010909 L20.4980976,16.524 L13.3443415,29.1409091 L16.9324878,17.1436364 L16.9324878,17.1207273 L16.9550244,17.0978182 C16.977561,17.0749091 16.977561,17.0290909 17.0000976,17.0061818 C17.5420488,15.1936364 17.8124878,13.1749091 17.8350244,11.1790909 L17.8350244,11.1561818 C17.8350244,11.1332727 17.857561,11.1103636 17.857561,11.0645455 C17.857561,9.02290909 17.587122,6.95836364 17.0226341,5.12345455 C16.4812195,3.35672727 15.736439,1.93472727 14.856439,0.879818182 L14.856439,0.879272727 Z"/>
    <path fill="#56C0D1" fill-rule="nonzero" d="M11.8547805,0.305454545 L11.8547805,29.9896364 L15.849122,16.7078182 L15.849122,16.6849091 C15.849122,16.662 15.8716585,16.662 15.8716585,16.6390909 C16.3685366,14.9416364 16.6389756,13.0374545 16.6389756,11.1332727 L16.6389756,11.0416364 C16.6389756,9.138 16.3685366,7.23381818 15.8716585,5.53636364 C15.3302439,3.74727273 14.5854634,2.39345455 13.7736098,1.52181818 C13.1409756,0.787636364 12.4863415,0.443454545 11.8542439,0.305454545 L11.8547805,0.305454545 Z"/>
    <path fill="#E4BF41" fill-rule="nonzero" d="M10.6136585,0.305454545 C9.95902439,0.466363636 9.32746341,0.810545455 8.69590244,1.476 C7.8835122,2.37054545 7.13873171,3.72381818 6.59678049,5.49054545 C6.10043902,7.188 5.82946341,9.09163636 5.82946341,10.9958182 L5.82946341,11.0645455 C5.82946341,12.9681818 6.07790244,14.8723636 6.59678049,16.5932727 C6.59678049,16.6161818 6.61931707,16.6390909 6.61931707,16.662 L10.6136585,29.9667273 L10.6136585,0.306 L10.6136585,0.305454545 Z"/>
    <path fill="#DA583F" fill-rule="nonzero" d="M7.61253659,0.879272727 C6.73253659,1.93472727 5.9877561,3.35672727 5.44634146,5.12290909 C4.88185366,6.98127273 4.61087805,9.02290909 4.61087805,11.0645455 C4.61087805,11.1103636 4.63395122,11.1332727 4.63395122,11.1561818 L4.63395122,11.1790909 C4.63395122,13.1754545 4.90439024,15.1936364 5.44634146,17.0061818 C5.44634146,17.0290909 5.46887805,17.052 5.49141463,17.0978182 C5.49141463,17.1207273 5.49141463,17.1436364 5.51395122,17.1436364 L9.07902439,29.0727273 L1.94780488,16.5463636 C1.92526829,16.5234545 1.90273171,16.4776364 1.88019512,16.4547273 L1.88019512,16.4318182 C0.976520153,14.8002667 0.502274167,12.9592891 0.503317073,11.0869091 L0.503317073,11.0181818 C0.525853659,9.15981818 0.977121951,7.32490909 1.92526829,5.65036364 C3.234,3.28745455 5.2875122,1.70454545 7.612,0.878727273 L7.61253659,0.879272727 Z"/>
  </g>
</svg>
