<svg xmlns="http://www.w3.org/2000/svg" width="30" height="32" viewBox="0 0 30 32">
  <path fill="#5CE500" d="M29.85,9.11223301 L29.85,24.9568932 C29.8287141,25.3458045 29.622071,25.7012838 29.29375,25.9137864 L28.771875,26.224466 L24.796875,28.5079612 L22.1125,30.0613592 L21.55625,30.3720388 L21.55625,13.2349515 L6.634375,4.66019417 L13.721875,0.59961165 L14.375,0.229902913 C14.7246924,0.0538496596 15.1378076,0.0538496596 15.4875,0.229902913 L25.3125,5.87184466 L29.846875,8.47533981 L29.846875,9.11223301 L29.85,9.11223301 Z M18.2375,15.1363107 L15.178125,13.3778641 L8.01875,9.26757282 C7.66835461,9.09447136 7.25664539,9.09447136 6.90625,9.26757282 L0.553125,12.9149515 L0,13.2349515 L10.778125,19.4205825 L10.778125,31.7949515 L17.121875,28.1506796 L17.68125,27.84 C18.0091946,27.6271427 18.215717,27.2718709 18.2375,26.8831068 L18.2375,15.1363107 Z M0,25.6093204 L7.45625,29.8904854 L7.45625,21.3219417 L0,25.6093204 Z"/>
</svg>
