<svg xmlns="http://www.w3.org/2000/svg" width="30" height="30" viewBox="0 0 30 30">
  <g fill="#00A6B4">
    <path d="M26.1123288,4.62328767 C26.1945205,4.93561644 26.4986301,6.06575342 26.7863014,7.14246575 L29.0671233,15.6534247 C29.3547945,16.730137 29.6589041,17.860274 29.7452055,18.1726027 C29.8492587,18.6378539 29.7187528,19.124564 29.3958904,19.4753425 L27.5342466,21.3205479 L21.3205479,27.5342466 C20.5479452,28.3561644 19.7260274,29.1780822 19.4753425,29.3958904 C19.124564,29.7187528 18.6378539,29.8492587 18.1726027,29.7452055 L15.6534247,29.0712329 L7.14246575,26.790411 L4.62328767,26.1123288 C4.39742593,26.0458987 4.19229989,25.9228231 4.02739726,25.7547945 C3.85936869,25.5898919 3.73629307,25.3847658 3.66986301,25.1589041 C3.58356164,24.8506849 3.27945205,23.7123288 2.99178082,22.639726 L0.710958904,14.1287671 L0.0369863014,11.609589 L0.361643836,11.5068493 L0.690410959,11.4205479 C0.77260274,11.7328767 1.07671233,12.8671233 1.36438356,13.939726 L3.64520548,22.4630137 C3.93287671,23.539726 4.2369863,24.6739726 4.31917808,24.9863014 C4.35692955,25.096794 4.42030128,25.1967805 4.50410959,25.2780822 C4.58541127,25.3618905 4.68539777,25.4252622 4.79589041,25.4630137 L7.31506849,26.1369863 L15.8260274,28.4178082 L18.3493151,29.0917808 C18.5804591,29.1293754 18.8166642,29.0665868 18.9986301,28.9191781 L20.8438356,27.0739726 L27.0739726,20.8438356 L28.9191781,18.9986301 C29.0665868,18.8166642 29.1293754,18.5804591 29.0917808,18.3493151 C29.0054795,18.0369863 28.7054795,16.9027397 28.4178082,15.8260274 L26.1328767,7.31917808 C25.8493151,6.24246575 25.5410959,5.10821918 25.4589041,4.8 C25.4194487,4.69392933 25.3561816,4.59832581 25.2739726,4.52054795 C25.1956035,4.43320438 25.0946297,4.36920693 24.9821918,4.33561644 L22.4630137,3.64520548 L13.9726027,1.36438356 L11.4328767,0.690410959 C11.2017327,0.652816334 10.9655276,0.715605027 10.7835616,0.863013699 L8.93835616,2.70821918 L2.70821918,8.93835616 L0.863013699,10.7835616 C0.712122983,10.9637394 0.648905985,11.2015558 0.690410959,11.4328767 L0.361643836,11.5068493 L0.0369863014,11.5972603 C-0.0700095141,11.1319518 0.0608624348,10.6438765 0.38630137,10.2945205 L2.23150685,8.44520548 L8.46164384,2.23150685 L10.3068493,0.38630137 C10.655842,0.060207539 11.1442674,-0.0707582622 11.609589,0.0369863014 L14.1287671,0.710958904 L22.6356164,2.99589041 L25.1547945,3.66986301 C25.3813868,3.73678302 25.5867178,3.86139772 25.7506849,4.03150685 C25.9224903,4.19246612 26.0474673,4.3969738 26.1123288,4.62328767 Z"/>
    <path d="M15.4479452,2.3630137 L17.309589,3.43972603 L23.5972603,7.06849315 L25.4794521,8.14520548 C25.8120428,8.35427243 26.0197363,8.71427438 26.0342466,9.10684932 L26.0342466,11.2561644 L26.0342466,20.6712329 C26.0197363,21.0638078 25.8120428,21.4238098 25.4794521,21.6328767 L23.6178082,22.709589 L17.309589,26.3383562 L15.4479452,27.4150685 C15.2767305,27.5084277 15.0840028,27.5551925 14.8890411,27.5506849 C14.6954442,27.5546633 14.5041766,27.507909 14.3342466,27.4150685 L12.4726027,26.3424658 L6.16438356,22.709589 L4.30273973,21.6328767 L4.44246575,21.3945205 L4.58219178,21.1520548 L6.44383562,22.2287671 L12.739726,25.8575342 L14.6054795,26.9342466 C14.6906015,26.9776627 14.7853135,26.9988669 14.8808219,26.9958904 C14.9776777,26.9992063 15.0738017,26.9780025 15.160274,26.9342466 L17.0219178,25.8575342 L23.3136986,22.2287671 L25.1753425,21.1520548 C25.3427059,21.0445169 25.4540114,20.8685339 25.4794521,20.6712329 L25.4794521,18.5178082 L25.4794521,9.10684932 C25.4558677,8.91211419 25.3476049,8.73769074 25.1835616,8.63013699 L23.3219178,7.55342466 L17.030137,3.92054795 L15.1684932,2.84794521 C15.0827545,2.80216884 14.9860814,2.78084389 14.8890411,2.78630137 C14.7933235,2.7809649 14.6980036,2.80230519 14.6136986,2.84794521 L12.739726,3.92054795 L6.45205479,7.54931507 L4.59863014,8.63013699 C4.43979273,8.74196593 4.33772016,8.91759079 4.31917808,9.1109589 L4.31917808,11.260274 L4.31917808,20.6712329 C4.33877862,20.8642591 4.44061374,21.0394754 4.59863014,21.1520548 L4.45890411,21.3945205 L4.31917808,21.6328767 C3.98551223,21.4248467 3.77745801,21.0642194 3.76438356,20.6712329 C3.76438356,20.4041096 3.76438356,19.4383562 3.76438356,18.5178082 L3.76438356,9.10684932 C3.77745801,8.71386276 3.98551223,8.35323546 4.31917808,8.14520548 L6.16438356,7.06849315 L12.4726027,3.43972603 L14.3342466,2.3630137 C14.504906,2.27206893 14.6956716,2.22543733 14.8890411,2.22739726 C15.0838386,2.2243854 15.276191,2.27105916 15.4479452,2.3630137 Z"/>
    <path d="M7.35616438,6.57534247 L9.20547945,6.07808219 L15.4479452,4.40547945 L17.2972603,3.90821918 C17.6396174,3.83069426 17.9981528,3.9276373 18.2547945,4.16712329 L19.6109589,5.51917808 L24.1808219,10.0890411 L25.5328767,11.4452055 C25.772869,11.7015373 25.8685284,12.0610316 25.7876712,12.4027397 C25.730137,12.6287671 25.5041096,13.4630137 25.2945205,14.2520548 L23.6219178,20.4945205 C23.4082192,21.2835616 23.1863014,22.1383562 23.1246575,22.3438356 C23.0764214,22.5094695 22.9857577,22.6596312 22.8616438,22.7794521 C22.741823,22.9035659 22.5916612,22.9942297 22.4260274,23.0424658 L20.5767123,23.539726 L14.330137,25.2123288 L12.4808219,25.709589 L12.4191781,25.4794521 L12.3534247,25.2369863 L14.2027397,24.7438356 L20.4493151,23.0712329 L22.2986301,22.5739726 C22.3793607,22.5458363 22.4524965,22.4994232 22.5123288,22.4383562 C22.5733958,22.3785239 22.6198089,22.3053881 22.6479452,22.2246575 L23.1410959,20.3753425 L24.8136986,14.1287671 C25.0273973,13.339726 25.2493151,12.509589 25.3109589,12.2794521 C25.3404937,12.1095528 25.2939142,11.9352553 25.1835616,11.8027397 L23.8356164,10.4424658 L19.2575342,5.87260274 L17.9054795,4.52054795 C17.7729638,4.41019539 17.5986664,4.36361591 17.4287671,4.39315068 L15.5753425,4.88630137 L9.33287671,6.57534247 L7.48767123,7.07260274 C7.40412475,7.09724485 7.32884147,7.14411934 7.26986301,7.20821918 C7.20674007,7.26561527 7.16114791,7.33970252 7.13835616,7.42191781 C7.07671233,7.64794521 6.85068493,8.48219178 6.64109589,9.27123288 L4.96438356,15.4972603 C4.75479452,16.2863014 4.53287671,17.1205479 4.47123288,17.3465753 C4.43994246,17.5165485 4.48671916,17.6915839 4.59863014,17.8232877 L5.95068493,19.1794521 L10.5205479,23.7493151 L11.8767123,25.1013699 C12.0092279,25.2117224 12.1835254,25.2583019 12.3534247,25.2287671 L12.4191781,25.4712329 L12.4808219,25.709589 C12.1397348,25.7871553 11.7824018,25.6901209 11.5273973,25.4506849 L10.1712329,24.0986301 L5.60136986,19.5287671 L4.24931507,18.1726027 C4.00987911,17.9175982 3.91284472,17.5602652 3.99041096,17.2191781 C4.05205479,16.9890411 4.27808219,16.1589041 4.48767123,15.369863 L6.16438356,9.12328767 L6.66164384,7.27808219 C6.70975508,7.11120303 6.8003851,6.95968097 6.92465753,6.83835616 C7.04390855,6.71556952 7.1923827,6.62507099 7.35616438,6.57534247 Z"/>
    <path d="M5.71232877,24.069863 C1.99884466,20.3572111 0.887610149,14.7731107 2.89683628,9.92164087 C4.90606241,5.07017108 9.64002469,1.90684679 14.8910959,1.90684679 C20.1421671,1.90684679 24.8761294,5.07017108 26.8853555,9.92164087 C28.8945816,14.7731107 27.7833471,20.3572111 24.069863,24.069863 C21.635848,26.5048741 18.3340173,27.8729329 14.8910959,27.8729329 C11.4481745,27.8729329 8.14634377,26.5048741 5.71232877,24.069863 Z M23.6424658,23.6589041 C28.4530696,18.8209791 28.4346347,11.0004355 23.6012761,6.1852436 C18.7679176,1.37005174 10.9473599,1.38106661 6.12758441,6.20985443 C1.3078089,11.0386423 1.31140373,18.8592068 6.13561644,23.6835616 C8.45920147,26.0032127 11.6091826,27.3046828 14.892446,27.3015999 C18.1757095,27.2985171 21.323241,25.9911338 23.6424658,23.6671233 L23.6424658,23.6589041 Z"/>
    <path d="M15.3041096,5.49452055 L16.6808219,6.28767123 L21.3369863,8.97534247 L22.7178082,9.77260274 C22.9639308,9.92898912 23.1175479,10.1962829 23.1287671,10.4876712 L23.1287671,12.0780822 L23.1287671,19.0643836 C23.1169202,19.3544989 22.9632913,19.6202769 22.7178082,19.7753425 L21.3410959,20.5479452 L16.6808219,23.2479452 L15.3041096,24.0452055 C15.177786,24.1130619 15.0365451,24.1483721 14.8931507,24.1479452 C14.7497352,24.1485459 14.6084522,24.1132252 14.4821918,24.0452055 L13.1013699,23.2479452 L8.44109589,20.5479452 L7.06027397,19.7506849 L7.1630137,19.569863 L7.26575342,19.3931507 L8.63013699,20.2027397 L13.290411,22.8945205 L14.6671233,23.6876712 C14.7298791,23.722093 14.8011949,23.7377825 14.8726027,23.7328767 C14.9440623,23.7385051 15.0155827,23.7227706 15.0780822,23.6876712 L16.4589041,22.8945205 L21.1150685,20.2027397 L22.4958904,19.4054795 C22.6135498,19.3241052 22.688864,19.1945648 22.7013699,19.0520548 L22.7013699,17.4575342 L22.7013699,10.4712329 C22.6900535,10.3272418 22.6146073,10.1959653 22.4958904,10.1136986 L21.1150685,9.31643836 L16.4753425,6.64520548 L15.0945205,5.84794521 C15.0305877,5.81677718 14.9601518,5.8012813 14.8890411,5.80273973 C14.8179764,5.80174191 14.7476461,5.81721459 14.6835616,5.84794521 L13.3027397,6.64520548 L8.63013699,9.33287671 L7.24931507,10.130137 C7.1335062,10.2150407 7.05889441,10.3448652 7.04383562,10.4876712 L7.04383562,12.0780822 L7.04383562,19.0643836 C7.06000004,19.2057068 7.13449707,19.3338417 7.24931507,19.4178082 L7.14657534,19.5945205 L7.04383562,19.7753425 C6.79674907,19.6218243 6.64258242,19.355116 6.63287671,19.0643836 L6.63287671,17.4575342 L6.63287671,10.4712329 C6.64122422,10.1790263 6.79556035,9.91048143 7.04383562,9.75616438 L8.42465753,8.95890411 L13.0972603,6.28767123 L14.4780822,5.49452055 C14.6037388,5.42495531 14.7454311,5.38953224 14.8890411,5.39178082 C15.0326511,5.38953224 15.1743434,5.42495531 15.3,5.49452055 L15.3041096,5.49452055 Z"/>
    <path d="M8.09178082,21.5671233 C4.33819089,17.8131827 4.33838037,11.727156 8.09220405,7.97344921 C11.8460277,4.2197424 17.9320545,4.2197424 21.6858781,7.97344921 C25.4397018,11.727156 25.4398913,17.8131827 21.6863014,21.5671233 C17.9314415,25.319126 11.8466407,25.319126 8.09178082,21.5671233 Z M21.369863,21.2671233 C24.9346933,17.689704 24.9278908,11.9008105 21.3546629,8.33177895 C17.781435,4.76274741 11.9925376,4.76274741 8.41930967,8.33177895 C4.84608177,11.9008105 4.83927935,17.689704 8.40410959,21.2671233 C10.1224462,22.988427 12.4547924,23.9556951 14.8869863,23.9556951 C17.3191802,23.9556951 19.6515264,22.988427 21.369863,21.2671233 Z"/>
  </g>
</svg>
