<svg xmlns="http://www.w3.org/2000/svg" width="32" height="28" viewBox="0 0 32 28">
  <path fill-rule="evenodd" d="M24.6328889,17.0856 L24.6328889,16.4766 C24.6328889,16.2106 24.6371556,15.9012 24.6471111,15.547 C24.6563556,15.1921 24.6734222,14.8001 24.6968889,14.3696 C24.7210667,13.9398 24.7523556,13.4932 24.7914667,13.0298 C24.8099556,12.803 24.8483556,12.4208 24.9052444,11.8818 C24.9642667,11.3428 25.0403556,10.7373 25.1370667,10.066 C25.2295111,9.394 25.3504,8.701 25.4926222,7.9814 C25.6348444,7.2632 25.8055111,6.6059 25.9975111,6.0102 C26.1895111,5.4152 26.4099556,4.9252 26.6588444,4.5423 C26.9077333,4.1573 27.1850667,3.9683 27.4908444,3.9683 C27.6615111,3.9683 27.7966222,4.0663 27.8819556,4.2623 C27.9744,4.4583 28.0170667,4.8153 28.0170667,5.3263 C28.0170667,5.7113 27.9886222,6.2363 27.9317333,6.9013 C27.8819556,7.3983 27.7966222,7.9303 27.6757333,8.4903 C27.5548444,9.0433 27.4126222,9.6173 27.2490667,10.1913 C27.0855111,10.7653 26.9006222,11.3393 26.7086222,11.9133 C26.5095111,12.4873 26.3175111,13.0333 26.1255111,13.5513 C25.6632889,14.7693 25.1584,15.9943 24.6108444,17.2263 L24.6108444,17.0863 L24.6321778,17.0814 L24.6328889,17.0856 Z M16.9201778,22.7276 C17.6384,18.8846 19.9665778,18.0936 21.0773333,17.9368 C21.1299556,20.1782 21.3774222,22.2733 21.8112,23.8714 C20.9080889,26.3494 16.2616889,27.3434 16.9201778,22.7276 Z M9.15342222,6.3224 C10.1560889,4.5654 10.6624,5.9304 10.6730667,6.776 C10.6730667,7.0791 10.5877333,7.4662 10.4241778,7.938 C10.2606222,8.4119 10.0544,8.9201 9.80551111,9.464 C9.55662222,10.0072 9.27217778,10.5602 8.95928889,11.123 C8.66773333,11.6494 8.38328889,12.1401 8.11306667,12.5958 L7.18151111,12.5839 C7.35217778,11.8048 8.22684444,7.9289 9.14417778,6.3224 L9.15128889,6.3224 L9.15342222,6.3224 Z M31.104,23.8378 C29.8595556,22.4896 29.2622222,22.8116 28.6321778,23.3646 C28.0042667,23.9155 26.5059556,25.5276 25.4748444,23.8091 C24.4437333,22.092 25.9214222,18.403 26.1774222,17.8451 C26.4903111,17.1626 29.7827556,10.4202 30.3729778,8.0892 C30.7761778,6.5002 31.5448889,2.0132 29.2992,1.0262 C27.2654222,0.1302 25.4364444,0.8652 22.9902222,5.908 C21.8936889,8.169 21.2785778,11.6305 21.1128889,15.0934 C20.1045333,15.1879 16.0028444,15.862 14.2392889,20.6374 C14.1155556,20.9734 14.0188444,21.2933 13.9434667,21.5992 C13.4542222,23.0062 12.7075556,23.8063 11.6963556,24.4034 C10.5692444,25.0684 9.38168889,25.2714 8.49066667,25.0698 C6.38933333,24.5952 6.5472,20.307 6.5472,20.307 C6.5472,19.7239 6.59484444,19.3095 6.61404444,19.152 C6.79182222,17.7002 7.70915556,16.6754 7.98648889,16.3114 C8.27093333,15.9474 8.55537778,15.5764 8.83271111,15.1984 C8.83271111,15.1984 8.9536,15.0493 9.16693333,14.7714 L14.4718222,15.0598 C15.1473778,15.0388 15.3109333,14.553 15.3749333,14.1778 C15.4389333,13.8047 15.4176,13.5513 15.4176,13.5513 C15.4104889,13.1733 15.1616,12.6833 14.3509333,12.6693 L10.6460444,12.6203 C10.9020444,12.2213 11.1651556,11.7803 11.4353778,11.3043 C11.7553778,10.7583 12.0184889,10.2123 12.2531556,9.6803 C12.4878222,9.1483 12.6656,8.6233 12.8007111,8.1053 C12.9358222,7.5873 13.0069333,7.0973 13.0069333,6.6353 C13.0069333,6.0823 12.9429333,5.5573 12.8149333,5.0533 C12.6869333,4.5493 12.5020444,4.1013 12.2602667,3.7233 C12.0256,3.3453 11.7340444,3.0373 11.3927111,2.8133 C11.0513778,2.5823 10.6744889,2.4703 10.2620444,2.4703 C9.61777778,2.4703 9.00337778,2.7503 8.41742222,3.3103 C7.83217778,3.8703 7.29244444,4.6193 6.79608889,5.5503 C6.28408889,6.4953 5.83608889,7.5593 5.43786667,8.7563 C5.16977778,9.5613 4.91662222,10.4853 4.70115556,11.3883 C4.70115556,11.3883 4.57031111,11.8153 4.39537778,12.5328 L0.675555556,12.502 C0.256,12.5139 -0.0106666667,12.8275 0.00142222222,13.2048 L0.132266667,13.6556 C0.274488889,14.0511 0.489955556,14.2177 0.846222222,14.3185 L3.96231111,14.4879 C3.25475556,18.2721 2.72071111,24.5147 6.15253333,27.1551 C6.18951111,27.1845 6.23786667,27.2216 6.28053333,27.2503 C8.23751111,28.5943 11.5370667,28.0133 14.0188444,24.7443 C14.8096,26.964 17.0666667,27.72 17.0666667,27.72 C17.0666667,27.72 19.9992889,28.819 22.4853333,25.6452 L22.4853333,25.6501 C24.4785778,29.3286 27.2391111,27.4771 28.0696889,27.0823 C28.9016889,26.6903 30.7434667,25.3883 30.7434667,25.3883 C31.7084444,24.7233 31.1061333,23.8343 31.1061333,23.8343 L31.104,23.8343 L31.104,23.8378 Z"/>
</svg>
