<svg xmlns="http://www.w3.org/2000/svg" width="26" height="40" viewBox="0 0 26 40">
  <g fill="none" opacity=".9">
    <path fill="#D5D5E0" d="M23.8377459,22.5345109 C23.0293952,20.8145872 21.8942644,18.7963093 22.1694477,16.6551798 C22.2382434,16.1111223 22.410233,15.6021652 22.7370131,15.1985097 C21.9286624,16.0584715 20.9311232,16.8131319 19.8303903,17.3922899 C19.4864113,17.5677924 19.1424323,17.7257445 18.7812543,17.8836967 C17.7665162,18.3926538 16.9581655,18.9542615 16.3046054,19.5334195 C13.999946,21.5867978 11.7984803,27.325727 7.96311424,28.413842 C7.96311424,28.413842 7.96311424,28.413842 7.96311424,28.413842 C7.48154362,28.6244449 6.91397824,28.7823971 6.27761709,28.7648468 C4.66091568,28.7472966 2.76903109,27.6767318 1.75429298,26.0621095 C0.257984263,23.6577264 0.705156984,20.3582809 1.71989509,18.2522518 C1.68549719,18.3224528 1.65109929,18.3751035 1.63390033,18.4453045 C1.39311502,18.9542615 1.15232971,19.5509697 0.911544394,20.2705296 C0.911544394,20.2705296 0.911544394,20.2705296 0.911544394,20.2705296 C0.378376919,21.8149509 0.103193705,23.4997742 0.103193705,25.2372482 C0.103193705,33.2752591 6.20882126,39.8039491 13.7419617,39.8039491 C15.6682442,39.8039491 18.7296575,39.2072409 21.2579033,37.4171162 C22.0834529,36.820408 24.2849186,35.0478335 25.1448662,31.8010387 C26.1424053,27.8522342 25.0072745,25.0266453 23.8377459,22.5345109 Z"/>
    <path fill="#A6A5B7" d="M8.94345446,27.8171338 C8.68547016,28.0277366 8.35869014,28.2383396 7.96311424,28.413842 C7.96311424,28.413842 7.96311424,28.413842 7.96311424,28.413842 C11.7984803,27.325727 13.999946,21.5867978 16.3046054,19.5334195 C16.9581655,18.9542615 17.7493173,18.3926538 18.7812543,17.8836967 C17.6289246,18.340003 16.4077991,18.6032566 15.1178778,18.6032566 C11.7296845,18.6032566 8.63387333,16.7604812 6.81078453,14.3911985 C6.98277407,14.6369019 9.04664817,17.1114861 10.6461506,22.0606544 C11.3341086,24.2193341 10.5429569,26.5535164 8.94345446,27.8171338 Z"/>
    <path fill="#E4E4EA" d="M25.0760704,10.4774945 C24.7148924,14.3911985 20.2087673,18.6032566 15.1006788,18.6032566 C9.95819257,18.6032566 5.48646532,14.3736483 5.12528736,10.4774945 C4.86730309,7.73965676 6.38081074,4.15940738 15.1006788,4.15940738 C23.8205469,4.15940738 25.3340546,7.73965676 25.0760704,10.4774945 Z"/>
    <path fill="#A6A5B7" d="M23.3733742,0.0175502421 C22.5134267,1.77257445 22.2382434,3.75575182 22.5650235,5.65117796 C22.7714109,5.77402966 22.9605994,5.89688135 23.1325889,6.01973306 C24.852484,7.28335047 25.213662,9.00327424 25.0760704,10.4599443 C25.0416725,10.8987004 24.9384788,11.3550066 24.8008872,11.7937627 C25.9704158,8.56451818 25.8156252,5.07201998 24.5257039,2.10602905 C24.1989238,1.38646913 23.8205469,0.684459441 23.3733742,0.0175502421 Z"/>
    <path fill="#3D3952" d="M22.5650235,5.65117796 C22.2382434,3.75575182 22.4962278,1.77257445 23.3733742,0.0175502421 C22.8058088,0.368555085 22.2554424,0.772210653 21.7566728,1.22851695 C20.7763327,2.1235793 19.950783,3.24679479 19.3488197,4.51041222 C19.7271966,4.58061319 20.0883746,4.66836441 20.4323536,4.77366586 C21.2751022,5.00181901 21.9802592,5.31772336 22.5650235,5.65117796 Z"/>
    <path fill="#A6A5B7" d="M6.86238141,0.0175502421 C7.72232893,1.77257445 7.99751218,3.75575182 7.6707321,5.65117796 C7.46434468,5.77402966 7.2751562,5.89688135 7.10316672,6.01973306 C5.38327162,7.28335047 5.02209365,9.00327424 5.15968526,10.4599443 C5.19408316,10.8987004 5.29727686,11.3550066 5.43486847,11.7937627 C4.26533981,8.56451818 4.42013037,5.07201998 5.71005168,2.10602905 C6.01963278,1.38646913 6.41520868,0.684459441 6.86238141,0.0175502421 Z"/>
    <path fill="#3D3952" d="M8.47908279,1.22851695 C7.98031318,0.772210653 7.4299468,0.368555085 6.86238141,0.0175502421 C7.72232893,1.77257445 7.99751218,3.75575182 7.6707321,5.65117796 C8.25549643,5.30017312 8.9606534,5.00181901 9.82060092,4.77366586 C10.1645799,4.68591465 10.5257579,4.59816344 10.9041349,4.51041222 C10.2849726,3.22924455 9.45942296,2.1235793 8.47908279,1.22851695 Z"/>
    <g transform="translate(6.192 8.073)">
      <path fill="#3D3952" d="M17.7149194,1.22851695 C17.6117257,0.719559929 17.3709404,0.315904358 16.8549719,0.193052664 C15.4962547,-0.122851695 12.2112551,1.91297639 10.3537684,2.87823971 C9.66581038,3.24679479 9.28743348,3.42229721 8.92625552,3.40474697 C8.54787856,3.42229721 8.1867006,3.24679479 7.49874256,2.87823971 C5.64125588,1.91297639 2.35625627,-0.140401937 0.997539152,0.193052664 C0.481570624,0.315904358 0.240785312,0.702009682 0.137591607,1.22851695 C-0.0343979017,2.14112954 0.20638741,4.38756053 1.84028774,6.05483353 C3.06141325,7.30090071 4.71251254,7.89760894 6.08842861,8.28371429 C6.10562755,8.28371429 6.10562755,8.30126453 6.12282649,8.30126453 C6.10562755,8.35391524 6.10562755,8.406566 6.10562755,8.45921671 C6.10562755,9.03837471 6.7591877,9.494681 7.58473733,9.494681 C7.98031318,9.494681 8.68547016,9.37182929 8.94345446,9.19632688 C9.20143871,9.38937953 9.90659569,9.494681 10.3021716,9.494681 C11.1105223,9.494681 11.7812813,9.02082447 11.7812813,8.45921671 C11.7812813,8.406566 11.7812813,8.35391524 11.7640824,8.30126453 C11.7812813,8.30126453 11.7812813,8.28371429 11.7984803,8.28371429 C13.1743964,7.89760894 14.8254956,7.30090071 16.0466211,6.05483353 C17.6633226,4.38756053 17.8869089,2.14112954 17.7149194,1.22851695 Z"/>
      <path fill="#FFF" d="M6.84518247,5.17732143 C5.0048947,7.19559929 2.11547096,5.47567554 1.65109929,3.05374213 C1.34151817,1.45667009 2.27026151,1.70237349 3.14740801,2.05337833 C4.23094191,2.50968462 5.72725064,3.58024939 6.84518247,5.17732143 Z"/>
      <path fill="#2F273D" d="M4.28253876,3.93125424 C4.28253876,4.4577615 4.14494716,4.93161804 3.90416184,5.33527361 C3.66337653,4.94916828 3.52578492,4.4577615 3.52578492,3.93125424 C3.52578492,3.40474697 3.66337653,2.93089044 3.90416184,2.52723486 C4.14494716,2.91334019 4.28253876,3.40474697 4.28253876,3.93125424 Z"/>
      <path fill="#171320" d="M8.92625552,7.16049876 C8.5822765,7.14294853 8.20389954,7.24825 7.84272158,7.59925482 C9.27023454,8.51186741 8.5822765,8.51186741 9.99259046,7.59925482 C9.6314125,7.23069976 9.25303554,7.12539829 8.92625552,7.16049876 Z"/>
      <path fill="#FFF" d="M11.0761243,5.17732143 C12.9164121,7.19559929 15.8058358,5.47567554 16.2702075,3.05374213 C16.5797886,1.45667009 15.6510453,1.70237349 14.7738988,2.05337833 C13.6731659,2.50968462 12.1768572,3.58024939 11.0761243,5.17732143 Z"/>
      <path fill="#2F273D" d="M13.6215691,3.93125424 C13.6215691,4.4577615 13.7591607,4.93161804 13.999946,5.33527361 C14.2407313,4.94916828 14.3783229,4.4577615 14.3783229,3.93125424 C14.3783229,3.40474697 14.2407313,2.93089044 13.999946,2.52723486 C13.7591607,2.91334019 13.6215691,3.40474697 13.6215691,3.93125424 Z"/>
    </g>
    <path fill="#3D3952" d="M1.75429298,26.0621095 C2.76903109,27.6767318 4.64371673,28.7648468 6.27761709,28.7648468 C6.79358559,28.7648468 7.2751562,28.6770956 7.68793104,28.5191435 C7.68793104,28.5191435 7.68793104,28.5191435 7.68793104,28.5191435 C5.10808841,29.2562536 4.36853352,24.0964824 5.81324542,20.9549891 C6.00243384,20.3582809 6.2260202,19.8493238 6.39800974,19.4105678 C6.46680551,19.2526156 6.82798347,18.5155055 6.7591877,17.6906441 C6.62159611,16.1111223 4.35133457,14.6544522 2.63143948,16.742931 C2.33905732,17.1114861 2.0294762,17.6028928 1.70269614,18.2698021 C0.687958036,20.3933814 0.275183214,23.6752766 1.75429298,26.0621095 Z"/>
  </g>
</svg>
