<svg xmlns="http://www.w3.org/2000/svg" width="30" height="30" viewBox="0 0 30 30">
  <g fill="none">
    <circle cx="14.833" cy="14.833" r="14.833" fill="#E1393F"/>
    <path fill="#FFF" d="M15.8333333,5.875 L13.75,5.875 L13.75,16.2916667 L15.8333333,16.2916667 L15.8333333,5.875 Z M14.7916667,22.5416667 C11.1370114,22.5327011 8.05352949,19.8196077 7.57948693,16.1958157 C7.10544436,12.5720236 9.3872923,9.15707023 12.9166667,8.20833333 L12.9166667,10.375 C10.576159,11.2781359 9.21204632,13.7214457 9.67137922,16.1877474 C10.1307121,18.654049 12.2829557,20.4424599 14.7916667,20.4424599 C17.3003776,20.4424599 19.4526212,18.654049 19.9119541,16.1877474 C20.371287,13.7214457 19.0071743,11.2781359 16.6666667,10.375 L16.6666667,8.20833333 C20.196041,9.15707023 22.477889,12.5720236 22.0038464,16.1958157 C21.5298038,19.8196077 18.4463219,22.5327011 14.7916667,22.5416667 Z"/>
  </g>
</svg>
