<svg xmlns="http://www.w3.org/2000/svg" width="50" height="50" viewBox="0 0 50 50">
  <g fill="none" fill-rule="evenodd">
    <circle cx="25" cy="25" r="25" fill="#0A4759"/>
    <path fill="#FFFFFE" fill-rule="nonzero" d="M39.176875,21.18375 C39.54125,23.160625 39.68125,28.130625 39.68125,33.004375 C39.68125,37.2375 32.225,40 24.840625,40 C17.4525,40 10,37.2375 10,33.004375 C10,28.130625 10.13625,23.160625 10.504375,21.18375 C10.845,19.3375 18.65875,17.97375 23.77375,17.798125 L23.77375,14.256875 C23.000625,13.91625 22.455,13.134375 22.455,12.221875 C22.455,10.995625 23.44,10 24.653125,10 C25.869375,10 26.854375,10.995625 26.854375,12.221875 C26.854375,13.134375 26.309375,13.91625 25.5325,14.256875 L25.5325,17.7875 C30.63,17.908125 38.825625,19.2925 39.176875,21.18375 Z M28.64,37.936875 C29.06625,37.70625 29.2225,37.165625 28.994375,36.735 C28.7625,36.300625 28.2275,36.1425 27.801875,36.376875 C27.788125,36.38 26.62625,36.989375 24.83,36.989375 C23.05125,36.989375 21.91,36.390625 21.879375,36.376875 C21.453125,36.1425 20.921875,36.300625 20.69,36.728125 C20.455,37.15875 20.61125,37.699375 21.0375,37.936875 C21.09875,37.97125 22.560625,38.766875 24.83,38.766875 C27.09625,38.766875 28.575625,37.97125 28.64,37.936875 Z M13.206875,30.610625 C13.206875,33.373125 15.421875,35.611875 18.15125,35.611875 C20.884375,35.611875 23.099375,33.373125 23.099375,30.610625 C23.099375,27.84875 20.884375,25.609375 18.15125,25.609375 C15.421875,25.609375 13.206875,27.84875 13.206875,30.610625 Z M31.52625,35.611875 C34.259375,35.611875 36.474375,33.373125 36.474375,30.610625 C36.474375,27.84875 34.259375,25.609375 31.52625,25.609375 C28.793125,25.609375 26.578125,27.84875 26.578125,30.610625 C26.578125,33.373125 28.793125,35.611875 31.52625,35.611875 Z"/>
    <path fill="#FFFFFE" fill-rule="nonzero" d="M19.251875 32.8325C18.645625 32.8325 18.15125 32.333125 18.15125 31.723125 18.15125 31.11 18.645625 30.610625 19.251875 30.610625 19.85875 30.610625 20.3525 31.11 20.3525 31.723125 20.3525 32.333125 19.85875 32.8325 19.251875 32.8325zM18.15125 27.276875C16.335 27.276875 14.85625 28.77125 14.85625 30.610625 14.85625 32.45 16.335 33.945 18.15125 33.945 19.970625 33.945 21.45 32.45 21.45 30.610625 21.45 28.77125 19.970625 27.276875 18.15125 27.276875zM32.6246131 32.8325C32.0185766 32.8325 31.5243757 32.333125 31.5243757 31.723125 31.5243757 31.11 32.0185766 30.610625 32.6246131 30.610625 33.2312745 30.610625 33.7248507 31.11 33.7248507 31.723125 33.7248507 32.333125 33.2312745 32.8325 32.6246131 32.8325zM31.5243757 27.276875C29.7087651 27.276875 28.2305357 28.77125 28.2305357 30.610625 28.2305357 32.45 29.7087651 33.945 31.5243757 33.945 33.3431101 33.945 34.8219643 32.45 34.8219643 30.610625 34.8219643 28.77125 33.3431101 27.276875 31.5243757 27.276875z"/>
  </g>
</svg>
