<svg xmlns="http://www.w3.org/2000/svg" width="30" height="29" viewBox="0 0 30 29">
  <g fill="none" opacity=".8">
    <path fill="#EAEAEA" d="M28.8,10.2924783 C28.7859385,10.126149 28.7652843,9.96042766 28.7380851,9.79569565 C28.4656713,9.57460798 28.1741258,9.37757575 27.8668085,9.20686957 C27.5267857,9.01287043 27.1769699,8.83611928 26.8187234,8.67730435 C26.4591757,8.5125145 26.094988,8.35778616 25.7265957,8.21330435 C25.542766,8.13954348 25.3570213,8.06830435 25.1706383,7.99958696 C24.9848936,7.92771739 24.797234,7.86152174 24.6089362,7.79343478 C25.0034954,7.86050448 25.3949265,7.94443104 25.7821277,8.04497826 C26.0342553,8.10928261 26.2851064,8.18178261 26.5346809,8.25869565 C24.7614894,3.683 20.5219149,0.702304348 15.893617,0.702304348 C11.2646809,0.702304348 7.02574468,3.683 5.25319149,8.25995652 C5.50276596,8.18304348 5.75361702,8.11117391 6.00510638,8.04623913 C6.39248119,7.94552205 6.78413233,7.86159396 7.17893617,7.79469565 C6.99,7.86215217 6.80297872,7.92897826 6.61659574,8.00084783 C6.43085106,8.06893478 6.24510638,8.14080435 6.0606383,8.21456522 C5.69170213,8.36145652 5.32659574,8.51213043 4.96851064,8.67856522 C4.60978723,8.83995652 4.25744681,9.01395652 3.92106383,9.20813043 C3.61085106,9.38465217 3.31276596,9.57882609 3.04914894,9.79695652 C3.02216338,9.96169691 3.00172218,10.1274182 2.98787234,10.2937391 C2.9706383,10.4885435 2.96361702,10.6846087 2.96170213,10.8806739 C2.95787234,11.2728043 2.98468085,11.6649348 3.03510638,12.0532826 C3.0893617,12.4422609 3.16148936,12.8293478 3.2687234,13.2031957 C3.32058659,13.3892963 3.38107585,13.5729463 3.45,13.7535652 C3.50150012,13.885098 3.55900585,14.0142594 3.62234043,14.1406522 L3.64723404,14.1879348 L3.73595745,14.2314348 L3.91212766,14.3146522 C4.01042553,14.3587826 4.14638298,14.4224565 4.2587234,14.4722609 C4.26512516,14.4672896 4.2711027,14.4618074 4.27659574,14.4558696 L3.94914894,13.2252609 C4.0187234,13.2063478 4.63978723,13.0481087 5.71021277,12.847 C5.37634716,12.7842502 5.04932545,12.6900966 4.73361702,12.5658261 C4.61778188,12.5185448 4.50482563,12.4646569 4.39531915,12.4044348 C4.28429726,12.3463384 4.18361355,12.2707444 4.09723404,12.1806304 C5.27361702,12.5595217 7.70425532,12.3880435 9.86489362,12.1673913 C11.8410638,11.9662826 13.8217021,11.8357826 15.8125532,11.832 C17.8040426,11.8357826 19.7853191,11.9662826 21.7602128,12.1673913 C23.9221277,12.3880435 26.352766,12.5595217 27.5285106,12.1806304 C27.4423092,12.2709402 27.3415908,12.3465603 27.2304255,12.4044348 C27.1219149,12.4649565 27.0082979,12.5172826 26.892766,12.5658261 C26.6593213,12.6578875 26.4195736,12.7335184 26.1753191,12.7921522 C26.1389362,12.8009783 26.1025532,12.8085435 26.0668085,12.8161087 C27.2406383,13.031087 27.9242553,13.2063478 27.9976596,13.2252609 L27.6848936,14.3978696 C27.7480851,14.3701304 27.8112766,14.3430217 27.8738298,14.3146522 L28.05,14.2314348 L28.1387234,14.1879348 L28.1629787,14.1406522 C28.2266228,14.0143137 28.2843435,13.885148 28.3359574,13.7535652 C28.4048936,13.5751522 28.4648936,13.3904348 28.5178723,13.2031957 C28.6251064,12.8293478 28.697234,12.4428913 28.7514894,12.0532826 C28.8288125,11.4695486 28.8450685,10.8795017 28.8,10.2924783 Z"/>
    <path fill="#F4F4F4" d="M17.2282979,26.5696739 C17.0735221,26.5936107 16.9178766,26.6116964 16.7617021,26.6238913 C16.6621277,26.6289348 16.5561702,26.6383913 16.4604255,26.6383913 L16.4246809,26.6390217 C16.5453191,26.3736087 16.6365957,26.1674565 16.7055319,26.0117391 C16.8465957,26.168087 17.0259574,26.361 17.2282979,26.5696739 Z M17.567234,26.9101087 C18.0320307,27.3735803 18.6510585,27.655094 19.3097872,27.7025652 C18.3662893,28.0787144 17.3683626,28.3046951 16.3531915,28.372087 C15.5405298,28.4203864 14.7254176,28.33387 13.9417021,28.1161304 C13.9996851,28.1052129 14.0580142,28.0961718 14.1165957,28.0890217 C14.1823404,28.0814565 15.6108511,27.8973696 16.2548936,26.9517174 L16.3155319,26.9529783 L16.4738298,26.9517174 C16.5810638,26.9517174 16.6780851,26.9428913 16.7802128,26.9391087 C17.0200484,26.9186321 17.258516,26.8847444 17.4944681,26.8376087 C17.5174468,26.8615652 17.5417021,26.8855217 17.567234,26.9101087 Z"/>
    <path fill="#939393" d="M18.9376596,12.7480217 L18.7844681,12.9421957 C18.432713,13.3828071 18.0514317,13.7996195 17.6431915,14.1898261 C16.1823848,14.1451226 14.7203474,14.1585828 13.2606383,14.2301739 C14.477234,13.7315 15.9389362,13.2441739 17.5219149,12.9516522 C17.9906411,12.8636736 18.4629963,12.7957335 18.9376596,12.7480217 Z M11.8168085,13.286413 C11.3180971,13.6310795 10.8496358,14.0165846 10.416383,14.4388478 C9.36014346,14.5427526 8.30732288,14.6781476 7.2593617,14.8448478 C8.60680851,14.2333261 10.1451064,13.6697174 11.8168085,13.286413 Z M26.6987234,15.7696957 L26.2034043,19.193587 L23.8302128,20.8352391 L17.6406383,20.1405 L16.7087234,17.11 C16.6864577,17.0363017 16.6234674,16.9816805 16.5465957,16.969413 C16.3479403,16.9354722 16.1469022,16.9169229 15.9453191,16.9139348 C15.7755319,16.9139348 15.5731915,16.9328478 15.342766,16.969413 C15.2660297,16.9819637 15.2031707,17.036471 15.1806383,17.11 L14.2717021,20.0667391 L8.11659574,21.4196522 L5.67765957,19.7319783 L5.19702128,15.8901087 C5.30170213,15.8314783 5.40765957,15.7734783 5.51553191,15.7154783 C5.66617021,15.6833261 5.83595745,15.6492826 6.02425532,15.6139783 L6.47744681,19.2389783 C6.48446809,19.2957174 6.51638298,19.3461522 6.56297872,19.3789348 L8.24106383,20.5401957 C8.2881525,20.5717812 8.34636734,20.5827331 8.40191489,20.5704565 L13.4623404,19.4583696 C13.5339665,19.4429879 13.5914423,19.3903267 13.6123404,19.3209348 L14.5238298,16.3572609 C14.7682979,16.2948478 15.3944681,16.1504783 15.9446809,16.1504783 C16.493617,16.1504783 17.1204255,16.2948478 17.3648936,16.3572609 L18.276383,19.3209348 C18.3002583,19.3976863 18.3679424,19.4531474 18.4487234,19.4621522 L23.5091489,20.0301739 C23.5583385,20.035554 23.6078236,20.0229988 23.6482979,19.9948696 L25.3270213,18.8342391 C25.3727709,18.8019495 25.4030197,18.7524601 25.4106383,18.6974348 L25.8587234,15.6001087 C26.196383,15.664413 26.4778723,15.722413 26.6987234,15.7696957 Z M27.3242553,13.6224348 L26.8882979,15.2546304 C25.997234,15.0604565 24.0402128,14.6796739 21.3759574,14.4237174 C22.2465957,14.0574348 23.1325532,13.5972174 23.9425532,13.0228913 C25.5274468,13.2441739 26.6917021,13.4812174 27.3242553,13.6224348 Z"/>
    <path fill="#E5CBA4" d="M3.09446809,4.22958696 C3.43978723,4.0455 3.82978723,4.0726087 4.44,4.07386957 C4.50574468,4.07576087 4.57276596,4.0745 4.64361702,4.07323913 L4.82808511,4.07008696 C5.45680851,4.06378261 5.98021277,4.12304348 5.9706383,3.14776087 C5.96106383,2.17247826 5.52255319,1.38380435 4.89382979,1.3901087 C4.26510638,1.39515217 3.65617021,2.19454348 3.69382979,3.16919565 C3.70404255,3.42326087 3.74170213,3.60608696 3.80234043,3.73847826 C3.25404255,3.87402174 3.10276596,4.20878261 3.09446809,4.22958696 Z M10.656383,0.2175 C10.4125532,0.412304348 10.1553191,0.595130435 9.88787234,0.754 L8.99553191,1.28608696 C8.43574468,1.35354348 7.95,1.49034783 7.92255319,1.49791304 C7.85627278,1.51688678 7.80417373,1.56763263 7.78404255,1.63282609 L6.87510638,4.59082609 L2.01702128,5.65815217 L0.487021277,4.59965217 L0.0421276596,1.03769565 C1.17831625,0.833721897 2.32134861,0.66886848 3.46914894,0.543434783 C3.31978723,0.720586957 3.17425532,0.905934783 3.03638298,1.10073913 L2.20531915,2.27902174 L3.41553191,1.48215217 C3.43340426,1.46954348 4.20382979,0.968978261 5.46446809,0.359978261 C7.19187936,0.231956842 8.92443949,0.184411349 10.656383,0.2175 Z M15.9759574,3.8298913 C15.9695745,3.80656522 15.8374468,3.41443478 15.252766,3.48315217 C15.3204255,3.33815217 15.3504255,3.14271739 15.3287234,2.87415217 C15.2514894,1.90076087 14.6782979,1.12721739 14.0502128,1.14928261 C13.4221277,1.17134783 13.0193617,1.97767391 13.0538298,2.95358696 C13.0882979,3.92823913 13.6161702,3.92130435 14.2442553,3.89986957 C15.0887234,3.8841087 15.552766,3.62815217 15.9759574,3.8298913 Z M19.0768085,1.02697826 L18.6382979,4.05558696 L17.0955319,5.12228261 L12.2438298,4.57758696 L11.3387234,1.63345652 C11.3182868,1.56844613 11.2663121,1.51782138 11.2002128,1.49854348 C10.7852319,1.38508412 10.3611014,1.30725118 9.93255319,1.26591304 L10.0487234,1.25834783 C10.1495745,1.25141304 11.8225532,1.04841304 13.8210638,0.368173913 C16.0340426,0.535869565 17.8410638,0.805065217 19.0768085,1.02697826 Z" transform="translate(6.383 14.5)"/>
    <path fill="#F4F4F4" d="M3.09446809,4.22958696 C3.43978723,4.0455 3.82978723,4.0726087 4.44,4.07386957 C4.50574468,4.07576087 4.57276596,4.0745 4.64361702,4.07323913 L4.82808511,4.07008696 C5.45680851,4.06378261 5.98021277,4.12304348 5.9706383,3.14776087 C5.96106383,2.17247826 5.52255319,1.38380435 4.89382979,1.3901087 C4.26510638,1.39515217 3.65617021,2.19454348 3.69382979,3.16919565 C3.70404255,3.42326087 3.74170213,3.60608696 3.80234043,3.73847826 C3.25404255,3.87402174 3.10276596,4.20878261 3.09446809,4.22958696 Z M10.656383,0.2175 C10.4125532,0.412304348 10.1553191,0.595130435 9.88787234,0.754 L8.99553191,1.28608696 C8.43574468,1.35354348 7.95,1.49034783 7.92255319,1.49791304 C7.85627278,1.51688678 7.80417373,1.56763263 7.78404255,1.63282609 L6.87510638,4.59082609 L2.01702128,5.65815217 L0.487021277,4.59965217 L0.0421276596,1.03769565 C1.17831625,0.833721897 2.32134861,0.66886848 3.46914894,0.543434783 C3.31978723,0.720586957 3.17425532,0.905934783 3.03638298,1.10073913 L2.20531915,2.27902174 L3.41553191,1.48215217 C3.43340426,1.46954348 4.20382979,0.968978261 5.46446809,0.359978261 C7.19187936,0.231956842 8.92443949,0.184411349 10.656383,0.2175 Z M15.9759574,3.8298913 C15.9695745,3.80656522 15.8374468,3.41443478 15.252766,3.48315217 C15.3204255,3.33815217 15.3504255,3.14271739 15.3287234,2.87415217 C15.2514894,1.90076087 14.6782979,1.12721739 14.0502128,1.14928261 C13.4221277,1.17134783 13.0193617,1.97767391 13.0538298,2.95358696 C13.0882979,3.92823913 13.6161702,3.92130435 14.2442553,3.89986957 C15.0887234,3.8841087 15.552766,3.62815217 15.9759574,3.8298913 Z M19.0768085,1.02697826 L18.6382979,4.05558696 L17.0955319,5.12228261 L12.2438298,4.57758696 L11.3387234,1.63345652 C11.3182868,1.56844613 11.2663121,1.51782138 11.2002128,1.49854348 C10.7852319,1.38508412 10.3611014,1.30725118 9.93255319,1.26591304 L10.0487234,1.25834783 C10.1495745,1.25141304 11.8225532,1.04841304 13.8210638,0.368173913 C16.0340426,0.535869565 17.8410638,0.805065217 19.0768085,1.02697826 Z" transform="translate(6.383 14.5)"/>
    <path fill="#F4F4F4" d="M6.12446809,20.5326304 C6.15382979,20.6341304 6.18446809,20.7362609 6.21574468,20.8365 C5.90234043,20.9272826 5.26468085,21.0142826 4.97680851,20.9644783 C4.73744681,20.7268043 4.29191489,19.0895652 4.19425532,18.2201957 C4.11446809,17.516 4.1706383,17.3634348 4.24276596,17.3041739 C4.32702128,17.2341957 4.64234043,17.0570435 4.91489362,16.9126739 L5.28382979,19.869413 C5.29085106,19.9261522 5.32148936,19.976587 5.3693617,20.0093696 L6.12446809,20.5326304 Z M17.8959574,20.5736087 L17.873617,20.7621087 C17.873617,20.7621087 17.202766,21.3761522 16.1234043,21.513587 C15.0440426,21.6510217 14.1951064,20.9953696 14.1951064,20.9953696 C14.2308511,21.1094783 14.2806383,21.3666957 14.5251064,21.586087 C14.237234,21.5520435 13.9270213,21.5293478 13.6008511,21.5293478 C13.4834043,21.5293478 13.3640426,21.5325 13.2491489,21.5381739 C12.5846809,21.5722174 11.6502128,22.5645217 10.992766,23.5643913 C10.6704255,23.6652609 9.66191489,23.9811087 8.49510638,24.3215435 C7.40617021,22.8311957 6.8706383,21.3080652 6.81638298,21.1504565 L6.81702128,21.1498261 C6.79531915,21.0893043 6.77297872,21.0287826 6.75255319,20.9663696 L7.03276596,21.159913 L7.03276596,21.1605435 L7.72468085,21.6390435 L7.95574468,21.7985435 C8.0023569,21.8312195 8.0607875,21.8428991 8.11659574,21.8306957 L14.4753191,20.4323913 C14.5468142,20.4167621 14.604181,20.3642008 14.6253191,20.2949565 L15.5323404,17.3470435 C15.6887234,17.3262391 15.8265957,17.3155217 15.9440426,17.3155217 C16.0614894,17.3155217 16.1993617,17.3262391 16.356383,17.3470435 L17.2895745,20.3832174 C17.3129197,20.4600635 17.3805312,20.515671 17.4612766,20.5244348 L17.8959574,20.5736087 Z"/>
    <path fill="#F4F4F4" d="M25.1534043,20.4109565 L25.3589362,20.2684783 C25.3251064,20.4090652 25.2880851,20.5490217 25.2497872,20.687087 C24.9914621,21.5177316 24.65799,22.3237347 24.2534043,23.0953478 C24.1704255,23.1010217 24.083617,23.1041739 23.9897872,23.1041739 C23.7012766,23.1041739 23.406383,23.0802174 23.0802128,23.050587 C22.5140426,22.9995217 21.6153191,22.8973913 21.3312766,22.8652391 C20.7400588,22.4004713 20.1477167,21.9371004 19.5542553,21.4751304 L19.4802128,21.4146087 C19.3576596,21.3124783 19.2185106,21.1958478 18.936383,21.1958478 C18.6797872,21.1958478 18.3057447,21.2878913 17.4006383,21.5583478 C17.8710638,21.2109783 17.873617,20.7633696 17.873617,20.7633696 L17.8959574,20.5748696 L23.8608511,21.2443913 C23.9101529,21.2498199 23.9597835,21.2375091 24.0006383,21.2097174 L24.6,20.7948913 L25.1534043,20.4109565 Z"/>
    <path fill="#BCBCBC" d="M20.7638298,8.01534783 C20.7817021,8.53923913 20.7689362,9.48930435 20.5212766,10.3788478 C20.5120092,10.4120621 20.5120092,10.4471336 20.5212766,10.4803478 C20.2071694,10.4480183 19.8926784,10.4194365 19.5778723,10.3946087 C19.9308511,9.66393478 20.0080851,8.88597826 20.0246809,8.61173913 C20.2953191,8.42134783 20.5653191,8.19313043 20.7638298,8.01534783 Z M11.7631915,8.61173913 C11.7797872,8.88597826 11.856383,9.66267391 12.2093617,10.3927174 C11.8946809,10.4173043 11.5806383,10.4463043 11.2665957,10.479087 C11.2755384,10.4462576 11.2755384,10.4116772 11.2665957,10.3788478 C11.0195745,9.49119565 11.0074468,8.5405 11.0246809,8.01534783 C11.2225532,8.19313043 11.4912766,8.42134783 11.7631915,8.61173913 Z"/>
    <path fill="#464646" d="M22.3589362,18.3298913 C21.9357447,18.1281522 21.4717021,18.3841087 20.627234,18.3998696 C19.9991489,18.4219348 19.4712766,18.4282391 19.4368085,17.453587 C19.4023404,16.4783043 19.8044681,15.6713478 20.4331915,15.6492826 C21.0612766,15.6278478 21.6344681,16.4013913 21.7117021,17.3741522 C21.732766,17.642087 21.702766,17.8381522 21.6357447,17.9831522 C22.2204255,17.9144348 22.3525532,18.3065652 22.3589362,18.3298913 Z M20.3846809,16.9019565 C20.5612579,16.8981177 20.7013936,16.7538782 20.6979957,16.5794664 C20.6945979,16.4050546 20.5489478,16.2662464 20.372352,16.2691196 C20.1957562,16.2719927 20.054814,16.4154636 20.057234,16.5898913 C20.0604255,16.7651522 20.2065957,16.9051087 20.3846809,16.9019565 Z"/>
    <ellipse cx="20.378" cy="16.582" fill="#EEF7FA" rx="1" ry="1" transform="rotate(-1.049 20.378 16.582)"/>
    <path fill="#464646" d="M12.3529787,17.6471304 C12.3619149,18.622413 11.8391489,18.5637826 11.2104255,18.5694565 C11.1465957,18.5713478 11.0865957,18.5719783 11.0259574,18.5726087 C10.9581045,18.574702 10.8902054,18.5749122 10.8223404,18.5732391 C10.2121277,18.5726087 9.82212766,18.5455 9.47680851,18.7289565 C9.48510638,18.7081522 9.63638298,18.3733913 10.1846809,18.2372174 C10.1240426,18.1048261 10.086383,17.922 10.0761702,17.6679348 C10.0385106,16.6932826 10.6468085,15.8938913 11.2761702,15.8888478 C11.9048936,15.8831739 12.3434043,16.6718478 12.3529787,17.6471304 Z M11.3821277,17.1371087 C11.4995549,17.1381224 11.608174,17.0757355 11.6653586,16.9744314 C11.7225431,16.8731272 11.7191687,16.7490698 11.6565595,16.6509443 C11.5939503,16.5528189 11.4820963,16.4962822 11.3648936,16.5035217 C11.1923593,16.514179 11.059343,16.6578481 11.0639856,16.8285284 C11.0686283,16.9992086 11.2092628,17.1356165 11.3821277,17.1371087 Z"/>
    <ellipse cx="11.374" cy="16.821" fill="#EEF7FA" rx="1" ry="1" transform="rotate(-1.473 11.374 16.82)"/>
    <path fill="#BCBCBC" d="M0.53106383,3.45982609 C0.53106383,3.45982609 0.628723404,2.20336957 0.828510638,1.72171739 C0.931276596,1.47332609 1.56,1.31571739 2.04,1.20223913 C2.52,1.0893913 3.28531915,0.863695652 3.43404255,1.52943478 C3.58276596,2.19517391 3.82212766,2.6806087 3.98234043,2.89495652 L3.77680851,0.151934783 L0.473617021,0.941869565 L0.256595745,3.36904348 L0.359361702,3.56069565 L0.53106383,3.45982609 M17.243617,3.45982609 C17.243617,3.45982609 17.1459574,2.20336957 16.9468085,1.72171739 C16.8440426,1.47332609 16.2153191,1.31571739 15.7353191,1.20223913 C15.2553191,1.0893913 14.4893617,0.863695652 14.3406383,1.52943478 C14.1925532,2.19517391 13.9519149,2.6806087 13.7917021,2.89495652 L13.9978723,0.151934783 L17.3010638,0.941869565 L17.5180851,3.36904348 L17.4153191,3.56069565 L17.243617,3.45982609" transform="translate(7.021 7.565)"/>
    <path fill="#BCBCBC" d="M19.596383,2.81615217 C19.596383,2.81615217 19.5089362,9.39347826 17.9534043,9.39347826 L15.7761702,9.39347826 L13.9091489,9.39347826 C12.353617,9.39347826 12.2278723,2.81867391 12.2278723,2.81867391 L11.4638298,5.05104348 L11.4759574,8.11369565 L12.0185106,8.53986957 L12.2648936,9.85495652 L12.6102128,10.6221957 L19.2682979,10.6341739 L19.5765957,10.0863261 L19.8357447,9.16084783 L19.872766,8.57643478 L20.6080851,6.50293478 L19.596383,2.81615217 Z M24.4953191,8.94902174 C24.4953191,8.94902174 24.8157447,11.2179565 25.662766,11.6271087 L24.4768085,11.2734348 L24.4953191,8.94902174 Z M7.2912766,8.94902174 C7.2912766,8.94902174 6.97085106,11.2179565 6.12382979,11.6271087 L7.31042553,11.2734348 L7.2912766,8.94902174 Z"/>
    <path fill="#464646" d="M24.7231915,11.2633478 C25.1265957,11.3938478 25.5319149,11.531913 25.8995745,11.7443696 C25.7026767,11.6704592 25.5009389,11.6097988 25.2957447,11.5628043 C25.0921277,11.5117391 24.8865957,11.4682391 24.6810638,11.4291522 C24.2686311,11.3517653 23.8537243,11.2878465 23.4370213,11.2375 C23.021056,11.1837843 22.6039313,11.1392225 22.1859574,11.1038478 C21.7678723,11.0691739 21.3504255,11.0338696 20.9310638,11.009913 C19.2555319,10.908413 17.5748936,10.8825652 15.893617,10.8806739 C14.2123404,10.8813043 12.5323404,10.9128261 10.8561702,11.0105435 C10.4374468,11.0345 10.0193617,11.0698043 9.6012766,11.1044783 C9.18323847,11.1391955 8.7660985,11.1837589 8.35021277,11.2381304 C7.93340426,11.2879348 7.51914894,11.3535 7.10617021,11.4297826 C6.9,11.4682391 6.69510638,11.5123696 6.49021277,11.5628043 C6.28504265,11.6098876 6.08331085,11.6705463 5.88638298,11.7443696 C6.25340426,11.5325435 6.6593617,11.3932174 7.06340426,11.2627174 L7.16617021,11.2318261 L7.15978723,11.2059783 C7.15276596,11.1599565 7.00340426,10.0699348 7.26382979,8.51023913 C7.27645235,8.43577961 7.33136752,8.37515991 7.40489362,8.35452174 L7.83191489,8.2341087 C7.92446809,4.96278261 9.28851064,3.42452174 9.3312766,3.3766087 C8.11212766,5.31393478 8.12361702,7.61123913 8.14468085,8.14584783 L10.7987234,7.40067391 L10.8051064,7.39941304 C10.8160241,7.39701824 10.8271277,7.39554194 10.8382979,7.395 L10.8491489,7.39436957 C10.863721,7.39380479 10.8783065,7.39507589 10.8925532,7.39815217 L10.9002128,7.40067391 C10.9110638,7.40319565 10.9212766,7.40697826 10.932766,7.4113913 C10.9378723,7.41391304 10.9404255,7.41643478 10.9455319,7.41832609 L10.9717021,7.43471739 C10.9742553,7.4366087 10.9768085,7.43723913 10.9787234,7.43976087 L10.9831915,7.44417391 L10.9908511,7.45047826 C10.992766,7.453 11.0629787,7.52171739 11.1753191,7.6251087 C11.1485106,6.76141304 11.19,4.28380435 12.3848936,2.23047826 C12.36,2.30234783 11.4121277,5.03969565 11.7382979,8.1073913 C11.8442553,8.19123913 11.9559574,8.27382609 12.0644681,8.34569565 C12.1170688,8.38151271 12.1489233,8.44021067 12.15,8.50330435 C12.1506383,8.5133913 12.173617,9.49119565 12.6108511,10.3233696 C12.616851,10.3357494 12.6217627,10.3486156 12.6255319,10.3618261 C13.712771,10.2911492 14.8021122,10.2566658 15.8917021,10.2584348 C16.98,10.2590652 18.0702128,10.2899565 19.157234,10.3643478 C19.1610424,10.3501603 19.1663926,10.336421 19.1731915,10.3233696 C19.6104255,9.49182609 19.6334043,8.51402174 19.6334043,8.50330435 C19.6349825,8.44003375 19.667289,8.38137839 19.7202128,8.34569565 C19.8287234,8.27319565 19.9385106,8.19123913 20.0457447,8.1073913 C20.3725532,5.03969565 19.4253191,2.30234783 19.3997872,2.23047826 C20.5934043,4.28380435 20.6361702,6.76141304 20.6093617,7.6251087 C20.7210638,7.52171739 20.7919149,7.453 20.7938298,7.45047826 C20.796383,7.44795652 20.7995745,7.44669565 20.8014894,7.44417391 C20.8034043,7.44291304 20.8040426,7.44102174 20.8065957,7.43976087 L20.813617,7.43471739 L20.8397872,7.41769565 C20.843617,7.41643478 20.8474468,7.41391304 20.8519149,7.4113913 C20.8630276,7.40657267 20.8745656,7.40277406 20.886383,7.40004348 C20.8889362,7.40004348 20.8914894,7.39815217 20.8934043,7.39815217 C20.9076423,7.39501994 20.9222352,7.39374819 20.9368085,7.39436957 L20.9470213,7.395 C20.9583721,7.39584916 20.9696662,7.39732246 20.9808511,7.39941304 L20.987234,7.40067391 L23.6412766,8.14584783 C23.6623404,7.6106087 23.6738298,5.31330435 22.4546809,3.3766087 C22.4968085,3.4238913 23.8614894,4.96278261 23.9534043,8.2341087 L24.3810638,8.35452174 C24.4545899,8.37515991 24.5095051,8.43577961 24.5221277,8.51023913 C24.7825532,10.0699348 24.6319149,11.1599565 24.6255319,11.2059783 C24.6242553,11.2154348 24.6217021,11.2236304 24.6191489,11.2324565 C24.6541387,11.2417099 24.6888356,11.2520118 24.7231915,11.2633478 Z M24.2406383,11.1233913 C24.2610638,10.9487609 24.3561702,9.99428261 24.1538298,8.69432609 L21.15,7.85080435 C21.1768085,8.35326087 21.1889362,9.44328261 20.9004255,10.4822391 C20.8966476,10.4950395 20.891735,10.5074862 20.8857447,10.5194348 C20.9157447,10.522587 20.9457447,10.5244783 20.9744681,10.5288913 C21.8196798,10.6230006 22.6594907,10.7595615 23.4906383,10.9380435 C23.7414894,10.995413 23.9923404,11.0565652 24.2406383,11.1233913 Z M20.5212766,10.3782174 C20.7682979,9.48930435 20.7817021,8.53923913 20.7638298,8.01471739 C20.5659574,8.1925 20.2959574,8.42071739 20.0246809,8.6111087 C20.0080851,8.88534783 19.9308511,9.66330435 19.5778723,10.3939783 C19.8925532,10.4191957 20.207234,10.4469348 20.5212766,10.4797174 C20.5120092,10.4465031 20.5120092,10.4114317 20.5212766,10.3782174 Z M12.2093617,10.3927174 C11.8570213,9.66267391 11.7797872,8.88597826 11.7631915,8.61173913 C11.5052967,8.4272811 11.258496,8.22814695 11.0240426,8.01534783 C11.0068085,8.5405 11.0195745,9.49119565 11.2659574,10.3788478 C11.2749001,10.4116772 11.2749001,10.4462576 11.2659574,10.479087 C11.58,10.4463043 11.8946809,10.4173043 12.2093617,10.3927174 Z M10.9014894,10.5175435 C10.8956624,10.5060334 10.8909602,10.4940007 10.8874468,10.4816087 C10.5982979,9.44265217 10.6110638,8.35263043 10.6365957,7.85017391 L7.63340426,8.69369565 C7.43170213,9.9923913 7.52553191,10.9468696 7.54595745,11.1221304 C7.79553191,11.0553043 8.04510638,10.9941522 8.29723404,10.9367826 C8.71260003,10.8473976 9.1301792,10.768358 9.54957447,10.6997391 C9.96957447,10.6303913 10.3908511,10.5780652 10.8121277,10.5276304 L10.9014894,10.5175435 Z"/>
    <polygon fill="#464646" points="19.06 2.902 19.06 5.363 17.293 5.363 17.293 4.644 16.894 4.644 16.894 7.967 17.496 7.967 17.496 9.825 14.406 9.825 14.406 7.967 15.004 7.967 15.004 4.644 14.608 4.644 14.608 5.363 12.843 5.363 12.843 2.902"/>
    <path fill="#696A6A" d="M5.13765957,0.697891304 C5.13765957,0.697891304 0.58212766,3.86456522 0.404042553,5.07121739 L0.746170213,5.00186957 C0.746170213,5.00186957 6.20106383,1.43045652 10.5255319,0.995456522 L10.6231915,0.453282609 L5.13765957,0.697891304 Z M12.2885106,0.24523913 L8.7,2.75878261 L8.89404255,2.9126087 C9.04021277,2.79597826 15.2674468,0.917282609 15.2674468,0.917282609 L16.5804255,0.104021739 C15.7002128,0.213086957 12.2885106,0.24523913 12.2885106,0.24523913 Z M15.407234,3.28582609 C17.9553191,3.28582609 21.7742553,0.821456522 21.7742553,0.821456522 L20.5397872,0.589456522 C20.4785106,0.649978261 18.5489362,0.522630435 18.5489362,0.522630435 L17.6329787,0.271086957 L15.4442553,2.73419565 L15.2661702,3.16163043 C15.4231915,3.09795652 15.407234,3.28582609 15.407234,3.28582609 Z" transform="translate(1.915 11.978)"/>
    <path fill="#696A6A" d="M25.6365957,23.1237174 L24.8495745,23.3424783 L21.2125532,23.2649348 L18.9376596,21.5173696 L16.1878723,22.1969783 L13.007234,21.9252609 L11.226383,23.8474565 L7.88425532,24.8334565 L6.21574468,24.3221739 L6.13148936,24.2509348 L6.88021277,26.0621739 C6.88021277,26.0621739 8.57680851,27.8582826 9.52404255,28.0694783 C10.4712766,28.2806739 12.1831915,28.0543478 13.4668085,27.8576522 C14.7504255,27.661587 15.7742553,27.2083043 16.187234,26.4694348 C16.5995745,25.7293043 16.6608511,25.5181087 16.6608511,25.5181087 C16.6608511,25.5181087 17.8838298,27.2240652 18.9382979,27.4201304 C19.992766,27.6161957 23.1255319,26.559587 23.1255319,26.559587 C23.1255319,26.559587 25.0359574,26.046413 25.3723404,25.3976957 C25.7087234,24.7483478 26.5953191,22.62 26.5953191,22.62 L25.6365957,23.1237174 Z M6.56617021,24.5995652 L6.51319149,24.5756087 L6.21829787,24.3246957 L6.56617021,24.5995652 Z M16.4425532,24.9362174 L16.4195745,24.915413 C16.4477401,24.8848368 16.4762525,24.854574 16.5051064,24.8246304 L16.5076596,24.8271522 C16.5523404,24.8586739 16.5970213,24.892087 16.6423404,24.9255 L16.6187234,24.9570217 L16.6334043,24.9740435 L16.4942553,24.8700217 L16.4425532,24.9362174 Z"/>
    <path fill="#939393" d="M4.62510638,13.6224348 C4.88234043,13.5644348 5.23085106,13.4913043 5.65723404,13.4099783 C5.39489362,13.5865 5.08468085,13.808413 4.74638298,14.0744565 L4.62510638,13.6224348 Z"/>
    <path fill="#C3C3C3" d="M14.0546809,20.3693478 C14.0546809,20.3693478 14.1268085,20.8270435 13.4782979,21.0224783 C12.8297872,21.2185435 8.72297872,22.427087 8.25446809,22.3615217 C7.78595745,22.296587 6.59744681,21.5123261 6.59744681,21.5123261 L6.30893617,20.4998478 L8.06808511,21.5829348 L14.0546809,20.3693478 Z M17.7338298,20.2804565 C17.7338298,20.2804565 17.6821277,20.7406739 18.3382979,20.909 C18.9944681,21.0766957 23.1510638,22.108087 23.6157447,22.0229783 C24.0804255,21.9372391 25.2338298,21.1031739 25.2338298,21.1031739 L25.4770213,20.0787174 L23.8602128,21.0313043 L17.7338298,20.2804565 Z"/>
    <path fill="#C3C3C3" d="M4.2906383,19.527087 C4.2906383,19.527087 4.8593617,20.6511522 5.77914894,20.2621739 L6.43595745,20.4998478 L6.37021277,20.9758261 L4.99148936,21.1485652 L4.6193617,20.9323261 L4.2906383,19.527087 Z"/>
    <path fill="#F4F4F4" d="M25.6819149,20.0711522 C25.65,20.1814783 25.6174468,20.5458696 25.5829787,20.6543043 C25.9219149,20.7526522 26.7517021,20.730587 27.0638298,20.6763696 C27.3223404,20.4191522 27.8048936,18.6476304 27.9108511,17.7063913 C27.9970213,16.9441957 27.797234,16.641587 27.7187234,16.5772826 C27.6274468,16.5016304 27.2865957,16.3099783 26.9910638,16.1536304 L26.5155319,19.2780652 C26.5079944,19.3392474 26.4743072,19.3943186 26.4229787,19.4293696 L25.6819149,20.0711522 Z"/>
    <path fill="#C3C3C3" d="M27.666383,18.9830217 C27.666383,18.9830217 27.0504255,20.1997609 26.0559574,19.7786304 L25.3455319,20.0358478 L25.416383,20.550913 L26.9087234,20.7381522 L27.3114894,20.5042609 L27.666383,18.9830217 Z M13.2012766,28.0505652 C13.2012766,28.0505652 16.572766,29.729413 20.3897872,27.4447174 L19.163617,27.3621304 C19.163617,27.3621304 16.4885106,28.4080217 14.3712766,27.829913 L13.2012766,28.0505652 Z"/>
    <polygon fill="#696A6A" points="18.528 4.84 18.528 3.425 13.372 3.425 13.372 4.84 14.076 4.84 14.076 4.121 15.535 4.121 15.535 8.491 14.935 8.491 14.935 9.302 16.965 9.302 16.965 8.491 16.364 8.491 16.364 4.121 17.823 4.121 17.823 4.84"/>
    <path fill="#464646" d="M16.6193617,24.9570217 L16.8529787,25.2318913 C16.8580851,25.2388261 17.376383,25.8478261 18.0102128,26.4681739 C18.4314894,26.8804783 18.9408511,27.0897826 19.5242553,27.0897826 C19.7234043,27.0897826 19.932766,27.0645652 20.1440426,27.0141304 C20.34,26.9668478 20.5531915,26.9170435 20.7714894,26.8653478 C21.5597872,26.6793696 22.4521277,26.4681739 22.8848936,26.3483913 C22.9704255,26.3244348 23.0661702,26.303 23.166383,26.2803043 C23.7421277,26.1491739 24.5323404,25.9676087 24.9504255,25.1398478 C25.2651064,24.5188696 25.6895745,23.711913 26.0042553,23.1211957 C25.7317021,23.2453913 25.4457447,23.3803043 25.242766,23.485587 C24.93,23.6482391 24.5195745,23.726413 23.9897872,23.726413 C23.6744681,23.726413 23.3655319,23.6999348 23.022766,23.6703043 C22.4040212,23.6102623 21.7859047,23.5440632 21.1685106,23.4717174 L21.0797872,23.4622609 L21.0095745,23.4067826 C20.9993617,23.3992174 19.9844681,22.6004565 19.1642553,21.9637174 L19.073617,21.8893261 C18.9874468,21.8168261 18.9874468,21.8168261 18.9357447,21.8168261 C18.672766,21.8168261 17.9080851,22.0513478 16.2331915,22.5638913 L16.1304255,22.5960435 L16.0295745,22.5582174 C16.0180851,22.5544348 14.9189362,22.1522174 13.6021277,22.1522174 C13.4942553,22.1522174 13.3870213,22.1547391 13.2823404,22.160413 C13.1502128,22.1673478 12.4104255,22.514087 11.4631915,23.9937174 L11.4019149,24.088913 L11.2934043,24.123587 C11.2774468,24.1286304 9.64851064,24.6487391 7.92,25.1366957 L7.80765957,25.1682174 L7.70170213,25.1196739 C7.69021277,25.1152609 7.01425532,24.805087 6.37085106,24.5131957 C6.72191489,25.0251087 7.1706383,25.6637391 7.56510638,26.1649348 C8.25446809,27.0418696 9.12382979,27.8526087 10.7904255,27.8526087 C10.9997872,27.8526087 11.2212766,27.84 11.4497872,27.8141522 C13.1451064,27.6250217 13.5817021,27.5487391 13.8165957,27.5077609 C13.896383,27.4945217 13.9589362,27.4831739 14.0393617,27.473087 C14.0521277,27.4711957 15.4404255,27.2940435 15.8297872,26.4309783 C16.2312766,25.5439565 16.3123404,25.3327609 16.3155319,25.3245652 L16.457234,24.9513478 L16.4189362,24.9160435 L16.5038298,24.8246304 L16.5044681,24.8252609 L16.5070213,24.8277826 C16.5517021,24.8593043 16.596383,24.8927174 16.6410638,24.9267609 L16.6193617,24.9570217 Z M6.0606383,8.21393478 C5.69234043,8.36082609 5.32659574,8.5115 4.96851064,8.67793478 C4.60978723,8.83995652 4.25744681,9.01332609 3.92106383,9.20686957 C3.61357967,9.37786896 3.32182942,9.5751062 3.04914894,9.79632609 C3.03750361,9.86461753 3.02728866,9.93313941 3.01851064,10.0018478 C3.00702128,10.0983043 2.99553191,10.1947609 2.98787234,10.2924783 C2.9706383,10.4872826 2.96361702,10.6833478 2.96170213,10.879413 C2.95728212,11.6637348 3.06056348,12.4450266 3.2687234,13.2019348 C3.32170213,13.3891739 3.38106383,13.5738913 3.4506383,13.7516739 C3.50069174,13.8839974 3.55822913,14.0134403 3.62297872,14.1393913 L3.64787234,14.1866739 C3.67723404,14.2018043 3.70787234,14.2163043 3.73659574,14.2301739 L3.91340426,14.3133913 C4.01170213,14.3581522 4.14765957,14.4218261 4.26,14.4716304 C4.26702128,14.466587 4.27276596,14.4602826 4.27787234,14.4552391 L3.95106383,13.2246304 C4.02,13.2057174 4.64170213,13.0474783 5.71212766,12.8457391 C5.37813357,12.7838136 5.05105258,12.6898541 4.73553191,12.5651957 C4.6206383,12.5166522 4.50574468,12.4643261 4.39723404,12.4031739 C4.28617509,12.3451348 4.18548245,12.2695341 4.09914894,12.1793696 C5.27553191,12.5588913 7.70553191,12.3867826 9.86680851,12.1667609 C11.8429787,11.9656522 13.823617,11.8351522 15.8144681,11.8307391 C17.8053191,11.8351522 19.787234,11.9656522 21.7621277,12.1667609 C23.9240426,12.3867826 26.3546809,12.5588913 27.5310638,12.1793696 C27.4447936,12.269337 27.3443452,12.3449162 27.233617,12.4031739 C27.1239195,12.4632199 27.0109856,12.5173076 26.8953191,12.5651957 C26.627255,12.6702429 26.3510377,12.7537318 26.0693617,12.8148478 C27.2431915,13.0298261 27.9268085,13.205087 27.9995745,13.2246304 L27.6868085,14.3966087 C27.75,14.3688696 27.8131915,14.3423913 27.8751064,14.3133913 L28.0519149,14.2301739 C28.0806383,14.2163043 28.1112766,14.2018043 28.1406383,14.1866739 L28.1648936,14.1393913 C28.2286466,14.0127998 28.286578,13.8834288 28.3385106,13.7516739 C28.4074468,13.5738913 28.4674468,13.3885435 28.5191489,13.2019348 C28.626383,12.8287174 28.6991489,12.4416304 28.752766,12.0520217 C28.8297886,11.4686818 28.8458305,10.8790619 28.8006383,10.2924783 C28.7921407,10.1954085 28.7817132,10.098513 28.7693617,10.0018478 C28.7606863,9.9330919 28.7502574,9.86456289 28.7380851,9.79632609 C28.4654636,9.57502858 28.1737063,9.37778654 27.8661702,9.20686957 C27.5260029,9.01332342 27.1761998,8.83678905 26.8180851,8.67793478 C26.4586055,8.51299458 26.0944134,8.35826439 25.7259574,8.21393478 C25.5414894,8.14017391 25.3557447,8.06893478 25.1693617,8.00021739 C24.983617,7.92897826 24.7959574,7.86215217 24.6076596,7.79469565 C25.0021277,7.859 25.3934043,7.9478913 25.7808511,8.04623913 C26.0329787,8.11054348 26.2851064,8.18304348 26.5334043,8.26058696 C24.7608511,3.683 20.5219149,0.702304348 15.893617,0.702304348 C11.2646809,0.702304348 7.02574468,3.683 5.25319149,8.25995652 C5.50212766,8.18304348 5.75297872,8.11054348 6.00510638,8.0456087 C6.39255382,7.9451908 6.78419177,7.86126554 7.17893617,7.79406522 C6.80346116,7.92687908 6.43062531,8.06686185 6.0606383,8.21393478 Z M29.3993617,10.8623913 C29.4414748,11.70718 29.3488547,12.5532557 29.1248936,13.3696304 C29.038407,13.6804227 28.9261114,13.9836392 28.7891489,14.2761957 C28.7651366,14.3263318 28.7395929,14.3757385 28.7125532,14.4243478 L28.6710638,14.4981087 C28.6551115,14.5264741 28.638078,14.5542331 28.62,14.5813261 L28.577234,14.6475217 L28.5095745,14.6815652 C28.4446943,14.7143919 28.379149,14.7459201 28.3129787,14.7761304 L28.122766,14.8606087 C27.9951064,14.9141957 27.8674468,14.9652609 27.7391489,15.0144348 C27.6497872,15.0491087 27.5706383,15.0806304 27.4959574,15.1121522 L27.2846809,15.9052391 C27.2795745,15.9039783 27.2157447,15.887587 27.0970213,15.8598478 L27.0855319,15.9430652 C27.3191489,16.0634783 27.7774468,16.3074565 27.9338298,16.4348043 C28.2485106,16.6913913 28.2702128,17.0980217 28.2006383,17.8576957 C28.1648936,18.2479348 28.0340426,19.0063478 27.8521277,19.7036087 C27.5380851,20.9033261 27.3714894,21.0445435 27.156383,21.0987609 C27.0122989,21.1343205 26.8644658,21.1529423 26.7159574,21.1542391 C26.3840426,21.1542391 25.9321277,21.1630652 25.6282979,21.0905652 C25.4370685,21.7355584 25.1888819,22.3627265 24.8865957,22.9648478 C24.9089362,22.9541304 24.9306383,22.9453043 24.9504255,22.9352174 C25.4942553,22.6527826 26.5404255,22.2032826 26.5844681,22.1837391 L27.4104255,21.8294348 L26.987234,22.6149565 C26.9776596,22.6319783 26.07,24.3171304 25.5146809,25.4172391 C24.9631915,26.5072609 23.9285106,26.7443043 23.3093617,26.8848913 C23.2161702,26.9069565 23.1274468,26.9271304 23.0559574,26.9460435 C22.6117021,27.0696087 21.7123404,27.2814348 20.9189362,27.4699348 C20.9093617,27.4724565 20.8997872,27.4749783 20.8902128,27.4762391 C20.4019149,27.7744348 19.8695745,28.0398478 19.2868085,28.2586087 C17.1542553,29.0567391 14.9061702,29.0113478 12.8687234,28.2718478 C12.5374468,28.314087 12.102766,28.3651522 11.5231915,28.4307174 C11.2717021,28.4584565 11.0265957,28.4729565 10.793617,28.4729565 C8.85191489,28.4729565 7.82297872,27.4989348 7.07170213,26.5457174 C6.26744681,25.524413 5.28382979,24.0088478 5.24234043,23.9451739 L4.67170213,23.0663478 L5.63553191,23.494413 C6.09702128,23.6993043 7.4687234,24.326587 7.8612766,24.5062609 C7.89268777,24.4976854 7.92396784,24.4886482 7.95510638,24.4791522 C7.27736126,23.5198374 6.74954365,22.4653052 6.3893617,21.3509348 C5.99806828,21.4586384 5.59425922,21.5156451 5.18808511,21.5205217 C5.06596586,21.5226 4.94397791,21.5116083 4.82425532,21.4877391 C4.60914894,21.4391957 4.36340426,21.2343043 4.02893617,20.0717826 C3.83489362,19.396587 3.69,18.6602391 3.64787234,18.2807174 C3.56425532,17.540587 3.57957447,17.143413 3.89106383,16.8874565 C4.0787234,16.7323696 4.71255319,16.403913 4.84340426,16.3364565 L4.81468085,16.1076087 C2.80212766,17.2764348 1.59574468,18.3084565 1.57085106,18.3298913 L0.131489362,19.5775217 L1.15723404,17.98 C1.88940308,16.8469837 2.76737601,15.8126253 3.76914894,14.9028478 L3.66510638,14.8606087 L3.47489362,14.7761304 C3.40893679,14.7459144 3.34360433,14.7143862 3.27893617,14.6815652 L3.2112766,14.6475217 L3.16787234,14.5813261 C3.14361702,14.5453913 3.13276596,14.5252174 3.11680851,14.4981087 L3.07404255,14.4243478 C2.99631165,14.2793545 2.92746439,14.1298827 2.86787234,13.9767391 C2.78925856,13.7778441 2.72066394,13.5752264 2.66234043,13.3696304 C2.54964414,12.9617388 2.4702408,12.5455794 2.42489362,12.1251522 C2.34055238,11.3899444 2.36614537,10.6464823 2.50085106,9.91863043 C2.52255319,9.81271739 2.54425532,9.71373913 2.57680851,9.59773913 L2.59978723,9.51641304 L2.65914894,9.4703913 C2.99489362,9.21002174 3.35744681,9.01332609 3.72574468,8.83869565 C4.02893617,8.6981087 4.33787234,8.57391304 4.6493617,8.46043478 C5.5193617,6.0755 7.01553191,3.96102174 8.98148936,2.48706522 C11.0138298,0.963934783 13.4042553,0.158869565 15.893617,0.158869565 C18.3829787,0.158869565 20.7734043,0.963934783 22.8057447,2.48769565 C24.7717021,3.96165217 26.2678723,6.07613043 27.137234,8.46043478 C27.4493617,8.57391304 27.7576596,8.69747826 28.0621277,8.83932609 C28.4304255,9.01395652 28.7923404,9.21065217 29.1280851,9.47102174 L29.1874468,9.51704348 L29.2104255,9.59836957 C29.2676373,9.80688582 29.3105012,10.018986 29.3387234,10.2332174 C29.3680851,10.4412609 29.3891489,10.6518261 29.3993617,10.8623913 Z M27.6434043,17.8066304 C27.7104255,17.0759565 27.6517021,16.9189783 27.5770213,16.859087 C27.5017021,16.7966739 27.2482979,16.6548261 27.0012766,16.5224348 L26.5946809,19.3366957 C26.5865842,19.3916995 26.5558698,19.4409671 26.5097872,19.4728696 L25.9276596,19.875087 C25.8817021,20.1051957 25.8651064,20.2142609 25.8082979,20.4393261 C26.1408511,20.5156087 26.6865957,20.5748696 26.946383,20.5250652 C27.1812766,20.2728913 27.5623404,18.7018478 27.6434043,17.8066304 Z M26.8882979,15.2552609 L27.3242553,13.6230652 C26.6923404,13.4818478 25.5280851,13.2448043 23.9425532,13.0235217 C23.1331915,13.5984783 22.247234,14.0580652 21.3765957,14.4249783 C24.0402128,14.6803043 25.997234,15.061087 26.8882979,15.2552609 Z M26.202766,19.1929565 L26.6980851,15.7696957 C26.4192236,15.7099778 26.1396279,15.6536547 25.8593617,15.6007391 L25.4112766,18.6980652 C25.4031202,18.7528884 25.3726955,18.8020611 25.3270213,18.8342391 L23.6476596,19.9942391 C23.6072831,20.0220606 23.5581141,20.034593 23.5091489,20.0295435 L18.4480851,19.4615217 C18.3674028,19.4527746 18.2996865,19.3975349 18.2757447,19.3209348 L17.3642553,16.3566304 C17.1197872,16.2942174 16.493617,16.1498478 15.9446809,16.1498478 C15.3938298,16.1498478 14.7676596,16.2942174 14.5238298,16.3566304 L13.6123404,19.3209348 C13.5908499,19.3899612 13.5336419,19.4423769 13.4623404,19.4583696 L8.4012766,20.5704565 C8.34564939,20.5831034 8.28720143,20.5718786 8.24042553,20.5395652 L6.56170213,19.3789348 C6.51447373,19.346293 6.48340856,19.2954608 6.47617021,19.2389783 L6.02361702,15.6139783 C5.83595745,15.649913 5.66617021,15.684587 5.51425532,15.7154783 L5.19574468,15.8907391 L5.67574468,19.7319783 L8.11531915,21.4202826 L14.2704255,20.068 L15.1793617,17.1112609 C15.2015559,17.037402 15.2645211,16.9825576 15.3414894,16.9700435 C15.5719149,16.9334783 15.773617,16.9145652 15.9440426,16.9145652 C16.1125532,16.9145652 16.3155319,16.9334783 16.5446809,16.9700435 C16.6218559,16.9821253 16.6850228,17.0371452 16.7068085,17.1112609 L17.6387234,20.1411304 L23.8282979,20.8365 L26.202766,19.1929565 Z M25.0212766,18.555587 L25.4591489,15.5269783 C23.7199695,15.2191372 21.9659708,14.9994582 20.2040426,14.8688043 C18.2061702,15.5496739 16.5331915,15.7520435 16.4323404,15.7589783 L16.3155319,15.7671739 C16.7440885,15.8081146 17.1682353,15.8857396 17.5831915,15.9991739 C17.6495745,16.0187174 17.7006383,16.0685217 17.7217021,16.134087 L18.6274468,19.0788478 L23.4785106,19.622913 L25.0212766,18.555587 Z M25.3589362,20.2678478 L25.1534043,20.4096957 L24.6,20.793 L24.0006383,21.2078261 C23.9597499,21.2355817 23.9102102,21.2480933 23.8608511,21.2431304 L17.8959574,20.5729783 L17.4619149,20.5244348 C17.3812386,20.5155106 17.3137052,20.4599673 17.2902128,20.3832174 L16.356383,17.3470435 C16.2202073,17.3276668 16.082891,17.3171369 15.9453191,17.3155217 C15.8265957,17.3155217 15.6887234,17.3262391 15.5329787,17.3470435 L14.6265957,20.295587 C14.6052625,20.3645872 14.5479318,20.4168744 14.4765957,20.4323913 L8.11787234,21.8306957 C8.0618638,21.8432503 8.00309286,21.8315492 7.95638298,21.7985435 L7.72531915,21.6396739 L7.03340426,21.1618043 L7.03340426,21.159913 L6.75382979,20.967 C6.77361702,21.029413 6.79595745,21.0899348 6.81829787,21.1504565 L6.81765957,21.151087 C6.8712766,21.3086957 7.40744681,22.8311957 8.49638298,24.3215435 C9.66255319,23.9817391 10.6717021,23.6658913 10.9934043,23.5650217 C11.6502128,22.5651522 12.5859574,21.5728478 13.2504255,21.5388043 C13.3646809,21.5337609 13.4840426,21.5299783 13.6021277,21.5299783 C13.9270213,21.5299783 14.2378723,21.5533043 14.5257447,21.5867174 C14.2812766,21.3673261 14.2308511,21.1101087 14.1957447,20.996 C14.1957447,20.996 15.0440426,21.6510217 16.1234043,21.5142174 C17.2034043,21.3761522 17.8742553,20.7614783 17.8742553,20.7614783 C17.8742553,20.7614783 17.8710638,21.2097174 17.4006383,21.557087 C18.3057447,21.2866304 18.6797872,21.1939565 18.936383,21.1939565 C19.2191489,21.1939565 19.3582979,21.310587 19.4802128,21.4133478 L19.5542553,21.4738696 C20.25,22.0147826 21.0868085,22.6716957 21.3312766,22.8639783 C21.6146809,22.8967609 22.5134043,22.9976304 23.0795745,23.0493261 C23.406383,23.0783261 23.7012766,23.102913 23.9897872,23.102913 C24.0829787,23.102913 24.1704255,23.0991304 24.252766,23.094087 C24.6575113,22.3227652 24.9909901,21.5169568 25.2491489,20.6864565 C25.2880851,20.5490217 25.3251064,20.4090652 25.3589362,20.2678478 Z M23.1580851,12.8085435 L23.153617,12.8066522 C22.6743514,12.7708852 22.1947557,12.7395722 21.7148936,12.7127174 C21.0478723,12.6748913 20.3808511,12.644 19.7144681,12.6162609 C19.6755319,12.673 19.5970213,12.7852174 19.4840426,12.9377826 C19.1208511,13.422587 18.4008511,14.3127609 17.4778723,15.0673913 C18.7844681,14.8360217 21.0510638,14.263587 23.0119149,12.9125652 C23.0610638,12.8778913 23.1095745,12.8419565 23.1580851,12.8085435 Z M18.7844681,12.9421957 C18.8393617,12.8741087 18.8910638,12.8085435 18.9370213,12.7486522 C18.4570213,12.7965652 17.9834043,12.8652826 17.5212766,12.9522826 C15.9382979,13.2448043 14.4759574,13.7315 13.26,14.2301739 C14.7199827,14.1606396 16.1821502,14.1471802 17.6431915,14.1898261 C18.0515856,13.7997664 18.4328766,13.3829435 18.7844681,12.9421957 Z M19.3091489,27.7025652 C18.6504181,27.6556016 18.0312871,27.3742649 17.5665957,26.9107391 L17.4931915,26.8369783 C17.2572394,26.884114 17.0187718,26.9180017 16.7789362,26.9384783 C16.6768085,26.9422609 16.5797872,26.951087 16.4725532,26.951087 L16.3142553,26.9529783 L16.253617,26.951087 C15.6102128,27.8967391 14.1810638,28.0808261 14.1153191,28.0890217 C14.0569565,28.0962223 13.9988417,28.1052631 13.9410638,28.1161304 C14.7376596,28.3317391 15.5508511,28.4250435 16.3525532,28.372087 C17.3676881,28.3044526 18.3655766,28.0784806 19.3091489,27.7025652 Z M16.7623404,26.6238913 C16.9168085,26.611913 17.0725532,26.5923696 17.2282979,26.5690435 C17.0259574,26.361 16.847234,26.168087 16.7061702,26.0111087 C16.637234,26.1674565 16.5459574,26.3736087 16.4253191,26.6383913 L16.4610638,26.6383913 C16.5568085,26.6390217 16.6621277,26.6283043 16.7623404,26.6238913 Z M16.2708511,15.2546304 C16.5382979,15.0951304 16.7955319,14.9123043 17.0393617,14.7181304 C15.3074182,14.6850418 13.5748581,14.7325873 11.8474468,14.8606087 C10.5868085,15.4689783 9.81638298,15.9701739 9.79851064,15.9827826 L8.58829787,16.7802826 L9.4193617,15.602 C9.55659574,15.4065652 9.70212766,15.220587 9.85212766,15.0440652 C8.70423259,15.1690368 7.5611764,15.3341039 6.42510638,15.5389565 L6.87,19.1002826 L8.4,20.1587826 L13.2580851,19.092087 L14.1676596,16.1334565 C14.1879724,16.0685968 14.2396771,16.0180019 14.3055319,15.9985435 C14.333617,15.9909783 14.8193617,15.8541739 15.3791489,15.7867174 L16.2708511,15.2546304 Z M16.83,12.538087 C16.4917021,12.5330435 16.1534043,12.5298913 15.8151064,12.5292609 L15.8144681,12.5292609 C15.3185106,12.5298913 14.8206383,12.5349348 14.322766,12.5450217 L13.4048936,12.9743478 L13.3921277,12.9812826 C13.2542553,13.0474783 12.0491489,13.6482826 10.9155319,14.7193913 C12.2810535,14.0081609 13.7095522,13.4217274 15.1831915,12.967413 C15.7261034,12.8026436 16.27548,12.6594201 16.83,12.538087 Z M10.4157447,14.4382174 C10.8919149,13.9716957 11.382766,13.5871304 11.8161702,13.286413 C10.1451064,13.6697174 8.60680851,14.2326957 7.2593617,14.8448478 C8.30714946,14.6782537 9.35974773,14.5426496 10.4157447,14.4382174 Z M10.7317021,13.0001957 C11.3022788,12.8423143 11.8791418,12.7074992 12.4608511,12.596087 C11.6119149,12.6269783 10.7629787,12.6654348 9.91468085,12.7127174 C9.42191489,12.7398261 8.93170213,12.7726087 8.44148936,12.8091739 C8.1275101,12.8320159 7.81403959,12.8612322 7.5012766,12.8968043 C6.86170213,13.2750652 4.4087234,14.7956739 2.72425532,16.7846957 C4.36085106,15.6612609 7.21148936,13.9729565 10.7317021,13.0001957 Z M6.21574468,20.8358696 C6.18382979,20.7356304 6.15382979,20.6335 6.12510638,20.532 L5.3693617,20.01 C5.32201327,19.9774692 5.29091281,19.9265792 5.28382979,19.8700435 L4.91489362,16.9133043 C4.64170213,17.0576739 4.32702128,17.2348261 4.24276596,17.3048043 C4.17,17.3640652 4.11446809,17.516 4.19361702,18.2201957 C4.2912766,19.0889348 4.73680851,20.7261739 4.97680851,20.9644783 C5.26468085,21.0142826 5.90297872,20.9272826 6.21574468,20.8358696 Z M5.65723404,13.4099783 C5.23021277,13.4913043 4.88234043,13.5650652 4.62510638,13.6224348 L4.74638298,14.0744565 C5.08468085,13.808413 5.39489362,13.5865 5.65723404,13.4099783 Z"/>
  </g>
</svg>
