<svg xmlns="http://www.w3.org/2000/svg" width="28" height="30" viewBox="0 0 28 30">
  <path fill="#63B878" fill-rule="evenodd" d="M51.7007996,31.4743302 C50.6930726,30.9123019 49.0837952,31.8162284 48.1063788,33.4933158 L46.3368389,36.5300135 C45.690234,37.7924799 45.778903,39.295574 46.5989371,40.455958 L46.6505749,40.5291542 C47.470609,41.6894706 48.5701596,42.7620461 48.9340248,43.1447367 C49.1478454,43.3696698 49.311331,43.6473014 49.4015087,43.9649137 C49.7002951,45.0191563 49.0764576,46.1127707 48.0077663,46.4077882 C46.939075,46.702738 45.8302666,46.087267 45.531343,45.0328891 C45.4561835,44.7683137 45.4395195,44.5012353 45.473259,44.2449131 C45.5307258,43.8093209 45.3890474,43.0998854 44.7558835,42.4033709 C44.1227881,41.7068564 42.828824,43.0223596 42.4104407,44.3752728 L42.3910337,44.4373746 C41.9726503,45.7902201 41.7085635,46.9708312 41.7875632,47.0844139 C41.8345379,47.1519953 41.8782895,47.2231621 41.918338,47.2973731 C42.5053502,48.3869962 42.0858696,49.7398417 40.981313,50.3189851 C39.8766192,50.8981962 38.5053012,50.484387 37.9181519,49.3947639 C37.3311397,48.3050732 37.7506202,46.9522953 38.8551769,46.3731519 C38.9047575,46.347107 38.9549552,46.3231592 39.0054273,46.3011057 C39.0898446,46.2645075 39.3291755,45.695782 39.5367556,45.0240271 C39.7446786,44.3522044 39.8337591,44.1159063 39.9130331,43.8076973 C40.0194634,43.3935499 40.1756799,42.5337982 40.0979831,42.1084211 C40.0116457,41.6356219 39.5183086,41.6030151 39.0052216,41.9650728 C38.6958058,42.1835792 38.1841589,42.6135565 37.9342673,42.7899175 C37.4649319,43.1212625 37.0722646,43.7646725 36.8644788,44.1588635 C36.7422074,44.3908997 36.5709041,44.6024382 36.3520089,44.7775816 C35.4959724,45.4627311 34.2391766,45.3335891 33.5447056,44.4892614 C32.8503031,43.6449337 32.981215,42.4051298 33.8369773,41.7200479 C34.087829,41.5191979 34.3733116,41.3883647 34.668875,41.3249099 C35.1717442,41.217145 36.8818971,40.1865795 37.9121857,39.4592846 C38.0967243,39.3291955 38.4067572,39.1125833 38.5121588,38.9797206 C38.8207516,38.5907386 38.4887057,38.2835443 38.1898507,38.3162188 C37.3128984,38.4122804 36.4098186,38.534184 36.2392011,38.7484285 C36.1382569,38.8749322 36.0181115,38.9898003 35.8789704,39.0885003 C35.079372,39.6567522 33.9640489,39.4778881 33.388009,38.688965 C32.8118318,37.8999743 32.993353,36.7996626 33.7929513,36.231546 C34.12294,35.9971421 34.506418,35.889986 34.8833813,35.9002686 C35.5247744,35.9177897 37.2122972,36.2553584 38.6240751,36.0085747 L38.986706,35.9451876 C40.3986211,35.6984039 42.0889556,34.4859978 42.7624423,33.2372642 C42.7624423,33.2372642 43.4220081,32.0944689 44.2353902,30.6847306 C45.0489781,29.2750599 44.9888368,27.7309705 44.1013238,27.2359825 L42.4941722,26.3397003 C41.683396,25.8874665 40.3560353,25.8866547 39.5445733,26.3379415 L28.4753481,32.4938688 C27.6639546,32.9451556 27,34.0662355 27,34.9851124 L27,47.014803 C27,47.9337476 27.6639546,49.0548275 28.4753481,49.5061819 L39.5445733,55.661974 C40.3560353,56.113396 41.683396,56.1125166 42.4941722,55.6602827 L53.5254748,49.5078055 C54.3365254,49.0556393 55,47.9337476 55,47.014803 L55,34.9851124 C55,34.0662355 54.3365254,32.9442762 53.5254748,32.49211 C53.5254748,32.49211 52.7085267,32.0364937 51.7007996,31.4743302" transform="translate(-27 -26)"/>
</svg>
