<svg xmlns="http://www.w3.org/2000/svg" width="30" height="18" viewBox="0 0 30 18">
  <g fill="none">
    <path fill="#FF5D00" d="M0 0L0 10.5517241C0 14.6689655 3.25252525 18 7.27272727 18 11.2929293 18 14.5454545 14.6689655 14.5454545 10.5517241L14.5454545 0 0 0zM30 7.44827586C30 3.33103448 26.7474747 0 22.7272727 0L15.4545455 0 15.4545455 17.6896552 23.4242424 17.6896552 23.4242424 14.8655172C27.1111111 14.5034483 30 11.3172414 30 7.44827586z"/>
    <path fill="#FFF" d="M18.1010101,4.67586207 C18.9393939,4.67586207 19.4040404,4.16896552 19.4040404,3.52758621 L19.4040404,1.39655172 L18.5050505,1.39655172 L18.5050505,3.34137931 C18.5050505,3.64137931 18.3838384,3.80689655 18.1111111,3.80689655 C17.8383838,3.80689655 17.7171717,3.64137931 17.7171717,3.34137931 L17.7171717,1.39655172 L16.8181818,1.39655172 L16.8181818,3.52758621 C16.8282828,4.15862069 17.2727273,4.67586207 18.1010101,4.67586207 Z M20.7676768,3.72413793 L21.0606061,3.72413793 C21.8888889,3.72413793 22.3030303,3.17586207 22.3030303,2.54482759 C22.3030303,1.9137931 21.8888889,1.39655172 21.0606061,1.39655172 L19.8686869,1.39655172 L19.8686869,4.6137931 L20.7676768,4.6137931 L20.7676768,3.72413793 Z M20.7676768,2.20344828 L20.9494949,2.20344828 C21.1818182,2.20344828 21.3737374,2.30689655 21.3737374,2.55517241 C21.3737374,2.80344828 21.1818182,2.90689655 20.9494949,2.90689655 L20.7676768,2.90689655 L20.7676768,2.20344828 Z"/>
    <polygon fill="#FFF" points="18.222 8.338 18.636 6.559 19.071 8.338 20.111 8.338 20.768 5.121 19.828 5.121 19.535 6.931 19.525 6.931 19.081 5.121 18.232 5.121 17.758 6.931 17.747 6.931 17.475 5.121 16.495 5.121 17.141 8.338"/>
    <path fill="#FFF" d="M20.8686869,6.72413793 C20.8686869,7.69655172 21.6060606,8.38965517 22.5252525,8.38965517 C23.4444444,8.38965517 24.1818182,7.69655172 24.1818182,6.72413793 C24.1818182,5.75172414 23.4444444,5.05862069 22.5252525,5.05862069 C21.6060606,5.05862069 20.8686869,5.76206897 20.8686869,6.72413793 Z M22.5252525,5.92758621 C22.9494949,5.92758621 23.2222222,6.25862069 23.2222222,6.72413793 C23.2222222,7.17931034 22.9494949,7.52068966 22.5252525,7.52068966 C22.1010101,7.52068966 21.8282828,7.17931034 21.8282828,6.72413793 C21.8282828,6.26896552 22.1010101,5.92758621 22.5252525,5.92758621 Z M26.6464646,7.13793103 C27.030303,6.94137931 27.2222222,6.64137931 27.2222222,6.1862069 C27.2222222,5.61724138 26.7777778,5.12068966 26.010101,5.12068966 L24.5555556,5.12068966 L24.5555556,8.33793103 L25.4545455,8.33793103 L25.4545455,7.27241379 L25.7474747,7.27241379 L26.3131313,8.34827586 L27.3232323,8.34827586 L26.6464646,7.13793103 Z M25.9292929,6.4862069 L25.4646465,6.4862069 L25.4646465,5.92758621 L25.9292929,5.92758621 C26.1919192,5.92758621 26.2929293,6.05172414 26.2929293,6.20689655 C26.2929293,6.36206897 26.1919192,6.4862069 25.9292929,6.4862069 Z"/>
    <polygon fill="#FFF" points="21.414 9.993 20.444 9.993 20.444 8.814 16.828 8.814 16.828 9.652 17.707 9.652 17.707 12.031 18.626 12.031 18.626 9.652 19.535 9.652 19.535 12.031 20.444 12.031 20.444 10.841 21.414 10.841 21.414 12.031 22.313 12.031 22.313 8.814 21.414 8.814"/>
    <polygon fill="#FFF" points="23.929 9.755 23.909 9.755 23.434 8.814 22.313 8.814 23.455 10.8 23.455 12.031 24.354 12.031 24.354 10.79 25.465 8.814 24.424 8.814"/>
  </g>
</svg>
