<svg xmlns="http://www.w3.org/2000/svg" width="30" height="22" viewBox="0 0 30 22">
  <path fill="#6FDA44" d="M22.7837838,2.36296296 C19.7027027,2.36296296 17.3513514,4.4 16.3783784,7.65925926 C14.9189189,5.45925926 13.8648649,3.01481481 13.1351351,0.488888889 L9.81081081,0.488888889 L9.81081081,9.12592593 C9.81081081,10.837037 8.43243243,12.2222222 6.72972973,12.2222222 C5.02702703,12.2222222 3.64864865,10.837037 3.64864865,9.12592593 L3.64864865,0.488888889 L0.324324324,0.488888889 L0.324324324,9.12592593 C0.324324324,12.6296296 3.16216216,15.562963 6.72972973,15.562963 C10.2972973,15.562963 13.1351351,12.7111111 13.1351351,9.12592593 L13.1351351,7.65925926 C13.7837838,9.04444444 14.5945946,10.3481481 15.4864865,11.5703704 L13.4594595,21.1851852 L16.8648649,21.1851852 L18.3243243,14.2592593 C19.6216216,15.1555556 21.1621622,15.562963 22.7837838,15.6444444 C26.4324324,15.6444444 29.3513514,12.7111111 29.3513514,9.04444444 C29.3513514,5.37777778 26.4324324,2.36296296 22.7837838,2.36296296 Z M22.7837838,12.3037037 C21.4864865,12.3037037 20.1891892,11.7333333 19.0540541,10.837037 L19.2972973,9.53333333 L19.2972973,9.45185185 C19.5405405,8.06666667 20.3513514,5.7037037 22.7027027,5.7037037 C24.4864865,5.62222222 26.027027,7.08888889 26.027027,8.88148148 C26.1081081,10.6740741 24.6486486,12.2222222 22.8648649,12.2222222 C22.8648649,12.3037037 22.7837838,12.3037037 22.7837838,12.3037037 Z"/>
</svg>
