<svg xmlns="http://www.w3.org/2000/svg" width="30" height="28" viewBox="0 0 30 28">
  <path fill="#FFC334" d="M29.8941176,21.7620253 C29.8941176,23.0911392 28.8176471,24.1898734 27.4764706,24.1898734 C26.1352941,24.1898734 25.0588235,23.1088608 25.0588235,21.7620253 C25.0588235,20.4329114 26.1352941,19.3341772 27.4764706,19.3341772 C28.8176471,19.3341772 29.8941176,20.4329114 29.8941176,21.7620253 Z M26.4705882,7.69113924 C27.0705882,9.1443038 27.4058824,10.7392405 27.4058824,12.4227848 C27.4058824,15.5240506 26.2588235,18.3594937 24.3529412,20.521519 C23.8588235,24.7037975 20.3117647,27.9291139 16.0235294,27.9291139 C12.4058824,27.9291139 9.31764706,25.6253165 8.13529412,22.4177215 C6.14117647,21 4.58823529,18.9797468 3.74117647,16.6405063 C1.57058824,15.9848101 0,13.964557 0,11.5721519 C0,8.86075949 2.01176471,6.64556962 4.62352941,6.32658228 C6.74117647,2.65822785 10.6941176,0.17721519 15.2117647,0.17721519 C16.4294118,0.17721519 17.5941176,0.35443038 18.7058824,0.691139241 C19.0235294,0.265822785 19.5352941,0 20.1,0 C20.8764706,0 21.5294118,0.496202532 21.7764706,1.20506329 C22.3941176,0.815189873 23.1176471,0.584810127 23.9117647,0.584810127 C26.1352941,0.584810127 27.9176471,2.39240506 27.9176471,4.60759494 C27.9176471,5.84810127 27.3529412,6.96455696 26.4705882,7.69113924 Z M15.2117647,22.0278481 C20.4882353,22.0278481 24.7764706,17.721519 24.7764706,12.4227848 C24.7764706,7.12405063 20.5058824,2.81772152 15.2117647,2.81772152 C9.93529412,2.81772152 5.64705882,7.12405063 5.64705882,12.4227848 C5.64705882,17.721519 9.93529412,22.0278481 15.2117647,22.0278481 Z M2.48823529,6.41518987 C3.24705882,6.41518987 3.86470588,5.79493671 3.86470588,5.03291139 C3.86470588,4.27088608 3.24705882,3.65063291 2.48823529,3.65063291 C1.72941176,3.65063291 1.11176471,4.27088608 1.11176471,5.03291139 C1.12941176,5.79493671 1.72941176,6.41518987 2.48823529,6.41518987 Z M14.9117647,20.7341772 C14.8941176,20.7341772 14.8941176,20.7696203 14.8764706,20.7696203 C14.8941176,20.7696203 14.8941176,20.7873418 14.9117647,20.7873418 C15.5823529,20.7873418 16.2529412,20.4860759 16.8882353,19.9012658 C15.9176471,19.8481013 14.8411765,19.6531646 13.7470588,19.3164557 C13.4294118,19.9721519 13.1647059,20.3620253 12.9882353,20.4506329 C13.6235294,20.6455696 14.2588235,20.7696203 14.8411765,20.8050633 C14.7882353,20.8050633 14.7352941,20.8050633 14.6823529,20.7873418 C14.7352941,20.7873418 14.7882353,20.7873418 14.8411765,20.8050633 C14.8588235,20.8050633 14.8764706,20.8050633 14.8941176,20.8050633 C14.9294118,20.8050633 14.9647059,20.8050633 15,20.8050633 C15.0529412,20.8050633 15.1235294,20.8050633 15.1764706,20.8050633 C15.1235294,20.8050633 15.0882353,20.7696203 15.0352941,20.7696203 C14.9823529,20.7696203 14.9470588,20.7341772 14.9117647,20.7341772 Z M17.3823529,19.9189873 C18.3176471,19.9367089 19.1117647,19.8126582 19.7117647,19.5291139 C19.5882353,19.6177215 19.4823529,19.6886076 19.3588235,19.7594937 C19.2,19.8481013 19.0235294,19.9367089 18.8823529,20.0075949 L18.8470588,20.0253165 C17.7705882,20.521519 16.5882353,20.8050633 15.3176471,20.8050633 C15.2823529,20.8050633 15.2470588,20.8050633 15.2294118,20.8050633 C15.9705882,20.8050633 16.7117647,20.5037975 17.3823529,19.9189873 Z M12.9352941,20.4506329 C13.2352941,20.5392405 13.5176471,20.6101266 13.8176471,20.6632911 C13.5,20.6101266 13.2,20.5392405 12.9,20.4506329 L12.9352941,20.4506329 Z M12.7588235,20.3974684 L12.8823529,20.4329114 C12.8294118,20.4151899 12.7764706,20.3974684 12.7411765,20.3797468 L12.7588235,20.3974684 Z M11.6294118,19.9544304 C11.9470588,20.1139241 12.2823529,20.2379747 12.6176471,20.3620253 L12.6,20.3620253 C12.1058824,20.2025316 11.6294118,19.9898734 11.1882353,19.7240506 C11.3470588,19.7949367 11.4882353,19.8835443 11.6294118,19.9544304 Z M10.8882353,19.5468354 C10.9941176,19.6177215 11.1,19.6708861 11.2058824,19.7240506 C11.1176471,19.6708861 11.0470588,19.635443 10.9588235,19.5822785 L10.8882353,19.5468354 Z M10.1117647,13.8759494 C9.70588235,15.0810127 9.52941176,16.1620253 9.56470588,17.0658228 C8.68235294,16.4810127 8.01176471,15.843038 7.58823529,15.2405063 C7.37647059,14.1949367 7.44705882,13.0075949 7.85294118,11.8025316 C8.34705882,12.4759494 9.12352941,13.1848101 10.1117647,13.8759494 Z M13.1823529,19.121519 C12.9176471,19.7949367 12.7411765,20.2025316 12.6529412,20.3088608 C12.2823529,20.1848101 11.9117647,20.0253165 11.5411765,19.8658228 C11.2588235,19.7240506 10.9941176,19.5822785 10.7470588,19.4405063 C10.3235294,19.0860759 10.0764706,18.4835443 10.0411765,17.6683544 C10.4470588,17.9164557 10.8882353,18.1468354 11.3470588,18.3772152 C11.9647059,18.678481 12.5647059,18.9265823 13.1823529,19.121519 Z M8.02941176,11.3417722 C8.50588235,10.1367089 9.26470588,9.03797468 10.2,8.09873418 C10.6235294,8.6835443 11.2941176,9.30379747 12.1588235,9.88860759 C11.4,10.9873418 10.7470588,12.1924051 10.2882353,13.3974684 C9.28235294,12.7417722 8.52352941,12.0151899 8.02941176,11.3417722 Z M13.6588235,4.60759494 C13.5529412,4.87341772 13.6058824,5.19240506 13.8,5.52911392 C12.5470588,5.95443038 11.3823529,6.61012658 10.3764706,7.47848101 C10.0411765,6.91139241 9.95294118,6.37974684 10.1294118,5.93670886 C11.1705882,5.2278481 12.3705882,4.76708861 13.6588235,4.60759494 Z M22.2352941,15.9493671 C21.5294118,16.2683544 20.5764706,16.4278481 19.4823529,16.4101266 C19.8882353,15.1696203 20.0823529,13.8227848 20.1176471,12.4936709 C21.0705882,12.5113924 21.9,12.3873418 22.5,12.1037975 C22.6764706,13.3974684 22.6058824,14.7088608 22.2352941,15.9493671 Z M17.1176471,19.6708861 C16.1117647,19.6 15,19.4050633 13.8705882,19.0683544 C14.2058824,18.3417722 14.5941176,17.3670886 15.0352941,16.1620253 C16.3235294,16.5518987 17.6117647,16.7822785 18.7411765,16.8531646 C18.3,18.0582278 17.7352941,18.9974684 17.1176471,19.6708861 Z M15.0176471,6.7164557 C14.1176471,7.46075949 13.2352941,8.41772152 12.4411765,9.48101266 C11.6117647,8.91392405 10.9764706,8.32911392 10.5529412,7.7443038 C11.5411765,6.85822785 12.6882353,6.14936709 13.9058824,5.67088608 C14.1529412,6.02531646 14.5235294,6.37974684 15.0176471,6.7164557 Z M20.0470588,19.2810127 C19.4294118,19.564557 18.6,19.6886076 17.6294118,19.6886076 C18.3,19.0329114 18.8823529,18.0759494 19.3235294,16.8708861 C20.4176471,16.8886076 21.3705882,16.7468354 22.0764706,16.4101266 C21.6176471,17.6151899 20.9117647,18.5898734 20.0470588,19.2810127 Z M19.2529412,8.18734177 C19.5352941,9.35696203 19.6588235,10.6506329 19.6235294,11.9797468 C18.6705882,11.9265823 17.6117647,11.7316456 16.5352941,11.3949367 C16.8882353,10.1189873 17.2058824,8.91392405 17.4352941,7.85063291 C18.0705882,8.0278481 18.6882353,8.15189873 19.2529412,8.18734177 Z M7.37647059,9.49873418 L7.35882353,9.55189873 C7.39411765,9.4278481 7.44705882,9.30379747 7.5,9.17974684 L7.37647059,9.49873418 Z M20.1176471,11.9974684 C20.1,10.6683544 19.9058824,9.35696203 19.5529412,8.20506329 C20.1,8.20506329 20.5588235,8.13417722 20.9117647,7.97468354 C21.6529412,9.07341772 22.1647059,10.3316456 22.4294118,11.6253165 C21.8294118,11.8734177 21.0352941,11.9974684 20.1176471,11.9974684 Z M22.6941176,11.4658228 C22.4117647,10.1898734 21.8470588,8.96708861 21.0705882,7.88607595 C21.1235294,7.85063291 21.1588235,7.81518987 21.2117647,7.77974684 C21.4235294,7.60253165 21.5294118,7.3721519 21.5117647,7.12405063 C22.4117647,7.99240506 23.0823529,9.03797468 23.4352941,10.1721519 C23.4529412,10.5974684 23.2941176,10.9873418 22.9235294,11.2886076 C22.8529412,11.3594937 22.7647059,11.4126582 22.6941176,11.4658228 Z M11.4,18.0936709 C10.9058824,17.8632911 10.4647059,17.6151899 10.0411765,17.3493671 C10.0411765,16.4810127 10.2352941,15.4177215 10.6588235,14.2126582 C11.1352941,14.4962025 11.6470588,14.7797468 12.2117647,15.0632911 C12.9176471,15.4 13.6411765,15.7012658 14.3647059,15.9493671 C13.9411765,17.1544304 13.5705882,18.1468354 13.2882353,18.8734177 C12.6529412,18.643038 12.0176471,18.3949367 11.4,18.0936709 Z M13.9588235,10.9164557 C14.5764706,11.2177215 15.1941176,11.4658228 15.8294118,11.678481 C15.4058824,12.9367089 14.9647059,14.2303797 14.5235294,15.4708861 C13.8,15.2227848 13.0764706,14.921519 12.3705882,14.5848101 C11.8058824,14.3189873 11.2941176,14.035443 10.8176471,13.7341772 C11.2764706,12.5113924 11.8941176,11.2886076 12.6176471,10.1721519 C13.0235294,10.4379747 13.4823529,10.6860759 13.9588235,10.9164557 Z M18.9,16.3924051 C17.7529412,16.321519 16.4823529,16.0911392 15.1941176,15.7012658 C15.6176471,14.4607595 16.0411765,13.1493671 16.3941176,11.8734177 C17.5058824,12.2101266 18.6176471,12.4050633 19.6058824,12.4759494 C19.5352941,13.8050633 19.3058824,15.1518987 18.9,16.3924051 Z M16.0411765,7.30126582 C16.3941176,7.46075949 16.7470588,7.62025316 17.1,7.72658228 C16.7823529,8.75443038 16.3941176,9.95949367 15.9705882,11.2 C15.3705882,10.9873418 14.7529412,10.756962 14.1705882,10.4734177 C13.7117647,10.243038 13.2705882,10.0126582 12.8823529,9.76455696 C13.6235294,8.66582278 14.4352941,7.67341772 15.2647059,6.87594937 C15.5117647,7.03544304 15.7764706,7.15949367 16.0411765,7.30126582 Z M23.1882353,15.3468354 C22.6411765,16.8 21.6882353,18.0759494 20.4882353,19.0151899 C20.4352941,19.0506329 20.3823529,19.0860759 20.3294118,19.121519 C21.2294118,18.4126582 21.9529412,17.4379747 22.4117647,16.2329114 C22.5176471,16.1620253 22.6058824,16.1088608 22.6941176,16.0379747 C22.9235294,15.8253165 23.1,15.5949367 23.1882353,15.3468354 Z M23.3823529,14.7974684 C23.3470588,14.921519 23.3117647,15.0455696 23.2588235,15.1518987 L23.3823529,14.7974684 Z M23.1882353,15.3468354 C23.2058824,15.2759494 23.2411765,15.2227848 23.2588235,15.1518987 L23.2588235,15.1696203 L23.1882353,15.3468354 C23.2058824,15.3468354 23.1882353,15.3468354 23.1882353,15.3468354 Z M10.6235294,5.29873418 L10.3588235,5.49367089 C10.5,5.38734177 10.6235294,5.29873418 10.7647059,5.21012658 C10.7294118,5.2278481 10.6764706,5.26329114 10.6235294,5.29873418 Z M8.48823529,7.3721519 C8.96470588,6.7164557 9.54705882,6.11392405 10.1823529,5.61772152 C10.0588235,5.72405063 9.95294118,5.83037975 9.88235294,5.95443038 C9.35294118,6.36202532 8.87647059,6.84050633 8.48823529,7.3721519 Z M10.3588235,5.49367089 C10.3058824,5.52911392 10.2352941,5.58227848 10.1823529,5.61772152 C10.2176471,5.58227848 10.2529412,5.56455696 10.2882353,5.52911392 L10.3588235,5.49367089 Z M7.5,9.1443038 C7.58823529,8.94936709 7.69411765,8.71898734 7.8,8.50632911 C8.27647059,7.58481013 8.94705882,6.80506329 9.75882353,6.18481013 C9.56470588,6.64556962 9.67058824,7.21265823 10.0058824,7.79746835 C9.05294118,8.70126582 8.27647059,9.78227848 7.8,10.9873418 C7.41176471,10.3139241 7.28823529,9.67594937 7.5,9.1443038 Z M17.8764706,5.10379747 C17.0647059,5.3164557 16.2,5.79493671 15.3529412,6.45063291 C14.9117647,6.14936709 14.5764706,5.84810127 14.3647059,5.54683544 C15.5117647,5.15696203 16.7117647,4.99746835 17.8764706,5.10379747 Z M15.0352941,3.96962025 C15.9882353,4.05822785 16.9588235,4.43037975 17.8764706,5.10379747 C16.6588235,4.60759494 15.4058824,4.39493671 14.2058824,4.44810127 C14.2411765,4.37721519 14.2941176,4.32405063 14.3647059,4.27088608 C14.5235294,4.12911392 14.7529412,4.04050633 15.0352941,3.96962025 Z M7.5,9.16202532 C7.51764706,9.1443038 7.51764706,9.1443038 7.5,9.16202532 C7.5,9.1443038 7.5,9.1443038 7.5,9.16202532 Z M7.39411765,14.921519 C7.25294118,14.6911392 7.16470588,14.4607595 7.11176471,14.2481013 C6.97058824,13.6278481 6.9,12.9898734 6.9,12.3341772 C6.9,11.4126582 7.04117647,10.5265823 7.32352941,9.67594937 C7.16470588,10.1898734 7.27058824,10.7924051 7.64117647,11.4303797 C7.21764706,12.6708861 7.16470588,13.8582278 7.39411765,14.921519 Z M17.8764706,5.10379747 C16.6764706,4.9443038 15.4411765,5.05063291 14.2588235,5.38734177 C14.0823529,5.08607595 14.0294118,4.80253165 14.1352941,4.5721519 C15.3529412,4.4835443 16.6235294,4.64303797 17.8764706,5.10379747 Z M18.9529412,4.69620253 C18.8823529,4.66075949 18.7764706,4.60759494 18.6882353,4.5721519 C18.7764706,4.60759494 18.8647059,4.64303797 18.9529412,4.69620253 Z M17.8764706,5.10379747 C18.3529412,4.71392405 18.7058824,4.58987342 18.9352941,4.69620253 C19.0235294,4.74936709 19.1294118,4.78481013 19.2176471,4.83797468 C19.2352941,4.8556962 19.2529412,4.8556962 19.2705882,4.87341772 C19.2529412,4.87341772 19.2529412,4.8556962 19.2352941,4.8556962 C19.2529412,4.87341772 19.2882353,4.87341772 19.3058824,4.89113924 C19.3235294,4.90886076 19.3588235,4.92658228 19.3764706,4.92658228 C19.3588235,4.92658228 19.3588235,4.90886076 19.3411765,4.90886076 C19.3764706,4.92658228 19.4117647,4.9443038 19.4470588,4.96202532 C19.4470588,4.96202532 19.4647059,4.96202532 19.4647059,4.97974684 C19.4823529,4.97974684 19.4823529,4.99746835 19.5,4.99746835 C19.5176471,4.99746835 19.5176471,5.01518987 19.5352941,5.01518987 C19.8705882,5.21012658 20.1529412,5.42278481 20.3823529,5.61772152 C19.7294118,5.21012658 18.8647059,5.03291139 17.8764706,5.10379747 Z M17.8764706,5.10379747 C17.6470588,4.46582278 17.3470588,4.11139241 16.9764706,4.04050633 C16.9764706,4.04050633 16.9764706,4.04050633 16.9941176,4.04050633 C17.5764706,4.16455696 18.1235294,4.34177215 18.6529412,4.5721519 C18.4941176,4.50126582 18.2470588,4.66075949 17.8764706,5.10379747 Z M17.0647059,4.05822785 C17.0470588,4.05822785 17.0117647,4.04050633 16.9941176,4.04050633 C16.9764706,4.04050633 16.9588235,4.04050633 16.9411765,4.02278481 L16.9764706,4.02278481 L17.0647059,4.05822785 Z M18.6882353,4.5721519 C18.6882353,4.5721519 18.6705882,4.5721519 18.6705882,4.55443038 C18.6705882,4.5721519 18.6705882,4.5721519 18.6882353,4.5721519 Z M14.8941176,3.9164557 C14.6647059,3.9164557 14.4176471,3.9164557 14.1882353,3.95189873 C14.5588235,3.89873418 14.9294118,3.88101266 15.3176471,3.88101266 C15.4058824,3.88101266 15.4941176,3.88101266 15.5647059,3.88101266 C15.3176471,3.86329114 15.1058824,3.88101266 14.8941176,3.9164557 Z M10.5529412,5.36962025 C10.5705882,5.35189873 10.6058824,5.33417722 10.6411765,5.29873418 L10.7823529,5.21012658 C11.6294118,4.66075949 12.5823529,4.27088608 13.5882353,4.05822785 C13.9411765,3.98734177 14.2941176,3.95189873 14.6647059,3.95189873 C14.3470588,4.02278481 14.1,4.12911392 13.9058824,4.28860759 C13.8352941,4.34177215 13.7823529,4.41265823 13.7294118,4.4835443 C12.4588235,4.60759494 11.2764706,5.03291139 10.2529412,5.70632911 C10.3235294,5.58227848 10.4294118,5.47594937 10.5529412,5.36962025 Z M13.6058824,4.04050633 L13.5882353,4.04050633 C13.5705882,4.04050633 13.5529412,4.04050633 13.5352941,4.05822785 C13.5529412,4.05822785 13.5882353,4.05822785 13.6058824,4.04050633 Z M14.1352941,3.95189873 C13.9764706,3.98734177 13.7647059,4.00506329 13.6058824,4.04050633 C13.7823529,4.00506329 13.9588235,3.96962025 14.1352941,3.95189873 Z M15.2470588,3.93417722 C15.6705882,3.88101266 16.1647059,3.89873418 16.7117647,3.98734177 C17.1529412,4.07594937 17.5588235,4.44810127 17.8941176,5.10379747 C17.0294118,4.41265823 16.1294118,4.04050633 15.2470588,3.93417722 Z M16.6941176,3.98734177 C16.6588235,3.98734177 16.6235294,3.96962025 16.5882353,3.96962025 C16.6235294,3.96962025 16.6411765,3.96962025 16.6588235,3.98734177 L16.6941176,3.98734177 Z M16.2,3.9164557 C16.1647059,3.9164557 16.1294118,3.9164557 16.0941176,3.89873418 C16.1294118,3.9164557 16.1647059,3.9164557 16.2,3.9164557 Z M16.5705882,3.96962025 C16.4470588,3.95189873 16.3235294,3.93417722 16.2,3.9164557 C16.3235294,3.93417722 16.4470588,3.95189873 16.5705882,3.96962025 Z M21.4764706,6.96455696 C21.4058824,6.64556962 21.1941176,6.30886076 20.8588235,5.9721519 C20.9823529,6.07848101 21.1058824,6.18481013 21.2294118,6.29113924 C22.1823529,7.23037975 22.9235294,8.4 23.3470588,9.71139241 C23.3647059,9.78227848 23.3823529,9.85316456 23.4,9.90632911 C23.0294118,8.80759494 22.3764706,7.77974684 21.4764706,6.96455696 Z M21.2647059,6.3443038 C21.2470588,6.32658228 21.2294118,6.30886076 21.2117647,6.29113924 L21.1941176,6.27341772 L21.2647059,6.3443038 Z M15.6,6.59240506 C16.3764706,5.90126582 17.1529412,5.36962025 17.8764706,5.10379747 C17.7352941,5.65316456 17.5058824,6.43291139 17.2235294,7.35443038 C16.9058824,7.24810127 16.5882353,7.12405063 16.2705882,6.96455696 C16.0235294,6.84050633 15.7941176,6.7164557 15.6,6.59240506 Z M19.5529412,5.01518987 C19.5352941,4.99746835 19.5352941,4.99746835 19.5176471,4.99746835 C19.5352941,5.01518987 19.5529412,5.01518987 19.5529412,5.01518987 Z M19.5529412,5.01518987 C19.6235294,5.05063291 19.6941176,5.08607595 19.7470588,5.13924051 C19.6764706,5.08607595 19.6058824,5.05063291 19.5529412,5.01518987 Z M23.7529412,12.3341772 C23.7529412,13.1848101 23.6294118,14.0177215 23.4,14.7797468 C23.3117647,15.0632911 23.1352941,15.3291139 22.8529412,15.5594937 C22.7647059,15.6303797 22.6764706,15.7012658 22.5705882,15.7544304 C22.9411765,14.5139241 23.0117647,13.2025316 22.7823529,11.9265823 C22.8705882,11.8734177 22.9411765,11.8202532 23.0294118,11.7493671 C23.4,11.4303797 23.5764706,11.0405063 23.5588235,10.5974684 C23.6294118,10.8810127 23.6823529,11.164557 23.7176471,11.4481013 C23.7176471,11.5367089 23.7352941,11.643038 23.7529412,11.7670886 C23.7352941,11.9620253 23.7529412,12.156962 23.7529412,12.3341772 Z M23.7176471,11.5367089 C23.7176471,11.5012658 23.7176471,11.4835443 23.7,11.4481013 C23.7,11.4126582 23.7,11.3772152 23.6823529,11.3417722 C23.7,11.4126582 23.7,11.4835443 23.7176471,11.5367089 Z M10.4823529,19.2632911 C10.4294118,19.2278481 10.3764706,19.1924051 10.3058824,19.1392405 C10.3411765,19.1746835 10.3941176,19.1924051 10.4294118,19.2278481 C10.3941176,19.2101266 10.3588235,19.1746835 10.3058824,19.1392405 L10.2882353,19.121519 C10.2705882,19.1037975 10.2529412,19.1037975 10.2529412,19.0860759 C10.2705882,19.1037975 10.2705882,19.1037975 10.2882353,19.121519 C10.2529412,19.1037975 10.2176471,19.0683544 10.2,19.0506329 C9.52941176,18.5367089 8.94705882,17.9164557 8.45294118,17.2253165 C8.41764706,17.1721519 8.38235294,17.1189873 8.34705882,17.0658228 C8.38235294,17.1189873 8.41764706,17.1721519 8.45294118,17.2075949 C7.92352941,16.4632911 7.51764706,15.6303797 7.25294118,14.7265823 C7.30588235,14.921519 7.39411765,15.0987342 7.51764706,15.3113924 C7.64117647,15.7544304 7.83529412,16.1974684 8.06470588,16.5873418 L8.08235294,16.6227848 C8.15294118,16.7468354 8.24117647,16.8886076 8.32941176,17.0303797 C8.04705882,16.6050633 7.83529412,16.1265823 7.69411765,15.6126582 C8.11764706,16.1974684 8.75294118,16.8 9.6,17.3670886 C9.68823529,18.2177215 9.98823529,18.8734177 10.4823529,19.2632911 Z M21.1235294,6.66329114 C20.2235294,5.93670886 19.1294118,5.40506329 17.8764706,5.10379747 C18.9352941,5.08607595 19.8352941,5.33417722 20.5588235,5.77721519 C20.8764706,6.07848101 21.0705882,6.39746835 21.1235294,6.66329114 Z M17.5235294,7.44303797 C17.7176471,6.48607595 17.8411765,5.67088608 17.8941176,5.10379747 C18.4411765,5.79493671 18.8647059,6.69873418 19.1647059,7.7443038 C18.6352941,7.72658228 18.0882353,7.62025316 17.5235294,7.44303797 Z M19.3941176,7.76202532 C19.0235294,6.7164557 18.5117647,5.79493671 17.8764706,5.10379747 C18.9529412,5.72405063 19.8705882,6.57468354 20.6117647,7.56708861 C20.2941176,7.70886076 19.8882353,7.76202532 19.3941176,7.76202532 Z M17.8764706,5.10379747 C19.1470588,5.45822785 20.2411765,6.04303797 21.1411765,6.80506329 C21.1588235,7.03544304 21.0705882,7.23037975 20.8764706,7.38987342 C20.8411765,7.42531646 20.8058824,7.44303797 20.7529412,7.47848101 C19.9764706,6.52151899 19.0058824,5.68860759 17.8764706,5.10379747 Z"/>
</svg>
