<svg xmlns="http://www.w3.org/2000/svg" width="30" height="30" viewBox="0 0 30 30">
  <g fill="#1E76BC">
    <path d="M16.5103279 9.4105C17.8066366 13.0581074 21.7659829 14.9467136 25.3538058 13.6288345 28.9416287 12.3109553 30.7993118 8.28563775 29.5030713 4.63800526 28.2068307.990372777 24.2475197-.89830988 20.6596721.4195 18.9366912 1.05233935 17.5315851 2.35517174 16.7535091 4.04134444 15.975433 5.72751714 15.888134 7.65888384 16.5108197 9.4105M7.71934426 22.4325C6.7265763 24.2182887 6.88969181 26.4362389 8.13262706 28.0520802 9.37556231 29.6679214 11.4535296 30.3634247 13.3975352 29.8142643 15.3415407 29.2651038 16.7687257 27.579433 17.0135679 25.5433108 17.2584101 23.5071886 16.2726896 21.5216154 14.5160656 20.5125 13.3643431 19.8507259 12.0012042 19.6812306 10.7265549 20.0413052 9.45190563 20.4013798 8.37017072 21.2615254 7.71934426 22.4325M.548852459 12.589C.233276354 14.1784347 1.24480756 15.7270185 2.80818166 16.0478756 4.37155575 16.3687328 5.89476661 15.3403636 6.21038491 13.7509376 6.52600321 12.1615116 5.51451312 10.6129001 3.95114754 10.292 2.38783534 9.971674.864928283 10.9998381.548852459 12.589"/>
  </g>
</svg>
