<svg xmlns="http://www.w3.org/2000/svg" width="50" height="50" viewBox="0 0 50 50">
  <g fill="none" fill-rule="evenodd">
    <circle cx="25" cy="25" r="25" fill="#3F4040"/>
    <g fill="#FFF" fill-rule="nonzero" transform="translate(2.352 28.138)">
      <path d="M2.66130268,3.48287293 C2.66130268,3.88066298 2.53793103,4.19889503 2.28237548,4.43756906 C2.02681992,4.67624309 1.69195402,4.79116022 1.26896552,4.79116022 C0.97816092,4.79116022 0.722605364,4.72044199 0.502298851,4.57016575 C0.281992337,4.4198895 0.123371648,4.21657459 0.0264367816,3.94254144 L0.281992337,3.80994475 C0.361302682,4.03093923 0.49348659,4.19889503 0.669731801,4.32265193 C0.845977011,4.44640884 1.05747126,4.50828729 1.2954023,4.50828729 C1.6302682,4.50828729 1.89463602,4.4198895 2.07969349,4.23425414 C2.27356322,4.04861878 2.37049808,3.80110497 2.37049808,3.48287293 C2.37049808,3.2441989 2.29118774,3.0320442 2.14137931,2.8640884 C1.98275862,2.68729282 1.73601533,2.51933702 1.37471264,2.35138122 C0.934099617,2.1480663 0.634482759,1.95359116 0.467049808,1.77679558 C0.299616858,1.6 0.220306513,1.36132597 0.220306513,1.06077348 C0.220306513,0.751381215 0.32605364,0.495027624 0.546360153,0.300552486 C0.757854406,0.106077348 1.048659,0.00883977901 1.39233716,0.00883977901 C1.60383142,0.00883977901 1.78888889,0.053038674 1.95632184,0.141436464 C2.11494253,0.229834254 2.24712644,0.35359116 2.35287356,0.53038674 L2.12375479,0.698342541 C2.04444444,0.565745856 1.93869732,0.468508287 1.80651341,0.397790055 C1.6743295,0.327071823 1.52452107,0.291712707 1.36590038,0.291712707 C1.10153257,0.291712707 0.898850575,0.362430939 0.749042146,0.503867403 C0.599233716,0.645303867 0.519923372,0.830939227 0.519923372,1.07845304 C0.519923372,1.27292818 0.572796935,1.4320442 0.669731801,1.5558011 C0.766666667,1.67955801 0.942911877,1.8121547 1.19846743,1.94475138 C1.26896552,1.9801105 1.36590038,2.03314917 1.49808429,2.09502762 C2.27356322,2.47513812 2.66130268,2.94364641 2.66130268,3.48287293 Z"/>
      <polygon points="9.103 .345 7.984 .345 7.984 4.738 7.684 4.738 7.684 .345 6.574 .345 6.574 .071 9.103 .071"/>
      <path d="M16.5141762 2.99668508C16.5141762 3.63314917 16.3908046 4.09281768 16.1528736 4.36685083 15.9061303 4.64972376 15.5183908 4.78232044 14.9720307 4.78232044 14.4256705 4.78232044 14.037931 4.64088398 13.7911877 4.36685083 13.5444444 4.0839779 13.4298851 3.63314917 13.4298851 2.99668508L13.4298851.061878453 13.7295019.061878453 13.7295019 3.07624309C13.7295019 3.5801105 13.8264368 3.94254144 14.0291188 4.17237569 14.2318008 4.40220994 14.5490421 4.50828729 14.9808429 4.50828729 15.4126437 4.50828729 15.7298851 4.39337017 15.932567 4.17237569 16.135249 3.94254144 16.2321839 3.5801105 16.2321839 3.07624309L16.2321839.061878453 16.5318008.061878453 16.5318008 2.99668508 16.5141762 2.99668508zM24.454023 2.40441989C24.454023 3.19116022 24.2337165 3.77458564 23.8019157 4.15469613 23.3701149 4.53480663 22.7003831 4.72928177 21.8015326 4.72928177L21.2375479 4.72928177 21.2375479.061878453 21.8896552.061878453C22.7268199.061878453 23.3613027.26519337 23.8019157.671823204 24.2425287 1.07845304 24.454023 1.65303867 24.454023 2.40441989zM24.1632184 2.39558011C24.1632184 1.72375691 23.9693487 1.21104972 23.5727969.857458564 23.1850575.512707182 22.6034483.335911602 21.8367816.335911602L21.5283525.335911602 21.5283525 4.44640884 21.748659 4.44640884C22.6034483 4.44640884 23.2203065 4.27845304 23.5904215 3.95138122 23.9781609 3.63314917 24.1632184 3.11160221 24.1632184 2.39558011z"/>
      <polygon points="29.23 4.729 28.931 4.729 28.931 .062 29.23 .062"/>
      <path d="M38.4743295 2.39558011C38.4743295 3.05856354 38.2363985 3.62430939 37.7693487 4.09281768 37.3022989 4.56132597 36.7295019 4.79116022 36.0597701 4.79116022 35.3988506 4.79116022 34.8348659 4.56132597 34.3678161 4.09281768 33.9007663 3.62430939 33.6716475 3.05856354 33.6716475 2.39558011 33.6716475 1.71491713 33.9007663 1.14033149 34.3590038.689502762 34.8172414.229834254 35.3900383-1.42108547e-14 36.0685824-1.42108547e-14 36.7471264-1.42108547e-14 37.3199234.229834254 37.7869732.689502762 38.2452107 1.14917127 38.4743295 1.71491713 38.4743295 2.39558011zM38.1835249 2.39558011C38.1835249 1.80331492 37.9808429 1.29944751 37.5666667.89281768 37.1613027.486187845 36.6590038.282872928 36.0685824.282872928 35.4781609.282872928 34.9846743.486187845 34.5793103.89281768 34.1739464 1.29944751 33.9712644 1.80331492 33.9712644 2.39558011 33.9712644 2.9878453 34.1739464 3.49171271 34.5793103 3.89834254 34.9846743 4.30497238 35.4781609 4.50828729 36.0685824 4.50828729 36.6590038 4.50828729 37.1613027 4.30497238 37.5666667 3.89834254 37.9720307 3.49171271 38.1835249 2.9878453 38.1835249 2.39558011zM45.2245211 3.48287293C45.2245211 3.88066298 45.1011494 4.19889503 44.8455939 4.43756906 44.5900383 4.67624309 44.2551724 4.79116022 43.8321839 4.79116022 43.5413793 4.79116022 43.2858238 4.72044199 43.0655172 4.57016575 42.8452107 4.4198895 42.68659 4.21657459 42.5896552 3.94254144L42.8452107 3.80994475C42.9245211 4.03093923 43.056705 4.19889503 43.2329502 4.32265193 43.4091954 4.44640884 43.6206897 4.50828729 43.8586207 4.50828729 44.1934866 4.50828729 44.4578544 4.4198895 44.6429119 4.23425414 44.8367816 4.04861878 44.9337165 3.80110497 44.9337165 3.48287293 44.9337165 3.2441989 44.8544061 3.0320442 44.7045977 2.8640884 44.545977 2.68729282 44.2992337 2.51933702 43.937931 2.35138122 43.497318 2.1480663 43.1977011 1.95359116 43.0302682 1.77679558 42.8628352 1.6 42.7835249 1.36132597 42.7835249 1.06077348 42.7835249.751381215 42.889272.495027624 43.1095785.300552486 43.3210728.106077348 43.6118774.00883977901 43.9555556.00883977901 44.1670498.00883977901 44.3521073.053038674 44.5195402.141436464 44.6781609.229834254 44.8103448.35359116 44.916092.53038674L44.6869732.698342541C44.6076628.565745856 44.5019157.468508287 44.3697318.397790055 44.2375479.327071823 44.0877395.291712707 43.9291188.291712707 43.664751.291712707 43.462069.362430939 43.3122605.503867403 43.1624521.645303867 43.0831418.830939227 43.0831418 1.07845304 43.0831418 1.27292818 43.1360153 1.4320442 43.2329502 1.5558011 43.3298851 1.67955801 43.5061303 1.8121547 43.7616858 1.94475138 43.8321839 1.9801105 43.9291188 2.03314917 44.0613027 2.09502762 44.8279693 2.47513812 45.2245211 2.94364641 45.2245211 3.48287293z"/>
    </g>
    <g fill="#FFF" fill-rule="nonzero" transform="translate(2 17)">
      <polygon points="44.528 2.36 44.475 2.51 42.687 7.16 40.836 2.36 39.4 2.36 42.07 9.14 43.303 9.14 45.965 2.36"/>
      <polygon points="8.292 2.484 6.75 7.143 5.411 3.05 4.344 3.05 3.014 7.143 1.463 2.484 .035 2.484 2.388 9.273 3.578 9.273 4.864 5.233 6.169 9.273 7.367 9.273 9.702 2.484"/>
      <path d="M16.6727969 5.18895028L15.1306513 5.18895028 14.6283525 5.18895028 10.5482759 5.18895028C10.7421456 4.28729282 11.5793103 3.5359116 12.7072797 3.5359116L12.716092 3.5359116C12.7337165 3.5359116 12.751341 3.5359116 12.7689655 3.5359116 13.5268199 3.5359116 14.1965517 3.96906077 14.5754789 4.54364641L14.645977 4.65856354 16.064751 4.65856354 15.9061303 4.31381215C15.7298851 3.93370166 15.4831418 3.5801105 15.1747126 3.27955801 14.5314176 2.66077348 13.6501916 2.32486188 12.7072797 2.32486188 11.702682 2.32486188 10.8126437 2.72265193 10.1781609 3.3679558 9.54367816 4.01325967 9.16475096 4.91491713 9.16475096 5.90497238 9.16475096 6.74475138 9.46436782 7.62872928 10.0636015 8.30939227 10.6628352 8.99005525 11.5616858 9.45856354 12.716092 9.45856354 12.716092 9.45856354 12.716092 9.45856354 12.7249042 9.45856354 13.4122605 9.45856354 14.0731801 9.27292818 14.645977 8.90165746 15.2275862 8.53922652 15.7034483 7.98232044 16.0118774 7.25745856L16.1616858 6.92154696 14.7164751 6.92154696 14.645977 7.05414365C14.2758621 7.79668508 13.5885057 8.2121547 12.7072797 8.22099448 12.6984674 8.22099448 12.6896552 8.22099448 12.6808429 8.22099448 12.2049808 8.22099448 11.6586207 8.0441989 11.2444444 7.69944751 10.8743295 7.39005525 10.6011494 6.96574586 10.5218391 6.38232044L16.6816092 6.38232044 16.6992337 6.16132597C16.708046 6.05524862 16.7168582 5.94033149 16.7168582 5.83425414 16.7168582 5.69281768 16.708046 5.55138122 16.6904215 5.41878453L16.6727969 5.18895028zM39.945977 5.18895028L38.4038314 5.18895028 37.9015326 5.18895028 33.8214559 5.18895028C34.0153257 4.28729282 34.8613027 3.5359116 35.989272 3.5359116L35.9980843 3.5359116C36.0157088 3.5359116 36.0333333 3.5359116 36.0509579 3.5359116 36.8088123 3.5359116 37.4785441 3.96906077 37.8574713 4.54364641L37.9279693 4.65856354 39.3467433 4.65856354 39.1881226 4.31381215C39.0118774 3.93370166 38.7651341 3.5801105 38.456705 3.27955801 37.81341 2.66077348 36.9321839 2.32486188 35.989272 2.32486188 34.9846743 2.32486188 34.094636 2.72265193 33.4601533 3.37679558 32.8256705 4.02209945 32.4467433 4.92375691 32.4467433 5.91381215 32.4467433 6.75359116 32.7463602 7.63756906 33.3455939 8.31823204 33.9448276 8.99889503 34.8436782 9.46740331 35.9980843 9.46740331 35.9980843 9.46740331 35.9980843 9.46740331 36.0068966 9.46740331 36.6942529 9.46740331 37.3551724 9.28176796 37.9279693 8.91049724 38.5095785 8.5480663 38.9854406 7.99116022 39.2938697 7.26629834L39.4436782 6.93038674 38.0249042 6.93038674 37.9544061 7.06298343C37.5842912 7.80552486 36.8969349 8.22099448 36.0157088 8.22983425 36.0068966 8.22983425 35.9980843 8.22983425 35.989272 8.22983425 35.51341 8.22983425 34.9670498 8.05303867 34.5528736 7.70828729 34.1827586 7.39889503 33.9095785 6.97458564 33.8302682 6.38232044L39.9900383 6.38232044 40.0076628 6.16132597C40.0164751 6.05524862 40.0252874 5.94033149 40.0252874 5.83425414 40.0252874 5.69281768 40.0164751 5.55138122 39.9988506 5.41878453L39.945977 5.18895028zM23.3172414 3.35911602C22.6739464 2.74917127 21.8191571 2.42209945 20.937931 2.42209945 20.497318 2.43093923 20.0302682 2.5281768 19.5984674 2.74033149 19.2724138 2.89944751 18.9727969 3.11160221 18.7084291 3.39447514L18.7084291 2.77569061 18.7084291.070718232 17.1750958.070718232 17.1750958.220994475 17.1750958 9.41436464 18.6555556 9.41436464 18.6555556 8.61878453C19.1490421 9.2198895 19.9421456 9.60883978 20.8938697 9.6 21.8632184 9.6 22.7356322 9.23756906 23.3613027 8.60994475 23.9957854 7.97348066 24.3747126 7.0718232 24.3747126 5.98453039 24.3747126 4.87071823 23.9605364 3.96906077 23.3172414 3.35911602zM22.8413793 6.01104972C22.832567 6.54143646 22.6475096 7.08066298 22.2862069 7.47845304 21.9249042 7.87624309 21.4049808 8.15027624 20.7088123 8.15027624 20.0831418 8.15027624 19.5808429 7.90276243 19.2195402 7.51381215 18.8582375 7.12486188 18.6555556 6.58563536 18.6555556 6.00220994 18.6555556 5.41878453 18.8670498 4.88839779 19.2371648 4.50828729 19.6072797 4.11933702 20.1272031 3.88066298 20.7528736 3.88066298 21.3521073 3.88066298 21.8720307 4.11933702 22.2509579 4.49944751 22.6210728 4.87955801 22.8501916 5.40994475 22.8501916 6.01104972L22.8413793 6.01104972zM24.8241379 5.99337017C24.8241379 7.0718232 25.2118774 7.98232044 25.8375479 8.61878453 26.4720307 9.25524862 27.3444444 9.60883978 28.3049808 9.60883978 29.256705 9.60883978 30.0498084 9.2198895 30.543295 8.62762431L30.543295 9.42320442 32.0237548 9.42320442 32.0237548.212154696 32.0237548.070718232 30.4904215.070718232 30.4904215 2.77569061 30.4904215 3.39447514C30.2260536 3.11160221 29.9176245 2.89944751 29.6003831 2.74033149 29.1597701 2.5281768 28.6927203 2.43093923 28.2609195 2.42209945 27.3885057 2.42209945 26.5249042 2.74917127 25.8816092 3.35911602 25.2383142 3.96906077 24.8241379 4.87071823 24.8241379 5.99337017zM26.3574713 6.00220994C26.3574713 5.40994475 26.58659 4.87955801 26.956705 4.49060773 27.3268199 4.11049724 27.8555556 3.8718232 28.4547893 3.8718232 29.0804598 3.8718232 29.6003831 4.11933702 29.9704981 4.49944751 30.340613 4.88839779 30.5521073 5.41878453 30.5521073 5.99337017 30.5521073 6.57679558 30.340613 7.1160221 29.9881226 7.50497238 29.6268199 7.89392265 29.1157088 8.14143646 28.4988506 8.14143646 27.7938697 8.14143646 27.2739464 7.86740331 26.9214559 7.46961326 26.5601533 7.0718232 26.3750958 6.53259669 26.3662835 6.00220994L26.3574713 6.00220994z"/>
    </g>
  </g>
</svg>
