<svg xmlns="http://www.w3.org/2000/svg" width="40" height="40" viewBox="0 0 40 40">
  <defs>
    <linearGradient id="windingtree-a" x1="11.593%" x2="92.219%" y1="14.486%" y2="75.887%">
      <stop offset="0%" stop-color="#36FEB4"/>
      <stop offset="49.067%" stop-color="#09DF9F"/>
      <stop offset="100%" stop-color="#2292DD"/>
    </linearGradient>
  </defs>
  <path fill="url(#windingtree-a)" d="M19.9811429,0 L19.9948571,0 C31.04,0.00342857143 39.9965714,8.95542857 40,20 C40,31.04 31.0514286,39.9925714 20.0074286,40 L19.98,40 C9.17028571,39.9925714 0.362857143,31.4125714 0,20.6891429 L0,19.3102857 C0.363428571,8.59028571 9.16742857,0.00742857143 19.9805714,0 L19.9811429,0 Z M32.54,9.37428571 L34.8782857,9.772 C34.3874962,9.0597114 33.846301,8.38350385 33.2588571,7.74857143 L32.54,9.37428571 Z M36.5257143,12.7177143 L36.5251429,12.7182857 C36.2197079,12.0260069 35.8710191,11.3536311 35.4811429,10.7051429 L34.4514286,12.0628571 L36.5262857,12.7182857 L36.5257143,12.7177143 Z M37.176,14.4194286 C37.0919888,14.1620325 37.0022522,13.9065405 36.9068571,13.6531429 L34.1902857,12.7948571 L34.1708571,14.9177143 L34.3017143,16.3371429 L37.176,14.4194286 Z M37.86,17.3342857 C37.7530692,16.6133973 37.6023137,15.899694 37.4085714,15.1971429 L34.988,16.8125714 L37.86,17.3342857 Z M38.0565714,20 C38.0565714,19.3794286 38.0251429,18.7588571 37.9617143,18.1417143 L34.4074286,17.496 L34.5097143,18.608 L34.5097143,18.6097143 L34.6148571,19.7582857 L38.0525714,20.2822857 C38.0542857,20.1885714 38.0565714,20.0942857 38.0565714,20 Z M37.8977143,22.3988571 C37.956,21.9588571 37.9982857,21.5131429 38.0245714,21.0634286 L34.4542857,20.5194286 L33.4754286,22.1251429 L35.3285714,23.8937143 L37.8977143,22.3988571 Z M37.1565714,25.6388571 C37.398161,24.9030037 37.5918988,24.1522936 37.7365714,23.3914286 L35.9137143,24.4525714 L37.1565714,25.6388571 Z M36.0108571,28.3514286 C36.3349165,27.7318113 36.6224552,27.0937693 36.872,26.4405714 L35.2148571,24.86 L33.1268571,26.076 L36.0108571,28.3514286 Z M20.368,38.0531429 L20.3668571,38.0531429 C26.6795708,37.9220859 32.4661237,34.5057429 35.6302857,29.0417143 L34.6302857,28.2525714 L31.7085714,30.3782857 C31.5443188,30.4978504 31.315687,30.4707035 31.184,30.316 L29.3068571,28.1062857 L27.0537143,29.4365714 L27.0502857,29.4388571 L25.0262857,30.6108571 C24.885966,30.6922287 24.7098632,30.6778762 24.5845714,30.5748571 L22.6085714,28.9502857 L20.3685714,32.4074286 L20.3685714,38.0531429 L20.368,38.0531429 Z M19.9668571,31.5988571 L21.9045714,28.6114286 L19.8817143,28.0697143 L19.872,28.0657143 C19.8569121,28.0602374 19.8422119,28.0537464 19.828,28.0462857 C19.8067279,28.037416 19.7862695,28.0267088 19.7668571,28.0142857 C19.7542533,28.0051361 19.7422301,27.9952122 19.7308571,27.9845714 C19.7011401,27.9595493 19.6754997,27.9300533 19.6548571,27.8971429 C19.6421211,27.8765078 19.6314048,27.8546925 19.6228571,27.832 C19.6194286,27.8234286 19.6137143,27.8171429 19.6114286,27.808 L18.8811429,25.4354286 L17.1897143,27.6434286 L19.9668571,31.5988571 Z M19.5908571,38.0531429 L19.5897143,38.0531429 L19.5897143,32.4154286 L16.6891429,28.2857143 L15.1622857,30.2411429 C15.0576668,30.3752355 14.8780005,30.4257087 14.7188571,30.3657143 L10.336,28.7177143 L8.62914286,29.9245714 L8.61771429,29.9302857 C8.59037168,29.9484879 8.56079399,29.9630847 8.52971429,29.9737143 C8.52571429,29.9754286 8.52285714,29.9782857 8.51942857,29.9782857 C8.49268923,29.9866975 8.46508599,29.9920648 8.43714286,29.9942857 L5.11428571,30.272 C8.41151311,35.0385721 13.7962518,37.9328638 19.5908571,38.0531429 Z M4.464,29.2645714 L4.46285714,29.2645714 C4.51714286,29.3542857 4.572,29.444 4.628,29.5337143 L7.752,29.2725714 L6.19771429,26.6914286 L5.54742857,27.02 L4.464,29.264 L4.464,29.2645714 Z M2.74,25.4342857 L2.73885714,25.4342857 C3.06685098,26.4723228 3.48858862,27.4783727 3.99885714,28.44 L4.76171429,26.8605714 L2.74,25.4342857 Z M2.27028571,23.6228571 L2.26914286,23.6228571 C2.31142857,23.8342857 2.36057143,24.0434286 2.41028571,24.2525714 L5.288,26.2811429 L6.92628571,25.4525714 L5.89885714,23.5365714 L5.12742857,22.5834286 L2.27028571,23.6234286 L2.27028571,23.6228571 Z M1.91714286,20.5908571 L1.91542857,20.5908571 C1.94005676,21.3468075 2.01200713,22.1004733 2.13085714,22.8474286 L4.61028571,21.9445714 L3.27428571,20.2942857 L1.91714286,20.5908571 Z M2.14971429,17.0308571 C1.99828571,17.9451429 1.91771429,18.8708571 1.908,19.7977143 L5.04685714,19.112 L3.968,16.8228571 L2.14971429,17.0308571 Z M2.80628571,14.3582857 C2.60392558,14.9732437 2.43510566,15.5987358 2.30057143,16.232 L3.61828571,16.0811429 L2.80628571,14.3582857 Z M3.60285714,12.3542857 L3.60228571,12.3542857 C3.45174079,12.674446 3.31110255,12.9991717 3.18057143,13.328 L4.43428571,15.988 L7.576,15.6291429 L7.15314286,14.7702857 L3.60285714,12.3542857 Z M7.26457143,7.168 C6.07398325,8.34542945 5.05226951,9.68213794 4.22857143,11.14 L7.02114286,9.828 L8.02,7.21942857 L7.26457143,7.168 Z M9.91714286,4.99828571 L9.91714286,4.99771429 C9.26103976,5.43810797 8.63437492,5.92084796 8.04114286,6.44285714 L11.2982857,6.66571429 L9.91714286,4.99828571 Z M12.6394286,3.49542857 C11.9291714,3.81064259 11.2401061,4.17159065 10.5765714,4.576 L12.1034286,6.41885714 L13.076,4.57371429 L12.6394286,3.49542857 Z M16.428,2.29142857 C15.3791886,2.49990947 14.3511014,2.8016806 13.356,3.19314286 L13.7422857,4.14914286 L15.5137143,3.78285714 L16.428,2.29142857 Z M17.8822857,2.06342857 C17.736549,2.08039619 17.5910153,2.09906413 17.4457143,2.11942857 L16.2245714,4.10971429 L17.7691429,6.22171429 L19.5897143,6.38342857 L19.5897143,3.69314286 L17.8822857,2.06285714 L17.8822857,2.06342857 Z M19.9805714,1.94171429 C19.6205714,1.94171429 19.2634286,1.95314286 18.9085714,1.97428571 L20.0874286,3.09428571 L21.7674286,2.02971429 C21.173629,1.97088079 20.5772785,1.94151143 19.9805714,1.94171429 Z M25.316,2.74171429 C24.5466183,2.50490586 23.7621817,2.32010795 22.968,2.18857143 L21.0354286,3.41314286 L24.9868571,4.496 L25.316,2.74171429 Z M29.0765714,7.14571429 L25.3942857,5.45657143 L24.0485714,7.008 L26.6685714,8.47085714 L29.0771429,7.14514286 L29.0765714,7.14571429 Z M26.0605714,2.99028571 L25.7291429,4.756 L29.2297143,6.36171429 L28.3611429,3.99771429 C27.6186825,3.60873879 26.8499538,3.27210973 26.0605714,2.99028571 Z M33.4971429,12.0302857 L34.6451429,10.52 L32.1422857,10.0948571 L30.4994286,12.1942857 L33.4011429,14.196 L33.4194286,12.2611429 L33.4194286,12.2531429 C33.4202553,12.2271482 33.4237013,12.2013032 33.4297143,12.176 L33.4297143,12.1714286 C33.4366606,12.1439379 33.4466259,12.1172998 33.4594286,12.092 C33.4634286,12.084 33.4691429,12.0771429 33.4737143,12.0691429 C33.4807568,12.0559271 33.4885802,12.0431426 33.4971429,12.0308571 L33.4971429,12.0302857 Z M32.6514286,21.9828571 L33.8582857,20.0057143 L33.7782857,19.1371429 L31.564,19.76 C31.5611429,19.7617143 31.5594286,19.76 31.5554286,19.7617143 C31.5514286,19.7628571 31.548,19.7657143 31.544,19.7657143 L29.9788571,20.1154286 L31.2342857,21.8994286 L31.2382857,21.9057143 C31.2451429,21.9171429 31.2514286,21.9291429 31.2577143,21.9417143 C31.2634286,21.9531429 31.2697143,21.9634286 31.2748571,21.9754286 C31.2754286,21.9771429 31.2777143,21.9788571 31.2777143,21.9805714 L31.8177143,23.3508571 L32.6508571,21.9845714 L32.6508571,21.9828571 L32.6514286,21.9828571 Z M32.1731429,24.2594286 L32.636,25.4605714 L34.6291429,24.3 L33.0611429,22.8028571 L32.1731429,24.2594286 Z M30.8977143,27.0765714 L29.9702857,27.6874286 L31.5417143,29.5377143 L33.996,27.7514286 L32.3742857,26.4714286 L30.8977143,27.0771429 L30.8977143,27.0765714 Z M27.8051429,25.3434286 L27.3582857,28.3525714 L29.184,27.2742857 L30,26.7377143 L27.8057143,25.3434286 L27.8051429,25.3434286 Z M27.0725714,9.76285714 L30.5737143,10.8371429 L31.484,9.67485714 L29.8394286,7.612 L27.06,9.14114286 L27.0725714,9.76285714 Z M29.6388571,12.0314286 L30.0617143,11.492 L27.0788571,10.5771429 L27.0788571,12.1314286 L28.3245714,13.5382857 L29.6388571,12.032 L29.6388571,12.0314286 Z M28.0022857,16.8405714 L32.9662857,14.8417143 L30.004,12.796 L28.6782857,14.3142857 L28.0022857,16.84 L28.0022857,16.8405714 Z M28.3965714,17.52 L31.4908571,18.9748571 L33.7051429,18.3514286 L33.4422857,15.4885714 L28.3965714,17.52 Z M29.2411429,19.4851429 L29.2434286,19.4851429 L30.264,19.2565714 L27.8137143,18.1045714 L27.8137143,19.804 L29.2411429,19.4851429 Z M30.6885714,22.6108571 L27.8308571,23.5925714 L27.884,24.4742857 L30.7537143,26.2971429 L31.9377143,25.8114286 L31.3782857,24.3605714 L30.6885714,22.6114286 L30.6885714,22.6108571 Z M27.8142857,22.7765714 L30.2994286,21.924 L29.1565714,20.2994286 L27.8137143,20.5994286 L27.8137143,22.7765714 L27.8142857,22.7765714 Z M25.3182857,13.9617143 L27.26,16.6097143 L27.8971429,14.2297143 L26.4851429,12.6348571 L24.9137143,12.3108571 L25.3182857,13.9617143 Z M23.5897143,24.8971429 L27.0988571,24.3657143 L27.052,23.5817143 L23.7891429,22.1462857 L23.5891429,24.8971429 L23.5897143,24.8971429 Z M24.2125714,25.5885714 L26.592,28.2302857 L27.0468571,25.1588571 L24.2125714,25.588 L24.2125714,25.5885714 Z M23.3771429,25.8211429 L20.8931429,27.5365714 L22.62,27.9994286 L22.624,28.0005714 C22.6515641,28.0080565 22.6782056,28.0185981 22.7034286,28.032 L22.72,28.0434286 C22.736369,28.0525275 22.7520321,28.0628422 22.7668571,28.0742857 L24.8702857,29.804 L26.2468571,29.0068571 L23.3771429,25.8211429 Z M22.9948571,22.3457143 L19.4845714,24.7588571 L20.196,27.0731429 L22.7811429,25.2868571 L22.9948571,22.3457143 Z M19.0862857,20.5474286 L19.0862857,22.5777143 L19.3125714,23.9342857 L21.3108571,22.5605714 L19.0862857,20.5474286 Z M17.9914286,16.0794286 L18.976,19.2565714 L20.5748571,19.1114286 L19.2057143,16.0794286 L17.9914286,16.0794286 Z M15.2771429,23.8697143 L18.5634286,24.168 L18.3142857,22.6737143 C18.3106328,22.6525733 18.3087216,22.631168 18.3085714,22.6097143 L18.3085714,22.4805714 L15.4005714,22.5085714 L15.2777143,23.8697143 L15.2771429,23.8697143 Z M14.3217143,26.0394286 L16.5902857,27.144 L18.2925714,24.9222857 L15.0765714,24.6308571 L14.3217143,26.0394286 Z M12.0045714,25.7834286 L10.9131429,28.1045714 L14.7245714,29.5388571 L16.104,27.772 L13.6182857,26.5605714 L12.0045714,25.7834286 Z M10.5531429,24.6771429 L7.62171429,25.9702857 L6.89257143,26.3394286 L8.52228571,29.0491429 L10.0548571,27.9651429 L10.152,27.8965714 L11.3434286,25.3645714 L10.5531429,24.6771429 Z M7.17942857,22.6405714 L6.67885714,23.3491429 L7.62857143,25.1188571 L9.77371429,24.172 L7.17942857,22.6405714 Z M5.70171429,19.7634286 C5.69714286,19.764 5.69314286,19.7668571 5.68914286,19.7685714 L4.12342857,20.1102857 L6.20171429,22.6788571 L8.10057143,19.9908571 L8.03085714,19.1211429 L5.70971429,19.7634286 L5.70171429,19.7634286 Z M7.968,18.3314286 L7.812,16.384 L4.78342857,16.7302857 L5.81771429,18.9262857 L7.968,18.332 L7.968,18.3314286 Z M9.436,10.6211429 L7.40457143,10.5057143 L4.36571429,11.9342857 L7.33942857,13.9571429 L8.73828571,11.6965714 C8.73890699,11.6953408 8.73967444,11.6941897 8.74057143,11.6931429 L8.74228571,11.6891429 L9.436,10.6211429 Z M9.92,9.86857143 L11.4868571,7.45428571 L8.82742857,7.272 L7.87828571,9.752 L9.92,9.86857143 Z M15.9542857,8.86971429 L12.3348571,7.58114286 L10.8302857,9.89885714 L14.7994286,9.89885714 L15.9542857,8.86971429 Z M16.48,8.232 L17.1154286,6.64628571 L15.588,4.55771429 L13.7594286,4.93542857 L12.7251429,6.89657143 L16.4805714,8.232 L16.48,8.232 Z M17.8125714,11.1765714 L16.6211429,9.31542857 L15.3365714,10.4611429 L15.3365714,12.2411429 L17.6634286,12.0817143 L17.8125714,11.1765714 Z M20.3948571,10.8588571 L19.652,7.16685714 L17.8097143,7.00342857 L17.1377143,8.68228571 L18.4428571,10.7194286 L20.3948571,10.8588571 Z M23.2748571,6.708 L24.5902857,5.19371429 L20.364,4.03542857 L20.364,6.44971429 L23.2748571,6.708 Z M22.8742857,11.2194286 L24.5262857,8.16457143 L23.3205714,7.492 L20.4594286,7.23828571 L21.2057143,10.9485714 L22.2182857,11.1354286 L22.8742857,11.2194286 Z M24.4651429,11.4234286 L26.2988571,11.8011429 L26.2988571,10.0537143 L26.2794286,9.14342857 L25.2051429,8.54342857 L23.7005714,11.3245714 L24.4354286,11.4182857 L24.4457143,11.4211429 C24.4525714,11.4234286 24.4588571,11.4217143 24.4651429,11.4234286 Z M21.2868571,19.8091429 L21.2897143,19.8114286 C21.2572629,19.8240378 21.2232283,19.8321138 21.1885714,19.8354286 L19.6154286,19.9782857 L21.9662857,22.1062857 L23.0497143,21.3617143 L23.0497143,19.1062857 L21.2954286,19.8074286 C21.2925714,19.8091429 21.2897143,19.8091429 21.2868571,19.8091429 Z M22.0794286,16.2948571 L20.0794286,16.1308571 L21.352,18.9485714 L22.9274286,18.3194286 L22.0794286,16.2948571 Z M22.3514286,11.936 L20.1342857,15.356 L22.2411429,15.5285714 L24.5154286,13.9588571 L24.0737143,12.156 L22.3514286,11.936 Z M19.244,15.3017143 L21.5165714,11.796 L20.8285714,11.6685714 L18.548,11.5062857 L17.9211429,15.3017143 L19.244,15.3017143 Z M13.2508571,22.1531429 L14.7428571,21.7948571 L15.3062857,20.1188571 L13.1502857,18.1502857 L12.2485714,20.312 L13.2508571,22.1537143 L13.2508571,22.1531429 Z M13.2097143,22.9622857 L11.2594286,24.2605714 L12.0337143,24.9348571 L13.62,25.6982857 L14.4742857,24.1062857 L14.6085714,22.6262857 L13.2097143,22.9622857 Z M8.68914286,20.5 L7.628,22.0022857 L10.6085714,23.7617143 L12.5405714,22.4748571 L11.5782857,20.7062857 L8.68914286,20.5005714 L8.68914286,20.5 Z M11.9925714,14.204 L9.19142857,12.4365714 L7.89828571,14.5268571 L8.468,15.6834286 L10.1165714,15.6371429 L11.9925714,14.204 Z M14.5605714,12.4497143 L14.5605714,10.6765714 L10.4211429,10.6765714 L10.3285714,10.6708571 L9.60742857,11.7817143 L12.6668571,13.7114286 L14.5605714,12.4497143 Z M13.5817143,14.0342857 L15.8651429,14.7028571 C15.8728537,14.7050415 15.8804783,14.7075195 15.888,14.7102857 L17.1554286,15.1662857 L17.5348571,12.8697143 L15.0788571,13.0377143 L13.5817143,14.0342857 Z M10.9691429,15.9634286 L12.9497143,17.0211429 L14.968,15.2485714 L12.752,14.6017143 L10.9691429,15.9634286 Z M8.59657143,16.4571429 L8.85942857,19.7337143 L11.5674286,19.9268571 L12.5097143,17.6668571 L10.1611429,16.4125714 L8.59657143,16.4571429 Z M18.308,20.1057143 L16.0457143,20.3605714 L15.5868571,21.7285714 L18.308,21.7028571 L18.308,20.1057143 Z M15.888,19.5971429 L18.1868571,19.3371429 L17.1497143,15.9897143 L15.8405714,15.5171429 L13.5874286,17.4965714 L15.888,19.5965714 L15.888,19.5971429 Z M27.0365714,19.2668571 L23.8297143,18.9617143 L23.8297143,21.3142857 L27.0365714,22.7257143 L27.0365714,19.2674286 L27.0365714,19.2668571 Z M23.7097143,18.1697143 L27.0371429,18.4868571 L27.0371429,17.6194286 L24.8697143,14.6617143 L22.8302857,16.0685714 L23.7102857,18.1697143 L23.7097143,18.1697143 Z M32.6754286,7.14571429 C31.6905083,6.17493814 30.5978993,5.31986956 29.4188571,4.59714286 L30.2811429,6.91885714 L31.8851429,8.932 L32.6754286,7.14571429 Z"/>
</svg>
