<svg xmlns="http://www.w3.org/2000/svg" width="50" height="50" viewBox="0 0 50 50">
  <g fill="none">
    <circle cx="24.838" cy="24.838" r="24.838" fill="#6085FF"/>
    <path fill="#BFCEFF" d="M30.2448276,27.7275862 L30.2448276,17.4206897 C30.1755276,17.6656552 30.0684966,17.8983241 29.9275862,18.1103448 L25.4172414,24.9551724 L25.4172414,35.3586207 C25.4769828,35.0542966 25.594,34.7640931 25.762069,34.5034483 L30.2448276,27.7275862 Z M17.7517241,27.6724138 L17.7517241,17.4551724 C17.6311966,17.8605379 17.4092552,18.2284586 17.1068966,18.5241379 C15.927,19.9272586 14.5115655,21.1139828 12.9241379,22.0310345 L12.9241379,35.2103448 C12.9923655,34.9655862 13.0982276,34.7329241 13.237931,34.5206897 L17.7517241,27.6724138 Z"/>
    <path fill="#FFF" d="M17.1551724,15.0068966 C16.1962069,14.013931 14.613931,13.9861448 13.6206897,14.9448276 L13.5517241,15.0103448 C13.4965517,15.0655172 13.4425276,15.1229897 13.3896552,15.1827586 C11.7551724,17.0896552 10.0724138,18.1689655 8.39310345,18.3931034 C7.48942414,18.4886759 6.70876897,19.0670759 6.35419655,19.9037586 C5.99962069,20.7404483 6.12697586,21.7036483 6.68681724,22.4194345 C7.24665862,23.1352172 8.15081724,23.4908483 9.04827586,23.3482759 C10.4107724,23.1601138 11.7249793,22.7142414 12.9206897,22.0344828 C14.5081172,21.117431 15.9235517,19.9307069 17.1034483,18.5275862 C18.0838,17.5651172 18.1053448,15.9924138 17.1517241,15.0034483 L17.1551724,15.0068966 Z M41.762069,14.7137931 C41.2193172,14.3538276 40.5557828,14.2242655 39.9174828,14.3536069 C39.2791862,14.4829448 38.718431,14.8605966 38.3586207,15.4034483 L30.2448276,27.7172414 L25.762069,34.5068966 C25.2398621,35.2397069 25.1597103,36.1992517 25.5530931,37.0085517 C25.9464724,37.8178414 26.7505414,38.3475793 27.6494034,38.3896414 C28.5482517,38.4317034 29.3982793,37.9793655 29.8655172,37.2103448 L42.462069,18.1103448 C43.2049586,16.9787793 42.8918276,15.4594207 41.762069,14.7137931 Z M29.2310345,14.7172414 C28.6882828,14.3572759 28.0247483,14.2277138 27.3864483,14.3570552 C26.7481517,14.4863931 26.1873966,14.8640448 25.8275862,15.4068966 L17.7517241,27.662069 L13.237931,34.5103448 C12.6122862,35.4555172 12.7149931,36.7061241 13.4864586,37.5365517 C14.2579241,38.3669828 15.4975966,38.5613586 16.4862069,38.0068966 C16.5551724,37.9689655 16.6241379,37.9275862 16.6896552,37.8827586 L16.7068966,37.8827586 C17.015869,37.6696897 17.2708966,37.3875034 17.4517241,37.0586207 L25.4172414,24.9896552 L29.9310345,18.1103448 C30.6786069,16.9797103 30.3701207,15.4573241 29.2413793,14.7068966 L29.2310345,14.7172414 Z"/>
  </g>
</svg>
