<svg xmlns="http://www.w3.org/2000/svg" width="28" height="28" viewBox="0 0 28 28">
  <path fill="#FF4A00" d="M17.5,14.00609 C17.4993,15.04643 17.30911,16.04239 16.9624,16.96177 C16.04316,17.30876 15.04678,17.49937 14.00602,17.50007 L13.99398,17.50007 C12.95378,17.49937 11.95768,17.30932 11.03844,16.96247 C10.69166,16.04337 10.5007,15.04699 10.5,14.00637 L10.5,13.99426 C10.5007,12.95392 10.69124,11.95796 11.03746,11.03865 C11.95712,10.69187 12.95336,10.50105 13.99398,10.50035 L14.00602,10.50035 C15.04678,10.50105 16.04316,10.69187 16.96233,11.03865 C17.30883,11.95803 17.49923,12.95399 17.49993,13.99433 L17.49993,14.00644 L17.49993,14.0063 L17.5,14.00609 Z M27.8054,11.66669 L19.63318,11.66669 L25.41168,5.88819 C24.9580054,5.25104026 24.4519708,4.65284612 23.89884,4.09983 L23.89856,4.09927 C23.345987,3.54677789 22.7483616,3.04126422 22.11188,2.58797 L16.33338,8.36647 L16.33338,0.19474 C15.5647363,0.065584631 14.786699,0.000447714878 14.00728,0 L13.99244,0 C13.2131183,0.000416300254 12.4351753,0.0655063376 11.66662,0.1946 L11.66662,8.36689 L5.88812,2.58839 C5.251322,3.04184335 4.65343489,3.54759473 4.10067,4.10039 L4.09857,4.10228 C3.54656333,4.65462844 3.04149596,5.25197111 2.5886,5.88812 L8.3671,11.66662 L0.1946,11.66662 C0.1946,11.66662 0.00028,13.20172 0,13.99482 L0,14.00497 C0.000291621388,14.7852254 0.0653819852,15.5641088 0.1946,16.33359 L8.36682,16.33359 L2.58832,22.11209 C3.49704241,23.3879189 4.61229112,24.5031676 5.88812,25.41189 L11.66662,19.63353 L11.66662,27.8054 C12.4344423,27.9343329 13.2116279,27.9994223 13.9902,28 L14.01022,28 C14.7886973,27.999377 15.5657861,27.9342879 16.33352,27.8054 L16.33352,19.63311 L22.11202,25.41161 C22.7486077,24.9582885 23.3463276,24.4527273 23.89898,23.90017 L23.90038,23.89912 C24.4528514,23.3464527 24.9583631,22.7487594 25.41168,22.11223 L19.63318,16.33359 L27.8054,16.33359 C27.9343175,15.5658599 27.9994068,14.7887686 28,14.01029 L28,13.9902 C27.999377,13.2117227 27.9342879,12.4346339 27.8054,11.6669 L27.8054,11.66669 Z"/>
</svg>
