<svg xmlns="http://www.w3.org/2000/svg" width="40" height="40" viewBox="0 0 40 40">
  <g fill="#011E41">
    <path d="M20.2021053,0 C9.27268074,0 0.412631579,8.954305 0.412631579,20 C0.412631579,31.045695 9.27268074,40 20.2021053,40 C31.1315298,40 39.9915789,31.045695 39.9915789,20 C39.9915789,8.954305 31.1315298,0 20.2021053,0 M20.2021053,2.38297872 C29.8246497,2.38297872 37.6252632,10.2665775 37.6252632,19.9914894 C37.6252632,29.7164013 29.8246497,37.6 20.2021053,37.6 C10.5795609,37.6 2.77894737,29.7164013 2.77894737,19.9914894 C2.79054759,10.2714377 10.5843699,2.39470235 20.2021053,2.38297872"/>
    <path d="M12.7157895,15.7702128 L15.2757895,15.7702128 L15.2757895,13.3489362 L24.8673684,13.3489362 C24.1431579,15.5404255 19.9242105,23.9276596 19.9242105,23.9276596 L22.72,23.9276596 L26.9684211,15.1829787 C27.8863158,13.3191489 27.8105263,13.0170213 27.8442105,10.693617 L12.7284211,10.693617 L12.7157895,15.7702128 Z"/>
    <path d="M27.8442105,24.212766 L25.2884211,24.212766 L25.2884211,26.6340426 L15.6926316,26.6340426 C16.4168421,24.4425532 20.64,16.0595745 20.64,16.0595745 L17.84,16.0595745 L13.5915789,24.8 C12.6736842,26.6638298 12.7494737,26.9659574 12.7157895,29.2893617 L27.8357895,29.2893617 L27.8442105,24.212766 Z"/>
  </g>
</svg>
