<?xml version="1.0" encoding="UTF-8"?>
<svg width="24px" height="24px" viewBox="0 0 24 24" version="1.1" xmlns="http://www.w3.org/2000/svg" xmlns:xlink="http://www.w3.org/1999/xlink">
    <!-- Generator: Sketch 50.2 (55047) - http://www.bohemiancoding.com/sketch -->
    <title>discourse---civilized-discussion</title>
    <desc>Created with Sketch.</desc>
    <defs></defs>
    <g id="Page-1" stroke="none" stroke-width="1" fill="none" fill-rule="evenodd">
        <g id="hireremote.ly" transform="translate(-441.000000, -649.000000)" fill-rule="nonzero">
            <g id="company-card" transform="translate(417.000000, 625.000000)">
                <g id="logo" transform="translate(16.000000, 16.000000)">
                    <g id="discourse---civilized-discussion" transform="translate(8.000000, 8.000000)">
                        <path d="M12.0862136,0 C5.52466019,0 0,5.26846154 0,11.7692308 L0,23.9561538 L12.0838835,23.9446154 C18.6454369,23.9446154 23.9673786,18.4730769 23.9673786,11.9746154 C23.9673786,5.47615385 18.6407767,0 12.0862136,0 Z" id="Shape" fill="#000000"></path>
                        <path d="M12.2027184,4.55538462 C9.60745496,4.55690167 7.20440458,5.91059686 5.8766078,8.11903253 C4.54881099,10.3274682 4.49212448,13.064889 5.72737864,15.3253846 L4.39456311,19.5715385 L9.18058252,18.5007692 C11.9212425,19.7236754 15.1372586,19.1744252 17.3060656,17.1130513 C19.4748725,15.0516774 20.1612269,11.8918632 19.0401865,9.12956617 C17.9191462,6.36726916 15.2156852,4.55683629 12.2097087,4.55538462 L12.2027184,4.55538462 Z" id="Shape" fill="#FFF9AE"></path>
                        <path d="M17.9621192,16.3647375 C15.8699963,18.9785694 12.2538723,19.8534084 9.18058252,18.4892308 L4.39456311,19.5738462 L9.26679612,19.0038462 C12.4967507,20.8777357 16.6322764,20.0532548 18.8785656,17.0875914 C21.1248549,14.121928 20.7668972,9.95907501 18.0466019,7.41230769 C20.089031,10.06441 20.0542421,13.7509056 17.9621192,16.3647375 Z" id="Shape" fill="#00AEEF"></path>
                        <path d="M17.5500868,14.9789639 C15.7450148,17.7947657 12.2410298,19.0387755 9.0407767,18 L4.39456311,19.5738462 L9.18058252,18.5007692 C12.5891693,20.0256668 16.6105472,18.7774224 18.5305733,15.598512 C20.4505994,12.4196015 19.659188,8.32011923 16.6904854,6.06692308 C19.0011901,8.49333965 19.3551589,12.163162 17.5500868,14.9789639 Z" id="Shape" fill="#00A94F"></path>
                        <path d="M6.16776699,15.4869231 C4.83385237,12.3024922 5.93313197,8.62797046 8.80331366,6.67717765 C11.6734954,4.72638487 15.5307904,5.03204315 18.0512621,7.41 C15.7169297,4.37605599 11.4166199,3.63549427 8.18522181,5.71095685 C4.95382369,7.78641942 3.8825239,11.9770588 5.72737864,15.3253846 L4.39456311,19.5715385 L6.16776699,15.4869231 Z" id="Shape" fill="#F15D22"></path>
                        <path d="M5.72737864,15.3253846 C4.07224504,12.2975709 4.78014627,8.53585897 7.42548184,6.30184465 C10.0708174,4.06783034 13.9331902,3.96989679 16.6904854,6.06692308 C14.0455178,3.30865772 9.7044213,3.02638694 6.71802764,5.41848471 C3.73163401,7.8105825 3.10260529,12.0739177 5.27300971,15.2123077 L4.3968932,19.5738462 L5.72737864,15.3253846 Z" id="Shape" fill="#D0232B"></path>
                    </g>
                </g>
            </g>
        </g>
    </g>
</svg>