<?xml version="1.0" encoding="UTF-8"?>
<svg width="500px" height="283px" viewBox="0 0 500 283" version="1.1" xmlns="http://www.w3.org/2000/svg" xmlns:xlink="http://www.w3.org/1999/xlink">
    <!-- Generator: Sketch 50.2 (55047) - http://www.bohemiancoding.com/sketch -->
    <title>Illustration_29102018_01</title>
    <desc>Created with Sketch.</desc>
    <defs>
        <path d="M403.187882,37.8006666 C424.318696,48.0580053 442.65519,61.7889709 452.268434,80.7074808 C461.881678,99.6259907 456.757668,126.132838 436.26163,135.291176 C428.80793,138.620886 420.267914,139.373178 412.644069,142.362721 C405.020223,145.352265 397.880639,151.985518 399.07166,159.501897 C400.5179,168.607902 412.231792,172.421696 421.85158,175.110322 C448.224196,182.417367 494.392635,197.966917 499.601718,230.236976 C502.83449,250.247945 485.931148,269.428121 465.461286,277.023 C433.650545,288.798006 396.598,280.477002 364.250645,274.962374 C326.949426,268.603871 289.94269,260.5707 252.301179,256.541031 C185.433836,249.390986 117.80738,254.925239 50.4819516,254.231822 C38.1332849,254.10753 -1.02645113,252.969279 0.0206006389,234.004978 C1.04802018,215.832218 38.5651937,218.573178 50.2790853,218.959137 C69.832777,219.613304 90.4335205,221.274888 107.415391,209.57184 C110.648164,207.34113 113.697702,204.495504 114.908355,200.76021 C116.812681,194.872707 113.540644,188.331037 108.671853,184.556494 C90.2175661,170.164819 61.0964389,181.285658 44.1211121,164.139941 C20.4119337,140.230137 56.4370585,113.769081 76.5600846,105.919077 C84.1773862,102.942617 90.7869005,97.002781 84.340988,88.5574849 C81.3372583,84.6324828 76.4880998,82.5718568 71.6716617,81.4336062 C56.9671285,77.9534377 36.7655735,70.868809 27.2374024,58.1518023 C-0.771232258,20.7465327 104.005929,9.39673509 119.613544,7.02210885 C186.363094,-3.12402147 254.755207,-2.92777137 320.811085,11.9152781 C344.618424,17.2401975 376.187035,24.6846181 403.187882,37.8006666 Z" id="path-1"></path>
    </defs>
    <g id="Page-1" stroke="none" stroke-width="1" fill="none" fill-rule="evenodd">
        <g id="Artboard" transform="translate(-680.000000, -154.000000)">
            <g id="Illustration_29102018_01" transform="translate(680.000000, 154.000000)">
                <mask id="mask-2" fill="white">
                    <use xlink:href="#path-1"></use>
                </mask>
                <use id="Mask" fill="#FFFFFF" fill-rule="nonzero" xlink:href="#path-1"></use>
            </g>
        </g>
    </g>
</svg>