<svg xmlns="http://www.w3.org/2000/svg" xmlns:xlink="http://www.w3.org/1999/xlink" width="450" height="532" viewBox="0 0 450 532">
  <defs>
    <polygon id="remote-hero-a" points="0 494.374 363 494.374 363 .306 0 .306"/>
    <polygon id="remote-hero-c" points=".144 .306 107.159 .306 107.159 108.267 .144 108.267"/>
    <polygon id="remote-hero-e" points=".42 .306 94.633 .306 94.633 60.976 .42 60.976"/>
    <path id="remote-hero-g" d="M21.1730829,10.6033881 C12.6215962,16.7580341 4.20907668,25.7356195 0.247887324,35.6681606 C3.66134585,42.722067 14.6879499,53.9900442 14.6879499,53.9900442 C10.3286385,75.7894437 16.9201878,89.3290392 20.6629108,107.735405 C25.6926448,132.476643 30.8813772,153.336106 30.8813772,153.336106 C57.7514867,163.480164 92.7386541,160.367484 112.676056,156.255417 C121.845383,154.364905 128.533959,150.83232 128.533959,150.83232 C123.70892,123.506568 131.872926,82.2037927 131.872926,82.2037927 C137.297653,82.0473451 141.471049,80.6393173 141.471049,80.6393173 C141.471049,80.6393173 151.695149,41.4235525 133.462285,22.3601075 C125.380282,13.9094374 113.928013,10.1340455 113.928013,10.1340455 C113.928013,10.1340455 108.398748,21.5021492 100.261033,28.8038685 C92.1233177,36.1043363 76.1608764,37.4604235 63.1192488,37.0430215 C50.0782473,36.6262453 43.8184664,31.0973894 41.9405321,22.4408344 C40.0625978,13.7842794 44.0250391,0.232793932 44.0250391,0.232793932 C35.7909233,2.01441846 28.0100156,5.68280025 21.1730829,10.6033881"/>
    <path id="remote-hero-i" d="M21.1730829,10.6033881 C12.6215962,16.7580341 4.20907668,25.7356195 0.247887324,35.6681606 C3.66134585,42.722067 14.6879499,53.9900442 14.6879499,53.9900442 C10.3286385,75.7894437 16.9201878,89.3290392 20.6629108,107.735405 C25.6926448,132.476643 30.8813772,153.336106 30.8813772,153.336106 C57.7514867,163.480164 92.7386541,160.367484 112.676056,156.255417 C121.845383,154.364905 128.533959,150.83232 128.533959,150.83232 C123.70892,123.506568 131.872926,82.2037927 131.872926,82.2037927 C137.297653,82.0473451 141.471049,80.6393173 141.471049,80.6393173 C141.471049,80.6393173 151.695149,41.4235525 133.462285,22.3601075 C125.380282,13.9094374 113.928013,10.1340455 113.928013,10.1340455 C113.928013,10.1340455 108.398748,21.5021492 100.261033,28.8038685 C92.1233177,36.1043363 76.1608764,37.4604235 63.1192488,37.0430215 C50.0782473,36.6262453 43.8184664,31.0973894 41.9405321,22.4408344 C40.0625978,13.7842794 44.0250391,0.232793932 44.0250391,0.232793932 C35.7909233,2.01441846 28.0100156,5.68280025 21.1730829,10.6033881"/>
    <path id="remote-hero-k" d="M21.1730829,10.6033881 C12.6215962,16.7580341 4.20907668,25.7356195 0.247887324,35.6681606 C3.66134585,42.722067 14.6879499,53.9900442 14.6879499,53.9900442 C10.3286385,75.7894437 16.9201878,89.3290392 20.6629108,107.735405 C25.6926448,132.476643 30.8813772,153.336106 30.8813772,153.336106 C57.7514867,163.480164 92.7386541,160.367484 112.676056,156.255417 C121.845383,154.364905 128.533959,150.83232 128.533959,150.83232 C123.70892,123.506568 131.872926,82.2037927 131.872926,82.2037927 C137.297653,82.0473451 141.471049,80.6393173 141.471049,80.6393173 C141.471049,80.6393173 151.695149,41.4235525 133.462285,22.3601075 C125.380282,13.9094374 113.928013,10.1340455 113.928013,10.1340455 C113.928013,10.1340455 108.398748,21.5021492 100.261033,28.8038685 C92.1233177,36.1043363 76.1608764,37.4604235 63.1192488,37.0430215 C50.0782473,36.6262453 43.8184664,31.0973894 41.9405321,22.4408344 C40.0625978,13.7842794 44.0250391,0.232793932 44.0250391,0.232793932 C35.7909233,2.01441846 28.0100156,5.68280025 21.1730829,10.6033881"/>
    <path id="remote-hero-m" d="M21.1730829,10.6033881 C12.6215962,16.7580341 4.20907668,25.7356195 0.247887324,35.6681606 C3.66134585,42.722067 14.6879499,53.9900442 14.6879499,53.9900442 C10.3286385,75.7894437 16.9201878,89.3290392 20.6629108,107.735405 C25.6926448,132.476643 30.8813772,153.336106 30.8813772,153.336106 C57.7514867,163.480164 92.7386541,160.367484 112.676056,156.255417 C121.845383,154.364905 128.533959,150.83232 128.533959,150.83232 C123.70892,123.506568 131.872926,82.2037927 131.872926,82.2037927 C137.297653,82.0473451 141.471049,80.6393173 141.471049,80.6393173 C141.471049,80.6393173 151.695149,41.4235525 133.462285,22.3601075 C125.380282,13.9094374 113.928013,10.1340455 113.928013,10.1340455 C113.928013,10.1340455 108.398748,21.5021492 100.261033,28.8038685 C92.1233177,36.1043363 76.1608764,37.4604235 63.1192488,37.0430215 C50.0782473,36.6262453 43.8184664,31.0973894 41.9405321,22.4408344 C40.0625978,13.7842794 44.0250391,0.232793932 44.0250391,0.232793932 C35.7909233,2.01441846 28.0100156,5.68280025 21.1730829,10.6033881"/>
    <path id="remote-hero-o" d="M38.3530516,1.7008976 C34.9020344,3.00003793 31.1874804,5.44812895 27.5555556,8.3893426 C14.7649452,18.7480468 5.84538341,33.1193173 1.78153365,49.0657016 L0.312989045,54.8260999 C0.312989045,54.8260999 8.4513302,60.6547092 31.14241,62.0220607 C53.8341158,63.3900379 59.4679186,60.6140329 59.4679186,60.6140329 C59.4679186,60.6140329 69.6920188,21.398268 51.4591549,2.33419722 C49.8904538,0.694001264 47.8209703,0.113893805 45.6538341,0.113893805 C43.1449139,0.113268015 40.5045383,0.891125158 38.3530516,1.7008976"/>
    <linearGradient id="remote-hero-q" x1="12.636%" x2="39.34%" y1="11.315%" y2="66.829%">
      <stop offset="0%" stop-color="#93C6FD"/>
      <stop offset="100%" stop-color="#5A94FA"/>
    </linearGradient>
  </defs>
  <g fill="none" fill-rule="evenodd" transform="translate(2)">
    <g transform="translate(68 37.32)">
      <path fill="#9F80F7" d="M308.856588,256.550803 C313.674742,256.542042 318.663787,255.235392 322.233114,252.000057 C327.493834,247.230284 328.611831,239.519924 329.407449,232.464766 C330.717621,220.849475 332.027793,209.23481 333.33734,197.618894 C334.13108,190.581884 334.600563,182.519829 329.681628,177.42402 C325.761753,173.362642 319.649703,172.556625 314.034053,171.981523 C303.352989,170.887016 292.671299,169.793135 281.989609,168.699254 C275.145164,167.997743 267.983975,172.006555 264.726385,178.065455 C261.468169,184.124355 260.901659,191.217686 260.399624,198.078224 C259.834366,205.809235 259.269108,213.540872 258.704476,221.272509 C258.201815,228.139305 257.809953,235.501726 261.336714,241.414817 C264.186166,246.191473 269.267856,249.303527 274.593678,250.911182 C279.918247,252.519463 304.038435,256.56019 308.856588,256.550803"/>
      <mask id="remote-hero-b" fill="#fff">
        <use xlink:href="#remote-hero-a"/>
      </mask>
      <polygon stroke="#6F6F6E" stroke-linecap="round" stroke-width="1.565" points="238.992 445.244 249.897 445.244 249.897 368.503 238.992 368.503" mask="url(#remote-hero-b)"/>
      <path stroke="#61DAFF" stroke-linecap="round" stroke-width="1.565" d="M249.174147,368.503094 L239.714992,368.503094 C237.65928,368.503094 235.993552,366.837867 235.993552,364.783398 L235.993552,325.949365 L252.894961,325.949365 L252.894961,364.783398 C252.894961,366.837867 251.229233,368.503094 249.174147,368.503094 Z" mask="url(#remote-hero-b)"/>
      <path fill="#724EDC" d="M303.3359,327.200945 L211.661408,327.200945 L211.661408,307.900326 L303.3359,307.900326 C308.667355,307.900326 312.989108,312.221406 312.989108,317.550635 C312.989108,322.88049 308.667355,327.200945 303.3359,327.200945" mask="url(#remote-hero-b)"/>
      <path fill="#ABA9B1" d="M299.259092,465.754824 C264.793991,451.002448 224.502911,450.426095 189.629671,464.186594 L189.629671,453.321 C224.502911,439.560501 264.793991,440.136228 299.259092,454.88923 L299.259092,465.754824 Z" mask="url(#remote-hero-b)"/>
      <path fill="#4E4E4E" d="M201.694836 464.494671C201.694836 471.93907 195.657903 477.974816 188.210642 477.974816 180.76338 477.974816 174.726448 471.93907 174.726448 464.494671 174.726448 457.050271 180.76338 451.014525 188.210642 451.014525 195.657903 451.014525 201.694836 457.050271 201.694836 464.494671M311.461408 464.494671C311.461408 471.93907 305.42385 477.974816 297.977214 477.974816 290.529953 477.974816 284.49302 471.93907 284.49302 464.494671 284.49302 457.050271 290.529953 451.014525 297.977214 451.014525 305.42385 451.014525 311.461408 457.050271 311.461408 464.494671" mask="url(#remote-hero-b)"/>
    </g>
    <g transform="translate(103.68 37.32)">
      <path fill="#FFF" d="M60.8843192,468.782272 L79.490266,469.269762 C82.1882316,469.341102 85.1109233,469.344857 87.2818153,467.741583 C89.6523944,465.990622 90.4292332,462.854162 91.1009077,459.98554 C93.1171831,451.374668 95.6217214,442.877689 98.5988732,434.5503 C99.4702347,432.112847 99.5059155,429.425078 98.5018466,427.039566 C98.1406573,426.180982 97.6711737,425.403125 97.0320501,424.802992 C94.4561502,422.386191 90.8887011,421.059516 87.3588106,421.207202 C83.8295462,421.354263 80.3847887,422.973182 78.0198435,425.595869 C73.9278247,430.132221 73.4476995,436.734933 71.7888576,442.613606 C71.2561502,444.501614 70.5738341,446.37085 69.4833803,448.002284 C67.0176526,451.690066 62.7979343,453.734522 58.777903,455.611893 C54.9287637,457.409788 49.8990297,457.603783 46.0073239,459.308435 C43.1415962,460.56377 40.4724257,462.51999 38.7228169,465.071962 C37.8489515,466.347322 38.7578717,468.091399 40.3040376,468.145843 C47.1822848,468.390527 53.9722692,468.600793 60.8843192,468.782272"/>
      <path stroke="#1D1D1B" stroke-linecap="round" stroke-width="1.565" d="M60.8843192,468.782272 L79.490266,469.269762 C82.1882316,469.341102 85.1109233,469.344857 87.2818153,467.741583 C89.6523944,465.990622 90.4292332,462.854162 91.1009077,459.98554 C93.1171831,451.374668 95.6217214,442.877689 98.5988732,434.5503 C99.4702347,432.112847 99.5059155,429.425078 98.5018466,427.039566 C98.1406573,426.180982 97.6711737,425.403125 97.0320501,424.802992 C94.4561502,422.386191 90.8887011,421.059516 87.3588106,421.207202 C83.8295462,421.354263 80.3847887,422.973182 78.0198435,425.595869 C73.9278247,430.132221 73.4476995,436.734933 71.7888576,442.613606 C71.2561502,444.501614 70.5738341,446.37085 69.4833803,448.002284 C67.0176526,451.690066 62.7979343,453.734522 58.777903,455.611893 C54.9287637,457.409788 49.8990297,457.603783 46.0073239,459.308435 C43.1415962,460.56377 40.4724257,462.51999 38.7228169,465.071962 C37.8489515,466.347322 38.7578717,468.091399 40.3040376,468.145843 C47.1822848,468.390527 53.9722692,468.600793 60.8843192,468.782272 Z"/>
      <path fill="#FFF" d="M187.574585,425.699312 C187.820595,426.887687 187.931393,428.130506 188.0159,429.391473 C188.274429,433.259482 188.706354,437.116227 189.310423,440.945437 C189.707293,443.45861 191.570829,445.003686 192.922942,447.158281 C194.275055,449.312877 195.437496,451.801018 195.047512,454.314817 C194.69759,456.56641 193.168326,458.430639 191.697277,460.171587 C187.77615,464.811195 180.855962,472.583509 177.272864,476.588566 C175.193365,478.913376 171.263474,477.735639 170.932958,474.634223 C170.930454,474.611695 170.92795,474.58854 170.926072,474.565386 C170.718247,472.345083 171.431862,470.146056 172.132958,468.029008 C173.527011,463.814312 173.992739,457.879318 174.147355,454.595171 C174.220595,453.044463 173.941408,451.502516 173.336714,450.072586 C173.336714,450.072586 166.71011,434.399672 166.708232,434.395291 C163.893208,427.738136 165.083818,418.560924 173.652833,417.613477 C177.476933,417.190443 182.019656,417.702965 184.894773,420.501499 C186.434053,422.000266 187.178341,423.780639 187.574585,425.699312"/>
      <path stroke="#1D1D1B" stroke-linecap="round" stroke-width="1.565" d="M187.574585,425.699312 C187.820595,426.887687 187.931393,428.130506 188.0159,429.391473 C188.274429,433.259482 188.706354,437.116227 189.310423,440.945437 C189.707293,443.45861 191.570829,445.003686 192.922942,447.158281 C194.275055,449.312877 195.437496,451.801018 195.047512,454.314817 C194.69759,456.56641 193.168326,458.430639 191.697277,460.171587 C187.77615,464.811195 180.855962,472.583509 177.272864,476.588566 C175.193365,478.913376 171.263474,477.735639 170.932958,474.634223 C170.930454,474.611695 170.92795,474.58854 170.926072,474.565386 C170.718247,472.345083 171.431862,470.146056 172.132958,468.029008 C173.527011,463.814312 173.992739,457.879318 174.147355,454.595171 C174.220595,453.044463 173.941408,451.502516 173.336714,450.072586 C173.336714,450.072586 166.71011,434.399672 166.708232,434.395291 C163.893208,427.738136 165.083818,418.560924 173.652833,417.613477 C177.476933,417.190443 182.019656,417.702965 184.894773,420.501499 C186.434053,422.000266 187.178341,423.780639 187.574585,425.699312 Z"/>
      <path fill="#565656" d="M182.747731,251.935037 C164.42097,257.150372 146.09421,262.365082 127.767449,267.580417 C120.404695,269.675562 112.992488,271.790107 106.144288,275.208798 C99.2960876,278.628741 92.9242567,283.443571 88.9687011,289.995594 C82.94241,299.978824 82.7358372,321.241295 81.6435055,337.106327 C79.400626,369.682458 74.3026604,402.378116 70.5561815,434.815948 C81.7762128,436.295315 93.2115806,436.347256 104.020344,432.995524 C119.668545,394.686529 130.458529,354.151599 135.430047,313.070979 C159.677308,308.490821 184.377778,304.370619 208.358998,298.556403 C216.802191,296.509443 225.39374,294.229064 232.595618,289.371055 C239.797496,284.513046 245.469484,276.54486 245.315493,267.860771 C245.168388,259.518988 239.549609,251.880594 232.228795,247.874911 C224.907981,243.868602 216.158685,243.115151 207.883881,244.202149 C199.609703,245.28852 190.774022,249.651529 182.747731,251.935037"/>
      <path fill="#565656" d="M190.105978,433.925073 C190.72507,398.832013 191.118185,361.87848 180.073427,328.562039 C196.526635,326.718461 212.963568,324.553853 228.966072,320.368568 C237.774836,318.064409 246.713177,314.989276 253.411142,308.823366 C260.912864,301.917146 264.80457,291.709257 265.589546,281.543922 C266.285634,272.526286 264.73446,263.491128 262.326322,254.750092 C261.759186,252.691868 260.052144,251.133025 257.948232,250.764434 C245.996432,248.668663 233.181408,248.701204 221.382973,251.059181 C208.450892,253.643695 195.959499,258.048006 183.610203,262.674472 C170.728826,267.49994 157.936964,271.960572 145.452457,277.732235 C138.934147,280.74604 132.380782,284.029561 127.26216,289.065294 C116.942911,299.216862 115.42554,313.549333 119.668419,329.740401 C122.427105,340.266192 125.221471,348.532253 128.789546,357.58243 C140.243067,386.629731 155.113177,414.22207 166.924131,443.125439 C172.773897,443.109795 187.132582,439.738663 190.105978,433.925073"/>
      <path stroke="#FFF" stroke-linecap="round" stroke-width="1.565" d="M181.776964 331.39449C181.094648 329.46643 180.117496 326.731728 178.457402 324.209793M167.242191 268.761658C159.905102 271.530779 152.628106 274.415046 145.451894 277.73236 138.93421 280.745539 132.380845 284.02906 127.262222 289.064793 116.942973 299.216987 115.425603 313.548832 119.668482 329.739901 122.427167 340.266317 125.221534 348.532379 128.789609 357.582556 131.988983 365.695299 134.828419 373.696026 138.419656 381.642309"/>
      <path fill="#9075DC" d="M95.7911737 469.292604L67.3360876 469.292604C67.8281064 462.116042 64.6174648 456.615973 62.2556495 453.597787 60.8666041 451.823046 58.7226291 450.817401 56.469108 450.871219 45.3335837 451.136554 32.5348357 457.810606 28.3777152 465.082913 26.8083881 467.828881 26.4703599 470.074841 26.7057277 471.841447 27.0932081 474.7545 29.6897653 476.869045 32.6293584 476.869045L37.4543975 476.869045 41.6277934 476.869045 61.867543 476.869045 95.9501721 476.869045C98.0816275 476.869045 99.8018153 475.109949 99.7373396 472.964114 99.6753678 470.891497 97.8656651 469.292604 95.7911737 469.292604M204.135462 443.469561L189.190861 461.576799C184.1123 456.824549 178.027793 455.868967 174.323255 455.794498 172.143599 455.751319 170.07975 456.743196 168.743286 458.464119 162.140469 466.967981 159.32482 480.63336 162.23687 488.190402 163.336088 491.042753 164.813396 492.66793 166.281315 493.571571 168.701972 495.0597 171.872551 494.406375 173.668482 492.204846L176.616213 488.590282 179.165196 485.463834 191.528889 470.301565 209.911362 447.978379C211.213396 446.381363 210.945477 444.018379 209.297903 442.755535 207.706041 441.53587 205.402441 441.915099 204.135462 443.469561"/>
      <g transform="translate(170.266)">
        <mask id="remote-hero-d" fill="#fff">
          <use xlink:href="#remote-hero-c"/>
        </mask>
        <path fill="#262626" d="M107.158998,103.73429 C103.160876,96.3681144 100.480438,86.2378236 98.8816901,76.9210601 C97.2835681,67.6042965 96.2175274,58.1242016 94.7890454,48.7799033 C93.3611894,39.4356049 90.858529,29.4223369 85.5840376,21.5761802 C80.3101721,13.7306492 71.2791862,8.20492225 61.8544601,7.44333565 C57.2359937,3.58471365 54.1874804,1.98644564 49.4632238,1.08343047 C39.6923318,-0.783927307 27.6222222,0.813089128 18.5205008,4.78935967 C16.0522692,5.86822187 13.8162754,7.2881397 11.8225352,8.97339254 C-3.66228482,22.0642965 0.813458529,44.0520588 0.742723005,61.8019703 C0.723317684,66.6737465 0.602503912,71.5442712 0.507981221,76.4147958 C0.438497653,80.0062054 0.143661972,93.4581903 0.143661972,93.4581903 C25.8701095,104.639808 57.4826291,110.032242 84.6607199,107.751863 C83.172144,101.15979 82.4910798,94.3849855 82.6488263,87.6283293 C83.0075117,94.5088919 84.8948357,101.299341 88.0597809,107.424575 C90.8685446,107.117937 93.6253521,106.727444 96.31518,106.248089 C95.1389671,103.681724 94.4716745,100.880687 94.4046948,98.0577478 C95.5245696,100.86692 97.3004695,103.450807 99.4431925,105.643576 C102.086698,105.093506 104.668232,104.464587 107.158998,103.73429" mask="url(#remote-hero-d)"/>
      </g>
      <path fill="#FFF" d="M194.259844 100.556465C188.538404 101.393147 182.848263 102.786155 177.367199 104.707331 173.724006 105.983943 171.161878 109.270593 170.859531 113.117951 170.589108 116.564177 171.03856 120.028551 172.18097 123.290795L174.159687 128.941054C176.699906 136.196465 183.397872 141.178381 191.078623 141.525068L219.648263 142.817951C226.455149 143.125839 233.124945 140.835448 238.306166 136.40986L256.944038 120.493513C259.059844 118.686231 258.669233 115.313223 256.192864 114.042243 254.701158 113.276901 252.898967 112.351358 250.800063 111.271244 243.90867 107.724891 230.868294 104.003317 230.868294 104.003317L228.520876 83.5637598C228.520876 83.5637598 242.292394 52.2442149 241.353427 33.4705107 240.41446 14.6968066 224.13903 11.5678559 204.264225 10.7856182 197.16626 10.5065158 192.06892 11.510909 188.448889 12.9176852 183.455462 14.8582604 180.19975 19.7068824 180.159687 25.0623944L179.958122 52.0790063C179.90241 58.252426 179.901784 64.5716549 180.650454 70.708153 181.216338 75.339 182.828858 79.9041391 187.107418 82.319689 189.316495 83.5668887 191.761565 84.2777863 194.259844 84.7296068L194.259844 100.556465zM149.048826 127.532338L148.978091 127.419696 136.550548 150.144013 135.784977 151.57457C131.160876 160.211725 126.871674 169.161776 123.034429 178.177534 118.988106 177.62809 114.865415 177.245107 110.780282 177.038596 110.733333 177.036093 106.084194 176.763248 104.539906 176.724449 92.7596244 176.427825 57.2165884 176.721946 56.8597809 176.724449L51.6641628 176.724449C50.1374022 176.724449 48.6400626 176.448476 47.2122066 175.902787 46.3014085 175.554848 45.4300469 175.098021 44.6225352 174.545448L38.7984351 170.559165 38.0942097 170.144892C35.9934272 168.908331 33.7273865 167.987793 31.3593114 167.410189L30.9924883 167.320701C29.628482 166.99091 28.3402191 166.67864 27.1158059 166.015303 26.9968701 165.951472 26.8810642 165.88639 26.7671362 165.822559 25.9859155 165.382003 25.2478873 164.967104 24.2187793 165.271238L24.086072 165.310037C22.8303599 165.682382 22.0334898 166.903299 22.1912363 168.213078 22.2425665 168.639867 22.4190923 169.076042 22.7020344 169.473419 22.800313 169.611719 22.9004695 169.749393 23.0018779 169.885189 24.1004695 171.356422 25.5270736 172.727528 27.2435055 173.957831L29.6410016 175.676251C29.743036 175.771997 29.743036 175.897155 29.7086072 175.982262 29.6748044 176.06737 29.5896714 176.158109 29.4494523 176.158109L26.6713615 176.158109C25.9302034 176.158109 24.8147105 175.790145 23.3549296 175.063602 21.7887324 174.285119 20.3126761 173.216896 18.9687011 171.889595 17.6691706 170.605473 15.8688576 168.857016 14.6744914 167.81883 14.0028169 167.234968 13.3361502 166.675511 12.571205 166.245594 11.7035994 165.757477 10.8510172 165.532193 10.0391236 165.55347 8.94241002 165.591017 8.04413146 165.967743 7.44068858 166.641719 6.89671362 167.249361 6.6400626 168.072275 6.66760563 169.021599 6.2200313 168.840745 5.73239437 168.709329 5.2028169 168.676788 4.00907668 168.608577 2.79530516 169.230613 2.10547731 170.272553 1.33364632 171.439026 1.72488263 172.753185 2.29264476 174.009146 1.16588419 174.49163.327699531 175.650594.342097027 176.889658.357120501 178.200688 1.17089202 179.319601 2.09233177 180.43914 2.00719875 180.504222 1.91956182 180.564298 1.83943662 180.640644.113615023 182.289601 1.33677621 184.912913 2.5799687 186.273381L8.59937402 192.862951C11.0820031 195.804791 14.2989045 197.819209 17.657903 198.535739 19.1195618 198.847382 20.6181534 198.898697 22.02723 198.92498 28.8384977 199.046384 35.7348983 198.5445 42.4065728 198.055758L86.3589984 209.051516C101.383099 212.809386 115.174648 214.636693 128.522379 214.636693 142.790297 214.636693 152.835994 203.596504 161.698592 193.854829L162.029734 193.490619 171.370579 162.953937 171.380595 162.919519 149.048826 127.532338z"/>
      <path fill="#565656" d="M207.64989,30.9100904 C207.412645,30.8956972 207.166009,30.8825556 206.945665,30.9726694 C206.39543,31.1967023 206.277746,31.9113546 206.252707,32.5052295 C206.228294,33.0665632 206.230798,33.6817149 206.584476,34.1185164 C206.972582,34.5984975 207.648638,34.704256 208.260219,34.7899893 C211.251142,35.2086429 214.198247,35.9408173 217.037058,36.9714937 C217.491518,37.1367023 217.986667,37.3106719 218.444883,37.1586049 C219.129077,36.9314431 219.387606,36.1172901 219.539718,35.4132762 C219.681815,34.7561966 219.795117,34.003371 219.38698,33.4695721 C219.123443,33.1253875 218.697152,32.953921 218.28964,32.8062345 C214.812958,31.5477705 211.311236,31.1341233 207.64989,30.9100904"/>
      <g transform="translate(172.144)">
        <mask id="remote-hero-f" fill="#fff">
          <use xlink:href="#remote-hero-e"/>
        </mask>
        <path fill="#262626" d="M94.6327387,60.9468281 C94.0781221,56.8816953 93.5285133,52.8184399 92.9112989,48.7802162 C91.4834429,39.4359178 88.9807825,29.4226498 83.7062911,21.576493 C78.4324257,13.7309621 69.4008138,8.20523515 59.9767136,7.44364855 C55.3582473,3.58440076 52.309734,1.98675853 47.5854773,1.08374336 C37.8139593,-0.784240202 25.7444757,0.812776233 16.6427543,4.78967257 C14.1738967,5.86790898 11.938529,7.2878268 9.94416275,8.97370544 C4.99517997,13.1577383 2.09126761,18.2535474 0.419906103,23.8274602 C2.02053208,24.3894197 3.64431925,24.8762845 5.27874804,25.1735348 C20.3998748,27.9245082 36.2934585,26.2849381 50.5338341,20.5057661 C49.9347731,31.4464551 54.1482316,42.7150582 62.02241,50.3378078 C70.3742097,58.4223906 82.7353991,61.3010253 94.6327387,60.9468281" mask="url(#remote-hero-f)"/>
      </g>
      <path stroke="#1D1D1B" stroke-linecap="round" stroke-width="1.565" d="M197.521753,31.1411321 C193.884194,38.7532434 191.14867,46.7958982 189.390297,55.0463154 C189.211894,55.8848742 189.058529,56.821682 189.513615,57.5482244 C189.92989,58.2115619 190.734898,58.5031802 191.488576,58.7146972 C194.828169,59.6496277 198.360563,59.8930601 201.796557,59.4255948"/>
      <path fill="#1D1D1B" d="M188.136401 42.8315803C188.136401 43.9548736 187.224977 44.8653982 186.101972 44.8653982 184.978341 44.8653982 184.067543 43.9548736 184.067543 42.8315803 184.067543 41.708287 184.978341 40.7977623 186.101972 40.7977623 187.224977 40.7977623 188.136401 41.708287 188.136401 42.8315803M212.467606 44.8653982C212.467606 46.0750506 211.486698 47.0556637 210.276682 47.0556637 209.066041 47.0556637 208.085759 46.0750506 208.085759 44.8653982 208.085759 43.6557459 209.066041 42.6751327 210.276682 42.6751327 211.486698 42.6751327 212.467606 43.6557459 212.467606 44.8653982"/>
      <path stroke="#1D1D1B" stroke-linecap="round" stroke-width="1.565" d="M195.903662,69.4530683 C198.323067,69.9505714 200.849515,70.0187826 203.257027,69.4655841 C205.664538,68.9123856 207.946854,67.7171264 209.642003,65.9211087"/>
      <path stroke="#1D1D1B" stroke-linecap="round" stroke-width="1.565" d="M180.163693,24.7014387 L179.918936,52.0009077 C179.86385,58.1743274 179.862598,64.4929305 180.611268,70.6300544 C181.177152,75.2609014 182.789671,79.8260405 187.068232,82.2415904 C190.76964,84.3317295 195.135837,84.9162174 199.304851,85.2985752 C203.082003,85.6440114 206.876682,85.2779241 210.600626,84.6271024"/>
      <path fill="#262626" d="M254.92651,107.752113 C253.437934,101.159414 252.75687,94.38461 252.914617,87.6279539 C253.273302,94.5085164 255.160626,101.298965 258.326197,107.424825 C261.134335,107.117562 263.891142,106.727695 266.58097,106.247714 C265.404757,103.681348 264.738091,100.880937 264.670485,98.0579981 C265.79036,100.86717 267.56626,103.450432 269.708983,105.643826 C272.353114,105.093757 274.934022,104.464212 277.424789,103.73454 C273.427293,96.3683647 270.746228,86.2374482 269.148106,76.9206846 C267.549358,67.6045468 266.483318,58.124452 265.055462,48.7801536 C263.62698,39.4358552 261.124319,29.4225872 255.850454,21.5764305 C255.062347,20.4036997 254.18097,19.2904191 253.236369,18.2297048 C244.631049,28.7942939 237.158748,42.6980992 237.158748,42.6980992 C231.272676,53.9779665 227.816651,66.5407035 226.735587,79.239237 C225.928075,88.7180803 226.412582,98.2676378 227.96939,107.655741 C237.181909,108.42296 246.279249,108.477404 254.92651,107.752113"/>
      <path stroke="#1D1D1B" stroke-linecap="round" stroke-width="1.565" d="M194.22072 84.651696L194.22072 102.855305M171.295462 106.995533C178.600626 103.811513 186.332707 101.609983 194.218779 100.464787M233.605947 104.794629C241.976526 107.144471 250.067293 110.490571 257.651643 114.73906M13.0413146 188.171027C13.0413146 188.171027 7.38935837 181.825515 7.38685446 181.823012 6.08043818 180.356786 3.58716745 179.079548 1.89327074 180.697841.235680751 182.28109 1.34679186 184.808031 2.63755869 186.221065L8.65946792 192.812513C10.971205 195.552222 14.1668232 197.711198 17.6735524 198.459017 19.1014085 198.763777 20.5693271 198.820098 22.029108 198.847007 28.8316119 198.970913 35.627856 198.474036 42.4134585 197.977159 57.0682316 201.643037 71.7230047 205.309542 86.3777778 208.97542 100.2482 212.445427 114.220657 214.55872 128.522379 214.55872 142.934272 214.55872 153.061972 203.22879 161.972144 193.438303"/>
      <path stroke="#1D1D1B" stroke-linecap="round" stroke-width="1.565" d="M2.22334898,180.476374 C1.35198748,179.423795 0.436181534,178.254819 0.420532081,176.889345 C0.403630673,175.403719 1.64619718,174.010085 3.12413146,173.857392 C4.74103286,173.68968 6.17890454,174.811096 7.39079812,175.893713 C10.1357121,178.344933 12.7535524,180.945717 15.1015962,183.778043"/>
      <path stroke="#1D1D1B" stroke-linecap="round" stroke-width="1.565" d="M2.42259781,174.10971 C1.86485133,172.905064 1.36657277,171.532081 2.17095462,170.316171 C2.82197183,169.330551 4.00757433,168.681607 5.19818466,168.754824 C6.58159624,168.839306 7.72525822,169.561468 8.73621283,170.445083 C9.56125196,171.165368 10.3862911,171.885027 11.1706416,172.649116 C11.6945853,173.158509 12.1997496,173.687302 12.7042879,174.216095 C14.4801878,176.074692 16.2560876,177.932662 18.0313615,179.791259"/>
      <path stroke="#1D1D1B" stroke-linecap="round" stroke-width="1.565" d="M6.74422535 169.229924C6.58147105 167.089722 7.91230047 165.705474 10.0418779 165.631631 10.9213772 165.600967 11.7733333 165.886953 12.5326448 166.314368 13.2925822 166.740531 13.9648826 167.306245 14.6227856 167.878217 15.8215336 168.919532 17.6218466 170.669241 18.9138654 171.945228 20.211518 173.226846 21.6869484 174.321979 23.3194992 175.134254 24.4932081 175.717491 25.7852269 176.236271 26.6709859 176.236271L29.4497027 176.236271C29.7733333 176.236271 29.9298279 175.840771 29.6950861 175.619241L27.2888263 173.893938C25.6938341 172.750619 24.2378091 171.410177 23.0641002 169.838192 22.9633177 169.703021 22.8637872 169.565973 22.7661346 169.4283 22.5076056 169.065341 22.3216901 168.646062 22.268482 168.203628 22.1119875 166.89823 22.9188732 165.738015 24.1082316 165.38507L24.240939 165.346271C25.382097 165.008344 26.1326448 165.572181 27.0784977 166.084703 28.4237246 166.813123 29.869734 167.126643 31.3401565 167.485847 33.6994679 168.0622 35.9617527 168.98086 38.0543975 170.211789L38.7586228 170.626062 44.5783412 174.610468C45.3902347 175.165544 46.2653521 175.624874 47.1849139 175.975942 48.6146479 176.522257 50.1326448 176.803236 51.6637872 176.803236L56.8600313 176.803236C56.8600313 176.803236 92.6221596 176.502857 104.538279 176.803236 106.098842 176.842035 110.775524 177.116757 110.775524 177.116757 114.892582 177.325145 118.998372 177.706877 123.082879 178.263205 126.941408 169.193003 131.202441 160.300525 135.854085 151.611429L136.619656 150.180872 148.982723 127.574204M12.1338341 191.396537C13.5122379 186.549167 16.1344601 182.060374 19.680626 178.478351"/>
      <path fill="#FF747B" d="M154.281002,154.742006 C154.281002,154.742006 143.254397,143.474655 139.840939,136.420748 C143.802128,126.487582 152.214648,117.510622 160.766135,111.355976 C167.603067,106.434762 175.383975,102.767006 183.618091,100.984756 C183.618091,100.984756 179.655649,114.536241 181.533584,123.193422 C183.411518,131.849977 189.671299,137.378207 202.7123,137.794984 C215.753928,138.212386 231.716369,136.856298 239.854085,129.555831 C247.9918,122.254737 253.521064,110.886008 253.521064,110.886008 C253.521064,110.886008 264.973333,114.662025 273.055336,123.112695 C291.2882,142.175515 281.0641,181.391905 281.0641,181.391905 C281.0641,181.391905 276.890704,182.799933 271.465978,182.956381 C271.465978,182.956381 263.301972,224.25853 268.127011,251.584908 C268.127011,251.584908 261.439061,255.116867 252.269108,257.008005 C232.331706,261.119446 197.344538,264.232752 170.475055,254.088068 C170.475055,254.088068 165.286322,233.229231 160.255962,208.487992 C156.513865,190.081627 149.92169,176.542032 154.281002,154.742006"/>
      <path stroke="#FFF" stroke-linecap="round" stroke-width="1.565" d="M151.95493,165.225806 C152.805634,160.439763 153.944288,152.918391 157.008451,148.726849"/>
    </g>
    <g transform="translate(243.274 138.072)">
      <mask id="remote-hero-h" fill="#fff">
        <use xlink:href="#remote-hero-g"/>
      </mask>
      <path stroke="#DE575E" stroke-linecap="round" stroke-width="1.5" d="M53.1665728,-24.5533142 C37.5459155,-8.68265044 23.9621909,10.6949412 21.4426291,32.8172484 C20.8241628,38.2453521 21.0132081,44.1559399 24.2150861,48.584031 C28.5049139,54.5146441 37.1114867,55.9089046 44.1243192,53.8062497 C49.7086698,52.1322611 54.9543662,49.2780322 59.3819092,45.4851182 C62.6357433,42.6978489 70.7233803,35.5575834 67.5046009,30.6814267 C62.8974022,23.705744 53.759374,35.3667174 51.1459155,38.9086896 C44.474867,47.9513571 40.2595305,58.6016795 39.675493,69.8840499 C39.3725196,75.7370651 40.4341784,82.4104912 45.2560876,85.7453268 C48.2545227,87.8198211 52.2288576,88.1446062 55.7562441,87.2215657 C59.2830047,86.2972737 62.417903,84.2421789 65.1966197,81.8810727 C79.5146166,69.7107061 85.7675117,50.739878 98.359061,36.9343217 C112.436056,21.5010853 132.660782,12.4139867 151.46579,4.2230196" mask="url(#remote-hero-h)"/>
      <mask id="remote-hero-j" fill="#fff">
        <use xlink:href="#remote-hero-i"/>
      </mask>
      <path stroke="#DE575E" stroke-linecap="round" stroke-width="1.5" d="M88.035493,137.687973 C84.5406573,129.906273 79.5591236,122.794794 73.4395618,116.850413 C70.347856,113.847872 66.5732081,110.994269 62.262723,111.059351 C56.6364319,111.144459 52.1757121,116.404851 51.0401878,121.915559 C49.9052895,127.425641 51.2930829,133.10719 52.6727387,138.561576" mask="url(#remote-hero-j)"/>
      <g>
        <mask id="remote-hero-l" fill="#fff">
          <use xlink:href="#remote-hero-k"/>
        </mask>
        <path stroke="#DE575E" stroke-linecap="round" stroke-width="1.5" d="M103.444131,132.10968 C112.365571,140.074111 118.567136,151.029819 120.801878,162.777152" mask="url(#remote-hero-l)"/>
      </g>
      <g>
        <mask id="remote-hero-n" fill="#fff">
          <use xlink:href="#remote-hero-m"/>
        </mask>
        <path stroke="#DE575E" stroke-linecap="round" stroke-width="1.5" d="M133.233052,157.158996 C131.754491,154.006891 129.436495,151.133888 126.302222,149.616347 C123.167324,148.098806 119.15856,148.155753 116.408638,150.291575 C114.216463,151.99435 113.066541,154.767226 112.742285,157.52258 C112.417402,160.277934 112.82554,163.062074 113.232426,165.80679" mask="url(#remote-hero-n)"/>
      </g>
    </g>
    <g transform="translate(215.105 158.097)">
      <path fill="#FFF" d="M164.60964,61.5719924 L160.960814,71.2216764 C157.206197,79.9564551 152.116369,91.4440847 146.029984,102.852865 C144.918247,104.937997 143.85784,106.791588 142.786792,108.52002 C141.583662,110.463099 140.383036,112.513813 139.221847,114.497568 C135.51543,120.829938 131.683192,127.378206 126.626541,132.52533 C123.683818,135.520987 119.952989,138.779477 114.593365,140.235064 C111.488513,141.079881 106.243443,142.026076 96.5795931,140.531063 C88.4343662,139.268845 80.3943036,136.582953 73.497903,134.164274 C65.1310798,131.229944 57.9955556,128.069078 51.6819405,124.5027 L40.9639437,118.447555 L40.9407825,118.433788 L40.9144914,118.437542 C38.7467293,118.740425 36.5676995,118.642802 34.4374961,118.149053 L34.4243505,118.207252 C33.9611268,117.956936 33.4027543,117.900614 32.8575274,117.879963 C31.6381221,117.836158 30.4018153,117.839913 29.183036,117.893105 L29.1899218,118.049552 C30.4043192,117.996986 31.6362441,117.992606 32.8518936,118.036411 C33.4853834,118.060191 34.1426604,118.114635 34.6071362,118.501373 C35.0265415,118.849312 35.241252,119.474477 35.155493,120.093383 C35.0822535,120.624679 34.8149609,121.155349 34.3611268,121.670374 C33.0321753,123.181032 30.954554,123.721714 29.1116745,124.11033 C27.3689515,124.477043 25.3670736,124.800576 23.6631612,123.987049 C23.2813146,123.803693 22.9664476,123.58404 22.726698,123.333099 C22.3999374,122.990791 22.1745853,122.537094 22.0337402,121.995159 C22.0381221,121.986398 22.0462598,121.978889 22.0500156,121.971379 L22.0268545,121.960115 C21.9173083,121.524565 21.8565884,121.037075 21.86723,120.479496 C21.898529,118.786733 22.3761502,117.115874 22.7974335,115.641512 C23.0659781,114.699698 23.3389045,113.759761 23.6143349,112.819824 L23.4641002,112.775393 C23.1886698,113.71533 22.9157433,114.657144 22.6465728,115.598958 C22.2227856,117.082081 21.7426604,118.763579 21.7107355,120.476992 C21.7000939,121.03332 21.7614397,121.519559 21.868482,121.960115 C21.8321753,122.006424 21.7864789,122.054609 21.7457903,122.093408 L21.7169953,122.121569 C21.1110485,122.714192 20.3354617,122.935722 19.7914867,123.017075 C19.1630047,123.111569 18.4738028,123.084034 17.6205947,122.931967 C17.1123005,122.841853 16.525133,122.706683 16.0256025,122.390659 C15.3144914,121.939464 14.8049452,121.095273 14.6252895,120.104647 C14.6277934,120.10277 14.6302973,120.101518 14.6328013,120.099641 L14.6227856,120.089003 C14.6090141,120.01203 14.5927387,119.935684 14.583349,119.856834 C14.4606573,118.844932 14.6584664,117.80612 14.8900782,116.834268 C15.353302,114.889938 15.9917997,112.975646 16.7874178,111.143332 L16.6440689,111.080753 C15.8446948,112.921828 15.2036933,114.844881 14.7379656,116.797346 C14.5025978,117.784217 14.3022848,118.839925 14.4274804,119.874982 C14.4343662,119.930052 14.4468858,119.981992 14.4550235,120.036436 C13.5229421,120.765482 12.2434429,121.008914 11.0891393,120.664729 C9.40212833,120.163472 8.05251956,118.752315 7.65064163,117.069565 C7.29821596,115.590197 7.64500782,114.018212 7.95111111,112.630836 L8.51949922,110.056335 L8.36613459,110.021917 L7.79837246,112.596417 C7.4885133,114.00069 7.13733959,115.592075 7.49852895,117.105861 C7.59054773,117.490722 7.7370266,117.858061 7.91856025,118.208503 L7.9029108,118.208503 L7.9029108,128.518396 C7.9029108,129.664843 7.33890454,130.736196 6.39367762,131.386392 C5.51355243,131.991531 4.34172144,131.89954 3.54610329,131.161107 C3.23248826,130.871367 3.00838811,130.467732 2.89696401,129.992757 L1.53608764,124.187302 C1.08726135,122.272384 0.742973396,120.311784 0.513239437,118.359944 L0.275367762,116.334887 C0.0412519562,114.34863 0.116369327,112.345475 0.498215962,110.380494 L0.547042254,110.129552 C0.856901408,108.537542 1.36707355,106.986209 2.06316119,105.520608 C3.31386541,102.888535 5.17865415,100.535564 7.45533646,98.7145145 C15.2356182,92.4910316 25.6205947,93.2344703 34.78241,93.8896726 L35.5586228,93.9447421 C47.439687,94.7876814 59.4259155,96.1625424 71.183662,98.0311517 L84.9595618,100.220166 L103.58241,104.339742 L103.670673,104.359142 L103.677559,104.269028 C104.16457,97.2363982 107.309484,76.4507788 115.724507,48.1206334 C120.730454,31.2662276 133.209327,26.2267396 143.208701,27.1341353 C148.870047,27.6466574 154.281628,30.0202794 158.445008,33.8181997 C162.920751,37.9014804 165.634992,43.270134 166.294147,49.3446789 C166.723568,53.2965436 166.140782,57.5243818 164.60964,61.5719924"/>
      <path stroke="#1D1D1B" stroke-linecap="round" stroke-width="1.565" d="M7.98122066,118.208441 L7.98122066,128.518333 C7.98122066,129.689812 7.40406886,130.786822 6.43818466,131.45016 C5.56056338,132.053422 4.34616588,132.009616 3.49295775,131.218618 C3.14804382,130.90009 2.92769953,130.467669 2.82065728,130.010217 L1.45978091,124.204762 C1.0084507,122.280457 0.666666667,120.332372 0.435680751,118.369269 L0.197183099,116.344212 C-0.0375586854,114.351696 0.0388106416,112.334774 0.421283255,110.366039 L0.470109546,110.114471 C0.781846635,108.514951 1.29264476,106.959863 1.99248826,105.487379 C3.25571205,102.829022 5.10735524,100.491696 7.40657277,98.6531245 C15.4266041,92.2387756 25.9624413,93.1855961 35.5636933,93.8670815 C47.4954617,94.7131498 59.3834116,96.0767465 71.1962441,97.9541169 L84.9765258,100.143757"/>
      <path stroke="#1D1D1B" stroke-linecap="round" stroke-width="1.565" d="M8.4427543,110.038938 C8.25308294,110.896896 8.06403756,111.75548 7.8743662,112.613439 C7.54948357,114.086549 7.22460094,115.620986 7.57452269,117.087838 C7.98453834,118.805006 9.38046948,120.238692 11.0668545,120.739949 C12.2668545,121.09665 13.6076995,120.841327 14.5748357,120.045948 C14.5773396,120.044071 14.5798435,120.042193 14.5817214,120.040316"/>
      <path stroke="#1D1D1B" stroke-linecap="round" stroke-width="1.565" d="M16.7155556,111.112043 C15.9161815,112.952492 15.2795618,114.863655 14.8138341,116.815494 C14.5759624,117.814881 14.3812833,118.845558 14.5052269,119.865595 C14.6291706,120.885633 15.1155556,121.905671 15.9837872,122.456367 C16.4689202,122.764255 17.0404382,122.908813 17.6063224,123.008939 C18.331205,123.137852 19.075493,123.202934 19.8035055,123.094047 C20.530892,122.985785 21.245759,122.691664 21.7722066,122.177264 C21.8385603,122.112182 21.9399687,122.022694 21.9794053,121.938212"/>
      <path stroke="#1D1D1B" stroke-linecap="round" stroke-width="1.565" d="M23.5392801 112.797546C23.2638498 113.737483 22.9909233 114.678671 22.7217527 115.620485 22.2672926 117.210618 21.8190923 118.824531 21.7890454 120.477869 21.7696401 121.517932 21.9517997 122.634967 22.6704225 123.387167 22.9408451 123.671276 23.2757433 123.888425 23.6300469 124.057388 25.314554 124.862154 27.2995305 124.571162 29.1273865 124.186301 31.0660407 123.778286 33.1111111 123.210068 34.4200313 121.722565 34.8244131 121.262609 35.1492958 120.711288 35.2331768 120.104272 35.3170579 119.497255 35.1286385 118.833292 34.657277 118.441547 34.1696401 118.036035 33.4885759 117.981592 32.8544601 117.958437 31.6325509 117.914006 30.4081377 117.918387 29.1862285 117.971579M34.4199061 118.225525C36.5463537 118.718021 38.7635681 118.816271 40.9256964 118.515265L51.6430673 124.570411C58.5826604 128.49036 65.9579343 131.602415 73.4715493 134.238243 80.9720188 136.868439 88.6965884 139.388496 96.5676369 140.608161 102.518811 141.529324 108.740407 141.906049 114.613959 140.31091 119.556056 138.967965 123.166072 136.159418 126.682191 132.579899 133.315681 125.828249 137.813333 116.723003 142.759186 108.71414 143.882191 106.894968 144.948858 105.040752 145.957308 103.155247 151.540407 92.7158154 156.359812 82.1224399 161.032739 71.2524652L165.884069 58.4237674"/>
      <path fill="#FF747B" d="M110.485133,54.825787 C110.485133,54.825787 118.623474,60.6543963 141.314554,62.0223736 C164.00626,63.3903508 169.640063,60.6143458 169.640063,60.6143458 C169.640063,60.6143458 179.864163,21.3979551 161.631299,2.33451011 C158.245383,-1.20495891 152.534585,0.191178887 148.525196,1.7005847 C145.074178,3.00035082 141.358998,5.44844185 137.728326,8.38902971 C124.937715,18.7477339 116.017527,33.1196302 111.953678,49.0653887 L110.485133,54.825787 Z"/>
    </g>
    <g transform="translate(325.277 158.097)">
      <mask id="remote-hero-p" fill="#fff">
        <use xlink:href="#remote-hero-o"/>
      </mask>
      <path stroke="#DE575E" stroke-linecap="round" stroke-width="1.5" d="M73.8152739,1.79557965 C68.4819405,2.7186201 63.8716119,5.95145196 59.553615,9.21307016 C41.926072,22.5298843 25.0991549,38.9068123 18.9889828,60.1336138 C17.3689515,65.7625961 16.9608138,72.7964772 21.5004069,76.4999033 C25.0728638,79.414208 30.4957121,78.9517491 34.5151174,76.6938982 C38.5351487,74.4354216 41.497903,70.7326214 44.4600313,67.2006618 C53.6831925,56.2024001 63.9711424,45.9394418 76.038748,38.1646252 C88.1051017,30.3898085 102.075055,25.1807314 116.426854,24.859701" mask="url(#remote-hero-p)"/>
    </g>
    <g transform="translate(320.895 52.965)">
      <path fill="#FFF" d="M12.4205321,45.3418123 C15.0558998,47.5320777 18.936338,48.1340879 22.0856338,46.7817554 C25.2349296,45.4294229 27.4815649,42.1584178 27.5441628,38.7322168 C27.6073865,35.3066416 25.4458842,31.9267491 22.2828169,30.6075834 C20.7009703,29.9480006 18.9188106,29.8353584 17.2487011,30.2089551 C14.7166197,30.7746694 12.850579,32.9361485 12.452457,35.4987592 L11.308169,42.8580512 C11.1560563,43.8330322 11.5923631,44.8055101 12.4205321,45.3418123"/>
      <path stroke="#1D1D1B" stroke-linecap="round" stroke-width="1.565" d="M12.8093271,45.647323 C15.4284194,47.5853951 19.0878873,48.0691308 22.0856964,46.7818805 C25.2349922,45.429548 27.4810016,42.1579172 27.5442254,38.732342 C27.6074491,35.3067668 25.4459468,31.9262484 22.2828795,30.6070828 C19.1191862,29.288543 15.154867,30.1577655 12.8831925,32.7235051"/>
      <path stroke="#1D1D1B" stroke-linecap="round" stroke-width="1.565" d="M12.8099531 40.7513287C12.9958685 38.9396662 13.9035368 37.2118597 15.2894523 36.0303679 16.6759937 34.8488761 18.525759 34.2262149 20.3442254 34.3288445M16.4789984 35.4238521C17.7365884 36.8831947 18.7343975 38.5653186 19.4123318 40.36822"/>
      <path stroke="#FFF" stroke-linecap="round" stroke-width=".626" d="M0.517746479,7.16154235 C4.2341784,6.53324905 8.52463224,2.92431732 10.6817527,0.253445006"/>
    </g>
    <path fill="#9471F9" d="M138.038811,219.800101 L117.769014,219.800101 C115.687637,219.800101 114,218.112971 114,216.032219 L114,195.768508 C114,193.68713 115.687637,192 117.769014,192 L138.038811,192 C140.120814,192 141.807825,193.68713 141.807825,195.768508 L141.807825,216.032219 C141.807825,218.112971 140.120814,219.800101 138.038811,219.800101"/>
    <path stroke="#1D1D1B" stroke-linecap="round" stroke-width="1.565" d="M129.861346,200.135397 L152.083568,200.135397"/>
    <g transform="translate(139.987 220.676)">
      <path fill="#8D8AA0" d="M149.607261,90.7567794 L81.7963067,90.7567794 C79.8363693,90.7567794 78.247011,89.168524 78.247011,87.2085493 L78.247011,82.3724431 C78.247011,80.4130942 79.8363693,78.8248388 81.7963067,78.8248388 L149.607261,78.8248388 C151.567199,78.8248388 153.155931,80.4130942 153.155931,82.3724431 L153.155931,87.2085493 C153.155931,89.168524 151.567199,90.7567794 149.607261,90.7567794"/>
      <path fill="#ACA9B6" d="M5.42960876,0.421782554 L47.537903,0.421782554 C51.2061346,0.421782554 54.4956495,2.6783818 55.8158372,6.10020228 L85.68,83.5198293 C87.0252269,87.0061062 84.451205,90.7570923 80.7134898,90.7570923 L38.2471362,90.7570923 C34.566385,90.7570923 31.2674804,88.4842225 29.9566823,85.0455057 L0.454960876,7.63839444 C-0.872112676,4.15524652 1.70065728,0.421782554 5.42960876,0.421782554"/>
    </g>
    <g transform="translate(108 82)">
      <path fill="#79C4FE" d="M64.2712907,0 L11.7287093,0 C5.25067599,0 0,5.22772661 0,11.6753499 L0,39.4946253 C0,45.943187 5.25067599,51.1699753 11.7287093,51.1699753 L14.0212845,51.1699753 C13.7620501,51.9141123 13.5376944,52.64042 13.3105108,53.1602837 C12.3574707,55.3495291 11.4034879,57.5397129 10.4485624,59.7289583 C10.2383469,60.2131635 10.0253033,60.7611786 10.2223215,61.2510141 C10.4202823,61.7455414 10.9934261,62.00735 11.5279204,61.999843 C12.0614721,61.9923359 12.5667436,61.7718161 13.049391,61.5437893 C18.1897745,59.1218251 22.7654983,55.5400207 26.3796978,51.1699753 L64.2712907,51.1699753 C70.749324,51.1699753 76,45.943187 76,39.4946253 L76,11.6753499 C76,5.22772661 70.749324,0 64.2712907,0"/>
      <path stroke="#1D1D1B" stroke-linecap="round" stroke-width="2.191" d="M39.3441612,18.7073548 C41.6916503,20.1140729 44.6284305,20.1891677 47.3277352,19.7089101 C50.0270399,19.2286526 52.6093659,18.243688 55.2866821,17.654281 C59.4653711,16.7348061 63.8613062,16.7994226 68.0109705,17.8420181 C71.5352826,18.7283115 74.8696143,20.3026831 78.4414215,20.9732973 C82.0132287,21.6430383 86.0907708,21.2291436 88.6528674,18.6689342 C89.956344,17.3669997 90.6291912,14.9665851 89.1770726,13.8305577 C88.1585666,13.0333302 86.5639627,13.3738765 85.6615558,14.2977173 C84.0783859,15.9174951 84.4785761,18.8086455 86.1215546,20.369046 C87.7636537,21.9294464 90.2589053,22.3188916 92.5017294,21.9477835 C94.7436739,21.5775486 96.8114697,20.548051 98.8634338,19.5770576 C100.915398,18.6060642 103.043882,17.6656326 105.310453,17.4953594 C109.819849,17.1556864 113.924657,19.8617193 117.621359,22.4489977"/>
    </g>
    <path fill="url(#remote-hero-q)" d="M119.605153,104.67067 L10.6255705,104.67067 C4.75695309,104.67067 0.000101903406,99.9068854 0.000101903406,94.0297147 L0.000101903406,44.0344741 C0.000101903406,38.1573034 4.75695309,33.3935193 10.6255705,33.3935193 L119.605153,33.3935193 C125.472752,33.3935193 130.229603,38.1573034 130.229603,44.0344741 L130.229603,94.0297147 C130.229603,99.9068854 125.472752,104.67067 119.605153,104.67067"/>
    <path stroke="#528FFA" stroke-linecap="round" stroke-width="3.057" d="M119.605153,104.67067 L10.6255705,104.67067 C4.75695309,104.67067 0.000101903406,99.9068854 0.000101903406,94.0297147 L0.000101903406,44.0344741 C0.000101903406,38.1573034 4.75695309,33.3935193 10.6255705,33.3935193 L119.605153,33.3935193 C125.472752,33.3935193 130.229603,38.1573034 130.229603,44.0344741 L130.229603,94.0297147 C130.229603,99.9068854 125.472752,104.67067 119.605153,104.67067 Z"/>
    <path fill="#514860" d="M73.0899152,37.0842273 C73.0899152,42.3684763 68.8130291,46.6515958 63.5364705,46.6515958 C58.2599119,46.6515958 53.9830258,42.3684763 53.9830258,37.0842273 C53.9830258,31.7999784 58.2599119,27.5168589 63.5364705,27.5168589 C68.8130291,27.5168589 73.0899152,31.7999784 73.0899152,37.0842273"/>
    <path fill="#FFF" d="M61.0206791,55.4689846 L61.0206791,67.5488716 C57.4540598,70.3552997 42.4233068,70.8655594 34.5257925,67.7039906 L34.5257925,43.1839733 L34.5257925,17.370958 C34.5257925,11.4070432 39.3539761,6.57080221 45.3102304,6.57080221 L60.0118354,6.57080221 C64.5791462,6.57080221 68.2812971,10.2793694 68.2812971,14.8533369 L68.2812971,36.3158784 C68.2894494,43.2196914 66.9830476,50.8960376 61.6850893,54.9893406 L61.0206791,55.4689846 Z"/>
    <path stroke="#1D1D1B" stroke-linecap="round" stroke-width="2.038" d="M68.281333,16.2681848 L68.2812971,36.3162866 C68.2914874,45.168271 66.1403064,55.2938635 56.1802671,57.5022673 C52.0674455,58.413591 47.6264949,57.7431099 43.9651054,55.6592094"/>
    <path stroke="#1D1D1B" stroke-linecap="round" stroke-width="2.038" d="M34.5257925,43.1843815 L34.5257925,67.7033783 C42.4233068,70.8659676 57.4540598,70.3557079 61.0206791,67.5492799 L61.0206791,55.558178"/>
    <path fill="#262626" d="M37.1336026,34.8836816 C41.17713,29.2381688 42.9156021,21.9863586 41.8741493,15.1182637 C47.2546493,17.4828069 53.0244204,18.9421495 58.8859046,19.3503572 C62.8173381,19.6238564 67.0595771,19.3462752 70.1971831,16.960301 C72.8201769,14.9651858 74.319176,11.5607334 73.960476,8.28282539 C73.6027951,5.00491739 71.3721294,1.98520077 68.3241984,0.737105662 C65.382247,-0.468127635 62.0184154,-0.0354274504 58.9776176,0.892224597 C55.9358009,1.81885612 53.040725,3.21696757 49.9469374,3.94663887 C46.914292,4.6620229 43.7705718,4.71713095 40.6788223,5.10288724 C37.5880919,5.48864354 34.4311242,6.25709458 31.9701569,8.16954775 C29.1800415,10.3391718 27.580158,13.8181221 27.2438767,17.3399342 C26.9075954,20.8607258 27.7421844,24.4182561 29.134185,27.6686101 C30.5964989,31.0842882 33.4762893,34.2530006 37.1336026,34.8836816"/>
    <path fill="#1D1D1B" d="M49.2699931 31.8948867C49.2699931 32.7225278 48.5994686 33.3940295 47.773032 33.3940295 46.9465953 33.3940295 46.2760709 32.7225278 46.2760709 31.8948867 46.2760709 31.0672455 46.9465953 30.3957438 47.773032 30.3957438 48.5994686 30.3957438 49.2699931 31.0672455 49.2699931 31.8948867M65.0331259 31.8948867C65.0331259 32.7225278 64.3626014 33.3940295 63.5361648 33.3940295 62.7097281 33.3940295 62.0392037 32.7225278 62.0392037 31.8948867 62.0392037 31.0672455 62.7097281 30.3957438 63.5361648 30.3957438 64.3626014 30.3957438 65.0331259 31.0672455 65.0331259 31.8948867"/>
    <path stroke="#1D1D1B" stroke-linecap="round" stroke-width="2.038" d="M55.8816901,23.1063785 C57.4805546,28.5916698 59.0865524,34.1045151 59.790705,39.7745203 C59.8569422,40.3041698 59.9007606,40.8899479 59.5848601,41.3195866 C59.2689595,41.7482047 58.6952433,41.8798517 58.1704407,41.9676163 C56.0844779,42.3145929 53.9618299,42.4452193 51.8493722,42.3564342"/>
    <path fill="#565656" d="M44.3265568,24.2440535 C43.9026386,24.3716184 43.4715871,24.5236757 43.1404011,24.8186058 C42.809215,25.1145564 42.599294,25.5839953 42.7276923,26.0085313 C42.8489573,26.4116365 43.2453616,26.6810536 43.6550133,26.7718798 C44.064665,26.862706 44.4906212,26.8065774 44.9063872,26.7504489 C46.3717582,26.5514476 47.8371292,26.3524463 49.3025003,26.1544656 C50.0688139,26.0513931 51.1540852,25.8472893 51.2926739,24.9084115 C51.3976344,24.1930275 50.8106707,23.8011481 50.1880409,23.6460291 C48.4006551,23.2000622 46.0466863,23.7256297 44.3265568,24.2440535"/>
    <path fill="#1D1D1B" d="M53.274899,47.6596648 C53.5153911,47.6729315 53.6172945,47.9637795 53.4308112,48.1158369 C52.73583,48.6822251 51.9939731,49.1945258 51.1491939,49.4823123 C50.0883794,49.8425556 48.8308913,49.7772423 47.954522,49.0781866 C47.2503694,48.516901 46.2690396,46.852434 46.7693853,45.9166178 C47.0465626,45.396153 47.5224515,45.4839176 48.0075117,45.6859804 C49.8641919,46.457493 51.1746697,47.5423051 53.274899,47.6596648"/>
    <path fill="#FFF" d="M115.694202,104.840586 C116.623562,103.356751 117.340962,101.731064 117.776089,99.9931193 L124.413058,73.519828 C124.54859,72.9779323 124.954165,72.5309448 125.495272,72.3890927 C126.894406,72.0206852 128.830571,70.689928 129.875081,69.6867575 L134.45462,65.2883193 L139.201281,61.1052107 C139.644561,60.7153723 139.697551,60.0438706 139.322546,59.588719 C139.005627,59.2060243 138.471653,59.0845825 138.02124,59.2937889 L133.267445,61.5021927 C133.123762,61.569547 132.993325,61.3899356 133.100324,61.2735964 L138.982189,54.8749404 C139.509029,54.302429 139.386745,53.3900848 138.726411,52.977795 C138.268865,52.6910291 137.677825,52.7338909 137.265116,53.083929 L130.917553,58.4671683 C130.788136,58.5763639 130.608786,58.4120603 130.705594,58.2732696 L136.281748,50.3254653 C136.739295,49.672333 136.547716,48.7671323 135.863944,48.355863 C135.304495,48.0190917 134.584038,48.1252257 134.142796,48.6089518 L127.136936,56.3883705 C127.029938,56.5077712 126.83734,56.3904115 126.894406,56.2403952 L129.724264,48.776317 C130.004498,47.9721478 129.522495,47.1026653 128.691982,46.9148898 C128.100943,46.7822223 127.489522,47.0383726 127.169545,47.5547554 L122.098832,55.7495254 L120.42354,58.0018115 C120.054649,58.4967634 119.311773,58.4906403 118.952054,57.9885448 L118.207141,56.9476151 C117.797489,56.3761243 117.577377,55.6903353 117.577377,54.986177 L117.577377,52.1981182 C117.577377,51.527637 117.084165,50.9612488 116.421793,50.8694021 C115.767573,50.7775554 115.143924,51.1786194 114.954384,51.8123619 L114.633388,52.8828867 C113.399338,57.0037436 113.243425,61.3674842 114.172785,65.5567159 C114.30424,66.1455556 114.243098,66.7599082 113.971016,67.2967013 L111.363307,72.4442007 C107.612243,79.8450067 104.363562,87.4907373 101.637646,95.3283256 C101.637646,95.3283256 92.0352877,84.3097786 84.8826873,80.2828095 L74.7178222,104.840586 L115.694202,104.840586 Z"/>
    <path stroke="#1D1D1B" stroke-linecap="round" stroke-width="2.038" d="M115.694202 104.840586C116.623562 103.356751 117.340962 101.731064 117.776089 99.9931193L124.413058 73.519828C124.54859 72.9779323 124.954165 72.5309448 125.495272 72.3890927 126.894406 72.0206852 128.830571 70.689928 129.875081 69.6867575L134.45462 65.2883193 139.201281 61.1052107C139.644561 60.7153723 139.697551 60.0438706 139.322546 59.588719 139.005627 59.2060243 138.471653 59.0845825 138.02124 59.2937889L133.267445 61.5021927C133.123762 61.569547 132.993325 61.3899356 133.100324 61.2735964L138.982189 54.8749404C139.509029 54.302429 139.386745 53.3900848 138.726411 52.977795 138.268865 52.6910291 137.677825 52.7338909 137.265116 53.083929L130.917553 58.4671683C130.788136 58.5763639 130.608786 58.4120603 130.705594 58.2732696L136.281748 50.3254653C136.739295 49.672333 136.547716 48.7671323 135.863944 48.355863 135.304495 48.0190917 134.584038 48.1252257 134.142796 48.6089518L127.136936 56.3883705C127.029938 56.5077712 126.83734 56.3904115 126.894406 56.2403952L129.724264 48.776317C130.004498 47.9721478 129.522495 47.1026653 128.691982 46.9148898 128.100943 46.7822223 127.489522 47.0383726 127.169545 47.5547554L122.098832 55.7495254 120.42354 58.0018115C120.054649 58.4967634 119.311773 58.4906403 118.952054 57.9885448L118.207141 56.9476151C117.797489 56.3761243 117.577377 55.6903353 117.577377 54.986177L117.577377 52.1981182C117.577377 51.527637 117.084165 50.9612488 116.421793 50.8694021 115.767573 50.7775554 115.143924 51.1786194 114.954384 51.8123619L114.633388 52.8828867C113.399338 57.0037436 113.243425 61.3674842 114.172785 65.5567159 114.30424 66.1455556 114.243098 66.7599082 113.971016 67.2967013L111.363307 72.4442007C107.612243 79.8450067 104.363562 87.4907373 101.637646 95.3283256 101.637646 95.3283256 92.0352877 84.3097786 84.8826873 80.2828095L74.7178222 104.840586 115.694202 104.840586zM124.671485 56.4391923C127.497267 57.7617854 130.007148 59.7558801 131.937198 62.210229"/>
    <path fill="#3C3C3B" d="M93.3556502,82.7803264 C85.2390436,75.8112 76.3428759,69.8197312 66.785355,65.0202289 C66.0210794,64.6365137 65.1284056,64.6324316 64.3396732,64.9641004 C54.1788842,69.22783 42.3346508,69.3257999 32.1076246,65.2202507 C31.5012993,64.9773671 30.8338319,64.9304232 30.207126,65.1161577 C26.3429486,66.2611804 22.5174946,67.5817324 18.8469338,69.2421173 C14.8706627,71.0412928 11.1063508,73.4558415 8.24082687,76.7521188 C5.11137315,80.3535315 3.17724642,84.8683089 2.01656658,89.4984049 C1.57940095,91.2404314 1.25127197,93.0049093 0.984285038,94.7795923 C0.841620264,95.7327574 0.962885322,96.7216406 1.38170834,97.589082 C2.0410234,98.9545368 2.9642683,100.130175 4.07399643,101.150694 C6.51967828,103.398898 9.80708229,104.501059 13.1270954,104.501059 L84.4115879,104.501059 C89.0685737,99.068835 92.4884522,92.4966906 94.2126579,85.5724672 C94.4674164,84.5509273 94.1535539,83.4650948 93.3556502,82.7803264"/>
    <path stroke="#FFF" stroke-linecap="round" stroke-width="1.019" d="M77.4541325,104.840586 C76.5135641,101.200394 75.2285621,97.650007 73.6184882,94.2526982"/>
    <path stroke="#1D1D1B" stroke-linecap="round" stroke-width="2.038" d="M30.3496888,43.822206 L30.3496888,61.5537289 C30.5534957,66.2960821 31.3452851,71.2986678 33.7226917,75.4052375 C36.6891,80.5292649 41.9972486,83.734716 46.5951305,87.462673 C50.3207191,90.4844307 53.7487499,94.0644124 55.6431343,98.4750968 C56.6132547,100.735547 57.0932198,102.638816 57.3428831,105.069693"/>
    <path fill="#1D1D1B" d="M37.1778287,8.67807252 C39.2800961,6.42986849 42.325989,4.99093628 45.7560578,4.62661088 C46.7761109,4.49904597 48.9446155,4.18370551 49.946326,3.94694503 C51.4748772,3.58670171 52.9545147,3.06215479 54.428038,2.51311541 C51.3016414,1.60077115 48.2842814,1.28236913 45.434043,1.5824018 C41.2743458,2.02326614 37.5487571,3.80101077 34.946144,6.58600795 C31.7708338,9.98127567 30.640725,14.4358424 30.252473,17.5739393 C29.7714889,21.4590563 30.1006369,25.3421322 30.4185755,29.0966227 C30.4868508,29.8946688 31.1543182,30.4977958 31.9399934,30.4977958 C31.9838119,30.4977958 32.0266113,30.4957547 32.0714488,30.4916726 C32.912152,30.4212568 33.5358009,29.6803598 33.4644685,28.8374108 C33.1597773,25.2400803 32.8448957,21.5192669 33.2871565,17.9505109 C33.6193616,15.2634836 34.5650253,11.4732749 37.1778287,8.67807252"/>
    <path fill="#724EDC" d="M41.2768934,37.0842273 C41.2768934,42.3684763 37.0000073,46.6515958 31.7234487,46.6515958 C26.4468901,46.6515958 22.170004,42.3684763 22.170004,37.0842273 C22.170004,31.7999784 26.4468901,27.5168589 31.7234487,27.5168589 C37.0000073,27.5168589 41.2768934,31.7999784 41.2768934,37.0842273"/>
    <path stroke="#528FFA" stroke-linecap="round" stroke-width="3.057" d="M0,82.7295045 L0,94.0297147 C0,99.9068854 4.75685118,104.67067 10.6254686,104.67067 L119.605051,104.67067 C125.47265,104.67067 130.229501,99.9068854 130.229501,94.0297147 L130.229501,82.7295045"/>
    <g stroke="#1D1D1B" stroke-linecap="round" stroke-width="1.565" transform="translate(415.68 170.047)">
      <path d="M0.601627543,5.18407897 C5.09051643,5.27608315 9.57877934,5.367158 14.0676682,5.45823286 C15.0116432,5.4777489 16.0251017,5.46752621 16.7994366,4.66643924 C17.5743975,3.86628161 17.8811268,1.95278038 17.1405947,1.08478128 C16.387543,0.201912809 15.1412207,1.23998026 15.0135211,2.6525698 C14.8870736,4.06515935 15.6013146,5.40526075 16.4701721,6.01118732 C17.3384038,6.61711389 18.331205,6.65335796 19.2902034,6.67845001 C23.3553052,6.78532356 27.4191549,6.89219711 31.4836307,7"/>
    </g>
  </g>
</svg>
