<?xml version="1.0" encoding="UTF-8"?>
<svg width="22px" height="22px" viewBox="0 0 22 22" version="1.1" xmlns="http://www.w3.org/2000/svg" xmlns:xlink="http://www.w3.org/1999/xlink">
    <!-- Generator: Sketch 52.5 (67469) - http://www.bohemiancoding.com/sketch -->
    <title>Shape</title>
    <desc>Created with Sketch.</desc>
    <g id="Page-1" stroke="none" stroke-width="1" fill="none" fill-rule="evenodd" stroke-linecap="round" stroke-linejoin="round">
        <path d="M8.68266191,14 L8.68266191,18 C8.68266191,19.6568542 10.0258077,21 11.6826619,21 L15.6826619,12 L15.6826619,0.99987034 L4.40266191,1 C3.40537516,0.98872564 2.55220075,1.71392389 2.40266191,2.7 L1.02266191,11.7 C0.934605887,12.2801447 1.10576473,12.8696912 1.4908034,13.3124857 C1.87584206,13.7552801 2.43591021,14.0066446 3.02266191,14 L8.68266191,14 Z M15.6826619,1 L18.3526619,1 C19.5241515,0.979281939 20.5256076,1.83890092 20.6826619,3 L20.6826619,10 C20.5256076,11.1610991 19.5241515,12.0207181 18.3526619,12 L15.6826619,12 L15.6826619,1 Z" id="Shape" stroke="#868686" stroke-width="2"></path>
    </g>
</svg>